<svg viewBox="0 0 1303 400" xmlns="http://www.w3.org/2000/svg"><g><g><g><g><g><line x1="37.375" y1="376" x2="32.375" y2="376" style="visibility: inherit;" fill="rgb(0, 0, 0)" stroke="rgb(204, 204, 204)" stroke-width="1px"></line><line x1="37.375" y1="344.6666666666667" x2="32.375" y2="344.6666666666667" style="visibility: inherit;" fill="rgb(0, 0, 0)" stroke="rgb(204, 204, 204)" stroke-width="1px"></line><line x1="37.375" y1="313.3333333333333" x2="32.375" y2="313.3333333333333" style="visibility: inherit;" fill="rgb(0, 0, 0)" stroke="rgb(204, 204, 204)" stroke-width="1px"></line><line x1="37.375" y1="282.00000000000006" x2="32.375" y2="282.00000000000006" style="visibility: inherit;" fill="rgb(0, 0, 0)" stroke="rgb(204, 204, 204)" stroke-width="1px"></line><line x1="37.375" y1="250.66666666666669" x2="32.375" y2="250.66666666666669" style="visibility: inherit;" fill="rgb(0, 0, 0)" stroke="rgb(204, 204, 204)" stroke-width="1px"></line><line x1="37.375" y1="219.3333333333334" x2="32.375" y2="219.3333333333334" style="visibility: inherit;" fill="rgb(0, 0, 0)" stroke="rgb(204, 204, 204)" stroke-width="1px"></line><line x1="37.375" y1="188.00000000000003" x2="32.375" y2="188.00000000000003" style="visibility: inherit;" fill="rgb(0, 0, 0)" stroke="rgb(204, 204, 204)" stroke-width="1px"></line><line x1="37.375" y1="156.66666666666669" x2="32.375" y2="156.66666666666669" style="visibility: inherit;" fill="rgb(0, 0, 0)" stroke="rgb(204, 204, 204)" stroke-width="1px"></line><line x1="37.375" y1="125.33333333333339" x2="32.375" y2="125.33333333333339" style="visibility: inherit;" fill="rgb(0, 0, 0)" stroke="rgb(204, 204, 204)" stroke-width="1px"></line><line x1="37.375" y1="94.00000000000004" x2="32.375" y2="94.00000000000004" style="visibility: inherit;" fill="rgb(0, 0, 0)" stroke="rgb(204, 204, 204)" stroke-width="1px"></line><line x1="37.375" y1="62.666666666666735" x2="32.375" y2="62.666666666666735" style="visibility: inherit;" fill="rgb(0, 0, 0)" stroke="rgb(204, 204, 204)" stroke-width="1px"></line><line x1="37.375" y1="31.333333333333346" x2="32.375" y2="31.333333333333346" style="visibility: inherit;" fill="rgb(0, 0, 0)" stroke="rgb(204, 204, 204)" stroke-width="1px"></line><line x1="37.375" y1="0" x2="32.375" y2="0" style="visibility: inherit;" fill="rgb(0, 0, 0)" stroke="rgb(204, 204, 204)" stroke-width="1px"></line></g><g transform="translate(27.375, 0)"><text x="0" y="376" dx="0em" dy="0.3em" style="text-anchor: end; visibility: hidden; font-family: Roboto, sans-serif; font-size: 12px; font-weight: 200;" fill="rgb(255, 255, 255)" stroke="none" stroke-width="1px">1.8</text><text x="0" y="344.6666666666667" dx="0em" dy="0.3em" style="text-anchor: end; visibility: inherit; font-family: Roboto, sans-serif; font-size: 12px; font-weight: 200;" fill="rgb(255, 255, 255)" stroke="none" stroke-width="1px">2</text><text x="0" y="313.3333333333333" dx="0em" dy="0.3em" style="text-anchor: end; visibility: inherit; font-family: Roboto, sans-serif; font-size: 12px; font-weight: 200;" fill="rgb(255, 255, 255)" stroke="none" stroke-width="1px">2.2</text><text x="0" y="282.00000000000006" dx="0em" dy="0.3em" style="text-anchor: end; visibility: inherit; font-family: Roboto, sans-serif; font-size: 12px; font-weight: 200;" fill="rgb(255, 255, 255)" stroke="none" stroke-width="1px">2.4</text><text x="0" y="250.66666666666669" dx="0em" dy="0.3em" style="text-anchor: end; visibility: inherit; font-family: Roboto, sans-serif; font-size: 12px; font-weight: 200;" fill="rgb(255, 255, 255)" stroke="none" stroke-width="1px">2.6</text><text x="0" y="219.3333333333334" dx="0em" dy="0.3em" style="text-anchor: end; visibility: inherit; font-family: Roboto, sans-serif; font-size: 12px; font-weight: 200;" fill="rgb(255, 255, 255)" stroke="none" stroke-width="1px">2.8</text><text x="0" y="188.00000000000003" dx="0em" dy="0.3em" style="text-anchor: end; visibility: inherit; font-family: Roboto, sans-serif; font-size: 12px; font-weight: 200;" fill="rgb(255, 255, 255)" stroke="none" stroke-width="1px">3</text><text x="0" y="156.66666666666669" dx="0em" dy="0.3em" style="text-anchor: end; visibility: inherit; font-family: Roboto, sans-serif; font-size: 12px; font-weight: 200;" fill="rgb(255, 255, 255)" stroke="none" stroke-width="1px">3.2</text><text x="0" y="125.33333333333339" dx="0em" dy="0.3em" style="text-anchor: end; visibility: inherit; font-family: Roboto, sans-serif; font-size: 12px; font-weight: 200;" fill="rgb(255, 255, 255)" stroke="none" stroke-width="1px">3.4</text><text x="0" y="94.00000000000004" dx="0em" dy="0.3em" style="text-anchor: end; visibility: inherit; font-family: Roboto, sans-serif; font-size: 12px; font-weight: 200;" fill="rgb(255, 255, 255)" stroke="none" stroke-width="1px">3.6</text><text x="0" y="62.666666666666735" dx="0em" dy="0.3em" style="text-anchor: end; visibility: inherit; font-family: Roboto, sans-serif; font-size: 12px; font-weight: 200;" fill="rgb(255, 255, 255)" stroke="none" stroke-width="1px">3.8</text><text x="0" y="31.333333333333346" dx="0em" dy="0.3em" style="text-anchor: end; visibility: inherit; font-family: Roboto, sans-serif; font-size: 12px; font-weight: 200;" fill="rgb(255, 255, 255)" stroke="none" stroke-width="1px">4</text><text x="0" y="0" dx="0em" dy="0.3em" style="text-anchor: end; visibility: hidden; font-family: Roboto, sans-serif; font-size: 12px; font-weight: 200;" fill="rgb(255, 255, 255)" stroke="none" stroke-width="1px">4.2</text></g><line x1="37.375" y1="0" x2="37.375" y2="376" fill="rgb(0, 0, 0)" stroke="rgb(204, 204, 204)" stroke-width="1px"></line></g></g><g transform="translate(37, 0)" clip-path="url(#clip_0)"><clipPath id="clip_0"><rect width="1265" height="376"></rect></clipPath><g><g><g><line x1="0" y1="0" x2="0" y2="376" fill="rgb(0, 0, 0)" stroke="rgb(189, 189, 189)" stroke-width="1px" opacity="0.25"></line><line x1="158.203125" y1="0" x2="158.203125" y2="376" fill="rgb(0, 0, 0)" stroke="rgb(189, 189, 189)" stroke-width="1px" opacity="0.25"></line><line x1="316.40625" y1="0" x2="316.40625" y2="376" fill="rgb(0, 0, 0)" stroke="rgb(189, 189, 189)" stroke-width="1px" opacity="0.25"></line><line x1="474.609375" y1="0" x2="474.609375" y2="376" fill="rgb(0, 0, 0)" stroke="rgb(189, 189, 189)" stroke-width="1px" opacity="0.25"></line><line x1="632.8125" y1="0" x2="632.8125" y2="376" fill="rgb(0, 0, 0)" stroke="rgb(189, 189, 189)" stroke-width="1px" opacity="0.25"></line><line x1="791.015625" y1="0" x2="791.015625" y2="376" fill="rgb(0, 0, 0)" stroke="rgb(189, 189, 189)" stroke-width="1px" opacity="0.25"></line><line x1="949.21875" y1="0" x2="949.21875" y2="376" fill="rgb(0, 0, 0)" stroke="rgb(189, 189, 189)" stroke-width="1px" opacity="0.25"></line><line x1="1107.421875" y1="0" x2="1107.421875" y2="376" fill="rgb(0, 0, 0)" stroke="rgb(189, 189, 189)" stroke-width="1px" opacity="0.25"></line><line x1="1265.625" y1="0" x2="1265.625" y2="376" fill="rgb(0, 0, 0)" stroke="rgb(189, 189, 189)" stroke-width="1px" opacity="0.25"></line></g><g><line x1="0" y1="376" x2="1265.625" y2="376" fill="rgb(0, 0, 0)" stroke="rgb(189, 189, 189)" stroke-width="1px" opacity="0.25"></line><line x1="0" y1="344.6666666666667" x2="1265.625" y2="344.6666666666667" fill="rgb(0, 0, 0)" stroke="rgb(189, 189, 189)" stroke-width="1px" opacity="0.25"></line><line x1="0" y1="313.3333333333333" x2="1265.625" y2="313.3333333333333" fill="rgb(0, 0, 0)" stroke="rgb(189, 189, 189)" stroke-width="1px" opacity="0.25"></line><line x1="0" y1="282.00000000000006" x2="1265.625" y2="282.00000000000006" fill="rgb(0, 0, 0)" stroke="rgb(189, 189, 189)" stroke-width="1px" opacity="0.25"></line><line x1="0" y1="250.66666666666669" x2="1265.625" y2="250.66666666666669" fill="rgb(0, 0, 0)" stroke="rgb(189, 189, 189)" stroke-width="1px" opacity="0.25"></line><line x1="0" y1="219.3333333333334" x2="1265.625" y2="219.3333333333334" fill="rgb(0, 0, 0)" stroke="rgb(189, 189, 189)" stroke-width="1px" opacity="0.25"></line><line x1="0" y1="188.00000000000003" x2="1265.625" y2="188.00000000000003" fill="rgb(0, 0, 0)" stroke="rgb(189, 189, 189)" stroke-width="1px" opacity="0.25"></line><line x1="0" y1="156.66666666666669" x2="1265.625" y2="156.66666666666669" fill="rgb(0, 0, 0)" stroke="rgb(189, 189, 189)" stroke-width="1px" opacity="0.25"></line><line x1="0" y1="125.33333333333339" x2="1265.625" y2="125.33333333333339" fill="rgb(0, 0, 0)" stroke="rgb(189, 189, 189)" stroke-width="1px" opacity="0.25"></line><line x1="0" y1="94.00000000000004" x2="1265.625" y2="94.00000000000004" fill="rgb(0, 0, 0)" stroke="rgb(189, 189, 189)" stroke-width="1px" opacity="0.25"></line><line x1="0" y1="62.666666666666735" x2="1265.625" y2="62.666666666666735" fill="rgb(0, 0, 0)" stroke="rgb(189, 189, 189)" stroke-width="1px" opacity="0.25"></line><line x1="0" y1="31.333333333333346" x2="1265.625" y2="31.333333333333346" fill="rgb(0, 0, 0)" stroke="rgb(189, 189, 189)" stroke-width="1px" opacity="0.25"></line><line x1="0" y1="0" x2="1265.625" y2="0" fill="rgb(0, 0, 0)" stroke="rgb(189, 189, 189)" stroke-width="1px" opacity="0.25"></line></g></g></g><g><g><line x1="0" y1="658" x2="1265.625" y2="658" fill="rgb(0, 0, 0)" stroke="rgb(153, 153, 153)" stroke-width="1.5px"></line></g></g><g><g><line x1="158.203125" y1="0" x2="158.203125" y2="376" fill="rgb(0, 0, 0)" stroke="rgb(153, 153, 153)" stroke-width="1.5px"></line></g></g><g><g><g><g><g><path stroke="rgb(255, 112, 67)" stroke-width="2px" d="M158.203125,169.32533470789593L159.78515625,181.30571947502304L161.3671875,201.32238413181653L162.94921875,184.10269880394463L164.53125,148.31437778869702L166.11328125,164.53937099563214L167.6953125,142.1587672380366L169.27734375,147.61321691590777L170.859375,140.69993363855215L172.44140625,162.73709554386363L174.0234375,147.94011771393252L175.60546875000003,170.35495166551783L177.18750000000003,186.80237954889887L178.76953124999997,185.7493820092154L180.35156249999997,219.5376661813882L181.93359375,206.68769170735342L183.515625,197.38084298813163L185.09765625,186.4332293411941L186.6796875,170.26239387791645L188.26171875,165.51594270384288L189.84375,156.6770265714637L191.42578125,158.60467217832988L193.0078125,167.97351833526264L194.58984375,174.22841116964034L196.171875,182.0151151743501L197.75390625,183.63212886448477L199.3359375,159.58656567111385L200.91796875,162.41027173355246L202.5,195.27369184316643L204.08203125,214.42912072080244L205.6640625,183.9593840435994L207.24609375,184.74905687106627L208.828125,185.4424264059195L210.41015625,173.61266382052384L211.9921875,178.78432260372935L213.57421875,166.35272569091347L215.15625000000003,174.95387944098687L216.73828125000003,178.82987410346533L218.32031249999997,177.4920228925163L219.90234374999997,179.51037322997186L221.484375,167.12408094023175L223.06640625,165.89705464160113L224.6484375,132.8466184769204L226.23046875,179.00098053088772L227.8125,185.31892557629433L229.39453125,181.1387238235659L230.9765625,170.32778920534585L232.55859375,200.71395702243373L234.140625,222.5314103081528L235.72265625,191.7731054989592L237.3046875,165.32283022401873L238.88671875,149.84710715443248L240.46875,165.34779094065283L242.05078125,194.0692987708482L243.6328125,179.19072442362386L245.21484375,179.82018675378256L246.796875,177.70678943545053L248.37890625,176.83823983195563L249.9609375,188.36293736906674L251.54296875,180.50259681827242L253.125,171.50010108986797L254.70703125000003,150.27214495056765L256.2890625,135.0302311797723L257.87109375,121.71858546273926L259.453125,112.57046842934857L261.03515625,149.86709602222442L262.6171875,151.792799192445L264.19921875,150.18165297686812L265.78125,155.06340681897848L267.36328125,150.0732033807406L268.9453125,153.17020863333175L270.52734375,152.15076729692868L272.109375,162.75344941881642L273.69140625,161.49489990381045L275.2734375,165.6068066173405L276.85546875,151.1403304247716L278.4375,162.54621445838308L280.01953125,174.07226301704532L281.6015625,185.91904633114893L283.18359375,174.9452355949434L284.765625,189.70807279068256L286.34765625,150.83969036288457L287.9296875,176.84569954604478L289.51171875,135.92088628066142L291.09375,139.44873810696808L292.67578125,149.6158912037168L294.2578125,154.82788373317328L295.83984375,160.94157550867874L297.421875,161.69054221477998L299.00390625,158.500329430524L300.5859375,169.3264947220536L302.16796875,172.21454450711727L303.75,162.09238426264065L305.33203125,140.23908414660272L306.9140625,157.51509606565475L308.49609375,153.9508344146525L310.078125,122.67179209552224L311.66015625,173.5850399028689L313.2421875,151.59268448345784L314.82421875,138.7772135986972L316.40625,160.34564018500078L317.98828124999994,168.10134924133604L319.5703125,191.23562888603283L321.15234374999994,178.92562166023635L322.734375,175.02841148271298L324.31640625,173.913716626357L325.8984375,191.88857177185935L327.48046875,190.2967607442315L329.0625,174.00954791288325L330.64453125,190.72272053851265L332.2265625,152.37883556332915L333.80859375,188.13726917602145L335.390625,201.2672790917412L336.97265625,187.77303485740708L338.5546875,169.90602523889027L340.13671875,187.79093753565078L341.71875,199.1528615206179L343.30078125,219.03237091472732L344.8828125,199.56795750453747L346.46484375,184.32321119509993L348.046875,213.77626792565093L349.62890625,177.82630910904624L351.21093750000006,176.7713259067072L352.79296875,166.24699002400553L354.37500000000006,160.2476861544292L355.95703125,163.8604495857936L357.53906249999994,165.17292211887883L359.12109375,179.62580022318642L360.70312499999994,164.8828805492611L362.28515625,152.3378796872884L363.8671875,140.13166363204138L365.44921875,141.3217087814374L367.03125,149.78012883065372L368.61328125,165.9520294258518L370.1953125,207.4382754421455L371.77734375,217.86309674956846L373.359375,183.89181078639874L374.94140625,155.42204263418307L376.5234375,159.33839934438325L378.10546875,155.57853504499124L379.6875,155.09427307820224L381.26953125,168.25634732739877L382.8515625,163.71038399888317L384.43359375,173.2882684980398L386.015625,160.4318463084997L387.59765625,195.26398244006256L389.1796875,216.69877699592593L390.76171875000006,179.7622330799057L392.34375,155.8793706043124L393.92578125000006,172.81883759300024L395.5078125,162.60472897877366L397.08984374999994,187.09348190330059L398.671875,167.41794094775838L400.25390624999994,174.82608190879154L401.8359375,128.3437224994847L403.41796875,176.75555530036675L405,175.39887826886672L406.58203125,176.1488664283597L408.1640625,190.45735557601913L409.74609375,192.5616645503994L411.328125,186.0460996202672L412.91015625,196.8448486826997L414.4921875,190.12314782540528L416.07421875,205.5986516172524L417.65625,190.4274908475837L419.23828125,177.47168905217038L420.8203125,165.98608903646405L422.40234375,161.39255234794732L423.984375,197.5520954763606L425.56640625,205.94682076495744L427.1484375,243.8494279670115L428.73046875,222.83578773667472L430.31250000000006,222.8119212473613L431.89453125,217.50580184220578L433.47656250000006,179.8287808096062L435.05859375,186.4353749374055L436.64062499999994,206.76882954035094L438.22265625,228.72504974358804L439.80468749999994,217.90143483808689L441.38671875,208.37483182579362L442.96875,206.50404431941146L444.55078125,205.1272801793384L446.1328125,196.56019964942212L447.71484375,180.0124360483074L449.296875,187.7873641965537L450.87890625,163.3014782314718L452.4609375,185.6004991930045L454.04296875,171.53592354822933L455.625,182.628644532164L457.20703125,184.80465669529565L458.7890625,180.42992323508417L460.37109375,187.0398124675532L461.953125,166.3827603451914L463.53515625,178.88791541602308L465.1171875,172.01544344328346L466.69921875,158.35446995185882L468.28125,159.7111303650895L469.86328125000006,192.71708238822325L471.4453125,192.763698247548L473.02734375000006,202.5589113085857L474.609375,171.85733086384283L476.19140624999994,172.67039403172618L477.7734375,160.0726772636535L479.35546874999994,154.12101349657584L480.9375,141.40295483292724L482.51953125,193.61073144761696L484.1015625,181.54351770723855L485.68359375,200.559637926904L487.265625,220.73324287506264L488.84765625,209.62766428984366L490.4296875,191.75031875653383L492.01171875,209.39286944943157L493.59375,221.86492375617428L495.17578125,225.3153899121359L496.7578125,204.28094162159948L498.33984375,194.66220507600687L499.921875,194.27369370233487L501.50390625,190.24219643304943L503.0859375,204.8930449763071L504.66796875,195.922788640688L506.25,175.55877207322203L507.83203125,191.13705898346296L509.41406250000006,198.5819050317656L510.99609375,194.7963764994546L512.578125,196.7491445967406L514.16015625,194.23508365098772L515.7421875,207.3063629088997L517.32421875,234.69768808032285L518.90625,223.757732896192L520.48828125,207.44013846004995L522.0703125,206.42049907255773L523.65234375,190.48820359215475L525.234375,166.25665512515855L526.81640625,143.70843017362836L528.3984375,115.88697937797858L529.98046875,161.4161990203571L531.5625,155.49196957725908L533.14453125,177.40104367857148L534.7265625,175.48342259885496L536.30859375,159.4554033391838L537.890625,167.5450800090003L539.47265625,194.8576857892367L541.0546875,186.46070018889148L542.63671875,191.77318569126504L544.21875,177.60919024146054L545.80078125,194.2032431716048L547.3828125,183.88990845521087L548.96484375,175.56654184925267L550.546875,165.94170857234693L552.12890625,163.2258339932437L553.7109375,173.98068931973407L555.29296875,208.7352805483153L556.875,218.9990085418663L558.45703125,183.92622497044584L560.0390625,201.30405282804844L561.62109375,201.355363423173L563.203125,182.0443699682619L564.78515625,174.74033926935604L566.3671875,169.028159390586L567.94921875,180.0113597188835L569.53125,187.84943730517034L571.11328125,192.41028385202705L572.6953125,184.76794055469688L574.27734375,183.01657382650166L575.859375,178.34428150989606L577.44140625,178.42969447974664L579.0234375,172.56320350581873L580.60546875,192.5275398023211L582.1875,193.59504383957093L583.76953125,177.67135720916292L585.3515625,211.71653153031556L586.93359375,204.752790953424L588.515625,210.1354937011406L590.09765625,192.07806607451383L591.6796875,186.2159004687864L593.26171875,214.50829304148883L594.84375,237.72553814372245L596.42578125,232.6447709345546L598.0078125,228.95225755033115L599.58984375,242.0235929735076L601.171875,204.41477556722197L602.75390625,202.57418203701667L604.3359375,211.63052756382191L605.91796875,189.08122641512003L607.5,181.47285475660422L609.08203125,179.88017257347852L610.6640625,178.27524593198865L612.24609375,156.51117101644047L613.828125,164.62664032781942L615.41015625,125.56434828273468L616.9921875,168.583429780548L618.57421875,192.44101846542503L620.15625,199.50266492082162L621.73828125,218.8310251926698L623.3203125,205.6136368143441L624.90234375,200.60976628583364L626.484375,168.91614476181115L628.06640625,186.60841097027532L629.6484375,154.8608999973461L631.23046875,178.0900736176437L632.8125,209.88662514506063L634.39453125,192.1477850251255L635.9765624999999,175.43593968879412L637.55859375,157.57664752942526L639.140625,192.19029535424224L640.72265625,175.7101965225402L642.3046874999999,144.2590154945311L643.88671875,183.0852870100417L645.46875,187.76697970354064L647.05078125,157.3383647102421L648.6328125,183.863404513545L650.21484375,189.31604392906428L651.796875,190.0643043228045L653.37890625,206.8676335014467L654.9609375,156.70562708139204L656.54296875,156.96994549647985L658.125,167.82062136131793L659.70703125,144.2529269563044L661.2890625,160.3191350377387L662.8710937500001,157.0427719430864L664.453125,187.38696555096993L666.03515625,176.47229740001953L667.6171875,188.16631528587615L669.1992187500001,189.57067896238058L670.78125,189.40189018878525L672.36328125,187.49468002363145L673.9453125,200.32651561855246L675.5273437499999,183.75047735392124L677.109375,195.300257410573L678.69140625,158.6664905769567L680.2734375,204.89894228121423L681.8554687499999,192.41559439733186L683.4375,187.34593993629838L685.01953125,171.60999894385617L686.6015625,175.6662021187467L688.18359375,180.52350052344903L689.765625,198.55120068568627L691.34765625,184.35768715342456L692.9296875,183.0416128898778L694.51171875,190.29143363370187L696.09375,188.02431353828345L697.67578125,173.88799381454876L699.2578125,235.64270582871896L700.83984375,217.3230152156498L702.4218750000001,188.7386167241812L704.00390625,189.6117080875428L705.5859375,188.02162547822553L707.16796875,177.3554571351995L708.7500000000001,175.28038649602124L710.33203125,163.3964251148869L711.9140625,173.44021717828528L713.49609375,153.17068927559518L715.0781249999999,149.96383158026927L716.66015625,184.66081019175803L718.2421875,196.95831118865033L719.82421875,189.84289585452856L721.4062499999999,174.64392071068738L722.98828125,175.26407278208825L724.5703125,190.6215872870569L726.15234375,201.07993005917984L727.734375,168.8577489922796L729.31640625,156.08923705248594L730.8984375,176.56390917410275L732.48046875,184.22956921832903L734.0625,193.21754549878818L735.64453125,152.554314567851L737.2265625,205.32832459598967L738.80859375,193.69054518303736L740.390625,196.96501459709341L741.9726562500001,188.9996648912529L743.5546875,156.06626837469577L745.13671875,174.20438758807992L746.71875,194.85548304407686L748.3007812500001,213.36036393066257L749.8828125,207.80460104464814L751.46484375,212.38777026376601L753.046875,212.95464978631753L754.6289062499999,209.07803249040185L756.2109375,179.23924412578518L757.79296875,172.29129664375998L759.375,159.5114635047008L760.9570312499999,163.54802806316965L762.5390625,172.75629172820527L764.12109375,204.02149069426184L765.703125,207.46119190413165L767.28515625,198.915184714511L768.8671875,185.53674733096818L770.44921875,184.32919899587498L772.03125,165.7286698564735L773.61328125,183.10936378523394L775.1953125,147.82637883613907L776.77734375,142.29164850042275L778.359375,143.97946650400883L779.94140625,168.8807939013409L781.5234375000001,163.64485505361333L783.10546875,137.8299375617759L784.6875,157.82575387297817L786.26953125,157.63746562857236L787.8515625000001,158.34405424835646L789.43359375,164.38742757828854L791.015625,195.52800120644326L792.59765625,190.9258114300756L794.1796874999999,205.04483743855593L795.76171875,188.16442283599176L797.34375,206.078483021948L798.92578125,190.35459958064322L800.5078124999999,167.08862730074733L802.08984375,165.7583172712631L803.671875,189.66470252402053L805.25390625,167.5762697453267L806.8359375,192.53422123136593L808.41796875,176.95438228215463L810,161.58101327453403L811.58203125,151.1801411204545L813.1640625,173.68167049304083L814.74609375,198.47893905518336L816.328125,192.5928806843626L817.91015625,194.64846469531363L819.4921875,190.76388783031265L821.0742187500001,195.87401082777174L822.65625,176.1228092314173L824.23828125,158.5416744453621L825.8203125,161.0602561307887L827.4023437500001,180.48683790459015L828.984375,163.54118221225795L830.56640625,170.83657048303047L832.1484375,156.6850166200533L833.7304687499999,174.93042363955286L835.3125,168.89311625949202L836.89453125,147.22249409970487L838.4765625,171.78368748958522L840.0585937499999,167.03809516537112L841.640625,192.3694065659511L843.22265625,191.34433955951658L844.8046875,217.10231195530045L846.38671875,168.98483519552886L847.96875,176.68592770127412L849.55078125,167.95352292694471L851.1328125,192.11569165476953L852.71484375,210.1961024742756L854.296875,227.52788040333937L855.87890625,207.9521831830916L857.4609375,190.6972382834499L859.04296875,194.24412935954825L860.6250000000001,197.3127675187622L862.20703125,183.15613852452583L863.7890625,189.47815646895327L865.37109375,195.25319162571688L866.9531250000001,186.0909553874115L868.53515625,192.92405869145338L870.1171875,180.1129183303089L871.69921875,167.4416526099337L873.2812499999999,135.7800164106921L874.86328125,154.45116579969408L876.4453125,182.80915961230627L878.02734375,196.85012854912065L879.6093749999999,189.81794179352394L881.19140625,189.3363291225129L882.7734375,192.44821262093998L884.35546875,160.44559876328628L885.9375,137.49402971435734L887.51953125,133.58410593354563L889.1015625,148.11184574534747L890.68359375,185.35300412846198L892.265625,165.8454021030102L893.84765625,166.38501497441004L895.4296875,148.58703742589648L897.01171875,162.02830061438308L898.59375,180.8699162090189L900.1757812500001,203.75294836268702L901.7578125,183.66732297501284L903.33984375,161.4470820153498L904.921875,169.0756146821061L906.5039062500001,204.78825357415718L908.0859375,186.10977728366575L909.66796875,155.6172105771206L911.25,159.26430451960042L912.8320312499999,171.62487167617073L914.4140625,186.21993997368475L915.99609375,177.7462672319849L917.578125,146.37900993641966L919.1601562499999,158.82050763566852L920.7421875,161.01049362657182L922.32421875,148.77512760550889L923.90625,164.91641354012174L925.48828125,173.0868076413488L927.0703125,177.643966172489L928.65234375,170.61138420537986L930.234375,186.92637351337171L931.81640625,175.40158422923028L933.3984375,203.52796995872794L934.98046875,195.04504988881152L936.5625,151.73591799226017L938.14453125,180.92230778580193L939.7265625000001,178.97977505333984L941.30859375,172.2702315665719L942.890625,186.36194890201224L944.47265625,182.6392045437142L946.0546875000001,150.63191564724352L947.63671875,128.5772513298304L949.21875,144.15982325778825L950.80078125,165.8299132836826L952.3828124999999,188.16352110525736L953.96484375,182.593669918162L955.546875,187.12560052463442L957.12890625,200.61966920695198L958.7109374999999,197.62390749205946L960.29296875,174.50446140382857L961.875,140.78734219319662L963.45703125,161.46984208421435L965.0390625,144.25130557865384L966.62109375,138.33562391086835L968.203125,158.0631225304825L969.78515625,162.27993784856972L971.3671875,160.9807042960436L972.94921875,169.65455835847231L974.53125,138.6404676072491L976.11328125,133.7354160215232L977.6953125,135.23037004826517L979.2773437500001,169.57379485526147L980.859375,169.3181337010934L982.44140625,200.28745883330913L984.0234375,180.72091548707476L985.6054687500001,170.22744414558233L987.1875,148.98501334217434L988.76953125,161.1578563826457L990.3515625,164.9794220554828L991.9335937499999,156.55691693737583L993.515625,157.29997955436156L995.09765625,189.18039967271994L996.6796875,178.94873474499687L998.2617187499999,195.95354231420254L999.84375,191.75342211537136L1001.42578125,179.4588542586642L1003.0078125,165.45194180238724L1004.58984375,165.51598016265405L1006.171875,191.2981153272756L1007.75390625,183.6452444046885L1009.3359375,182.89678258202474L1010.91796875,178.8871851597064L1012.5,180.324438306464L1014.08203125,187.61317826361156L1015.6640625,192.9802781727688L1017.24609375,186.4190874466095L1018.8281250000001,188.8989026548879L1020.41015625,195.42730326016837L1021.9921875,171.492646146705L1023.57421875,140.53441426976616L1025.15625,153.85007337656464L1026.73828125,145.61795450170123L1028.3203125,189.25440327505513L1029.90234375,169.05595148332958L1031.484375,170.86747778396682L1033.06640625,186.3852958370311L1034.6484375,187.51590291191303L1036.23046875,188.84447626549425L1037.8125,193.27181670158532L1039.39453125,228.84086801478827L1040.9765625,187.66049586642913L1042.55859375,154.05459245492497L1044.140625,171.30004021973758L1045.72265625,154.6285288781981L1047.3046875,191.8071139053907L1048.88671875,204.90444204469594L1050.46875,204.98289751163335L1052.05078125,181.48291906033666L1053.6328125,186.16084211430547L1055.21484375,187.14140591791104L1056.796875,204.8163249399997L1058.37890625,195.5734377435334L1059.9609375,192.5886730863622L1061.54296875,227.98298079028777L1063.125,203.3208737173663L1064.70703125,192.31171461809922L1066.2890625,172.51540531280554L1067.87109375,147.9918706166834L1069.453125,177.98923014992752L1071.03515625,185.16313862113742L1072.6171875,194.16895928386373L1074.19921875,190.4393099291399L1075.78125,197.91312748680724L1077.36328125,180.02916204772868L1078.9453125,158.82000263864882L1080.52734375,149.3308409670111L1082.109375,157.56310601229782L1083.69140625,166.77144764995657L1085.2734375,162.0987437194251L1086.85546875,183.19303852243144L1088.4375,182.04094608696965L1090.01953125,150.85093283653657L1091.6015625,162.4319599757221L1093.18359375,169.96700881267503L1094.765625,170.08234622448404L1096.34765625,164.97882213841118L1097.9296875,166.45671877365373L1099.51171875,168.53462584492874L1101.09375,173.6127763377139L1102.67578125,180.26524123257548L1104.2578125,150.58402607796882L1105.83984375,171.00322337214382L1107.10546875,203.6022116757828" style="fill: none;" fill="none"></path></g></g></g></g><g opacity="0.2"><g><g><g><path stroke="rgb(255, 112, 67)" stroke-width="2px" d="M158.203125,169.32533470789593L159.78515625,189.28465572992963L161.3671875,223.5319945017497L162.94921875,159.90965572992963L164.53125,90.99200137456263L166.11328125,192.65300639470425L167.6953125,101.42601458231611L169.27734375,157.85733668009442L170.859375,127.44835186004643L172.44140625,205.54666487375897L174.0234375,118.94134092330937L175.60546875000003,214.53932968775433L177.18750000000003,219.34899139404297L178.76953124999997,183.6603415807089L180.35156249999997,286.68432998657227L181.93359375,181.12233130137128L183.515625,178.8506798744202L185.09765625,164.62533919016522L186.6796875,138.03898302714032L188.26171875,156.05565118789676L189.84375,139.05731725692752L191.42578125,162.44766600926724L193.0078125,186.652667204539L194.58984375,186.69965632756558L196.171875,197.5409957567851L197.75390625,186.85634899139407L199.3359375,111.64065806070967L200.91796875,168.04067897796634L202.5,260.80299743016565L204.08203125,252.62498505910244L205.6640625,123.2026716868083L207.24609375,186.32366863886517L208.828125,186.82501045862836L210.41015625,150.0240108172099L211.9921875,189.0966618855795L213.57421875,141.56398900349942L215.15625000000003,192.1046754519145L216.73828125000003,186.55865160624188L218.32031249999997,174.824332078298L219.90234374999997,183.53498744964602L221.484375,142.4256679217021L223.06640625,163.4503496487936L224.6484375,66.94365549087529L226.23046875,271.0333288510641L227.8125,197.9169834454855L229.39453125,172.80335156122845L230.9765625,148.77065626780194L232.55859375,261.30433924992883L234.140625,266.03567330042523L235.72265625,130.4406774838766L237.3046875,112.58066463470463L238.88671875,118.98833004633589L240.46875,196.2563400268555L242.05078125,251.3403293291728L243.6328125,149.52266899744671L245.21484375,181.07534217834475L246.796875,173.4926498730978L248.37890625,175.10634152094525L249.9609375,211.34332227706912L251.54296875,164.82898362477627L253.125,153.549016793569L254.70703125000003,107.94334618250532L256.2890625,104.63767258326216L257.87109375,95.17500448226933L259.453125,94.32901350657148L261.03515625,224.23701810836792L262.6171875,155.63267437616986L264.19921875,146.96900812784833L265.78125,164.79768244425458L267.36328125,140.1226779619853L268.9453125,159.3456741968791L270.52734375,150.11798906326297L272.109375,183.8953245480856L273.69140625,158.9853370984396L275.2734375,173.80599784851077L276.85546875,122.29400364557905L278.4375,185.28968381881717L280.01953125,197.0553418795268L281.6015625,209.5416741371155L283.18359375,153.0633255640666L284.765625,219.14534695943203L286.34765625,73.33567031224574L287.9296875,228.70199330647793L289.51171875,54.31631851196289L291.09375,146.48331689834598L292.67578125,169.88931624094647L294.2578125,165.22065925598147L295.83984375,173.13235012690228L297.421875,163.18399079640713L299.00390625,152.13900693257656L300.5859375,190.913997968038L302.16796875,177.9733503659567L303.75,141.90867551167813L305.33203125,96.663341999054L306.9140625,191.96367073059085L308.49609375,146.84365399678555L310.078125,60.301007111867285L311.66015625,275.1066657702128L313.2421875,107.73966439565028L314.82421875,113.22301117579146L316.40625,203.35334110260013L317.98828124999994,183.56632598241177L319.5703125,237.36565955479946L321.15234374999994,154.3793198267619L322.734375,167.25732771555585L324.31640625,171.6910017331442L325.8984375,227.73064819971722L327.48046875,187.12267049153652L329.0625,141.53265047073367L330.64453125,224.04898691177368L332.2265625,75.92066971460986L333.80859375,259.4400140444438L335.390625,227.44867610931396L336.97265625,160.86535024642947L338.5546875,134.27899408340457L340.13671875,223.45366684595746L341.71875,221.80867401758832L343.30078125,258.6723507245382L344.8828125,160.75568405787152L346.46484375,153.92500448226932L348.046875,272.5060157775879L349.62890625,106.14166069030766L351.21093750000006,174.66767676671353L352.79296875,145.26133823394778L354.37500000000006,148.28500239054364L355.95703125,171.0643431345622L357.53906249999994,167.79000806808475L359.12109375,208.44501225153607L360.70312499999994,135.48532215754193L362.28515625,127.3229977289836L363.8671875,115.79232263565068L365.44921875,143.69467306137088L367.03125,166.64631970723477L368.61328125,198.19899288813275L370.1953125,290.1623468399048L371.77734375,238.650315284729L373.359375,116.15265973409022L374.94140625,98.6529839833578L376.5234375,167.14766152699795L378.10546875,148.08132060368862L379.6875,154.1286489168803L381.26953125,194.5016810099284L382.8515625,154.64567867914838L384.43359375,192.3866848945618L386.015625,134.79598649342861L387.59765625,264.7196790377299L389.1796875,259.4400140444438L390.76171875000006,106.11032215754194L392.34375,108.25665680567427L393.92578125000006,206.59633763631192L395.5078125,142.23767407735195L397.08984374999994,235.92434851328534L398.671875,128.1846766471863L400.25390624999994,189.59800370534268L401.8359375,35.657341162363714L403.41796875,273.28932968775433L405,172.69364802042645L406.58203125,177.64435180028286L408.1640625,218.98865429560345L409.74609375,196.75768184661868L411.328125,173.053985118866L412.91015625,218.37768363952637L414.4921875,176.71999581654873L416.07421875,236.45699151357022L417.65625,160.1760145823161L419.23828125,151.63766511281338L420.8203125,143.08366505304974L422.40234375,152.23298517862958L423.984375,269.65465752283734L425.56640625,222.6860035260519L427.1484375,319.42768065134686L428.73046875,180.93433745702114L430.31250000000006,222.76433118184414L431.89453125,206.92533620198574L433.47656250000006,104.70034964879359L435.05859375,199.60900274912518L436.64062499999994,247.31398153305054L438.22265625,272.5060157775879L439.80468749999994,196.3190170923869L441.38671875,189.37867132822674L442.96875,202.7736716270447L444.55078125,202.3819959958395L446.1328125,179.47733847300213L447.71484375,147.0159972508749L449.296875,203.29066403706875L450.87890625,114.47632837295536L452.4609375,230.06501404444379L454.04296875,143.4909912745158L455.625,204.74766302108767L457.20703125,189.14365100860599L458.7890625,171.70665232340497L460.37109375,200.22001075744632L461.953125,125.19235102335615L463.53515625,203.8233443895976L465.1171875,158.31165202458706L466.69921875,131.11432520548504L468.28125,162.4163274765015L469.86328125000006,258.53134600321454L471.4453125,192.8566508293152L473.02734375000006,222.0906834602356L474.609375,110.63801177342738L476.19140624999994,174.29165172576907L477.7734375,134.9526791572571L479.35546874999994,142.25332466761273L480.9375,116.04299354553227L482.51953125,297.713663260142L484.1015625,157.48134899139407L485.68359375,238.47800938288373L487.265625,260.9596527417501L488.84765625,187.483007589976L490.4296875,156.10267766316738L492.01171875,244.572326819102L493.59375,246.7343494097392L495.17578125,232.19566075007123L496.7578125,162.33799982070926L498.33984375,175.48232920964566L499.921875,193.49899737040204L501.50390625,182.20334259668988L503.0859375,234.10701243082684L504.66796875,178.03599007924404L506.25,134.9526791572571L507.83203125,222.2003496487936L509.41406250000006,213.42701721191406L510.99609375,187.24798727035525L512.578125,200.64298756917324L514.16015625,189.22201601664227L515.7421875,233.37065029144287L517.32421875,289.3163185119629L518.90625,201.9433312416077L520.48828125,174.90265973409024L522.0703125,204.38732592264813L523.65234375,158.71901559829715L525.234375,117.938657283783L526.81640625,98.74699958165492L528.3984375,60.41067330042524L529.98046875,252.2020082473755L531.5625,143.678985118866L533.14453125,221.08799982070923L534.7265625,171.65966320037845L536.30859375,127.49534098307295L537.890625,183.67599217096966L539.47265625,249.31934881210327L541.0546875,169.71701033910122L542.63671875,202.36634540557864L544.21875,149.36601368586224L545.80078125,227.2919834454855L547.3828125,163.32499551773074L548.96484375,158.96964915593472L550.546875,146.74967575073245L552.12890625,157.8103475570679L553.7109375,195.42599964141849L555.29296875,278.0363516807556L556.875,239.4650050799052L558.45703125,113.99067449569706L560.0390625,235.95564969380703L561.62109375,201.4576773643494L563.203125,143.5380177497864L564.78515625,160.1760145823161L566.3671875,157.63800430297854L567.94921875,201.91199270884198L569.53125,203.47865788141888L571.11328125,201.5046664873759L572.6953125,169.529016494751L574.27734375,179.5243275960287L575.859375,169.02767467498782L577.44140625,178.6000089645386L579.0234375,160.86535024642947L580.60546875,232.33666547139492L582.1875,195.7236596743266L583.76953125,145.91933536529544L585.3515625,279.6030168533325L586.93359375,190.8670088450114L588.515625,220.8686674435934L590.09765625,156.07133913040164L591.6796875,174.52667204538983L593.26171875,270.9236626625061L594.84375,284.02100292841595L596.42578125,222.51366027196255L598.0078125,221.5893416404724L599.58984375,268.08799235026044L601.171875,129.42234325408938L602.75390625,198.904016494751L604.3359375,229.68898900349942L605.91796875,144.1176498730978L607.5,166.30167055130008L609.08203125,176.70434522628787L610.6640625,175.0750029881796L612.24609375,113.11334498723353L613.828125,180.80898332595828L615.41015625,47.67367013295493L616.9921875,254.3639934857687L618.57421875,240.01333602269497L620.15625,213.58367252349854L621.73828125,257.3720070521037L623.3203125,179.25800609588626L624.90234375,190.63198852539065L626.484375,105.71868387858076L628.06640625,221.88700167338055L629.6484375,91.55598290761317L631.23046875,224.40932401021328L632.8125,273.28932968775433L634.39453125,156.77632538477582L635.9765624999999,142.1123199462891L637.55859375,121.96500507990523L639.140625,261.2103236516317L640.72265625,142.84868208567303L642.3046874999999,81.54498386383061L643.88671875,260.5053373972575L645.46875,197.10233100255337L647.05078125,96.663341999054L648.6328125,236.75465154647827L650.21484375,200.1886722246806L651.796875,191.55634450912478L653.37890625,240.37367312113446L654.9609375,56.681985537211126L656.54296875,157.49699958165493L658.125,189.45699898401898L659.70703125,97.25866206487025L661.2890625,192.35534636179608L662.8710937500001,150.5096646944682L664.453125,247.89365100860596L666.03515625,154.70831839243573L667.6171875,211.48432699839276L669.1992187500001,192.3709969520569L670.78125,189.06532335281375L672.36328125,183.69168011347455L673.9453125,225.91334946950283L675.5273437499999,150.6976585388184L677.109375,218.3306571642558L678.69140625,85.61832078297938L680.2734375,297.08700466156006L681.8554687499999,167.52364921569827L683.4375,177.2369882265727L685.01953125,140.23234415054324L686.6015625,183.7543198267619L688.18359375,190.20901171366376L689.765625,234.49865070978802L691.34765625,156.05565118789676L692.9296875,180.4173450469971L694.51171875,204.74766302108767L696.09375,183.5036489168803L697.67578125,145.7000029881796L699.2578125,358.7823411623637L700.83984375,180.79333273569745L702.4218750000001,131.74098380406704L704.00390625,191.3526627222697L705.5859375,184.85098171234134L707.16796875,156.0869897206625L708.7500000000001,171.14267079035443L710.33203125,139.69966379801434L711.9140625,193.46765883763638L713.49609375,112.75300788879399L715.0781249999999,143.56931893030804L716.66015625,253.84700107574463L718.2421875,221.4796754519145L719.82421875,175.654672463735L721.4062499999999,144.33698225021365L722.98828125,176.5006634394328L724.5703125,221.2446551322937L726.15234375,221.93399079640713L727.734375,104.60633405049647L729.31640625,130.62867132822674L730.8984375,217.3906505902609L732.48046875,199.51498715082806L734.0625,211.13967784245816L735.64453125,71.47134510676074L737.2265625,310.5603326161703L738.80859375,170.48467365900677L740.390625,203.49434582392377L741.9726562500001,173.1166621843974L743.5546875,90.39668130874638L745.13671875,210.37201452255252L746.71875,236.03401470184326L748.3007812500001,250.25931803385419L749.8828125,196.72634331385296L751.46484375,221.52666457494107L753.046875,214.08501434326172L754.6289062499999,201.34801117579144L756.2109375,119.74034277598066L757.79296875,158.43700615564984L759.375,134.02832317352298L760.9570312499999,171.59698613484707L762.5390625,191.117679754893L764.12109375,266.36467186609906L765.703125,214.31999731063843L767.28515625,181.87434403101605L768.8671875,158.85998296737674L770.44921875,181.92133315404263L772.03125,128.6389919916789L773.61328125,217.76667563120526L775.1953125,77.47168429692591L776.77734375,131.25532992680874L778.359375,147.34499581654873L779.94140625,218.53433895111084L781.5234375000001,153.20433028539028L783.10546875,86.35468292236332L784.6875,197.69765106836957L786.26953125,157.26201661427822L787.8515625000001,159.75300041834515L789.43359375,176.4379863739014L791.015625,257.6226779619853L792.59765625,181.74898989995327L794.1796874999999,233.1983443895976L795.76171875,154.50467395782474L797.34375,241.7993335723877L798.92578125,159.00098768870038L800.5078124999999,120.69599994023646L802.08984375,163.1056631406149L803.671875,237.3343210220337L805.25390625,123.53167025248213L806.8359375,242.30067539215088L808.41796875,145.88799683252972L810,130.9263313611349L811.58203125,130.4406774838766L813.1640625,218.54998954137173L814.74609375,247.92498954137173L816.328125,180.8560098012289L817.91015625,198.7473238309225L819.4921875,183.017995039622L821.0742187500001,206.063657283783L822.65625,136.7386767069499L824.23828125,123.48468112945561L825.8203125,166.08233817418423L827.4023437500001,219.22367461522427L828.984375,129.7513418197632L830.56640625,185.38366206487026L832.1484375,128.46664873758954L833.7304687499999,211.3119837443034L835.3125,156.85465304056805L836.89453125,104.01101398468022L838.4765625,220.7590012550354L840.0585937499999,157.57532723744717L841.640625,242.8803448677063L843.22265625,189.3003436724345L844.8046875,268.46401739120483L846.38671875,73.03801027933764L847.96875,192.04199838638309L849.55078125,150.54100322723392L851.1328125,240.29534546534222L852.71484375,246.24865818023682L854.296875,262.0876531600952L855.87890625,168.91800848642987L857.4609375,156.29067150751752L859.04296875,201.31667264302578L860.6250000000001,203.43166875839236L862.20703125,154.92765076955166L863.7890625,202.08433596293133L865.37109375,206.76868089040127L866.9531250000001,167.8213466008505L868.53515625,206.54934851328534L870.1171875,154.56735102335614L871.69921875,142.1749970118205L873.2812499999999,72.64633464813237L874.86328125,191.68166128794354L876.4453125,239.35533889134732L878.02734375,224.847988764445L879.6093749999999,175.79567718505862L881.19140625,188.37598768870038L882.7734375,198.6533455848694L884.35546875,96.63200346628828L885.9375,91.72832616170253L887.51953125,125.7876710891724L889.1015625,177.08033291498822L890.68359375,259.61231994628906L892.265625,126.94701004028325L893.84765625,167.46100950241092L895.4296875,113.09765704472865L897.01171875,188.83034038543704L898.59375,218.44032335281372L900.1757812500001,249.38198852539062L901.7578125,143.61634540557864L903.33984375,117.1396554311117L904.921875,184.2870001792908L906.5039062500001,275.9996832211813L908.0859375,148.86467186609906L909.66796875,94.81466738382979L911.25,166.5366535186768L912.8320312499999,196.27199061711636L914.4140625,215.3226809501648L915.99609375,160.8496623039246L917.578125,83.83232323328662L919.1601562499999,183.62900304794314L920.7421875,165.37735191981L922.32421875,124.37766122817997L923.90625,197.10233100255337L925.48828125,189.37867132822674L927.0703125,186.73099486033124L928.65234375,156.58833154042568L930.234375,219.45865758260098L931.81640625,152.42101637522381L933.3984375,259.61231994628906L934.98046875,178.13000567754116L936.5625,65.37699031829838L938.14453125,239.1203185717265L939.7265625000001,175.10634152094525L941.30859375,158.89132150014248L942.890625,214.4610020319621L944.47265625,175.2160077095032L946.0546875000001,86.80899826685595L947.63671875,84.59998655319218L949.21875,175.23165829976406L950.80078125,209.04033231735232L952.3828124999999,232.6970025698344L953.96484375,171.4873199462891L955.546875,196.16232442855838L957.12890625,227.5270037651062L958.7109374999999,191.65032275517788L960.29296875,128.40400902430218L961.875,73.55500268936161L963.45703125,202.71099456151333L965.0390625,109.91733757654829L966.62109375,126.53968381881718L968.203125,197.39999103546145L969.78515625,170.68831809361782L971.3671875,158.39001703262332L972.94921875,186.95032723744717L974.53125,76.79799922307338L976.11328125,123.95468441645308L977.6953125,138.21132628122967L979.2773437500001,238.05499521891278L980.859375,168.80834229787197L982.44140625,262.0406640370687L984.0234375,141.70499372482303L985.6054687500001,149.30333662033084L987.1875,106.62735191981001L988.76953125,185.43065118789676L990.3515625,172.59966977437344L991.9335937499999,139.7623408635458L993.515625,158.7816553115845L995.09765625,252.75033919016522L996.6796875,158.5466723442078L998.2617187499999,229.86133225758877L999.84375,183.37833213806155L1001.42578125,154.94333871205654L1003.0078125,137.52199061711636L1004.58984375,165.64367341995242L1006.171875,242.70800161361694L1007.75390625,168.38532813390103L1009.3359375,181.40434074401858L1010.91796875,170.89199988047284L1012.5,183.19033829371136L1014.08203125,202.1470130284628L1015.6640625,203.68233966827395L1017.24609375,173.33599456151333L1018.8281250000001,193.84368387858075L1020.41015625,208.44501225153607L1021.9921875,123.76665321985884L1023.57421875,78.80332914988207L1025.15625,180.40165710449222L1026.73828125,129.20301087697354L1028.3203125,276.26600472132367L1029.90234375,128.7799967130026L1031.484375,174.4796829223633L1033.06640625,217.32801087697354L1034.6484375,189.77034695943203L1036.23046875,191.4936674435934L1037.8125,202.09998655319217L1039.39453125,299.76598230997723L1040.9765625,105.5463406244914L1042.55859375,87.0440185864767L1044.140625,205.68766959508267L1045.72265625,121.3853356043498L1047.3046875,265.9416577021281L1048.88671875,231.0206712086996L1050.46875,205.1393386522929L1052.05078125,134.62368059158328L1053.6328125,195.4886767069499L1055.21484375,189.0966618855795L1056.796875,240.06032514572144L1058.37890625,177.14300998051968L1059.9609375,186.63701661427822L1061.54296875,298.55965423583984L1063.125,154.1443368593852L1064.70703125,170.359319527944L1066.2890625,133.0413274765015L1067.87109375,99.09164873758955L1069.453125,237.8043243090312L1071.03515625,199.46799802780154L1072.6171875,212.12667353947964L1074.19921875,183.00234444936123L1075.78125,212.81600920359296L1077.36328125,144.3683207829794L1078.9453125,116.52868477503462L1080.52734375,130.40933895111087L1082.109375,173.97834110260013L1083.69140625,185.13299115498867L1085.2734375,152.78131612141934L1086.85546875,225.25531498591107L1088.4375,179.74365997314456L1090.01953125,88.65767288208012L1091.6015625,185.52466678619388L1093.18359375,184.99198643366498L1094.765625,170.31233040491742L1096.34765625,154.80233399073285L1097.9296875,169.40366236368817L1099.51171875,172.67799743016568L1101.09375,183.73866923650112L1102.67578125,193.53033590316775L1104.2578125,91.3993275960287L1105.83984375,211.71934731801358L1107.10546875,268.6049847602844" style="fill: none;" fill="none"></path></g></g></g></g></g></g><g transform="translate(37, 376)" clip-path="url(#clip_1)"><clipPath id="clip_1"><rect width="1265" height="24"></rect></clipPath><g><g><line x1="0" y1="0" x2="0" y2="5" style="visibility: inherit;" fill="rgb(0, 0, 0)" stroke="rgb(204, 204, 204)" stroke-width="1px"></line><line x1="158.203125" y1="0" x2="158.203125" y2="5" style="visibility: inherit;" fill="rgb(0, 0, 0)" stroke="rgb(204, 204, 204)" stroke-width="1px"></line><line x1="316.40625" y1="0" x2="316.40625" y2="5" style="visibility: inherit;" fill="rgb(0, 0, 0)" stroke="rgb(204, 204, 204)" stroke-width="1px"></line><line x1="474.609375" y1="0" x2="474.609375" y2="5" style="visibility: inherit;" fill="rgb(0, 0, 0)" stroke="rgb(204, 204, 204)" stroke-width="1px"></line><line x1="632.8125" y1="0" x2="632.8125" y2="5" style="visibility: inherit;" fill="rgb(0, 0, 0)" stroke="rgb(204, 204, 204)" stroke-width="1px"></line><line x1="791.015625" y1="0" x2="791.015625" y2="5" style="visibility: inherit;" fill="rgb(0, 0, 0)" stroke="rgb(204, 204, 204)" stroke-width="1px"></line><line x1="949.21875" y1="0" x2="949.21875" y2="5" style="visibility: inherit;" fill="rgb(0, 0, 0)" stroke="rgb(204, 204, 204)" stroke-width="1px"></line><line x1="1107.421875" y1="0" x2="1107.421875" y2="5" style="visibility: inherit;" fill="rgb(0, 0, 0)" stroke="rgb(204, 204, 204)" stroke-width="1px"></line><line x1="1265.625" y1="0" x2="1265.625" y2="5" style="visibility: inherit;" fill="rgb(0, 0, 0)" stroke="rgb(204, 204, 204)" stroke-width="1px"></line></g><g transform="translate(0, 8)"><text x="0" y="0" dx="0em" dy="0.95em" style="text-anchor: middle; visibility: hidden; font-family: Roboto, sans-serif; font-size: 12px; font-weight: 200;" fill="rgb(255, 255, 255)" stroke="none" stroke-width="1px">-500</text><text x="158.203125" y="0" dx="0em" dy="0.95em" style="text-anchor: middle; visibility: inherit; font-family: Roboto, sans-serif; font-size: 12px; font-weight: 200;" fill="rgb(255, 255, 255)" stroke="none" stroke-width="1px">0</text><text x="316.40625" y="0" dx="0em" dy="0.95em" style="text-anchor: middle; visibility: inherit; font-family: Roboto, sans-serif; font-size: 12px; font-weight: 200;" fill="rgb(255, 255, 255)" stroke="none" stroke-width="1px">500</text><text x="474.609375" y="0" dx="0em" dy="0.95em" style="text-anchor: middle; visibility: inherit; font-family: Roboto, sans-serif; font-size: 12px; font-weight: 200;" fill="rgb(255, 255, 255)" stroke="none" stroke-width="1px">1k</text><text x="632.8125" y="0" dx="0em" dy="0.95em" style="text-anchor: middle; visibility: inherit; font-family: Roboto, sans-serif; font-size: 12px; font-weight: 200;" fill="rgb(255, 255, 255)" stroke="none" stroke-width="1px">1.5k</text><text x="791.015625" y="0" dx="0em" dy="0.95em" style="text-anchor: middle; visibility: inherit; font-family: Roboto, sans-serif; font-size: 12px; font-weight: 200;" fill="rgb(255, 255, 255)" stroke="none" stroke-width="1px">2k</text><text x="949.21875" y="0" dx="0em" dy="0.95em" style="text-anchor: middle; visibility: inherit; font-family: Roboto, sans-serif; font-size: 12px; font-weight: 200;" fill="rgb(255, 255, 255)" stroke="none" stroke-width="1px">2.5k</text><text x="1107.421875" y="0" dx="0em" dy="0.95em" style="text-anchor: middle; visibility: inherit; font-family: Roboto, sans-serif; font-size: 12px; font-weight: 200;" fill="rgb(255, 255, 255)" stroke="none" stroke-width="1px">3k</text><text x="1265.625" y="0" dx="0em" dy="0.95em" style="text-anchor: middle; visibility: hidden; font-family: Roboto, sans-serif; font-size: 12px; font-weight: 200;" fill="rgb(255, 255, 255)" stroke="none" stroke-width="1px">3.5k</text></g><line x1="0" y1="0" x2="1265.625" y2="0" fill="rgb(0, 0, 0)" stroke="rgb(204, 204, 204)" stroke-width="1px"></line></g></g></g></g></svg>