<svg viewBox="0 0 1303 400" xmlns="http://www.w3.org/2000/svg"><g><g><g><g><g><line x1="64.75" y1="376" x2="59.75" y2="376" style="visibility: inherit;" fill="rgb(0, 0, 0)" stroke="rgb(204, 204, 204)" stroke-width="1px"></line><line x1="64.75" y1="341.8181818181818" x2="59.75" y2="341.8181818181818" style="visibility: inherit;" fill="rgb(0, 0, 0)" stroke="rgb(204, 204, 204)" stroke-width="1px"></line><line x1="64.75" y1="307.6363636363636" x2="59.75" y2="307.6363636363636" style="visibility: inherit;" fill="rgb(0, 0, 0)" stroke="rgb(204, 204, 204)" stroke-width="1px"></line><line x1="64.75" y1="273.45454545454544" x2="59.75" y2="273.45454545454544" style="visibility: inherit;" fill="rgb(0, 0, 0)" stroke="rgb(204, 204, 204)" stroke-width="1px"></line><line x1="64.75" y1="239.27272727272728" x2="59.75" y2="239.27272727272728" style="visibility: inherit;" fill="rgb(0, 0, 0)" stroke="rgb(204, 204, 204)" stroke-width="1px"></line><line x1="64.75" y1="205.09090909090907" x2="59.75" y2="205.09090909090907" style="visibility: inherit;" fill="rgb(0, 0, 0)" stroke="rgb(204, 204, 204)" stroke-width="1px"></line><line x1="64.75" y1="170.90909090909093" x2="59.75" y2="170.90909090909093" style="visibility: inherit;" fill="rgb(0, 0, 0)" stroke="rgb(204, 204, 204)" stroke-width="1px"></line><line x1="64.75" y1="136.72727272727272" x2="59.75" y2="136.72727272727272" style="visibility: inherit;" fill="rgb(0, 0, 0)" stroke="rgb(204, 204, 204)" stroke-width="1px"></line><line x1="64.75" y1="102.54545454545458" x2="59.75" y2="102.54545454545458" style="visibility: inherit;" fill="rgb(0, 0, 0)" stroke="rgb(204, 204, 204)" stroke-width="1px"></line><line x1="64.75" y1="68.36363636363635" x2="59.75" y2="68.36363636363635" style="visibility: inherit;" fill="rgb(0, 0, 0)" stroke="rgb(204, 204, 204)" stroke-width="1px"></line><line x1="64.75" y1="34.181818181818194" x2="59.75" y2="34.181818181818194" style="visibility: inherit;" fill="rgb(0, 0, 0)" stroke="rgb(204, 204, 204)" stroke-width="1px"></line><line x1="64.75" y1="0" x2="59.75" y2="0" style="visibility: inherit;" fill="rgb(0, 0, 0)" stroke="rgb(204, 204, 204)" stroke-width="1px"></line></g><g transform="translate(54.75, 0)"><text x="0" y="376" dx="0em" dy="0.3em" style="text-anchor: end; visibility: hidden; font-family: Roboto, sans-serif; font-size: 12px; font-weight: 200;" fill="rgb(255, 255, 255)" stroke="none" stroke-width="1px">-5e-6</text><text x="0" y="341.8181818181818" dx="0em" dy="0.3em" style="text-anchor: end; visibility: inherit; font-family: Roboto, sans-serif; font-size: 12px; font-weight: 200;" fill="rgb(255, 255, 255)" stroke="none" stroke-width="1px">0</text><text x="0" y="307.6363636363636" dx="0em" dy="0.3em" style="text-anchor: end; visibility: inherit; font-family: Roboto, sans-serif; font-size: 12px; font-weight: 200;" fill="rgb(255, 255, 255)" stroke="none" stroke-width="1px">5e-6</text><text x="0" y="273.45454545454544" dx="0em" dy="0.3em" style="text-anchor: end; visibility: inherit; font-family: Roboto, sans-serif; font-size: 12px; font-weight: 200;" fill="rgb(255, 255, 255)" stroke="none" stroke-width="1px">1e-5</text><text x="0" y="239.27272727272728" dx="0em" dy="0.3em" style="text-anchor: end; visibility: inherit; font-family: Roboto, sans-serif; font-size: 12px; font-weight: 200;" fill="rgb(255, 255, 255)" stroke="none" stroke-width="1px">1.5e-5</text><text x="0" y="205.09090909090907" dx="0em" dy="0.3em" style="text-anchor: end; visibility: inherit; font-family: Roboto, sans-serif; font-size: 12px; font-weight: 200;" fill="rgb(255, 255, 255)" stroke="none" stroke-width="1px">2e-5</text><text x="0" y="170.90909090909093" dx="0em" dy="0.3em" style="text-anchor: end; visibility: inherit; font-family: Roboto, sans-serif; font-size: 12px; font-weight: 200;" fill="rgb(255, 255, 255)" stroke="none" stroke-width="1px">2.5e-5</text><text x="0" y="136.72727272727272" dx="0em" dy="0.3em" style="text-anchor: end; visibility: inherit; font-family: Roboto, sans-serif; font-size: 12px; font-weight: 200;" fill="rgb(255, 255, 255)" stroke="none" stroke-width="1px">3e-5</text><text x="0" y="102.54545454545458" dx="0em" dy="0.3em" style="text-anchor: end; visibility: inherit; font-family: Roboto, sans-serif; font-size: 12px; font-weight: 200;" fill="rgb(255, 255, 255)" stroke="none" stroke-width="1px">3.5e-5</text><text x="0" y="68.36363636363635" dx="0em" dy="0.3em" style="text-anchor: end; visibility: inherit; font-family: Roboto, sans-serif; font-size: 12px; font-weight: 200;" fill="rgb(255, 255, 255)" stroke="none" stroke-width="1px">4e-5</text><text x="0" y="34.181818181818194" dx="0em" dy="0.3em" style="text-anchor: end; visibility: inherit; font-family: Roboto, sans-serif; font-size: 12px; font-weight: 200;" fill="rgb(255, 255, 255)" stroke="none" stroke-width="1px">4.5e-5</text><text x="0" y="0" dx="0em" dy="0.3em" style="text-anchor: end; visibility: hidden; font-family: Roboto, sans-serif; font-size: 12px; font-weight: 200;" fill="rgb(255, 255, 255)" stroke="none" stroke-width="1px">5e-5</text></g><line x1="64.75" y1="0" x2="64.75" y2="376" fill="rgb(0, 0, 0)" stroke="rgb(204, 204, 204)" stroke-width="1px"></line></g></g><g transform="translate(64, 0)" clip-path="url(#clip_0)"><clipPath id="clip_0"><rect width="1238" height="376"></rect></clipPath><g><g><g><line x1="0" y1="0" x2="0" y2="376" fill="rgb(0, 0, 0)" stroke="rgb(189, 189, 189)" stroke-width="1px" opacity="0.25"></line><line x1="123.825" y1="0" x2="123.825" y2="376" fill="rgb(0, 0, 0)" stroke="rgb(189, 189, 189)" stroke-width="1px" opacity="0.25"></line><line x1="247.65" y1="0" x2="247.65" y2="376" fill="rgb(0, 0, 0)" stroke="rgb(189, 189, 189)" stroke-width="1px" opacity="0.25"></line><line x1="371.47499999999997" y1="0" x2="371.47499999999997" y2="376" fill="rgb(0, 0, 0)" stroke="rgb(189, 189, 189)" stroke-width="1px" opacity="0.25"></line><line x1="495.3" y1="0" x2="495.3" y2="376" fill="rgb(0, 0, 0)" stroke="rgb(189, 189, 189)" stroke-width="1px" opacity="0.25"></line><line x1="619.125" y1="0" x2="619.125" y2="376" fill="rgb(0, 0, 0)" stroke="rgb(189, 189, 189)" stroke-width="1px" opacity="0.25"></line><line x1="742.9499999999999" y1="0" x2="742.9499999999999" y2="376" fill="rgb(0, 0, 0)" stroke="rgb(189, 189, 189)" stroke-width="1px" opacity="0.25"></line><line x1="866.775" y1="0" x2="866.775" y2="376" fill="rgb(0, 0, 0)" stroke="rgb(189, 189, 189)" stroke-width="1px" opacity="0.25"></line><line x1="990.6" y1="0" x2="990.6" y2="376" fill="rgb(0, 0, 0)" stroke="rgb(189, 189, 189)" stroke-width="1px" opacity="0.25"></line><line x1="1114.425" y1="0" x2="1114.425" y2="376" fill="rgb(0, 0, 0)" stroke="rgb(189, 189, 189)" stroke-width="1px" opacity="0.25"></line><line x1="1238.25" y1="0" x2="1238.25" y2="376" fill="rgb(0, 0, 0)" stroke="rgb(189, 189, 189)" stroke-width="1px" opacity="0.25"></line></g><g><line x1="0" y1="376" x2="1238.25" y2="376" fill="rgb(0, 0, 0)" stroke="rgb(189, 189, 189)" stroke-width="1px" opacity="0.25"></line><line x1="0" y1="341.8181818181818" x2="1238.25" y2="341.8181818181818" fill="rgb(0, 0, 0)" stroke="rgb(189, 189, 189)" stroke-width="1px" opacity="0.25"></line><line x1="0" y1="307.6363636363636" x2="1238.25" y2="307.6363636363636" fill="rgb(0, 0, 0)" stroke="rgb(189, 189, 189)" stroke-width="1px" opacity="0.25"></line><line x1="0" y1="273.45454545454544" x2="1238.25" y2="273.45454545454544" fill="rgb(0, 0, 0)" stroke="rgb(189, 189, 189)" stroke-width="1px" opacity="0.25"></line><line x1="0" y1="239.27272727272728" x2="1238.25" y2="239.27272727272728" fill="rgb(0, 0, 0)" stroke="rgb(189, 189, 189)" stroke-width="1px" opacity="0.25"></line><line x1="0" y1="205.09090909090907" x2="1238.25" y2="205.09090909090907" fill="rgb(0, 0, 0)" stroke="rgb(189, 189, 189)" stroke-width="1px" opacity="0.25"></line><line x1="0" y1="170.90909090909093" x2="1238.25" y2="170.90909090909093" fill="rgb(0, 0, 0)" stroke="rgb(189, 189, 189)" stroke-width="1px" opacity="0.25"></line><line x1="0" y1="136.72727272727272" x2="1238.25" y2="136.72727272727272" fill="rgb(0, 0, 0)" stroke="rgb(189, 189, 189)" stroke-width="1px" opacity="0.25"></line><line x1="0" y1="102.54545454545458" x2="1238.25" y2="102.54545454545458" fill="rgb(0, 0, 0)" stroke="rgb(189, 189, 189)" stroke-width="1px" opacity="0.25"></line><line x1="0" y1="68.36363636363635" x2="1238.25" y2="68.36363636363635" fill="rgb(0, 0, 0)" stroke="rgb(189, 189, 189)" stroke-width="1px" opacity="0.25"></line><line x1="0" y1="34.181818181818194" x2="1238.25" y2="34.181818181818194" fill="rgb(0, 0, 0)" stroke="rgb(189, 189, 189)" stroke-width="1px" opacity="0.25"></line><line x1="0" y1="0" x2="1238.25" y2="0" fill="rgb(0, 0, 0)" stroke="rgb(189, 189, 189)" stroke-width="1px" opacity="0.25"></line></g></g></g><g><g><line x1="0" y1="341.8181818181818" x2="1238.25" y2="341.8181818181818" fill="rgb(0, 0, 0)" stroke="rgb(153, 153, 153)" stroke-width="1.5px"></line></g></g><g><g><line x1="123.825" y1="0" x2="123.825" y2="376" fill="rgb(0, 0, 0)" stroke="rgb(153, 153, 153)" stroke-width="1.5px"></line></g></g><g><g><g><g><g><path stroke="rgb(255, 112, 67)" stroke-width="2px" d="M125.06325000000001,328.14545457997485L128.158875,321.3090901836668L128.4684375,321.3090901836668L129.397125,321.3090901836668L129.7066875,321.3090901836668L130.01624999999999,321.3090901836668L130.63537499999998,321.3090901836668L131.873625,321.3090901836668L132.1831875,321.3090901836668L136.2075,314.4727273417679L138.3744375,307.63636449986905L138.684,307.63636449986905L138.9935625,307.63636449986905L139.6126875,307.63636449986905L140.54137500000002,307.63636449986905L142.39875,300.79999854915184L142.7083125,300.79999854915184L143.017875,300.79999854915184L143.3274375,300.79999854915184L144.256125,300.79999854915184L144.5656875,300.79999854915184L144.87525000000002,300.79999854915184L145.494375,293.96363570725293L145.8039375,293.96363570725293L147.66131249999998,293.96363570725293L149.209125,293.96363570725293L151.3760625,287.127272865354L154.4716875,280.2909069146368L155.7099375,280.2909069146368L156.638625,280.2909069146368L156.9481875,280.2909069146368L157.5673125,280.2909069146368L159.73425,273.4545471815562L161.2820625,273.4545471815562L162.52031250000002,266.618181230839L162.82987500000002,266.618181230839L163.449,266.618181230839L164.068125,266.618181230839L165.9255,266.618181230839L166.2350625,266.618181230839L168.40200000000002,259.78181528012186L169.021125,259.78181528012186L169.3306875,259.78181528012186L170.259375,259.78181528012186L172.42631250000002,252.94545554704115L173.35500000000002,252.94545554704115L173.97412500000002,252.94545554704115L174.59324999999998,252.94545554704115L176.45062499999997,246.109089596324L176.76018749999997,246.109089596324L177.06975,246.109089596324L178.6175625,246.109089596324L180.78449999999998,239.27272986324337L181.09406249999998,239.27272986324337L181.40362499999998,239.27272986324337L182.641875,239.27272986324337L182.9514375,239.27272986324337L183.261,239.27272986324337L185.42793749999998,232.4363639125262L186.35662499999998,232.4363639125262L186.6661875,232.4363639125262L186.97575,232.4363639125262L187.2853125,232.4363639125262L187.9044375,225.59999796180904L189.1426875,225.59999796180904L189.7618125,225.59999796180904L190.3809375,225.59999796180904L191.6191875,225.59999796180904L191.92875,225.59999796180904L192.2383125,218.76363201109186L193.167,218.76363201109186L194.7148125,218.76363201109186L197.8104375,211.92727849564773L199.35825,211.92727849564773L199.6678125,211.92727849564773L199.977375,211.92727849564773L203.692125,205.09091254493055L204.0016875,205.09091254493055L204.31125,205.09091254493055L207.7164375,198.25454659421337L208.645125,198.25454659421337L209.26425,191.4181806434962L209.883375,191.4181806434962L211.12162500000002,191.4181806434962L212.05031250000002,191.4181806434962L212.97899999999998,191.4181806434962L213.59812499999998,184.58181469277903L215.14593749999997,184.58181469277903L215.7650625,184.58181469277903L216.074625,184.58181469277903L218.55112499999998,177.74544874206185L219.17024999999998,177.74544874206185L220.4085,177.74544874206185L221.64675,177.74544874206185L222.265875,170.90909522661772L222.5754375,170.90909522661772L223.504125,170.90909522661772L228.1475625,164.07272927590054L228.457125,164.07272927590054L230.0049375,164.07272927590054L230.6240625,157.2363633251834L230.933625,157.2363633251834L232.791,157.2363633251834L233.410125,157.2363633251834L234.64837500000002,157.2363633251834L235.886625,150.3999973744662L236.1961875,150.3999973744662L236.50575,150.3999973744662L236.8153125,150.3999973744662L237.124875,150.3999973744662L237.4344375,150.3999973744662L240.839625,143.56363142374903L243.316125,143.56363142374903L244.55437500000002,136.7272779083049L245.17350000000002,136.7272779083049L245.79262500000002,136.7272779083049L246.7213125,136.7272779083049L248.269125,129.89091195758772L248.88825000000003,129.89091195758772L250.43606250000002,129.89091195758772L251.98387499999998,123.05454600687055L252.29343749999998,123.05454600687055L254.15081249999997,123.05454600687055L254.460375,123.05454600687055L255.698625,123.05454600687055L256.936875,116.21818005615339L258.4846875,116.21818005615339L258.79425,116.21818005615339L259.1038125,116.21818005615339L259.7229375,116.21818005615339L260.9611875,109.3818141054362L261.27074999999996,109.3818141054362L261.889875,109.3818141054362L263.128125,109.3818141054362L263.74725,109.3818141054362L264.9855,102.54544815471903L266.5333125,102.54544815471903L267.7715625,102.54544815471903L268.081125,102.54544815471903L268.70025,102.54544815471903L269.319375,95.7090822040019L270.557625,95.7090822040019L270.8671875,95.7090822040019L272.415,95.7090822040019L272.7245625,95.7090822040019L274.5819375,88.87271625328472L275.2010625,88.87271625328472L276.748875,88.87271625328472L277.987125,82.03637517311357L281.3923125,82.03637517311357L281.70187500000003,82.03637517311357L282.0114375,75.20000922239639L282.321,75.20000922239639L282.6305625,75.20000922239639L282.940125,75.20000922239639L283.8688125,75.20000922239639L284.178375,75.20000922239639L284.4879375,75.20000922239639L288.8218125,68.36364327167925L289.131375,68.36364327167925L289.75050000000005,68.36364327167925L290.0600625,68.36364327167925L290.369625,61.527277320962085L290.98875,61.527277320962085L291.607875,61.527277320962085L292.227,61.527277320962085L292.846125,61.527277320962085L294.08437499999997,61.527277320962085L294.70349999999996,54.690911370244905L295.6321875,54.690911370244905L295.94175,54.690911370244905L297.799125,54.690911370244905L298.41825,54.690911370244905L299.6565,47.85454541952773L300.5851875,47.85454541952773L301.2043125,47.85454541952773L304.60949999999997,41.01817946881056L304.9190625,41.01817946881056L305.84775,41.01817946881056L306.466875,41.01817946881056L306.7764375,41.01817946881056L307.705125,34.18181351809343L308.32425,34.18181351809343L309.87206249999997,34.18181351809343L310.181625,34.18181351809343L311.72943749999996,34.18181351809343L313.27725,34.18181351809343L313.58681249999995,34.18181351809343L314.20593749999995,34.18181351809343L316.0633125,34.18181351809343L316.372875,34.18181351809343L317.3015625,34.18181351809343L317.9206875,34.18181351809343L318.23025,34.18181351809343L319.4685,34.18181351809343L320.70675,34.18181351809343L321.63543749999997,34.18181351809343L322.25456249999996,34.18181351809343L322.564125,34.18181351809343L322.87368749999996,34.18181351809343L324.42150000000004,34.18181351809343L325.04062500000003,34.18181351809343L326.278875,34.18181351809343L327.2075625,34.18181351809343L327.8266875,34.18181351809343L329.993625,34.18181351809343L330.9223125,34.18181351809343L332.470125,34.18181351809343L332.77968749999997,34.18181351809343L334.01793749999996,34.18181351809343L335.2561875,34.18181351809343L337.7326875,34.18181351809343L338.3518125,34.18181351809343L338.9709375,34.18181351809343L339.2805,34.18181351809343L339.899625,34.18181351809343L340.8283125,34.18181351809343L343.30481249999997,34.18181351809343L344.85262500000005,34.18181351809343L345.47175000000004,34.18181351809343L346.4004375,34.18181351809343L346.71000000000004,34.18181351809343L347.32912500000003,34.18181351809343L347.94825000000003,34.18181351809343L348.2578125,34.18181351809343L348.8769375,34.18181351809343L349.18649999999997,34.18181351809343L349.80562499999996,34.18181351809343L350.1151875,34.18181351809343L350.42474999999996,34.18181351809343L351.9725625,34.18181351809343L353.21081250000003,34.18181351809343L353.8299375,34.18181351809343L357.5446875,34.18181351809343L358.1638125,34.18181351809343L360.0211875,34.18181351809343L360.33074999999997,34.18181351809343L361.56899999999996,34.18181351809343L362.49768750000004,34.18181351809343L363.426375,34.18181351809343L363.73593750000003,34.18181351809343L364.35506250000003,34.18181351809343L364.664625,34.18181351809343L364.9741875,34.18181351809343L365.5933125,34.18181351809343L367.4506875,34.18181351809343L372.40368750000005,34.18181351809343L372.71324999999996,34.18181351809343L373.02281250000004,34.18181351809343L373.332375,34.18181351809343L374.26106250000004,34.18181351809343L376.7375625,34.18181351809343L377.047125,34.18181351809343L379.8331875,34.18181351809343L381.0714375,34.18181351809343L381.381,34.18181351809343L382.00012499999997,34.18181351809343L382.30968750000005,34.18181351809343L383.238375,34.18181351809343L383.54793750000005,34.18181351809343L384.476625,34.18181351809343L385.09575,34.18181351809343L386.953125,34.18181351809343L388.8105,34.18181351809343L389.73918749999996,34.18181351809343L390.35831249999995,34.18181351809343L391.59656249999995,34.18181351809343L392.8348125,34.18181351809343L393.144375,34.18181351809343L397.1686875,34.18181351809343L397.7878125,34.18181351809343L399.02606249999997,34.18181351809343L399.64518749999996,34.18181351809343L400.573875,34.18181351809343L401.19300000000004,34.18181351809343L401.50256249999995,34.18181351809343L402.43125000000003,34.18181351809343L402.7408125,34.18181351809343L404.288625,34.18181351809343L404.5981875,34.18181351809343L405.2173125,34.18181351809343L405.526875,34.18181351809343L407.6938125,34.18181351809343L408.003375,34.18181351809343L408.6225,34.18181351809343L410.78943749999996,34.18181351809343L411.40856249999996,34.18181351809343L411.71812500000004,34.18181351809343L412.0276875,34.18181351809343L414.19462500000003,34.18181351809343L415.1233125,34.18181351809343L416.052,34.18181351809343L417.29025,34.18181351809343L418.2189375,34.18181351809343L419.147625,34.18181351809343L420.69543749999997,34.18181351809343L421.62412500000005,34.18181351809343L422.24325000000005,34.18181351809343L422.86237500000004,34.18181351809343L423.1719375,34.18181351809343L426.2675625,34.18181351809343L426.57712499999997,34.18181351809343L427.5058125,34.18181351809343L428.7440625,34.18181351809343L429.9823125,34.18181351809343L430.60143750000003,34.18181351809343L431.2205625,34.18181351809343L431.8396875,34.18181351809343L432.768375,34.18181351809343L433.6970625,34.18181351809343L434.006625,34.18181351809343L434.3161875,34.18181351809343L434.9353125,34.18181351809343L436.483125,34.18181351809343L437.10224999999997,34.18181351809343L437.72137499999997,34.18181351809343L439.88831250000004,34.18181351809343L441.12656250000003,34.18181351809343L441.74568750000003,34.18181351809343L443.912625,34.18181351809343L444.2221875,34.18181351809343L444.53175,34.18181351809343L446.389125,34.18181351809343L447.3178125,34.18181351809343L450.41343750000004,34.18181351809343L451.03256250000004,34.18181351809343L451.65168750000004,34.18181351809343L452.27081250000003,34.18181351809343L453.818625,34.18181351809343L454.43775,34.18181351809343L454.7473125,34.18181351809343L455.056875,34.18181351809343L455.3664375,34.18181351809343L455.676,34.18181351809343L456.91425,34.18181351809343L457.8429375,34.18181351809343L459.39074999999997,34.18181351809343L459.70031250000005,34.18181351809343L460.009875,34.18181351809343L461.248125,34.18181351809343L463.41506250000003,34.18181351809343L464.65331249999997,34.18181351809343L464.962875,34.18181351809343L465.27243749999997,34.18181351809343L466.201125,34.18181351809343L466.82025,34.18181351809343L467.439375,34.18181351809343L467.74893749999995,34.18181351809343L468.36806249999995,34.18181351809343L470.535,34.18181351809343L470.8445625,34.18181351809343L471.77325,34.18181351809343L472.0828125,34.18181351809343L472.7019375,34.18181351809343L473.0115,34.18181351809343L473.9401875,34.18181351809343L474.5593125,34.18181351809343L476.107125,34.18181351809343L478.27406249999996,34.18181351809343L479.5123125,34.18181351809343L479.82187500000003,34.18181351809343L480.1314375,34.18181351809343L483.2270625,34.18181351809343L483.8461875,34.18181351809343L484.774875,34.18181351809343L486.94181249999997,34.18181351809343L487.56093749999997,34.18181351809343L487.8705,34.18181351809343L488.18006249999996,34.18181351809343L489.4183125,34.18181351809343L490.0374375,34.18181351809343L491.58525000000003,34.18181351809343L492.8235,34.18181351809343L493.1330625,34.18181351809343L494.06175,34.18181351809343L496.2286875,34.18181351809343L496.53825,34.18181351809343L496.8478125,34.18181351809343L499.01475000000005,34.18181351809343L500.25300000000004,34.18181351809343L501.8008125,34.18181351809343L502.4199375,34.18181351809343L503.6581875,34.18181351809343L504.58687499999996,34.18181351809343L508.30162499999994,34.18181351809343L508.92075,34.18181351809343L509.8494375,34.18181351809343L510.159,34.18181351809343L510.4685625,34.18181351809343L510.778125,34.18181351809343L511.39725,34.18181351809343L512.0163749999999,34.18181351809343L512.3259375,34.18181351809343L513.2546249999999,34.18181351809343L513.5641875,34.18181351809343L515.4215625,34.18181351809343L516.6598125,34.18181351809343L518.207625,34.18181351809343L518.5171875,34.18181351809343L518.82675,34.18181351809343L520.0649999999999,34.18181351809343L520.9936875,34.18181351809343L522.5414999999999,34.18181351809343L523.4701875000001,34.18181351809343L525.018,34.18181351809343L525.3275625,34.18181351809343L526.25625,34.18181351809343L527.4945,34.18181351809343L528.73275,34.18181351809343L530.2805625,34.18181351809343L531.8283749999999,34.18181351809343L532.4475,34.18181351809343L533.3761875,34.18181351809343L533.68575,34.18181351809343L536.4718125,34.18181351809343L539.5674375,34.18181351809343L540.496125,34.18181351809343L542.3535,34.18181351809343L544.210875,34.18181351809343L545.449125,34.18181351809343L545.7586875,34.18181351809343L546.06825,34.18181351809343L546.687375,34.18181351809343L548.8543125,34.18181351809343L549.163875,34.18181351809343L550.402125,34.18181351809343L552.2595,34.18181351809343L553.49775,34.18181351809343L554.4264375,34.18181351809343L555.6646875,34.18181351809343L561.8559375,34.18181351809343L563.0941875,34.18181351809343L566.1898125,34.18181351809343L567.737625,34.18181351809343L568.35675,34.18181351809343L568.6663125,34.18181351809343L568.975875,34.18181351809343L569.2854375,34.18181351809343L571.7619375,34.18181351809343L572.3810625,34.18181351809343L573.6193125,34.18181351809343L574.2384375,34.18181351809343L574.548,34.18181351809343L575.167125,34.18181351809343L575.4766875,34.18181351809343L579.1914375,34.18181351809343L579.5010000000001,34.18181351809343L580.120125,34.18181351809343L582.2870625,34.18181351809343L583.5253125,41.01817946881056L584.454,41.01817946881056L585.69225,41.01817946881056L586.9304999999999,41.01817946881056L587.2400625,41.01817946881056L588.1687499999999,41.01817946881056L590.3356875000001,41.01817946881056L590.6452499999999,41.01817946881056L590.9548125,41.01817946881056L591.5739375,41.01817946881056L592.502625,41.01817946881056L596.217375,41.01817946881056L598.07475,41.01817946881056L599.0034375,41.01817946881056L599.313,41.01817946881056L600.2416875,41.01817946881056L602.408625,41.01817946881056L603.3373125,41.01817946881056L603.646875,41.01817946881056L606.7425,41.01817946881056L607.6711875,41.01817946881056L607.98075,41.01817946881056L608.599875,41.01817946881056L609.5285625,41.01817946881056L609.838125,41.01817946881056L610.1476875000001,41.01817946881056L611.076375,41.01817946881056L612.314625,41.01817946881056L613.8624375,41.01817946881056L616.9580625,41.01817946881056L617.267625,41.01817946881056L617.5771875,41.01817946881056L618.8154375,41.01817946881056L619.125,41.01817946881056L619.4345625,41.01817946881056L621.9110625,41.01817946881056L626.8640624999999,41.01817946881056L628.1023124999999,41.01817946881056L629.3405624999999,41.01817946881056L629.9596875000001,41.01817946881056L630.888375,41.01817946881056L631.1979375000001,41.01817946881056L632.74575,41.01817946881056L633.0553125,41.01817946881056L634.2935625,41.01817946881056L635.22225,41.01817946881056L635.841375,41.01817946881056L637.69875,41.01817946881056L638.937,41.01817946881056L640.17525,41.01817946881056L641.4135,41.01817946881056L642.3421875,41.01817946881056L642.9613125,41.01817946881056L644.8186875,41.01817946881056L645.12825,41.01817946881056L645.4378125,41.01817946881056L645.7473749999999,41.01817946881056L647.2951875000001,41.01817946881056L647.6047500000001,41.01817946881056L647.9143124999999,41.01817946881056L650.0812500000001,41.01817946881056L650.700375,41.01817946881056L651.6290625,41.01817946881056L652.2481875000001,41.01817946881056L652.55775,41.01817946881056L652.8673125,41.01817946881056L653.176875,41.01817946881056L655.03425,41.01817946881056L656.2725,41.01817946881056L656.5820625,41.01817946881056L657.2011875000001,41.01817946881056L658.749,41.01817946881056L661.2255,41.01817946881056L661.5350625,41.01817946881056L662.7733125,41.01817946881056L663.3924374999999,41.01817946881056L664.94025,41.01817946881056L665.8689374999999,41.01817946881056L666.1785,41.01817946881056L669.5836875,41.01817946881056L672.6793125,41.01817946881056L673.2984375,41.01817946881056L674.227125,41.01817946881056L675.465375,41.01817946881056L675.7749375,41.01817946881056L676.0845,41.01817946881056L677.0131875,41.01817946881056L677.941875,41.01817946881056L679.180125,41.01817946881056L680.418375,41.01817946881056L680.9755875000001,41.01817946881056L685.9905000000001,41.01817946881056L687.2287500000001,41.01817946881056L688.1574375,41.01817946881056L688.4670000000001,41.01817946881056L689.086125,41.01817946881056L689.3956875,41.01817946881056L690.0148125000001,41.01817946881056L691.2530625,41.01817946881056L691.8721875,41.01817946881056L694.6582500000001,41.01817946881056L695.8965000000001,41.01817946881056L698.6825625,41.01817946881056L700.230375,41.01817946881056L700.5399375,41.01817946881056L700.8494999999999,41.01817946881056L703.0164374999999,41.01817946881056L704.8738125,41.01817946881056L705.8024999999999,41.01817946881056L706.7311874999999,41.01817946881056L707.3503125000001,41.01817946881056L709.51725,41.01817946881056L710.7555,41.01817946881056L711.6841875,41.01817946881056L713.5415625,41.01817946881056L713.851125,41.01817946881056L714.1606875,41.01817946881056L715.089375,41.01817946881056L716.6371875,41.01817946881056L718.4945625,41.01817946881056L718.804125,41.01817946881056L721.8997499999999,41.01817946881056L722.2093125,41.01817946881056L723.4475625,41.01817946881056L723.757125,41.01817946881056L724.0666875,41.01817946881056L724.9953750000001,41.01817946881056L725.6144999999999,41.01817946881056L726.5431875,41.01817946881056L727.4718750000001,41.01817946881056L728.4005625000001,41.01817946881056L729.6388125000001,41.01817946881056L729.948375,41.01817946881056L730.5675,41.01817946881056L730.8770625000001,41.01817946881056L731.4961875,41.01817946881056L731.80575,41.01817946881056L734.901375,41.01817946881056L735.5205,41.01817946881056L736.139625,41.01817946881056L737.997,41.01817946881056L738.3065624999999,41.01817946881056L739.23525,41.01817946881056L747.2838750000001,41.01817946881056L748.5221250000001,41.01817946881056L750.0699375,41.01817946881056L750.6890625,41.01817946881056L751.61775,41.01817946881056L752.856,41.01817946881056L753.1655625,41.01817946881056L754.4038125,41.01817946881056L755.3325,41.01817946881056L756.57075,41.01817946881056L758.7376875,41.01817946881056L759.04725,41.01817946881056L759.3568124999999,41.01817946881056L762.762,41.01817946881056L763.0715624999999,41.01817946881056L763.6906875000001,41.01817946881056L764.9289375000001,41.01817946881056L766.47675,41.01817946881056L768.6436875,41.01817946881056L768.95325,41.01817946881056L769.5723750000001,41.01817946881056L770.1915,41.01817946881056L771.42975,41.01817946881056L772.0488750000001,41.01817946881056L772.3584375,41.01817946881056L772.9775625,41.01817946881056L773.90625,41.01817946881056L774.5253749999999,41.01817946881056L775.7636249999999,41.01817946881056L776.0731875,41.01817946881056L777.3114375,41.01817946881056L777.621,41.01817946881056L778.85925,41.01817946881056L779.1688125,41.01817946881056L780.0975,41.01817946881056L780.4070624999999,41.01817946881056L781.33575,41.01817946881056L784.1218124999999,41.01817946881056L785.0505,41.01817946881056L788.146125,41.01817946881056L791.24175,41.01817946881056L792.1704375,41.01817946881056L794.337375,41.01817946881056L796.5043125,41.01817946881056L799.9095,41.01817946881056L800.5286249999999,41.01817946881056L802.0764375000001,41.01817946881056L803.6242500000001,41.01817946881056L804.243375,41.01817946881056L804.8625000000001,41.01817946881056L806.719875,41.01817946881056L807.339,41.01817946881056L807.6485625,41.01817946881056L808.2676875000001,41.01817946881056L808.57725,41.01817946881056L810.434625,41.01817946881056L811.672875,41.01817946881056L815.0780625,41.01817946881056L816.00675,41.01817946881056L816.9354374999999,41.01817946881056L817.5545625,41.01817946881056L821.5788749999999,41.01817946881056L823.7458125,41.01817946881056L824.6745000000001,41.01817946881056L827.4605625,41.01817946881056L828.6988125,41.01817946881056L829.008375,41.01817946881056L832.4135625,41.01817946881056L834.8900625,41.01817946881056L836.437875,41.01817946881056L836.7474374999999,41.01817946881056L838.29525,41.01817946881056L839.8430625,41.01817946881056L840.7717500000001,41.01817946881056L842.3195625000001,41.01817946881056L844.7960625000001,41.01817946881056L845.7247500000001,41.01817946881056L847.2725625,41.01817946881056L847.8916875,41.01817946881056L848.2012500000001,41.01817946881056L848.5108125,41.01817946881056L849.1299375,41.01817946881056L850.9873125,41.01817946881056L852.535125,41.01817946881056L853.1542499999999,41.01817946881056L856.8689999999999,41.01817946881056L857.488125,41.01817946881056L859.0359374999999,41.01817946881056L860.8933125000001,41.01817946881056L862.441125,41.01817946881056L863.06025,41.01817946881056L863.679375,41.01817946881056L863.9889375,41.01817946881056L864.917625,41.01817946881056L865.2271875,41.01817946881056L869.2515,41.01817946881056L870.1801875,41.01817946881056L874.2044999999999,41.01817946881056L875.1331875,41.01817946881056L876.3714375,41.01817946881056L876.6809999999999,41.01817946881056L877.6096875,41.01817946881056L878.2288125,41.01817946881056L878.538375,41.01817946881056L882.2531250000001,41.01817946881056L884.729625,41.01817946881056L885.34875,41.01817946881056L885.6583125000001,41.01817946881056L886.8965625000001,41.01817946881056L888.1348125000001,41.01817946881056L888.7539375,41.01817946881056L889.3730625000001,41.01817946881056L891.54,41.01817946881056L891.8495624999999,41.01817946881056L893.0878124999999,41.01817946881056L894.3260624999999,41.01817946881056L895.873875,41.01817946881056L896.4929999999999,41.01817946881056L897.4216875,41.01817946881056L898.0408124999999,41.01817946881056L898.350375,41.01817946881056L898.9694999999999,41.01817946881056L899.5886250000001,41.01817946881056L900.5173124999999,41.01817946881056L901.7555625,41.01817946881056L902.0651250000001,41.01817946881056L902.3746875,41.01817946881056L902.9938125,41.01817946881056L903.6129375,41.01817946881056L905.16075,41.01817946881056L905.7798750000001,41.01817946881056L906.0894375,41.01817946881056L908.256375,41.01817946881056L908.8755,41.01817946881056L909.8041875,41.01817946881056L916.6145624999999,41.01817946881056L916.924125,41.01817946881056L917.54325,41.01817946881056L919.7101875000001,41.01817946881056L920.3293125,41.01817946881056L920.6388750000001,41.01817946881056L922.1866875000001,41.01817946881056L922.49625,41.01817946881056L922.8058125,41.01817946881056L923.7345,41.01817946881056L924.0440625,47.85454541952773L924.97275,47.85454541952773L926.8301250000001,47.85454541952773L927.1396875,47.85454541952773L927.7588125,47.85454541952773L928.3779375,47.85454541952773L928.9970625,47.85454541952773L929.3066249999999,47.85454541952773L932.7118125,47.85454541952773L933.0213749999999,47.85454541952773L933.3309375,47.85454541952773L935.8074375,47.85454541952773L936.117,47.85454541952773L937.6648124999999,47.85454541952773L937.9743749999999,47.85454541952773L938.2839375000001,47.85454541952773L938.5935000000001,47.85454541952773L939.2126249999999,47.85454541952773L939.5221875000001,47.85454541952773L939.83175,47.85454541952773L940.7604375000001,47.85454541952773L944.165625,47.85454541952773L946.023,47.85454541952773L946.642125,47.85454541952773L949.118625,47.85454541952773L949.4281875,47.85454541952773L949.73775,47.85454541952773L950.356875,47.85454541952773L952.5238125,47.85454541952773L953.4525,47.85454541952773L954.0716249999999,47.85454541952773L955.0003125,47.85454541952773L955.6194375,47.85454541952773L956.2385625,47.85454541952773L959.024625,47.85454541952773L960.262875,47.85454541952773L960.8820000000001,47.85454541952773L961.501125,47.85454541952773L962.12025,47.85454541952773L962.4298125,47.85454541952773L963.6680625,47.85454541952773L963.977625,47.85454541952773L964.2871875000001,47.85454541952773L965.835,47.85454541952773L966.1445625,47.85454541952773L967.3828125,47.85454541952773L967.692375,47.85454541952773L968.930625,47.85454541952773L970.4784374999999,47.85454541952773L970.788,47.85454541952773L971.0975625,47.85454541952773L971.407125,47.85454541952773L972.02625,47.85454541952773L972.3358125,47.85454541952773L974.8123125,47.85454541952773L975.1218749999999,47.85454541952773L975.4314374999999,47.85454541952773L976.9792500000001,47.85454541952773L977.2888125000001,47.85454541952773L978.5270625,47.85454541952773L979.4557500000001,47.85454541952773L980.3844375,47.85454541952773L981.0035625,47.85454541952773L981.6226875,47.85454541952773L982.2418125,47.85454541952773L982.551375,47.85454541952773L982.8609375,47.85454541952773L984.40875,47.85454541952773L984.7183125,47.85454541952773L988.4330625,47.85454541952773L989.0521875,47.85454541952773L991.219125,47.85454541952773L993.0765,47.85454541952773L993.3860625,47.85454541952773L996.7912500000001,47.85454541952773L997.1008125000001,47.85454541952773L999.886875,47.85454541952773L1000.5060000000001,47.85454541952773L1001.125125,47.85454541952773L1002.0538125,47.85454541952773L1002.6729375,47.85454541952773L1002.9825000000001,47.85454541952773L1003.9111875,47.85454541952773L1005.1494375,47.85454541952773L1005.4590000000001,47.85454541952773L1007.0068125,47.85454541952773L1007.6259375,47.85454541952773L1008.2450625,47.85454541952773L1008.554625,47.85454541952773L1009.792875,47.85454541952773L1010.4119999999999,47.85454541952773L1011.3406875,47.85454541952773L1013.8171874999999,47.85454541952773L1014.4363125,47.85454541952773L1014.745875,47.85454541952773L1015.3649999999999,47.85454541952773L1016.9128125000001,47.85454541952773L1017.5319375,47.85454541952773L1018.1510625000001,47.85454541952773L1018.7701875,47.85454541952773L1021.2466875,47.85454541952773L1023.7231875,47.85454541952773L1024.0327499999999,47.85454541952773L1024.651875,47.85454541952773L1024.9614374999999,47.85454541952773L1025.8901250000001,47.85454541952773L1026.5092499999998,47.85454541952773L1026.8188125000001,47.85454541952773L1027.7475,47.85454541952773L1029.604875,47.85454541952773L1030.843125,47.85454541952773L1031.1526875,47.85454541952773L1035.4865625,47.85454541952773L1036.41525,47.85454541952773L1037.3439375,47.85454541952773L1038.272625,47.85454541952773L1039.510875,47.85454541952773L1040.4395625,47.85454541952773L1040.749125,47.85454541952773L1041.0586875,47.85454541952773L1042.9160625000002,47.85454541952773L1044.4638750000001,47.85454541952773L1044.7734375,47.85454541952773L1045.0829999999999,47.85454541952773L1046.32125,47.85454541952773L1046.9403750000001,47.85454541952773L1047.2499375,47.85454541952773L1049.1073125,47.85454541952773L1050.036,47.85454541952773L1050.655125,47.85454541952773L1050.9646875,47.85454541952773L1051.5838125,47.85454541952773L1051.893375,47.85454541952773L1052.4505875,47.85454541952773L1053.131625,47.85454541952773L1054.0603125,47.85454541952773L1056.5368125,47.85454541952773L1056.846375,47.85454541952773L1058.3941875,47.85454541952773L1059.6324375,47.85454541952773L1059.942,47.85454541952773L1061.4898125,47.85454541952773L1065.2045624999998,47.85454541952773L1065.5141250000001,47.85454541952773L1065.8236875,47.85454541952773L1066.13325,47.85454541952773L1066.4428125,47.85454541952773L1069.228875,47.85454541952773L1071.3958125,47.85454541952773L1072.3245,47.85454541952773L1073.8723125,47.85454541952773L1074.801,47.85454541952773L1076.3488125,47.85454541952773L1076.658375,47.85454541952773L1076.9679375,47.85454541952773L1077.2775,47.85454541952773L1078.8253124999999,47.85454541952773L1080.0635625,47.85454541952773L1080.6826875,47.85454541952773L1081.6113750000002,47.85454541952773L1082.849625,47.85454541952773L1083.1591875000001,47.85454541952773L1083.46875,47.85454541952773L1084.087875,47.85454541952773L1085.3261249999998,47.85454541952773L1085.6356875000001,47.85454541952773L1086.2548125,47.85454541952773L1086.564375,47.85454541952773L1087.802625,47.85454541952773L1088.1121875000001,47.85454541952773L1088.42175,47.85454541952773L1089.9695625,47.85454541952773L1090.5886875,47.85454541952773L1093.6843125,47.85454541952773L1093.993875,47.85454541952773L1095.232125,47.85454541952773L1095.85125,47.85454541952773L1097.3990625,47.85454541952773L1098.0181875,47.85454541952773L1098.9468749999999,47.85454541952773L1099.566,47.85454541952773L1102.661625,47.85454541952773L1103.5903125,47.85454541952773L1104.519,47.85454541952773L1106.0668125,47.85454541952773L1106.9955,47.85454541952773L1108.852875,47.85454541952773L1109.7815625,47.85454541952773L1110.4006875,47.85454541952773L1111.9485,47.85454541952773L1112.567625,47.85454541952773L1113.805875,47.85454541952773L1114.1154375,47.85454541952773L1116.5919375,47.85454541952773L1117.8301875,47.85454541952773L1118.13975,47.85454541952773L1119.0684375,47.85454541952773L1119.6875625,47.85454541952773L1120.3066875000002,47.85454541952773L1121.8545000000001,47.85454541952773L1123.09275,47.85454541952773L1124.3310000000001,47.85454541952773L1125.56925,47.85454541952773L1126.188375,47.85454541952773L1128.04575,47.85454541952773L1128.9744375,47.85454541952773L1131.7605,47.85454541952773L1132.379625,47.85454541952773L1132.99875,47.85454541952773L1133.9274375,47.85454541952773L1134.856125,47.85454541952773L1135.7848125,47.85454541952773L1136.094375,47.85454541952773L1137.6421874999999,47.85454541952773L1140.1186874999999,47.85454541952773L1141.9760625000001,47.85454541952773L1142.9047500000001,47.85454541952773L1143.2143125,47.85454541952773L1145.6908125,47.85454541952773L1148.1673125,47.85454541952773L1150.953375,47.85454541952773L1152.191625,47.85454541952773L1154.3585625,47.85454541952773L1156.2159374999999,47.85454541952773L1156.8350625,47.85454541952773L1157.76375,47.85454541952773L1158.382875,47.85454541952773L1160.24025,47.85454541952773L1160.859375,47.85454541952773L1161.1689374999999,47.85454541952773L1163.0263125000001,54.690911370244905L1163.6454375,54.690911370244905L1163.955,54.690911370244905L1164.2645625,54.690911370244905L1165.5028125000001,54.690911370244905L1165.812375,54.690911370244905L1166.1219375,54.690911370244905L1166.7410625,54.690911370244905L1167.66975,54.690911370244905L1168.288875,54.690911370244905L1169.8366875,54.690911370244905L1170.14625,54.690911370244905L1171.0749375,54.690911370244905L1172.62275,54.690911370244905L1172.9323125,54.690911370244905L1173.5514375,54.690911370244905L1173.8609999999999,54.690911370244905L1175.4088125,54.690911370244905L1176.0279375,54.690911370244905L1176.956625,54.690911370244905L1177.2661875,54.690911370244905L1177.57575,54.690911370244905L1178.5044375,54.690911370244905L1179.433125,54.690911370244905L1180.3618125,54.690911370244905L1181.6000625000001,54.690911370244905L1182.8383125,54.690911370244905L1183.4574375,54.690911370244905L1185.00525,54.690911370244905L1185.3148125,54.690911370244905L1185.9339375,54.690911370244905L1186.862625,54.690911370244905L1187.7913125,54.690911370244905" style="fill: none;" fill="none"></path></g></g></g></g></g></g><g transform="translate(64, 376)" clip-path="url(#clip_1)"><clipPath id="clip_1"><rect width="1238" height="24"></rect></clipPath><g><g><line x1="0" y1="0" x2="0" y2="5" style="visibility: inherit;" fill="rgb(0, 0, 0)" stroke="rgb(204, 204, 204)" stroke-width="1px"></line><line x1="123.825" y1="0" x2="123.825" y2="5" style="visibility: inherit;" fill="rgb(0, 0, 0)" stroke="rgb(204, 204, 204)" stroke-width="1px"></line><line x1="247.65" y1="0" x2="247.65" y2="5" style="visibility: inherit;" fill="rgb(0, 0, 0)" stroke="rgb(204, 204, 204)" stroke-width="1px"></line><line x1="371.47499999999997" y1="0" x2="371.47499999999997" y2="5" style="visibility: inherit;" fill="rgb(0, 0, 0)" stroke="rgb(204, 204, 204)" stroke-width="1px"></line><line x1="495.3" y1="0" x2="495.3" y2="5" style="visibility: inherit;" fill="rgb(0, 0, 0)" stroke="rgb(204, 204, 204)" stroke-width="1px"></line><line x1="619.125" y1="0" x2="619.125" y2="5" style="visibility: inherit;" fill="rgb(0, 0, 0)" stroke="rgb(204, 204, 204)" stroke-width="1px"></line><line x1="742.9499999999999" y1="0" x2="742.9499999999999" y2="5" style="visibility: inherit;" fill="rgb(0, 0, 0)" stroke="rgb(204, 204, 204)" stroke-width="1px"></line><line x1="866.775" y1="0" x2="866.775" y2="5" style="visibility: inherit;" fill="rgb(0, 0, 0)" stroke="rgb(204, 204, 204)" stroke-width="1px"></line><line x1="990.6" y1="0" x2="990.6" y2="5" style="visibility: inherit;" fill="rgb(0, 0, 0)" stroke="rgb(204, 204, 204)" stroke-width="1px"></line><line x1="1114.425" y1="0" x2="1114.425" y2="5" style="visibility: inherit;" fill="rgb(0, 0, 0)" stroke="rgb(204, 204, 204)" stroke-width="1px"></line><line x1="1238.25" y1="0" x2="1238.25" y2="5" style="visibility: inherit;" fill="rgb(0, 0, 0)" stroke="rgb(204, 204, 204)" stroke-width="1px"></line></g><g transform="translate(0, 8)"><text x="0" y="0" dx="0em" dy="0.95em" style="text-anchor: middle; visibility: hidden; font-family: Roboto, sans-serif; font-size: 12px; font-weight: 200;" fill="rgb(255, 255, 255)" stroke="none" stroke-width="1px">-2k</text><text x="123.825" y="0" dx="0em" dy="0.95em" style="text-anchor: middle; visibility: inherit; font-family: Roboto, sans-serif; font-size: 12px; font-weight: 200;" fill="rgb(255, 255, 255)" stroke="none" stroke-width="1px">0</text><text x="247.65" y="0" dx="0em" dy="0.95em" style="text-anchor: middle; visibility: inherit; font-family: Roboto, sans-serif; font-size: 12px; font-weight: 200;" fill="rgb(255, 255, 255)" stroke="none" stroke-width="1px">2k</text><text x="371.47499999999997" y="0" dx="0em" dy="0.95em" style="text-anchor: middle; visibility: inherit; font-family: Roboto, sans-serif; font-size: 12px; font-weight: 200;" fill="rgb(255, 255, 255)" stroke="none" stroke-width="1px">4k</text><text x="495.3" y="0" dx="0em" dy="0.95em" style="text-anchor: middle; visibility: inherit; font-family: Roboto, sans-serif; font-size: 12px; font-weight: 200;" fill="rgb(255, 255, 255)" stroke="none" stroke-width="1px">6k</text><text x="619.125" y="0" dx="0em" dy="0.95em" style="text-anchor: middle; visibility: inherit; font-family: Roboto, sans-serif; font-size: 12px; font-weight: 200;" fill="rgb(255, 255, 255)" stroke="none" stroke-width="1px">8k</text><text x="742.9499999999999" y="0" dx="0em" dy="0.95em" style="text-anchor: middle; visibility: inherit; font-family: Roboto, sans-serif; font-size: 12px; font-weight: 200;" fill="rgb(255, 255, 255)" stroke="none" stroke-width="1px">10k</text><text x="866.775" y="0" dx="0em" dy="0.95em" style="text-anchor: middle; visibility: inherit; font-family: Roboto, sans-serif; font-size: 12px; font-weight: 200;" fill="rgb(255, 255, 255)" stroke="none" stroke-width="1px">12k</text><text x="990.6" y="0" dx="0em" dy="0.95em" style="text-anchor: middle; visibility: inherit; font-family: Roboto, sans-serif; font-size: 12px; font-weight: 200;" fill="rgb(255, 255, 255)" stroke="none" stroke-width="1px">14k</text><text x="1114.425" y="0" dx="0em" dy="0.95em" style="text-anchor: middle; visibility: inherit; font-family: Roboto, sans-serif; font-size: 12px; font-weight: 200;" fill="rgb(255, 255, 255)" stroke="none" stroke-width="1px">16k</text><text x="1238.25" y="0" dx="0em" dy="0.95em" style="text-anchor: middle; visibility: hidden; font-family: Roboto, sans-serif; font-size: 12px; font-weight: 200;" fill="rgb(255, 255, 255)" stroke="none" stroke-width="1px">18k</text></g><line x1="0" y1="0" x2="1238.25" y2="0" fill="rgb(0, 0, 0)" stroke="rgb(204, 204, 204)" stroke-width="1px"></line></g></g></g></g></svg>