<svg viewBox="0 0 1303 400" xmlns="http://www.w3.org/2000/svg"><g><g><g><g><g><line x1="64.75" y1="376" x2="59.75" y2="376" style="visibility: inherit;" fill="rgb(0, 0, 0)" stroke="rgb(204, 204, 204)" stroke-width="1px"></line><line x1="64.75" y1="341.8181818181818" x2="59.75" y2="341.8181818181818" style="visibility: inherit;" fill="rgb(0, 0, 0)" stroke="rgb(204, 204, 204)" stroke-width="1px"></line><line x1="64.75" y1="307.6363636363636" x2="59.75" y2="307.6363636363636" style="visibility: inherit;" fill="rgb(0, 0, 0)" stroke="rgb(204, 204, 204)" stroke-width="1px"></line><line x1="64.75" y1="273.45454545454544" x2="59.75" y2="273.45454545454544" style="visibility: inherit;" fill="rgb(0, 0, 0)" stroke="rgb(204, 204, 204)" stroke-width="1px"></line><line x1="64.75" y1="239.27272727272728" x2="59.75" y2="239.27272727272728" style="visibility: inherit;" fill="rgb(0, 0, 0)" stroke="rgb(204, 204, 204)" stroke-width="1px"></line><line x1="64.75" y1="205.09090909090907" x2="59.75" y2="205.09090909090907" style="visibility: inherit;" fill="rgb(0, 0, 0)" stroke="rgb(204, 204, 204)" stroke-width="1px"></line><line x1="64.75" y1="170.90909090909093" x2="59.75" y2="170.90909090909093" style="visibility: inherit;" fill="rgb(0, 0, 0)" stroke="rgb(204, 204, 204)" stroke-width="1px"></line><line x1="64.75" y1="136.72727272727272" x2="59.75" y2="136.72727272727272" style="visibility: inherit;" fill="rgb(0, 0, 0)" stroke="rgb(204, 204, 204)" stroke-width="1px"></line><line x1="64.75" y1="102.54545454545458" x2="59.75" y2="102.54545454545458" style="visibility: inherit;" fill="rgb(0, 0, 0)" stroke="rgb(204, 204, 204)" stroke-width="1px"></line><line x1="64.75" y1="68.36363636363635" x2="59.75" y2="68.36363636363635" style="visibility: inherit;" fill="rgb(0, 0, 0)" stroke="rgb(204, 204, 204)" stroke-width="1px"></line><line x1="64.75" y1="34.181818181818194" x2="59.75" y2="34.181818181818194" style="visibility: inherit;" fill="rgb(0, 0, 0)" stroke="rgb(204, 204, 204)" stroke-width="1px"></line><line x1="64.75" y1="0" x2="59.75" y2="0" style="visibility: inherit;" fill="rgb(0, 0, 0)" stroke="rgb(204, 204, 204)" stroke-width="1px"></line></g><g transform="translate(54.75, 0)"><text x="0" y="376" dx="0em" dy="0.3em" style="text-anchor: end; visibility: hidden; font-family: Roboto, sans-serif; font-size: 12px; font-weight: 200;" fill="rgb(255, 255, 255)" stroke="none" stroke-width="1px">-5e-6</text><text x="0" y="341.8181818181818" dx="0em" dy="0.3em" style="text-anchor: end; visibility: inherit; font-family: Roboto, sans-serif; font-size: 12px; font-weight: 200;" fill="rgb(255, 255, 255)" stroke="none" stroke-width="1px">0</text><text x="0" y="307.6363636363636" dx="0em" dy="0.3em" style="text-anchor: end; visibility: inherit; font-family: Roboto, sans-serif; font-size: 12px; font-weight: 200;" fill="rgb(255, 255, 255)" stroke="none" stroke-width="1px">5e-6</text><text x="0" y="273.45454545454544" dx="0em" dy="0.3em" style="text-anchor: end; visibility: inherit; font-family: Roboto, sans-serif; font-size: 12px; font-weight: 200;" fill="rgb(255, 255, 255)" stroke="none" stroke-width="1px">1e-5</text><text x="0" y="239.27272727272728" dx="0em" dy="0.3em" style="text-anchor: end; visibility: inherit; font-family: Roboto, sans-serif; font-size: 12px; font-weight: 200;" fill="rgb(255, 255, 255)" stroke="none" stroke-width="1px">1.5e-5</text><text x="0" y="205.09090909090907" dx="0em" dy="0.3em" style="text-anchor: end; visibility: inherit; font-family: Roboto, sans-serif; font-size: 12px; font-weight: 200;" fill="rgb(255, 255, 255)" stroke="none" stroke-width="1px">2e-5</text><text x="0" y="170.90909090909093" dx="0em" dy="0.3em" style="text-anchor: end; visibility: inherit; font-family: Roboto, sans-serif; font-size: 12px; font-weight: 200;" fill="rgb(255, 255, 255)" stroke="none" stroke-width="1px">2.5e-5</text><text x="0" y="136.72727272727272" dx="0em" dy="0.3em" style="text-anchor: end; visibility: inherit; font-family: Roboto, sans-serif; font-size: 12px; font-weight: 200;" fill="rgb(255, 255, 255)" stroke="none" stroke-width="1px">3e-5</text><text x="0" y="102.54545454545458" dx="0em" dy="0.3em" style="text-anchor: end; visibility: inherit; font-family: Roboto, sans-serif; font-size: 12px; font-weight: 200;" fill="rgb(255, 255, 255)" stroke="none" stroke-width="1px">3.5e-5</text><text x="0" y="68.36363636363635" dx="0em" dy="0.3em" style="text-anchor: end; visibility: inherit; font-family: Roboto, sans-serif; font-size: 12px; font-weight: 200;" fill="rgb(255, 255, 255)" stroke="none" stroke-width="1px">4e-5</text><text x="0" y="34.181818181818194" dx="0em" dy="0.3em" style="text-anchor: end; visibility: inherit; font-family: Roboto, sans-serif; font-size: 12px; font-weight: 200;" fill="rgb(255, 255, 255)" stroke="none" stroke-width="1px">4.5e-5</text><text x="0" y="0" dx="0em" dy="0.3em" style="text-anchor: end; visibility: hidden; font-family: Roboto, sans-serif; font-size: 12px; font-weight: 200;" fill="rgb(255, 255, 255)" stroke="none" stroke-width="1px">5e-5</text></g><line x1="64.75" y1="0" x2="64.75" y2="376" fill="rgb(0, 0, 0)" stroke="rgb(204, 204, 204)" stroke-width="1px"></line></g></g><g transform="translate(64, 0)" clip-path="url(#clip_0)"><clipPath id="clip_0"><rect width="1238" height="376"></rect></clipPath><g><g><g><line x1="0" y1="0" x2="0" y2="376" fill="rgb(0, 0, 0)" stroke="rgb(189, 189, 189)" stroke-width="1px" opacity="0.25"></line><line x1="154.78125" y1="0" x2="154.78125" y2="376" fill="rgb(0, 0, 0)" stroke="rgb(189, 189, 189)" stroke-width="1px" opacity="0.25"></line><line x1="309.5625" y1="0" x2="309.5625" y2="376" fill="rgb(0, 0, 0)" stroke="rgb(189, 189, 189)" stroke-width="1px" opacity="0.25"></line><line x1="464.34375" y1="0" x2="464.34375" y2="376" fill="rgb(0, 0, 0)" stroke="rgb(189, 189, 189)" stroke-width="1px" opacity="0.25"></line><line x1="619.125" y1="0" x2="619.125" y2="376" fill="rgb(0, 0, 0)" stroke="rgb(189, 189, 189)" stroke-width="1px" opacity="0.25"></line><line x1="773.90625" y1="0" x2="773.90625" y2="376" fill="rgb(0, 0, 0)" stroke="rgb(189, 189, 189)" stroke-width="1px" opacity="0.25"></line><line x1="928.6875" y1="0" x2="928.6875" y2="376" fill="rgb(0, 0, 0)" stroke="rgb(189, 189, 189)" stroke-width="1px" opacity="0.25"></line><line x1="1083.46875" y1="0" x2="1083.46875" y2="376" fill="rgb(0, 0, 0)" stroke="rgb(189, 189, 189)" stroke-width="1px" opacity="0.25"></line><line x1="1238.25" y1="0" x2="1238.25" y2="376" fill="rgb(0, 0, 0)" stroke="rgb(189, 189, 189)" stroke-width="1px" opacity="0.25"></line></g><g><line x1="0" y1="376" x2="1238.25" y2="376" fill="rgb(0, 0, 0)" stroke="rgb(189, 189, 189)" stroke-width="1px" opacity="0.25"></line><line x1="0" y1="341.8181818181818" x2="1238.25" y2="341.8181818181818" fill="rgb(0, 0, 0)" stroke="rgb(189, 189, 189)" stroke-width="1px" opacity="0.25"></line><line x1="0" y1="307.6363636363636" x2="1238.25" y2="307.6363636363636" fill="rgb(0, 0, 0)" stroke="rgb(189, 189, 189)" stroke-width="1px" opacity="0.25"></line><line x1="0" y1="273.45454545454544" x2="1238.25" y2="273.45454545454544" fill="rgb(0, 0, 0)" stroke="rgb(189, 189, 189)" stroke-width="1px" opacity="0.25"></line><line x1="0" y1="239.27272727272728" x2="1238.25" y2="239.27272727272728" fill="rgb(0, 0, 0)" stroke="rgb(189, 189, 189)" stroke-width="1px" opacity="0.25"></line><line x1="0" y1="205.09090909090907" x2="1238.25" y2="205.09090909090907" fill="rgb(0, 0, 0)" stroke="rgb(189, 189, 189)" stroke-width="1px" opacity="0.25"></line><line x1="0" y1="170.90909090909093" x2="1238.25" y2="170.90909090909093" fill="rgb(0, 0, 0)" stroke="rgb(189, 189, 189)" stroke-width="1px" opacity="0.25"></line><line x1="0" y1="136.72727272727272" x2="1238.25" y2="136.72727272727272" fill="rgb(0, 0, 0)" stroke="rgb(189, 189, 189)" stroke-width="1px" opacity="0.25"></line><line x1="0" y1="102.54545454545458" x2="1238.25" y2="102.54545454545458" fill="rgb(0, 0, 0)" stroke="rgb(189, 189, 189)" stroke-width="1px" opacity="0.25"></line><line x1="0" y1="68.36363636363635" x2="1238.25" y2="68.36363636363635" fill="rgb(0, 0, 0)" stroke="rgb(189, 189, 189)" stroke-width="1px" opacity="0.25"></line><line x1="0" y1="34.181818181818194" x2="1238.25" y2="34.181818181818194" fill="rgb(0, 0, 0)" stroke="rgb(189, 189, 189)" stroke-width="1px" opacity="0.25"></line><line x1="0" y1="0" x2="1238.25" y2="0" fill="rgb(0, 0, 0)" stroke="rgb(189, 189, 189)" stroke-width="1px" opacity="0.25"></line></g></g></g><g><g><line x1="0" y1="341.8181818181818" x2="1238.25" y2="341.8181818181818" fill="rgb(0, 0, 0)" stroke="rgb(153, 153, 153)" stroke-width="1.5px"></line></g></g><g><g><line x1="154.78125" y1="0" x2="154.78125" y2="376" fill="rgb(0, 0, 0)" stroke="rgb(153, 153, 153)" stroke-width="1.5px"></line></g></g><g><g><g><g><g><path stroke="rgb(255, 112, 67)" stroke-width="2px" d="M154.78125,328.14545457997485L156.3290625,328.1454545799749L157.876875,328.14545457997485L159.4246875,328.14545457997485L160.9725,328.1454545799749L162.52031250000002,328.1454545799749L164.068125,328.1454545799749L165.6159375,328.14545457997485L167.16375000000002,328.14545457997485L168.7115625,328.14545457997485L170.259375,328.14545457997485L171.80718750000003,328.14545457997485L173.35500000000002,328.1454545799749L174.90281249999998,328.14545457997485L176.45062499999997,325.85696057907836L177.9984375,324.3356926095349L179.54625,323.3237976877725L181.09406249999998,322.6504378914288L182.641875,322.2022293804314L184.1896875,321.90383293012667L185.73749999999998,321.70514984786126L187.2853125,321.5728486219798L188.833125,321.48474563177183L190.3809375,321.42607330947436L191.92875,321.3869994362706L193.4765625,321.3609770765149L195.024375,321.34364655739984L196.5721875,321.33210459688144L198.12,319.0410551841413L199.6678125,317.51522596273514L201.21562500000002,316.4990279981834L202.7634375,315.8222420596997L204.31125,315.3715034700433L205.85906250000002,315.07131194430184L207.406875,314.87138455447786L208.9546875,314.73823298662717L210.50250000000003,314.6495540751606L212.05031250000002,314.59049393463795L213.59812499999998,314.55115988748764L215.14593749999997,314.524963414941L216.69375,314.5075165654916L218.2415625,314.4958969643201L219.78937499999998,312.2048130623859L221.3371875,310.6789512164208L222.885,309.6627272415226L224.43281249999998,308.9859220806784L225.980625,308.53516984641175L227.5284375,308.2349688596568L229.07625,308.0350350030398L230.6240625,307.9018790547821L232.171875,307.81319719335306L233.7196875,307.7541350736903L235.2675,307.71479970201665L236.8153125,307.68860234449164L238.363125,307.67115490438425L239.91093750000002,307.65953490927467L241.45875,305.36844976479495L243.0065625,303.84258705868206L244.55437500000002,302.82636249645986L246.1021875,302.14955693804166L247.65,301.69880443614477L249.19781250000003,301.3986032698857L250.74562500000002,301.19866929315907L252.29343749999998,301.06551326465996L253.84124999999997,300.97683134967997L255.3890625,300.9177691943034L256.936875,300.8784337988227L258.4846875,300.85223642543264L260.03249999999997,300.8347889747549L261.5803125,298.53982378340817L263.128125,297.01137696597186L264.6759375,295.9934313855596L266.22375,295.31547962900504L267.7715625,294.8639637591398L269.319375,294.5632541898095L270.8671875,294.36298161663564L272.415,294.2296000829018L273.9628125,294.14076798143503L275.510625,294.08160580185825L277.0584375,294.0422037902601L278.60625,294.0159620505357L280.1540625,293.99848505187924L281.70187500000003,293.98684537077406L283.2496875,291.69574815396373L284.7975,290.1698774075681L286.34531250000003,289.1536474904686L287.893125,288.4768383656803L289.4409375,288.0260834885713L290.98875,287.72588074041676L292.5365625,287.5259457101458L294.08437499999997,287.3927889799853L295.6321875,287.3041065976984L297.18,287.2450441310954L298.72781249999997,287.20570852833777L300.275625,287.1795110169012L301.8234375,287.1620634742844L303.37125,287.1504434109017L304.9190625,284.8593582211492L306.466875,283.33349548477406L308.0146875,282.31727090234824L309.5625,281.6404653304526L311.11031249999996,281.18971281957016L312.658125,280.8895116473224L314.20593749999995,280.68957766660543L315.75375,280.5564216354479L317.3015625,280.46773971869703L318.849375,280.4086775621409L320.3971875,280.3693421658745L321.945,280.34314479196115L323.49281249999996,280.3256973409348L325.04062500000003,280.3140773385513L326.5884375,278.02299426611495L328.13625,276.4971329398723L329.6840625,275.48090929659475L331.231875,274.8041043501718L332.77968749999997,274.3533522558542L334.32750000000004,274.05315136103866L335.8753125,273.85321756509154L337.423125,273.7200616569907L338.9709375,273.6313798221956L340.51875,273.57231772022203L342.0665625,273.53298236030764L343.61437500000005,273.50678501060463L345.1621875,273.48933757570245L346.71000000000004,273.4777175840576L348.2578125,271.1866324420826L349.80562499999996,269.66076973752723L351.3534375,268.6445451762934L352.90124999999995,267.9677396185116L354.4490625,267.5169871170289L355.996875,267.2167859510415L357.5446875,267.0168519744939L359.0925,266.88369594611316L360.6403125,266.7950140312116L362.18812499999996,266.73595187588717L363.73593750000003,266.69661648044104L365.28375,266.670419107074L366.8315625,266.65297165641147L368.379375,264.35800542673076L369.9271875,262.82955791776334L371.47499999999997,261.8116118767911L373.02281250000004,261.1336598135035L374.570625,260.68214373935405L376.1184375,260.3814340339705L377.66625,260.18116137018507L379.2140625,260.04777977610394L380.761875,259.9589476344459L382.30968750000005,259.89978542810167L383.8575,259.8603833986764L385.40531250000004,259.83414164707915L386.953125,259.8166646405154L388.50093749999996,259.805024954144L390.04875,257.51392877217165L391.59656249999995,255.98805871497808L393.144375,254.97182925688713L394.6921875,254.2950204377986L396.24,253.84426576428564L397.7878125,253.544063151726L399.335625,253.3441282117613L400.88343749999996,253.21097154174475L402.43125000000003,253.12228919951374L403.9790625,253.06322675958793L405.526875,253.02389117459734L407.0746875,252.99769367499357L408.6225,252.98024614025746L410.17031249999997,252.96862608212322L411.71812500000004,250.67754089586626L413.2659375,249.15167816181918L414.81375,248.13545358094376L416.3615625,247.45864801008076L417.909375,247.007895499886L419.4571875,246.70769432809632L421.00500000000005,246.50776034768435L422.5528125,246.37460431673003L424.10062500000004,246.2859224001144L425.6484375,246.2268602436484L427.19624999999996,246.18752484744206L428.7440625,246.16132747356863L430.29187499999995,246.14388002256894L431.8396875,246.13226002020315L433.3875,243.84117694777856L434.9353125,242.31531562154385L436.483125,241.29909197827146L438.0309375,240.6222870318521L439.57874999999996,240.17153493753676L441.12656250000003,239.8713340427228L442.674375,239.67140024677664L444.2221875,239.53824433867655L445.77,239.44956250388185L447.3178125,239.3905004019086L448.86562499999997,239.3511650419944L450.41343750000004,239.32496769229152L451.96125,239.30752025738943L453.5090625,239.29590026574465L455.056875,237.00481512376967L456.6046875,235.47895241921435L458.1525,234.4627278579805L459.70031250000005,233.78592230019876L461.248125,233.33516979871612L462.79593750000004,233.03496863272866L464.34375,232.83503465618108L465.89156249999996,232.70187862780034L467.439375,232.6131967128988L468.98718749999995,232.55413455757432L470.535,232.51479916212824L472.0828125,232.48860178876117L473.630625,232.47115433809867L475.1784375,230.17618810841793L476.72625,228.64774059945054L478.27406249999996,227.6297945584783L479.82187500000003,226.9518424951907L481.3696875,226.50032642104125L482.9175,226.19961671565767L484.4653125,225.9993440518722L486.013125,225.8659624577911L487.56093749999997,225.7771303161331L489.10875000000004,225.71796810978887L490.6565625,225.67856608036357L492.204375,225.65232432876638L493.7521875,225.63484732220263L495.3,225.62320763583116L496.8478125,223.3321093771682L498.39562500000005,221.8062379368987L499.9434375,220.7900075576792L501.49125000000004,220.11319812511906L503.0390625,219.66244304303396L504.58687499999996,219.36224015836527L506.1346875,219.16230503717594L507.68249999999995,219.02914824646385L509.2303125,218.94046582384962L510.778125,218.88140333038854L512.3259375,218.84206770974342L513.87375,218.8158701863938L515.4215625,218.79842263584294L516.969375,218.78680256717607L518.5171875,216.49572152728558L520.0649999999999,214.96986155471856L521.6128125,213.95363881298888L523.160625,213.27683446699695L524.7084375000001,212.82608277256628L526.25625,212.52588214407544L527.8040625,212.32594852550056L529.351875,212.1927927355297L530.8996875,212.10411097940914L532.4475,212.0450489298328L533.9953125000001,212.00571360481499L535.543125,211.97951627835312L537.0909375,211.96206885892948L538.63875,211.95044887759337L540.1865625,209.659363742484L541.734375,208.1335010425011L543.2821875,207.11727648431253L544.83,206.44047092855894L546.3778125,205.98971842842704L547.925625,205.6895172633392L549.4734374999999,205.48958328739073L551.02125,205.356427259409L552.5690625,205.2677453447732L554.116875,205.20868318962576L555.6646875,205.16934779429752L557.2125,205.14315042100898L558.7603124999999,205.12570297039875L560.308125,205.11408296829237L561.8559375,202.82299781935L563.4037500000001,201.29713511015436L564.9515625,200.28091054583007L566.499375,199.60410498599006L568.0471875,199.15335248313664L569.595,198.8531513162363L571.1428125,198.65321733908064L572.6906250000001,198.52006131029495L574.2384375,198.4313793951237L575.78625,198.37231723961966L577.3340625,198.332981844054L578.881875,198.30678447060723L580.4296875,198.2893370198917L581.9775,195.9943707901756L583.5253125,194.46592328118467L585.073125,193.44797724019674L586.6209375,192.77002517689877L588.1687499999999,192.31850910274233L589.7165625,192.0177993973541L591.264375,191.8175267335656L592.8121875,191.6841451394824L594.36,191.59531299782302L595.9078125,191.53615079147784L597.4556249999999,191.496748762052L599.0034375,191.47050701045436L600.55125,191.45303000389035L602.0990625000001,191.4413903175187L603.646875,189.15029205885568L605.1946875,187.62442061858604L606.7425,186.6081902393665L608.2903125,185.93138080680632L609.838125,185.48062572472122L611.3859375000001,185.18042284005253L612.93375,184.98048771886317L614.4815625,184.84733092815108L616.029375,184.75864850553683L617.5771875,184.69958601207574L619.125,184.66025039143065L620.6728125,184.634052868081L622.2206249999999,184.61660531753017L623.7684375,184.60498524886327L625.31625,182.3139000555916L626.8640624999999,180.78803731687267L628.4118749999999,179.77181273288585L629.9596875000001,179.09500715995063L631.5075,178.64425464837578L633.0553125,178.34405347566693L634.603125,178.14411949464284L636.1509375,178.01096346328077L637.69875,177.9222815463937L639.2465625,177.86321938974683L640.794375,177.82388399342003L642.3421875,177.79768661946642L643.89,177.7802391684133L645.4378125,177.7686191660119L646.9856249999999,175.47753817025423L648.5334375000001,173.95167822707964L650.0812500000001,172.93545550492533L651.6290625,172.25865117197057L653.176875,171.8078994862227L654.7246875000001,171.50769886351463L656.2725,171.30776524879107L657.8203125,171.17460946138516L659.368125,171.08592770697285L660.9159374999999,171.0268656585342L662.46375,170.98753033427408L664.0115625,170.96133300831684L665.5593749999999,170.94388558922935L667.1071874999999,170.93226560811706L668.6550000000001,168.64118047315674L670.2028125,167.1153177732732L671.750625,166.09909321515076L673.2984375,165.42228765944117L674.84625,164.9715351593386L676.3940625,164.67133399427027L677.941875,164.47140001833478L679.4896875,164.33824399036175L681.0375,164.24956207573172L682.5853125,164.19049992058808L684.133125,164.1511645252625L685.6809374999999,164.1249671519756L687.2287500000001,164.1075197013665L688.7765625000001,161.81255347172134L690.324375,160.2841059627777L691.8721875,159.26615992182116L693.4200000000001,158.58820785854414L694.9678125,158.13669178440162L696.515625,157.8359820790227L698.0634375,157.6357094152404L699.6112499999999,157.50232782116137L701.1590625,157.41349567950468L702.706875,157.35433347316138L704.2546874999999,157.31493144373673L705.8024999999999,157.28868969213994L707.3503125000001,157.27121268557644L708.898125,157.25957299920515L710.4459375,154.96847474054235L711.99375,153.44260330027288L713.5415625,152.42637292105346L715.089375,151.74956348849332L716.6371875,151.29880840640823L718.185,150.99860552173962L719.7328125,150.7986704005503L721.280625,150.6655136098382L722.8284375,150.57683118722392L724.3762499999999,150.51776869376283L725.9240625000001,150.47843307311774L727.4718750000001,150.45223554976815L729.0196875,150.43478799921726L730.5675,150.42316793055042L732.1153125000001,148.13208273727878L733.663125,146.60621999855985L735.2109375,145.58999541457302L736.75875,144.91318984163783L738.3065624999999,144.46243733006295L739.854375,144.16223615735416L741.4021875,143.96230217633L742.9499999999999,143.82914614496795L744.4978124999999,143.74046422808087L746.0456250000001,143.681402071434L747.5934375,143.64206667510726L749.14125,143.6158693011536L750.6890625,143.5984218501005L752.236875,143.58680184769912L753.7846875,141.2957208519414L755.3325,139.76986090876682L756.8803125,138.75363818661253L758.428125,138.07683385365775L759.9759375,137.62608216790989L761.52375,137.3258815452018L763.0715624999999,137.12594793047828L764.6193750000001,136.99279214307236L766.1671875000001,136.90411038866003L767.715,136.84504834022138L769.2628125,136.8057130159613L770.8106250000001,136.77951569000402L772.3584375,136.76206827091653L773.90625,136.75044828980424L775.4540625,134.45936315484397L777.0018749999999,132.93350045496038L778.5496875,131.91727589683794L780.0975,131.24047034112837L781.6453124999999,130.7897178410258L783.1931249999999,130.48951667595747L784.7409375000001,130.28958270002198L786.28875,130.15642667204892L787.8365625,130.0677447574189L789.384375,130.00868260227523L790.9321875,129.9693472069496L792.48,129.9431498336627L794.0278125,129.92570238305368L795.575625,127.6307361534085L797.1234375,126.10228864446485L798.67125,125.08434260350835L800.2190625,124.40639054023133L801.7668749999999,123.95487446608882L803.3146875000001,123.65416476070992L804.8625000000001,123.45389209692758L806.4103125,123.32051050284855L807.958125,123.2316783611919L809.5059375000001,123.17251615484857L811.05375,123.13311412542393L812.6015625,123.10687237382712L814.149375,123.0893953672636L815.6971874999999,123.07775568089232L817.245,120.78665742222952L818.7928125,119.26078598196011L820.3406249999999,118.24455560274065L821.8884374999999,117.56774617018048L823.4362500000001,117.11699108809546L824.9840625,116.81678820342681L826.531875,116.61685308223747L828.0796875,116.48369629152538L829.6275,116.39501386891114L831.1753125,116.33595137545007L832.723125,116.29661575480495L834.2709375,116.27041823145531L835.81875,116.25297068090444L837.3665625,116.2413506122376L838.914375,113.95026541896591L840.4621874999999,112.42440268024698L842.0100000000001,111.40817809626017L843.5578125000001,110.73137252332496L845.105625,110.28062001175009L846.6534375,109.98041883904128L848.2012500000001,109.78048485801715L849.7490625,109.64732882665514L851.296875,109.55864690976803L852.8446875,109.4995847531212L854.3924999999999,109.46024935679444L855.9403125,109.43405198284077L857.488125,109.41660453178764L859.0359374999999,109.4049845293863L860.5837499999999,107.11389938024743L862.1315625000001,105.58803667092099L863.679375,104.57181210650953L865.2271875,103.89500654661153L866.775,103.44425404371943L868.3228125,103.14405287679331L869.870625,102.9441188996205L871.4184375,102.8109628708234L872.96625,102.72228095564456L874.5140625,102.66321880013547L876.061875,102.62388340456636L877.6096875,102.59768603111738L879.1574999999999,102.58023858040033L880.7053125000001,100.28527235068324L882.2531250000001,98.75682484169167L883.8009375,97.73887880070326L885.34875,97.060926737405L886.8965625000001,96.60941066324835L888.444375,96.30870095786005L889.9921875,96.1084282940714L891.54,95.9750466999882L893.0878124999999,95.88621455832875L894.635625,95.82705235198354L896.1834375,95.78765032255765L897.7312499999999,95.76140857096004L899.2790624999999,95.74393156439604L900.8268750000001,95.73229187802441L902.3746875,93.44119361936137L903.9225,91.91532217909175L905.4703125,90.8990917998722L907.018125,90.22228236731196L908.5659375,89.77152728522684L910.11375,89.47132440055819L911.6615625,89.27138927936886L913.209375,89.13823248865677L914.7571875,89.04955006604253L916.305,88.9904875725814L917.8528124999999,88.9511519519363L919.4006250000001,88.92495442858669L920.9484375000001,88.90750687803582L922.49625,88.89588680936897L924.0440625,86.60480992285966L925.5918750000001,85.07895271644443L927.1396875,84.06273181697193L928.6875,83.38592869792322L930.2353125,82.93517782063678L931.7831249999999,82.63497773636404L933.3309375,82.43504448023839L934.87875,82.30188893165871L936.4265624999999,82.21320733630465L937.9743749999999,82.15414539379883L939.5221875000001,82.11481014008992L941.07,82.0886128611198L942.6178125,82.07116547332569L944.165625,82.05954551305487L945.7134375,79.76846039197497L947.26125,78.24259770133568L948.8090625,77.22637314936998L950.356875,76.54956759776081L951.9046875,76.09881510038909L953.4525,75.79861393713952L955.0003125,75.59867996241532L956.5481249999999,75.465523935249L958.0959375000001,75.37684202115626L959.6437500000001,75.31777986637043L961.1915625,75.2784444712831L962.739375,75.25224709815488L964.2871875000001,75.23479964765157L965.835,75.22317964561637L967.3828125,72.93209449672138L968.930625,71.40623178755732L970.4784374999999,70.39000722325402L972.02625,69.71320166342807L973.5740625,69.26244916058394L975.1218749999999,68.96224799368979L976.6696874999999,68.76231401653828L978.2175000000001,68.62915798775532L979.7653125,68.54047607258592L981.313125,68.48141391708309L982.8609375,68.4420785215182L984.40875,68.41588114807197L985.9565625,68.39843369735681L987.504375,66.10346746764097L989.0521875,64.57501995865022L990.6,63.557073917662365L992.1478125,62.879121854364435L993.695625,62.427605780208076L995.2434374999999,62.1268960748199L996.7912500000001,61.92662341103137L998.3390625000001,61.79324181694822L999.886875,61.704409675288844L1001.4346875,61.64524746894372L1002.9825000000001,61.6058454395178L1004.5303125,61.579603687920184L1006.078125,61.56212668135618L1007.6259375,61.55048699498456L1009.1737499999999,59.25938873632151L1010.7215625,57.73351729605193L1012.269375,56.71728691683238L1013.8171874999999,56.040477484272145L1015.3649999999999,55.589722402187064L1016.9128125000001,55.28951951751838L1018.460625,55.089584396329045L1020.0084375,54.956427605616945L1021.55625,54.86774518300271L1023.1040625,54.808682689541584L1024.651875,54.76934706889648L1026.1996875,54.74314954554688L1027.7475,54.72570199499601L1029.2953125000001,54.714081926329165L1030.843125,52.422996733057474L1032.3909375,50.89713399433855L1033.93875,49.880909410351734L1035.4865625,49.20410383741654L1037.034375,48.753351325841656L1038.5821875,48.45315015313285L1040.1299999999999,48.25321617210872L1041.6778125,48.12006014074666L1043.225625,48.03137822385956L1044.7734375,47.972316067212724L1046.32125,47.93298067088596L1047.8690625,47.90678329693229L1049.4168750000001,47.88933584587921L1050.9646875,47.87771584347777L1052.5125,45.58663069433892L1054.0603125,44.060767985012475L1055.608125,43.0445434206011L1057.1559375,42.36773786070309L1058.70375,41.916985357811L1060.2515624999999,41.61678419088488L1061.799375,41.41685021371204L1063.3471875,41.28369418491492L1064.895,41.19501226973608L1066.4428125,41.13595011422695L1067.9906250000001,41.09661471865789L1069.5384375,41.07041734520891L1071.08625,41.052969894491866L1072.6340625,41.041349892314315L1074.181875,38.750264743324564L1075.7296875,37.224402034097345L1077.2775,36.20817746975197L1078.8253124999999,35.531371909898L1080.373125,35.080619407035215L1081.9209375,34.78041824012863L1083.1591875000001,34.58048426296885" style="fill: none;" fill="none"></path></g></g></g></g><g opacity="0.2"><g><g><g><path stroke="rgb(255, 112, 67)" stroke-width="2px" d="M154.78125,328.14545457997485L156.3290625,328.14545457997485L157.876875,328.14545457997485L159.4246875,328.14545457997485L160.9725,328.14545457997485L162.52031250000002,328.14545457997485L164.068125,328.14545457997485L165.6159375,328.14545457997485L167.16375000000002,328.14545457997485L168.7115625,328.14545457997485L170.259375,328.14545457997485L171.80718750000003,328.14545457997485L173.35500000000002,328.14545457997485L174.90281249999998,328.14545457997485L176.45062499999997,321.3090901836668L177.9984375,321.3090901836668L179.54625,321.3090901836668L181.09406249999998,321.3090901836668L182.641875,321.3090901836668L184.1896875,321.3090901836668L185.73749999999998,321.3090901836668L187.2853125,321.3090901836668L188.833125,321.3090901836668L190.3809375,321.3090901836668L191.92875,321.3090901836668L193.4765625,321.3090901836668L195.024375,321.3090901836668L196.5721875,321.3090901836668L198.12,314.4727273417679L199.6678125,314.4727273417679L201.21562500000002,314.4727273417679L202.7634375,314.4727273417679L204.31125,314.4727273417679L205.85906250000002,314.4727273417679L207.406875,314.4727273417679L208.9546875,314.4727273417679L210.50250000000003,314.4727273417679L212.05031250000002,314.4727273417679L213.59812499999998,314.4727273417679L215.14593749999997,314.4727273417679L216.69375,314.4727273417679L218.2415625,314.4727273417679L219.78937499999998,307.63636449986905L221.3371875,307.63636449986905L222.885,307.63636449986905L224.43281249999998,307.63636449986905L225.980625,307.63636449986905L227.5284375,307.63636449986905L229.07625,307.63636449986905L230.6240625,307.63636449986905L232.171875,307.63636449986905L233.7196875,307.63636449986905L235.2675,307.63636449986905L236.8153125,307.63636449986905L238.363125,307.63636449986905L239.91093750000002,307.63636449986905L241.45875,300.79999854915184L243.0065625,300.79999854915184L244.55437500000002,300.79999854915184L246.1021875,300.79999854915184L247.65,300.79999854915184L249.19781250000003,300.79999854915184L250.74562500000002,300.79999854915184L252.29343749999998,300.79999854915184L253.84124999999997,300.79999854915184L255.3890625,300.79999854915184L256.936875,300.79999854915184L258.4846875,300.79999854915184L260.03249999999997,300.79999854915184L261.5803125,293.96363570725293L263.128125,293.96363570725293L264.6759375,293.96363570725293L266.22375,293.96363570725293L267.7715625,293.96363570725293L269.319375,293.96363570725293L270.8671875,293.96363570725293L272.415,293.96363570725293L273.9628125,293.96363570725293L275.510625,293.96363570725293L277.0584375,293.96363570725293L278.60625,293.96363570725293L280.1540625,293.96363570725293L281.70187500000003,293.96363570725293L283.2496875,287.127272865354L284.7975,287.127272865354L286.34531250000003,287.127272865354L287.893125,287.127272865354L289.4409375,287.127272865354L290.98875,287.127272865354L292.5365625,287.127272865354L294.08437499999997,287.127272865354L295.6321875,287.127272865354L297.18,287.127272865354L298.72781249999997,287.127272865354L300.275625,287.127272865354L301.8234375,287.127272865354L303.37125,287.127272865354L304.9190625,280.2909069146368L306.466875,280.2909069146368L308.0146875,280.2909069146368L309.5625,280.2909069146368L311.11031249999996,280.2909069146368L312.658125,280.2909069146368L314.20593749999995,280.2909069146368L315.75375,280.2909069146368L317.3015625,280.2909069146368L318.849375,280.2909069146368L320.3971875,280.2909069146368L321.945,280.2909069146368L323.49281249999996,280.2909069146368L325.04062500000003,280.2909069146368L326.5884375,273.4545471815562L328.13625,273.4545471815562L329.6840625,273.4545471815562L331.231875,273.4545471815562L332.77968749999997,273.4545471815562L334.32750000000004,273.4545471815562L335.8753125,273.4545471815562L337.423125,273.4545471815562L338.9709375,273.4545471815562L340.51875,273.4545471815562L342.0665625,273.4545471815562L343.61437500000005,273.4545471815562L345.1621875,273.4545471815562L346.71000000000004,273.4545471815562L348.2578125,266.618181230839L349.80562499999996,266.618181230839L351.3534375,266.618181230839L352.90124999999995,266.618181230839L354.4490625,266.618181230839L355.996875,266.618181230839L357.5446875,266.618181230839L359.0925,266.618181230839L360.6403125,266.618181230839L362.18812499999996,266.618181230839L363.73593750000003,266.618181230839L365.28375,266.618181230839L366.8315625,266.618181230839L368.379375,259.78181528012186L369.9271875,259.78181528012186L371.47499999999997,259.78181528012186L373.02281250000004,259.78181528012186L374.570625,259.78181528012186L376.1184375,259.78181528012186L377.66625,259.78181528012186L379.2140625,259.78181528012186L380.761875,259.78181528012186L382.30968750000005,259.78181528012186L383.8575,259.78181528012186L385.40531250000004,259.78181528012186L386.953125,259.78181528012186L388.50093749999996,259.78181528012186L390.04875,252.94545554704115L391.59656249999995,252.94545554704115L393.144375,252.94545554704115L394.6921875,252.94545554704115L396.24,252.94545554704115L397.7878125,252.94545554704115L399.335625,252.94545554704115L400.88343749999996,252.94545554704115L402.43125000000003,252.94545554704115L403.9790625,252.94545554704115L405.526875,252.94545554704115L407.0746875,252.94545554704115L408.6225,252.94545554704115L410.17031249999997,252.94545554704115L411.71812500000004,246.109089596324L413.2659375,246.109089596324L414.81375,246.109089596324L416.3615625,246.109089596324L417.909375,246.109089596324L419.4571875,246.109089596324L421.00500000000005,246.109089596324L422.5528125,246.109089596324L424.10062500000004,246.109089596324L425.6484375,246.109089596324L427.19624999999996,246.109089596324L428.7440625,246.109089596324L430.29187499999995,246.109089596324L431.8396875,246.109089596324L433.3875,239.27272986324337L434.9353125,239.27272986324337L436.483125,239.27272986324337L438.0309375,239.27272986324337L439.57874999999996,239.27272986324337L441.12656250000003,239.27272986324337L442.674375,239.27272986324337L444.2221875,239.27272986324337L445.77,239.27272986324337L447.3178125,239.27272986324337L448.86562499999997,239.27272986324337L450.41343750000004,239.27272986324337L451.96125,239.27272986324337L453.5090625,239.27272986324337L455.056875,232.4363639125262L456.6046875,232.4363639125262L458.1525,232.4363639125262L459.70031250000005,232.4363639125262L461.248125,232.4363639125262L462.79593750000004,232.4363639125262L464.34375,232.4363639125262L465.89156249999996,232.4363639125262L467.439375,232.4363639125262L468.98718749999995,232.4363639125262L470.535,232.4363639125262L472.0828125,232.4363639125262L473.630625,232.4363639125262L475.1784375,225.59999796180904L476.72625,225.59999796180904L478.27406249999996,225.59999796180904L479.82187500000003,225.59999796180904L481.3696875,225.59999796180904L482.9175,225.59999796180904L484.4653125,225.59999796180904L486.013125,225.59999796180904L487.56093749999997,225.59999796180904L489.10875000000004,225.59999796180904L490.6565625,225.59999796180904L492.204375,225.59999796180904L493.7521875,225.59999796180904L495.3,225.59999796180904L496.8478125,218.76363201109186L498.39562500000005,218.76363201109186L499.9434375,218.76363201109186L501.49125000000004,218.76363201109186L503.0390625,218.76363201109186L504.58687499999996,218.76363201109186L506.1346875,218.76363201109186L507.68249999999995,218.76363201109186L509.2303125,218.76363201109186L510.778125,218.76363201109186L512.3259375,218.76363201109186L513.87375,218.76363201109186L515.4215625,218.76363201109186L516.969375,218.76363201109186L518.5171875,211.92727849564773L520.0649999999999,211.92727849564773L521.6128125,211.92727849564773L523.160625,211.92727849564773L524.7084375000001,211.92727849564773L526.25625,211.92727849564773L527.8040625,211.92727849564773L529.351875,211.92727849564773L530.8996875,211.92727849564773L532.4475,211.92727849564773L533.9953125000001,211.92727849564773L535.543125,211.92727849564773L537.0909375,211.92727849564773L538.63875,211.92727849564773L540.1865625,205.09091254493055L541.734375,205.09091254493055L543.2821875,205.09091254493055L544.83,205.09091254493055L546.3778125,205.09091254493055L547.925625,205.09091254493055L549.4734374999999,205.09091254493055L551.02125,205.09091254493055L552.5690625,205.09091254493055L554.116875,205.09091254493055L555.6646875,205.09091254493055L557.2125,205.09091254493055L558.7603124999999,205.09091254493055L560.308125,205.09091254493055L561.8559375,198.25454659421337L563.4037500000001,198.25454659421337L564.9515625,198.25454659421337L566.499375,198.25454659421337L568.0471875,198.25454659421337L569.595,198.25454659421337L571.1428125,198.25454659421337L572.6906250000001,198.25454659421337L574.2384375,198.25454659421337L575.78625,198.25454659421337L577.3340625,198.25454659421337L578.881875,198.25454659421337L580.4296875,198.25454659421337L581.9775,191.4181806434962L583.5253125,191.4181806434962L585.073125,191.4181806434962L586.6209375,191.4181806434962L588.1687499999999,191.4181806434962L589.7165625,191.4181806434962L591.264375,191.4181806434962L592.8121875,191.4181806434962L594.36,191.4181806434962L595.9078125,191.4181806434962L597.4556249999999,191.4181806434962L599.0034375,191.4181806434962L600.55125,191.4181806434962L602.0990625000001,191.4181806434962L603.646875,184.58181469277903L605.1946875,184.58181469277903L606.7425,184.58181469277903L608.2903125,184.58181469277903L609.838125,184.58181469277903L611.3859375000001,184.58181469277903L612.93375,184.58181469277903L614.4815625,184.58181469277903L616.029375,184.58181469277903L617.5771875,184.58181469277903L619.125,184.58181469277903L620.6728125,184.58181469277903L622.2206249999999,184.58181469277903L623.7684375,184.58181469277903L625.31625,177.74544874206185L626.8640624999999,177.74544874206185L628.4118749999999,177.74544874206185L629.9596875000001,177.74544874206185L631.5075,177.74544874206185L633.0553125,177.74544874206185L634.603125,177.74544874206185L636.1509375,177.74544874206185L637.69875,177.74544874206185L639.2465625,177.74544874206185L640.794375,177.74544874206185L642.3421875,177.74544874206185L643.89,177.74544874206185L645.4378125,177.74544874206185L646.9856249999999,170.90909522661772L648.5334375000001,170.90909522661772L650.0812500000001,170.90909522661772L651.6290625,170.90909522661772L653.176875,170.90909522661772L654.7246875000001,170.90909522661772L656.2725,170.90909522661772L657.8203125,170.90909522661772L659.368125,170.90909522661772L660.9159374999999,170.90909522661772L662.46375,170.90909522661772L664.0115625,170.90909522661772L665.5593749999999,170.90909522661772L667.1071874999999,170.90909522661772L668.6550000000001,164.07272927590054L670.2028125,164.07272927590054L671.750625,164.07272927590054L673.2984375,164.07272927590054L674.84625,164.07272927590054L676.3940625,164.07272927590054L677.941875,164.07272927590054L679.4896875,164.07272927590054L681.0375,164.07272927590054L682.5853125,164.07272927590054L684.133125,164.07272927590054L685.6809374999999,164.07272927590054L687.2287500000001,164.07272927590054L688.7765625000001,157.2363633251834L690.324375,157.2363633251834L691.8721875,157.2363633251834L693.4200000000001,157.2363633251834L694.9678125,157.2363633251834L696.515625,157.2363633251834L698.0634375,157.2363633251834L699.6112499999999,157.2363633251834L701.1590625,157.2363633251834L702.706875,157.2363633251834L704.2546874999999,157.2363633251834L705.8024999999999,157.2363633251834L707.3503125000001,157.2363633251834L708.898125,157.2363633251834L710.4459375,150.3999973744662L711.99375,150.3999973744662L713.5415625,150.3999973744662L715.089375,150.3999973744662L716.6371875,150.3999973744662L718.185,150.3999973744662L719.7328125,150.3999973744662L721.280625,150.3999973744662L722.8284375,150.3999973744662L724.3762499999999,150.3999973744662L725.9240625000001,150.3999973744662L727.4718750000001,150.3999973744662L729.0196875,150.3999973744662L730.5675,150.3999973744662L732.1153125000001,143.56363142374903L733.663125,143.56363142374903L735.2109375,143.56363142374903L736.75875,143.56363142374903L738.3065624999999,143.56363142374903L739.854375,143.56363142374903L741.4021875,143.56363142374903L742.9499999999999,143.56363142374903L744.4978124999999,143.56363142374903L746.0456250000001,143.56363142374903L747.5934375,143.56363142374903L749.14125,143.56363142374903L750.6890625,143.56363142374903L752.236875,143.56363142374903L753.7846875,136.7272779083049L755.3325,136.7272779083049L756.8803125,136.7272779083049L758.428125,136.7272779083049L759.9759375,136.7272779083049L761.52375,136.7272779083049L763.0715624999999,136.7272779083049L764.6193750000001,136.7272779083049L766.1671875000001,136.7272779083049L767.715,136.7272779083049L769.2628125,136.7272779083049L770.8106250000001,136.7272779083049L772.3584375,136.7272779083049L773.90625,136.7272779083049L775.4540625,129.89091195758772L777.0018749999999,129.89091195758772L778.5496875,129.89091195758772L780.0975,129.89091195758772L781.6453124999999,129.89091195758772L783.1931249999999,129.89091195758772L784.7409375000001,129.89091195758772L786.28875,129.89091195758772L787.8365625,129.89091195758772L789.384375,129.89091195758772L790.9321875,129.89091195758772L792.48,129.89091195758772L794.0278125,129.89091195758772L795.575625,123.05454600687055L797.1234375,123.05454600687055L798.67125,123.05454600687055L800.2190625,123.05454600687055L801.7668749999999,123.05454600687055L803.3146875000001,123.05454600687055L804.8625000000001,123.05454600687055L806.4103125,123.05454600687055L807.958125,123.05454600687055L809.5059375000001,123.05454600687055L811.05375,123.05454600687055L812.6015625,123.05454600687055L814.149375,123.05454600687055L815.6971874999999,123.05454600687055L817.245,116.21818005615339L818.7928125,116.21818005615339L820.3406249999999,116.21818005615339L821.8884374999999,116.21818005615339L823.4362500000001,116.21818005615339L824.9840625,116.21818005615339L826.531875,116.21818005615339L828.0796875,116.21818005615339L829.6275,116.21818005615339L831.1753125,116.21818005615339L832.723125,116.21818005615339L834.2709375,116.21818005615339L835.81875,116.21818005615339L837.3665625,116.21818005615339L838.914375,109.3818141054362L840.4621874999999,109.3818141054362L842.0100000000001,109.3818141054362L843.5578125000001,109.3818141054362L845.105625,109.3818141054362L846.6534375,109.3818141054362L848.2012500000001,109.3818141054362L849.7490625,109.3818141054362L851.296875,109.3818141054362L852.8446875,109.3818141054362L854.3924999999999,109.3818141054362L855.9403125,109.3818141054362L857.488125,109.3818141054362L859.0359374999999,109.3818141054362L860.5837499999999,102.54544815471903L862.1315625000001,102.54544815471903L863.679375,102.54544815471903L865.2271875,102.54544815471903L866.775,102.54544815471903L868.3228125,102.54544815471903L869.870625,102.54544815471903L871.4184375,102.54544815471903L872.96625,102.54544815471903L874.5140625,102.54544815471903L876.061875,102.54544815471903L877.6096875,102.54544815471903L879.1574999999999,102.54544815471903L880.7053125000001,95.7090822040019L882.2531250000001,95.7090822040019L883.8009375,95.7090822040019L885.34875,95.7090822040019L886.8965625000001,95.7090822040019L888.444375,95.7090822040019L889.9921875,95.7090822040019L891.54,95.7090822040019L893.0878124999999,95.7090822040019L894.635625,95.7090822040019L896.1834375,95.7090822040019L897.7312499999999,95.7090822040019L899.2790624999999,95.7090822040019L900.8268750000001,95.7090822040019L902.3746875,88.87271625328472L903.9225,88.87271625328472L905.4703125,88.87271625328472L907.018125,88.87271625328472L908.5659375,88.87271625328472L910.11375,88.87271625328472L911.6615625,88.87271625328472L913.209375,88.87271625328472L914.7571875,88.87271625328472L916.305,88.87271625328472L917.8528124999999,88.87271625328472L919.4006250000001,88.87271625328472L920.9484375000001,88.87271625328472L922.49625,88.87271625328472L924.0440625,82.03637517311357L925.5918750000001,82.03637517311357L927.1396875,82.03637517311357L928.6875,82.03637517311357L930.2353125,82.03637517311357L931.7831249999999,82.03637517311357L933.3309375,82.03637517311357L934.87875,82.03637517311357L936.4265624999999,82.03637517311357L937.9743749999999,82.03637517311357L939.5221875000001,82.03637517311357L941.07,82.03637517311357L942.6178125,82.03637517311357L944.165625,82.03637517311357L945.7134375,75.20000922239639L947.26125,75.20000922239639L948.8090625,75.20000922239639L950.356875,75.20000922239639L951.9046875,75.20000922239639L953.4525,75.20000922239639L955.0003125,75.20000922239639L956.5481249999999,75.20000922239639L958.0959375000001,75.20000922239639L959.6437500000001,75.20000922239639L961.1915625,75.20000922239639L962.739375,75.20000922239639L964.2871875000001,75.20000922239639L965.835,75.20000922239639L967.3828125,68.36364327167925L968.930625,68.36364327167925L970.4784374999999,68.36364327167925L972.02625,68.36364327167925L973.5740625,68.36364327167925L975.1218749999999,68.36364327167925L976.6696874999999,68.36364327167925L978.2175000000001,68.36364327167925L979.7653125,68.36364327167925L981.313125,68.36364327167925L982.8609375,68.36364327167925L984.40875,68.36364327167925L985.9565625,68.36364327167925L987.504375,61.527277320962085L989.0521875,61.527277320962085L990.6,61.527277320962085L992.1478125,61.527277320962085L993.695625,61.527277320962085L995.2434374999999,61.527277320962085L996.7912500000001,61.527277320962085L998.3390625000001,61.527277320962085L999.886875,61.527277320962085L1001.4346875,61.527277320962085L1002.9825000000001,61.527277320962085L1004.5303125,61.527277320962085L1006.078125,61.527277320962085L1007.6259375,61.527277320962085L1009.1737499999999,54.690911370244905L1010.7215625,54.690911370244905L1012.269375,54.690911370244905L1013.8171874999999,54.690911370244905L1015.3649999999999,54.690911370244905L1016.9128125000001,54.690911370244905L1018.460625,54.690911370244905L1020.0084375,54.690911370244905L1021.55625,54.690911370244905L1023.1040625,54.690911370244905L1024.651875,54.690911370244905L1026.1996875,54.690911370244905L1027.7475,54.690911370244905L1029.2953125000001,54.690911370244905L1030.843125,47.85454541952773L1032.3909375,47.85454541952773L1033.93875,47.85454541952773L1035.4865625,47.85454541952773L1037.034375,47.85454541952773L1038.5821875,47.85454541952773L1040.1299999999999,47.85454541952773L1041.6778125,47.85454541952773L1043.225625,47.85454541952773L1044.7734375,47.85454541952773L1046.32125,47.85454541952773L1047.8690625,47.85454541952773L1049.4168750000001,47.85454541952773L1050.9646875,47.85454541952773L1052.5125,41.01817946881056L1054.0603125,41.01817946881056L1055.608125,41.01817946881056L1057.1559375,41.01817946881056L1058.70375,41.01817946881056L1060.2515624999999,41.01817946881056L1061.799375,41.01817946881056L1063.3471875,41.01817946881056L1064.895,41.01817946881056L1066.4428125,41.01817946881056L1067.9906250000001,41.01817946881056L1069.5384375,41.01817946881056L1071.08625,41.01817946881056L1072.6340625,41.01817946881056L1074.181875,34.18181351809343L1075.7296875,34.18181351809343L1077.2775,34.18181351809343L1078.8253124999999,34.18181351809343L1080.373125,34.18181351809343L1081.9209375,34.18181351809343L1083.1591875000001,34.18181351809343" style="fill: none;" fill="none"></path></g></g></g></g></g></g><g transform="translate(64, 376)" clip-path="url(#clip_1)"><clipPath id="clip_1"><rect width="1238" height="24"></rect></clipPath><g><g><line x1="0" y1="0" x2="0" y2="5" style="visibility: inherit;" fill="rgb(0, 0, 0)" stroke="rgb(204, 204, 204)" stroke-width="1px"></line><line x1="154.78125" y1="0" x2="154.78125" y2="5" style="visibility: inherit;" fill="rgb(0, 0, 0)" stroke="rgb(204, 204, 204)" stroke-width="1px"></line><line x1="309.5625" y1="0" x2="309.5625" y2="5" style="visibility: inherit;" fill="rgb(0, 0, 0)" stroke="rgb(204, 204, 204)" stroke-width="1px"></line><line x1="464.34375" y1="0" x2="464.34375" y2="5" style="visibility: inherit;" fill="rgb(0, 0, 0)" stroke="rgb(204, 204, 204)" stroke-width="1px"></line><line x1="619.125" y1="0" x2="619.125" y2="5" style="visibility: inherit;" fill="rgb(0, 0, 0)" stroke="rgb(204, 204, 204)" stroke-width="1px"></line><line x1="773.90625" y1="0" x2="773.90625" y2="5" style="visibility: inherit;" fill="rgb(0, 0, 0)" stroke="rgb(204, 204, 204)" stroke-width="1px"></line><line x1="928.6875" y1="0" x2="928.6875" y2="5" style="visibility: inherit;" fill="rgb(0, 0, 0)" stroke="rgb(204, 204, 204)" stroke-width="1px"></line><line x1="1083.46875" y1="0" x2="1083.46875" y2="5" style="visibility: inherit;" fill="rgb(0, 0, 0)" stroke="rgb(204, 204, 204)" stroke-width="1px"></line><line x1="1238.25" y1="0" x2="1238.25" y2="5" style="visibility: inherit;" fill="rgb(0, 0, 0)" stroke="rgb(204, 204, 204)" stroke-width="1px"></line></g><g transform="translate(0, 8)"><text x="0" y="0" dx="0em" dy="0.95em" style="text-anchor: middle; visibility: hidden; font-family: Roboto, sans-serif; font-size: 12px; font-weight: 200;" fill="rgb(255, 255, 255)" stroke="none" stroke-width="1px">-500</text><text x="154.78125" y="0" dx="0em" dy="0.95em" style="text-anchor: middle; visibility: inherit; font-family: Roboto, sans-serif; font-size: 12px; font-weight: 200;" fill="rgb(255, 255, 255)" stroke="none" stroke-width="1px">0</text><text x="309.5625" y="0" dx="0em" dy="0.95em" style="text-anchor: middle; visibility: inherit; font-family: Roboto, sans-serif; font-size: 12px; font-weight: 200;" fill="rgb(255, 255, 255)" stroke="none" stroke-width="1px">500</text><text x="464.34375" y="0" dx="0em" dy="0.95em" style="text-anchor: middle; visibility: inherit; font-family: Roboto, sans-serif; font-size: 12px; font-weight: 200;" fill="rgb(255, 255, 255)" stroke="none" stroke-width="1px">1k</text><text x="619.125" y="0" dx="0em" dy="0.95em" style="text-anchor: middle; visibility: inherit; font-family: Roboto, sans-serif; font-size: 12px; font-weight: 200;" fill="rgb(255, 255, 255)" stroke="none" stroke-width="1px">1.5k</text><text x="773.90625" y="0" dx="0em" dy="0.95em" style="text-anchor: middle; visibility: inherit; font-family: Roboto, sans-serif; font-size: 12px; font-weight: 200;" fill="rgb(255, 255, 255)" stroke="none" stroke-width="1px">2k</text><text x="928.6875" y="0" dx="0em" dy="0.95em" style="text-anchor: middle; visibility: inherit; font-family: Roboto, sans-serif; font-size: 12px; font-weight: 200;" fill="rgb(255, 255, 255)" stroke="none" stroke-width="1px">2.5k</text><text x="1083.46875" y="0" dx="0em" dy="0.95em" style="text-anchor: middle; visibility: inherit; font-family: Roboto, sans-serif; font-size: 12px; font-weight: 200;" fill="rgb(255, 255, 255)" stroke="none" stroke-width="1px">3k</text><text x="1238.25" y="0" dx="0em" dy="0.95em" style="text-anchor: middle; visibility: hidden; font-family: Roboto, sans-serif; font-size: 12px; font-weight: 200;" fill="rgb(255, 255, 255)" stroke="none" stroke-width="1px">3.5k</text></g><line x1="0" y1="0" x2="1238.25" y2="0" fill="rgb(0, 0, 0)" stroke="rgb(204, 204, 204)" stroke-width="1px"></line></g></g></g></g></svg>