<svg viewBox="0 0 1303 400" xmlns="http://www.w3.org/2000/svg"><g><g><g><g><g><line x1="37.375" y1="376" x2="32.375" y2="376" style="visibility: inherit;" fill="rgb(0, 0, 0)" stroke="rgb(204, 204, 204)" stroke-width="1px"></line><line x1="37.375" y1="341.8181818181818" x2="32.375" y2="341.8181818181818" style="visibility: inherit;" fill="rgb(0, 0, 0)" stroke="rgb(204, 204, 204)" stroke-width="1px"></line><line x1="37.375" y1="307.6363636363636" x2="32.375" y2="307.6363636363636" style="visibility: inherit;" fill="rgb(0, 0, 0)" stroke="rgb(204, 204, 204)" stroke-width="1px"></line><line x1="37.375" y1="273.45454545454544" x2="32.375" y2="273.45454545454544" style="visibility: inherit;" fill="rgb(0, 0, 0)" stroke="rgb(204, 204, 204)" stroke-width="1px"></line><line x1="37.375" y1="239.27272727272728" x2="32.375" y2="239.27272727272728" style="visibility: inherit;" fill="rgb(0, 0, 0)" stroke="rgb(204, 204, 204)" stroke-width="1px"></line><line x1="37.375" y1="205.09090909090907" x2="32.375" y2="205.09090909090907" style="visibility: inherit;" fill="rgb(0, 0, 0)" stroke="rgb(204, 204, 204)" stroke-width="1px"></line><line x1="37.375" y1="170.90909090909093" x2="32.375" y2="170.90909090909093" style="visibility: inherit;" fill="rgb(0, 0, 0)" stroke="rgb(204, 204, 204)" stroke-width="1px"></line><line x1="37.375" y1="136.72727272727272" x2="32.375" y2="136.72727272727272" style="visibility: inherit;" fill="rgb(0, 0, 0)" stroke="rgb(204, 204, 204)" stroke-width="1px"></line><line x1="37.375" y1="102.54545454545453" x2="32.375" y2="102.54545454545453" style="visibility: inherit;" fill="rgb(0, 0, 0)" stroke="rgb(204, 204, 204)" stroke-width="1px"></line><line x1="37.375" y1="68.36363636363635" x2="32.375" y2="68.36363636363635" style="visibility: inherit;" fill="rgb(0, 0, 0)" stroke="rgb(204, 204, 204)" stroke-width="1px"></line><line x1="37.375" y1="34.181818181818194" x2="32.375" y2="34.181818181818194" style="visibility: inherit;" fill="rgb(0, 0, 0)" stroke="rgb(204, 204, 204)" stroke-width="1px"></line><line x1="37.375" y1="0" x2="32.375" y2="0" style="visibility: inherit;" fill="rgb(0, 0, 0)" stroke="rgb(204, 204, 204)" stroke-width="1px"></line></g><g transform="translate(27.375, 0)"><text x="0" y="376" dx="0em" dy="0.3em" style="text-anchor: end; visibility: hidden; font-family: Roboto, sans-serif; font-size: 12px; font-weight: 200;" fill="rgb(255, 255, 255)" stroke="none" stroke-width="1px">1.5</text><text x="0" y="341.8181818181818" dx="0em" dy="0.3em" style="text-anchor: end; visibility: inherit; font-family: Roboto, sans-serif; font-size: 12px; font-weight: 200;" fill="rgb(255, 255, 255)" stroke="none" stroke-width="1px">2</text><text x="0" y="307.6363636363636" dx="0em" dy="0.3em" style="text-anchor: end; visibility: inherit; font-family: Roboto, sans-serif; font-size: 12px; font-weight: 200;" fill="rgb(255, 255, 255)" stroke="none" stroke-width="1px">2.5</text><text x="0" y="273.45454545454544" dx="0em" dy="0.3em" style="text-anchor: end; visibility: inherit; font-family: Roboto, sans-serif; font-size: 12px; font-weight: 200;" fill="rgb(255, 255, 255)" stroke="none" stroke-width="1px">3</text><text x="0" y="239.27272727272728" dx="0em" dy="0.3em" style="text-anchor: end; visibility: inherit; font-family: Roboto, sans-serif; font-size: 12px; font-weight: 200;" fill="rgb(255, 255, 255)" stroke="none" stroke-width="1px">3.5</text><text x="0" y="205.09090909090907" dx="0em" dy="0.3em" style="text-anchor: end; visibility: inherit; font-family: Roboto, sans-serif; font-size: 12px; font-weight: 200;" fill="rgb(255, 255, 255)" stroke="none" stroke-width="1px">4</text><text x="0" y="170.90909090909093" dx="0em" dy="0.3em" style="text-anchor: end; visibility: inherit; font-family: Roboto, sans-serif; font-size: 12px; font-weight: 200;" fill="rgb(255, 255, 255)" stroke="none" stroke-width="1px">4.5</text><text x="0" y="136.72727272727272" dx="0em" dy="0.3em" style="text-anchor: end; visibility: inherit; font-family: Roboto, sans-serif; font-size: 12px; font-weight: 200;" fill="rgb(255, 255, 255)" stroke="none" stroke-width="1px">5</text><text x="0" y="102.54545454545453" dx="0em" dy="0.3em" style="text-anchor: end; visibility: inherit; font-family: Roboto, sans-serif; font-size: 12px; font-weight: 200;" fill="rgb(255, 255, 255)" stroke="none" stroke-width="1px">5.5</text><text x="0" y="68.36363636363635" dx="0em" dy="0.3em" style="text-anchor: end; visibility: inherit; font-family: Roboto, sans-serif; font-size: 12px; font-weight: 200;" fill="rgb(255, 255, 255)" stroke="none" stroke-width="1px">6</text><text x="0" y="34.181818181818194" dx="0em" dy="0.3em" style="text-anchor: end; visibility: inherit; font-family: Roboto, sans-serif; font-size: 12px; font-weight: 200;" fill="rgb(255, 255, 255)" stroke="none" stroke-width="1px">6.5</text><text x="0" y="0" dx="0em" dy="0.3em" style="text-anchor: end; visibility: hidden; font-family: Roboto, sans-serif; font-size: 12px; font-weight: 200;" fill="rgb(255, 255, 255)" stroke="none" stroke-width="1px">7</text></g><line x1="37.375" y1="0" x2="37.375" y2="376" fill="rgb(0, 0, 0)" stroke="rgb(204, 204, 204)" stroke-width="1px"></line></g></g><g transform="translate(37, 0)" clip-path="url(#clip_0)"><clipPath id="clip_0"><rect width="1265" height="376"></rect></clipPath><g><g><g><line x1="0" y1="0" x2="0" y2="376" fill="rgb(0, 0, 0)" stroke="rgb(189, 189, 189)" stroke-width="1px" opacity="0.25"></line><line x1="126.5625" y1="0" x2="126.5625" y2="376" fill="rgb(0, 0, 0)" stroke="rgb(189, 189, 189)" stroke-width="1px" opacity="0.25"></line><line x1="253.125" y1="0" x2="253.125" y2="376" fill="rgb(0, 0, 0)" stroke="rgb(189, 189, 189)" stroke-width="1px" opacity="0.25"></line><line x1="379.6875" y1="0" x2="379.6875" y2="376" fill="rgb(0, 0, 0)" stroke="rgb(189, 189, 189)" stroke-width="1px" opacity="0.25"></line><line x1="506.25" y1="0" x2="506.25" y2="376" fill="rgb(0, 0, 0)" stroke="rgb(189, 189, 189)" stroke-width="1px" opacity="0.25"></line><line x1="632.8125" y1="0" x2="632.8125" y2="376" fill="rgb(0, 0, 0)" stroke="rgb(189, 189, 189)" stroke-width="1px" opacity="0.25"></line><line x1="759.375" y1="0" x2="759.375" y2="376" fill="rgb(0, 0, 0)" stroke="rgb(189, 189, 189)" stroke-width="1px" opacity="0.25"></line><line x1="885.9375" y1="0" x2="885.9375" y2="376" fill="rgb(0, 0, 0)" stroke="rgb(189, 189, 189)" stroke-width="1px" opacity="0.25"></line><line x1="1012.5" y1="0" x2="1012.5" y2="376" fill="rgb(0, 0, 0)" stroke="rgb(189, 189, 189)" stroke-width="1px" opacity="0.25"></line><line x1="1139.0625" y1="0" x2="1139.0625" y2="376" fill="rgb(0, 0, 0)" stroke="rgb(189, 189, 189)" stroke-width="1px" opacity="0.25"></line><line x1="1265.625" y1="0" x2="1265.625" y2="376" fill="rgb(0, 0, 0)" stroke="rgb(189, 189, 189)" stroke-width="1px" opacity="0.25"></line></g><g><line x1="0" y1="376" x2="1265.625" y2="376" fill="rgb(0, 0, 0)" stroke="rgb(189, 189, 189)" stroke-width="1px" opacity="0.25"></line><line x1="0" y1="341.8181818181818" x2="1265.625" y2="341.8181818181818" fill="rgb(0, 0, 0)" stroke="rgb(189, 189, 189)" stroke-width="1px" opacity="0.25"></line><line x1="0" y1="307.6363636363636" x2="1265.625" y2="307.6363636363636" fill="rgb(0, 0, 0)" stroke="rgb(189, 189, 189)" stroke-width="1px" opacity="0.25"></line><line x1="0" y1="273.45454545454544" x2="1265.625" y2="273.45454545454544" fill="rgb(0, 0, 0)" stroke="rgb(189, 189, 189)" stroke-width="1px" opacity="0.25"></line><line x1="0" y1="239.27272727272728" x2="1265.625" y2="239.27272727272728" fill="rgb(0, 0, 0)" stroke="rgb(189, 189, 189)" stroke-width="1px" opacity="0.25"></line><line x1="0" y1="205.09090909090907" x2="1265.625" y2="205.09090909090907" fill="rgb(0, 0, 0)" stroke="rgb(189, 189, 189)" stroke-width="1px" opacity="0.25"></line><line x1="0" y1="170.90909090909093" x2="1265.625" y2="170.90909090909093" fill="rgb(0, 0, 0)" stroke="rgb(189, 189, 189)" stroke-width="1px" opacity="0.25"></line><line x1="0" y1="136.72727272727272" x2="1265.625" y2="136.72727272727272" fill="rgb(0, 0, 0)" stroke="rgb(189, 189, 189)" stroke-width="1px" opacity="0.25"></line><line x1="0" y1="102.54545454545453" x2="1265.625" y2="102.54545454545453" fill="rgb(0, 0, 0)" stroke="rgb(189, 189, 189)" stroke-width="1px" opacity="0.25"></line><line x1="0" y1="68.36363636363635" x2="1265.625" y2="68.36363636363635" fill="rgb(0, 0, 0)" stroke="rgb(189, 189, 189)" stroke-width="1px" opacity="0.25"></line><line x1="0" y1="34.181818181818194" x2="1265.625" y2="34.181818181818194" fill="rgb(0, 0, 0)" stroke="rgb(189, 189, 189)" stroke-width="1px" opacity="0.25"></line><line x1="0" y1="0" x2="1265.625" y2="0" fill="rgb(0, 0, 0)" stroke="rgb(189, 189, 189)" stroke-width="1px" opacity="0.25"></line></g></g></g><g><g><line x1="0" y1="478.54545454545456" x2="1265.625" y2="478.54545454545456" fill="rgb(0, 0, 0)" stroke="rgb(153, 153, 153)" stroke-width="1.5px"></line></g></g><g><g><line x1="126.5625" y1="0" x2="126.5625" y2="376" fill="rgb(0, 0, 0)" stroke="rgb(153, 153, 153)" stroke-width="1.5px"></line></g></g><g><g><g><g><g><path stroke="rgb(255, 112, 67)" stroke-width="2px" d="M127.82812500000001,20.12626925381753L130.9921875,106.60257369826928L131.30859375,121.16462154885971L132.2578125,141.55307390012507L132.57421875,145.3791816959621L132.890625,144.77484805763504L133.5234375,158.2944144189405L134.7890625,145.40902997377617L135.10546875,153.38970254793884L139.21875,163.59491463924516L141.43359375,195.30530921948457L141.75,202.2433558788309L142.06640625,198.1985187477617L142.69921875,199.7568992630267L143.6484375,204.75781073819144L145.546875,207.22689548901104L145.86328125,209.4589367152071L146.1796875,212.90921818299103L146.49609375,207.66287953689553L147.4453125,217.10451196010126L147.76171875,223.82501224262467L148.078125,227.43691206317428L148.7109375,230.0157254855835L149.02734375,231.82899591702483L150.92578125,240.68379256985085L152.5078125,249.9329351224086L154.72265625,247.14414610019384L157.88671875,243.56974742081945L159.15234375,241.61620679952875L160.1015625,253.08825798608595L160.41796875,257.3446815990651L161.05078125,264.7096197637074L163.265625,266.6143364952508L164.84765625,255.4728825714106L166.11328125,254.76572391599043L166.4296875,252.34477624642497L167.0625,242.89598251142422L167.6953125,236.87023695851815L169.59375,231.86383689423846L169.91015625,229.17347625951294L172.125,234.5057352647791L172.7578125,251.25932584323223L173.07421875,243.10468221840594L174.0234375,242.04857612749032L176.23828125000003,249.1839368935906L177.18750000000003,251.81029086419812L177.82031250000003,255.43863472281492L178.45312499999997,254.41868089563715L180.35156249999997,275.18913792985154L180.66796874999997,272.4611560011435L180.98437499999997,273.44141691694495L182.56640625,281.0173742571642L184.78125,278.15802011972835L185.09765625,263.2180718972574L185.4140625,268.84048060096995L186.6796875,262.7552019171114L186.99609375,264.50438903957547L187.3125,252.8209620317893L189.52734375,261.64428850531453L190.4765625,254.34343643823678L190.79296875,252.59555180459904L191.109375,241.90077937657497L191.42578125,263.2194115819114L192.05859375,270.0538317573862L193.32421875,275.5371572559186L193.95703125,278.1250161395465L194.58984375,272.5418262257807L195.85546875,265.73405170232064L196.171875,258.59477717641664L196.48828125,264.0100409880068L197.4375,261.17529002156687L199.01953125,261.75335988340635L202.18359375,256.0737896593321L203.765625,255.1545071617668L204.08203125,263.9405174875384L204.3984375,259.7452790579608L208.1953125,256.4215133170627L208.51171875,260.19710079188775L208.828125,265.390007034807L212.30859375,265.01474906722825L213.2578125,265.648478877004L213.89062500000003,279.9235985139217L214.52343750000003,277.81316583998046L215.78906250000003,278.4808964232262L216.73828125000003,271.12341725793107L217.68749999999997,268.53407865911856L218.32031249999997,278.488893896045L219.90234374999997,271.85256170601514L220.53515624999997,274.5042856189111L220.85156249999997,259.29137941861705L223.3828125,245.50622920213735L224.015625,252.44345366765535L225.28125,257.75549659587784L226.546875,263.1473964998724L227.1796875,264.3112029785386L227.49609375,258.9052824530715L228.4453125,260.3009007880842L233.19140625,257.3372776846241L233.5078125,260.4119835968952L235.08984375,262.5213846821551L235.72265625,265.3921573060423L236.0390625,266.44327205696186L237.9375,261.037648134611L238.5703125,269.6008798058332L239.8359375,275.2217943539775L241.1015625,275.31653620466045L241.41796875,276.74507279469907L241.734375,276.5114239283798L242.05078125,258.098186133237L242.3671875,277.6100026769607L242.68359375,271.3676876938055L246.1640625,261.7964910027484L248.6953125,260.41803541147806L249.9609375,247.12881780976903L250.59375,249.22684160456566L251.2265625,250.1514734480051L252.17578125,251.63038451863633L253.75781250000003,265.64182275808525L254.39062500000003,275.384445681766L255.97265625000003,265.20917774394474L257.5546875,270.29214287937043L257.87109375,277.5750700228452L259.76953125,261.8685397808281L260.0859375,260.8427718105765L261.3515625,253.56302764113937L262.6171875,263.38521082769444L264.19921875,246.73484816639922L264.515625,254.73218740374088L264.83203125,252.3955102898676L265.46484375,265.59882777533187L266.73046875,269.4716251094727L267.046875,271.98926118632323L267.6796875,272.88738474180604L268.9453125,266.4459805753009L269.578125,249.4560373550871L270.84375,254.46893965692485L272.42578125,250.12635774919505L273.69140625,251.55428607401322L274.0078125,247.08006097018915L274.640625,259.1497582136511L275.2734375,256.6185667755507L276.5390625,256.9284362817597L276.85546875,245.5171524646862L278.4375,238.79632160999577L278.75390625,248.42675641798184L280.65234375,249.92458678154478L281.28515625,252.04783009366676L282.8671875,256.48506034012377L284.1328125,244.36789272206153L287.61328125,254.27692136301818L287.9296875,248.27454748596324L288.24609375,244.78843907975306L288.5625,254.28756931513828L288.87890625,256.3304308783208L289.1953125,255.94421880031655L290.14453125,250.7275742970939L290.4609375,250.02070568253703L290.77734375,263.062769001654L295.20703125,258.8433125987606L295.5234375,256.0491379829332L296.15625,269.4478188282075L296.47265625,266.342672862824L296.7890625,266.9347462836731L297.421875,266.89751677246824L298.0546875,270.5922910014797L298.6875,271.05508118770615L299.3203125,261.63853156149634L300.5859375,277.3854078384935L301.21875,272.6657492376797L302.16796875,271.3970812766186L302.484375,271.69610649935197L304.3828125,281.8666238665178L305.015625,277.7280853051373L306.28125,280.5271972257192L307.23046875,291.3649508316603L307.86328125,281.1769520022267L311.34375,274.64291635303533L311.66015625,272.7641110672556L312.609375,268.7157244277292L313.2421875,269.18878570919634L313.55859375,269.0311925187583L314.5078125,266.2455840229296L315.140625,266.85866921650654L316.72265624999994,262.0723739173651L317.0390625,257.3502889043313L318.62109374999994,267.49445122306764L320.203125,262.4250174447222L320.51953124999994,253.46827769997762L321.15234374999994,261.5000001940014L323.05078124999994,267.5615296064111L323.3671875,266.2166599797993L324.31640625,262.5512791814951L324.94921875,273.25307536835294L325.265625,276.1722671929316L326.53125,276.21213858641215L327.796875,274.07408154808445L328.74609375,273.26663770095007L329.37890625,265.9770259172956L329.6953125,263.4214765387786L330.01171875,260.32891844537767L331.59375,267.56705968462154L332.2265625,278.09830638871307L333.4921875,262.8312363384967L334.44140625,271.9188168372186L335.07421875,263.8577888410634L337.2890625,261.27482517110457L338.23828125,266.54845677826114L339.8203125,264.77018529956587L340.13671875,264.37589446625134L341.40234375,264.89876729405773L342.66796875,262.924836728386L345.19921875,265.90745504742097L345.83203125,258.38146193685986L346.46484375,258.0203267143019L346.78125,263.70966016904543L347.4140625,282.2194855451151L348.36328125,286.36123570392937L350.89453125,281.62798020463043L352.47656250000006,273.0800869246324L353.10937500000006,257.87020564041245L354.05859375,253.03322128049487L354.37500000000006,256.4060913956478L355.00781250000006,271.74055875035526L355.64062500000006,260.91913483642134L355.95703125,269.6384008374391L356.58984375,265.5608306188839L356.90624999999994,259.26260145525487L357.53906249999994,267.6446440943851L357.85546875,272.84348412805434L358.17187499999994,270.0860808021257L359.75390625,273.0971940068316L361.01953125,274.903941324156L361.65234375,271.27339356382794L365.44921875,264.04672008376866L366.08203125,259.5922431080553L367.98046875,247.01496343780244L368.296875,251.21744488583244L369.5625,256.23570741319935L370.51171875,261.11912560740564L371.4609375,257.9027662114946L371.77734375,249.10472220727243L372.41015625,243.67677530995087L372.7265625,248.71792721948657L373.04296875,241.21802431599772L373.67578125,265.56408003299424L375.57421875,270.28647113007145L380.63671875,268.76671050946067L380.953125,258.6051825918844L381.26953125,259.43658209464274L381.5859375,259.31670708018345L382.53515625,272.8410407792605L385.06640625,259.9258487857908L385.3828125,257.6765959431921L388.23046875000006,243.50831119930788L389.49609375000006,255.5859131870394L389.8125,269.20552551053237L390.4453125,258.7102006493052L390.76171875000006,268.0165520812288L391.7109375,260.1172088750854L392.02734375000006,256.46828893978636L392.9765625,259.7738711475374L393.609375,258.87232195481766L395.5078125,274.57040898435866L397.40625,270.1676039654199L398.35546874999994,259.3007138523699L398.98828124999994,272.3531698369388L400.25390624999994,269.94219676883307L401.51953124999994,267.4140164972783L401.8359375,254.27470601560196L405.94921875,255.69851332934348L406.58203125,263.4785399242566L407.84765625,263.1914242275998L408.48046875,269.1332707683862L409.4296875,268.08773070848196L410.0625,279.9201142451939L410.37890625,281.1034314396939L411.328125,283.9556645379162L411.64453125,269.2644652677436L413.2265625,268.58610585734203L413.54296875,267.26665022233095L414.17578125,260.51740920174234L414.4921875,253.77560555075476L416.70703125,257.4302562664405L417.0234375,248.28084443426923L417.65625,255.79607406145286L419.87109375,242.28556932067733L420.50390625,245.31395412534587L420.8203125,249.1461171270402L421.13671875,271.42643884222997L423.3515625,265.1852903331897L424.30078125,251.90900377652727L425.25,254.98606190102035L426.515625,254.76573623714353L427.46484375,265.02877021833143L428.41406250000006,274.9624503441819L429.99609375,279.35201753000524L430.94531250000006,272.5529878318383L431.57812500000006,277.6765336516917L432.21093750000006,269.2382510391851L432.52734375,270.47295754281083L435.69140625,271.0532408443395L436.00781249999994,271.87125993264794L436.95703125,271.1670730161778L438.22265625,271.6548044373959L439.48828125,259.4714657006015L440.12109375,242.335866989564L440.75390625,244.454660415316L441.38671875,246.07356036736215L442.33593749999994,253.70495328379806L443.28515625,255.7894290114657L443.6015625,262.59606676315116L443.91796875,264.0056697654893L444.55078125,255.68550102761094L446.1328125,262.8191184476002L446.765625,264.60404239163375L447.3984375,254.94919400922856L449.61328125,257.64788153359365L450.87890625,262.42725603099984L451.51171875,260.79474232349736L453.7265625,267.7928141962483L454.04296875,266.6424178850447L454.359375,275.6718036771125L456.2578125,269.25940994011347L457.20703125,252.12438673225157L460.37109375,259.96562942559024L461.00390625,260.8198591384887L461.63671875,259.3360481803907L462.26953125,260.1265546583806L463.8515625,257.73263575814997L464.484375,264.1459760324372L464.80078125,263.46468729085467L465.1171875,270.06876779430854L465.43359375,264.8930161069632L465.75,264.56044832607006L467.015625,263.6836408955098L467.96484375000006,273.32222528679347L469.546875,284.7214951039428L469.86328125000006,281.73010209772974L470.1796875,267.72744218598626L471.4453125,278.37408951702383L473.66015625000006,279.88425979112844L474.92578124999994,272.26812179384075L475.2421875,268.10911119843814L475.55859374999994,256.8223337304621L476.5078125,263.0099779351976L477.140625,269.48051209283875L477.7734375,274.3082088888304L478.08984374999994,260.99203438666797L478.72265624999994,263.3164225619601L480.9375,270.504327880367L481.25390624999994,272.07195499114385L482.203125,257.08233888450883L482.51953125,258.13238146622575L483.15234375,257.221953631968L483.46875,266.57784580969206L484.41796875,258.4808759662429L485.05078125,255.0131552093969L486.6328125,266.89007808504556L488.84765625,269.4433787508562L490.11328125,268.58653034650325L490.4296875,260.839313169345L490.74609375,268.5577378544863L493.91015625,263.7473874792475L494.54296875,270.65206238356654L495.4921875,256.1412578565651L497.70703125,271.0024759695274L498.33984375,271.7940679292268L498.65625,278.1757629496386L498.97265625,278.5009056655748L500.23828125,267.8875398874452L500.87109375,238.7094018649431L502.453125,246.1426095337036L503.71875,268.3346676383893L504.03515625,271.75264955997574L504.984375,275.86711604113134L507.19921875,257.4179055091181L507.51562500000006,252.93749192115672L507.83203125,255.0271281727352L510.04687500000006,264.2849524879418L511.31250000000006,273.1358769176493L512.89453125,270.20317865988926L513.52734375,279.223762583661L514.79296875,267.23870685619875L515.7421875,267.4196214837632L519.5390625,278.14396812735794L520.171875,276.3995976748312L521.12109375,276.4114907328563L521.4375,275.67046968848933L521.75390625,273.1858741176597L522.0703125,268.71120479261594L522.703125,261.79002006205934L523.3359375,256.9202100068116L523.65234375,268.8771462602163L524.6015625,274.7854568557041L524.91796875,267.50003207027015L526.81640625,270.310844209114L528.08203125,266.11599389521416L529.6640625,261.7330181896781L529.98046875,256.3136946649126L530.296875,258.4470365331732L531.5625,263.6216644442192L532.51171875,259.17444081302403L534.09375,256.5665045440318L535.04296875,245.76474127975425L536.625,262.95917918828803L536.94140625,259.6214446974597L537.890625,264.59333401731857L539.15625,246.1351991011918L540.421875,257.0956703021994L542.00390625,266.9024597219628L543.5859375,261.4827498072957L544.21875,262.83721771210196L545.16796875,264.05667386038454L545.484375,271.06126863911624L548.33203125,273.744382659956L551.49609375,272.5355856455481L552.4453125,280.318190534403L554.34375,272.8288365933556L556.2421875,273.7593604817883L557.5078125,264.52416826693945L557.82421875,267.2694450224967L558.140625,269.37865116359717L558.7734375,277.90970210161925L560.98828125,284.18505236714L561.3046875,277.0047933141539L562.5703125,273.5858982999576L564.46875,268.02546299522203L565.734375,271.0421005667319L566.68359375,262.16190441711854L567.94921875,254.2748825770859L574.27734375,273.7347781367822L575.54296875,259.87260902850903L578.70703125,264.51857823191125L580.2890625,261.62357826311404L580.921875,260.3371286701922L581.23828125,274.6531837432094L581.5546875,263.3064822835721L581.87109375,257.72467131823515L584.40234375,266.07466777175057L585.03515625,269.7520058453054L586.30078125,277.2450190088459L586.93359375,281.6302795351688L587.25,264.96432557982405L587.8828125,256.12303072055664L588.19921875,258.8246730471266L591.99609375,266.2706780813788L592.3125,264.1079652348443L592.9453125,264.55135804353876L595.16015625,254.35012158720698L596.42578125,256.006760122338L597.375,257.8453154177189L598.640625,245.34688545122413L599.90625,263.014256522588L600.22265625,269.2961288987478L601.171875,272.4774669505755L603.38671875,278.0532197055584L603.703125,269.6717946795703L604.01953125,262.92297572786845L604.65234375,258.04694294443505L605.6015625,270.63907424477367L609.3984375,271.6981735194292L611.296875,270.64992730617166L612.24609375,281.6973244682678L612.5625,280.61336386058144L613.51171875,266.66858955483553L615.7265625,273.72555770220856L616.67578125,271.11879455811106L616.9921875,269.80282481383557L620.15625,248.54067862937032L621.10546875,244.14824520146905L621.421875,247.2531961472348L622.0546875,251.7688431317113L623.00390625,252.64361933398607L623.3203125,251.6507117904107L623.63671875,253.22482859786803L624.5859375,254.29830863753975L625.8515625,259.5388367474312L627.43359375,255.19486859396298L630.59765625,263.15224198397885L630.9140625,265.5839739413592L631.23046875,276.9305563176026L632.49609375,274.80599488674034L632.8125,281.72068065193105L633.12890625,286.3075970206569L635.66015625,280.0532824929825L640.72265625,278.80602422973175L641.98828125,282.29087609699L643.25390625,276.9465959483299L643.88671875,277.41969297169493L644.8359374999999,260.4361488490605L645.15234375,256.21033196095016L646.734375,264.6573991499021L647.05078125,264.43321312727517L648.31640625,270.5699558648678L649.265625,264.45047173656724L649.8984375,271.0061520570525L651.796875,267.40792748545107L653.0625,266.4933993264485L654.328125,268.3663209265401L655.59375,262.01699606264833L656.54296875,260.7589784096785L657.17578125,259.2795182665035L659.0742187500001,255.9263703429705L659.390625,267.2197085444976L659.70703125,271.31377042493716L660.0234375,265.3157556953766L661.6054687500001,267.0522733214466L661.921875,269.3390497991012L662.23828125,266.2679516870477L664.453125,276.32433060024056L665.0859375,275.94350935387683L666.03515625,274.6349759589023L666.6679687500001,282.2849365779899L666.984375,272.7709699385092L667.30078125,277.06592490654845L667.6171875,272.1675543344021L669.515625,261.55743400869994L670.78125,262.099200421132L671.09765625,266.94907310957996L671.7304687500001,258.109324761265L673.3125,261.59061913582894L675.84375,263.034639026591L676.16015625,255.75804523798865L677.42578125,267.6076552767715L678.0585937499999,260.27415301041583L679.640625,260.6280331358829L680.5898437499999,270.37385320809096L680.90625,274.79129063209086L684.3867187499999,265.9877748163492L687.55078125,247.32419769804318L688.18359375,250.54201884544125L689.1328125,245.72545546156968L690.3984375,252.54150831093835L690.71484375,265.9951786301556L691.03125,271.6125058921775L691.98046875,258.6920774900028L692.9296875,253.30430355912532L694.1953125,271.58821331032556L695.4609375,272.22298414629194L696.0304687500001,271.27573555685893L701.1562500000001,272.10164459999544L702.4218750000001,266.1213317178647L703.37109375,276.5897367114736L703.6875000000001,271.82072730187446L704.3203125,273.149612085269L704.63671875,274.2606972323962L705.26953125,262.0335624192703L706.53515625,253.81950878863574L707.16796875,263.0103069766278L710.0156250000001,268.081039573637L711.2812500000001,275.3466849491208L714.12890625,275.3129481474335L715.7109375,275.8361997328089L716.02734375,276.58198799876857L716.3437499999999,269.26964135514686L718.55859375,274.46460414792665L720.45703125,286.78154354655123L721.4062499999999,270.4774810529009L722.35546875,280.90888818029316L722.98828125,272.79525826473076L725.2031249999999,279.9682494469931L726.4687499999999,278.15800832661597L727.41796875,279.7882997638157L729.31640625,280.901478553207L729.6328125,277.1446644717682L729.94921875,266.9774348012758L730.8984375,270.8464514880667L732.48046875,277.61771869123004L734.37890625,267.0253339917263L734.6953125,257.7582443499721L737.859375,254.3172451274512L738.1757812500001,252.8247125141543L739.4414062500001,260.8567483547337L739.7578125,255.75977920552774L740.07421875,261.29992767089664L741.0234375,273.75999553387305L741.65625,272.11443341008646L742.60546875,266.83996485046396L743.5546875,272.93320478940024L744.5039062500001,268.11137116658495L745.7695312500001,261.4932794092148L746.0859375,249.84970821365107L746.71875,241.15663424070954L747.0351562500001,261.4839527454658L747.66796875,256.376151406765L747.984375,266.77260735828446L751.1484375,268.7395062090359L751.78125,262.1787668232783L752.4140625,265.21649130623206L754.3125,274.08965108673164L754.6289062499999,268.4089123967125L755.578125,273.26343517750064L763.8046875,273.69945047422823L765.0703125,279.81237018402106L766.65234375,280.72799027345957L767.28515625,275.6636773160527L768.234375,271.4003393752226L769.5,274.9977109668027L769.81640625,272.7309683579222L771.08203125,267.0473610439299L772.03125,259.15434167664296L773.296875,274.5732823881927L775.51171875,274.83896363626013L775.828125,269.0769229371004L776.14453125,269.38596131964135L779.625,277.15421838865586L779.94140625,262.20475473285L780.57421875,264.8364965439072L781.83984375,269.05525059555885L783.421875,250.83304262418125L785.63671875,265.2729129876858L785.953125,263.2653504026374L786.5859375000001,264.17740929858195L787.21875,262.7252641252985L788.484375,262.7468274883981L789.1171875000001,269.8441257394753L789.43359375,269.97454868221L790.06640625,261.50571880253983L791.015625,268.9536139606951L791.6484374999999,265.1846793014706L792.9140624999999,266.7297936643134L793.23046875,269.20419508994866L794.49609375,277.9853199824848L794.8125,258.2623636854778L796.078125,277.89972920895184L796.39453125,278.46776578186837L797.34375,270.9868000188698L797.66015625,272.24029640148444L798.609375,272.4631903006165L801.45703125,260.8501251488132L802.40625,258.74427065157766L805.5703124999999,264.0753559430709L808.734375,257.5654350945565L809.68359375,256.6890958682228L811.8984375,272.98166517159507L814.11328125,279.5900587484618L817.59375,278.5020846645837L818.2265625,272.8705841596507L819.8085937500001,274.58405078353167L821.390625,277.3920606916219L822.0234375,276.84413677434117L822.65625,264.80675315279075L824.5546875,273.69574713963686L825.1875,282.5225164472597L825.50390625,276.37476384411156L826.1367187500001,259.5210266197976L826.453125,257.6924036512429L828.3515625,256.5932726447771L829.6171875,244.8943443260449L833.09765625,249.6909426715931L834.046875,254.37193402411498L834.9960937499999,262.31189983876374L835.62890625,263.78444789684806L839.7421875,290.0943164271223L841.95703125,277.58613010772865L842.90625,286.63193505539493L845.75390625,277.3169287125468L847.01953125,262.11675217786296L847.3359375,262.04472336100696L850.81640625,264.33489394255145L853.34765625,258.8411438926058L854.9296875,258.30592409962634L855.24609375,253.75496018382174L856.8281250000001,249.28094395830527L858.41015625,256.2360870191545L859.3593750000001,260.0325107269959L860.94140625,260.12916261032143L863.47265625,266.895150454269L864.4218750000001,262.6332558196086L866.00390625,267.1883031167651L866.63671875,267.5344701784999L866.9531250000001,271.0530361155988L867.26953125,262.64640694526173L867.90234375,260.7511776527915L869.80078125,267.1495789875577L871.3828125,268.120614600137L872.0156249999999,269.1326603312152L875.8124999999999,260.4655152618682L876.4453125,260.34904278784506L878.02734375,278.4948520709291L879.92578125,295.1854681994314L881.5078125,285.1827606215638L882.1406249999999,270.3990972270543L882.7734375,275.09123597301135L883.08984375,274.5833964879372L884.0390625,261.4287564573562L884.35546875,282.9883143988104L888.46875,274.8879909089503L889.41796875,268.59582150241215L893.53125,257.39536791780887L894.48046875,268.814563069732L895.74609375,268.9098270288722L896.0625,269.6263091117535L897.01171875,276.72747357241843L897.6445312500001,265.20856135921935L897.9609375,266.0721120314776L901.7578125,268.04692299607626L904.2890625,260.7288197988607L904.921875,275.4711862299987L905.2382812500001,252.66972744583842L906.5039062500001,253.5404434575938L907.7695312500001,259.3514845051887L908.40234375,266.5096510729506L909.0351562500001,269.4571638365921L911.25,278.3638617006362L911.5664062499999,283.4531670123913L912.8320312499999,268.2676307322446L914.0976562499999,260.91234529685084L915.6796875,255.90184175738105L916.3125,244.8608397597466L917.26171875,231.42241143614137L917.8945312499999,238.79377420802624L918.2109375,245.3813642944038L918.84375,244.2772486395487L919.4765625,249.990078173385L920.4257812499999,247.16170579596843L921.6914062499999,241.5310360169187L922.0078125,256.7304944723531L922.32421875,256.44813037904527L922.9570312499999,256.5500626122071L923.58984375,246.9251428423358L925.171875,256.98243889381547L925.8046875,258.6298327186143L926.12109375,265.1453793669088L928.3359375,268.0439401794739L928.96875,268.8258615910593L929.91796875,284.0833338948852L936.87890625,282.857763427194L937.1953125000001,270.74582455988735L937.828125,266.42852805234287L940.04296875,260.8953943908349L940.67578125,260.3499230171347L940.9921875000001,256.97947767408607L942.57421875,261.15552694336924L942.890625,260.2217741219406L943.20703125,255.14051873578904L944.15625,259.43072903827164L944.47265625,265.8020756550951L945.421875,274.2513159353766L947.3203125000001,267.0598100261312L947.63671875,269.355485144218L948.26953125,287.66699691236795L948.90234375,281.7875013843719L949.53515625,276.9721169541239L949.8515624999999,285.59279780859407L953.33203125,269.9026948193223L953.6484374999999,261.7250136056479L953.96484375,253.62086372985738L956.49609375,262.38480656638393L956.8125,272.2905142435852L958.39453125,266.8613345945763L958.7109374999999,269.0177979786985L959.02734375,273.72375691561626L959.34375,261.68737606809185L959.9765624999999,255.35397090872578L960.29296875,254.58377523156793L960.609375,261.035030071242L961.55859375,264.76301369957184L965.0390625,266.72068129794275L966.9375,268.5770566648511L967.5703125,277.416941759859L970.1015625,281.36117972335205L970.41796875,280.0721054928661L970.734375,279.4441973854516L971.3671875,282.549212038689L973.58203125,266.2225224621683L974.53125,244.32496063679494L975.1640625,253.30073814012903L976.11328125,258.4040837946521L976.7460937500001,257.1106396610036L977.37890625,248.15931241734341L980.2265625,250.71003743580096L981.4921875,247.79874570342267L982.125,253.18251813232604L982.7578125,280.7044161619057L983.390625,283.7698371054075L983.70703125,279.6144084650212L984.97265625,271.1088491034723L985.2890625,275.42464803491157L985.6054687500001,275.86949026346457L987.1875,284.2487947433172L987.50390625,269.68574330984694L988.76953125,277.05018957263957L989.0859375,274.3970352822002L990.3515625,277.73331192053604L991.9335937499999,277.5509105477873L992.25,269.78250953609347L992.56640625,265.83719129438646L992.8828125,258.57213550244205L993.515625,266.47695898712465L993.83203125,266.3003572673508L996.36328125,268.89535864997777L996.6796875,279.18160757665L996.9960937499999,275.8690771670727L998.578125,272.4961420299004L998.89453125,272.29336027802646L1000.16015625,266.65087907431604L1001.109375,269.20415546721205L1002.0585937499999,268.72404280999535L1002.69140625,279.64519821952024L1003.3242187499999,272.0221415935573L1003.95703125,256.9669654168265L1004.2734375,261.8664499064381L1004.58984375,267.14113292900305L1006.171875,267.3044007564407L1006.48828125,272.7652996501829L1010.28515625,285.98317606715494L1010.91796875,283.1800353085268L1013.1328125,264.29080664020137L1015.0312500000001,265.6823678212955L1015.34765625,273.5870550746735L1018.8281250000001,266.35939227059725L1019.14453125,264.4912833035594L1021.9921875,269.2797207865715L1022.6250000000001,259.87845454204216L1023.2578125,269.3608802662931L1024.20703125,259.81605586733656L1024.83984375,261.8345155388839L1025.15625,259.04366809175L1026.10546875,252.02003934850293L1027.37109375,248.32642176138415L1027.6875,243.74981110747615L1029.26953125,243.02167127857274L1029.90234375,257.8534107909231L1030.53515625,255.69583344671796L1030.8515625,255.21332584067306L1032.1171875,253.11781864766678L1032.75,270.88175991829297L1033.69921875,271.22503568670993L1036.23046875,271.5175907424743L1036.86328125,266.95622123213417L1037.1796875,270.3939189465139L1037.8125,281.95152485913206L1039.39453125,274.85281180792975L1040.02734375,273.3331708473143L1040.66015625,266.98491079537536L1041.29296875,265.5152513279679L1043.82421875,268.2583082085399L1046.35546875,269.9870029976116L1046.671875,262.35200139359284L1047.3046875,276.16405735939617L1047.62109375,264.7671063210367L1048.5703125,264.12952619035354L1049.203125,269.8196936232675L1049.51953125,271.41733449890586L1050.46875,269.6911148978977L1052.3671875,273.17207803549974L1053.6328125,267.3091733921973L1053.94921875,269.5969104398135L1058.37890625,262.7817701818953L1059.328125,247.19605751527774L1060.27734375,243.29839113867112L1061.2265625,264.58862531981043L1062.4921875,260.5582382358543L1063.44140625,271.3069215118529L1063.7578125,264.10330284046387L1064.07421875,260.8286838054074L1065.97265625,269.38407926639667L1067.5546875,271.7049023295283L1067.87109375,275.120633151872L1068.1875,279.66058880563935L1069.453125,283.9103551007381L1070.0859375,282.1214899611974L1070.40234375,279.53726801248285L1072.30078125,279.98763603211904L1073.25,280.96344921888453L1073.8828125,258.23188495812514L1074.19921875,259.5533018836594L1074.83203125,269.5781600076921L1075.1484375,259.62282741030447L1075.71796875,257.0272499491282L1076.4140625,263.11905288853256L1077.36328125,265.8039012336782L1079.89453125,265.2424525581775L1080.2109375,262.932250681606L1081.79296875,270.4265672439387L1083.05859375,269.39203247048727L1083.375,279.642540131498L1084.95703125,276.8016952863989L1088.75390625,280.04036926362807L1089.0703125,276.35424725700767L1089.38671875,272.6754151733003L1089.703125,267.126813511172L1090.01953125,274.67920369451986L1092.8671875,263.4105767647372L1095.08203125,275.69771122348175L1096.03125,272.89805235608L1097.61328125,276.81033858553553L1098.5625,274.0706125886982L1100.14453125,269.39634070532543L1100.4609375,275.49200892054444L1100.77734375,261.69139356788594L1101.09375,263.6429076449374L1102.67578125,267.6666500480469L1103.94140625,252.1481953397196L1104.57421875,259.0179175994826L1105.5234375,269.50244589632973L1106.7890625,271.51429858296126L1107.10546875,269.5775951419911L1107.421875,255.73163274148038L1108.0546875,264.36141726932914L1109.3203125,269.76406854897834L1109.63671875,266.4345632862657L1110.26953125,279.1798733063955L1110.5859375,284.55833438562587L1111.8515625,265.97595455353235L1112.16796875,270.4831492645628L1112.484375,276.03087169009495L1114.06640625,277.0655541917048L1114.69921875,272.8317596242071L1117.86328125,282.54305210517316L1118.1796875,284.8208382564387L1119.4453125,280.544996005617L1120.078125,273.20822336488186L1121.66015625,268.0228166133617L1122.29296875,278.178073624259L1123.2421875,268.1223539522301L1123.875,287.91433488558886L1127.0390625,273.97193201707296L1127.98828125,270.10238762130876L1128.9375,264.3194555685558L1130.51953125,270.67457761295947L1131.46875,272.1899087617531L1133.3671875,283.5632211370721L1134.31640625,285.3792524947804L1134.94921875,274.73588424809384L1136.53125,277.0136813240309L1137.1640625,277.1903684611066L1138.4296875,275.6823025522181L1138.74609375,281.84535189935224L1141.27734375,268.14669732345357L1142.54296875,270.40587294924165L1142.859375,272.6502853957028L1143.80859375,270.8022469144694L1144.44140625,268.7380327176751L1145.07421875,266.9842277034016L1146.65625,263.2497174626269L1147.921875,272.38475799918245L1149.1875,269.72805170609547L1150.453125,273.41359637766027L1151.0859375,260.7501371236124L1152.984375,247.99618538505027L1153.93359375,247.21291406252942L1156.78125,252.30143246078512L1157.4140625,275.4184923140045L1158.046875,279.1442743299185L1158.99609375,286.82710364167514L1159.9453125,282.83560765738025L1160.89453125,287.3446925742937L1161.2109375,287.86345932865953L1162.79296875,292.6044006001486L1165.32421875,286.8454019191115L1167.22265625,253.9429211176258L1168.171875,247.45615197934234L1168.48828125,249.17769668571023L1171.01953125,259.7818584306769L1173.55078125,265.60437742094655L1176.3984375,266.20100484557685L1177.6640625,258.72995113633385L1179.87890625,262.4469280548319L1181.77734375,269.01190178390885L1182.41015625,267.9018639764167L1183.359375,267.7539681350336L1183.9921875,271.3750385881463L1185.890625,281.22124222816444L1186.5234375,266.3222191681625L1186.83984375,262.0507485036605L1188.73828125,266.21125035224827L1189.37109375,277.0172395374649L1189.6875,274.7815281662789L1190.00390625,288.0475213876702L1191.26953125,282.0249473364235L1191.5859375,279.47068417807225L1191.90234375,284.0327637436785L1192.53515625,281.77831215899954L1193.484375,280.2151950119961L1194.1171875,274.2444174274279L1195.69921875,282.0819095389324L1196.015625,282.4198877660293L1196.96484375,288.5565609834322L1198.546875,286.8461700699552L1198.86328125,273.1235325644584L1199.49609375,269.09895472528274L1199.8125,255.94487617314365L1201.39453125,263.0535146861321L1202.02734375,256.5309741480516L1202.9765625,252.53402836797943L1203.29296875,249.513580360365L1203.609375,252.78790466765267L1204.55859375,266.3213985350349L1205.5078125,285.65999213284044L1206.45703125,287.72328698814397L1207.72265625,293.40155133256246L1208.98828125,282.15657602293027L1209.62109375,263.65028435039886L1211.203125,249.18788195840366L1211.51953125,268.1685219922458L1212.15234375,277.77962960310686L1213.1015625,276.2437188551922L1214.05078125,273.18633870108386" style="fill: none;" fill="none"></path></g></g></g></g><g opacity="0.2"><g><g><g><path stroke="rgb(255, 112, 67)" stroke-width="2px" d="M127.82812500000001,20.126269253817487L130.9921875,164.19579245827416L131.30859375,137.32202911376953L132.2578125,170.19812150435015L132.57421875,151.5074823552912L132.890625,143.7276971990412L133.5234375,182.90005770596593L134.7890625,121.20871110395953L135.10546875,168.68728707053444L139.21875,183.41964236172765L141.43359375,257.45061111450195L141.75,215.91971310702235L142.06640625,190.19448644464669L142.69921875,202.84856830943716L143.6484375,214.6960046941584L145.546875,212.13920419866386L145.86328125,213.90298531272194L146.1796875,219.78225569291547L146.49609375,197.20856961337L147.4453125,235.92290739579633L147.76171875,237.22182013771751L148.078125,234.6376696499911L148.7109375,235.1572380065918L149.02734375,235.44436402754351L150.92578125,258.339339169589L152.5078125,268.37512380426585L154.72265625,241.58341043645683L157.88671875,236.44247575239703L159.15234375,237.72086785056374L160.1015625,275.9634916132146L160.41796875,265.83199830488724L161.05078125,279.3953451676802L163.265625,270.41235594315964L164.84765625,233.25672323053536L166.11328125,253.3556424921209L166.4296875,247.51738080111414L167.0625,224.05498296564278L167.6953125,224.85483169555664L169.59375,221.88101716475055L169.91015625,223.80886563387782L172.125,245.1383226568049L172.7578125,284.66618416526103L173.07421875,226.84422579678625L174.0234375,239.94268798828125L176.23828125000003,263.41193147139114L177.18750000000003,257.0472720753063L177.82031250000003,262.67359577525747L178.45312499999997,252.38488075949928L180.35156249999997,316.60567786476827L180.66796874999997,267.0215273770419L180.98437499999997,275.3960689197887L182.56640625,296.1239239085804L184.78125,272.4564337296919L185.09765625,233.42763623324305L185.4140625,280.0516308871183L186.6796875,250.62108334628016L186.99609375,267.99228910966355L187.3125,229.52406865900215L189.52734375,279.2381071610884L190.4765625,239.78544998168945L190.79296875,249.1102489124645L191.109375,220.5752750743519L191.42578125,305.72901951182973L192.05859375,283.68174743652344L193.32421875,286.47097396850586L193.95703125,283.2852377458052L194.58984375,261.4088786732067L195.85546875,252.15926777232778L196.171875,244.35897827148438L196.48828125,274.8081418817693L197.4375,255.52276264537466L199.01953125,262.9060381109065L202.18359375,244.74865861372515L203.765625,253.32144685225055L204.08203125,281.45992729880595L204.3984375,251.37992338700727L208.1953125,249.79388462413442L208.51171875,267.7256674333052L208.828125,275.74472427368164L212.30859375,264.26648018576884L213.2578125,266.9121437072754L213.89062500000003,308.38835802945226L214.52343750000003,273.60493781349874L215.78906250000003,279.81235920299184L216.73828125000003,256.45251568880946L217.68749999999997,263.3709064830433L218.32031249999997,298.3389146978205L219.90234374999997,258.6196358420632L220.53515624999997,279.79185485839844L220.85156249999997,228.9566622647372L223.3828125,218.01847457885742L224.015625,266.2763623324308L225.28125,268.3477738120339L226.546875,273.898909482089L227.1796875,266.6318470348011L227.49609375,248.1258121837269L228.4453125,263.08378046209157L233.19140625,251.42777772383258L233.5078125,266.54298400878906L235.08984375,266.7275557084517L235.72265625,271.116512298584L236.0390625,268.5392074584961L237.9375,250.25876929543236L238.5703125,286.67606631192297L239.8359375,286.42996527931905L241.1015625,275.5054525895552L241.41796875,279.59359186345876L241.734375,276.0455252907493L242.05078125,221.3819694519043L242.3671875,316.5167985395952L242.68359375,258.92043685913086L246.1640625,242.71141017567027L248.6953125,257.6693784540349L249.9609375,220.62995875965464L250.59375,253.41032617742363L251.2265625,251.99520041725853L252.17578125,254.57935090498492L253.75781250000003,293.58079840920186L254.39062500000003,294.8113524697044L255.97265625000003,244.91957161643288L257.5546875,280.42763623324305L257.87109375,292.09731396761805L259.76953125,230.54953037608755L260.0859375,258.7973781932484L261.3515625,239.0471305847168L262.6171875,282.9707617326216L264.19921875,213.5338256142356L264.515625,270.6789776195179L264.83203125,247.7361481406472L265.46484375,291.92640096491033L266.73046875,277.1940293745561L267.046875,277.00945767489344L267.6796875,274.67825386740947L268.9453125,253.6017435247248L269.578125,215.57788710160688L270.84375,264.4647268815474L272.42578125,241.4671974182129L273.69140625,254.40159225463867L274.0078125,238.15840252962977L274.640625,283.21687906438655L275.2734375,251.5713407343084L276.5390625,257.5463197881526L276.85546875,222.7629158713601L278.4375,225.39490439675072L278.75390625,267.62995875965464L280.65234375,252.9112784645774L281.28515625,256.2816026861018L282.8671875,265.332950592041L284.1328125,220.20611537586558L287.61328125,274.0356431440874L287.9296875,236.30574209039864L288.24609375,237.83709716796875L288.5625,273.2289487665349L288.87890625,260.4039213007146L289.1953125,255.1741072914817L290.14453125,240.32552268288353L290.4609375,248.61120119961828L290.77734375,289.0687994523482L295.20703125,250.42966599897906L295.5234375,250.47752033580434L296.15625,296.16494889692825L296.47265625,260.1509746204723L296.7890625,268.115347775546L297.421875,266.8232806812633L298.0546875,277.95971506292165L298.6875,271.9778903614391L299.3203125,242.8618188337846L300.5859375,308.78486772017044L301.21875,263.25469346479935L302.16796875,268.86734216863454L302.484375,272.2923663746227L304.3828125,302.1467572992498L305.015625,269.47578985040843L306.28125,286.10865991765803L307.23046875,312.9755613153631L307.86328125,260.86196032437414L311.34375,261.61397101662374L311.66015625,269.0177508267489L312.609375,260.6431929848411L313.2421875,270.1320755698464L313.55859375,268.7169498096813L314.5078125,260.69104732166636L315.140625,268.0811684348366L316.72265624999994,252.52844376997515L317.0390625,247.93439483642578L318.62109374999994,287.72203237360173L320.203125,252.31650577891958L320.51953124999994,235.60843138261274L321.15234374999994,277.5153510353782L323.05078124999994,279.64829184792256L323.3671875,263.5349738381126L324.31640625,255.2424659729004L324.94921875,294.59258513017136L325.265625,281.9931706515226L326.53125,276.2916426225142L327.796875,269.8107702081853L328.74609375,271.65658499977803L329.37890625,251.4414527199485L329.6953125,258.3256804726341L330.01171875,254.16232057051226L331.59375,282L332.2265625,299.09773843938655L333.4921875,232.38851581920278L334.44140625,290.03956118496984L335.07421875,247.78400247747246L337.2890625,256.12436467951L338.23828125,277.0641413601962L339.8203125,261.22429067438304L340.13671875,263.5896738225764L341.40234375,265.9413819746538L342.66796875,258.9887955405495L345.19921875,271.85483169555664L345.83203125,243.3745415427468L346.46484375,257.3002187555486L346.78125,275.0542592135343L347.4140625,319.1282990195534L348.36328125,294.6199351224032L350.89453125,272.18981205333364L352.47656250000006,256.0354853543368L353.10937500000006,227.54152020541102L354.05859375,243.38821653886274L354.37500000000006,263.1316347989169L355.00781250000006,302.31767030195755L355.64062500000006,239.34108595414594L355.95703125,287.0247216658159L356.58984375,257.43010676990855L356.90624999999994,246.70385707508433L357.53906249999994,284.35853750055486L357.85546875,283.21003341674805L358.17187499999994,264.5877855474299L359.75390625,279.1013897982511L361.01953125,278.50661711259323L361.65234375,264.03403785011983L365.44921875,249.63664661754262L366.08203125,250.70996267145333L367.98046875,221.9357171492143L368.296875,259.59724322232336L369.5625,266.2421829917214L370.51171875,270.8567199707031L371.4609375,251.48930705677378L371.77734375,231.56131709705699L372.41015625,232.85338419133964L372.7265625,258.7700445001775L373.04296875,226.26312810724434L373.67578125,314.110406702215L375.57421875,279.7029755332253L380.63671875,265.7362896312367L380.953125,238.34297422929242L381.26953125,261.0944026600231L381.5859375,259.07767486572266L382.53515625,299.8087241432884L385.06640625,234.17280127785423L385.3828125,253.19155883789062L388.23046875000006,215.25658173994586L389.49609375000006,279.66879619251597L389.8125,296.36319559270686L390.4453125,237.782397183505L390.76171875000006,286.5735282897949L391.7109375,244.36582391912285L392.02734375000006,249.19229888916016L392.9765625,266.36524165760386L393.609375,257.0746220675382L395.5078125,305.87258252230555L397.40625,261.38835802945226L398.35546874999994,237.63200482455164L398.98828124999994,298.3799233870073L400.25390624999994,265.13468759710133L401.51953124999994,262.3727947581898L401.8359375,228.07476355812767L405.94921875,258.5376021645286L406.58203125,278.9920061284846L407.84765625,262.61891208995473L408.48046875,280.9813839305531L409.4296875,266.002911307595L410.0625,303.51402872258967L410.37890625,283.4629800969904L411.328125,289.6430514942516L411.64453125,239.97003798051313L413.2265625,267.2334490689364L413.54296875,264.63563988425517L414.17578125,247.05934177745473L414.4921875,240.33236833052203L416.70703125,264.71767356178975L417.0234375,230.03680766712534L417.65625,270.781531940807L419.87109375,215.34546106511894L420.50390625,251.3525896939364L420.8203125,256.78749604658645L421.13671875,315.85366717251867L423.3515625,252.7403654618697L424.30078125,225.43592938509852L425.25,261.121752652255L426.515625,254.32640422474253L427.46484375,285.49338288740677L428.41406250000006,294.77032748135656L429.99609375,288.104867068204L430.94531250000006,258.995641188188L431.57812500000006,287.89294537630946L432.21093750000006,252.4122144525701L432.52734375,272.9349770979448L435.69140625,272.2103326970881L436.00781249999994,273.50239979137075L436.95703125,269.76291587136006L438.22265625,272.6273467323997L439.48828125,235.1777423511852L440.12109375,208.16727794300425L440.75390625,248.6795598810369L441.38671875,249.30166625976562L442.33593749999994,268.92204215309835L443.28515625,259.9458985762163L443.6015625,276.1685839566317L443.91796875,266.81643503362477L444.55078125,239.0949849215421L446.1328125,277.0436370156028L446.765625,268.1632021123713L447.3984375,235.69731070778587L449.61328125,263.02909677678883L450.87890625,271.9573860168457L451.51171875,257.5394904396751L453.7265625,281.7470533197576L454.04296875,264.3485138633034L454.359375,293.6765070828524L456.2578125,256.47302003340286L457.20703125,217.95694524591622L460.37109375,275.60116126320577L461.00390625,262.52320341630417L461.63671875,256.3773113597523L462.26953125,261.70283404263586L463.8515625,252.9591328014027L464.484375,276.9342533458363L464.80078125,262.10618938099253L465.1171875,283.23738340897995L465.43359375,254.57250525734642L465.75,263.89730418812144L467.015625,261.9352763782848L467.96484375000006,292.5416779951616L469.546875,307.4517756375399L469.86328125000006,275.76522861827505L470.1796875,239.8059706254439L471.4453125,299.60363179987127L473.66015625000006,282.89555740356445L474.92578124999994,257.0814514160156L475.2421875,259.8159942626953L475.55859374999994,234.31636428833008L476.5078125,275.3482145829634L477.140625,282.38283469460225L477.7734375,283.9346941167658L478.08984374999994,234.43942295421255L478.72265624999994,267.9512804204768L480.9375,284.83709716796875L481.25390624999994,275.1978222240101L482.203125,227.19286485151812L482.51953125,260.2261789495295L483.15234375,255.40654962713066L483.46875,285.233606858687L484.41796875,242.33542112870649L485.05078125,248.09847849065605L486.6328125,290.5728045376864L488.84765625,274.5346908569336L490.11328125,266.87796436656606L490.4296875,245.39126933704722L490.74609375,283.9483691128817L493.91015625,254.1554912220348L494.54296875,284.4200668334961L495.4921875,227.20653984763405L497.70703125,300.6359228654341L498.33984375,273.37251177701086L498.65625,290.9009392478249L498.97265625,279.1492441350764L500.23828125,246.72436141967773L500.87109375,180.5278452092951L502.453125,260.9645146456632L503.71875,312.5858972722834L504.03515625,278.56814644553447L504.984375,284.07141147960317L507.19921875,220.62995875965464L507.51562500000006,244.003493569114L507.83203125,259.19388788396657L510.04687500000006,282.74516504461116L511.31250000000006,290.78472622958094L512.89453125,264.3553432117809L513.52734375,297.2109149586071L514.79296875,243.34036220203745L515.7421875,267.780367417769L519.5390625,299.5284437699751L520.171875,272.9213021018288L521.12109375,276.43520563299L521.4375,274.1928648515181L521.75390625,268.2315607937899L522.0703125,259.7886605696245L522.703125,247.98909482088953L523.3359375,247.20975043556908L523.65234375,292.7194203463468L524.6015625,286.5666989413175L524.91796875,252.97280779751867L526.81640625,275.91563727638936L528.08203125,257.7514121315696L529.6640625,252.99331214211205L529.98046875,245.50749865445226L530.296875,262.7009457674894L531.5625,273.9399344704368L532.51171875,250.3066236322576L534.09375,251.36624839089134L535.04296875,224.22589596835047L536.625,297.2450942993164L536.94140625,252.96596214988014L537.890625,274.5073408647017L539.15625,209.32945702292702L540.421875,278.9509811401367L542.00390625,286.45731527155095L543.5859375,250.67578333074394L544.21875,265.5380429354581L545.16796875,266.4882840243253L545.484375,285.0285145152699L548.33203125,279.0945441506126L551.49609375,270.1252299222079L552.4453125,295.83679788762873L554.34375,257.89497514204544L556.2421875,275.61483625932175L557.5078125,246.1090843894265L557.82421875,272.74355975064367L558.140625,273.5844334689054L558.7734375,294.92071984030986L560.98828125,296.69817595048386L561.3046875,262.6872707713734L562.5703125,266.7685806967995L564.46875,256.93788840553975L565.734375,277.05731201171875L566.68359375,244.45468694513497L567.94921875,238.54806657270953L574.27734375,312.5380429354581L575.54296875,232.23127781261098L578.70703125,273.782696463845L580.2890625,255.85091365467417L580.921875,257.771932775324L581.23828125,303.1995690085671L581.5546875,240.68102368441492L581.87109375,246.5944734053178L584.40234375,282.72466070001775L585.03515625,277.08466200395065L586.30078125,292.18617699363017L586.93359375,290.3745415427468L587.25,231.73221380060372L587.8828125,238.4933828874068L588.19921875,264.21178020130503L591.99609375,281.1181012933904L592.3125,259.7954899181019L592.9453125,265.43548861416906L595.16015625,234.00873392278496L596.42578125,259.3101172013716L597.375,261.5114166953347L598.640625,220.42486641623756L599.90625,298.2432060241699L600.22265625,281.8222576488148L601.171875,278.8210931257768L603.38671875,289.1713374744762L603.703125,252.9591328014027L604.01953125,249.4657499139959L604.65234375,248.32407517866656L605.6015625,295.74793486161667L609.3984375,273.8100301569158L611.296875,268.5597118030895L612.24609375,303.7259667136452L612.5625,278.4519334272905L613.51171875,238.86254258589312L615.7265625,287.7972367026589L616.67578125,265.9208776300603L616.9921875,267.1787653836337L620.15625,206.14370450106532L621.10546875,235.38968034224078L621.421875,253.444505518133L622.0546875,260.773097298362L623.00390625,254.3879335576838L623.3203125,249.67084225741297L623.63671875,256.3636363636364L624.5859375,256.4388406926936L625.8515625,269.9885125593706L627.43359375,246.5329440723766L630.59765625,279.0193398215554L630.9140625,270.43287658691406L631.23046875,299.555777463046L632.49609375,270.56959394975144L632.8125,295.5086468783292L633.12890625,295.4539631930265L635.66015625,267.5821044228294L640.72265625,276.3189763155851L641.98828125,289.23971245505595L643.25390625,266.29003732854665L643.88671875,278.3630541021174L644.8359374999999,226.5707584727894L645.15234375,247.78400247747246L646.734375,281.5009522871538L647.05078125,263.9861835132946L648.31640625,282.8066943775524L649.265625,252.24814709750086L649.8984375,284.07825712724167L651.796875,260.23302459716797L653.0625,264.6698192249645L654.328125,272.1009490273216L655.59375,249.35636624422938L656.54296875,258.25047614357686L657.17578125,256.32945702292704L659.0742187500001,249.24015322598547L659.390625,289.73876016790217L659.70703125,279.47737884521484L660.0234375,253.3556424921209L661.6054687500001,270.5149102644487L661.921875,273.898909482089L662.23828125,260.14414527199483L664.453125,296.3768705888228L665.0859375,275.1841472278942L666.03515625,272.02574469826436L666.6679687500001,297.5390496687456L666.984375,253.8000065196644L667.30078125,285.63011654940516L667.6171875,262.40014475042165L669.515625,240.4007270119407L670.78125,263.1794891357422L671.09765625,276.6197773326527L671.7304687500001,240.48276068947533L673.3125,268.53236181085765L675.84375,265.9140319824219L676.16015625,241.2484300786799L677.42578125,291.2359196056019L678.0585937499999,245.65106166492808L679.640625,261.33367434414953L680.5898437499999,289.8071351484819L680.90625,283.5997137589888L684.3867187499999,248.43345884843305L687.55078125,210.1088014082475L688.18359375,256.95839275013316L689.1328125,236.12117039073598L690.3984375,266.13279932195485L690.71484375,292.8219583684748L691.03125,282.8135237260298L691.98046875,232.92858852039683L692.9296875,242.561017816717L694.1953125,308.0465483231978L695.4609375,273.48872479525477L696.0304687500001,269.38691052523524L701.1562500000001,273.7485171231356L702.4218750000001,254.1965162103826L703.37109375,297.46386163884944L703.6875000000001,262.31126542524856L704.3203125,275.7994242581454L704.63671875,276.4762143221769L705.26953125,237.65250916914508L706.53515625,237.44058747725055L707.16796875,281.3368686329235L710.0156250000001,278.19214109940964L711.2812500000001,289.83446884155273L714.12890625,275.2456765608354L715.7109375,276.87956966053355L716.02734375,278.0690987326882L716.3437499999999,254.6887345747514L718.55859375,284.8234221718528L720.45703125,311.3416682156649L721.4062499999999,237.96698518232867L722.35546875,301.70923891934484L722.98828125,256.6165830438787L725.2031249999999,294.2712797685103L726.4687499999999,274.5483658530495L727.41796875,283.0391204140403L729.31640625,283.121170390736L729.6328125,269.6535322015935L729.94921875,246.70385707508433L730.8984375,278.561317097057L732.48046875,291.11970658735794L734.37890625,245.90399204600942L734.6953125,239.27955662120473L737.859375,247.45585146817297L738.1757812500001,249.8485846085982L739.4414062500001,276.87272401289505L739.7578125,245.5963616804643L740.07421875,272.34705005992544L741.0234375,298.60552007501775L741.65625,268.83316282792526L742.60546875,256.32261137528855L743.5546875,285.0831982005726L744.5039062500001,258.4965771761808L745.7695312500001,248.29672518643468L746.0859375,226.63228780573067L746.71875,223.8225406299938L747.0351562500001,302.01686928488994L747.66796875,246.19113436612218L747.984375,287.5032650340687L751.1484375,272.66152607310903L751.78125,249.09657391634852L752.4140625,271.2737503051758L754.3125,291.78283795443446L754.6289062499999,257.0814514160156L755.578125,282.94341174038976L763.8046875,274.5688701976429L765.0703125,292.0016052939675L766.65234375,282.55374769731003L767.28515625,265.56537662852895L768.234375,262.8991924632679L769.5,282.1709130027077L769.81640625,268.2110564491966L771.08203125,255.71417999267578L772.03125,243.4155665310946L773.296875,305.3188348249956L775.51171875,275.3687352267179L775.828125,257.58734477650034L776.14453125,270.00218755548656L779.625,292.6442160172896L779.94140625,232.39534516768023L780.57421875,270.08422123302114L781.83984375,277.46749669855296L783.421875,214.49774169921875L785.63671875,294.06618742509323L785.953125,259.2622465653853L786.5859375000001,265.9960656599565L787.21875,259.82966925881124L788.484375,262.78982509266245L789.1171875000001,283.99622344970703L789.43359375,270.2346135919744L790.06640625,244.61877059936523L791.015625,283.8048061024059L791.6484374999999,257.6693784540349L792.9140624999999,269.8107702081853L793.23046875,274.13818116621536L794.49609375,295.4949881813743L794.8125,218.93455262617633L796.078125,317.05687124078923L796.39453125,279.6004375110973L797.34375,256.0696646950462L797.66015625,274.7397832003507L798.609375,272.9076434048739L801.45703125,237.6935341574929L802.40625,254.5451715642756L805.5703124999999,274.7056038596413L808.734375,244.58457495949486L809.68359375,254.94166495583275L811.8984375,305.4692434831099L814.11328125,292.76727468317205L817.59375,276.33265131170094L818.2265625,261.6413047096946L819.8085937500001,278.0007237521085L821.390625,282.991266077215L822.0234375,275.7515699213201L822.65625,240.80406605113637L824.5546875,291.4205076044256L825.1875,300.12320015647197L825.50390625,264.1160715276545L826.1367187500001,225.91447275335136L826.453125,254.0461075522683L828.3515625,254.40159225463867L829.6171875,221.56654115156695L833.09765625,259.25541721690786L834.046875,263.7058868408203L834.9960937499999,278.14428676258433L835.62890625,266.72072635997426L839.7421875,342.556509364735L841.95703125,252.6446567882191L842.90625,304.669378454035L845.75390625,258.74269450794566L847.01953125,231.80741812966087L847.3359375,261.9010970375755L850.81640625,268.901521509344L853.34765625,247.88654049960047L854.9296875,257.2386894226074L855.24609375,244.6802836331454L856.8281250000001,240.3597020235929L858.41015625,270.10472557761454L859.3593750000001,267.60262506658376L860.94140625,260.32188762318003L863.47265625,280.3866112448952L864.4218750000001,254.1349868774414L866.00390625,276.27112197875977L866.63671875,268.2247314453125L866.9531250000001,278.0690987326882L867.26953125,245.88348770141602L867.90234375,256.97206774624914L869.80078125,279.90806787664235L871.3828125,270.0568712407893L872.0156249999999,271.1506916392933L875.8124999999999,243.18312419544566L876.4453125,260.116795279763L878.02734375,314.67781309647995L879.92578125,328.4667566472834L881.5078125,265.2372419183904L882.1406249999999,240.92029536854136L882.7734375,284.447416825728L883.08984375,273.5707584727894L884.0390625,235.19824669577858L884.35546875,325.9783311323686L888.46875,258.73584886030716L889.41796875,256.0491603504528L893.53125,235.0615293329412L894.48046875,291.58457495949483L895.74609375,269.09978450428355L896.0625,271.0549829656428L897.01171875,290.88728055087L897.6445312500001,242.23971245505592L897.9609375,267.794042413885L901.7578125,271.98471970991653L904.2890625,246.1364343816584L904.921875,304.8676414489746L905.2382812500001,207.2033455588601L906.5039062500001,255.27666161277077L907.7695312500001,270.9387699473988L908.40234375,280.7831209356135L909.0351562500001,275.3345395868474L911.25,296.1239239085804L911.5664062499999,293.60130275379527L912.8320312499999,237.98748952692208L914.0976562499999,246.24581805142492L915.6796875,245.9108376936479L916.3125,222.84494954889473L917.26171875,204.62602441961113L917.8945312499999,253.49235985495827L918.2109375,258.5170978199352L918.84375,242.07562880082563L919.4765625,261.38152868097484L920.4257812499999,241.52189740267664L921.6914062499999,230.3034130443226L922.0078125,287.0383966619318L922.32421875,255.88509299538353L922.9570312499999,256.7533167058772L923.58984375,227.73293755271217L925.171875,277.03680766712534L925.8046875,261.9147557345304L926.12109375,278.1374574141069L928.3359375,273.82370515303177L928.96875,270.38502225008875L929.91796875,314.50691639293325L936.87890625,280.4139612371272L937.1953125000001,246.5944734053178L937.828125,257.8197871121493L940.04296875,249.86225960471413L940.67578125,259.2622465653853L940.9921875000001,250.25876929543236L942.57421875,269.48261919888586L942.890625,258.3598598133434L943.20703125,245.00843464244497L944.15625,267.98545976118606L944.47265625,278.50661711259323L945.421875,291.09920224276453L947.3203125000001,252.71986111727625L947.63671875,273.9330888227983L948.26953125,324.1803706776012L948.90234375,270.06371688842773L949.53515625,267.37018273093486L949.8515624999999,302.78253867409444L953.33203125,238.61644155328926L953.6484374999999,245.4186193292791L953.96484375,237.46109182184395L956.49609375,279.8602135398171L956.8125,292.0426139831543L958.39453125,256.0354853543368L958.7109374999999,273.3178117925471L959.02734375,283.10749539462L959.34375,237.68668850985438L959.9765624999999,242.72508517178625L960.29296875,253.04799582741478L960.609375,273.898909482089L961.55859375,272.19665770097214L965.0390625,270.6242939342152L966.9375,272.2786913785067L967.5703125,295.04377850619227L970.1015625,289.22603745893997L970.41796875,277.50167603926224L970.734375,278.19214109940964L971.3671875,288.74064844304866L973.58203125,233.66690791736949L974.53125,200.6609601107511L975.1640625,271.1985459761186L976.11328125,268.5802161476829L976.7460937500001,254.5314965681596L977.37890625,230.31025869196114L980.2265625,255.7962136702104L981.4921875,241.99359512329102L982.125,263.91782483187586L982.7578125,335.58341043645686L983.390625,289.88232317837804L983.70703125,271.3284339904785L984.97265625,254.14866187355736L985.2890625,284.03040279041636L985.6054687500001,276.7565109946511L987.1875,300.9572282270952L987.50390625,240.64684434370562L988.76953125,291.7349836176092L989.0859375,269.10661385276103L990.3515625,284.38588749278676L991.9335937499999,277.18720002607864L992.25,254.2922248840332L992.56640625,257.97017947110265L992.8828125,244.08552724664864L993.515625,282.23927168412644L993.83203125,265.9482113231312L996.36328125,274.06982248479665L996.6796875,299.6925111250444L996.9960937499999,269.2638518593528L998.578125,265.770468971946L998.89453125,271.88901103626597L1000.16015625,255.3997039794922L1001.109375,274.29541917280716L1002.0585937499999,267.76669242165303L1002.69140625,301.4221128983931L1003.3242187499999,256.8216753872958L1003.95703125,226.94676381891426L1004.2734375,271.6360806551847L1004.58984375,277.65891404585403L1006.171875,267.62995875965464L1006.48828125,283.65439744429153L1010.28515625,312.33977994051844L1010.91796875,277.5905390652743L1013.1328125,226.6254584572532L1015.0312500000001,268.45715748180044L1015.34765625,289.34909612482244L1018.8281250000001,251.94734608043325L1019.14453125,260.7662516507235L1021.9921875,278.82792247425425L1022.6250000000001,241.1322170604359L1023.2578125,288.2689507224343L1024.20703125,240.78356170654297L1024.83984375,265.85934829711914L1025.15625,253.47868485884234L1026.10546875,238.01483951915395L1027.37109375,240.96130405772817L1027.6875,234.6239946538752L1029.26953125,241.56975173950195L1029.90234375,287.42807700417256L1030.53515625,251.39359838312325L1030.8515625,254.25119989568535L1032.1171875,248.93935220891777L1032.75,306.3032715537331L1033.69921875,271.9095316800204L1036.23046875,272.1009490273216L1036.86328125,257.86079580133617L1037.1796875,277.2487293590199L1037.8125,304.9975294633345L1039.39453125,260.6978929693049L1040.02734375,270.30298857255417L1040.66015625,254.32640422474253L1041.29296875,262.5847327492454L1043.82421875,273.7279964793812L1046.35546875,273.43404110995203L1046.671875,247.12771675803444L1047.3046875,303.7054623690519L1047.62109375,242.04144946011633L1048.5703125,262.85818377408117L1049.203125,281.1659556302157L1049.51953125,274.60304953835225L1050.46875,266.2490123401989L1052.3671875,280.11316022005946L1053.6328125,255.6184713190252L1053.94921875,274.1586855108088L1058.37890625,249.19229888916016L1059.328125,216.11795980280098L1060.27734375,235.52639770507812L1061.2265625,307.04160724986684L1062.4921875,252.52159812233666L1063.44140625,292.73992469094014L1063.7578125,249.7392009388317L1064.07421875,254.29905423251063L1065.97265625,286.44364027543503L1067.5546875,276.33265131170094L1067.87109375,281.93164131858134L1068.1875,288.7133147499778L1069.453125,292.3844399885698L1070.0859375,278.5544714494185L1070.40234375,274.38429849798024L1072.30078125,280.8856752569026L1073.25,282.9092323996804L1073.8828125,212.90487358786842L1074.19921875,262.1882230585271L1074.83203125,289.56784716519445L1075.1484375,239.7717749855735L1075.71796875,251.85163740678266L1076.4140625,275.2661809054288L1077.36328125,271.1575209877708L1079.89453125,264.12291717529297L1080.2109375,258.3256804726341L1081.79296875,285.3703242215243L1083.05859375,267.32915774258703L1083.375,300.08217516812414L1084.95703125,271.1370166431774L1088.75390625,286.49832396073776L1089.0703125,269.00407583063304L1089.38671875,265.33977994051844L1089.703125,256.0628353465687L1090.01953125,289.73876016790217L1092.8671875,240.94079971313477L1095.08203125,300.1984044855291L1096.03125,267.3154990456321L1097.61328125,284.6114841807972L1098.5625,268.60756613991475L1100.14453125,260.0757865905762L1100.4609375,287.6468443437056L1100.77734375,234.17280127785423L1101.09375,267.53425008600414L1102.67578125,275.6900405883789L1103.94140625,221.20421080155805L1104.57421875,272.7162260575728L1105.5234375,290.40872088345617L1106.7890625,275.52595693414867L1107.10546875,265.71578528664327L1107.421875,228.12261789495292L1108.0546875,281.5693109685725L1109.3203125,280.53701990300954L1109.63671875,259.7954899181019L1110.26953125,304.5941741249778L1110.5859375,295.2830501903187L1111.8515625,228.92246662486684L1112.16796875,279.4705494967374L1112.484375,287.0930966463956L1114.06640625,279.1287234913219L1114.69921875,264.38952255249023L1117.86328125,301.9074856151234L1118.1796875,289.36277112093836L1119.4453125,272.0189153497869L1120.078125,258.57861085371536L1121.66015625,257.6830534501509L1122.29296875,298.42777772383255L1123.2421875,248.07112849842417L1123.875,327.3797818964178L1127.0390625,246.17061372236773L1127.98828125,262.3864697543058L1128.9375,252.78821979869497L1130.51953125,283.34676707874644L1131.46875,275.2114972201261L1133.3671875,306.2417422207919L1134.31640625,289.0004407709295L1134.94921875,253.5128804987127L1136.53125,281.5556359724565L1137.1640625,277.542684728449L1138.4296875,272.67520106922495L1138.74609375,294.1345461065119L1141.27734375,240.83141604336828L1142.54296875,274.91069620305836L1142.859375,277.1256706931374L1143.80859375,267.1172360506925L1144.44140625,264.6219648881392L1145.07421875,263.48711950128734L1146.65625,255.8030593178489L1147.921875,290.6001382307573L1149.1875,264.4305475408381L1150.453125,280.76261659102005L1151.0859375,235.49904771284625L1152.984375,222.56465287642047L1153.93359375,245.65106166492808L1156.78125,262.44799908724696L1157.4140625,321.5141865123402L1158.046875,286.5735282897949L1158.99609375,302.1467572992498L1159.9453125,274.8765168623491L1160.89453125,296.33586189963603L1161.2109375,288.89788644964045L1162.79296875,302.05789427323776L1165.32421875,275.3618895790794L1167.22265625,188.334980357777L1168.171875,234.52145663174718L1168.48828125,252.61047744750977L1171.01953125,280.9266839460893L1173.55078125,277.21455001831055L1176.3984375,267.3906870755282L1177.6640625,243.83258056640625L1179.87890625,269.8586245450106L1181.77734375,282.10253802212804L1182.41015625,265.6884352944114L1183.359375,267.45906205610794L1183.9921875,278.5954964377663L1185.890625,300.85469020496714L1186.5234375,236.61338875510475L1186.83984375,253.5333848433061L1188.73828125,274.5073408647017L1189.37109375,298.56451138583094L1189.6875,270.3234929171476L1190.00390625,314.50007074529475L1191.26953125,270.0158625516024L1191.5859375,274.3774528503418L1191.90234375,293.12960503318095L1192.53515625,277.2829086997292L1193.484375,277.09832070090556L1194.1171875,262.33861541748047L1195.69921875,297.7099626714533L1196.015625,283.0938203985041L1196.96484375,300.7931608720259L1198.546875,283.4356301047585L1198.86328125,245.76042903553355L1199.49609375,261.0738983154297L1199.8125,229.71548600630328L1201.39453125,277.22822501442647L1202.02734375,243.52495020086113L1202.9765625,244.56407061490148L1203.29296875,243.4907708601518L1203.609375,259.3169465498491L1204.55859375,293.3073473843661L1205.5078125,324.22137936678797L1206.45703125,291.8375216397372L1207.72265625,304.72407843849874L1208.98828125,259.7339605851607L1209.62109375,226.74851712313563L1211.203125,220.34967838634145L1211.51953125,306.0161455327814L1212.15234375,296.94429328224874L1213.1015625,273.1810944297097L1214.05078125,267.0898860584606" style="fill: none;" fill="none"></path></g></g></g></g></g></g><g transform="translate(37, 376)" clip-path="url(#clip_1)"><clipPath id="clip_1"><rect width="1265" height="24"></rect></clipPath><g><g><line x1="0" y1="0" x2="0" y2="5" style="visibility: inherit;" fill="rgb(0, 0, 0)" stroke="rgb(204, 204, 204)" stroke-width="1px"></line><line x1="126.5625" y1="0" x2="126.5625" y2="5" style="visibility: inherit;" fill="rgb(0, 0, 0)" stroke="rgb(204, 204, 204)" stroke-width="1px"></line><line x1="253.125" y1="0" x2="253.125" y2="5" style="visibility: inherit;" fill="rgb(0, 0, 0)" stroke="rgb(204, 204, 204)" stroke-width="1px"></line><line x1="379.6875" y1="0" x2="379.6875" y2="5" style="visibility: inherit;" fill="rgb(0, 0, 0)" stroke="rgb(204, 204, 204)" stroke-width="1px"></line><line x1="506.25" y1="0" x2="506.25" y2="5" style="visibility: inherit;" fill="rgb(0, 0, 0)" stroke="rgb(204, 204, 204)" stroke-width="1px"></line><line x1="632.8125" y1="0" x2="632.8125" y2="5" style="visibility: inherit;" fill="rgb(0, 0, 0)" stroke="rgb(204, 204, 204)" stroke-width="1px"></line><line x1="759.375" y1="0" x2="759.375" y2="5" style="visibility: inherit;" fill="rgb(0, 0, 0)" stroke="rgb(204, 204, 204)" stroke-width="1px"></line><line x1="885.9375" y1="0" x2="885.9375" y2="5" style="visibility: inherit;" fill="rgb(0, 0, 0)" stroke="rgb(204, 204, 204)" stroke-width="1px"></line><line x1="1012.5" y1="0" x2="1012.5" y2="5" style="visibility: inherit;" fill="rgb(0, 0, 0)" stroke="rgb(204, 204, 204)" stroke-width="1px"></line><line x1="1139.0625" y1="0" x2="1139.0625" y2="5" style="visibility: inherit;" fill="rgb(0, 0, 0)" stroke="rgb(204, 204, 204)" stroke-width="1px"></line><line x1="1265.625" y1="0" x2="1265.625" y2="5" style="visibility: inherit;" fill="rgb(0, 0, 0)" stroke="rgb(204, 204, 204)" stroke-width="1px"></line></g><g transform="translate(0, 8)"><text x="0" y="0" dx="0em" dy="0.95em" style="text-anchor: middle; visibility: hidden; font-family: Roboto, sans-serif; font-size: 12px; font-weight: 200;" fill="rgb(255, 255, 255)" stroke="none" stroke-width="1px">-2k</text><text x="126.5625" y="0" dx="0em" dy="0.95em" style="text-anchor: middle; visibility: inherit; font-family: Roboto, sans-serif; font-size: 12px; font-weight: 200;" fill="rgb(255, 255, 255)" stroke="none" stroke-width="1px">0</text><text x="253.125" y="0" dx="0em" dy="0.95em" style="text-anchor: middle; visibility: inherit; font-family: Roboto, sans-serif; font-size: 12px; font-weight: 200;" fill="rgb(255, 255, 255)" stroke="none" stroke-width="1px">2k</text><text x="379.6875" y="0" dx="0em" dy="0.95em" style="text-anchor: middle; visibility: inherit; font-family: Roboto, sans-serif; font-size: 12px; font-weight: 200;" fill="rgb(255, 255, 255)" stroke="none" stroke-width="1px">4k</text><text x="506.25" y="0" dx="0em" dy="0.95em" style="text-anchor: middle; visibility: inherit; font-family: Roboto, sans-serif; font-size: 12px; font-weight: 200;" fill="rgb(255, 255, 255)" stroke="none" stroke-width="1px">6k</text><text x="632.8125" y="0" dx="0em" dy="0.95em" style="text-anchor: middle; visibility: inherit; font-family: Roboto, sans-serif; font-size: 12px; font-weight: 200;" fill="rgb(255, 255, 255)" stroke="none" stroke-width="1px">8k</text><text x="759.375" y="0" dx="0em" dy="0.95em" style="text-anchor: middle; visibility: inherit; font-family: Roboto, sans-serif; font-size: 12px; font-weight: 200;" fill="rgb(255, 255, 255)" stroke="none" stroke-width="1px">10k</text><text x="885.9375" y="0" dx="0em" dy="0.95em" style="text-anchor: middle; visibility: inherit; font-family: Roboto, sans-serif; font-size: 12px; font-weight: 200;" fill="rgb(255, 255, 255)" stroke="none" stroke-width="1px">12k</text><text x="1012.5" y="0" dx="0em" dy="0.95em" style="text-anchor: middle; visibility: inherit; font-family: Roboto, sans-serif; font-size: 12px; font-weight: 200;" fill="rgb(255, 255, 255)" stroke="none" stroke-width="1px">14k</text><text x="1139.0625" y="0" dx="0em" dy="0.95em" style="text-anchor: middle; visibility: inherit; font-family: Roboto, sans-serif; font-size: 12px; font-weight: 200;" fill="rgb(255, 255, 255)" stroke="none" stroke-width="1px">16k</text><text x="1265.625" y="0" dx="0em" dy="0.95em" style="text-anchor: middle; visibility: hidden; font-family: Roboto, sans-serif; font-size: 12px; font-weight: 200;" fill="rgb(255, 255, 255)" stroke="none" stroke-width="1px">18k</text></g><line x1="0" y1="0" x2="1265.625" y2="0" fill="rgb(0, 0, 0)" stroke="rgb(204, 204, 204)" stroke-width="1px"></line></g></g></g></g></svg>