<svg viewBox="0 0 1283 400" xmlns="http://www.w3.org/2000/svg"><g><g><g><g><g><line x1="72.34375" y1="377" x2="67.34375" y2="377" style="visibility: inherit;" fill="rgb(0, 0, 0)" stroke="rgb(204, 204, 204)" stroke-width="1px"></line><line x1="72.34375" y1="348" x2="67.34375" y2="348" style="visibility: inherit;" fill="rgb(0, 0, 0)" stroke="rgb(204, 204, 204)" stroke-width="1px"></line><line x1="72.34375" y1="319" x2="67.34375" y2="319" style="visibility: inherit;" fill="rgb(0, 0, 0)" stroke="rgb(204, 204, 204)" stroke-width="1px"></line><line x1="72.34375" y1="290" x2="67.34375" y2="290" style="visibility: inherit;" fill="rgb(0, 0, 0)" stroke="rgb(204, 204, 204)" stroke-width="1px"></line><line x1="72.34375" y1="261" x2="67.34375" y2="261" style="visibility: inherit;" fill="rgb(0, 0, 0)" stroke="rgb(204, 204, 204)" stroke-width="1px"></line><line x1="72.34375" y1="232" x2="67.34375" y2="232" style="visibility: inherit;" fill="rgb(0, 0, 0)" stroke="rgb(204, 204, 204)" stroke-width="1px"></line><line x1="72.34375" y1="203.00000000000003" x2="67.34375" y2="203.00000000000003" style="visibility: inherit;" fill="rgb(0, 0, 0)" stroke="rgb(204, 204, 204)" stroke-width="1px"></line><line x1="72.34375" y1="174" x2="67.34375" y2="174" style="visibility: inherit;" fill="rgb(0, 0, 0)" stroke="rgb(204, 204, 204)" stroke-width="1px"></line><line x1="72.34375" y1="145.00000000000003" x2="67.34375" y2="145.00000000000003" style="visibility: inherit;" fill="rgb(0, 0, 0)" stroke="rgb(204, 204, 204)" stroke-width="1px"></line><line x1="72.34375" y1="116" x2="67.34375" y2="116" style="visibility: inherit;" fill="rgb(0, 0, 0)" stroke="rgb(204, 204, 204)" stroke-width="1px"></line><line x1="72.34375" y1="86.99999999999999" x2="67.34375" y2="86.99999999999999" style="visibility: inherit;" fill="rgb(0, 0, 0)" stroke="rgb(204, 204, 204)" stroke-width="1px"></line><line x1="72.34375" y1="57.999999999999964" x2="67.34375" y2="57.999999999999964" style="visibility: inherit;" fill="rgb(0, 0, 0)" stroke="rgb(204, 204, 204)" stroke-width="1px"></line><line x1="72.34375" y1="29.00000000000002" x2="67.34375" y2="29.00000000000002" style="visibility: inherit;" fill="rgb(0, 0, 0)" stroke="rgb(204, 204, 204)" stroke-width="1px"></line><line x1="72.34375" y1="0" x2="67.34375" y2="0" style="visibility: inherit;" fill="rgb(0, 0, 0)" stroke="rgb(204, 204, 204)" stroke-width="1px"></line></g><g transform="translate(62.34375, 0)"><text x="0" y="377" dx="0em" dy="0.3em" style="text-anchor: end; visibility: hidden; font-family: Roboto, sans-serif; font-size: 12px; font-weight: 200;" fill="rgb(255, 255, 255)" stroke="none" stroke-width="1px">-2e-6</text><text x="0" y="348" dx="0em" dy="0.3em" style="text-anchor: end; visibility: inherit; font-family: Roboto, sans-serif; font-size: 12px; font-weight: 200;" fill="rgb(255, 255, 255)" stroke="none" stroke-width="1px">0</text><text x="0" y="319" dx="0em" dy="0.3em" style="text-anchor: end; visibility: inherit; font-family: Roboto, sans-serif; font-size: 12px; font-weight: 200;" fill="rgb(255, 255, 255)" stroke="none" stroke-width="1px">2e-6</text><text x="0" y="290" dx="0em" dy="0.3em" style="text-anchor: end; visibility: inherit; font-family: Roboto, sans-serif; font-size: 12px; font-weight: 200;" fill="rgb(255, 255, 255)" stroke="none" stroke-width="1px">4e-6</text><text x="0" y="261" dx="0em" dy="0.3em" style="text-anchor: end; visibility: inherit; font-family: Roboto, sans-serif; font-size: 12px; font-weight: 200;" fill="rgb(255, 255, 255)" stroke="none" stroke-width="1px">6e-6</text><text x="0" y="232" dx="0em" dy="0.3em" style="text-anchor: end; visibility: inherit; font-family: Roboto, sans-serif; font-size: 12px; font-weight: 200;" fill="rgb(255, 255, 255)" stroke="none" stroke-width="1px">8e-6</text><text x="0" y="203.00000000000003" dx="0em" dy="0.3em" style="text-anchor: end; visibility: inherit; font-family: Roboto, sans-serif; font-size: 12px; font-weight: 200;" fill="rgb(255, 255, 255)" stroke="none" stroke-width="1px">1e-5</text><text x="0" y="174" dx="0em" dy="0.3em" style="text-anchor: end; visibility: inherit; font-family: Roboto, sans-serif; font-size: 12px; font-weight: 200;" fill="rgb(255, 255, 255)" stroke="none" stroke-width="1px">1.2e-5</text><text x="0" y="145.00000000000003" dx="0em" dy="0.3em" style="text-anchor: end; visibility: inherit; font-family: Roboto, sans-serif; font-size: 12px; font-weight: 200;" fill="rgb(255, 255, 255)" stroke="none" stroke-width="1px">1.4e-5</text><text x="0" y="116" dx="0em" dy="0.3em" style="text-anchor: end; visibility: inherit; font-family: Roboto, sans-serif; font-size: 12px; font-weight: 200;" fill="rgb(255, 255, 255)" stroke="none" stroke-width="1px">1.6e-5</text><text x="0" y="86.99999999999999" dx="0em" dy="0.3em" style="text-anchor: end; visibility: inherit; font-family: Roboto, sans-serif; font-size: 12px; font-weight: 200;" fill="rgb(255, 255, 255)" stroke="none" stroke-width="1px">1.8e-5</text><text x="0" y="57.999999999999964" dx="0em" dy="0.3em" style="text-anchor: end; visibility: inherit; font-family: Roboto, sans-serif; font-size: 12px; font-weight: 200;" fill="rgb(255, 255, 255)" stroke="none" stroke-width="1px">2e-5</text><text x="0" y="29.00000000000002" dx="0em" dy="0.3em" style="text-anchor: end; visibility: inherit; font-family: Roboto, sans-serif; font-size: 12px; font-weight: 200;" fill="rgb(255, 255, 255)" stroke="none" stroke-width="1px">2.2e-5</text><text x="0" y="0" dx="0em" dy="0.3em" style="text-anchor: end; visibility: hidden; font-family: Roboto, sans-serif; font-size: 12px; font-weight: 200;" fill="rgb(255, 255, 255)" stroke="none" stroke-width="1px">2.4e-5</text></g><line x1="72.34375" y1="0" x2="72.34375" y2="377" fill="rgb(0, 0, 0)" stroke="rgb(204, 204, 204)" stroke-width="1px"></line></g></g><g transform="translate(72, 0)" clip-path="url(#clip_0)"><clipPath id="clip_0"><rect width="1210" height="377"></rect></clipPath><g><g><g><line x1="0" y1="0" x2="0" y2="377" fill="rgb(0, 0, 0)" stroke="rgb(189, 189, 189)" stroke-width="1px" opacity="0.25"></line><line x1="134.51736111111111" y1="0" x2="134.51736111111111" y2="377" fill="rgb(0, 0, 0)" stroke="rgb(189, 189, 189)" stroke-width="1px" opacity="0.25"></line><line x1="269.03472222222223" y1="0" x2="269.03472222222223" y2="377" fill="rgb(0, 0, 0)" stroke="rgb(189, 189, 189)" stroke-width="1px" opacity="0.25"></line><line x1="403.5520833333333" y1="0" x2="403.5520833333333" y2="377" fill="rgb(0, 0, 0)" stroke="rgb(189, 189, 189)" stroke-width="1px" opacity="0.25"></line><line x1="538.0694444444445" y1="0" x2="538.0694444444445" y2="377" fill="rgb(0, 0, 0)" stroke="rgb(189, 189, 189)" stroke-width="1px" opacity="0.25"></line><line x1="672.5868055555555" y1="0" x2="672.5868055555555" y2="377" fill="rgb(0, 0, 0)" stroke="rgb(189, 189, 189)" stroke-width="1px" opacity="0.25"></line><line x1="807.1041666666666" y1="0" x2="807.1041666666666" y2="377" fill="rgb(0, 0, 0)" stroke="rgb(189, 189, 189)" stroke-width="1px" opacity="0.25"></line><line x1="941.6215277777778" y1="0" x2="941.6215277777778" y2="377" fill="rgb(0, 0, 0)" stroke="rgb(189, 189, 189)" stroke-width="1px" opacity="0.25"></line><line x1="1076.138888888889" y1="0" x2="1076.138888888889" y2="377" fill="rgb(0, 0, 0)" stroke="rgb(189, 189, 189)" stroke-width="1px" opacity="0.25"></line><line x1="1210.65625" y1="0" x2="1210.65625" y2="377" fill="rgb(0, 0, 0)" stroke="rgb(189, 189, 189)" stroke-width="1px" opacity="0.25"></line></g><g><line x1="0" y1="377" x2="1210.65625" y2="377" fill="rgb(0, 0, 0)" stroke="rgb(189, 189, 189)" stroke-width="1px" opacity="0.25"></line><line x1="0" y1="348" x2="1210.65625" y2="348" fill="rgb(0, 0, 0)" stroke="rgb(189, 189, 189)" stroke-width="1px" opacity="0.25"></line><line x1="0" y1="319" x2="1210.65625" y2="319" fill="rgb(0, 0, 0)" stroke="rgb(189, 189, 189)" stroke-width="1px" opacity="0.25"></line><line x1="0" y1="290" x2="1210.65625" y2="290" fill="rgb(0, 0, 0)" stroke="rgb(189, 189, 189)" stroke-width="1px" opacity="0.25"></line><line x1="0" y1="261" x2="1210.65625" y2="261" fill="rgb(0, 0, 0)" stroke="rgb(189, 189, 189)" stroke-width="1px" opacity="0.25"></line><line x1="0" y1="232" x2="1210.65625" y2="232" fill="rgb(0, 0, 0)" stroke="rgb(189, 189, 189)" stroke-width="1px" opacity="0.25"></line><line x1="0" y1="203.00000000000003" x2="1210.65625" y2="203.00000000000003" fill="rgb(0, 0, 0)" stroke="rgb(189, 189, 189)" stroke-width="1px" opacity="0.25"></line><line x1="0" y1="174" x2="1210.65625" y2="174" fill="rgb(0, 0, 0)" stroke="rgb(189, 189, 189)" stroke-width="1px" opacity="0.25"></line><line x1="0" y1="145.00000000000003" x2="1210.65625" y2="145.00000000000003" fill="rgb(0, 0, 0)" stroke="rgb(189, 189, 189)" stroke-width="1px" opacity="0.25"></line><line x1="0" y1="116" x2="1210.65625" y2="116" fill="rgb(0, 0, 0)" stroke="rgb(189, 189, 189)" stroke-width="1px" opacity="0.25"></line><line x1="0" y1="86.99999999999999" x2="1210.65625" y2="86.99999999999999" fill="rgb(0, 0, 0)" stroke="rgb(189, 189, 189)" stroke-width="1px" opacity="0.25"></line><line x1="0" y1="57.999999999999964" x2="1210.65625" y2="57.999999999999964" fill="rgb(0, 0, 0)" stroke="rgb(189, 189, 189)" stroke-width="1px" opacity="0.25"></line><line x1="0" y1="29.00000000000002" x2="1210.65625" y2="29.00000000000002" fill="rgb(0, 0, 0)" stroke="rgb(189, 189, 189)" stroke-width="1px" opacity="0.25"></line><line x1="0" y1="0" x2="1210.65625" y2="0" fill="rgb(0, 0, 0)" stroke="rgb(189, 189, 189)" stroke-width="1px" opacity="0.25"></line></g></g></g><g><g><line x1="0" y1="348" x2="1210.65625" y2="348" fill="rgb(0, 0, 0)" stroke="rgb(153, 153, 153)" stroke-width="1.5px"></line></g></g><g><g><line x1="134.51736111111111" y1="0" x2="134.51736111111111" y2="377" fill="rgb(0, 0, 0)" stroke="rgb(153, 153, 153)" stroke-width="1.5px"></line></g></g><g><g><g><g><g><path stroke="rgb(238, 51, 119)" stroke-width="2px" d="M135.52624131944444,333.500000036609L135.86253472222222,333.500000036609L137.8802951388889,333.500000036609L139.22546875,333.500000036609L139.5617621527778,333.500000036609L140.5706423611111,333.500000036609L140.9069357638889,333.500000036609L141.24322916666668,333.500000036609L141.91581597222222,328.5288481349785L142.252109375,325.2906160219908L143.26098958333333,323.16524780908827L143.5972829861111,321.7633793244665L147.29651041666668,320.8357056482156L147.96909722222222,320.2205019257828L150.32315104166665,319.8119351780556L150.65944444444443,319.5403419352966L150.99573784722222,314.5118495727871L151.66832465277776,311.1656675529799L152.6772048611111,308.93834826726123L153.68608506944443,307.4555023322862L154.69496527777775,306.4681702089156L155.03125868055557,305.81071488466426L155.36755208333332,305.372897475122L155.70384548611113,305.08133229555796L156.37643229166667,304.8871592952267L156.71272569444446,304.75784425028303L157.0490190972222,304.67172228135695L157.3853125,304.6143658710548L158.05789930555557,304.57616686594764L158.39419270833332,304.55072649006706L160.411953125,299.69076751054706L161.08453993055556,296.45404394517567L162.0934201388889,294.298390093632L163.1023003472222,292.86272642179375L164.44747395833335,291.90657521177263L167.8104079861111,291.2697788587129L169.1555815972222,290.845672644068L170.16446180555553,285.7202175886267L170.50075520833335,282.3066650803977L171.1733420138889,280.03323935772954L173.52739583333334,278.51913793635117L175.20886284722224,277.51074643846835L176.55403645833334,276.83915772250396L176.8903298611111,276.39187964726386L177.56291666666667,276.09399245340853L178.23550347222223,275.8955995841881L180.25326388888888,270.9204682701387L180.58955729166667,267.607030828962L182.94361111111112,265.4002814993394L183.61619791666666,263.93058644856126L183.95249131944445,262.951769545963L184.9613715277778,262.29987748937367L187.31542534722223,261.86571737992523L188.32430555555555,256.7335673085303L188.99689236111112,253.31555536181952L189.6694791666667,251.03915940568191L191.68723958333334,249.52307969905914L192.02353298611112,248.5133706145215L192.35982638888888,247.84090436425188L194.04129340277777,247.39304184158672L195.38646701388888,247.0947654014981L196.3953472222222,246.89611329240194L196.731640625,246.76381098774516L197.06793402777777,246.67569765284424L198.4131076388889,241.77401473459702L198.74940104166666,238.50949391105357L199.08569444444444,236.33532304257764L201.4397482638889,234.8873252441745L202.44862847222223,233.92295871043873L202.784921875,233.28069059897115L203.12121527777776,232.85294003673386L203.45750868055558,232.56805816228388L204.1300954861111,232.37832683390027L205.47526909722222,232.2519657691968L206.1478559027778,232.16780930010424L206.82044270833333,227.26875945215977L208.16561631944447,224.00599225342887L208.50190972222222,221.83298929907414L208.83820312499998,220.38576933147388L209.84708333333333,219.4219208330521L211.52855034722222,218.77999773310327L214.89148437499998,218.35247694853732L216.57295138888887,213.22475087117056L216.90924479166668,209.80968530364433L217.24553819444444,207.5352516356718L219.93588541666668,206.02047881280214L221.2810590277778,205.01164011277092L221.61735243055554,204.33975353855016L221.95364583333333,203.89227708011913L225.6528732638889,198.75125611927535L226.66175347222224,195.32733615935345L227.33434027777776,193.04700546604545L228.00692708333332,191.5283052243023L228.6795138888889,190.51685086330139L229.35210069444443,189.84322225887473L230.36098090277775,189.39458560832662L231.36986111111113,189.09579359906155L232.04244791666667,188.89679812089105L233.72391493055557,188.7642671324295L234.39650173611113,183.8329998545854L234.7327951388889,180.54877584754124L237.42314236111113,178.3614826588499L238.09572916666664,176.9047453951814L239.44090277777778,175.93455837757818L240.7860763888889,175.28841382385446L241.45866319444445,174.85808155107443L241.7949565972222,174.57148025740298L242.80383680555553,174.38060379581776L247.8482378472222,169.41048283755617L248.18453125,166.100382279354L249.8659982638889,163.8958553075913L250.53858506944442,162.42764034439733L250.87487847222224,161.44980917891021L252.8926388888889,155.9555719831671L253.56522569444442,152.2964100108021L254.91039930555556,149.85940813720708L256.25557291666667,148.23636488939283L256.5918663194444,147.1554180863485L256.92815972222223,146.43550751552095L257.264453125,145.95604707534986L257.6007465277778,145.63672642219586L257.93703993055556,145.42405886719536L261.6362673611111,145.28242227556498L264.3266145833333,140.34509507069333L265.67178819444445,137.05683515224882L266.344375,134.8668540465648L267.0169618055556,133.4083266301792L268.0258420138889,132.4369473708664L269.70730902777774,131.79000878416406L270.3798958333333,131.35914768542034L272.0613628472222,126.22919255412835L273.40653645833333,122.81264243668785L273.74282986111115,120.53722005847256L274.0791232638889,119.0217887545811L276.09688368055555,118.01251150618941L276.4331770833333,117.34033285876056L277.44205729166663,116.89266187957291L277.77835069444444,116.59451300743397L279.1235243055556,116.3959458585894L280.80499131944447,111.42069849793027L281.1412847222222,108.10718375573128L281.47757812500004,105.90038293742677L282.15016493055555,104.43065359243595L283.4953385416667,103.45181384867207L283.83163194444444,102.79990657932532L284.50421875,102.36573633794038L285.8493923611111,102.076578957178L286.52197916666665,101.88400014159026L287.8671527777778,101.75574265040886L289.2123263888889,101.67032316128201L289.5486197916667,101.61343378152358L290.89379340277776,96.73254381507573L291.2300868055556,93.48187109742149L291.9026736111111,91.31692306746378L292.57526041666665,89.87506767951191L293.9204340277778,88.914791991136L294.25672743055554,88.27524838267763L295.93819444444443,87.84931233944438L296.27448784722225,87.56563893465106L297.28336805555557,87.37671244705864L298.2922482638889,87.25088740632215L298.62854166666665,87.16708792919158L298.96483506944446,87.11127747742262L299.637421875,82.23111488638153L300.6463020833333,78.98092660074823L301.99147569444443,76.8163012025164L303.3366493055555,75.37466068729398L303.6729427083334,74.41452810415585L305.690703125,73.77507980378586L306.0269965277778,73.34920723573941L306.36328993055554,73.06557610542056L306.69958333333335,72.8766777726282L307.0358767361111,72.75087148298843L307.37217013888886,72.66708449408841L308.38105034722224,72.61128235948095L308.71734375,67.7311164983037L309.05363715277775,64.48092603475969L313.7617447916667,62.31629918603937L314.0980381944444,60.87465770479163L314.770625,59.91452447828063L315.10691840277775,59.27507574942435L315.44321180555556,58.84920289600602L316.11579861111113,58.56557157562941L316.78838541666664,58.376673116258594L317.46097222222227,58.25086674231764L318.1335590277778,53.324078057744295L318.46985243055553,50.04283679381842L319.4787326388889,47.8575301120438L320.1513194444444,46.40211586198194L321.1601996527778,45.43280997144075L321.49649305555556,44.787252248340266L323.51425347222226,44.357310804755386L323.850546875,44.070969803327834L324.1868402777778,43.88026669637707L325.5320138888889,43.753258427147856L326.5408940972222,43.6686709198412L327.2134809027778,38.76933400044631L328.2223611111111,35.50637561212933L329.5675347222222,33.33324532551026L330.91270833333334,31.885940554621875L331.24900173611115,30.922035577210234L332.2578819444444,30.28007486225406L332.93046875000005,29.85252902609334L333.2667621527778,29.567783499210254L334.27564236111107,29.37814297830608L334.9482291666667,29.25184239138399L335.6208159722222,29.16772620049381L335.957109375,29.11170481736097L336.6296961805556,29.074394576194486L336.96598958333334,29.049545955577592L338.6474565972222,29.032996774246712L340.32892361111107,29.021975019480408L340.66521701388893,29.014634530806024L341.33780381944445,29.009745765348878L342.6829774305556,29.006489847554434L343.3555642361111,29.00432140630336L343.6918576388889,29.002877224430122L344.70073784722223,29.00191539930254L345.3733246527778,29.001274823767588L345.70961805555555,29.000848200461295L347.0547916666667,29.000564069339354L348.3999652777778,29.00037483801209L349.4088454861111,29.000248809948108L349.74513888888885,29.000164875257518L350.08143229166666,29.00010897475359L350.41772569444447,29.000071745017998L350.7540190972222,29.000046950014077L352.4354861111111,29.000030436541493L353.1080729166667,29.00001943856873L353.44436631944444,29.000012113918828L354.11695312499995,29.000007235701993L354.4532465277778,29.00000398680963L355.4621267361111,29.000001823047267L356.1347135416667,29.0000003819816L358.4887673611111,28.99999942223182L359.49764756944444,28.999998783038464L361.17911458333333,28.999998357335688L361.5154079861111,28.99999807381766L362.8605815972222,28.999997884994606L364.20575520833336,28.999997759238525L365.2146354166667,28.99999767548489L366.8961024305556,28.999997619705027L367.5686892361111,28.99999758255563L368.24127604166665,28.999997557814144L368.57756944444446,28.99999754133634L369.25015625,28.999997530362105L370.25903645833336,28.999997523053228L371.2679166666666,28.99999751818553L372.94938368055557,28.99999751494362L374.63085069444446,28.99999751278455L375.3034375,28.999997511346606L376.31231770833335,28.99999751038887L376.6486111111111,28.99999750975112L377.3211979166666,28.99999750932637L377.99378472222224,28.99999750904347L378.330078125,28.99999750885504L379.0026649305555,28.999997508729557L379.3389583333334,28.99999750864593L380.0115451388889,28.999997508590262L380.34783854166665,28.999997508553175L380.68413194444446,28.999997508528523L382.36559895833335,28.999997508512116L383.71077256944443,28.99999750850115L384.383359375,28.999997508493827L388.41888020833335,28.99999750848897L389.0914670138889,28.99999750848579L391.10922743055556,28.999997508483613L391.4455208333333,28.99999750848215L392.45440104166664,28.999997508481144L392.7906944444444,28.999997508480558L393.7995746527778,28.99999750848018L394.80845486111116,28.999997508479886L395.1447482638889,28.999997508479677L395.8173350694444,28.999997508479595L396.15362847222224,28.99999750847947L396.489921875,28.999997508479428L396.8262152777778,28.999997508479385L397.16250868055556,28.999997508479385L399.18026909722226,28.999997508479385L400.18914930555553,28.999997508479385L404.5609635416667,28.999997508479385L404.89725694444445,28.999997508479385L405.2335503472222,28.999997508479385L405.56984375,28.999997508479385L406.57872395833334,28.999997508479385L409.26907118055556,28.999997508479385L409.6053645833333,28.999997508479385L412.2957118055556,28.999997508479385L412.63200520833334,28.999997508479385L413.9771788194444,28.999997508479385L414.3134722222222,28.999997508479385L414.9860590277778,28.999997508479385L415.32235243055555,28.999997508479385L416.33123263888893,28.999997508479385L416.6675260416667,28.999997508479385L417.67640624999996,28.999997508479385L418.3489930555556,28.999997508479385L420.0304600694444,28.999997508479385L420.36675347222223,28.999997508479385L422.38451388888893,28.999997508479385L423.3933940972222,28.999997508479385L424.0659809027778,28.999997508479385L425.0748611111111,28.999997508479385L425.41115451388885,28.999997508479385L426.756328125,28.999997508479385L427.0926215277778,28.999997508479385L431.46443576388884,28.999997508479385L432.13702256944447,28.999997508479385L433.48219618055555,28.999997508479385L434.1547829861111,28.999997508479385L435.16366319444444,28.999997508479385L435.83625,28.999997508479385L436.17254340277776,28.999997508479385L437.1814236111111,28.999997508479385L437.51771701388884,28.999997508479385L439.19918402777773,28.999997508479385L439.5354774305556,28.999997508479385L440.2080642361111,28.999997508479385L440.54435763888887,28.999997508479385L441.55323784722225,28.999997508479385L442.8984114583333,28.999997508479385L443.2347048611111,28.999997508479385L443.90729166666665,28.999997508479385L446.2613454861111,28.999997508479385L446.9339322916666,28.999997508479385L447.2702256944445,28.999997508479385L447.60651909722225,28.999997508479385L449.96057291666665,28.999997508479385L450.969453125,28.999997508479385L451.97833333333335,28.999997508479385L453.3235069444445,28.999997508479385L454.33238715277776,28.999997508479385L455.34126736111114,28.999997508479385L457.022734375,28.999997508479385L458.03161458333335,28.999997508479385L458.70420138888886,28.999997508479385L459.37678819444443,28.999997508479385L459.71308159722224,28.999997508479385L463.076015625,28.999997508479385L463.4123090277778,28.999997508479385L464.4211892361111,28.999997508479385L465.76636284722224,28.999997508479385L467.1115364583333,28.999997508479385L467.7841232638889,28.999997508479385L468.4567100694444,28.999997508479385L469.129296875,28.999997508479385L469.80188368055553,28.999997508479385L470.1381770833333,28.999997508479385L471.14705729166667,28.999997508479385L471.4833506944444,28.999997508479385L471.81964409722224,28.999997508479385L472.4922309027778,28.999997508479385L474.17369791666664,28.999997508479385L474.84628472222226,28.999997508479385L475.5188715277778,28.999997508479385L477.8729253472222,28.999997508479385L479.2180989583333,28.999997508479385L479.8906857638889,28.999997508479385L482.24473958333334,28.999997508479385L482.58103298611115,28.999997508479385L482.9173263888889,28.999997508479385L483.25361979166667,28.999997508479385L483.5899131944444,28.999997508479385L484.93508680555556,28.999997508479385L485.94396701388894,28.999997508479385L489.30690104166666,28.999997508479385L489.9794878472222,28.999997508479385L490.6520746527778,28.999997508479385L491.3246614583333,28.999997508479385L492.3335416666667,28.999997508479385L493.0061284722222,28.999997508479385L493.6787152777778,28.999997508479385L494.0150086805556,28.999997508479385L494.35130208333334,28.999997508479385L494.6875954861111,28.999997508479385L495.0238888888889,28.999997508479385L495.36018229166666,28.999997508479385L496.3690625,28.999997508479385L497.3779427083333,28.999997508479385L499.0594097222222,28.999997508479385L499.39570312499995,28.999997508479385L499.7319965277778,28.999997508479385L501.07717013888885,28.999997508479385L503.4312239583333,28.999997508479385L504.1038107638889,28.999997508479385L504.77639756944444,28.999997508479385L505.1126909722222,28.999997508479385L505.44898437499995,28.999997508479385L506.45786458333333,28.999997508479385L507.13045138888884,28.999997508479385L507.80303819444447,28.999997508479385L508.1393315972222,28.999997508479385L508.81191840277774,28.999997508479385L510.4933854166667,28.999997508479385L511.1659722222222,28.999997508479385L511.502265625,28.999997508479385L512.5111458333333,28.999997508479385L512.8474392361111,28.999997508479385L513.5200260416667,28.999997508479385L513.8563194444445,28.999997508479385L514.8651996527777,28.999997508479385L515.5377864583334,28.999997508479385L516.2103732638889,28.999997508479385L517.2192534722222,28.999997508479385L519.5733072916667,28.999997508479385L520.9184809027778,28.999997508479385L521.2547743055555,28.999997508479385L521.5910677083333,28.999997508479385L524.2814149305556,28.999997508479385L524.9540017361111,28.999997508479385L525.6265885416666,28.999997508479385L526.63546875,28.999997508479385L528.6532291666666,28.999997508479385L528.9895225694445,28.999997508479385L529.662109375,28.999997508479385L529.9984027777778,28.999997508479385L530.3346961805555,28.999997508479385L531.6798697916666,28.999997508479385L532.3524565972223,28.999997508479385L533.0250434027778,28.999997508479385L534.0339236111112,28.999997508479385L534.3702170138889,28.999997508479385L535.3790972222223,28.999997508479385L535.715390625,28.999997508479385L536.7242708333333,28.999997508479385L539.0783246527777,28.999997508479385L539.4146180555555,28.999997508479385L539.7509114583333,28.999997508479385L542.1049652777778,28.999997508479385L543.4501388888889,28.999997508479385L545.1316059027778,28.999997508479385L545.8041927083333,28.999997508479385L547.1493663194444,28.999997508479385L548.1582465277778,28.999997508479385L550.1760069444445,28.999997508479385L552.1937673611111,28.999997508479385L552.8663541666666,28.999997508479385L553.875234375,28.999997508479385L554.2115277777777,28.999997508479385L554.5478211805555,28.999997508479385L554.8841145833333,28.999997508479385L555.5567013888889,28.999997508479385L556.2292881944444,28.999997508479385L556.5655815972221,28.999997508479385L557.5744618055555,28.999997508479385L557.9107552083333,28.999997508479385L559.928515625,28.999997508479385L561.2736892361111,28.999997508479385L562.9551562500001,28.999997508479385L563.2914496527778,28.999997508479385L563.6277430555556,28.999997508479385L564.9729166666667,28.999997508479385L565.981796875,28.999997508479385L567.6632638888889,28.999997508479385L568.6721440972223,28.999997508479385L570.353611111111,28.999997508479385L570.6899045138889,28.999997508479385L571.6987847222222,28.999997508479385L573.0439583333333,28.999997508479385L574.3891319444444,28.999997508479385L576.0705989583333,28.999997508479385L577.7520659722222,28.999997508479385L578.4246527777779,28.999997508479385L579.4335329861111,28.999997508479385L579.7698263888889,28.999997508479385L580.4424131944445,28.999997508479385L582.7964670138889,28.999997508479385L586.1594010416667,28.999997508479385L587.16828125,28.999997508479385L588.5134548611111,28.999997508479385L589.1860416666667,28.999997508479385L591.2038020833334,28.999997508479385L592.5489756944445,28.999997508479385L592.8852690972222,28.999997508479385L593.2215625,28.999997508479385L593.5578559027778,28.999997508479385L593.8941493055556,28.999997508479385L596.248203125,28.999997508479385L596.5844965277778,28.999997508479385L597.9296701388889,28.999997508479385L599.6111371527777,28.999997508479385L599.9474305555556,28.999997508479385L601.2926041666666,28.999997508479385L602.301484375,28.999997508479385L603.6466579861111,28.999997508479385L610.3725260416667,28.999997508479385L611.7176996527778,28.999997508479385L615.0806336805556,28.999997508479385L615.4169270833333,28.999997508479385L616.7621006944445,28.999997508479385L617.4346875,28.999997508479385L617.7709809027779,28.999997508479385L618.1072743055555,28.999997508479385L618.4435677083334,28.999997508479385L619.4524479166668,28.999997508479385L621.1339149305556,28.999997508479385L621.8065017361112,28.999997508479385L622.1427951388888,28.999997508479385L623.1516753472222,28.999997508479385L623.8242621527777,28.999997508479385L624.1605555555556,28.999997508479385L624.8331423611111,28.999997508479385L625.1694357638889,28.999997508479385L628.1960763888889,28.999997508479385L629.2049565972222,28.999997508479385L629.54125,28.999997508479385L630.2138368055555,28.999997508479385L632.5678906249999,28.999997508479385L633.9130642361112,28.999997508479385L634.9219444444445,28.999997508479385L635.9308246527777,28.999997508479385L636.2671180555556,28.999997508479385L637.6122916666666,28.999997508479385L637.9485850694444,28.999997508479385L638.9574652777778,28.999997508479385L641.3115190972222,28.999997508479385L641.6478125,28.999997508479385L641.9841059027777,28.999997508479385L642.6566927083334,28.999997508479385L643.3292795138889,28.999997508479385L643.6655729166666,28.999997508479385L646.0196267361111,28.999997508479385L647.70109375,28.999997508479385L649.7188541666666,28.999997508479385L650.727734375,28.999997508479385L651.0640277777778,28.999997508479385L652.0729079861112,28.999997508479385L654.4269618055556,28.999997508479385L655.4358420138889,28.999997508479385L655.7721354166666,28.999997508479385L656.1084288194445,28.999997508479385L659.1350694444444,28.999997508479385L660.1439496527778,28.999997508479385L660.4802430555555,28.999997508479385L661.1528298611111,28.999997508479385L662.1617100694444,28.999997508479385L662.4980034722223,28.999997508479385L662.834296875,28.999997508479385L663.8431770833333,28.999997508479385L665.1883506944444,28.999997508479385L666.8698177083332,28.999997508479385L670.2327517361111,28.999997508479385L670.5690451388889,28.999997508479385L670.9053385416667,28.999997508479385L672.2505121527778,28.999997508479385L672.5868055555555,28.999997508479385L672.9230989583333,28.999997508479385L675.6134461805556,28.999997508479385L676.6223263888888,28.999997508479385L679.9852604166666,28.999997508479385L680.994140625,28.999997508479385L682.339314236111,28.999997508479385L683.6844878472223,28.999997508479385L684.3570746527778,28.999997508479385L685.3659548611112,28.999997508479385L685.7022482638889,28.999997508479385L687.3837152777778,28.999997508479385L687.7200086805556,28.999997508479385L689.0651822916667,28.999997508479385L689.4014756944445,28.999997508479385L689.7377690972222,28.999997508479385L690.0740625,28.999997508479385L690.7466493055556,28.999997508479385L692.7644097222221,28.999997508479385L694.1095833333334,28.999997508479385L695.4547569444444,28.999997508479385L696.7999305555556,28.999997508479385L697.8088107638888,28.999997508479385L698.4813975694445,28.999997508479385L700.4991579861111,28.999997508479385L700.8354513888889,28.999997508479385L701.1717447916667,28.999997508479385L701.5080381944445,28.999997508479385L703.1895052083333,28.999997508479385L703.5257986111111,28.999997508479385L703.8620920138889,28.999997508479385L705.207265625,28.999997508479385L706.2161458333334,28.999997508479385L706.8887326388889,28.999997508479385L707.8976128472223,28.999997508479385L708.5701996527778,28.999997508479385L708.9064930555556,28.999997508479385L709.2427864583333,28.999997508479385L709.5790798611112,28.999997508479385L711.5968402777777,28.999997508479385L712.9420138888889,28.999997508479385L713.2783072916666,28.999997508479385L713.6146006944444,28.999997508479385L713.9508940972223,28.999997508479385L715.6323611111111,28.999997508479385L718.3227083333334,28.999997508479385L718.6590017361111,28.999997508479385L720.0041753472223,28.999997508479385L720.6767621527778,28.999997508479385L721.6856423611111,28.999997508479385L722.3582291666667,28.999997508479385L723.367109375,28.999997508479385L723.7034027777777,28.999997508479385L726.39375,28.999997508479385L727.4026302083333,28.999997508479385L730.7655642361111,28.999997508479385L731.4381510416666,28.999997508479385L732.44703125,28.999997508479385L733.7922048611111,28.999997508479385L734.1284982638889,28.999997508479385L734.4647916666667,28.999997508479385L735.473671875,28.999997508479385L736.4825520833333,28.999997508479385L737.8277256944444,28.999997508479385L739.1728993055555,28.999997508479385L739.7782274305556,28.999997508479385L741.5269531250001,28.999997508479385L742.1995399305556,28.999997508479385L745.2261805555555,28.999997508479385L746.5713541666667,28.999997508479385L747.580234375,28.999997508479385L747.9165277777778,28.999997508479385L748.5891145833333,28.999997508479385L748.9254079861112,28.999997508479385L749.5979947916667,28.999997508479385L750.9431684027778,28.999997508479385L751.6157552083333,28.999997508479385L753.9698090277777,28.999997508479385L754.3061024305556,28.999997508479385L754.6423958333332,28.999997508479385L754.9786892361111,28.999997508479385L755.9875694444445,28.999997508479385L759.0142100694444,28.999997508479385L760.6956770833333,28.999997508479385L761.0319704861112,28.999997508479385L761.3682638888889,28.999997508479385L762.7134375,28.999997508479385L763.0497309027778,28.999997508479385L763.7223177083333,28.999997508479385L764.7311979166667,28.999997508479385L765.740078125,28.999997508479385L766.7489583333333,28.999997508479385L767.0852517361111,28.999997508479385L767.7578385416666,28.999997508479385L768.4304253472221,28.999997508479385L769.1030121527779,28.999997508479385L770.7844791666668,28.999997508479385L772.1296527777778,28.999997508479385L773.1385329861112,28.999997508479385L775.1562934027777,28.999997508479385L775.4925868055556,28.999997508479385L775.8288802083333,28.999997508479385L776.8377604166667,28.999997508479385L778.5192274305556,28.999997508479385L780.5369878472222,28.999997508479385L780.87328125,28.999997508479385L782.2184548611111,28.999997508479385L784.2362152777778,28.999997508479385L784.5725086805556,28.999997508479385L785.9176822916667,28.999997508479385L786.2539756944445,28.999997508479385L786.5902690972222,28.999997508479385L787.5991493055556,28.999997508479385L788.2717361111111,28.999997508479385L789.2806163194444,28.999997508479385L790.2894965277778,28.999997508479385L791.2983767361111,28.999997508479385L792.6435503472222,28.999997508479385L792.97984375,28.999997508479385L793.3161371527777,28.999997508479385L793.6524305555556,28.999997508479385L793.9887239583334,28.999997508479385L794.6613107638889,28.999997508479385L794.9976041666666,28.999997508479385L795.3338975694444,28.999997508479385L798.3605381944445,28.999997508479385L799.033125,28.999997508479385L799.7057118055556,28.999997508479385L801.0508854166666,28.999997508479385L801.7234722222223,28.999997508479385L802.059765625,28.999997508479385L803.0686458333333,28.999997508479385L811.8122743055555,28.999997508479385L813.1574479166667,28.999997508479385L813.4937413194444,28.999997508479385L814.8389149305555,28.999997508479385L815.5115017361112,28.999997508479385L816.5203819444444,28.999997508479385L817.8655555555556,28.999997508479385L818.2018489583332,28.999997508479385L819.5470225694445,28.999997508479385L820.5559027777779,28.999997508479385L821.9010763888889,28.999997508479385L824.2551302083333,28.999997508479385L824.5914236111112,28.999997508479385L824.9277170138889,28.999997508479385L828.6269444444443,28.999997508479385L828.9632378472222,28.999997508479385L829.6358246527777,28.999997508479385L830.980998263889,28.999997508479385L832.6624652777779,28.999997508479385L834.3439322916668,28.999997508479385L835.0165190972223,28.999997508479385L835.3528124999999,28.999997508479385L836.0253993055557,28.999997508479385L836.3616927083333,28.999997508479385L836.6979861111112,28.999997508479385L838.0431597222222,28.999997508479385L838.7157465277778,28.999997508479385L839.0520399305556,28.999997508479385L839.7246267361111,28.999997508479385L840.7335069444445,28.999997508479385L841.40609375,28.999997508479385L842.7512673611111,28.999997508479385L843.0875607638889,28.999997508479385L844.432734375,28.999997508479385L844.7690277777779,28.999997508479385L846.1142013888889,28.999997508479385L846.4504947916668,28.999997508479385L847.4593749999999,28.999997508479385L847.7956684027778,28.999997508479385L848.8045486111112,28.999997508479385L851.4948958333333,28.999997508479385L851.8311892361111,28.999997508479385L852.8400694444445,28.999997508479385L854.1852430555556,28.999997508479385L856.2030034722222,28.999997508479385L857.8844704861111,28.999997508479385L859.5659374999999,28.999997508479385L860.5748177083333,28.999997508479385L862.9288715277777,28.999997508479385L865.2829253472223,28.999997508479385L868.9821527777777,28.999997508479385L869.6547395833334,28.999997508479385L871.3362065972223,28.999997508479385L873.0176736111111,28.999997508479385L873.6902604166667,28.999997508479385L874.0265538194445,28.999997508479385L874.3628472222222,28.999997508479385L876.3806076388889,28.999997508479385L877.0531944444444,28.999997508479385L877.3894878472223,28.999997508479385L878.0620746527778,28.999997508479385L878.3983680555555,28.999997508479385L880.4161284722222,28.999997508479385L881.7613020833334,28.999997508479385L882.4338888888889,28.999997508479385L885.4605295138889,28.999997508479385L886.4694097222222,28.999997508479385L887.4782899305555,28.999997508479385L888.1508767361111,28.999997508479385L891.5138107638888,28.999997508479385L892.5226909722222,28.999997508479385L892.8589843750001,28.999997508479385L894.8767447916666,28.999997508479385L895.885625,28.999997508479385L898.912265625,28.999997508479385L900.2574392361112,28.999997508479385L900.5937326388889,28.999997508479385L901.93890625,28.999997508479385L904.2929600694443,28.999997508479385L906.9833072916666,28.999997508479385L908.6647743055555,28.999997508479385L909.0010677083334,28.999997508479385L910.0099479166668,28.999997508479385L910.6825347222223,28.999997508479385L912.3640017361112,28.999997508479385L913.3728819444444,28.999997508479385L915.0543489583333,28.999997508479385L917.072109375,28.999997508479385L917.7446961805556,28.999997508479385L918.7535763888889,28.999997508479385L920.4350434027779,28.999997508479385L921.1076302083334,28.999997508479385L921.443923611111,28.999997508479385L921.7802170138889,28.999997508479385L922.4528038194444,28.999997508479385L922.7890972222223,28.999997508479385L924.1342708333333,28.999997508479385L924.4705642361112,28.999997508479385L924.8068576388888,28.999997508479385L926.15203125,28.999997508479385L926.8246180555556,28.999997508479385L928.8423784722222,28.999997508479385L929.8512586805556,28.999997508479385L930.8601388888889,28.999997508479385L931.5327256944445,28.999997508479385L933.2141927083334,28.999997508479385L935.2319531249999,28.999997508479385L936.9134201388888,28.999997508479385L937.5860069444445,28.999997508479385L938.25859375,28.999997508479385L938.5948871527777,28.999997508479385L938.9311805555556,28.999997508479385L939.6037673611111,28.999997508479385L939.9400607638889,28.999997508479385L942.9667013888889,28.999997508479385L944.311875,28.999997508479385L945.3207552083334,28.999997508479385L946.6659288194444,28.999997508479385L949.6925694444445,28.999997508479385L950.7014496527777,28.999997508479385L952.0466232638889,28.999997508479385L952.3829166666666,28.999997508479385L953.391796875,28.999997508479385L954.0643836805555,28.999997508479385L954.4006770833333,28.999997508479385L956.4184375000001,28.999997508479385L958.4361979166666,28.999997508479385L959.7813715277778,28.999997508479385L961.1265451388889,28.999997508479385L961.7991319444444,28.999997508479385L962.1354253472222,28.999997508479385L963.4805989583333,28.999997508479385L964.8257725694444,28.999997508479385L965.498359375,28.999997508479385L966.1709461805555,28.999997508479385L968.5250000000001,28.999997508479385L968.8612934027777,28.999997508479385L970.206467013889,28.999997508479385L971.551640625,28.999997508479385L972.5605208333334,28.999997508479385L973.2331076388889,28.999997508479385L973.5694010416667,28.999997508479385L973.9056944444444,28.999997508479385L974.9145746527778,28.999997508479385L975.5871614583333,28.999997508479385L975.9234548611112,28.999997508479385L976.5960416666667,28.999997508479385L977.2686284722222,28.999997508479385L978.2775086805556,28.999997508479385L978.9500954861111,28.999997508479385L979.6226822916667,28.999997508479385L979.9589756944443,28.999997508479385L980.2952690972222,28.999997508479385L980.9678559027777,28.999997508479385L981.6404427083332,28.999997508479385L983.3219097222221,28.999997508479385L983.9944965277779,28.999997508479385L984.3307899305555,28.999997508479385L986.6848437499999,28.999997508479385L987.3574305555557,28.999997508479385L988.0300173611112,28.999997508479385L988.3663107638889,28.999997508479385L992.0655381944445,28.999997508479385L995.764765625,28.999997508479385L996.1010590277779,28.999997508479385L996.7736458333334,28.999997508479385L997.7825260416668,28.999997508479385L999.1276996527778,28.999997508479385L999.8002864583333,28.999997508479385L1000.1365798611112,28.999997508479385L1001.818046875,28.999997508479385L1002.1543402777777,28.999997508479385L1002.4906336805556,28.999997508479385L1003.4995138888889,28.999997508479385L1003.8358072916667,28.999997508479385L1004.8446875,28.999997508479385L1006.8624479166666,28.999997508479385L1007.1987413194445,28.999997508479385L1007.871328125,28.999997508479385L1008.5439149305555,28.999997508479385L1009.2165017361111,28.999997508479385L1009.5527951388889,28.999997508479385L1013.2520225694445,28.999997508479385L1013.5883159722222,28.999997508479385L1013.924609375,28.999997508479385L1014.9334895833334,28.999997508479385L1016.6149565972223,28.999997508479385L1016.95125,28.999997508479385L1018.6327170138889,28.999997508479385L1018.9690104166667,28.999997508479385L1019.3053038194445,28.999997508479385L1019.6415972222222,28.999997508479385L1020.3141840277777,28.999997508479385L1020.6504774305556,28.999997508479385L1020.9867708333334,28.999997508479385L1021.9956510416666,28.999997508479385L1025.6948784722222,28.999997508479385L1027.712638888889,28.999997508479385L1028.3852256944444,28.999997508479385L1031.0755729166667,28.999997508479385L1031.4118663194445,28.999997508479385L1031.7481597222222,28.999997508479385L1032.4207465277777,28.999997508479385L1034.7748003472223,28.999997508479385L1035.7836805555555,28.999997508479385L1036.4562673611113,28.999997508479385L1037.4651475694443,28.999997508479385L1038.137734375,28.999997508479385L1038.8103211805555,28.999997508479385L1041.8369618055556,28.999997508479385L1042.1732552083333,28.999997508479385L1042.509548611111,28.999997508479385L1043.1821354166666,28.999997508479385L1043.8547222222223,28.999997508479385L1044.5273090277778,28.999997508479385L1045.1998958333334,28.999997508479385L1045.536189236111,28.999997508479385L1046.8813628472221,28.999997508479385L1047.21765625,28.999997508479385L1047.5539496527779,28.999997508479385L1049.2354166666667,28.999997508479385L1049.5717100694444,28.999997508479385L1050.2442968750001,28.999997508479385L1050.9168836805557,28.999997508479385L1051.2531770833332,28.999997508479385L1052.5983506944444,28.999997508479385L1052.9346440972222,28.999997508479385L1054.2798177083334,28.999997508479385L1054.616111111111,28.999997508479385L1054.952404513889,28.999997508479385L1055.2886979166667,28.999997508479385L1055.9612847222222,28.999997508479385L1056.297578125,28.999997508479385L1056.6338715277777,28.999997508479385L1058.9879253472222,28.999997508479385L1059.32421875,28.999997508479385L1059.6605121527778,28.999997508479385L1061.3419791666668,28.999997508479385L1061.6782725694445,28.999997508479385L1063.0234461805555,28.999997508479385L1064.032326388889,28.999997508479385L1065.041206597222,28.999997508479385L1065.7137934027778,28.999997508479385L1066.3863802083333,28.999997508479385L1067.0589670138888,28.999997508479385L1067.3952604166668,28.999997508479385L1067.7315538194443,28.999997508479385L1069.4130208333333,28.999997508479385L1069.749314236111,28.999997508479385L1073.7848350694444,28.999997508479385L1074.457421875,28.999997508479385L1076.8114756944444,28.999997508479385L1078.829236111111,28.999997508479385L1079.165529513889,28.999997508479385L1082.8647569444445,28.999997508479385L1083.2010503472222,28.999997508479385L1086.2276909722223,28.999997508479385L1086.9002777777778,28.999997508479385L1087.5728645833333,28.999997508479385L1087.909157986111,28.999997508479385L1088.5817447916668,28.999997508479385L1089.2543315972223,28.999997508479385L1089.590625,28.999997508479385L1090.5995052083333,28.999997508479385L1091.9446788194443,28.999997508479385L1092.2809722222223,28.999997508479385L1093.962439236111,28.999997508479385L1094.6350260416666,28.999997508479385L1095.3076128472221,28.999997508479385L1095.64390625,28.999997508479385L1096.9890798611111,28.999997508479385L1097.6616666666666,28.999997508479385L1098.670546875,28.999997508479385L1101.3608940972222,28.999997508479385L1101.6971875,28.999997508479385L1102.0334809027777,28.999997508479385L1102.3697743055557,28.999997508479385L1103.0423611111112,28.999997508479385L1104.723828125,28.999997508479385L1105.3964149305555,28.999997508479385L1106.0690017361112,28.999997508479385L1106.7415885416667,28.999997508479385L1108.0867621527777,28.999997508479385L1109.431935763889,28.999997508479385L1109.7682291666665,28.999997508479385L1112.1222829861113,28.999997508479385L1112.4585763888888,28.999997508479385L1113.1311631944443,28.999997508479385L1113.4674565972223,28.999997508479385L1114.4763368055555,28.999997508479385L1115.148923611111,28.999997508479385L1115.485217013889,28.999997508479385L1115.8215104166666,28.999997508479385L1116.4940972222223,28.999997508479385L1116.830390625,28.999997508479385L1118.5118576388888,28.999997508479385L1119.85703125,28.999997508479385L1120.1933246527778,28.999997508479385L1124.9014322916667,28.999997508479385L1125.9103125000001,28.999997508479385L1126.9191927083332,28.999997508479385L1127.9280729166667,28.999997508479385L1129.273246527778,28.999997508479385L1129.6095399305555,28.999997508479385L1130.282126736111,28.999997508479385L1130.618420138889,28.999997508479385L1130.9547135416667,28.999997508479385L1132.9724739583332,28.999997508479385L1134.6539409722222,28.999997508479385L1134.990234375,28.999997508479385L1135.3265277777778,28.999997508479385L1135.6628211805555,28.999997508479385L1136.6717013888888,28.999997508479385L1137.3442881944445,28.999997508479385L1137.6805815972223,28.999997508479385L1139.698342013889,28.999997508479385L1140.707222222222,28.999997508479385L1141.3798090277778,33.84299914800803L1141.7161024305556,37.068438239934046L1142.388689236111,39.21658067515678L1142.7249826388888,40.64724353701518L1143.330310763889,41.6000650030128L1143.3975694444443,42.23464409936727" style="fill: none;" fill="none"></path></g></g></g></g><g opacity="0.2"><g><g><g><path stroke="rgb(238, 51, 119)" stroke-width="2px" d="M135.52624131944444,333.500000036609L135.86253472222222,333.500000036609L137.8802951388889,333.500000036609L139.22546875,333.500000036609L139.5617621527778,333.500000036609L140.5706423611111,333.500000036609L140.9069357638889,333.500000036609L141.24322916666668,333.500000036609L141.91581597222222,319.00000007321796L142.252109375,319.00000007321796L143.26098958333333,319.00000007321796L143.5972829861111,319.00000007321796L147.29651041666668,319.00000007321796L147.96909722222222,319.00000007321796L150.32315104166665,319.00000007321796L150.65944444444443,319.00000007321796L150.99573784722222,304.4999984613678L151.66832465277776,304.4999984613678L152.6772048611111,304.4999984613678L153.68608506944443,304.4999984613678L154.69496527777775,304.4999984613678L155.03125868055557,304.4999984613678L155.36755208333332,304.4999984613678L155.70384548611113,304.4999984613678L156.37643229166667,304.4999984613678L156.71272569444446,304.4999984613678L157.0490190972222,304.4999984613678L157.3853125,304.4999984613678L158.05789930555557,304.4999984613678L158.39419270833332,304.4999984613678L160.411953125,290.0000001464359L161.08453993055556,290.0000001464359L162.0934201388889,290.0000001464359L163.1023003472222,290.0000001464359L164.44747395833335,290.0000001464359L167.8104079861111,290.0000001464359L169.1555815972222,290.0000001464359L170.16446180555553,275.50000183150405L170.50075520833335,275.50000183150405L171.1733420138889,275.50000183150405L173.52739583333334,275.50000183150405L175.20886284722224,275.50000183150405L176.55403645833334,275.50000183150405L176.8903298611111,275.50000183150405L177.56291666666667,275.50000183150405L178.23550347222223,275.50000183150405L180.25326388888888,260.9999969227356L180.58955729166667,260.9999969227356L182.94361111111112,260.9999969227356L183.61619791666666,260.9999969227356L183.95249131944445,260.9999969227356L184.9613715277778,260.9999969227356L187.31542534722223,260.9999969227356L188.32430555555555,246.49999860780372L188.99689236111112,246.49999860780372L189.6694791666667,246.49999860780372L191.68723958333334,246.49999860780372L192.02353298611112,246.49999860780372L192.35982638888888,246.49999860780372L194.04129340277777,246.49999860780372L195.38646701388888,246.49999860780372L196.3953472222222,246.49999860780372L196.731640625,246.49999860780372L197.06793402777777,246.49999860780372L198.4131076388889,232.00000029287185L198.74940104166666,232.00000029287185L199.08569444444444,232.00000029287185L201.4397482638889,232.00000029287185L202.44862847222223,232.00000029287185L202.784921875,232.00000029287185L203.12121527777776,232.00000029287185L203.45750868055558,232.00000029287185L204.1300954861111,232.00000029287185L205.47526909722222,232.00000029287185L206.1478559027778,232.00000029287185L206.82044270833333,217.49999538410339L208.16561631944447,217.49999538410339L208.50190972222222,217.49999538410339L208.83820312499998,217.49999538410339L209.84708333333333,217.49999538410339L211.52855034722222,217.49999538410339L214.89148437499998,217.49999538410339L216.57295138888887,203.00000366300813L216.90924479166668,203.00000366300813L217.24553819444444,203.00000366300813L219.93588541666668,203.00000366300813L221.2810590277778,203.00000366300813L221.61735243055554,203.00000366300813L221.95364583333333,203.00000366300813L225.6528732638889,188.49999875423967L226.66175347222224,188.49999875423967L227.33434027777776,188.49999875423967L228.00692708333332,188.49999875423967L228.6795138888889,188.49999875423967L229.35210069444443,188.49999875423967L230.36098090277775,188.49999875423967L231.36986111111113,188.49999875423967L232.04244791666667,188.49999875423967L233.72391493055557,188.49999875423967L234.39650173611113,173.99999384547118L234.7327951388889,173.99999384547118L237.42314236111113,173.99999384547118L238.09572916666664,173.99999384547118L239.44090277777778,173.99999384547118L240.7860763888889,173.99999384547118L241.45866319444445,173.99999384547118L241.7949565972222,173.99999384547118L242.80383680555553,173.99999384547118L247.8482378472222,159.5000021243759L248.18453125,159.5000021243759L249.8659982638889,159.5000021243759L250.53858506944442,159.5000021243759L250.87487847222224,159.5000021243759L252.8926388888889,144.99999721560744L253.56522569444442,144.99999721560744L254.91039930555556,144.99999721560744L256.25557291666667,144.99999721560744L256.5918663194444,144.99999721560744L256.92815972222223,144.99999721560744L257.264453125,144.99999721560744L257.6007465277778,144.99999721560744L257.93703993055556,144.99999721560744L261.6362673611111,144.99999721560744L264.3266145833333,130.50000549451215L265.67178819444445,130.50000549451215L266.344375,130.50000549451215L267.0169618055556,130.50000549451215L268.0258420138889,130.50000549451215L269.70730902777774,130.50000549451215L270.3798958333333,130.50000549451215L272.0613628472222,116.00000058574368L273.40653645833333,116.00000058574368L273.74282986111115,116.00000058574368L274.0791232638889,116.00000058574368L276.09688368055555,116.00000058574368L276.4331770833333,116.00000058574368L277.44205729166663,116.00000058574368L277.77835069444444,116.00000058574368L279.1235243055556,116.00000058574368L280.80499131944447,101.49999567697525L281.1412847222222,101.49999567697525L281.47757812500004,101.49999567697525L282.15016493055555,101.49999567697525L283.4953385416667,101.49999567697525L283.83163194444444,101.49999567697525L284.50421875,101.49999567697525L285.8493923611111,101.49999567697525L286.52197916666665,101.49999567697525L287.8671527777778,101.49999567697525L289.2123263888889,101.49999567697525L289.5486197916667,101.49999567697525L290.89379340277776,86.99999076820679L291.2300868055556,86.99999076820679L291.9026736111111,86.99999076820679L292.57526041666665,86.99999076820679L293.9204340277778,86.99999076820679L294.25672743055554,86.99999076820679L295.93819444444443,86.99999076820679L296.27448784722225,86.99999076820679L297.28336805555557,86.99999076820679L298.2922482638889,86.99999076820679L298.62854166666665,86.99999076820679L298.96483506944446,86.99999076820679L299.637421875,72.50001223478466L300.6463020833333,72.50001223478466L301.99147569444443,72.50001223478466L303.3366493055555,72.50001223478466L303.6729427083334,72.50001223478466L305.690703125,72.50001223478466L306.0269965277778,72.50001223478466L306.36328993055554,72.50001223478466L306.69958333333335,72.50001223478466L307.0358767361111,72.50001223478466L307.37217013888886,72.50001223478466L308.38105034722224,72.50001223478466L308.71734375,58.000007326016195L309.05363715277775,58.000007326016195L313.7617447916667,58.000007326016195L314.0980381944444,58.000007326016195L314.770625,58.000007326016195L315.10691840277775,58.000007326016195L315.44321180555556,58.000007326016195L316.11579861111113,58.000007326016195L316.78838541666664,58.000007326016195L317.46097222222227,58.000007326016195L318.1335590277778,43.50000241724777L318.46985243055553,43.50000241724777L319.4787326388889,43.50000241724777L320.1513194444444,43.50000241724777L321.1601996527778,43.50000241724777L321.49649305555556,43.50000241724777L323.51425347222226,43.50000241724777L323.850546875,43.50000241724777L324.1868402777778,43.50000241724777L325.5320138888889,43.50000241724777L326.5408940972222,43.50000241724777L327.2134809027778,28.9999975084793L328.2223611111111,28.9999975084793L329.5675347222222,28.9999975084793L330.91270833333334,28.9999975084793L331.24900173611115,28.9999975084793L332.2578819444444,28.9999975084793L332.93046875000005,28.9999975084793L333.2667621527778,28.9999975084793L334.27564236111107,28.9999975084793L334.9482291666667,28.9999975084793L335.6208159722222,28.9999975084793L335.957109375,28.9999975084793L336.6296961805556,28.9999975084793L336.96598958333334,28.9999975084793L338.6474565972222,28.9999975084793L340.32892361111107,28.9999975084793L340.66521701388893,28.9999975084793L341.33780381944445,28.9999975084793L342.6829774305556,28.9999975084793L343.3555642361111,28.9999975084793L343.6918576388889,28.9999975084793L344.70073784722223,28.9999975084793L345.3733246527778,28.9999975084793L345.70961805555555,28.9999975084793L347.0547916666667,28.9999975084793L348.3999652777778,28.9999975084793L349.4088454861111,28.9999975084793L349.74513888888885,28.9999975084793L350.08143229166666,28.9999975084793L350.41772569444447,28.9999975084793L350.7540190972222,28.9999975084793L352.4354861111111,28.9999975084793L353.1080729166667,28.9999975084793L353.44436631944444,28.9999975084793L354.11695312499995,28.9999975084793L354.4532465277778,28.9999975084793L355.4621267361111,28.9999975084793L356.1347135416667,28.9999975084793L358.4887673611111,28.9999975084793L359.49764756944444,28.9999975084793L361.17911458333333,28.9999975084793L361.5154079861111,28.9999975084793L362.8605815972222,28.9999975084793L364.20575520833336,28.9999975084793L365.2146354166667,28.9999975084793L366.8961024305556,28.9999975084793L367.5686892361111,28.9999975084793L368.24127604166665,28.9999975084793L368.57756944444446,28.9999975084793L369.25015625,28.9999975084793L370.25903645833336,28.9999975084793L371.2679166666666,28.9999975084793L372.94938368055557,28.9999975084793L374.63085069444446,28.9999975084793L375.3034375,28.9999975084793L376.31231770833335,28.9999975084793L376.6486111111111,28.9999975084793L377.3211979166666,28.9999975084793L377.99378472222224,28.9999975084793L378.330078125,28.9999975084793L379.0026649305555,28.9999975084793L379.3389583333334,28.9999975084793L380.0115451388889,28.9999975084793L380.34783854166665,28.9999975084793L380.68413194444446,28.9999975084793L382.36559895833335,28.9999975084793L383.71077256944443,28.9999975084793L384.383359375,28.9999975084793L388.41888020833335,28.9999975084793L389.0914670138889,28.9999975084793L391.10922743055556,28.9999975084793L391.4455208333333,28.9999975084793L392.45440104166664,28.9999975084793L392.7906944444444,28.9999975084793L393.7995746527778,28.9999975084793L394.80845486111116,28.9999975084793L395.1447482638889,28.9999975084793L395.8173350694444,28.9999975084793L396.15362847222224,28.9999975084793L396.489921875,28.9999975084793L396.8262152777778,28.9999975084793L397.16250868055556,28.9999975084793L399.18026909722226,28.9999975084793L400.18914930555553,28.9999975084793L404.5609635416667,28.9999975084793L404.89725694444445,28.9999975084793L405.2335503472222,28.9999975084793L405.56984375,28.9999975084793L406.57872395833334,28.9999975084793L409.26907118055556,28.9999975084793L409.6053645833333,28.9999975084793L412.2957118055556,28.9999975084793L412.63200520833334,28.9999975084793L413.9771788194444,28.9999975084793L414.3134722222222,28.9999975084793L414.9860590277778,28.9999975084793L415.32235243055555,28.9999975084793L416.33123263888893,28.9999975084793L416.6675260416667,28.9999975084793L417.67640624999996,28.9999975084793L418.3489930555556,28.9999975084793L420.0304600694444,28.9999975084793L420.36675347222223,28.9999975084793L422.38451388888893,28.9999975084793L423.3933940972222,28.9999975084793L424.0659809027778,28.9999975084793L425.0748611111111,28.9999975084793L425.41115451388885,28.9999975084793L426.756328125,28.9999975084793L427.0926215277778,28.9999975084793L431.46443576388884,28.9999975084793L432.13702256944447,28.9999975084793L433.48219618055555,28.9999975084793L434.1547829861111,28.9999975084793L435.16366319444444,28.9999975084793L435.83625,28.9999975084793L436.17254340277776,28.9999975084793L437.1814236111111,28.9999975084793L437.51771701388884,28.9999975084793L439.19918402777773,28.9999975084793L439.5354774305556,28.9999975084793L440.2080642361111,28.9999975084793L440.54435763888887,28.9999975084793L441.55323784722225,28.9999975084793L442.8984114583333,28.9999975084793L443.2347048611111,28.9999975084793L443.90729166666665,28.9999975084793L446.2613454861111,28.9999975084793L446.9339322916666,28.9999975084793L447.2702256944445,28.9999975084793L447.60651909722225,28.9999975084793L449.96057291666665,28.9999975084793L450.969453125,28.9999975084793L451.97833333333335,28.9999975084793L453.3235069444445,28.9999975084793L454.33238715277776,28.9999975084793L455.34126736111114,28.9999975084793L457.022734375,28.9999975084793L458.03161458333335,28.9999975084793L458.70420138888886,28.9999975084793L459.37678819444443,28.9999975084793L459.71308159722224,28.9999975084793L463.076015625,28.9999975084793L463.4123090277778,28.9999975084793L464.4211892361111,28.9999975084793L465.76636284722224,28.9999975084793L467.1115364583333,28.9999975084793L467.7841232638889,28.9999975084793L468.4567100694444,28.9999975084793L469.129296875,28.9999975084793L469.80188368055553,28.9999975084793L470.1381770833333,28.9999975084793L471.14705729166667,28.9999975084793L471.4833506944444,28.9999975084793L471.81964409722224,28.9999975084793L472.4922309027778,28.9999975084793L474.17369791666664,28.9999975084793L474.84628472222226,28.9999975084793L475.5188715277778,28.9999975084793L477.8729253472222,28.9999975084793L479.2180989583333,28.9999975084793L479.8906857638889,28.9999975084793L482.24473958333334,28.9999975084793L482.58103298611115,28.9999975084793L482.9173263888889,28.9999975084793L483.25361979166667,28.9999975084793L483.5899131944444,28.9999975084793L484.93508680555556,28.9999975084793L485.94396701388894,28.9999975084793L489.30690104166666,28.9999975084793L489.9794878472222,28.9999975084793L490.6520746527778,28.9999975084793L491.3246614583333,28.9999975084793L492.3335416666667,28.9999975084793L493.0061284722222,28.9999975084793L493.6787152777778,28.9999975084793L494.0150086805556,28.9999975084793L494.35130208333334,28.9999975084793L494.6875954861111,28.9999975084793L495.0238888888889,28.9999975084793L495.36018229166666,28.9999975084793L496.3690625,28.9999975084793L497.3779427083333,28.9999975084793L499.0594097222222,28.9999975084793L499.39570312499995,28.9999975084793L499.7319965277778,28.9999975084793L501.07717013888885,28.9999975084793L503.4312239583333,28.9999975084793L504.1038107638889,28.9999975084793L504.77639756944444,28.9999975084793L505.1126909722222,28.9999975084793L505.44898437499995,28.9999975084793L506.45786458333333,28.9999975084793L507.13045138888884,28.9999975084793L507.80303819444447,28.9999975084793L508.1393315972222,28.9999975084793L508.81191840277774,28.9999975084793L510.4933854166667,28.9999975084793L511.1659722222222,28.9999975084793L511.502265625,28.9999975084793L512.5111458333333,28.9999975084793L512.8474392361111,28.9999975084793L513.5200260416667,28.9999975084793L513.8563194444445,28.9999975084793L514.8651996527777,28.9999975084793L515.5377864583334,28.9999975084793L516.2103732638889,28.9999975084793L517.2192534722222,28.9999975084793L519.5733072916667,28.9999975084793L520.9184809027778,28.9999975084793L521.2547743055555,28.9999975084793L521.5910677083333,28.9999975084793L524.2814149305556,28.9999975084793L524.9540017361111,28.9999975084793L525.6265885416666,28.9999975084793L526.63546875,28.9999975084793L528.6532291666666,28.9999975084793L528.9895225694445,28.9999975084793L529.662109375,28.9999975084793L529.9984027777778,28.9999975084793L530.3346961805555,28.9999975084793L531.6798697916666,28.9999975084793L532.3524565972223,28.9999975084793L533.0250434027778,28.9999975084793L534.0339236111112,28.9999975084793L534.3702170138889,28.9999975084793L535.3790972222223,28.9999975084793L535.715390625,28.9999975084793L536.7242708333333,28.9999975084793L539.0783246527777,28.9999975084793L539.4146180555555,28.9999975084793L539.7509114583333,28.9999975084793L542.1049652777778,28.9999975084793L543.4501388888889,28.9999975084793L545.1316059027778,28.9999975084793L545.8041927083333,28.9999975084793L547.1493663194444,28.9999975084793L548.1582465277778,28.9999975084793L550.1760069444445,28.9999975084793L552.1937673611111,28.9999975084793L552.8663541666666,28.9999975084793L553.875234375,28.9999975084793L554.2115277777777,28.9999975084793L554.5478211805555,28.9999975084793L554.8841145833333,28.9999975084793L555.5567013888889,28.9999975084793L556.2292881944444,28.9999975084793L556.5655815972221,28.9999975084793L557.5744618055555,28.9999975084793L557.9107552083333,28.9999975084793L559.928515625,28.9999975084793L561.2736892361111,28.9999975084793L562.9551562500001,28.9999975084793L563.2914496527778,28.9999975084793L563.6277430555556,28.9999975084793L564.9729166666667,28.9999975084793L565.981796875,28.9999975084793L567.6632638888889,28.9999975084793L568.6721440972223,28.9999975084793L570.353611111111,28.9999975084793L570.6899045138889,28.9999975084793L571.6987847222222,28.9999975084793L573.0439583333333,28.9999975084793L574.3891319444444,28.9999975084793L576.0705989583333,28.9999975084793L577.7520659722222,28.9999975084793L578.4246527777779,28.9999975084793L579.4335329861111,28.9999975084793L579.7698263888889,28.9999975084793L580.4424131944445,28.9999975084793L582.7964670138889,28.9999975084793L586.1594010416667,28.9999975084793L587.16828125,28.9999975084793L588.5134548611111,28.9999975084793L589.1860416666667,28.9999975084793L591.2038020833334,28.9999975084793L592.5489756944445,28.9999975084793L592.8852690972222,28.9999975084793L593.2215625,28.9999975084793L593.5578559027778,28.9999975084793L593.8941493055556,28.9999975084793L596.248203125,28.9999975084793L596.5844965277778,28.9999975084793L597.9296701388889,28.9999975084793L599.6111371527777,28.9999975084793L599.9474305555556,28.9999975084793L601.2926041666666,28.9999975084793L602.301484375,28.9999975084793L603.6466579861111,28.9999975084793L610.3725260416667,28.9999975084793L611.7176996527778,28.9999975084793L615.0806336805556,28.9999975084793L615.4169270833333,28.9999975084793L616.7621006944445,28.9999975084793L617.4346875,28.9999975084793L617.7709809027779,28.9999975084793L618.1072743055555,28.9999975084793L618.4435677083334,28.9999975084793L619.4524479166668,28.9999975084793L621.1339149305556,28.9999975084793L621.8065017361112,28.9999975084793L622.1427951388888,28.9999975084793L623.1516753472222,28.9999975084793L623.8242621527777,28.9999975084793L624.1605555555556,28.9999975084793L624.8331423611111,28.9999975084793L625.1694357638889,28.9999975084793L628.1960763888889,28.9999975084793L629.2049565972222,28.9999975084793L629.54125,28.9999975084793L630.2138368055555,28.9999975084793L632.5678906249999,28.9999975084793L633.9130642361112,28.9999975084793L634.9219444444445,28.9999975084793L635.9308246527777,28.9999975084793L636.2671180555556,28.9999975084793L637.6122916666666,28.9999975084793L637.9485850694444,28.9999975084793L638.9574652777778,28.9999975084793L641.3115190972222,28.9999975084793L641.6478125,28.9999975084793L641.9841059027777,28.9999975084793L642.6566927083334,28.9999975084793L643.3292795138889,28.9999975084793L643.6655729166666,28.9999975084793L646.0196267361111,28.9999975084793L647.70109375,28.9999975084793L649.7188541666666,28.9999975084793L650.727734375,28.9999975084793L651.0640277777778,28.9999975084793L652.0729079861112,28.9999975084793L654.4269618055556,28.9999975084793L655.4358420138889,28.9999975084793L655.7721354166666,28.9999975084793L656.1084288194445,28.9999975084793L659.1350694444444,28.9999975084793L660.1439496527778,28.9999975084793L660.4802430555555,28.9999975084793L661.1528298611111,28.9999975084793L662.1617100694444,28.9999975084793L662.4980034722223,28.9999975084793L662.834296875,28.9999975084793L663.8431770833333,28.9999975084793L665.1883506944444,28.9999975084793L666.8698177083332,28.9999975084793L670.2327517361111,28.9999975084793L670.5690451388889,28.9999975084793L670.9053385416667,28.9999975084793L672.2505121527778,28.9999975084793L672.5868055555555,28.9999975084793L672.9230989583333,28.9999975084793L675.6134461805556,28.9999975084793L676.6223263888888,28.9999975084793L679.9852604166666,28.9999975084793L680.994140625,28.9999975084793L682.339314236111,28.9999975084793L683.6844878472223,28.9999975084793L684.3570746527778,28.9999975084793L685.3659548611112,28.9999975084793L685.7022482638889,28.9999975084793L687.3837152777778,28.9999975084793L687.7200086805556,28.9999975084793L689.0651822916667,28.9999975084793L689.4014756944445,28.9999975084793L689.7377690972222,28.9999975084793L690.0740625,28.9999975084793L690.7466493055556,28.9999975084793L692.7644097222221,28.9999975084793L694.1095833333334,28.9999975084793L695.4547569444444,28.9999975084793L696.7999305555556,28.9999975084793L697.8088107638888,28.9999975084793L698.4813975694445,28.9999975084793L700.4991579861111,28.9999975084793L700.8354513888889,28.9999975084793L701.1717447916667,28.9999975084793L701.5080381944445,28.9999975084793L703.1895052083333,28.9999975084793L703.5257986111111,28.9999975084793L703.8620920138889,28.9999975084793L705.207265625,28.9999975084793L706.2161458333334,28.9999975084793L706.8887326388889,28.9999975084793L707.8976128472223,28.9999975084793L708.5701996527778,28.9999975084793L708.9064930555556,28.9999975084793L709.2427864583333,28.9999975084793L709.5790798611112,28.9999975084793L711.5968402777777,28.9999975084793L712.9420138888889,28.9999975084793L713.2783072916666,28.9999975084793L713.6146006944444,28.9999975084793L713.9508940972223,28.9999975084793L715.6323611111111,28.9999975084793L718.3227083333334,28.9999975084793L718.6590017361111,28.9999975084793L720.0041753472223,28.9999975084793L720.6767621527778,28.9999975084793L721.6856423611111,28.9999975084793L722.3582291666667,28.9999975084793L723.367109375,28.9999975084793L723.7034027777777,28.9999975084793L726.39375,28.9999975084793L727.4026302083333,28.9999975084793L730.7655642361111,28.9999975084793L731.4381510416666,28.9999975084793L732.44703125,28.9999975084793L733.7922048611111,28.9999975084793L734.1284982638889,28.9999975084793L734.4647916666667,28.9999975084793L735.473671875,28.9999975084793L736.4825520833333,28.9999975084793L737.8277256944444,28.9999975084793L739.1728993055555,28.9999975084793L739.7782274305556,28.9999975084793L741.5269531250001,28.9999975084793L742.1995399305556,28.9999975084793L745.2261805555555,28.9999975084793L746.5713541666667,28.9999975084793L747.580234375,28.9999975084793L747.9165277777778,28.9999975084793L748.5891145833333,28.9999975084793L748.9254079861112,28.9999975084793L749.5979947916667,28.9999975084793L750.9431684027778,28.9999975084793L751.6157552083333,28.9999975084793L753.9698090277777,28.9999975084793L754.3061024305556,28.9999975084793L754.6423958333332,28.9999975084793L754.9786892361111,28.9999975084793L755.9875694444445,28.9999975084793L759.0142100694444,28.9999975084793L760.6956770833333,28.9999975084793L761.0319704861112,28.9999975084793L761.3682638888889,28.9999975084793L762.7134375,28.9999975084793L763.0497309027778,28.9999975084793L763.7223177083333,28.9999975084793L764.7311979166667,28.9999975084793L765.740078125,28.9999975084793L766.7489583333333,28.9999975084793L767.0852517361111,28.9999975084793L767.7578385416666,28.9999975084793L768.4304253472221,28.9999975084793L769.1030121527779,28.9999975084793L770.7844791666668,28.9999975084793L772.1296527777778,28.9999975084793L773.1385329861112,28.9999975084793L775.1562934027777,28.9999975084793L775.4925868055556,28.9999975084793L775.8288802083333,28.9999975084793L776.8377604166667,28.9999975084793L778.5192274305556,28.9999975084793L780.5369878472222,28.9999975084793L780.87328125,28.9999975084793L782.2184548611111,28.9999975084793L784.2362152777778,28.9999975084793L784.5725086805556,28.9999975084793L785.9176822916667,28.9999975084793L786.2539756944445,28.9999975084793L786.5902690972222,28.9999975084793L787.5991493055556,28.9999975084793L788.2717361111111,28.9999975084793L789.2806163194444,28.9999975084793L790.2894965277778,28.9999975084793L791.2983767361111,28.9999975084793L792.6435503472222,28.9999975084793L792.97984375,28.9999975084793L793.3161371527777,28.9999975084793L793.6524305555556,28.9999975084793L793.9887239583334,28.9999975084793L794.6613107638889,28.9999975084793L794.9976041666666,28.9999975084793L795.3338975694444,28.9999975084793L798.3605381944445,28.9999975084793L799.033125,28.9999975084793L799.7057118055556,28.9999975084793L801.0508854166666,28.9999975084793L801.7234722222223,28.9999975084793L802.059765625,28.9999975084793L803.0686458333333,28.9999975084793L811.8122743055555,28.9999975084793L813.1574479166667,28.9999975084793L813.4937413194444,28.9999975084793L814.8389149305555,28.9999975084793L815.5115017361112,28.9999975084793L816.5203819444444,28.9999975084793L817.8655555555556,28.9999975084793L818.2018489583332,28.9999975084793L819.5470225694445,28.9999975084793L820.5559027777779,28.9999975084793L821.9010763888889,28.9999975084793L824.2551302083333,28.9999975084793L824.5914236111112,28.9999975084793L824.9277170138889,28.9999975084793L828.6269444444443,28.9999975084793L828.9632378472222,28.9999975084793L829.6358246527777,28.9999975084793L830.980998263889,28.9999975084793L832.6624652777779,28.9999975084793L834.3439322916668,28.9999975084793L835.0165190972223,28.9999975084793L835.3528124999999,28.9999975084793L836.0253993055557,28.9999975084793L836.3616927083333,28.9999975084793L836.6979861111112,28.9999975084793L838.0431597222222,28.9999975084793L838.7157465277778,28.9999975084793L839.0520399305556,28.9999975084793L839.7246267361111,28.9999975084793L840.7335069444445,28.9999975084793L841.40609375,28.9999975084793L842.7512673611111,28.9999975084793L843.0875607638889,28.9999975084793L844.432734375,28.9999975084793L844.7690277777779,28.9999975084793L846.1142013888889,28.9999975084793L846.4504947916668,28.9999975084793L847.4593749999999,28.9999975084793L847.7956684027778,28.9999975084793L848.8045486111112,28.9999975084793L851.4948958333333,28.9999975084793L851.8311892361111,28.9999975084793L852.8400694444445,28.9999975084793L854.1852430555556,28.9999975084793L856.2030034722222,28.9999975084793L857.8844704861111,28.9999975084793L859.5659374999999,28.9999975084793L860.5748177083333,28.9999975084793L862.9288715277777,28.9999975084793L865.2829253472223,28.9999975084793L868.9821527777777,28.9999975084793L869.6547395833334,28.9999975084793L871.3362065972223,28.9999975084793L873.0176736111111,28.9999975084793L873.6902604166667,28.9999975084793L874.0265538194445,28.9999975084793L874.3628472222222,28.9999975084793L876.3806076388889,28.9999975084793L877.0531944444444,28.9999975084793L877.3894878472223,28.9999975084793L878.0620746527778,28.9999975084793L878.3983680555555,28.9999975084793L880.4161284722222,28.9999975084793L881.7613020833334,28.9999975084793L882.4338888888889,28.9999975084793L885.4605295138889,28.9999975084793L886.4694097222222,28.9999975084793L887.4782899305555,28.9999975084793L888.1508767361111,28.9999975084793L891.5138107638888,28.9999975084793L892.5226909722222,28.9999975084793L892.8589843750001,28.9999975084793L894.8767447916666,28.9999975084793L895.885625,28.9999975084793L898.912265625,28.9999975084793L900.2574392361112,28.9999975084793L900.5937326388889,28.9999975084793L901.93890625,28.9999975084793L904.2929600694443,28.9999975084793L906.9833072916666,28.9999975084793L908.6647743055555,28.9999975084793L909.0010677083334,28.9999975084793L910.0099479166668,28.9999975084793L910.6825347222223,28.9999975084793L912.3640017361112,28.9999975084793L913.3728819444444,28.9999975084793L915.0543489583333,28.9999975084793L917.072109375,28.9999975084793L917.7446961805556,28.9999975084793L918.7535763888889,28.9999975084793L920.4350434027779,28.9999975084793L921.1076302083334,28.9999975084793L921.443923611111,28.9999975084793L921.7802170138889,28.9999975084793L922.4528038194444,28.9999975084793L922.7890972222223,28.9999975084793L924.1342708333333,28.9999975084793L924.4705642361112,28.9999975084793L924.8068576388888,28.9999975084793L926.15203125,28.9999975084793L926.8246180555556,28.9999975084793L928.8423784722222,28.9999975084793L929.8512586805556,28.9999975084793L930.8601388888889,28.9999975084793L931.5327256944445,28.9999975084793L933.2141927083334,28.9999975084793L935.2319531249999,28.9999975084793L936.9134201388888,28.9999975084793L937.5860069444445,28.9999975084793L938.25859375,28.9999975084793L938.5948871527777,28.9999975084793L938.9311805555556,28.9999975084793L939.6037673611111,28.9999975084793L939.9400607638889,28.9999975084793L942.9667013888889,28.9999975084793L944.311875,28.9999975084793L945.3207552083334,28.9999975084793L946.6659288194444,28.9999975084793L949.6925694444445,28.9999975084793L950.7014496527777,28.9999975084793L952.0466232638889,28.9999975084793L952.3829166666666,28.9999975084793L953.391796875,28.9999975084793L954.0643836805555,28.9999975084793L954.4006770833333,28.9999975084793L956.4184375000001,28.9999975084793L958.4361979166666,28.9999975084793L959.7813715277778,28.9999975084793L961.1265451388889,28.9999975084793L961.7991319444444,28.9999975084793L962.1354253472222,28.9999975084793L963.4805989583333,28.9999975084793L964.8257725694444,28.9999975084793L965.498359375,28.9999975084793L966.1709461805555,28.9999975084793L968.5250000000001,28.9999975084793L968.8612934027777,28.9999975084793L970.206467013889,28.9999975084793L971.551640625,28.9999975084793L972.5605208333334,28.9999975084793L973.2331076388889,28.9999975084793L973.5694010416667,28.9999975084793L973.9056944444444,28.9999975084793L974.9145746527778,28.9999975084793L975.5871614583333,28.9999975084793L975.9234548611112,28.9999975084793L976.5960416666667,28.9999975084793L977.2686284722222,28.9999975084793L978.2775086805556,28.9999975084793L978.9500954861111,28.9999975084793L979.6226822916667,28.9999975084793L979.9589756944443,28.9999975084793L980.2952690972222,28.9999975084793L980.9678559027777,28.9999975084793L981.6404427083332,28.9999975084793L983.3219097222221,28.9999975084793L983.9944965277779,28.9999975084793L984.3307899305555,28.9999975084793L986.6848437499999,28.9999975084793L987.3574305555557,28.9999975084793L988.0300173611112,28.9999975084793L988.3663107638889,28.9999975084793L992.0655381944445,28.9999975084793L995.764765625,28.9999975084793L996.1010590277779,28.9999975084793L996.7736458333334,28.9999975084793L997.7825260416668,28.9999975084793L999.1276996527778,28.9999975084793L999.8002864583333,28.9999975084793L1000.1365798611112,28.9999975084793L1001.818046875,28.9999975084793L1002.1543402777777,28.9999975084793L1002.4906336805556,28.9999975084793L1003.4995138888889,28.9999975084793L1003.8358072916667,28.9999975084793L1004.8446875,28.9999975084793L1006.8624479166666,28.9999975084793L1007.1987413194445,28.9999975084793L1007.871328125,28.9999975084793L1008.5439149305555,28.9999975084793L1009.2165017361111,28.9999975084793L1009.5527951388889,28.9999975084793L1013.2520225694445,28.9999975084793L1013.5883159722222,28.9999975084793L1013.924609375,28.9999975084793L1014.9334895833334,28.9999975084793L1016.6149565972223,28.9999975084793L1016.95125,28.9999975084793L1018.6327170138889,28.9999975084793L1018.9690104166667,28.9999975084793L1019.3053038194445,28.9999975084793L1019.6415972222222,28.9999975084793L1020.3141840277777,28.9999975084793L1020.6504774305556,28.9999975084793L1020.9867708333334,28.9999975084793L1021.9956510416666,28.9999975084793L1025.6948784722222,28.9999975084793L1027.712638888889,28.9999975084793L1028.3852256944444,28.9999975084793L1031.0755729166667,28.9999975084793L1031.4118663194445,28.9999975084793L1031.7481597222222,28.9999975084793L1032.4207465277777,28.9999975084793L1034.7748003472223,28.9999975084793L1035.7836805555555,28.9999975084793L1036.4562673611113,28.9999975084793L1037.4651475694443,28.9999975084793L1038.137734375,28.9999975084793L1038.8103211805555,28.9999975084793L1041.8369618055556,28.9999975084793L1042.1732552083333,28.9999975084793L1042.509548611111,28.9999975084793L1043.1821354166666,28.9999975084793L1043.8547222222223,28.9999975084793L1044.5273090277778,28.9999975084793L1045.1998958333334,28.9999975084793L1045.536189236111,28.9999975084793L1046.8813628472221,28.9999975084793L1047.21765625,28.9999975084793L1047.5539496527779,28.9999975084793L1049.2354166666667,28.9999975084793L1049.5717100694444,28.9999975084793L1050.2442968750001,28.9999975084793L1050.9168836805557,28.9999975084793L1051.2531770833332,28.9999975084793L1052.5983506944444,28.9999975084793L1052.9346440972222,28.9999975084793L1054.2798177083334,28.9999975084793L1054.616111111111,28.9999975084793L1054.952404513889,28.9999975084793L1055.2886979166667,28.9999975084793L1055.9612847222222,28.9999975084793L1056.297578125,28.9999975084793L1056.6338715277777,28.9999975084793L1058.9879253472222,28.9999975084793L1059.32421875,28.9999975084793L1059.6605121527778,28.9999975084793L1061.3419791666668,28.9999975084793L1061.6782725694445,28.9999975084793L1063.0234461805555,28.9999975084793L1064.032326388889,28.9999975084793L1065.041206597222,28.9999975084793L1065.7137934027778,28.9999975084793L1066.3863802083333,28.9999975084793L1067.0589670138888,28.9999975084793L1067.3952604166668,28.9999975084793L1067.7315538194443,28.9999975084793L1069.4130208333333,28.9999975084793L1069.749314236111,28.9999975084793L1073.7848350694444,28.9999975084793L1074.457421875,28.9999975084793L1076.8114756944444,28.9999975084793L1078.829236111111,28.9999975084793L1079.165529513889,28.9999975084793L1082.8647569444445,28.9999975084793L1083.2010503472222,28.9999975084793L1086.2276909722223,28.9999975084793L1086.9002777777778,28.9999975084793L1087.5728645833333,28.9999975084793L1087.909157986111,28.9999975084793L1088.5817447916668,28.9999975084793L1089.2543315972223,28.9999975084793L1089.590625,28.9999975084793L1090.5995052083333,28.9999975084793L1091.9446788194443,28.9999975084793L1092.2809722222223,28.9999975084793L1093.962439236111,28.9999975084793L1094.6350260416666,28.9999975084793L1095.3076128472221,28.9999975084793L1095.64390625,28.9999975084793L1096.9890798611111,28.9999975084793L1097.6616666666666,28.9999975084793L1098.670546875,28.9999975084793L1101.3608940972222,28.9999975084793L1101.6971875,28.9999975084793L1102.0334809027777,28.9999975084793L1102.3697743055557,28.9999975084793L1103.0423611111112,28.9999975084793L1104.723828125,28.9999975084793L1105.3964149305555,28.9999975084793L1106.0690017361112,28.9999975084793L1106.7415885416667,28.9999975084793L1108.0867621527777,28.9999975084793L1109.431935763889,28.9999975084793L1109.7682291666665,28.9999975084793L1112.1222829861113,28.9999975084793L1112.4585763888888,28.9999975084793L1113.1311631944443,28.9999975084793L1113.4674565972223,28.9999975084793L1114.4763368055555,28.9999975084793L1115.148923611111,28.9999975084793L1115.485217013889,28.9999975084793L1115.8215104166666,28.9999975084793L1116.4940972222223,28.9999975084793L1116.830390625,28.9999975084793L1118.5118576388888,28.9999975084793L1119.85703125,28.9999975084793L1120.1933246527778,28.9999975084793L1124.9014322916667,28.9999975084793L1125.9103125000001,28.9999975084793L1126.9191927083332,28.9999975084793L1127.9280729166667,28.9999975084793L1129.273246527778,28.9999975084793L1129.6095399305555,28.9999975084793L1130.282126736111,28.9999975084793L1130.618420138889,28.9999975084793L1130.9547135416667,28.9999975084793L1132.9724739583332,28.9999975084793L1134.6539409722222,28.9999975084793L1134.990234375,28.9999975084793L1135.3265277777778,28.9999975084793L1135.6628211805555,28.9999975084793L1136.6717013888888,28.9999975084793L1137.3442881944445,28.9999975084793L1137.6805815972223,28.9999975084793L1139.698342013889,28.9999975084793L1140.707222222222,28.9999975084793L1141.3798090277778,43.50000241724777L1141.7161024305556,43.50000241724777L1142.388689236111,43.50000241724777L1142.7249826388888,43.50000241724777L1143.330310763889,43.50000241724777L1143.3975694444443,43.50000241724777" style="fill: none;" fill="none"></path></g></g></g></g></g></g><g transform="translate(72, 377)" clip-path="url(#clip_1)"><clipPath id="clip_1"><rect width="1210" height="23"></rect></clipPath><g><g><line x1="0" y1="0" x2="0" y2="5" style="visibility: inherit;" fill="rgb(0, 0, 0)" stroke="rgb(204, 204, 204)" stroke-width="1px"></line><line x1="134.51736111111111" y1="0" x2="134.51736111111111" y2="5" style="visibility: inherit;" fill="rgb(0, 0, 0)" stroke="rgb(204, 204, 204)" stroke-width="1px"></line><line x1="269.03472222222223" y1="0" x2="269.03472222222223" y2="5" style="visibility: inherit;" fill="rgb(0, 0, 0)" stroke="rgb(204, 204, 204)" stroke-width="1px"></line><line x1="403.5520833333333" y1="0" x2="403.5520833333333" y2="5" style="visibility: inherit;" fill="rgb(0, 0, 0)" stroke="rgb(204, 204, 204)" stroke-width="1px"></line><line x1="538.0694444444445" y1="0" x2="538.0694444444445" y2="5" style="visibility: inherit;" fill="rgb(0, 0, 0)" stroke="rgb(204, 204, 204)" stroke-width="1px"></line><line x1="672.5868055555555" y1="0" x2="672.5868055555555" y2="5" style="visibility: inherit;" fill="rgb(0, 0, 0)" stroke="rgb(204, 204, 204)" stroke-width="1px"></line><line x1="807.1041666666666" y1="0" x2="807.1041666666666" y2="5" style="visibility: inherit;" fill="rgb(0, 0, 0)" stroke="rgb(204, 204, 204)" stroke-width="1px"></line><line x1="941.6215277777778" y1="0" x2="941.6215277777778" y2="5" style="visibility: inherit;" fill="rgb(0, 0, 0)" stroke="rgb(204, 204, 204)" stroke-width="1px"></line><line x1="1076.138888888889" y1="0" x2="1076.138888888889" y2="5" style="visibility: inherit;" fill="rgb(0, 0, 0)" stroke="rgb(204, 204, 204)" stroke-width="1px"></line><line x1="1210.65625" y1="0" x2="1210.65625" y2="5" style="visibility: inherit;" fill="rgb(0, 0, 0)" stroke="rgb(204, 204, 204)" stroke-width="1px"></line></g><g transform="translate(0, 8)"><text x="0" y="0" dx="0em" dy="0.95em" style="text-anchor: middle; visibility: hidden; font-family: Roboto, sans-serif; font-size: 12px; font-weight: 200;" fill="rgb(255, 255, 255)" stroke="none" stroke-width="1px">-2k</text><text x="134.51736111111111" y="0" dx="0em" dy="0.95em" style="text-anchor: middle; visibility: inherit; font-family: Roboto, sans-serif; font-size: 12px; font-weight: 200;" fill="rgb(255, 255, 255)" stroke="none" stroke-width="1px">0</text><text x="269.03472222222223" y="0" dx="0em" dy="0.95em" style="text-anchor: middle; visibility: inherit; font-family: Roboto, sans-serif; font-size: 12px; font-weight: 200;" fill="rgb(255, 255, 255)" stroke="none" stroke-width="1px">2k</text><text x="403.5520833333333" y="0" dx="0em" dy="0.95em" style="text-anchor: middle; visibility: inherit; font-family: Roboto, sans-serif; font-size: 12px; font-weight: 200;" fill="rgb(255, 255, 255)" stroke="none" stroke-width="1px">4k</text><text x="538.0694444444445" y="0" dx="0em" dy="0.95em" style="text-anchor: middle; visibility: inherit; font-family: Roboto, sans-serif; font-size: 12px; font-weight: 200;" fill="rgb(255, 255, 255)" stroke="none" stroke-width="1px">6k</text><text x="672.5868055555555" y="0" dx="0em" dy="0.95em" style="text-anchor: middle; visibility: inherit; font-family: Roboto, sans-serif; font-size: 12px; font-weight: 200;" fill="rgb(255, 255, 255)" stroke="none" stroke-width="1px">8k</text><text x="807.1041666666666" y="0" dx="0em" dy="0.95em" style="text-anchor: middle; visibility: inherit; font-family: Roboto, sans-serif; font-size: 12px; font-weight: 200;" fill="rgb(255, 255, 255)" stroke="none" stroke-width="1px">10k</text><text x="941.6215277777778" y="0" dx="0em" dy="0.95em" style="text-anchor: middle; visibility: inherit; font-family: Roboto, sans-serif; font-size: 12px; font-weight: 200;" fill="rgb(255, 255, 255)" stroke="none" stroke-width="1px">12k</text><text x="1076.138888888889" y="0" dx="0em" dy="0.95em" style="text-anchor: middle; visibility: inherit; font-family: Roboto, sans-serif; font-size: 12px; font-weight: 200;" fill="rgb(255, 255, 255)" stroke="none" stroke-width="1px">14k</text><text x="1210.65625" y="0" dx="0em" dy="0.95em" style="text-anchor: middle; visibility: hidden; font-family: Roboto, sans-serif; font-size: 12px; font-weight: 200;" fill="rgb(255, 255, 255)" stroke="none" stroke-width="1px">16k</text></g><line x1="0" y1="0" x2="1210.65625" y2="0" fill="rgb(0, 0, 0)" stroke="rgb(204, 204, 204)" stroke-width="1px"></line></g></g></g></g></svg>