<svg viewBox="0 0 1283 400" xmlns="http://www.w3.org/2000/svg"><g><g><g><g><g><line x1="20.390625" y1="287.8051399407447" x2="15.390625" y2="287.8051399407447" style="visibility: inherit;" fill="rgb(0, 0, 0)" stroke="rgb(204, 204, 204)" stroke-width="1px"></line><line x1="20.390625" y1="198.90702204840758" x2="15.390625" y2="198.90702204840758" style="visibility: inherit;" fill="rgb(0, 0, 0)" stroke="rgb(204, 204, 204)" stroke-width="1px"></line><line x1="20.390625" y1="129.95228474905667" x2="15.390625" y2="129.95228474905667" style="visibility: inherit;" fill="rgb(0, 0, 0)" stroke="rgb(204, 204, 204)" stroke-width="1px"></line><line x1="20.390625" y1="73.61216208499985" x2="15.390625" y2="73.61216208499985" style="visibility: inherit;" fill="rgb(0, 0, 0)" stroke="rgb(204, 204, 204)" stroke-width="1px"></line><line x1="20.390625" y1="25.9772671063966" x2="15.390625" y2="25.9772671063966" style="visibility: inherit;" fill="rgb(0, 0, 0)" stroke="rgb(204, 204, 204)" stroke-width="1px"></line></g><g transform="translate(10.390625, 0)"><text x="0" y="287.8051399407447" dx="0em" dy="0.3em" style="text-anchor: end; visibility: inherit; font-family: Roboto, sans-serif; font-size: 12px; font-weight: 200;" fill="rgb(255, 255, 255)" stroke="none" stroke-width="1px">3</text><text x="0" y="198.90702204840758" dx="0em" dy="0.3em" style="text-anchor: end; visibility: inherit; font-family: Roboto, sans-serif; font-size: 12px; font-weight: 200;" fill="rgb(255, 255, 255)" stroke="none" stroke-width="1px">4</text><text x="0" y="129.95228474905667" dx="0em" dy="0.3em" style="text-anchor: end; visibility: inherit; font-family: Roboto, sans-serif; font-size: 12px; font-weight: 200;" fill="rgb(255, 255, 255)" stroke="none" stroke-width="1px">5</text><text x="0" y="73.61216208499985" dx="0em" dy="0.3em" style="text-anchor: end; visibility: inherit; font-family: Roboto, sans-serif; font-size: 12px; font-weight: 200;" fill="rgb(255, 255, 255)" stroke="none" stroke-width="1px">6</text><text x="0" y="25.9772671063966" dx="0em" dy="0.3em" style="text-anchor: end; visibility: inherit; font-family: Roboto, sans-serif; font-size: 12px; font-weight: 200;" fill="rgb(255, 255, 255)" stroke="none" stroke-width="1px">7</text></g><line x1="20.390625" y1="0" x2="20.390625" y2="377" fill="rgb(0, 0, 0)" stroke="rgb(204, 204, 204)" stroke-width="1px"></line></g></g><g transform="translate(20, 0)" clip-path="url(#clip_0)"><clipPath id="clip_0"><rect width="1262" height="377"></rect></clipPath><g><g><g><line x1="0" y1="0" x2="0" y2="377" fill="rgb(0, 0, 0)" stroke="rgb(189, 189, 189)" stroke-width="1px" opacity="0.25"></line><line x1="140.28993055555554" y1="0" x2="140.28993055555554" y2="377" fill="rgb(0, 0, 0)" stroke="rgb(189, 189, 189)" stroke-width="1px" opacity="0.25"></line><line x1="280.5798611111111" y1="0" x2="280.5798611111111" y2="377" fill="rgb(0, 0, 0)" stroke="rgb(189, 189, 189)" stroke-width="1px" opacity="0.25"></line><line x1="420.86979166666663" y1="0" x2="420.86979166666663" y2="377" fill="rgb(0, 0, 0)" stroke="rgb(189, 189, 189)" stroke-width="1px" opacity="0.25"></line><line x1="561.1597222222222" y1="0" x2="561.1597222222222" y2="377" fill="rgb(0, 0, 0)" stroke="rgb(189, 189, 189)" stroke-width="1px" opacity="0.25"></line><line x1="701.4496527777778" y1="0" x2="701.4496527777778" y2="377" fill="rgb(0, 0, 0)" stroke="rgb(189, 189, 189)" stroke-width="1px" opacity="0.25"></line><line x1="841.7395833333333" y1="0" x2="841.7395833333333" y2="377" fill="rgb(0, 0, 0)" stroke="rgb(189, 189, 189)" stroke-width="1px" opacity="0.25"></line><line x1="982.0295138888889" y1="0" x2="982.0295138888889" y2="377" fill="rgb(0, 0, 0)" stroke="rgb(189, 189, 189)" stroke-width="1px" opacity="0.25"></line><line x1="1122.3194444444443" y1="0" x2="1122.3194444444443" y2="377" fill="rgb(0, 0, 0)" stroke="rgb(189, 189, 189)" stroke-width="1px" opacity="0.25"></line><line x1="1262.609375" y1="0" x2="1262.609375" y2="377" fill="rgb(0, 0, 0)" stroke="rgb(189, 189, 189)" stroke-width="1px" opacity="0.25"></line></g><g><line x1="0" y1="287.8051399407447" x2="1262.609375" y2="287.8051399407447" fill="rgb(0, 0, 0)" stroke="rgb(189, 189, 189)" stroke-width="1px" opacity="0.25"></line><line x1="0" y1="198.90702204840758" x2="1262.609375" y2="198.90702204840758" fill="rgb(0, 0, 0)" stroke="rgb(189, 189, 189)" stroke-width="1px" opacity="0.25"></line><line x1="0" y1="129.95228474905667" x2="1262.609375" y2="129.95228474905667" fill="rgb(0, 0, 0)" stroke="rgb(189, 189, 189)" stroke-width="1px" opacity="0.25"></line><line x1="0" y1="73.61216208499985" x2="1262.609375" y2="73.61216208499985" fill="rgb(0, 0, 0)" stroke="rgb(189, 189, 189)" stroke-width="1px" opacity="0.25"></line><line x1="0" y1="25.9772671063966" x2="1262.609375" y2="25.9772671063966" fill="rgb(0, 0, 0)" stroke="rgb(189, 189, 189)" stroke-width="1px" opacity="0.25"></line></g></g></g><g><g><line x1="140.28993055555554" y1="0" x2="140.28993055555554" y2="377" fill="rgb(0, 0, 0)" stroke="rgb(153, 153, 153)" stroke-width="1.5px"></line></g></g><g><g><g><g><g><path stroke="rgb(238, 51, 119)" stroke-width="2px" d="M141.3421050347222,53.85714285714283L141.6928298611111,64.23435392977142L143.79717881944444,82.50773496864352L145.200078125,102.16610199485095L145.5508029513889,111.01384826427702L146.60297743055554,136.69992912527528L146.95370225694444,141.3309700228274L147.30442708333334,143.99440547120992L148.0058767361111,166.13720338026016L148.3566015625,169.77570432017083L149.40877604166667,165.19770426037957L149.75950086805557,161.82483719660257L153.61747395833333,179.23768791101162L154.3189236111111,189.81392241766451L156.77399739583333,187.02050106204908L157.1247222222222,189.3858880049351L157.4754470486111,196.4936775298291L158.17689670138887,208.31098321936284L159.22907118055556,221.7368764909442L160.28124565972223,217.0822216505753L161.33342013888887,218.01477142589246L161.6841449652778,218.41458033976497L162.03486979166667,233.71493552270138L162.38559461805556,247.61678629297L163.08704427083336,235.9106746255618L163.43776909722223,229.53664009135466L163.7884939236111,238.53111998887715L164.13921875,244.30512990117637L164.8406684027778,232.67902993339226L165.19139322916666,232.74191683866738L167.2957421875,238.56435555061014L167.9971918402778,241.6730215433356L169.04936631944446,254.66731484678778L170.1015407986111,247.9084209283231L171.50444010416666,259.75069622797014L175.01168836805553,249.19158064179084L176.4145876736111,249.20975847781048L177.46676215277776,257.00454291985375L177.81748697916666,268.35643579312296L178.51893663194446,259.076409942425L180.9740104166667,248.9576070285542L182.72763454861112,269.2149103371815L184.13053385416669,262.4673180249568L184.48125868055556,245.6184685228826L185.18270833333332,245.08566824658286L185.88415798611112,255.12435704030312L187.98850694444442,255.1137739483866L188.33923177083335,253.82191199456173L190.79430555555555,261.0892755112185L191.49575520833335,258.8697376005451L191.84648003472222,274.73657590918776L192.8986545138889,260.7639703983762L195.35372829861112,260.87278834607156L196.40590277777778,248.68322554693114L197.10735243055555,252.97776659970359L197.80880208333335,250.54999749462388L199.91315104166665,254.56451478794648L200.26387586805558,263.8189876826922L200.61460069444445,249.6557180275342L202.36822482638888,244.5948109800172L203.77112413194445,232.226188785364L204.82329861111108,235.04242475112494L205.1740234375,242.71446064171423L205.52474826388888,239.3199122378708L206.92764756944445,243.97012232747107L207.27837239583332,249.82355155854447L207.6290972222222,255.37553997386462L210.08417100694444,265.3559477875792L211.1363454861111,265.5497050417549L211.4870703125,266.13713569802593L211.83779513888888,267.2588433162889L212.1885199652778,267.6179611988347L212.88996961805555,255.04178365259622L214.2928689236111,253.26611733432574L214.99431857638888,254.08467349927088L215.69576822916667,248.5329133449124L217.09866753472224,238.59473405752263L217.4493923611111,253.4541461130989L217.80011718749998,251.0845759026425L218.85229166666667,271.1983265355538L220.6059157986111,267.01871113913023L224.11316406249998,268.05431416299257L225.86678819444444,276.7209750934974L226.21751302083334,268.32449662876155L226.5682378472222,290.4012989493751L229.37403645833334,269.92476870965584L230.7769357638889,271.5429844352469L231.12766059027777,264.527470759781L231.47838541666664,264.5566728989167L235.33635850694444,250.24664969071404L236.38853298611113,244.35649449044294L237.08998263888887,262.1702970584914L237.79143229166667,275.3999025934687L238.49288194444443,262.7175419083995L239.19433159722223,255.65581708040844L240.24650607638887,255.71249431210683L241.29868055555556,279.2725748002089L242.00013020833336,288.52576402582673L243.7537543402778,265.0279828104901L244.45520399305556,253.28467589981182L244.80592881944443,252.05243539912271L247.61172743055556,253.51683746271038L248.31317708333333,259.9901280283001L249.7160763888889,272.44889310100854L251.11897569444446,251.4809481152603L251.82042534722223,264.79768724203234L252.1711501736111,264.8036855058947L253.22332465277776,269.8433176351035L258.4841970486111,268.2324501306121L258.83492187499996,258.19184797663695L260.58854600694445,273.57372071407104L261.2899956597222,286.6122690122L261.6407204861111,284.7331841897599L263.7450694444445,274.2140189694986L264.4465190972222,273.6315209687645L265.84941840277776,275.67916388190054L267.25231770833335,283.018800743365L267.6030425347222,277.31069469045417L267.95376736111115,269.4286576994323L268.3044921875,269.6593927517408L268.6552170138889,286.43921018817366L269.0059418402778,286.79186849317455L272.86391493055555,276.9095577799074L275.6697135416667,279.7610847617986L277.0726128472222,289.489844965229L277.7740625,281.7791105672535L278.4755121527778,279.19460464122994L279.52768663194445,268.44520231474206L281.2813107638889,270.1549547319347L281.9827604166667,265.0740203916316L283.7363845486111,268.58753086768183L285.13928385416665,278.29806688375623L285.49000868055555,289.1220963837241L285.84073350694445,303.02743563769L287.9450824652778,295.451918740767L288.2958072916667,275.8837002884273L289.3479817708333,254.84533511161732L289.6987065972222,269.4683955248802L291.1016059027778,270.9082028236083L292.85523003472224,283.0188136140643L293.2059548611111,272.6962952076544L293.55667968750004,274.72849592457067L294.2581293402778,291.1056686621998L295.6610286458333,265.4283364098062L296.0117534722222,258.61428186124857L296.713203125,270.6436355377508L298.11610243055554,256.1397637133194L298.81755208333334,263.5189655354582L300.2204513888889,274.8024294532969L301.62335069444447,270.61293660800277L301.9740755208333,275.99101870199445L303.3769748263889,264.72885274783584L303.72769965277774,260.6911465869201L304.42914930555554,251.8140226309676L305.13059895833334,256.46570536759356L306.5334982638889,249.23388554308733L306.88422309027777,261.5193097610003L308.6378472222222,250.10637121768798L308.9885720486111,249.68186790635826L310.0407465277778,250.37630381415264L311.09292100694444,264.41168908621324L311.44364583333333,273.96793949241584L311.79437065972223,275.438259563244L312.4958203125,268.83878885118554L313.54799479166667,258.80493165324054L314.9508940972222,263.2873615033614L316.35379340277774,260.18296953525015L316.7045182291667,258.4234092074705L318.8088671875,268.3718210522016L319.15959201388887,252.22831174043904L319.51031684027777,275.74355815106367L319.8610416666667,263.9641898058176L320.21176649305556,270.60283288654114L320.56249131944446,293.3364984715594L321.61466579861116,288.30527874385575L321.965390625,278.8359089549419L322.3161154513889,255.01902017811176L327.2262630208333,253.15261290047687L327.5769878472222,265.06283576475715L328.2784375,265.03138419394804L328.6291623263889,262.8481213588193L328.97988715277774,271.38870129401226L329.6813368055556,263.8374823954136L330.3827864583333,256.3408790988683L331.0842361111111,249.56278132747283L331.78568576388886,260.85044647675323L332.13641059027776,278.59512563983384L333.18858506944446,271.842456400124L333.8900347222222,268.8557960168075L334.9422092013889,271.25705290820855L335.2929340277778,266.60724398946854L337.3972829861111,280.150969329887L337.7480078125,308.0312187256233L338.0987326388889,309.1472156394929L339.50163194444445,299.29017650310726L340.5538064236111,301.66111765615364L341.2552560763889,295.29911197126L342.3074305555556,282.3600336617846L343.71032986111106,274.6265581551535L345.11322916666666,277.1857783508485L345.4639539930556,291.22142540916644L346.5161284722222,301.9641780206266L347.21757812500005,293.8259707831853L347.5683029513889,281.7454088723217L348.6204774305555,287.5140676725522L349.3219270833333,276.1171512608521L350.02337673611106,273.95306627064633L350.3741015625,269.0460358476941L351.07555121527776,269.8649646595644L351.42627604166665,266.9706048761327L353.1799001736111,271.5304133153967L354.9335243055555,271.80907198201396L355.2842491319445,269.20932293635695L355.9856987847222,262.99978832633104L357.3885980902778,274.1999864581842L358.09004774305555,270.6625546137251L358.44077256944445,268.4904418980636L359.4929470486111,264.25975398628543L360.19439670138894,286.8668233885491L360.5451215277778,284.0066100506061L361.9480208333334,275.6421484409799L363.3509201388889,261.13806272066654L364.40309461805555,283.60691397444594L364.7538194444444,261.61894762261846L365.10454427083334,271.68089891156745L365.45526909722224,267.4097680696714L365.8059939236111,280.8403262181879L367.5596180555555,288.70236552402554L368.26106770833337,283.6749591378183L368.6117925347222,292.92214644361303L369.31324218749995,285.21310955428964L369.6639670138889,270.15748302789L370.71614149305555,274.1906756543427L371.41759114583334,275.28649470533304L373.8726649305556,282.0274964479476L374.9248394097222,290.3963205650274L376.6784635416667,283.7023786571472L377.02918836805554,271.7549811751585L378.43208767361114,273.84710386181115L379.8349869791667,246.2484730279024L380.88716145833337,252.68881008285518L382.6407855902778,237.3019131683113L383.34223524305554,270.2419853806383L384.0436848958333,273.566855045612L384.39440972222224,254.63854231283258L385.095859375,242.82772748974713L386.14803385416667,242.13042145422506L387.2002083333333,252.98054616384238L388.9538324652778,257.39730506034357L390.70745659722223,259.7390125741817L391.40890625,266.4153536274594L392.46108072916667,251.77606031392207L392.81180555555557,262.70100294758L393.5132552083333,269.4443178514617L394.2147048611111,267.56177593811185L394.5654296875,272.1881489086994L395.26687934027774,294.3561114693801L395.6176041666667,306.05424762198635L396.31905381944443,313.28654844261774L396.66977864583333,304.3802120408303L397.02050347222223,294.98585835041666L398.7741276041667,306.2741401020486L400.1770269097222,298.27249108834695L400.8784765625,297.1386478696988L405.0871744791667,276.68140531048203L405.78862413194446,277.6839409381388L407.89297309027774,263.0462407771137L408.24369791666663,266.8952077456313L409.2958723958333,273.4732338927969L409.64659722222217,290.68513637569475L410.69877170138886,278.3456636140803L411.75094618055556,280.65842551100945L412.10167100694446,286.02948122786415L412.8031206597222,288.2226442879686L413.15384548611115,277.3823328936266L413.5045703125,289.63704998265274L413.8552951388889,303.00278575631836L414.2060199652778,304.1006767167432L416.3103689236111,280.47136628564243L417.36254340277776,274.78730324047825L421.9219661458333,275.0737544582469L422.2726909722222,267.56181429257634L422.62341579861106,278.0757850950064L422.974140625,278.0677118067215L424.02631510416666,272.7380560003366L426.8321137152778,269.11897915131L427.1828385416666,261.07041605652114L429.98863715277776,264.3153882688679L430.33936197916665,251.37480196785117L431.7422612847222,225.50285620830184L432.0929861111111,213.5310094904564L432.7944357638889,229.70014946154825L433.1451605902778,249.5373768845911L434.1973350694445,255.79501393061324L434.5480598958333,264.91516772695593L435.60023437499996,279.0929596444083L436.3016840277778,274.14524784417154L438.05530815972224,281.81995136854215L438.4060329861111,270.44016663041316L440.5103819444445,281.91385971738134L441.5625564236111,263.8676977049216L442.2640060763889,279.09050476034054L443.31618055555555,269.9329010118832L443.6669053819444,286.2855355689287L445.0698046875,279.53638833611444L445.42052951388894,288.1896464294852L449.97995225694444,290.22417292451394L450.68140190972224,289.10647237422234L452.0843012152778,299.462854300197L452.7857508680556,290.37788721950943L453.8379253472222,286.48676650933334L454.539375,281.18921204997736L454.89009982638885,301.67531267174763L455.94227430555554,271.9451326943998L456.29299913194444,267.62197712830323L458.0466232638889,258.7298974966362L458.39734809027783,265.71223249562684L459.09879774305557,265.88322235664054L459.4495225694444,265.9041994515049L460.5016970486111,265.9213728374267L461.9045963541667,258.3030714090098L462.25532118055554,251.7171369959032L462.9567708333333,262.67620341073103L465.41184461805557,276.9648737024169L466.1132942708333,263.5865433108113L466.46401909722226,274.7303594322691L466.8147439236111,272.4748794067694L469.2698177083333,287.4044633294681L470.3219921875,294.6313113754884L471.37416666666667,296.7437923821907L472.77706597222226,290.4677022436291L473.8292404513889,286.14520851335385L474.8814149305556,298.3374246550089L476.6350390625,297.79941844982L477.6872135416667,277.4123073681549L478.38866319444446,271.661660150133L479.0901128472222,269.14110940498335L479.44083767361116,273.760826290179L482.9480859375,279.35359857052094L483.29881076388887,274.0855988643157L484.35098524305556,265.6708309860881L485.75388454861115,259.36785977043513L487.15678385416663,257.54006678935343L487.85823350694443,278.04461430698L488.55968315972217,276.1924781667881L489.2611328125,257.74430747209095L489.96258246527776,273.7498189096994L490.31330729166666,266.2510709589894L491.3654817708333,270.31480493485657L491.7162065972222,254.07443861808255L492.06693142361115,260.5676343536005L492.7683810763889,274.6507112816741L494.5220052083333,266.0562094331454L495.2234548611111,268.94117152129445L495.9249045138889,265.76435351602316L498.3799782986111,275.6397789680661L499.78287760416663,277.1304501287124L500.4843272569445,288.1233520769172L502.93940104166666,287.31551142178967L503.2901258680556,285.89183591419726L503.64085069444445,285.4043918283205L503.99157552083335,271.604667917157L504.3423003472222,270.99719871382183L505.7451996527778,262.81096020840715L506.7973741319445,267.9762576306998L510.30462239583335,253.8466164222995L511.0060720486111,264.4437716833778L511.7075217013889,246.46293573653915L512.4089713541666,250.423126983055L513.4611458333334,269.08193380807717L514.1625954861111,274.6854468305634L514.8640451388889,270.9658166165946L515.2147699652778,274.9569056930245L515.5654947916667,271.6337697888247L515.9162196180555,271.3653919425169L516.2669444444444,288.33318486220975L516.6176692708334,280.2306162686461L517.6698437499999,281.02538261105417L518.7220182291667,283.6634426359557L520.4756423611111,287.41949748837055L520.8263671875,281.74555929607163L521.1770920138889,298.37511352412236L522.5799913194444,307.0440234480572L525.0350651041666,297.6510726893804L525.7365147569444,275.2813145642334L526.4379644097222,284.65538677118064L526.788689236111,266.09341955654077L527.1394140625,278.10503502857L528.1915885416666,263.87989313874505L528.8930381944444,274.514063749823L529.5944878472222,282.80879693601787L529.9452126736111,249.38285121316193L530.6466623263889,281.87910657454216L532.4002864583333,258.3146330726389L533.1017361111111,255.95039167431028L533.4524609375,254.70089078213843L534.5046354166667,254.3373377023594L534.8553602430555,277.9501269780132L535.5568098958333,281.10249146550274L535.9075347222223,277.90344576735856L536.9597092013888,274.92531495646733L537.6611588541667,283.59195676152353L538.3626085069444,278.8027254472096L539.4147829861112,290.34297679916307L541.8698567708333,280.85612487114264L543.2727560763889,266.8010506752755L543.6234809027778,268.77135038665415L543.9742057291667,285.0565732260093L546.7800043402779,280.62503224710616L547.4814539930555,273.63648667552116L548.1829036458333,280.28832773921715L549.235078125,273.3942282874707L551.3394270833334,274.96510250679165L551.6901519097222,272.9315497957339L552.3916015625,290.3313555570444L552.7423263888888,300.05524397063454L553.0930512152778,282.2308367208126L554.4959505208333,286.79914311673997L555.1974001736112,284.27810975750066L555.8988498263889,285.9334555426748L556.9510243055556,283.50233827564716L557.3017491319445,289.3026427272464L558.3539236111111,292.366827330614L558.7046484375,271.9121499012327L559.7568229166667,268.80145980688917L562.2118967013889,285.93826694707144L562.5626215277778,286.93426842109204L562.9133463541667,281.9847572918178L565.3684201388888,276.32579434730206L566.7713194444444,286.6067484534662L568.5249435763889,273.4682404579602L569.2263932291667,285.54012139840364L570.6292925347223,274.17637100236794L571.6814670138889,281.1939512052725L573.7858159722222,285.19938086192775L575.8901649305556,284.7359146291866L576.5916145833334,278.39890992670837L577.6437890625,291.8641651659057L577.994513888889,283.13292095240246L578.3452387152778,290.6033065386977L578.6959635416666,297.65627540649007L579.3974131944444,302.5274533403586L580.0988628472222,300.1165883083916L580.4495876736111,285.5067578583548L581.5017621527778,279.0287049440876L581.8524869791667,272.42264305470223L583.9568359375,274.0938105260271L585.3597352430555,286.46609208016724L587.1133593750001,295.87833705435736L587.4640842013889,299.58511739700043L587.8148090277778,285.1622143118789L589.2177083333333,289.894224088576L590.2698828125,270.5149118140665L592.0235069444444,264.45051430885707L593.0756814236111,278.61190211304995L594.8293055555555,283.831709845083L595.1800303819444,284.4547041376139L596.2322048611111,300.81086520011985L597.6351041666667,299.40236053213425L599.0380034722223,290.89773479820695L600.7916276041667,281.01567804923445L602.5452517361111,283.3346223684241L603.2467013888889,277.8134598266576L604.2988758680556,279.5231761849085L604.6496006944444,283.0632720629952L605.3510503472222,278.34246570440547L607.8061241319444,270.00716725525194L611.3133723958333,267.5860154627639L612.365546875,278.04911962328134L613.7684461805555,270.2879655871073L614.4698958333333,276.4962703562639L616.5742447916667,285.8750498632162L617.9771440972222,296.9465890476172L618.3278689236112,301.4352730165927L618.67859375,302.9148041453074L619.0293185763888,317.20120065323806L619.3800434027778,292.5873136132771L621.8351171875,288.27898639723526L622.1858420138889,267.4674980452154L623.5887413194445,271.7289757228372L625.3423654513889,281.27442631939897L625.6930902777779,280.3419936610742L627.0959895833333,277.3221299920248L628.1481640625,310.86166163350725L629.5510633680556,296.96334670513755L636.5655598958333,302.00441896575535L637.9684592013889,293.4103392316189L641.4757074652779,282.83373932926247L641.8264322916666,280.6159128865688L643.2293315972223,288.95969882440835L643.93078125,289.04991283473584L644.281506076389,290.4222166605627L644.6322309027778,293.83778912078304L644.9829557291667,290.2661718259757L646.0351302083334,302.47542138594685L647.7887543402778,292.3786330401129L648.4902039930556,281.35628007690485L648.8409288194443,283.7362460911428L649.8931032986111,282.18044244137127L650.5945529513888,295.84641119272067L650.9452777777777,295.5866413670025L651.6467274305555,302.24477169845295L651.9974522569445,293.5905389051468L655.1539756944444,309.1453197404498L656.206150173611,297.1043311339054L656.556875,273.5135608959061L657.2583246527778,269.03941086738496L659.7133984374999,270.61784790992846L661.1162977430556,278.88874439930294L662.1684722222222,272.4721322480794L663.2206467013889,280.21305383390387L663.5713715277777,282.7078128636687L664.9742708333333,296.12152444723006L665.3249956597222,291.5517788640213L666.3771701388889,285.1295226268961L668.8322439236111,261.1106310723679L669.18296875,268.52244754569034L669.5336935763888,246.66757893113473L670.2351432291667,250.76251461600913L670.9365928819444,274.71912639403234L671.2873177083333,302.29808966754L673.7423914930556,289.7198660232711L675.496015625,282.3068023770654L677.6003645833333,277.2836135310494L678.6525390625,272.82375631080566L679.0032638888889,274.9294159820104L680.0554383680557,280.5183690964581L682.5105121527778,273.3404260548583L683.5626866319445,251.4843648106525L683.9134114583333,277.5095257231472L684.2641362847222,276.7463220073279L687.4206597222221,273.0771951424484L688.4728342013889,291.08697196531864L688.8235590277778,290.2365215071849L689.5250086805555,312.0500891818708L690.5771831597223,308.33352071442073L690.9279079861112,288.0627237531107L691.2786328125,270.8788089274093L692.3308072916667,282.90362598710226L693.7337065972222,286.0540800419571L695.4873307291666,278.5497037759433L698.9945789930556,288.3498683151883L699.3453038194444,283.7324102161718L699.6960286458334,276.9522136520704L701.0989279513889,269.7697620811207L701.4496527777778,266.8402719597327L701.8003776041666,266.4610267682769L704.6061762152777,276.25451488029967L705.6583506944444,266.2747570995395L709.1655989583334,272.28115674338744L710.2177734375,289.84525860896804L711.6206727430555,297.7749226771817L713.0235720486112,284.4422722829096L713.7250217013889,291.63884852473325L714.7771961805556,289.6912527208634L715.1279210069445,277.6360370899753L716.8815451388889,276.77060285359664L717.2322699652777,286.68662057952633L718.6351692708334,283.2971694518292L718.9858940972222,281.7814290311756L719.3366189236111,290.6442884117708L719.68734375,286.8539517597868L720.3887934027779,307.83223202374694L722.493142361111,280.19311341994944L723.8960416666667,279.509688969204L725.2989409722222,268.8516180196593L726.7018402777778,276.1814854190868L727.7540147569443,284.860472091903L728.4554644097223,292.6394437795581L730.5598133680555,277.4648157562013L730.9105381944445,269.8758817513447L731.2612630208334,255.5896592683256L731.6119878472222,280.58260738039854L733.3656119791666,279.6746214904726L733.7163368055556,286.8096385238482L734.0670616319444,301.7959552841814L735.4699609375,302.9898505574527L736.5221354166667,296.66770401056755L737.2235850694444,274.06237089354477L738.2757595486112,269.95108921426817L738.9772092013889,272.70190939470876L739.3279340277778,278.2579246918409L739.6786588541667,271.53129145008376L740.0293836805556,262.3641310215757L742.1337326388889,286.30745427906646L743.5366319444445,291.98012947857734L743.8873567708333,287.36431277553964L744.2380815972222,291.59062251612863L744.5888064236111,281.5264838081982L746.3424305555556,291.84678463973245L749.1482291666667,297.95145631892L749.4989539930556,295.5361489752935L750.9018532986112,304.26097527362924L751.6033029513889,304.82469611569144L752.6554774305556,293.97864075084397L753.3569270833334,278.4300991468506L754.4091015625,263.1989381501272L754.7598263888889,271.24709457849L757.565625,276.0163660480056L758.6177994791667,277.08319817200504L762.1250477430556,282.97150067664217L762.8264973958333,278.25891874622465L763.878671875,266.54600905408864L765.2815711805556,255.52516080545757L765.6322960069444,254.3168774047188L765.9830208333334,271.5571842909715L767.0351953125,269.73984198574976L768.0873697916666,276.18333516173215L769.4902690972223,247.8839532535723L770.8931684027777,259.68663871388895L771.5244730902778,262.41216007697653L773.3482421875001,267.5288672169433L774.0496918402778,277.3338857764743L777.2062152777777,267.0475336704539L778.6091145833334,273.1434672247043L779.6612890625,259.0553658463641L780.0120138888889,262.8688786490118L780.7134635416666,271.63138045394356L781.0641883680555,285.37424732919004L781.7656380208333,283.54641784500694L783.1685373263889,285.0339072922138L783.8699869791667,271.5513842946275L786.3250607638888,308.76502735831144L786.6757855902778,323.14285714285717L787.0265104166666,291.9305988548308L787.3772352430556,274.2632848138314L788.4294097222222,266.3310963033007L791.5859331597222,243.59865329676109L793.3395572916667,256.10912461952734L793.6902821180556,254.28408407652114L794.0410069444445,252.1780643074103L795.44390625,256.0870961651947L795.7946310763889,264.3555819213785L796.4960807291667,255.779873324383L797.5482552083334,250.7190322503508L798.6004296875,247.06807902494123L799.6526041666666,240.78600582163318L800.0033289930556,269.3972613542336L800.7047786458334,262.8018127734137L801.406228298611,281.17342161606786L802.107677951389,260.46293956419674L803.8613020833334,280.33008654416477L805.2642013888889,286.15920731253703L806.3163758680556,287.96179772150214L808.4207248263888,291.1546029622457L808.7714496527777,276.7049654890038L809.1221744791667,283.29732527136616L810.1743489583334,283.82615083166286L811.9279730902779,267.9900783443148L814.032322048611,282.1714862411081L814.383046875,278.33059363200954L815.7859461805555,276.73341182115956L817.8902951388889,279.5421760819873L818.2410199652778,274.57141609795417L819.6439192708333,255.78500208715752L819.9946440972222,261.52773432771755L820.3453689236111,272.81864533439466L821.3975434027777,275.65282948325125L822.0989930555555,290.7733825476156L823.1511675347222,309.0285300963997L824.2033420138889,298.93886041948264L825.2555164930556,295.58085935611683L826.6584157986111,284.011346976518L827.009140625,290.5838439571833L827.3598654513888,284.3106417896728L827.7105902777778,289.6051477353747L828.0613151041667,289.8120116432249L828.7627647569444,293.5318677225575L829.1134895833333,266.1840403735268L829.4642144097222,285.12505841437684L832.6207378472222,283.6562465624408L833.3221875,277.5042932628283L834.0236371527778,280.4159112655174L835.4265364583333,280.18426120542017L836.1279861111111,289.5833411225296L836.4787109375,285.3729116676003L837.5308854166667,277.09818690531205L846.6497309027778,276.8048117965889L848.0526302083333,280.62371784615146L848.4033550347223,293.8098216706537L849.8062543402777,296.23156770464595L850.5077039930557,255.8180787468977L851.5598784722222,265.913382119271L852.9627777777778,261.09040319297674L853.3135026041666,281.7085569960105L854.7164019097222,283.55835442539495L855.768576388889,305.1701088256814L857.1714756944444,287.21009246995914L859.6265494791666,295.13578338611075L859.9772743055555,294.3009071415318L860.3279991319445,289.9259982012207L864.1859722222222,269.86207329428913L864.5366970486111,267.53201445878915L865.2381467013888,262.52778392676873L866.6410460069445,263.2233175293124L868.394670138889,261.7777213332108L870.1482942708334,273.6906018282434L870.8497439236112,278.8811972036822L871.2004687499999,271.9601879019955L871.9019184027778,279.50144179103444L872.2526432291667,284.0156644058753L872.6033680555556,276.7647175124098L874.0062673611111,284.1086867669758L874.7077170138889,286.72033517861934L875.0584418402777,262.1912314878792L875.7598914930555,253.5898053491232L876.8120659722222,244.07529641497618L877.513515625,256.4085269927192L878.9164149305556,258.01108951432354L879.2671397569444,267.6043916769377L880.6700390625,259.32031025139247L881.020763888889,268.5355572976267L882.4236631944444,275.3473500300549L882.7743880208334,266.401314300563L883.8265624999999,251.91719968001144L884.1772873263889,256.9430396317537L885.2294618055556,257.5597873320499L888.0352604166667,271.7268788985505L888.3859852430555,281.16521396124654L889.4381597222222,289.83718236705164L890.8410590277779,297.7978265148665L892.945407986111,283.10532576077793L894.6990321180555,284.11590808343516L896.4526562499999,280.7225144204864L897.5048307291667,273.4798198129264L899.9599045138889,274.1258363543609L902.4149782986111,275.28610610464864L906.2729513888888,280.5349870691008L906.9744010416667,285.98343777707925L908.7280251736112,299.48043226338586L910.4816493055556,292.33468502079444L911.1830989583334,271.2229646302631L911.5338237847222,269.20089036330774L911.8845486111111,275.55208848807916L913.9888975694445,241.7413042859087L914.6903472222223,266.9017234897095L915.0410720486111,278.8148232568877L915.7425217013889,265.4460205891654L916.0932465277778,276.62629883149015L918.1975954861111,267.25393143499446L919.6004947916667,280.3622677310743L920.3019444444445,274.4259023955281L923.4584678819444,262.12941452196424L924.5106423611111,270.81177493515276L925.5628168402778,276.91520600183713L926.2642664930555,284.0243442312841L929.7715147569444,290.2734739981665L930.8236892361111,299.35762188752034L931.1744140625001,285.42358421603774L933.2787630208333,280.34159853541365L934.3309375,286.64649503414535L937.4874609375,281.897356007442L938.8903602430555,280.3018346685671L939.2410850694445,291.281162888641L940.643984375,300.12000177588305L943.0990581597222,283.01250085215463L945.9048567708334,275.54248225761114L947.6584809027778,254.4013215359763L948.0092057291666,254.38803325972717L949.0613802083334,249.915954896902L949.7628298611112,268.3061018401946L951.5164539930556,286.33500559195414L952.5686284722223,287.0276551392716L954.3222526041667,263.90176718847187L956.4266015625,272.52527698216824L957.1280512152779,275.7466450065277L958.1802256944444,282.8446803220464L959.933849826389,295.06987172563004L960.6352994791667,300.3377626273815L960.9860243055555,286.4340186202164L961.3367491319444,275.07659647304024L962.0381987847222,282.9495845941767L962.3889236111112,288.53749272479627L963.7918229166667,293.6312942755201L964.1425477430556,287.42790767688183L964.4932725694443,295.2387799523018L965.896171875,305.15790337422084L966.5976215277777,298.80351913995696L968.7019704861111,294.7202384166979L969.7541449652779,277.27929590121664L970.8063194444444,278.05662794747377L971.5077690972223,280.74342715718984L973.2613932291667,282.7421204330311L975.3657421874999,302.1447178330389L977.1193663194443,285.05306114205325L977.8208159722222,287.69115495425024L978.522265625,289.37770492916707L978.8729904513889,273.6065155688464L979.2237152777777,267.5467159854128L979.9251649305555,280.11567297809415L980.2758897569445,278.8627387619948L983.4324131944444,290.54409162606856L984.8353125,290.7915730945814L985.8874869791667,290.6160744979422L987.2903862847222,280.7364329463391L990.4469097222222,278.40543497132444L991.4990842013889,288.6471454195034L992.9019835069445,288.983220716221L993.2527083333333,297.64344314702834L994.3048828125,293.0181517945368L995.0063324652778,292.41396871538694L995.3570572916667,270.6142285940638L997.4614062500001,273.74506741454957L999.5657552083333,277.1680605941227L1000.968654513889,280.7307068153547L1002.3715538194444,264.2407749760425L1003.0730034722221,284.96916769074596L1003.4237282986111,259.9348064523128L1004.8266276041666,258.9445522824013L1006.2295269097223,256.5033402022382L1006.9309765625,254.71498288407415L1007.6324262152777,257.9239345177148L1010.0875000000001,267.4446491942867L1010.4382248263888,277.95504929970883L1011.8411241319445,281.11590092071526L1013.2440234375,284.13874207829014L1014.2961979166666,281.56585935292634L1014.9976475694444,289.94867816262234L1015.3483723958334,299.3383043993497L1015.6990972222221,279.9968913245073L1016.7512717013889,284.65334523783207L1017.4527213541666,281.10336114657207L1017.8034461805555,287.24992688572087L1018.5048958333333,260.45693066959115L1019.2063454861111,257.01253617313074L1020.2585199652777,268.3231938214711L1020.9599696180555,261.99038436152557L1021.6614192708333,269.4171603894055L1022.0121440972222,266.8743387370031L1022.3628689236111,267.61925232917275L1023.0643185763888,258.69368869659036L1023.7657682291666,265.0508758815622L1025.5193923611112,281.1510697680427L1026.2208420138888,283.73428648477716L1026.5715668402777,274.7095229569046L1029.026640625,277.25479144596517L1029.7280902777777,269.4669237160028L1030.4295399305556,272.1016953512429L1030.7802647569445,272.07858817107046L1034.6382378472222,294.2777132389485L1038.4962109375,287.84626761513147L1038.846935763889,279.00044224737064L1039.5483854166666,274.9348414818796L1040.6005598958334,281.5283970347155L1042.003459201389,255.73532575687295L1042.7049088541667,264.4943354033029L1043.0556336805555,276.200673389248L1044.8092578125,251.77679574643466L1045.1599826388888,262.66028249786825L1045.5107074652778,289.60222247269843L1046.5628819444444,286.411075901876L1046.9136067708334,280.5812508613215L1047.96578125,275.86374159687693L1050.0701302083332,281.64703455345443L1050.4208550347223,256.7679999038356L1051.1223046875,265.53743684449563L1051.8237543402777,278.5301975841988L1052.5252039930556,277.2544204901396L1052.8759288194444,288.4777128306918L1056.7339019097224,289.28824936442675L1057.084626736111,276.5639990479462L1057.4353515625,273.46256141367303L1058.4875260416668,276.16830237807727L1060.2411501736112,314.0829908935364L1060.591875,295.2978202931776L1062.3454991319445,285.0821441164372L1062.6962239583333,283.01406411965235L1063.0469487847222,274.8103239579885L1063.397673611111,289.37714981227623L1064.099123263889,277.89758847124904L1064.4498480902778,278.2557578362917L1064.8005729166666,281.17000308218974L1065.8527473958334,284.60384672660126L1069.710720486111,283.6567125138192L1071.8150694444446,289.7499557292683L1072.5165190972223,274.9357127565272L1075.3223177083335,275.59899942406753L1075.673042534722,246.4344026313723L1076.0237673611111,255.57392791871274L1076.7252170138888,269.92825885437486L1079.1802907986112,274.9619874706437L1080.2324652777777,279.8724510495719L1080.9339149305556,261.09070165333407L1081.9860894097221,256.5330404837746L1082.6875390625,272.8603893901593L1083.3889887152777,281.6428072104459L1086.5455121527777,282.0452658153294L1086.8962369791666,287.34970807708373L1087.2469618055557,270.29937351931176L1087.9484114583333,262.3264991627956L1088.649861111111,265.25934480969994L1089.351310763889,266.53049446854544L1090.0527604166666,276.0471462666557L1090.4034852430555,290.830162338393L1091.806384548611,276.6380547950491L1092.157109375,265.7618583008423L1092.507834201389,269.10251058268153L1094.2614583333334,255.76995451083164L1094.6121831597222,268.87512875323876L1095.3136328125001,259.80722327929783L1096.0150824652778,258.19954357856216L1096.3658072916667,259.98144355904077L1097.7687065972223,258.7436884847282L1098.119431423611,255.678381805423L1099.5223307291667,248.57896973562228L1099.8730555555555,262.62472955001977L1100.2237803819444,271.83630391104276L1100.5745052083334,259.83405972986844L1101.2759548611111,255.80083718206532L1101.6266796875,262.2091272218627L1101.9774045138888,261.80005637544133L1104.4324782986112,260.8209081862165L1104.783203125,281.179742748566L1105.1339279513888,276.067314236587L1106.8875520833333,284.6494222332098L1107.2382769097221,269.4397427069143L1108.6411762152777,277.3896983362592L1109.6933506944445,276.18920364277136L1110.745525173611,270.21412317572515L1111.446974826389,275.8265791719665L1112.1484244791668,291.8136444216811L1112.8498741319445,278.536047116505L1113.2005989583333,276.0338293857512L1113.5513237847222,280.59732502064617L1115.3049479166666,287.91278250001767L1115.6556727430557,272.2988301872957L1119.8643706597222,276.4983808125523L1120.5658203125,283.40425114142147L1123.0208940972223,276.8246766392925L1125.1252430555555,277.94623024495155L1125.4759678819444,284.85607549206594L1129.3339409722223,279.34642752348867L1129.6846657986111,278.35895517565444L1132.8411892361112,280.795116547785L1133.5426388888889,277.05551783196705L1134.2440885416665,278.4874974890519L1134.5948133680556,277.5054886616282L1135.2962630208333,286.8555239134319L1135.997712673611,286.4076851441182L1136.3484375,289.9139147155725L1137.4006119791668,277.96854009715787L1138.8035112847222,263.16662228614774L1139.1542361111112,259.04204700933167L1140.9078602430557,263.7847921844612L1141.6093098958333,289.0376883394826L1142.310759548611,289.91482874682833L1142.661484375,291.0909373066539L1144.0643836805555,278.02810382286253L1144.7658333333334,287.1867092059526L1145.8180078125,279.94884281680226L1148.623806423611,300.06815935496047L1148.97453125,297.014775350494L1149.3252560763888,270.0516278881818L1149.6759809027778,276.05069569617564L1150.3774305555555,281.5243189395975L1152.1310546875,272.90755469850365L1152.8325043402776,291.10278736956457L1153.5339539930555,282.7378928681285L1154.2354036458335,283.6733935744623L1155.6383029513888,284.79503807656914L1157.0412022569444,296.35624464603336L1157.3919270833333,295.5975122827606L1159.8470008680556,291.1556407755177L1160.1977256944444,284.0814492597962L1160.8991753472221,282.65266472159755L1161.2499001736112,280.5398454124617L1162.3020746527777,287.21015784231116L1163.0035243055556,293.44941420296124L1163.3542491319445,284.2705736165687L1163.7049739583333,314.42589043263945L1164.4064236111112,285.71571450039664L1164.7571484375,285.3111566359396L1166.5107725694445,288.5189865821108L1167.913671875,276.5063156221095L1168.264396701389,279.99609532808495L1173.1745442708334,257.08274040745596L1174.2267187500001,263.493318828682L1175.2788932291667,271.0895762500618L1176.3310677083332,280.35109986020876L1177.733967013889,273.52051402097214L1178.0846918402776,277.53220951385094L1178.7861414930555,300.2516712934537L1179.1368663194444,280.5108379199776L1179.4875911458334,282.03866875917754L1181.5919401041667,276.4605221283909L1183.3455642361112,278.1426105932901L1183.6962890625,284.5197046899668L1184.0470138888888,279.43087379817996L1184.3977387152777,267.4708861439363L1185.4499131944444,282.7116174604464L1186.1513628472221,278.1084385994113L1186.5020876736112,292.79630928485244L1188.6064366319445,278.05724488763633L1189.658611111111,280.4715863077397L1190.360060763889,267.2926428707806L1190.7107855902777,272.7196201932512L1191.4122352430554,281.8161786881012L1191.7629600694445,305.4690724431159L1192.3942647569445,278.18763534509867L1192.4644097222222,270.22513081370505" style="fill: none;" fill="none"></path></g></g></g></g><g opacity="0.2"><g><g><g><path stroke="rgb(238, 51, 119)" stroke-width="2px" d="M141.3421050347222,53.85714285714283L141.6928298611111,71.3440972191831L143.79717881944444,104.13395068176426L145.200078125,132.08565534745608L145.5508029513889,125.73533123213397L146.60297743055554,186.9878557804894L146.95370225694444,149.9418148487055L147.30442708333334,149.05956710346598L148.0058767361111,213.60484444006715L148.3566015625,176.96873293879793L149.40877604166667,156.41789298691523L149.75950086805557,155.28211128349176L153.61747395833333,216.88719294335223L154.3189236111111,211.9323280747859L156.77399739583333,181.54304957463148L157.1247222222222,194.14642622188256L157.4754470486111,211.15168686650873L158.17689670138887,233.29015563623364L159.22907118055556,250.36637367694803L160.28124565972223,208.00893231365515L161.33342013888887,219.8821776490664L161.6841449652778,219.21319452002933L162.03486979166667,266.6858862825984L162.38559461805556,277.35377327120244L163.08704427083336,213.815556862793L163.43776909722223,217.20670273915937L163.7884939236111,257.28718940110014L164.13921875,256.1507839041521L164.8406684027778,210.725981634418L165.19139322916666,232.86735134300181L167.2957421875,250.51241355704377L167.9971918402778,247.96665947771072L169.04936631944446,282.33280379294126L170.1015407986111,234.8569862012596L171.50444010416666,284.81192805947694L175.01168836805553,229.15604355066245L176.4145876736111,249.24600847678255L177.46676215277776,273.160174232573L177.81748697916666,292.31865668565285L178.51893663194446,241.3644629536447L180.9740104166667,229.71887829259913L182.72763454861112,314.0643487565774L184.13053385416669,249.43700195741482L184.48125868055556,214.53793805099113L185.18270833333332,244.0259925046844L185.88415798611112,276.1710484797291L187.98850694444442,255.09267221838368L188.33923177083335,251.26193403536504L190.79430555555555,276.1115248686429L191.49575520833335,254.4909794652121L191.84648003472222,309.03669544435684L192.8986545138889,234.65744318323902L195.35372829861112,261.0898870897845L196.40590277777778,225.72463115205858L197.10735243055555,261.72351602859817L197.80880208333335,245.76519961756546L199.91315104166665,262.7286377992708L200.26387586805558,283.14345582485754L200.61460069444445,223.2155335717743L202.36822482638888,234.7441779907587L203.77112413194445,208.94919108894211L204.82329861111108,240.7358280670057L205.1740234375,258.6057753826374L205.52474826388888,232.66045972326228L206.92764756944445,253.4569626248551L207.27837239583332,261.83713474406943L207.6290972222222,266.7532336573309L210.08417100694444,286.2741666634214L211.1363454861111,265.93642235536265L211.4870703125,267.3118234140574L211.83779513888888,269.5077699178096L212.1885199652778,268.33529476197293L212.88996961805555,231.3963516646662L214.2928689236111,249.7555869876602L214.99431857638888,255.7233853888136L215.69576822916667,237.75176513336987L217.09866753472224,219.68379699176944L217.4493923611111,285.4041664592032L217.80011718749998,246.4131815182843L218.85229166666667,315.6946723780572L220.6059157986111,258.8495554402957L224.11316406249998,270.1297370431448L225.86678819444444,294.7636516343965L226.21751302083334,252.2335447176753L226.5682378472222,339.77592975760393L229.37403645833334,232.74665629430243L230.7769357638889,274.79524393266104L231.12766059027777,250.9966601325626L231.47838541666664,264.61491055297734L235.33635850694444,223.55003551196364L236.38853298611113,232.93633230084112L237.08998263888887,301.085708379736L237.79143229166667,303.60132483540156L238.49288194444443,238.88388806609018L239.19433159722223,242.03880682237315L240.24650607638887,255.82554043085017L241.29868055555556,332.4060181634456L242.00013020833336,307.84742451788105L243.7537543402778,222.914814988937L244.45520399305556,231.12184987238746L244.80592881944443,249.6099042603015L247.61172743055556,256.4577527248989L248.31317708333333,273.317396505763L249.7160763888889,298.8998728173133L251.11897569444446,213.49144190437505L251.82042534722223,293.1978754662356L252.1711501736111,264.81564646343725L253.22332465277776,280.1446044688508L258.4841970486111,265.0452121986033L258.83492187499996,239.09496909353234L260.58854600694445,306.7393367859263L261.2899956597222,314.3785012217445L261.6407204861111,281.0200341497146L263.7450694444445,254.25063442818882L264.4465190972222,272.47328037588886L265.84941840277776,279.8031424625014L267.25231770833335,298.19600020876123L267.6030425347222,266.2340568634704L267.95376736111115,254.28760520222986L268.3044921875,270.119996127561L268.6552170138889,322.89135362946644L269.0059418402778,287.4962770394716L272.86391493055555,258.1001195251192L275.6697135416667,285.52683617892865L277.0726128472222,309.8542294785364L277.7740625,266.955363893262L278.4755121527778,274.10470999987444L279.52768663194445,248.06628178805474L281.2813107638889,273.5927222488244L281.9827604166667,255.18533760905171L283.7363845486111,275.7150643845749L285.13928385416665,298.62239901638065L285.49000868055555,311.90757751870444L285.84073350694445,332.77515235638487L287.9450824652778,280.8789917620461L288.2958072916667,240.21438993659464L289.3479817708333,216.73983523144477L289.6987065972222,300.8707419363046L291.1016059027778,273.7993776599187L292.85523003472224,308.68385800354173L293.2059548611111,253.08851095056346L293.55667968750004,278.8210638067173L294.2581293402778,326.60608843150635L295.6610286458333,219.8325656165548L296.0117534722222,245.45969352358085L296.713203125,296.12566188311285L298.11610243055554,229.10494047700723L298.81755208333334,278.78103836953875L300.2204513888889,298.6117426810143L301.62335069444447,262.42485759639766L301.9740755208333,287.00273271969087L303.3769748263889,243.42759825821443L303.72769965277774,252.79405682417604L304.42914930555554,234.83962681973944L305.13059895833334,265.95561962382806L306.5334982638889,235.29990772025937L306.88422309027777,287.5786233876269L308.6378472222222,228.53472769232113L308.9885720486111,248.83713999293406L310.0407465277778,251.7656931995373L311.09292100694444,294.4582720459684L311.44364583333333,293.9534913347188L311.79437065972223,278.39114518299493L312.4958203125,256.0857078178027L313.54799479166667,239.72029244769107L314.9508940972222,272.42427824332844L316.35379340277774,254.0843426798492L316.7045182291667,254.94445211933524L318.8088671875,289.2195419932604L319.15959201388887,222.35590071903837L319.51031684027777,328.76244752610506L319.8610416666667,241.7369397368582L320.21176649305556,284.28192902068344L320.56249131944446,344.36784110117475L321.61466579861116,278.511061763021L321.965390625,260.7782844848806L322.3161154513889,212.39196388956015L327.2262630208333,249.4642901815406L327.5769878472222,290.27682258617733L328.2784375,264.9686789390338L328.6291623263889,258.5401802909345L328.97988715277774,289.15745137085315L329.6813368055556,249.3096598548228L330.3827864583333,241.91447663172988L331.0842361111111,236.47541582073939L331.78568576388886,284.6691446947535L332.13641059027776,317.34499196476406L333.18858506944446,258.8026442429375L333.8900347222222,262.98516642361074L334.9422092013889,276.10161720421485L335.2929340277778,257.53923852510275L337.3972829861111,309.0698151719057L337.7480078125,372.4883263412013L338.0987326388889,311.3846304610611L339.50163194444445,280.526667178151L340.5538064236111,306.4438070516342L341.2552560763889,282.9912859137798L342.3074305555556,258.07205797531327L343.71032986111106,259.7606589654074L345.11322916666666,282.35304721322143L345.4639539930556,321.26861041352436L346.5161284722222,324.5690473636332L347.21757812500005,278.2113456169634L347.5683029513889,258.9808910012948L348.6204774305555,299.34863259189285L349.3219270833333,254.5742236381666L350.02337673611106,269.68257457331833L350.3741015625,259.48799134695037L351.07555121527776,271.50442554523664L351.42627604166665,261.2789017998626L353.1799001736111,280.82863850784696L354.9335243055555,272.36547192264214L355.2842491319445,264.08978104886825L355.9856987847222,250.97837001353614L357.3885980902778,297.82338012061666L358.09004774305555,263.72749808751865L358.44077256944445,264.2042732942919L359.4929470486111,255.99277207708383L360.19439670138894,337.57790447966676L360.5451215277778,278.38114033948443L361.9480208333334,259.61018340408157L363.3509201388889,234.10286662016617L364.40309461805555,333.9688605653342L364.7538194444444,221.95610071397542L365.10454427083334,292.77889141945L365.45526909722224,259.0653536871394L365.8059939236111,309.5004315213974L367.5596180555555,305.0029659480436L368.26106770833337,273.8879899427092L368.6117925347222,312.2306799796972L369.31324218749995,270.3925097073018L369.6639670138889,242.16318705657767L370.71614149305555,282.3935380326238L371.41759114583334,277.4832396268522L373.8726649305556,295.9246808927502L374.9248394097222,307.79247977405095L376.6784635416667,270.7724341551784L377.02918836805554,249.22782168006617L378.43208767361114,278.06158458683444L379.8349869791667,197.63495669610128L380.88716145833337,265.9460322810843L382.6407855902778,208.73380295063427L383.34223524305554,348.7277646458962L384.0436848958333,280.3054217143936L384.39440972222224,220.0393054036371L385.095859375,220.54431513167114L386.14803385416667,240.74466429534115L387.2002083333333,275.8240479992094L388.9538324652778,266.39741753636594L390.70745659722223,264.4620531292993L391.40890625,280.1747438407904L392.46108072916667,224.5053113559089L392.81180555555557,285.7109443084514L393.5132552083333,283.3464333981765L394.2147048611111,263.84185615843086L394.5654296875,281.6252386159605L395.26687934027774,343.9599225473748L395.6176041666667,330.7918776881455L396.31905381944443,328.2336663989238L396.66977864583333,287.3522482333675L397.02050347222223,277.06511523295075L398.7741276041667,330.09421576212543L400.1770269097222,282.91017698348395L400.8784765625,294.8900943992634L405.0871744791667,239.53520938007392L405.78862413194446,279.6927705989666L407.89297309027774,235.7782656960221L408.24369791666663,274.71623417362053L409.2958723958333,287.02328439811805L409.64659722222217,328.1632492213853L410.69877170138886,255.1204644992884L411.75094618055556,285.32242181174104L412.10167100694446,297.0264219167773L412.8031206597222,292.6428569259794L413.15384548611115,256.8395769672549L413.5045703125,315.6270550364132L413.8552951388889,331.51482417371494L414.2060199652778,306.3015973483525L416.3103689236111,238.1462169465002L417.36254340277776,263.7560779580292L421.9219661458333,275.6457354751162L422.2726909722222,253.10692639664165L422.62341579861106,300.17308085078963L422.974140625,278.0516142027791L424.02631510416666,262.37742314526406L426.8321137152778,262.0266072151062L427.1828385416666,245.621385597327L429.98863715277776,270.8894298098473L430.33936197916665,227.08416062429743L431.7422612847222,179.59920692552421L432.0929861111111,190.96024922346103L432.7944357638889,264.7104763077882L433.1451605902778,293.3551566868711L434.1973350694445,268.6643104145779L434.5480598958333,283.9460534167533L435.60023437499996,309.4672919530588L436.3016840277778,264.50980868195137L438.05530815972224,297.71700695916496L438.4060329861111,248.92794810318898L440.5103819444445,306.14853361989015L441.5625564236111,230.75338824158936L442.2640060763889,311.8853024608664L443.31618055555555,252.4447702724302L443.6669053819444,321.7280895659014L445.0698046875,266.5031634937609L445.42052951388894,306.20318681061013L449.97995225694444,294.3214713262016L450.68140190972224,286.889759642462L452.0843012152778,321.2112269479253L452.7857508680556,273.022673258052L453.8379253472222,278.8710909655179L454.539375,270.8894298098473L454.89009982638885,347.0887000985477L455.94227430555554,220.0393054036371L456.29299913194444,259.17799906345175L458.0466232638889,241.72807508940176L458.39734809027783,280.12450520206664L459.09879774305557,266.2244608783192L459.4495225694444,265.9460322810843L460.5016970486111,265.95561962382806L461.9045963541667,243.65074800810473L462.25532118055554,238.98941055674683L462.9567708333333,285.7620995066655L465.41184461805557,307.5947386024628L466.1132942708333,238.523626272518L466.46401909722226,298.2279527329335L466.8147439236111,268.025978396996L469.2698177083333,319.51735372310844L470.3219921875,309.56674767201963L471.37416666666667,300.9997089824854L472.77706597222226,278.3212133440254L473.8292404513889,277.7024967475118L474.8814149305556,324.18642907696386L476.6350390625,296.7294156229665L477.6872135416667,240.3822068033882L478.38866319444446,260.504695373987L479.0901128472222,264.17565194340415L479.44083767361116,283.1840261585275L482.9480859375,290.81721307246534L483.29881076388887,263.84185615843086L484.35098524305556,249.5461910138168L485.75388454861115,247.17087815962535L487.15678385416663,253.92738371440996L487.85823350694443,323.5035332524737L488.55968315972217,272.5321072183139L489.2611328125,223.95188442932056L489.96258246527776,308.37543897467316L490.31330729166666,251.82068494611306L491.3654817708333,278.58103658380577L491.7162065972222,224.03568541851638L492.06693142361115,273.93722475273415L492.7683810763889,304.80700121184964L494.5220052083333,249.60081086461523L495.2234548611111,274.77548959893795L495.9249045138889,259.5255941003573L498.3799782986111,296.3267736749877L499.78287760416663,280.12450520206664L500.4843272569445,311.2845880318999L502.93940104166666,285.7109443084514L503.2901258680556,283.0724403238396L503.64085069444445,284.43471168443006L503.99157552083335,245.80116894218605L504.3423003472222,269.78945091417467L505.7451996527778,247.10766576489758L506.7973741319445,278.54104222226533L510.30462239583335,227.4652397508766L511.0060720486111,286.72547993818L511.7075217013889,213.45904330602923L512.4089713541666,258.4745991202415L513.4611458333334,310.0312804746685L514.1625954861111,286.1716950976353L514.8640451388889,263.67986327182393L515.2147699652778,283.0724403238396L515.5654947916667,265.112202910471L515.9162196180555,270.830938068429L516.2669444444444,325.2310740948417L516.6176692708334,264.6818080355284L517.6698437499999,282.6162841276457L518.7220182291667,288.99196199806613L520.4756423611111,295.04821436123285L520.8263671875,270.73346093725036L521.1770920138889,334.47159463332946L522.5799913194444,325.0915894238244L525.0350651041666,279.73289038596744L525.7365147569444,234.99587567095347L526.4379644097222,304.2416067176025L526.788689236111,232.10947283242587L527.1394140625,303.54712984444495L528.1915885416666,237.33155547832902L528.8930381944444,296.87788308685765L529.5944878472222,300.0444327134762L529.9452126736111,191.9028262214661L530.6466623263889,359.0991894411802L532.4002864583333,216.09394993195053L533.1017361111111,251.28938389788397L533.4524609375,252.22435190119785L534.5046354166667,253.6136827691637L534.8553602430555,331.21832032862216L535.5568098958333,287.48599755517733L535.9075347222223,271.62169871897186L536.9597092013888,269.0712135216101L537.6611588541667,301.63459172313435L538.3626085069444,269.4689558643325L539.4147829861112,314.7266781669907L541.8698567708333,262.76661434574464L543.2727560763889,240.5501359318956L543.6234809027778,272.73805431768324L543.9742057291667,320.3402367508051L546.7800043402779,271.9737855122763L547.4814539930555,260.15599787259475L548.1829036458333,293.99553117822495L549.235078125,260.0900729213191L551.3394270833334,278.12148504968184L551.6901519097222,268.916136329105L552.3916015625,328.25715168877537L552.7423263888888,320.40892072186165L553.0930512152778,249.49160251024898L554.4959505208333,296.1150912989473L555.1974001736112,279.31171299269806L555.8988498263889,289.2609426736768L556.9510243055556,278.7110182498965L557.3017491319445,301.20401908467204L558.3539236111111,298.569070156322L558.7046484375,234.77019904390414L559.7568229166667,262.6906432780162L562.2118967013889,323.23772091292426L562.5626215277778,288.92994172990865L562.9133463541667,272.3458956623207L565.3684201388888,265.34198914358893L566.7713194444444,308.1883158980102L568.5249435763889,248.82804766056347L569.2263932291667,311.1179137628371L570.6292925347223,252.6928988751597L571.6814670138889,295.68155492193677L573.7858159722222,293.3446554465969L575.8901649305556,283.81382720100424L576.5916145833334,266.13801883738097L577.6437890625,320.60356728906453L577.994513888889,266.42624542100896L578.3452387152778,306.0611138258259L578.6959635416666,312.2195438873679L579.3974131944444,312.47604159232117L580.0988628472222,295.36472238408726L580.4495876736111,258.28731375661306L581.5017621527778,266.5031634937609L581.8524869791667,259.6572173625992L583.9568359375,277.45336161455765L585.3597352430555,312.7215715592144L587.1133593750001,315.5481689233505L587.4640842013889,307.1119178504151L587.8148090277778,258.2685869977665L589.2177083333333,299.5518791224999L590.2698828125,235.1608815642959L592.0235069444444,252.70210564110766L593.0756814236111,308.9484548818647L594.8293055555555,294.5108961153108L595.1800303819444,285.70072404159095L596.2322048611111,336.26173442912216L597.6351041666667,296.61280541689206L599.0380034722223,274.6076640268526L600.7916276041667,262.20670130019727L602.5452517361111,288.0112283725592L603.2467013888889,267.0901908744L604.2988758680556,282.9608705920877L604.6496006944444,290.24568169005136L605.3510503472222,269.13908282822854L607.8061241319444,254.02894665421908L611.3133723958333,262.81410858074696L612.365546875,300.0337272273617L613.7684461805555,255.3707739070329L614.4698958333333,289.2609426736768L616.5742447916667,305.47157868804317L617.9771440972222,320.28302540760995L618.3278689236112,310.5852228730861L618.67859375,305.8863223572577L619.0293185763888,347.82582230025173L619.3800434027778,248.6828014560135L621.8351171875,279.863381500463L622.1858420138889,229.7359523710076L623.5887413194445,280.40596601797034L625.3423654513889,301.23628417655107L625.6930902777779,278.49106846295734L627.0959895833333,271.387173572927L628.1481640625,391.0681879730945L629.5510633680556,270.98697941818534L636.5655598958333,312.3087236197844L637.9684592013889,276.9557168266712L641.4757074652779,262.76661434574464L641.8264322916666,276.2404953589622L643.2293315972223,306.3015973483525L643.93078125,289.22987930746865L644.281506076389,293.176934006946L644.6322309027778,300.76328915659957L644.9829557291667,283.2652312090045L646.0351302083334,328.3628435854289L647.7887543402778,273.1798255705821L648.4902039930556,260.48585623987293L648.8409288194443,288.5373534411425L649.8931032986111,279.1013393696987L650.5945529513888,325.0450992868285L650.9452777777777,295.0693081657213L651.6467274305555,315.96537050342585L651.9974522569445,277.0253402932323L655.1539756944444,342.71474639599984L656.206150173611,274.410320815136L656.556875,231.25050117408816L657.2583246527778,260.30673951916043L659.7133984374999,273.7895438498851L661.1162977430556,296.0727621293497L662.1684722222222,260.06183008977786L663.2206467013889,296.2526632998869L663.5713715277777,287.74333283733205L664.9742708333333,324.74313911496455L665.3249956597222,282.6365461277038L666.3771701388889,272.7086315808318L668.8322439236111,218.15898582464152L669.18296875,283.8545098948363L669.5336935763888,207.22225234646294L670.2351432291667,259.09350558699833L670.9365928819444,328.8683124191969L671.2873177083333,365.9466615880697L673.7423914930556,266.0708053958399L675.496015625,268.03563048973865L677.6003645833333,267.504660659634L678.6525390625,264.1183944470283L679.0032638888889,279.17144799860074L680.0554383680557,291.97393613062326L682.5105121527778,259.5067921516887L683.5626866319445,212.0370880268866L683.9134114583333,337.0338635367287L684.2641362847222,275.2300883403221L687.4206597222221,265.8884458396613L688.4728342013889,330.47241031704317L688.8235590277778,288.54766795926224L689.5250086805555,360.76426904283556L690.5771831597223,301.0534590052256L690.9279079861112,251.2253234668318L691.2786328125,239.22698373128705L692.3308072916667,308.37543897467316L693.7337065972222,292.43365735587076L695.4873307291666,264.1088639350866L698.9945789930556,308.87125519498386L699.3453038194444,274.72612105909633L699.6960286458334,263.8609237399918L701.0989279513889,255.92772925473795L701.4496527777778,261.08044952413L701.8003776041666,265.70619383612467L704.6061762152777,296.76121685209705L705.6583506944444,247.2883161557995L709.1655989583334,284.6181700927319L710.2177734375,328.1632492213853L711.6206727430555,314.22138506726384L713.0235720486112,259.4598034873383L713.7250217013889,306.50944430931645L714.7771961805556,285.8439849644602L715.1279210069445,254.9166756634568L716.8815451388889,275.05211812392315L717.2322699652777,307.462990141382L718.6351692708334,276.64755583335204L718.9858940972222,278.78103836953875L719.3366189236111,309.11393647856926L719.68734375,279.431987411024L720.3887934027779,354.46368060308066L722.493142361111,231.51652036004631L723.8960416666667,278.15142773441846L725.2989409722222,248.63743007072298L726.7018402777778,291.33773303717646L727.7540147569443,302.929946858399L728.4554644097223,308.7610108822823L730.5598133680555,249.26419634392872L730.9105381944445,255.27805290062722L731.2612630208334,228.93461054538236L731.6119878472222,337.40854207126137L733.3656119791666,277.87201202600255L733.7163368055556,301.54843945635935L734.0670616319444,334.04061336393846L735.4699609375,305.38435016662174L736.5221354166667,284.43471168443006L737.2235850694444,233.39378484644453L738.2757595486112,261.91289624139864L738.9772092013889,278.26127415646187L739.3279340277778,289.6441003830399L739.6786588541667,258.5401802909345L740.0293836805556,244.85851923281723L742.1337326388889,340.42252555896016L743.5366319444445,303.6121804825899L743.8873567708333,278.3611554433067L744.2380815972222,300.1945018520934L744.5888064236111,262.38690040536335L746.3424305555556,313.5153492691515L749.1482291666667,310.49651264641807L749.4989539930556,290.7756281725113L750.9018532986112,322.43014283557204L751.6033029513889,305.9518412949946L752.6554774305556,273.4255376344037L753.3569270833334,249.58260317496016L754.4091015625,234.900378574966L754.7598263888889,287.9493800391209L757.565625,285.75187754780245L758.6177994791667,279.22153191865914L762.1250477430556,295.05877365429205L762.8264973958333,269.0712135216101L763.878671875,244.43750417681235L765.2815711805556,234.65744318323902L765.6322960069444,251.9215577267387L765.9830208333334,309.10291213894726L767.0351953125,266.1476350346057L768.0873697916666,289.4472650283711L769.4902690972223,198.1816967953789L770.8931684027777,284.65895882545226L771.5244730902778,267.91971013123305L773.3482421875001,277.991727281072L774.0496918402778,297.8659497885281L777.2062152777777,247.50521887576735L778.6091145833334,285.6700164905439L779.6612890625,232.74665629430243L780.0120138888889,270.61650107801466L780.7134635416666,289.88252051173083L781.0641883680555,314.7491589946682L781.7656380208333,279.93366325272814L783.1685373263889,288.02152534396697L783.8699869791667,246.30509371049817L786.3250607638888,399.80877671971496L786.6757855902778,353.9784208256464L787.0265104166666,237.76928888648942L787.3772352430556,241.79019644439467L788.4294097222222,251.09724243113914L791.5859331597222,202.72364969938076L793.3395572916667,282.6770741139694L793.6902821180556,250.6767936848915L794.0410069444445,248.0210008268711L795.44390625,264.0325394598487L795.7946310763889,281.5343799427757L796.4960807291667,239.3590337964383L797.5482552083334,240.86852461536174L798.6004296875,239.91431998528918L799.6526041666666,228.6282773960356L800.0033289930556,335.82825097395767L800.7047786458334,250.05626518735198L801.406228298611,321.4293517827684L802.107677951389,222.89811366092786L803.8613020833334,324.22118545221366L805.2642013888889,298.12144023711085L806.3163758680556,291.5878804767172L808.4207248263888,297.6212922710706L808.7714496527777,249.7647066529632L809.1221744791667,296.87788308685765L810.1743489583334,284.8833444898625L811.9279730902779,238.646599364955L814.032322048611,312.5541472324074L814.383046875,270.8114355332994L815.7859461805555,273.57304463657925L817.8902951388889,285.22026531354436L818.2410199652778,264.8921418264049L819.6439192708333,221.42385720234384L819.9946440972222,273.3075780216495L820.3453689236111,296.64459464713184L821.3975434027777,281.38302419743684L822.0989930555555,323.3301382711027L823.1511675347222,349.00389985431593L824.2033420138889,279.7529641962624L825.2555164930556,288.99196199806613L826.6584157986111,262.15930032211196L827.009140625,304.1221275215419L827.3598654513888,272.1695783314227L827.7105902777778,300.44120598758735L828.0613151041667,290.22491458548944L828.7627647569444,301.085708379736L829.1134895833333,217.96172757653986L829.4642144097222,326.7579306644463L832.6207378472222,280.7480951642734L833.3221875,265.59114386808386L834.0236371527778,286.30490987260856L835.4265364583333,279.72286593196264L836.1279861111111,309.2243331164573L836.4787109375,277.14472792569705L837.5308854166667,261.23164291607577L846.6497309027778,276.22064842159784L848.0526302083333,288.38250473953934L848.4033550347223,321.9120781802606L849.8062543402777,301.1179611202002L850.5077039930557,188.23913657517465L851.5598784722222,287.08494763565835L852.9627777777778,251.69235695756444L853.3135026041666,327.4480924195307L854.7164019097222,287.28025899637953L855.768576388889,353.3792769116668L857.1714756944444,254.24140344109642L859.6265494791666,311.5736731733536L859.9772743055555,292.6428569259794L860.3279991319445,281.38302419743684L864.1859722222222,233.36787943359232L864.5366970486111,262.93764589253294L865.2381467013888,252.78486924534604L866.6410460069445,264.61491055297734L868.394670138889,258.91521624337463L870.1482942708334,298.91056455055127L870.8497439236112,289.49906724700674L871.2004687499999,258.6057753826374L871.9019184027778,295.11150009486704L872.2526432291667,293.2188433371401L872.6033680555556,262.7951281299842L874.0062673611111,299.2951782641958L874.7077170138889,291.9948211139692L875.0584418402777,218.42220592838265L875.7598914930555,237.12167515934746L876.8120659722222,225.93535207433587L877.513515625,282.5757882590295L878.9164149305556,261.23164291607577L879.2671397569444,287.6712524448773L880.6700390625,243.43651179452613L881.020763888889,287.7742471216898L882.4236631944444,289.39549617725515L882.7743880208334,249.30057529001473L883.8265624999999,224.91682033671043L884.1772873263889,267.2154269238605L885.2294618055556,258.7932762725399L888.0352604166667,302.07656698220643L888.3859852430555,300.89221135595227L889.4381597222222,307.8913978311336L890.8410590277779,314.3111444773361L892.945407986111,255.74195853366425L894.6990321180555,286.1409407117508L896.4526562499999,274.06529077534236L897.5048307291667,259.5255941003573L899.9599045138889,275.4180465690363L902.4149782986111,277.61278400854957L906.2729513888888,291.27521538636745L906.9744010416667,297.14316302776194L908.7280251736112,328.29239696869456L910.4816493055556,278.5610387560005L911.1830989583334,232.99671098573384L911.5338237847222,265.20792260513724L911.8845486111111,288.6199530971565L913.9888975694445,183.69036094906807L914.6903472222223,324.16325112350705L915.0410720486111,304.03527903806855L915.7425217013889,240.399880365608L916.0932465277778,300.205238473439L918.1975954861111,249.37332434656537L919.6004947916667,308.28736076670486L920.3019444444445,262.9186351944667L923.4584678819444,238.98062437656375L924.5106423611111,288.8885853690386L925.5628168402778,289.457634653405L926.2642664930555,298.70776469221676L929.7715147569444,303.12472447756454L930.8236892361111,318.309878197345L931.1744140625001,259.384618562629L933.2787630208333,270.4509185120838L934.3309375,299.6160685337948L937.4874609375,272.6399738327052L938.8903602430555,277.14472792569705L939.2410850694445,314.412171717184L940.643984375,318.5373296238028L943.0990581597222,251.49081565801782L945.9048567708334,261.16546558274297L947.6584809027778,216.12662598208547L948.0092057291666,254.36153798334757L949.0613802083334,241.18724168375599L949.7628298611112,308.60672438301873L951.5164539930556,325.7663725015435L952.5686284722223,288.41345843017467L954.3222526041667,222.38924571449107L956.4266015625,290.4741624569819L957.1280512152779,282.2721056102034L958.1802256944444,297.5043450833169L959.933849826389,320.99325597248173L960.6352994791667,311.1179137628371L960.9860243055555,260.4481364616042L961.3367491319444,253.6044707893902L962.0381987847222,299.2737940245418L962.3889236111112,299.99085789911163L963.7918229166667,304.04612405741216L964.1425477430556,275.4180465690363L964.4932725694443,311.42908354285726L965.896171875,325.9411125128626L966.5976215277777,286.5099998642603L968.7019704861111,286.7357341543076L969.7541449652779,245.19036607752207L970.8063194444444,279.6124988164134L971.5077690972223,286.1716950976353L973.2613932291667,286.7665477963038L975.3657421874999,344.9001734232133L977.1193663194443,253.55837104526353L977.8208159722222,293.0197434481207L978.522265625,292.7684346997265L978.8729904513889,244.37484840125248L979.2237152777777,255.8069622618381L979.9251649305555,306.81600563362156L980.2758897569445,276.37943595664916L983.4324131944444,315.24407091555776L984.8353125,291.2856465347775L985.8874869791667,290.2664254356381L987.2903862847222,261.93184516480903L990.4469097222222,273.8092352537392L991.4990842013889,310.14197898310687L992.9019835069445,289.65445190976607L993.2527083333333,315.67212266152694L994.3048828125,283.99691725894655L995.0063324652778,291.2127352117336L995.3570572916667,231.2590702881312L997.4614062500001,280.08431059002214L999.5657552083333,284.1088617503675L1000.968654513889,287.9596749497967L1002.3715538194444,233.77406996627295L1003.0730034722221,330.98134451445713L1003.4237282986111,215.3597867887342L1004.8266276041666,256.97939594026366L1006.2295269097223,251.69235695756444L1006.9309765625,251.17957726157138L1007.6324262152777,264.4238448927291L1010.0875000000001,287.3522482333675L1010.4382248263888,300.0444327134762L1011.8411241319445,287.5168615693844L1013.2440234375,290.2560533887825L1014.2961979166666,276.4985742573026L1014.9976475694444,307.3751715870963L1015.3483723958334,318.9585892193131L1015.6990972222221,244.70617596686756L1016.7512717013889,294.1532190144591L1017.4527213541666,274.1441107572385L1017.8034461805555,299.88373612757607L1018.5048958333333,213.10294058822225L1019.2063454861111,250.25689447929688L1020.2585199652777,292.1932615229741L1020.9599696180555,249.73737017632152L1021.6614192708333,284.7813330180595L1022.0121440972222,261.8655403062901L1022.3628689236111,269.11000076201253L1023.0643185763888,241.63047499888899L1023.7657682291666,278.13145768841366L1025.5193923611112,315.99921435940774L1026.2208420138888,288.95062198609287L1026.5715668402777,257.4645416396529L1029.026640625,282.3935380326238L1029.7280902777777,254.50023995995906L1030.4295399305556,277.4234864908249L1030.7802647569445,272.0325173342438L1034.6382378472222,343.9599225473748L1038.4962109375,275.40813752107687L1038.846935763889,262.0834558001075L1039.5483854166666,266.9842438779239L1040.6005598958334,295.11150009486704L1042.003459201389,209.9563955422485L1042.7049088541667,282.73787606135596L1043.0556336805555,300.95670544432215L1044.8092578125,208.17605929684993L1045.1599826388888,285.5779852878993L1045.5107074652778,351.55077886627606L1046.5628819444444,280.1446044688508L1046.9136067708334,269.27486617645275L1047.96578125,266.6666435947861L1050.0701302083332,293.5124929844906L1050.4208550347223,212.44039551644923L1051.1223046875,283.8036694855437L1051.8237543402777,306.1922658247286L1052.5252039930556,274.72612105909633L1052.8759288194444,312.1526560450255L1056.7339019097224,290.91084297460253L1057.084626736111,252.65614030798224L1057.4353515625,267.3696527585978L1058.4875260416668,281.63534904716033L1060.2411501736112,407.25348382776724L1060.591875,260.9387630225645L1062.3454991319445,265.6678314670166L1062.6962239583333,278.93114856659633L1063.0469487847222,259.0747299094763L1063.397673611111,320.6493939447445L1064.099123263889,256.20658381842645L1064.4498480902778,278.9711934529031L1064.8005729166666,287.06439185591984L1065.8527473958334,291.56702297768135L1069.710720486111,281.7767371574862L1071.8150694444446,302.27080727439454L1072.5165190972223,247.36059296553944L1075.3223177083335,276.9258660647015L1075.673042534722,195.3965340620099L1076.0237673611111,274.64712896932855L1076.7252170138888,300.7095895778626L1079.1802907986112,285.25090384590453L1080.2324652777777,289.90323989232877L1080.9339149305556,226.73738850268435L1081.9860894097221,247.640876603477L1082.6875390625,308.243331075241L1083.3889887152777,299.9372923715512L1086.5455121527777,282.8493411279818L1086.8962369791666,298.20664221671154L1087.2469618055557,238.87510488565707L1087.9484114583333,247.01739091793823L1088.649861111111,271.19189897692195L1089.351310763889,269.08089831807774L1090.0527604166666,295.94583461304325L1090.4034852430555,322.603005918406L1091.806384548611,250.1474540546643L1092.157109375,245.1544677759337L1092.507834201389,275.8735922709175L1094.2614583333334,230.78765186292893L1094.6121831597222,296.7930213542783L1095.3136328125001,242.48324292932233L1096.0150824652778,255.0185643251502L1096.3658072916667,263.5655424177187L1097.7687065972223,256.29029149823833L1098.119431423611,249.65541866529875L1099.5223307291667,234.89168719667288L1099.8730555555555,292.6951727174934L1100.2237803819444,291.0669641550726L1100.5745052083334,237.2091044943946L1101.2759548611111,247.91234926701532L1101.6266796875,275.39825238269367L1101.9774045138888,260.9859771328935L1104.4324782986112,258.8776876864698L1104.783203125,326.27926258280144L1105.1339279513888,266.1188102345474L1106.8875520833333,302.50835797240086L1107.2382769097221,241.17839279112007L1108.6411762152777,293.8799478907643L1109.6933506944445,273.8092352537392L1110.745525173611,258.6339077892639L1111.446974826389,287.33167466561315L1112.1484244791668,326.3959384734894L1112.8498741319445,253.65057741183188L1113.2005989583333,271.10405634503985L1113.5513237847222,289.90323989232877L1115.3049479166666,303.0381300231295L1115.6556727430557,243.33839196568658L1119.8643706597222,285.04664752689524L1120.5658203125,297.6531854219381L1123.0208940972223,264.1088639350866L1125.1252430555555,280.1948463756174L1125.4759678819444,299.11349758938974L1129.3339409722223,268.64494413693023L1129.6846657986111,276.39929309531715L1132.8411892361112,285.7109443084514L1133.5426388888889,269.7311438287245L1134.2440885416665,281.3628442211511L1134.5948133680556,275.5566177829383L1135.2962630208333,306.38911129141184L1135.997712673611,285.5166219992866L1136.3484375,297.0264219167773L1137.4006119791668,255.44498844197423L1138.8035112847222,235.6129298946499L1139.1542361111112,250.97837001353614L1140.9078602430557,273.46487532866263L1141.6093098958333,346.5401136162946L1142.310759548611,291.6713245538328L1142.661484375,293.44955885651484L1144.0643836805555,253.52148740920933L1144.7658333333334,306.3015973483525L1145.8180078125,266.00360657061896L1148.623806423611,344.5781850395894L1148.97453125,291.0148984539532L1149.3252560763888,222.43092208155844L1149.6759809027778,288.37219573278514L1150.3774305555555,292.7370167566207L1152.1310546875,256.4112253811582L1152.8325043402776,330.9339598568627L1153.5339539930555,266.70513016874725L1154.2354036458335,285.547289930659L1155.6383029513888,287.0438374434671L1157.0412022569444,320.7868873777342L1157.3919270833333,294.09012921103994L1159.8470008680556,282.4846497099381L1160.1977256944444,270.4411906833772L1160.8991753472221,279.8232208370807L1161.2499001736112,276.36949603274513L1162.3020746527777,300.95670544432215L1163.0035243055556,306.27972273456925L1163.3542491319445,266.7435985963866L1163.7049739583333,385.08374546145984L1164.4064236111112,235.3781387240341L1164.7571484375,284.50604097954437L1166.5107725694445,295.0165889231385L1167.913671875,253.86277412890436L1168.264396701389,287.0746573247006L1173.1745442708334,215.91433231440416L1174.2267187500001,276.68730586352063L1175.2788932291667,286.8178780553074L1176.3310677083332,299.6909900505832L1177.733967013889,260.3350272138175L1178.0846918402776,285.69047972190697L1178.7861414930555,351.247058229705L1179.1368663194444,244.55388641782213L1179.4875911458334,285.1079175510928L1181.5919401041667,265.6294738597744L1183.3455642361112,281.5242968787119L1183.6962890625,297.6425624568055L1184.0470138888888,269.52719034684645L1184.3977387152777,244.92127316401775L1185.4499131944444,315.5481689233505L1186.1513628472221,269.12939620806594L1186.5020876736112,324.34869580570654L1188.6064366319445,250.61286010802922L1189.658611111111,285.3428620372853L1190.360060763889,242.5811127748158L1190.7107855902777,283.83416787842174L1191.4122352430554,300.7955338738072L1191.7629600694445,358.83984765768434L1192.3942647569445,230.06901429502597L1192.4644097222222,254.93520038335197" style="fill: none;" fill="none"></path></g></g></g></g></g></g><g transform="translate(20, 377)" clip-path="url(#clip_1)"><clipPath id="clip_1"><rect width="1262" height="23"></rect></clipPath><g><g><line x1="0" y1="0" x2="0" y2="5" style="visibility: inherit;" fill="rgb(0, 0, 0)" stroke="rgb(204, 204, 204)" stroke-width="1px"></line><line x1="140.28993055555554" y1="0" x2="140.28993055555554" y2="5" style="visibility: inherit;" fill="rgb(0, 0, 0)" stroke="rgb(204, 204, 204)" stroke-width="1px"></line><line x1="280.5798611111111" y1="0" x2="280.5798611111111" y2="5" style="visibility: inherit;" fill="rgb(0, 0, 0)" stroke="rgb(204, 204, 204)" stroke-width="1px"></line><line x1="420.86979166666663" y1="0" x2="420.86979166666663" y2="5" style="visibility: inherit;" fill="rgb(0, 0, 0)" stroke="rgb(204, 204, 204)" stroke-width="1px"></line><line x1="561.1597222222222" y1="0" x2="561.1597222222222" y2="5" style="visibility: inherit;" fill="rgb(0, 0, 0)" stroke="rgb(204, 204, 204)" stroke-width="1px"></line><line x1="701.4496527777778" y1="0" x2="701.4496527777778" y2="5" style="visibility: inherit;" fill="rgb(0, 0, 0)" stroke="rgb(204, 204, 204)" stroke-width="1px"></line><line x1="841.7395833333333" y1="0" x2="841.7395833333333" y2="5" style="visibility: inherit;" fill="rgb(0, 0, 0)" stroke="rgb(204, 204, 204)" stroke-width="1px"></line><line x1="982.0295138888889" y1="0" x2="982.0295138888889" y2="5" style="visibility: inherit;" fill="rgb(0, 0, 0)" stroke="rgb(204, 204, 204)" stroke-width="1px"></line><line x1="1122.3194444444443" y1="0" x2="1122.3194444444443" y2="5" style="visibility: inherit;" fill="rgb(0, 0, 0)" stroke="rgb(204, 204, 204)" stroke-width="1px"></line><line x1="1262.609375" y1="0" x2="1262.609375" y2="5" style="visibility: inherit;" fill="rgb(0, 0, 0)" stroke="rgb(204, 204, 204)" stroke-width="1px"></line></g><g transform="translate(0, 8)"><text x="0" y="0" dx="0em" dy="0.95em" style="text-anchor: middle; visibility: hidden; font-family: Roboto, sans-serif; font-size: 12px; font-weight: 200;" fill="rgb(255, 255, 255)" stroke="none" stroke-width="1px">-2k</text><text x="140.28993055555554" y="0" dx="0em" dy="0.95em" style="text-anchor: middle; visibility: inherit; font-family: Roboto, sans-serif; font-size: 12px; font-weight: 200;" fill="rgb(255, 255, 255)" stroke="none" stroke-width="1px">0</text><text x="280.5798611111111" y="0" dx="0em" dy="0.95em" style="text-anchor: middle; visibility: inherit; font-family: Roboto, sans-serif; font-size: 12px; font-weight: 200;" fill="rgb(255, 255, 255)" stroke="none" stroke-width="1px">2k</text><text x="420.86979166666663" y="0" dx="0em" dy="0.95em" style="text-anchor: middle; visibility: inherit; font-family: Roboto, sans-serif; font-size: 12px; font-weight: 200;" fill="rgb(255, 255, 255)" stroke="none" stroke-width="1px">4k</text><text x="561.1597222222222" y="0" dx="0em" dy="0.95em" style="text-anchor: middle; visibility: inherit; font-family: Roboto, sans-serif; font-size: 12px; font-weight: 200;" fill="rgb(255, 255, 255)" stroke="none" stroke-width="1px">6k</text><text x="701.4496527777778" y="0" dx="0em" dy="0.95em" style="text-anchor: middle; visibility: inherit; font-family: Roboto, sans-serif; font-size: 12px; font-weight: 200;" fill="rgb(255, 255, 255)" stroke="none" stroke-width="1px">8k</text><text x="841.7395833333333" y="0" dx="0em" dy="0.95em" style="text-anchor: middle; visibility: inherit; font-family: Roboto, sans-serif; font-size: 12px; font-weight: 200;" fill="rgb(255, 255, 255)" stroke="none" stroke-width="1px">10k</text><text x="982.0295138888889" y="0" dx="0em" dy="0.95em" style="text-anchor: middle; visibility: inherit; font-family: Roboto, sans-serif; font-size: 12px; font-weight: 200;" fill="rgb(255, 255, 255)" stroke="none" stroke-width="1px">12k</text><text x="1122.3194444444443" y="0" dx="0em" dy="0.95em" style="text-anchor: middle; visibility: inherit; font-family: Roboto, sans-serif; font-size: 12px; font-weight: 200;" fill="rgb(255, 255, 255)" stroke="none" stroke-width="1px">14k</text><text x="1262.609375" y="0" dx="0em" dy="0.95em" style="text-anchor: middle; visibility: hidden; font-family: Roboto, sans-serif; font-size: 12px; font-weight: 200;" fill="rgb(255, 255, 255)" stroke="none" stroke-width="1px">16k</text></g><line x1="0" y1="0" x2="1262.609375" y2="0" fill="rgb(0, 0, 0)" stroke="rgb(204, 204, 204)" stroke-width="1px"></line></g></g></g></g></svg>