<svg viewBox="0 0 1303 400" xmlns="http://www.w3.org/2000/svg"><g><g><g><g><g><line x1="37.375" y1="376" x2="32.375" y2="376" style="visibility: inherit;" fill="rgb(0, 0, 0)" stroke="rgb(204, 204, 204)" stroke-width="1px"></line><line x1="37.375" y1="341.8181818181818" x2="32.375" y2="341.8181818181818" style="visibility: inherit;" fill="rgb(0, 0, 0)" stroke="rgb(204, 204, 204)" stroke-width="1px"></line><line x1="37.375" y1="307.6363636363636" x2="32.375" y2="307.6363636363636" style="visibility: inherit;" fill="rgb(0, 0, 0)" stroke="rgb(204, 204, 204)" stroke-width="1px"></line><line x1="37.375" y1="273.45454545454544" x2="32.375" y2="273.45454545454544" style="visibility: inherit;" fill="rgb(0, 0, 0)" stroke="rgb(204, 204, 204)" stroke-width="1px"></line><line x1="37.375" y1="239.27272727272728" x2="32.375" y2="239.27272727272728" style="visibility: inherit;" fill="rgb(0, 0, 0)" stroke="rgb(204, 204, 204)" stroke-width="1px"></line><line x1="37.375" y1="205.09090909090907" x2="32.375" y2="205.09090909090907" style="visibility: inherit;" fill="rgb(0, 0, 0)" stroke="rgb(204, 204, 204)" stroke-width="1px"></line><line x1="37.375" y1="170.90909090909093" x2="32.375" y2="170.90909090909093" style="visibility: inherit;" fill="rgb(0, 0, 0)" stroke="rgb(204, 204, 204)" stroke-width="1px"></line><line x1="37.375" y1="136.72727272727272" x2="32.375" y2="136.72727272727272" style="visibility: inherit;" fill="rgb(0, 0, 0)" stroke="rgb(204, 204, 204)" stroke-width="1px"></line><line x1="37.375" y1="102.54545454545453" x2="32.375" y2="102.54545454545453" style="visibility: inherit;" fill="rgb(0, 0, 0)" stroke="rgb(204, 204, 204)" stroke-width="1px"></line><line x1="37.375" y1="68.36363636363635" x2="32.375" y2="68.36363636363635" style="visibility: inherit;" fill="rgb(0, 0, 0)" stroke="rgb(204, 204, 204)" stroke-width="1px"></line><line x1="37.375" y1="34.181818181818194" x2="32.375" y2="34.181818181818194" style="visibility: inherit;" fill="rgb(0, 0, 0)" stroke="rgb(204, 204, 204)" stroke-width="1px"></line><line x1="37.375" y1="0" x2="32.375" y2="0" style="visibility: inherit;" fill="rgb(0, 0, 0)" stroke="rgb(204, 204, 204)" stroke-width="1px"></line></g><g transform="translate(27.375, 0)"><text x="0" y="376" dx="0em" dy="0.3em" style="text-anchor: end; visibility: hidden; font-family: Roboto, sans-serif; font-size: 12px; font-weight: 200;" fill="rgb(255, 255, 255)" stroke="none" stroke-width="1px">2</text><text x="0" y="341.8181818181818" dx="0em" dy="0.3em" style="text-anchor: end; visibility: inherit; font-family: Roboto, sans-serif; font-size: 12px; font-weight: 200;" fill="rgb(255, 255, 255)" stroke="none" stroke-width="1px">2.5</text><text x="0" y="307.6363636363636" dx="0em" dy="0.3em" style="text-anchor: end; visibility: inherit; font-family: Roboto, sans-serif; font-size: 12px; font-weight: 200;" fill="rgb(255, 255, 255)" stroke="none" stroke-width="1px">3</text><text x="0" y="273.45454545454544" dx="0em" dy="0.3em" style="text-anchor: end; visibility: inherit; font-family: Roboto, sans-serif; font-size: 12px; font-weight: 200;" fill="rgb(255, 255, 255)" stroke="none" stroke-width="1px">3.5</text><text x="0" y="239.27272727272728" dx="0em" dy="0.3em" style="text-anchor: end; visibility: inherit; font-family: Roboto, sans-serif; font-size: 12px; font-weight: 200;" fill="rgb(255, 255, 255)" stroke="none" stroke-width="1px">4</text><text x="0" y="205.09090909090907" dx="0em" dy="0.3em" style="text-anchor: end; visibility: inherit; font-family: Roboto, sans-serif; font-size: 12px; font-weight: 200;" fill="rgb(255, 255, 255)" stroke="none" stroke-width="1px">4.5</text><text x="0" y="170.90909090909093" dx="0em" dy="0.3em" style="text-anchor: end; visibility: inherit; font-family: Roboto, sans-serif; font-size: 12px; font-weight: 200;" fill="rgb(255, 255, 255)" stroke="none" stroke-width="1px">5</text><text x="0" y="136.72727272727272" dx="0em" dy="0.3em" style="text-anchor: end; visibility: inherit; font-family: Roboto, sans-serif; font-size: 12px; font-weight: 200;" fill="rgb(255, 255, 255)" stroke="none" stroke-width="1px">5.5</text><text x="0" y="102.54545454545453" dx="0em" dy="0.3em" style="text-anchor: end; visibility: inherit; font-family: Roboto, sans-serif; font-size: 12px; font-weight: 200;" fill="rgb(255, 255, 255)" stroke="none" stroke-width="1px">6</text><text x="0" y="68.36363636363635" dx="0em" dy="0.3em" style="text-anchor: end; visibility: inherit; font-family: Roboto, sans-serif; font-size: 12px; font-weight: 200;" fill="rgb(255, 255, 255)" stroke="none" stroke-width="1px">6.5</text><text x="0" y="34.181818181818194" dx="0em" dy="0.3em" style="text-anchor: end; visibility: inherit; font-family: Roboto, sans-serif; font-size: 12px; font-weight: 200;" fill="rgb(255, 255, 255)" stroke="none" stroke-width="1px">7</text><text x="0" y="0" dx="0em" dy="0.3em" style="text-anchor: end; visibility: hidden; font-family: Roboto, sans-serif; font-size: 12px; font-weight: 200;" fill="rgb(255, 255, 255)" stroke="none" stroke-width="1px">7.5</text></g><line x1="37.375" y1="0" x2="37.375" y2="376" fill="rgb(0, 0, 0)" stroke="rgb(204, 204, 204)" stroke-width="1px"></line></g></g><g transform="translate(37, 0)" clip-path="url(#clip_0)"><clipPath id="clip_0"><rect width="1265" height="376"></rect></clipPath><g><g><g><line x1="0" y1="0" x2="0" y2="376" fill="rgb(0, 0, 0)" stroke="rgb(189, 189, 189)" stroke-width="1px" opacity="0.25"></line><line x1="126.5625" y1="0" x2="126.5625" y2="376" fill="rgb(0, 0, 0)" stroke="rgb(189, 189, 189)" stroke-width="1px" opacity="0.25"></line><line x1="253.125" y1="0" x2="253.125" y2="376" fill="rgb(0, 0, 0)" stroke="rgb(189, 189, 189)" stroke-width="1px" opacity="0.25"></line><line x1="379.6875" y1="0" x2="379.6875" y2="376" fill="rgb(0, 0, 0)" stroke="rgb(189, 189, 189)" stroke-width="1px" opacity="0.25"></line><line x1="506.25" y1="0" x2="506.25" y2="376" fill="rgb(0, 0, 0)" stroke="rgb(189, 189, 189)" stroke-width="1px" opacity="0.25"></line><line x1="632.8125" y1="0" x2="632.8125" y2="376" fill="rgb(0, 0, 0)" stroke="rgb(189, 189, 189)" stroke-width="1px" opacity="0.25"></line><line x1="759.375" y1="0" x2="759.375" y2="376" fill="rgb(0, 0, 0)" stroke="rgb(189, 189, 189)" stroke-width="1px" opacity="0.25"></line><line x1="885.9375" y1="0" x2="885.9375" y2="376" fill="rgb(0, 0, 0)" stroke="rgb(189, 189, 189)" stroke-width="1px" opacity="0.25"></line><line x1="1012.5" y1="0" x2="1012.5" y2="376" fill="rgb(0, 0, 0)" stroke="rgb(189, 189, 189)" stroke-width="1px" opacity="0.25"></line><line x1="1139.0625" y1="0" x2="1139.0625" y2="376" fill="rgb(0, 0, 0)" stroke="rgb(189, 189, 189)" stroke-width="1px" opacity="0.25"></line><line x1="1265.625" y1="0" x2="1265.625" y2="376" fill="rgb(0, 0, 0)" stroke="rgb(189, 189, 189)" stroke-width="1px" opacity="0.25"></line></g><g><line x1="0" y1="376" x2="1265.625" y2="376" fill="rgb(0, 0, 0)" stroke="rgb(189, 189, 189)" stroke-width="1px" opacity="0.25"></line><line x1="0" y1="341.8181818181818" x2="1265.625" y2="341.8181818181818" fill="rgb(0, 0, 0)" stroke="rgb(189, 189, 189)" stroke-width="1px" opacity="0.25"></line><line x1="0" y1="307.6363636363636" x2="1265.625" y2="307.6363636363636" fill="rgb(0, 0, 0)" stroke="rgb(189, 189, 189)" stroke-width="1px" opacity="0.25"></line><line x1="0" y1="273.45454545454544" x2="1265.625" y2="273.45454545454544" fill="rgb(0, 0, 0)" stroke="rgb(189, 189, 189)" stroke-width="1px" opacity="0.25"></line><line x1="0" y1="239.27272727272728" x2="1265.625" y2="239.27272727272728" fill="rgb(0, 0, 0)" stroke="rgb(189, 189, 189)" stroke-width="1px" opacity="0.25"></line><line x1="0" y1="205.09090909090907" x2="1265.625" y2="205.09090909090907" fill="rgb(0, 0, 0)" stroke="rgb(189, 189, 189)" stroke-width="1px" opacity="0.25"></line><line x1="0" y1="170.90909090909093" x2="1265.625" y2="170.90909090909093" fill="rgb(0, 0, 0)" stroke="rgb(189, 189, 189)" stroke-width="1px" opacity="0.25"></line><line x1="0" y1="136.72727272727272" x2="1265.625" y2="136.72727272727272" fill="rgb(0, 0, 0)" stroke="rgb(189, 189, 189)" stroke-width="1px" opacity="0.25"></line><line x1="0" y1="102.54545454545453" x2="1265.625" y2="102.54545454545453" fill="rgb(0, 0, 0)" stroke="rgb(189, 189, 189)" stroke-width="1px" opacity="0.25"></line><line x1="0" y1="68.36363636363635" x2="1265.625" y2="68.36363636363635" fill="rgb(0, 0, 0)" stroke="rgb(189, 189, 189)" stroke-width="1px" opacity="0.25"></line><line x1="0" y1="34.181818181818194" x2="1265.625" y2="34.181818181818194" fill="rgb(0, 0, 0)" stroke="rgb(189, 189, 189)" stroke-width="1px" opacity="0.25"></line><line x1="0" y1="0" x2="1265.625" y2="0" fill="rgb(0, 0, 0)" stroke="rgb(189, 189, 189)" stroke-width="1px" opacity="0.25"></line></g></g></g><g><g><line x1="0" y1="512.7272727272727" x2="1265.625" y2="512.7272727272727" fill="rgb(0, 0, 0)" stroke="rgb(153, 153, 153)" stroke-width="1.5px"></line></g></g><g><g><line x1="126.5625" y1="0" x2="126.5625" y2="376" fill="rgb(0, 0, 0)" stroke="rgb(153, 153, 153)" stroke-width="1.5px"></line></g></g><g><g><g><g><g><path stroke="rgb(255, 112, 67)" stroke-width="2px" d="M127.82812500000001,39.47999087246983L130.9921875,124.68832624852361L131.30859375,140.04913554521593L132.2578125,163.15124009651203L132.57421875,167.2603345697267L132.890625,165.15576614494728L133.5234375,177.26624561951857L134.7890625,163.75346663352445L135.10546875,176.4278492185298L139.21875,183.2645072472679L141.43359375,207.72642395861274L141.75,215.03049375238876L142.06640625,213.91988754399054L142.69921875,216.04263585077175L143.6484375,225.2126724498044L145.546875,228.04062955960967L145.86328125,230.71251061845018L146.1796875,232.04037953596912L146.49609375,228.18192220450766L147.4453125,236.26809392986002L147.76171875,244.07297792794014L148.078125,247.8611671737335L148.7109375,249.5823019168319L149.02734375,253.20606784437854L150.92578125,262.31668792450944L152.5078125,273.3756874428966L154.72265625,272.62111001739123L157.88671875,271.51347550081505L159.15234375,271.49048660976507L160.1015625,283.5176013614431L160.41796875,286.6275535303602L161.05078125,295.35017741480567L163.265625,295.80497705436346L164.84765625,285.35787389177756L166.11328125,284.3025577085032L166.4296875,282.1475131674146L167.0625,272.6383415556826L167.6953125,267.43092332913596L169.59375,262.8439433730203L169.91015625,260.2000201471666L172.125,266.5838598251458L172.7578125,283.005728412685L173.07421875,273.9314526018882L174.0234375,273.23786120731666L176.23828125000003,281.0416397233827L177.18750000000003,284.6383348572315L177.82031250000003,287.45386831301454L178.45312499999997,286.0318600041762L180.35156249999997,306.2194492323613L180.66796874999997,303.4777482566285L180.98437499999997,304.48540643286117L182.56640625,313.3217495275238L184.78125,310.95017863493604L185.09765625,296.6296427775885L185.4140625,301.9361945363402L186.6796875,295.58575663057184L186.99609375,297.19716285936005L187.3125,284.7187064423674L189.52734375,294.2112944669062L190.4765625,287.047924966505L190.79296875,284.7865174816665L191.109375,273.97350026982554L191.42578125,295.1791337497495L192.05859375,301.09574130839763L193.32421875,306.4861246511304L193.95703125,308.534864606397L194.58984375,304.06766244093524L195.85546875,297.3455320230474L196.171875,290.37746635726336L196.48828125,295.3085174801922L197.4375,293.01438168208495L199.01953125,294.6603414726411L202.18359375,289.14626564579265L203.765625,288.6705717328809L204.08203125,297.41407529122785L204.3984375,293.4805140738504L208.1953125,290.1437926229845L208.51171875,293.1595287715679L208.828125,298.7551438932985L212.30859375,297.7986861222157L213.2578125,298.2850870903525L213.89062500000003,313.0329242599429L214.52343750000003,310.495233536764L215.78906250000003,311.20264467791316L216.73828125000003,303.71860773027925L217.68749999999997,301.086083242834L218.32031249999997,310.9116691382305L219.90234374999997,304.70759125374417L220.53515624999997,307.2476073777213L220.85156249999997,292.88734344690647L223.3828125,278.70419817690725L224.015625,285.5476073215746L225.28125,290.70584204773525L226.546875,296.55472288664413L227.1796875,298.03429456776024L227.49609375,291.9093530078341L228.4453125,292.0931503053049L233.19140625,289.4412942297369L233.5078125,293.09353500046734L235.08984375,295.50537655657143L235.72265625,298.1779853776301L236.0390625,299.0172062933675L237.9375,293.4773095278796L238.5703125,301.9054518863848L239.8359375,308.33603191694243L241.1015625,307.6890566526298L241.41796875,309.4638841073882L241.734375,309.0886750488579L242.05078125,290.9464941788029L242.3671875,310.98818729923573L242.68359375,304.17857891036397L246.1640625,294.7730041040072L248.6953125,293.6715400679578L249.9609375,280.65356403561833L250.59375,282.73358063860536L251.2265625,283.89510481719975L252.17578125,285.86972294784795L253.75781250000003,299.69070003987406L254.39062500000003,309.381819689247L255.97265625000003,299.23847041104653L257.5546875,303.9431096612885L257.87109375,310.914705819935L259.76953125,295.6972480249126L260.0859375,294.53825264657246L261.3515625,287.0807273834447L262.6171875,296.55845503629547L264.19921875,279.8887495224401L264.515625,287.80471102119515L264.83203125,284.98684792871575L265.46484375,298.39030304574214L266.73046875,302.27309270320904L267.046875,305.3019969243693L267.6796875,305.96294351558373L268.9453125,299.2357127028787L269.578125,282.6719110766877L270.84375,288.2175088050448L272.42578125,284.0515987715695L273.69140625,285.820962887556L274.0078125,281.15856151573945L274.640625,293.1896985583108L275.2734375,290.0140428836338L276.5390625,290.6002529885785L276.85546875,279.31592162343884L278.4375,272.9970325132575L278.75390625,282.0937066517932L280.65234375,283.48265108809096L281.28515625,285.8918584907408L282.8671875,290.3277406394936L284.1328125,278.07267350295774L287.61328125,287.6843639804267L287.9296875,281.70088131438996L288.24609375,278.1017686691122L288.5625,287.59870637268233L288.87890625,289.5921576641772L289.1953125,289.1319367508242L290.14453125,283.96875634927113L290.4609375,283.58976254812256L290.77734375,296.7588524067544L295.20703125,292.1262308732975L295.5234375,289.76016105841904L296.15625,303.27041842610095L296.47265625,299.79433511296196L296.7890625,300.60744881539847L297.421875,300.54617730301754L298.0546875,304.2911593995557L298.6875,304.6092847457475L299.3203125,295.3429924585833L300.5859375,311.22419326669535L301.21875,306.28573828948834L302.16796875,304.96725203274724L302.484375,305.1874292274502L304.3828125,315.07253747546724L305.015625,310.7416299944222L306.28125,313.462855262398L307.23046875,324.03867182481656L307.86328125,314.21737577099344L311.34375,307.9732277695463L311.66015625,306.19844146118044L312.609375,302.4042831915131L313.2421875,303.0146938703071L313.55859375,302.93944048108335L314.5078125,300.1059217507713L315.140625,300.6368622363721L316.72265624999994,295.4556407945233L317.0390625,291.10302590325784L318.62109374999994,301.1393352097883L320.203125,295.8542211888171L320.51953124999994,287.20365860678504L321.15234374999994,295.55802153784725L323.05078124999994,301.45768301234705L323.3671875,299.785809908795L324.31640625,296.2679808079489L324.94921875,306.6593223714975L325.265625,309.8284200723477L326.53125,310.30187825521637L327.796875,308.2539413855311L328.74609375,307.46770242261925L329.37890625,300.23331468626156L329.6953125,297.91319315633433L330.01171875,294.3563604209994L331.59375,301.5273314225211L332.2265625,311.8677116094015L333.4921875,296.64248739720455L334.44140625,305.73510542445365L335.07421875,297.5358632881922L337.2890625,294.80376405801815L338.23828125,300.36852564107693L339.8203125,298.4188107132321L340.13671875,298.1752070161838L341.40234375,298.7847351306353L342.66796875,296.7201048445894L345.19921875,299.94371432503726L345.83203125,292.4731917834935L346.46484375,292.1238817139961L346.78125,297.8393550715691L347.4140625,316.2821054317222L348.36328125,320.2421819445334L350.89453125,315.3810833459022L352.47656250000006,307.0220499325541L353.10937500000006,291.56804585771994L354.05859375,286.95436252955597L354.37500000000006,290.2772970548472L355.00781250000006,305.67669384401586L355.64062500000006,294.64049291112747L355.95703125,303.4267873943283L356.58984375,299.61077657280777L356.90624999999994,292.99125672019505L357.53906249999994,301.5086724250629L357.85546875,306.5282349984108L358.17187499999994,303.75418142600034L359.75390625,306.6742888240511L361.01953125,308.5117643603581L361.65234375,304.51122733486693L365.44921875,297.5199279055097L366.08203125,293.089775810864L367.98046875,280.8711952809889L368.296875,284.68921976502435L369.5625,289.71173497906796L370.51171875,294.4107527293079L371.4609375,291.3798337079113L371.77734375,282.47695322149815L372.41015625,277.03855661625306L372.7265625,282.134395967999L373.04296875,274.41290032263635L373.67578125,299.257557664625L375.57421875,303.9832210204683L380.63671875,302.3263570364017L380.953125,292.11690087556013L381.26953125,293.00314536189615L381.5859375,292.74626127539494L382.53515625,306.542401943201L385.06640625,293.76256434779737L385.3828125,291.4436240493142L388.23046875000006,277.1741289632178L389.49609375000006,289.3373098969383L389.8125,303.1280822403488L390.4453125,292.6919514557937L390.76171875000006,302.08110873957696L391.7109375,293.87157821767187L392.02734375000006,290.1233895208703L392.9765625,293.68024470106207L393.609375,292.6218088892922L395.5078125,308.25651102495056L397.40625,304.13572608538163L398.35546874999994,292.76252346469323L398.98828124999994,305.52572536467386L400.25390624999994,303.5591620138267L401.51953124999994,301.04839323837786L401.8359375,288.41844906290845L405.94921875,289.93717121646654L406.58203125,297.62742606079524L407.84765625,297.22115643295336L408.48046875,302.9329478679795L409.4296875,302.2639280544385L410.0625,313.9954404082362L410.37890625,314.6229420425205L411.328125,317.75118981263887L411.64453125,302.88304230563165L413.2265625,302.1439203124026L413.54296875,301.0031962275208L414.17578125,294.29079267442853L414.4921875,287.7584690637753L416.70703125,291.3676871993419L417.0234375,282.20171417099965L417.65625,289.7218973900331L419.87109375,276.24209098972614L420.50390625,279.2361223925536L420.8203125,283.13902511722824L421.13671875,305.0052233838246L423.3515625,298.73486733660997L424.30078125,284.8363287652396L425.25,288.3278201675273L426.515625,287.70307153227117L427.46484375,298.18539516691527L428.41406250000006,308.28795400156133L429.99609375,312.74889825695766L430.94531250000006,305.9426017466134L431.57812500000006,310.96540777855876L432.21093750000006,302.5833372505197L432.52734375,304.24364881509507L435.69140625,304.97494540659636L436.00781249999994,305.3386895972418L436.95703125,304.5602899266259L438.22265625,305.2680315756854L439.48828125,293.21295529974225L440.12109375,276.1901731920085L440.75390625,278.11923944608077L441.38671875,279.6620121496787L442.33593749999994,287.315772610052L443.28515625,289.4813595183721L443.6015625,296.1639194804845L443.91796875,297.5479716178714L444.55078125,289.3751814937148L446.1328125,296.554441020161L446.765625,298.33550946378426L447.3984375,288.8630450490073L449.61328125,290.9182751263017L450.87890625,295.6915279199634L451.51171875,294.3586262231802L453.7265625,301.380422861574L454.04296875,300.3622726885691L454.359375,309.39982311009874L456.2578125,303.152695057398L457.20703125,286.2076609816967L460.37109375,293.8283647748451L461.00390625,294.4695011838268L461.63671875,293.03100281861333L462.26953125,293.91333987507136L463.8515625,291.4481404594809L464.484375,297.9350316913612L464.80078125,297.29815499491315L465.1171875,304.05511870364074L465.43359375,298.7505719009185L465.75,298.5377236573685L467.015625,297.44609527067115L467.96484375000006,307.2156122759728L469.546875,318.4828837837657L469.86328125000006,315.93331685032086L470.1796875,302.1701091625281L471.4453125,312.59719875942807L473.66015625000006,313.9154799834094L474.92578124999994,306.18067333222524L475.2421875,301.8284649714386L475.55859374999994,290.4586813909045L476.5078125,296.5339640256916L477.140625,303.0118631226369L477.7734375,307.830762622097L478.08984374999994,294.8740651335449L478.72265624999994,297.2780315149051L480.9375,304.3568159872455L481.25390624999994,305.7627224185582L482.203125,290.804688471114L482.51953125,291.87347832454066L483.15234375,290.8316805928251L483.46875,300.2051154072456L484.41796875,291.4941919220388L485.05078125,288.3779303166709L486.6328125,300.64876391612034L488.84765625,303.15615805378627L490.11328125,302.94003653867406L490.4296875,295.14004301476075L490.74609375,302.6474963755473L493.91015625,297.7331786879101L494.54296875,304.26492774067844L495.4921875,290.0080868511275L497.70703125,304.96081445044473L498.33984375,305.4868308630498L498.65625,311.8240868057966L498.97265625,312.18128004369527L500.23828125,301.6760305507048L500.87109375,272.32329385159676L502.453125,279.7909173893287L503.71875,301.62229609875783L504.03515625,305.32523504120036L504.984375,309.74593923036605L507.19921875,291.26778123548706L507.51562500000006,286.99870396734633L507.83203125,289.1994099572374L510.04687500000006,298.31200184394794L511.31250000000006,307.08218482477673L512.89453125,304.0774484111724L513.52734375,313.3537331007253L514.79296875,301.23072845699716L515.7421875,301.45905179412256L519.5390625,311.96152006468213L520.171875,310.167565153023L521.12109375,310.11674926665813L521.4375,309.6970190760363L521.75390625,307.3464864713028L522.0703125,302.8035451551542L522.703125,295.87114442183235L523.3359375,290.55317920184706L523.65234375,302.6066658232448L524.6015625,308.7573767997035L524.91796875,301.468989734297L526.81640625,303.85312703628284L528.08203125,299.860465631039L529.6640625,295.53679300095246L529.98046875,290.42640124653894L530.296875,292.6353438834653L531.5625,297.10453163433687L532.51171875,292.5962034663621L534.09375,290.08001125649423L535.04296875,279.3370630892823L536.625,296.78073638534863L536.94140625,293.4788448722285L537.890625,298.52255566073984L539.15625,279.88848696374055L540.421875,291.38025510407834L542.00390625,300.77368211353297L543.5859375,294.909709895118L544.21875,296.4751988089142L545.16796875,297.5840288218924L545.484375,304.9053954095971L548.33203125,307.3085631004266L551.49609375,306.0868576613366L552.4453125,313.8859837852582L554.34375,306.50353307776305L556.2421875,307.42077032854064L557.5078125,298.3890801922116L557.82421875,301.3635029767496L558.140625,303.442655088561L558.7734375,311.64087152417784L560.98828125,317.24473380679547L561.3046875,310.4849374687992L562.5703125,307.55842160198415L564.46875,301.7436563684034L565.734375,304.9767915736853L566.68359375,296.13347230128915L567.94921875,287.87142130507226L574.27734375,307.47885015684943L575.54296875,293.20346562519376L578.70703125,298.0765710551262L580.2890625,295.3785128563056L580.921875,294.02000495647565L581.23828125,308.58490436749116L581.5546875,297.0454511188743L581.87109375,291.55218588997786L584.40234375,299.91091731215243L585.03515625,303.37487344454195L586.30078125,310.7440440300772L586.93359375,315.4144424149405L587.25,298.9909077675853L587.8828125,290.06902749363314L588.19921875,292.7923492278184L591.99609375,300.21397759944887L592.3125,297.61032793721216L592.9453125,298.2760914273403L595.16015625,288.24806664682865L596.42578125,289.55882805395765L597.375,291.49355549101585L598.640625,278.99752377927115L599.90625,296.5911373505832L600.22265625,303.0408056596093L601.171875,306.4183799939269L603.38671875,311.79602968956954L603.703125,303.5520985042436L604.01953125,296.394799198231L604.65234375,291.4522210269305L605.6015625,304.26032867972697L609.3984375,305.24864166744953L611.296875,303.9294794641799L612.24609375,315.30563272652523L612.5625,314.3424371442955L613.51171875,300.3593604549121L615.7265625,307.7059241799925L616.67578125,305.3833643329433L616.9921875,304.01692375700736L620.15625,282.8604466864502L621.10546875,278.0588829895026L621.421875,281.0009556131896L622.0546875,285.542840874253L623.00390625,286.4487941148428L623.3203125,285.62506806398477L623.63671875,287.094941317691L624.5859375,288.30449767866844L625.8515625,293.516915284038L627.43359375,289.2067484726796L630.59765625,296.81216264603484L630.9140625,299.53922671191873L631.23046875,310.71259681062236L632.49609375,308.6850269821167L632.8125,315.6346289037889L633.12890625,320.24251298642025L635.66015625,313.78296352591457L640.72265625,312.48578399099057L641.98828125,316.0104565827185L643.25390625,310.54884690005844L643.88671875,311.09450104137045L644.8359374999999,294.3533665875957L645.15234375,290.0332555190317L646.734375,298.4472084784095L647.05078125,298.0571182423893L648.31640625,304.4692555841647L649.265625,298.0262791150442L649.8984375,304.7775185927513L651.796875,301.30496352723696L653.0625,300.1361999384045L654.328125,301.8260983961212L655.59375,295.6197485928075L656.54296875,294.6373366123815L657.17578125,293.6519673636279L659.0742187500001,290.33561081016336L659.390625,301.19450785028897L659.70703125,305.0015129196266L660.0234375,298.823734253669L661.6054687500001,300.7282293710923L661.921875,302.89397708158754L662.23828125,299.8244769994155L664.453125,309.99608464239844L665.0859375,309.50249199439037L666.03515625,308.2375847365124L666.6679687500001,315.89148756092106L666.984375,306.6381610085699L667.30078125,310.80986710423844L667.6171875,306.00522961658925L669.515625,295.6059531103618L670.78125,295.8360402998712L671.09765625,300.7477705479551L671.7304687500001,291.7916668517527L673.3125,295.3279028013235L675.84375,296.8884305235383L676.16015625,289.4633830692971L677.42578125,301.4333223970567L678.0585937499999,293.6570709414542L679.640625,294.2389686025882L680.5898437499999,303.84437518793436L680.90625,308.396631557382L684.3867187499999,299.91352593331743L687.55078125,281.3560260118737L688.18359375,284.37962609898227L689.1328125,279.16655656924684L690.3984375,286.02907384197744L690.71484375,299.55935851026106L691.03125,305.1820418856539L691.98046875,291.9751939356793L692.9296875,286.86932203378205L694.1953125,305.2473594476766L695.4609375,305.9379708559033L696.0304687500001,305.059878784595L701.1562500000001,305.9227057274772L702.4218750000001,299.97154761528L703.37109375,310.0597859731734L703.6875000000001,305.47370888630064L704.3203125,306.57963593681313L704.63671875,307.9052862445499L705.26953125,295.6452349948938L706.53515625,287.4823218650144L707.16796875,296.9880368923287L710.0156250000001,301.9693879315358L711.2812500000001,309.4380872166121L714.12890625,309.5487137721989L715.7109375,309.8141912402155L716.02734375,310.3472057935292L716.3437499999999,302.7310319259776L718.55859375,308.08670079832893L720.45703125,320.5586204914472L721.4062499999999,304.17053669671674L722.35546875,314.54827208390094L722.98828125,306.58156207395024L725.2031249999999,314.16522043224876L726.4687499999999,312.1672475470134L727.41796875,313.74329691783015L729.31640625,315.33866609409324L729.6328125,311.128936187314L729.94921875,300.9249330505447L730.8984375,304.6278894746899L732.48046875,311.2543182874602L734.37890625,300.5266560718613L734.6953125,291.3795361372745L737.859375,288.4271553496236L738.1757812500001,286.6252706787473L739.4414062500001,294.78236636268844L739.7578125,289.3965026049668L740.07421875,295.12099917396154L741.0234375,307.868243807652L741.65625,306.025768156547L742.60546875,300.7799941166466L743.5546875,306.81470886561107L744.5039062500001,301.6045448016738L745.7695312500001,295.2233087740054L746.0859375,283.8356700317322L746.71875,275.26509702718323L747.0351562500001,295.45023429789387L747.66796875,290.0467997339978L747.984375,300.1504693104591L751.1484375,302.25802275391425L751.78125,295.85261171850453L752.4140625,299.19928196697407L754.3125,307.82837942300586L754.6289062499999,301.94399907440624L755.578125,306.8409997903872L763.8046875,307.6226859156347L765.0703125,313.4954513957182L766.65234375,314.8425181065769L767.28515625,309.5906155927493L768.234375,304.78448950004093L769.5,308.55466313405253L769.81640625,306.45552417963313L771.08203125,300.9360583937136L772.03125,293.12495803582647L773.296875,308.6281425022444L775.51171875,308.83804120763665L775.828125,303.2626216579701L776.14453125,303.3991091117547L779.625,310.8515176267361L779.94140625,295.7921663736447L780.57421875,298.50370263489225L781.83984375,302.91032047338183L783.421875,284.9091298750362L785.63671875,299.0303942561791L785.953125,297.1782625462894L786.5859375000001,297.97235252848606L787.21875,296.40053846424183L788.484375,296.454285785459L789.1171875000001,303.65293529514065L789.43359375,303.9444772647124L790.06640625,295.21533019750416L791.015625,302.5880406460681L791.6484374999999,298.96768704726554L792.9140624999999,300.2075997912356L793.23046875,302.8166737035055L794.49609375,311.5984388322367L794.8125,291.9421233289256L796.078125,311.4526276801275L796.39453125,312.19647029308817L797.34375,304.81204599947625L797.66015625,305.9859834202859L798.609375,306.38651182486484L801.45703125,294.9191505019857L802.40625,292.35776600842024L805.5703124999999,297.76906868634927L808.734375,291.5500472862242L809.68359375,290.63911276481986L811.8984375,306.55699704684343L814.11328125,313.1327742713125L817.59375,311.90205935983465L818.2265625,306.21659505812494L819.8085937500001,308.11332122364485L821.390625,310.7693840595812L822.0234375,310.30292323291656L822.65625,298.44309881293066L824.5546875,307.324761442413L825.1875,316.742604853141L825.50390625,310.79670742066514L826.1367187500001,293.46546560441L826.453125,291.72069473642466L828.3515625,290.45820979864584L829.6171875,278.6550552103619L833.09765625,283.8914195660661L834.046875,288.56846535487256L834.9960937499999,296.39163353827803L835.62890625,297.6242744426466L839.7421875,323.96616771250183L841.95703125,311.53639209061356L842.90625,320.5202541209295L845.75390625,311.10462240591045L847.01953125,296.0908819469635L847.3359375,295.9489329282413L850.81640625,298.1308897076556L853.34765625,292.5125572152094L854.9296875,292.1021436021001L855.24609375,287.34660577301526L856.8281250000001,283.04687539384156L858.41015625,289.9399895485479L859.3593750000001,293.30693419220376L860.94140625,293.5628057743803L863.47265625,300.4325529353713L864.4218750000001,296.11873822503895L866.00390625,300.4702438133159L866.63671875,300.93429922661994L866.9531250000001,304.3715453208675L867.26953125,296.0294944697029L867.90234375,294.19325768630125L869.80078125,300.92321575380345L871.3828125,301.8022496314862L872.0156249999999,302.78726990651404L875.8124999999999,294.2688132634479L876.4453125,294.1280679420334L878.02734375,312.4860458364526L879.92578125,329.0302659871105L881.5078125,319.29310281086777L882.1406249999999,304.46252510884545L882.7734375,308.9727203384079L883.08984375,308.361976266226L884.0390625,295.2187185231294L884.35546875,316.86577381054633L888.46875,308.9082077442985L889.41796875,302.7522163762908L893.53125,291.3616000995296L894.48046875,302.59935384580217L895.74609375,302.81352261235406L896.0625,303.3351973700862L897.01171875,310.5669157329789L897.6445312500001,299.0481872250711L897.9609375,299.6355758718567L901.7578125,301.83061953260415L904.2890625,294.5039198308102L904.921875,309.32732618349144L905.2382812500001,286.48622634239234L906.5039062500001,287.1798373787157L907.7695312500001,292.9094606583748L908.40234375,300.2394617619176L909.0351562500001,303.3196806772803L911.25,312.08414006436175L911.5664062499999,317.01021915167814L912.8320312499999,302.0379221784396L914.0976562499999,294.6488372879506L915.6796875,289.49708597687595L916.3125,278.72962997884446L917.26171875,265.35693784669434L917.8945312499999,272.88853181028855L918.2109375,279.27686580254004L918.84375,278.1108328780095L919.4765625,283.7139192236209L920.4257812499999,281.02252785965317L921.6914062499999,275.04696957736724L922.0078125,290.35238260813884L922.32421875,290.1108985673978L922.9570312499999,290.372491152269L923.58984375,280.9543781602565L925.171875,290.6676151805698L925.8046875,291.9465884467374L926.12109375,298.502180829666L928.3359375,301.4114287529977L928.96875,302.3785656162412L929.91796875,317.7571104084799L936.87890625,316.58020752107234L937.1953125000001,304.51895105704557L937.828125,300.0801375498719L940.04296875,294.69440789430865L940.67578125,294.0005089099788L940.9921875000001,290.6293918716402L942.57421875,294.7570437463612L942.890625,293.93262739425955L943.20703125,288.9196226479771L944.15625,293.2872545736118L944.47265625,299.69646708926604L945.421875,308.26453970285564L947.3203125000001,301.16131102499867L947.63671875,303.55003192250086L948.26953125,321.80477484523L948.90234375,315.8600665739673L949.53515625,310.90078836092295L949.8515624999999,319.1790372774618L953.33203125,303.6901385807069L953.6484374999999,295.2149090163583L953.96484375,287.18202786112136L956.49609375,295.80620293224354L956.8125,306.0617915869729L958.39453125,300.7674515756082L958.7109374999999,302.90183471890407L959.02734375,307.53828427491857L959.34375,295.38026088591704L959.9765624999999,289.05261243143946L960.29296875,288.43923030971973L960.609375,294.7528863035097L961.55859375,298.71574996548765L965.0390625,300.54214739327455L966.9375,302.70611309036235L967.5703125,311.3238703844822L970.1015625,314.9101012557771L970.41796875,313.5241634359924L970.734375,313.20621508861086L971.3671875,315.9080092527324L973.58203125,299.63700924915616L974.53125,277.97746631484523L975.1640625,286.8583172699439L976.11328125,291.9235600892471L976.7460937500001,290.90156919382156L977.37890625,282.0922146587243L980.2265625,284.4429447769971L981.4921875,281.309404801192L982.125,286.3898884197596L982.7578125,313.83766833357265L983.390625,317.2350459735738L983.70703125,313.3646338870547L984.97265625,304.8365391272634L985.2890625,309.039148390084L985.6054687500001,309.287587962434L987.1875,317.8009621905749L987.50390625,303.2130258797361L988.76953125,310.72073774311747L989.0859375,307.8798655183793L990.3515625,310.9267210787731L991.9335937499999,310.86666478940504L992.25,303.3715457852385L992.56640625,299.3958823813466L992.8828125,292.19738190497947L993.515625,300.3451853068462L993.83203125,299.71618707391656L996.36328125,302.114927367185L996.6796875,312.50564918713644L996.9960937499999,309.2284500250924L998.578125,306.10281237777224L998.89453125,305.9254480663458L1000.16015625,300.17202808997615L1001.109375,303.00990137836754L1002.0585937499999,302.54122697374345L1002.69140625,313.54078754850747L1003.3242187499999,305.9425440703775L1003.95703125,290.63446297192075L1004.2734375,295.2239436495576L1004.58984375,300.5707295089355L1006.171875,300.8071415155154L1006.48828125,305.9582668705602L1010.28515625,319.4013845202502L1010.91796875,316.56330813563045L1013.1328125,298.0846437522765L1015.0312500000001,299.3797427292783L1015.34765625,307.2407315080134L1018.8281250000001,299.96570116893383L1019.14453125,298.1139954690828L1021.9921875,303.28326098984434L1022.6250000000001,293.7908410025582L1023.2578125,303.3495545756159L1024.20703125,293.91947672188303L1024.83984375,295.9435703035368L1025.15625,293.29576317224763L1026.10546875,285.99977681994153L1027.37109375,282.48325662719554L1027.6875,277.76429181324283L1029.26953125,277.32265803142985L1029.90234375,292.01184125504136L1030.53515625,289.72050627444264L1030.8515625,289.05986988657577L1032.1171875,287.0329562142493L1032.75,304.7352702227732L1033.69921875,305.2681175647192L1036.23046875,305.31931027296207L1036.86328125,300.52869259647133L1037.1796875,303.67442290048103L1037.8125,315.07411266349465L1039.39453125,308.51641529165556L1040.02734375,307.06482305179964L1040.66015625,300.8463676390874L1041.29296875,299.0042029596983L1043.82421875,301.85537792870525L1046.35546875,303.5830110732705L1046.671875,295.97470166230704L1047.3046875,309.92554752166836L1047.62109375,298.6461542422434L1048.5703125,298.3471686037077L1049.203125,303.6052362335952L1049.51953125,305.23476561041065L1050.46875,303.6690718829005L1052.3671875,306.96239108424453L1053.6328125,301.36496439447995L1053.94921875,303.5395284837673L1058.37890625,296.71979688069484L1059.328125,280.8478935539137L1060.27734375,277.2528269987356L1061.2265625,298.8290714082276L1062.4921875,294.7631192549676L1063.44140625,305.2529334160181L1063.7578125,298.01390415555636L1064.07421875,294.6631896178957L1065.97265625,303.15420312804224L1067.5546875,305.45041760672365L1067.87109375,308.79495517131056L1068.1875,313.1893095781027L1069.453125,317.6366596107236L1070.0859375,315.7487699102834L1070.40234375,313.3543257360844L1072.30078125,313.5931544326638L1073.25,314.5810674641758L1073.8828125,291.79819575472175L1074.19921875,293.1151221701134L1074.83203125,302.78992339610164L1075.1484375,292.9576594642311L1075.71796875,290.5399403813673L1076.4140625,296.59949841313676L1077.36328125,299.48663852879247L1079.89453125,299.0987313205451L1080.2109375,296.82875876736875L1081.79296875,304.3772673073792L1083.05859375,303.56834357066543L1083.375,313.46905692995176L1084.95703125,310.67610090180364L1088.75390625,314.1818516099141L1089.0703125,310.30369924425753L1089.38671875,306.617993278335L1089.703125,301.1355954557441L1090.01953125,308.823415482439L1092.8671875,297.1837487242272L1095.08203125,309.2945525023306L1096.03125,306.8409745081116L1097.61328125,310.78053996123396L1098.5625,308.0498415860335L1100.14453125,303.4089813469675L1100.4609375,309.35565233250134L1100.77734375,295.5380080136821L1101.09375,297.4302307537715L1102.67578125,301.5058177687594L1103.94140625,286.1246455579551L1104.57421875,293.0218591231499L1105.5234375,303.563517221428L1106.7890625,305.4627197682215L1107.10546875,303.60397092410165L1107.421875,289.8533088818894L1108.0546875,298.4483823549757L1109.3203125,303.777679580343L1109.63671875,300.6710374419724L1110.26953125,313.2314104307328L1110.5859375,318.3451343129658L1111.8515625,300.0453946093788L1112.16796875,304.61523641646914L1112.484375,310.0379998718865L1114.06640625,311.2383448243L1114.69921875,306.9413510618528L1117.86328125,316.5123663416732L1118.1796875,318.7743581731629L1119.4453125,314.2710784774696L1120.078125,306.9632222245685L1121.66015625,301.7993547897374L1122.29296875,312.0146260286569L1123.2421875,302.0719386799752L1123.875,321.6149647219874L1127.0390625,307.6939960730476L1127.98828125,303.64920768791677L1128.9375,297.8637275801346L1130.51953125,304.1783374717954L1131.46875,305.9498203511531L1133.3671875,317.45948207963704L1134.31640625,319.3457713093509L1134.94921875,308.5779454206265L1136.53125,310.5125526822695L1137.1640625,310.60909298822475L1138.4296875,309.0887508842149L1138.74609375,315.41715467258297L1141.27734375,301.73501250985953L1142.54296875,304.21068248700635L1142.859375,306.6061340664865L1143.80859375,304.6691684682394L1144.44140625,302.27401188702004L1145.07421875,300.7039504059133L1146.65625,296.6830947483312L1147.921875,305.97221445319093L1149.1875,303.77660700428083L1150.453125,307.47241377958824L1151.0859375,294.25180444044264L1152.984375,281.43503637148166L1153.93359375,280.819993905802L1156.78125,285.9543437702436L1157.4140625,308.88043605941954L1158.046875,312.6548559550965L1158.99609375,320.8016339481854L1159.9453125,316.7514998823264L1160.89453125,321.5229344560199L1161.2109375,322.09769963512935L1162.79296875,326.7434961768781L1165.32421875,320.9051477573342L1167.22265625,287.46803857262216L1168.171875,281.13895508549L1168.48828125,282.9221358387286L1171.01953125,293.76372026552923L1173.55078125,299.40870699948806L1176.3984375,299.752382702324L1177.6640625,292.5192953099513L1179.87890625,296.0956361787746L1181.77734375,302.706234430482L1182.41015625,301.5854809606571L1183.359375,301.35281274805357L1183.9921875,305.23024332083224L1185.890625,315.28600339256116L1186.5234375,300.23655819677373L1186.83984375,295.9813572780388L1188.73828125,300.0864803809174L1189.37109375,311.0268367062851L1189.6875,308.725347814146L1190.00390625,321.99548325208144L1191.26953125,316.0281799673351L1191.5859375,313.47647944008224L1191.90234375,317.88043223300366L1192.53515625,315.6051524089173L1193.484375,314.0213152033746L1194.1171875,308.06185630572423L1195.69921875,315.77216597970494L1196.015625,316.2788932770139L1196.96484375,322.42291838677454L1198.546875,320.6101078428131L1198.86328125,306.92886130051966L1199.49609375,302.93641184762043L1199.8125,289.8905014382536L1201.39453125,297.19447927362285L1202.02734375,290.5691329478475L1202.9765625,286.19089999427183L1203.29296875,283.2110634531919L1203.609375,286.56267148900173L1204.55859375,299.7571820605743L1205.5078125,319.21708444557976L1206.45703125,321.27211931325485L1207.72265625,326.9745627566008L1208.98828125,315.9694630497691L1209.62109375,297.4471062512869L1211.203125,282.9374757836263L1211.51953125,301.8432793222791L1212.15234375,311.3748601327361L1213.1015625,309.8887330778445L1213.734375,307.0037969950034" style="fill: none;" fill="none"></path></g></g></g></g><g opacity="0.2"><g><g><g><path stroke="rgb(255, 112, 67)" stroke-width="2px" d="M127.82812500000001,39.47999087246983L130.9921875,181.43707760897547L131.30859375,157.09281366521662L132.2578125,195.60887215354225L132.57421875,173.84189675071022L132.890625,161.50910394841975L133.5234375,199.3073473843661L134.7890625,138.37482452392578L135.10546875,200.72247314453125L139.21875,196.54545454545453L141.43359375,255.66632565585047L141.75,229.42835998535156L142.06640625,211.72219016335228L142.69921875,220.25395341352984L143.6484375,243.43607087568805L145.546875,233.66692421653053L145.86328125,236.03229106556284L146.1796875,234.6855239868164L146.49609375,220.49322509765625L147.4453125,252.38488075949928L147.76171875,259.6314225630327L148.078125,255.41337897560814L148.7109375,253.01381648670542L149.02734375,260.4312712929466L150.92578125,280.4823199185458L152.5078125,295.4266132007946L154.72265625,271.116512298584L157.88671875,269.30487684770065L159.15234375,271.4446470087224L160.1015625,307.49962997436523L160.41796875,292.8288040161133L161.05078125,312.7431352788752L163.265625,296.7118509465998L164.84765625,264.5262562144886L166.11328125,282.1982466957786L166.4296875,277.85033139315516L167.0625,253.67694785378197L167.6953125,257.0472720753063L169.59375,253.69745219837534L169.91015625,254.92800625887782L172.125,279.3133114901456L172.7578125,315.7511291503906L173.07421875,255.83723865855825L174.0234375,271.85483169555664L176.23828125000003,296.6024672768333L177.18750000000003,291.81018794666636L177.82031250000003,293.0680757002397L178.45312499999997,283.1963584206321L180.35156249999997,346.4737437855114L180.66796874999997,298.01076368852097L180.98437499999997,306.4946889010343L182.56640625,330.9415234652433L184.78125,306.22123787619853L185.09765625,268.0743227871981L185.4140625,312.51752229170364L186.6796875,282.92290739579636L186.99609375,300.41032617742366L187.3125,259.83651490644974L189.52734375,313.13962867043233L190.4765625,272.7640803943981L190.79296875,280.27724387428975L191.109375,252.4122144525701L191.42578125,337.4634208679199L192.05859375,312.89352763782847L193.32421875,317.23461359197444L193.95703125,312.6200766129927L194.58984375,295.1600078235973L195.85546875,283.9415234652433L196.171875,276.4830599698153L196.48828125,305.1410924738104L197.4375,288.439847425981L199.01953125,297.94240500710225L202.18359375,278.1511324102229L203.765625,287.72203237360173L204.08203125,314.8487260991877L204.3984375,285.63694589788264L208.1953125,283.4903300892223L208.51171875,299.1729427684437L208.828125,309.9128674593839L212.30859375,295.8914978720925L213.2578125,299.25497644597834L213.89062500000003,342.4402881969105L214.52343750000003,305.43504784323954L215.78906250000003,312.6132309653542L216.73828125000003,288.7953484275124L217.68749999999997,295.83679788762873L218.32031249999997,330.50400508533824L219.90234374999997,292.3365856517445L220.53515624999997,312.3124299482866L220.85156249999997,264.25280518965286L223.3828125,250.4228366505016L224.015625,299.1934471130371L225.28125,300.99142386696553L226.546875,308.21746132590556L227.1796875,300.98457821932703L227.49609375,279.6961461847478L228.4453125,292.45964431762695L233.19140625,284.1534614562988L233.5078125,300.3761468367143L235.08984375,300.3146175037731L235.72265625,303.5071993741122L236.0390625,300.6906228498979L237.9375,282.43068903142756L238.5703125,318.71126868508077L239.8359375,321.15868551080877L241.1015625,306.3989802273837L241.41796875,313.002911307595L241.734375,308.34050369262695L242.05078125,254.77076825228602L242.3671875,350.95156340165573L242.68359375,290.6001382307573L246.1640625,276.01817529851735L248.6953125,291.47520758888936L249.9609375,254.69556392322886L250.59375,286.88115865534L251.2265625,286.211197939786L252.17578125,289.8071351484819L253.75781250000003,327.2498938820579L254.39062500000003,328.7060283314098L255.97265625000003,279.0125104730779L257.5546875,313.32421666925603L257.87109375,324.81615205244583L259.76953125,265.3534549366344L260.0859375,292.227201981978L261.3515625,272.2103326970881L262.6171875,315.45715748180044L264.19921875,246.64915709062055L264.515625,303.58923305164683L264.83203125,279.36799517544836L265.46484375,325.1169530695135L266.73046875,310.01542178067297L267.046875,311.3416682156649L267.6796875,307.2808789339933L268.9453125,285.82153389670634L269.578125,249.6434922651811L270.84375,299.27549708973277L272.42578125,275.74472427368164L273.69140625,289.34909612482244L274.0078125,271.8616773431951L274.640625,317.1799299066717L275.2734375,283.68174743652344L276.5390625,291.76916295831853L276.85546875,256.81482973965734L278.4375,260.3970919522372L278.75390625,300.23258382623845L280.65234375,286.2522229281339L281.28515625,290.69584690440786L282.8671875,299.1729427684437L284.1328125,253.63592286543414L287.61328125,306.8501899025657L287.9296875,269.76974521983755L288.24609375,270.92509495128286L288.5625,306.5357138893821L288.87890625,293.56712341308594L289.1953125,288.21425073797053L290.14453125,273.67331279407847L290.4609375,282.8340443697843L290.77734375,323.0181752985174L295.20703125,282.88872805508703L295.5234375,285.04218951138586L296.15625,330.21003341674805L296.47265625,292.8629833568226L296.7890625,302.2288072759455L297.421875,300.4240011735396L298.0546875,311.7586985501376L298.6875,305.24363049593836L299.3203125,276.8658946644176L300.5859375,342.8914978720925L301.21875,296.438399921764L302.16796875,302.33817464655095L302.484375,305.62646519054067L304.3828125,334.78356170654297L305.015625,302.105748610063L306.28125,318.88901103626597L307.23046875,345.12697670676494L307.86328125,294.6335938193581L311.34375,295.52232187444514L311.66015625,302.65949630737305L312.609375,294.8386861627752L313.2421875,304.23186007413L313.55859375,302.78938432173294L314.5078125,294.45585146817297L315.140625,301.69556392322886L316.72265624999994,285.12422318892044L317.0390625,282.4238596829501L318.62109374999994,321.15185616233134L320.203125,285.31564053622157L320.51953124999994,269.95433321866125L321.15234374999994,312.21672127463603L323.05078124999994,313.22167864712804L323.3671875,296.45207491788L324.31640625,289.2533874511719L324.94921875,327.3797818964178L325.265625,316.14763884110886L326.53125,311.24595954201436L327.796875,304.17033074118876L328.74609375,305.89993251453745L329.37890625,285.80785890059036L329.6953125,293.28684303977275L330.01171875,287.26399334994227L331.59375,315.8263334794478L332.2265625,332.48655353892934L333.4921875,266.2832079800692L334.44140625,323.8658946644176L335.07421875,281.1864762739702L337.2890625,289.3559254732999L338.23828125,311.4647268815474L339.8203125,294.5310557972301L340.13671875,297.6894583268599L341.40234375,300.0001414905895L342.66796875,292.6032073281028L345.19921875,306.3716302351518L345.83203125,277.57688036831945L346.46484375,291.4273532520641L346.78125,309.2360773953524L347.4140625,353.0571705211293L348.36328125,328.1386219371449L350.89453125,305.6879945234819L352.47656250000006,290.35403719815343L353.10937500000006,260.75257665460765L354.05859375,277.7546227195046L354.37500000000006,296.9032682939009L355.00781250000006,336.38327546553177L355.64062500000006,272.6341760808772L355.95703125,320.94676381891423L356.58984375,292.0016052939675L356.90624999999994,279.79185485839844L357.53906249999994,318.49250134554774L357.85546875,316.5373028841886L358.17187499999994,298.2226853804155L359.75390625,312.49701794711024L361.01953125,312.1757125854492L361.65234375,296.5341085954146L365.44921875,283.5791931152344L366.08203125,284.2559994784269L367.98046875,256.5071993741122L368.296875,292.30240631103516L369.5625,299.72669046575373L370.51171875,303.78065039894796L371.4609375,285.33614488081497L371.77734375,264.72450291026723L372.41015625,266.19432865489614L372.7265625,292.29556066339666L373.04296875,259.0161455327815L373.67578125,348.7981019453569L375.57421875,313.40625034679067L380.63671875,299.0225504094904L380.953125,271.759123021906L381.26953125,294.77032748135656L381.5859375,292.2340313304554L382.53515625,334.05207165804774L385.06640625,268.27941513061523L385.3828125,286.8196293223988L388.23046875000006,248.72058486938477L389.49609375000006,313.5908383456144L389.8125,330.6270474520597L390.4453125,271.88218168778855L390.76171875000006,320.80320080843836L391.7109375,277.50167603926224L392.02734375000006,282.6494563709606L392.9765625,300.7726565274325L393.609375,290.51127520474523L395.5078125,339.43229432539505L397.40625,295.9188315651634L398.35546874999994,270.08422123302114L398.98828124999994,330.9757028059526L400.25390624999994,299.6378111405806L401.51953124999994,296.0418902310458L401.8359375,263.23418912020594L405.94921875,292.96552137895065L406.58203125,312.9618863192472L407.84765625,296.4110499295321L408.48046875,314.32232839410955L409.4296875,300.9298945340243L410.0625,337.38821653886276L410.37890625,315.8741878162731L411.328125,323.9889533303001L411.64453125,273.2357781150124L413.2265625,300.67010220614344L413.54296875,298.7285787409002L414.17578125,280.90617960149586L414.4921875,274.7329375527122L416.70703125,298.56451138583094L417.0234375,263.9246541803533L417.65625,304.71723279086024L419.87109375,249.36319559270683L420.50390625,285.2062568664551L420.8203125,290.9214598915794L421.13671875,348.6066845980558L423.3515625,286.2317022843794L424.30078125,257.1224764043635L425.25,295.2898958379572L426.515625,286.45731527155095L427.46484375,319.0872740312056L428.41406250000006,328.43257730657405L429.99609375,321.6440745267001L430.94531250000006,292.3707649924538L431.57812500000006,320.98094315962356L432.21093750000006,285.8693882335316L432.52734375,307.554329958829L435.69140625,306.43315956809306L436.00781249999994,306.06399986960673L436.95703125,303.00815166126597L438.22265625,306.67927689985794L439.48828125,269.1749888333407L440.12109375,242.2465418035334L440.75390625,281.96582065929067L441.38671875,282.73831939697266L442.33593749999994,302.5774626298384L443.28515625,293.7995657487349L443.6015625,309.48902407559484L443.91796875,300.3077881552956L444.55078125,273.0785401084206L446.1328125,310.8699704950506L446.765625,301.88698127053L447.3984375,269.9748375632546L449.61328125,295.0164285139604L450.87890625,305.20945115522903L451.51171875,291.7008042768999L453.7265625,315.3819694519043L454.04296875,298.332069050182L454.359375,327.4208068847656L456.2578125,290.69584690440786L457.20703125,252.41906010020864L460.37109375,309.0241394042969L461.00390625,295.74793486161667L461.63671875,290.16261985085225L462.26953125,295.67273053255946L463.8515625,286.5325033014471L464.484375,310.8699704950506L464.80078125,296.02821523492986L465.1171875,317.5285852605646L465.43359375,288.1732420487837L465.75,298.11330171064895L467.015625,295.2693751942028L467.96484375000006,326.6961461847479L469.546875,340.9499581076882L469.86328125000006,310.8494498512962L470.1796875,274.7261082042347L471.4453125,333.3889402909712L473.66015625000006,316.54414853182703L474.92578124999994,290.7573762373491L475.2421875,293.1501093777743L475.55859374999994,267.78719676624644L476.5078125,308.6481503573331L477.140625,315.9288715015758L477.7734375,317.4397059353915L478.08984374999994,269.0382551713423L478.72265624999994,302.0715692693537L480.9375,318.4719970009544L481.25390624999994,308.5661166797985L482.203125,260.97818964177907L482.51953125,294.004658092152L483.15234375,288.7543234391646L483.46875,318.89585668390447L484.41796875,274.1245061700994L485.05078125,282.1640673550692L486.6328125,325.1169530695135L488.84765625,308.1559319929643L490.11328125,302.5090876492587L490.4296875,279.58676251498133L490.74609375,317.6174482865767L493.91015625,287.93397036465734L494.54296875,317.2893135764382L495.4921875,261.5797753767534L497.70703125,334.77673235806554L498.33984375,306.5357138893821L498.65625,324.4606510509144L498.97265625,312.89352763782847L500.23828125,280.7284372503108L500.87109375,213.79358534379438L502.453125,294.6814481561834L503.71875,345.1543266989968L504.03515625,312.70893963900477L504.984375,318.56087632612747L507.19921875,254.42211289839312L507.51562500000006,278.48611276799977L507.83203125,293.58764405684036L510.04687500000006,316.48261919888586L511.31250000000006,324.57003472068095L512.89453125,298.0859680175781L513.52734375,331.85075586492366L514.79296875,277.05731201171875L515.7421875,301.9143312627619L519.5390625,332.9035675742409L520.171875,306.59039757468486L521.12109375,310.01542178067297L521.4375,308.86007204922765L521.75390625,302.65949630737305L522.0703125,293.74486576427114L522.703125,282.0478543368253L523.3359375,279.94909286499023L523.65234375,326.64146249944514L524.6015625,321.0219681479714L524.91796875,286.9358586398038L526.81640625,308.60712536898524L528.08203125,291.8990509726784L529.6640625,286.91533799604935L529.98046875,280.2362188859419L530.296875,297.0400019558993L531.5625,306.0161455327814L532.51171875,283.6065431074663L534.09375,285.0626938559792L535.04296875,257.9154957857999L536.625,331.56362984397197L536.94140625,286.89483365145594L537.890625,308.5797753767534L539.15625,242.7319308194247L540.421875,314.29497840187764L542.00390625,319.50428806651723L543.5859375,283.21687906438655L544.21875,299.59680245139384L545.16796875,299.7950491471724L545.484375,319.50428806651723L548.33203125,312.10050825639206L551.49609375,303.65076238458806L552.4453125,329.43753467906606L554.34375,291.78283795443446L556.2421875,309.2497523914684L557.5078125,280.37978189641774L557.82421875,307.2945376309481L558.140625,307.5885092995384L558.7734375,327.98821327903056L560.98828125,328.4189023104581L561.3046875,297.00582261518997L562.5703125,301.72291391546077L564.46875,290.1489448547363L565.734375,311.42370189319956L566.68359375,278.49978776411575L567.94921875,271.3967926718972L574.27734375,346.57629810680044L575.54296875,264.73817790638316L578.70703125,307.7936016429554L580.2890625,289.99855249578303L580.921875,291.31112393465907L581.23828125,337.62748822298914L581.5546875,274.0356431440874L581.87109375,280.5985492359508L584.40234375,316.5783278725364L585.03515625,310.28204345703125L586.30078125,325.4382584311745L586.93359375,324.72727272727275L587.25,266.2421829917214L587.8828125,272.2786913785067L588.19921875,298.2226853804155L591.99609375,315.01279345425695L592.3125,292.4186193292791L592.9453125,299.60363179987127L595.16015625,268.25206513838333L596.42578125,292.1725019975142L597.375,295.35142517089844L598.640625,254.08028689297765L599.90625,331.67301351373845L600.22265625,315.9015215093439L601.171875,313.1533036665483L603.38671875,322.5191275856712L603.703125,287.11360099098897L604.01953125,282.12305866588247L604.65234375,281.59666096080434L605.6015625,329.7998487299139L609.3984375,307.21934960105204L611.296875,301.2990542325106L612.24609375,337.98981857299805L612.5625,312.4218136180531L613.51171875,272.4769380742854L615.7265625,322.3550602306019L616.67578125,300.75215218283915L616.9921875,301.2922248840332L620.15625,240.67417803677648L621.10546875,268.48450747403234L621.421875,286.8674836592241L622.0546875,294.5994144786488L623.00390625,288.25527572631836L623.3203125,283.9825484535911L623.63671875,290.02588618885386L624.5859375,290.7163675481623L625.8515625,303.9105384133079L627.43359375,280.61222423206675L630.59765625,311.9774495905096L630.9140625,304.9770251187411L631.23046875,332.99243060025304L632.49609375,304.6420284618031L632.8125,329.4922183643688L633.12890625,329.43068903142756L635.66015625,300.90254454179245L640.72265625,309.8991924632679L641.98828125,323.03869594227183L643.25390625,299.6583317843351L643.88671875,312.18254193392664L644.8359374999999,260.9713439941406L645.15234375,281.4189023104581L646.734375,315.2247314453125L647.05078125,297.27927364002574L648.31640625,317.25513423572886L649.265625,285.1789068742232L649.8984375,318.23957096446645L651.796875,294.38064713911575L653.0625,297.80567134510386L654.328125,305.1957761591131L655.59375,283.2442127574574L656.54296875,292.6783953579989L657.17578125,291.6871292807839L659.0742187500001,283.72275612571025L659.390625,322.8472785949707L659.70703125,312.59272662076086L660.0234375,286.50516960837626L661.6054687500001,304.5258154435591L661.921875,307.21250395341355L662.23828125,293.70385707508433L664.453125,330.2783920981667L665.0859375,308.5182623429732L666.03515625,305.71534451571375L666.6679687500001,331.1534614562988L666.984375,288.1869170448997L667.30078125,319.1282990195534L667.6171875,296.4247249256481L669.515625,274.8696712147106L670.78125,296.2948369112882L671.09765625,310.5418194857511L671.7304687500001,273.9330888227983L673.3125,302.3791996348988L675.84375,300.0001414905895L676.16015625,274.65774952281606L677.42578125,325.3015247691761L678.0585937499999,278.1511324102229L679.640625,295.39927950772375L680.5898437499999,322.997670953924L680.90625,317.4738852761009L684.3867187499999,282.9981117248535L687.55078125,244.35214892300695L688.18359375,290.40872088345617L689.1328125,268.77163349498403L690.3984375,299.7130154696378L690.71484375,326.5389081781561L691.03125,316.3937398737127L691.98046875,265.64058095758617L692.9296875,276.6881523132324L694.1953125,341.89338614723897L695.4609375,307.3150582747026L696.0304687500001,303.30895267833364L701.1562500000001,307.6431929848411L702.4218750000001,288.104867068204L703.37109375,330.1758540760387L703.6875000000001,296.32901625199753L704.3203125,308.78486772017044L704.63671875,310.5486488342285L705.26953125,271.1985459761186L706.53515625,271.20537532459605L707.16796875,315.94254649769175L710.0156250000001,311.90226156061345L711.2812500000001,324.3307630365545L714.12890625,309.76930444890803L715.7109375,310.3435564908114L716.02734375,311.41004319624466L716.3437499999999,287.54429002241653L718.55859375,318.7659686695446L720.45703125,345.42777772383255L721.4062499999999,271.49250134554774L722.35546875,335.24160073020244L722.98828125,290.69584690440786L725.2031249999999,329.2871260209517L726.4687499999999,308.18326568603516L727.41796875,316.8859582380815L729.31640625,318.51985133777964L729.6328125,302.7346843372692L729.94921875,280.5780285921964L730.8984375,312.0116289312189L732.48046875,324.4674966985529L734.37890625,279.1355691389604L734.6953125,273.14006944136185L737.859375,282.54007270119405L738.1757812500001,283.03229106556284L739.4414062500001,311.0477128462358L739.7578125,278.65702577070755L740.07421875,306.5357138893821L741.0234375,333.28640226884323L741.65625,302.3518496426669L742.60546875,290.31985785744405L743.5546875,318.8480023470792L744.5039062500001,291.2154152610085L745.7695312500001,282.4990477128462L746.0859375,261.1285820007324L746.71875,258.17527181451976L747.0351562500001,335.69963975386185L747.66796875,279.27228650179774L747.984375,320.29730744795364L751.1484375,306.4605095603249L751.78125,283.08014540238815L752.4140625,305.87258252230555L754.3125,325.03490309281784L754.6289062499999,290.21047418767756L755.578125,316.60567786476827L763.8046875,309.1813774108887L765.0703125,325.20581609552556L766.65234375,317.5285852605646L767.28515625,299.11825908314097L768.234375,295.20101651278407L769.5,316.07243451205164L769.81640625,302.2698159651323L771.08203125,289.9301775152033L772.03125,277.54953037608755L773.296875,339.5416779951616L775.51171875,309.25658173994583L775.828125,292.14516830444336L776.14453125,303.67126672918147L779.625,325.7117094560103L779.94140625,265.7636396234685L780.57421875,303.9105384133079L781.83984375,311.6971692171964L783.421875,249.0145402388139L785.63671875,327.18836454911667L785.953125,293.4850897355513L786.5859375000001,299.555777463046L787.21875,293.26632239601827L788.484375,296.5614585876465L789.1171875000001,318.0071286288175L789.43359375,304.5258154435591L790.06640625,277.80930640480733L791.015625,317.2893135764382L791.6484374999999,291.7486586137251L792.9140624999999,302.68000065196645L793.23046875,308.01919833096593L794.49609375,329.1093836697665L794.8125,252.7471948103471L796.078125,350.3568070151589L796.39453125,313.67970137162644L797.34375,290.0874155217951L797.66015625,308.32682869651103L798.609375,307.18517026034266L801.45703125,272.0530946904963L802.40625,287.2503346529874L805.5703124999999,308.55927103216L808.734375,279.1492441350764L809.68359375,288.8226984197443L811.8984375,338.29744893854314L814.11328125,326.2449528087269L817.59375,309.44799908724696L818.2265625,294.87971115112305L819.8085937500001,311.89541591297495L821.390625,316.0656051635742L822.0234375,309.3727947581898L822.65625,274.79446688565343L824.5546875,325.03490309281784L825.1875,335.52189740267664L825.50390625,298.94051673195577L826.1367187500001,258.90676186301494L826.453125,288.24160073020244L828.3515625,287.94079971313477L829.6171875,255.11942360617897L833.09765625,294.3327928022905L834.046875,297.894550670277L834.9960937499999,311.9911245866255L835.62890625,300.08217516812414L839.7421875,376.4922183643688L841.95703125,286.7512706409801L842.90625,338.43418260054153L845.75390625,292.329740004106L847.01953125,266.1533036665483L847.3359375,295.665884884921L850.81640625,302.4817376570268L853.34765625,281.30953493985265L854.9296875,291.2837739424272L855.24609375,277.86400638927114L856.8281250000001,274.4731615239924L858.41015625,303.6849417252974L859.3593750000001,300.0206621343439L860.94140625,294.07301677357066L863.47265625,314.1309110468084L864.4218750000001,287.5169400301847L866.00390625,309.14719807017934L866.63671875,301.85963127829814L866.9531250000001,311.225455197421L867.26953125,279.3953451676802L867.90234375,290.5317795493386L869.80078125,314.34283273870295L871.3828125,303.5550537109375L872.0156249999999,304.7514121315696L875.8124999999999,277.2829086997292L876.4453125,293.8474200855602L878.02734375,349.0920736139471L879.92578125,362.0196391018954L881.5078125,299.87708282470703L882.1406249999999,274.890175559304L882.7734375,317.9661036404696L883.08984375,307.14414527199483L884.0390625,269.01090517911047L884.35546875,360.03026129982686L888.46875,293.0407257080078L889.41796875,290.47709586403585L893.53125,268.64857482910156L894.48046875,325.00756939974696L895.74609375,303.2405776977539L896.0625,304.3754230846058L897.01171875,324.98704875599253L897.6445312500001,276.07970463145864L897.9609375,300.8068358681419L901.7578125,306.20756288008255L904.2890625,279.8943928805265L904.921875,338.8853759765625L905.2382812500001,240.94079971313477L906.5039062500001,288.56290609186345L907.7695312500001,304.334398096258L908.40234375,314.8555717468262L909.0351562500001,309.46167408336294L911.25,329.56057704578745L911.5664062499999,326.83287984674627L912.8320312499999,272.18298270485616L914.0976562499999,279.9149135242809L915.6796875,279.2244321649724L916.3125,257.2591937672008L917.26171875,238.69162958318535L917.8945312499999,287.90662037242544L918.2109375,292.01528029008347L918.84375,275.7857492620295L919.4765625,294.88654049960047L920.4257812499999,275.6558612476696L921.6914062499999,263.1316347989169L922.0078125,320.8715594898571L922.32421875,289.6293764981356L922.9570312499999,290.8941098993475L923.58984375,262.17454806241125L925.171875,310.0359261252663L925.8046875,294.4968764565208L926.12109375,311.57411055131394L928.3359375,307.21250395341355L928.96875,304.3070481040261L929.91796875,348.4221128983931L936.87890625,314.2334490689364L937.1953125000001,280.46866122159093L937.828125,291.2290902571245L940.04296875,283.9551984613592L940.67578125,292.61686602505773L940.9921875000001,283.9073441245339L942.57421875,302.98763101751155L942.890625,292.28873131491923L943.20703125,278.9236311479048L944.15625,301.99636494029653L944.47265625,312.4765136025169L945.421875,325.34937910600144L947.3203125000001,286.997387972745L947.63671875,308.3131699995561L948.26953125,358.2049508528276L948.90234375,304.00624708695847L949.53515625,301.01192821155894L949.8515624999999,335.6859647577459L953.33203125,272.80508908358485L953.6484374999999,278.3151997652921L953.96484375,271.1643666354093L956.49609375,313.002911307595L956.8125,326.5115581859242L958.39453125,290.21047418767756L958.7109374999999,307.1578202681108L959.02734375,316.78342021595347L959.34375,271.1370166431774L959.9765624999999,276.43520563299L960.29296875,287.216139013117L960.609375,307.34239196777344L961.55859375,306.6177475669167L965.0390625,304.1840057373047L966.9375,307.0210866061124L967.5703125,328.5077816356312L970.1015625,322.0610885620117L970.41796875,310.76058682528407L970.734375,312.57222227616745L971.3671875,321.29541917280716L973.58203125,267.19244037974966L974.53125,234.78807830810547L975.1640625,304.56684043190694L976.11328125,302.02371493252843L976.7460937500001,288.8637071089311L977.37890625,264.5262562144886L980.2265625,289.1303287852894L981.4921875,275.0610885620117L982.125,296.52043359929866L982.7578125,368.568870197643L983.390625,324.00945767489344L983.70703125,305.6469858342951L984.97265625,287.8314160433683L985.2890625,317.41920159079814L985.6054687500001,309.78297944502395L987.1875,334.77673235806554L987.50390625,274.1245061700994L988.76953125,325.6912051114169L989.0859375,302.21513227982956L990.3515625,317.0021875554865L991.9335937499999,310.74691182916814L992.25,288.4261887290261L992.56640625,291.46836194125086L992.8828125,277.8434857455167L993.515625,316.59200286865234L993.83203125,298.4619570645419L996.36328125,306.89804423939097L996.6796875,333.224872935902L996.9960937499999,302.6936756480824L998.578125,299.8702534762296L998.89453125,305.57178150523794L1000.16015625,288.69963975386185L1001.109375,308.66865470192647L1002.0585937499999,301.6066845980558L1002.69140625,335.4740430658514L1003.3242187499999,290.7915555780584L1003.95703125,260.1099659312855L1004.2734375,304.3754230846058L1004.58984375,311.23228454589844L1006.171875,301.2785498879173L1006.48828125,316.22967251864344L1010.28515625,346.20712210915303L1010.91796875,310.90414983575994L1013.1328125,261.2379656704989L1015.0312500000001,301.9621855995872L1015.34765625,322.91563727638936L1018.8281250000001,285.45920354669744L1019.14453125,294.4216721274636L1021.9921875,313.5908383456144L1022.6250000000001,274.8628418662331L1023.2578125,322.40974391590464L1024.20703125,275.11578854647547L1024.83984375,299.9796371459961L1025.15625,288.0160040421919L1026.10546875,271.451492656361L1027.37109375,275.47127324884593L1027.6875,268.3546194596724L1029.26953125,276.4420349814675L1029.90234375,321.30224852128464L1030.53515625,285.1515568819913L1030.8515625,287.74255301735616L1032.1171875,282.991266077215L1032.75,340.0338963595304L1033.69921875,306.330621545965L1036.23046875,305.42138914628464L1036.86328125,290.9761435768821L1037.1796875,309.94704680009323L1037.8125,337.80523057417435L1039.39453125,295.4402881969105L1040.02734375,304.17033074118876L1040.66015625,288.4466930736195L1041.29296875,295.330904527144L1043.82421875,307.54065496271306L1046.35546875,307.02793225375086L1046.671875,280.8036415793679L1047.3046875,337.7437012412331L1047.62109375,276.15490896051585L1048.5703125,297.7509876598011L1049.203125,314.0898860584606L1049.51953125,308.4840667031028L1050.46875,300.54705983942205L1052.3671875,313.52930901267314L1053.6328125,290.20362854003906L1053.94921875,307.87563532049006L1058.37890625,283.121170390736L1059.328125,249.19912823763758L1060.27734375,270.08422123302114L1061.2265625,341.85236115889114L1062.4921875,286.65556196732956L1063.44140625,326.16974847966975L1063.7578125,283.5791931152344L1064.07421875,287.9818247014826L1065.97265625,320.0853857560591L1067.5546875,310.0290967767889L1067.87109375,315.46400312943894L1068.1875,321.95170489224523L1069.453125,326.50472883744675L1070.0859375,311.9842952381481L1070.40234375,308.5797753767534L1072.30078125,314.0693817138672L1073.25,316.5509778803045L1073.8828125,246.36887671730736L1074.19921875,295.74108921397817L1074.83203125,322.0815929066051L1075.1484375,273.35200743241745L1075.71796875,285.7189795754173L1076.4140625,308.68232969804245L1077.36328125,305.24363049593836L1079.89453125,298.32523970170456L1080.2109375,292.30240631103516L1081.79296875,319.4290837374601L1083.05859375,301.9553399519487L1083.375,333.211197939786L1084.95703125,305.10691313310105L1088.75390625,321.1723605069247L1089.0703125,302.5706169821999L1089.38671875,299.26865144209427L1089.703125,290.20362854003906L1090.01953125,324.1530206853693L1092.8671875,273.97411381114614L1095.08203125,333.44364027543503L1096.03125,301.9485106034712L1097.61328125,318.6360806551847L1098.5625,302.6047963229093L1100.14453125,294.1550504511053L1100.4609375,321.2133854952726L1100.77734375,267.98545976118606L1101.09375,301.20334555886006L1102.67578125,309.63258708607066L1103.94140625,255.45440396395594L1104.57421875,306.7749855735085L1105.5234375,324.5837097167969L1106.7890625,309.2497523914684L1107.10546875,299.89760346846145L1107.421875,262.4343240911311L1108.0546875,315.5870617953214L1109.3203125,314.4043620716442L1109.63671875,294.4763558127663L1110.26953125,338.27694459394974L1110.5859375,328.54196097634053L1111.8515625,263.55549448186696L1112.16796875,313.7275557084517L1112.484375,320.8510551452637L1114.06640625,313.6318470348011L1114.69921875,298.3730940385298L1117.86328125,335.5970854325728L1118.1796875,323.2847969748757L1119.4453125,305.2914848327637L1120.078125,292.3912693370472L1121.66015625,291.50254128196025L1122.29296875,332.3839992176403L1123.2421875,282.24610103260386L1123.875,360.5839926979759L1127.0390625,279.9354178688743L1127.98828125,295.5838512073864L1128.9375,286.32741095803L1130.51953125,316.76974521983755L1131.46875,309.48217842795634L1133.3671875,340.40988540649414L1134.31640625,323.10705462369054L1134.94921875,287.10677164251155L1136.53125,314.37018273093486L1137.1640625,310.8015955144709L1138.4296875,306.05717052112925L1138.74609375,328.0360676158558L1141.27734375,274.45265717939895L1142.54296875,309.14719807017934L1142.859375,311.3826932040128L1143.80859375,300.8068358681419L1144.44140625,297.49804097955877L1145.07421875,297.5732290094549L1146.65625,288.6654604131525L1147.921875,324.49483039162374L1149.1875,299.3985394564542L1150.453125,314.84189675071025L1151.0859375,267.8897510875355L1152.984375,255.878247347745L1153.93359375,279.59359186345876L1156.78125,296.19229888916016L1157.4140625,354.5953386480158L1158.046875,320.1810944297097L1158.99609375,337.0464068326083L1159.9453125,308.67548405040395L1160.89453125,331.03723213889384L1161.2109375,323.24378828568894L1162.79296875,336.00727011940694L1165.32421875,309.2634110884233L1167.22265625,220.79404241388497L1168.171875,268.51868681474167L1168.48828125,286.47781961614436L1171.01953125,315.3819694519043L1173.55078125,310.6648781516335L1176.3984375,300.43767616965556L1177.6640625,278.0964324257591L1179.87890625,303.226902701638L1181.77734375,315.887846513228L1182.41015625,299.3506851196289L1183.359375,300.88886954567647L1183.9921875,312.9618863192472L1185.890625,335.337309403853L1186.5234375,270.22778424349696L1186.83984375,287.4964356855913L1188.73828125,308.2721450112083L1189.37109375,332.8420382412997L1189.6875,304.1361514004794L1190.00390625,348.4562922391024L1191.26953125,304.12930575284093L1191.5859375,308.38835802945226L1191.90234375,326.66196684403855L1192.53515625,311.0682171908292L1193.484375,310.8631248474121L1194.1171875,296.17862389304423L1195.69921875,331.14661580866033L1196.015625,317.2893135764382L1196.96484375,334.6741780367765L1198.546875,316.995341907848L1198.86328125,279.64829184792256L1199.49609375,294.9754198247736L1199.8125,263.87679984352803L1201.39453125,311.7586985501376L1202.02734375,277.3581130287864L1202.9765625,277.4606510509144L1203.29296875,277.2692337036133L1203.609375,293.2458180514249L1204.55859375,326.0671941583807L1205.5078125,358.0203628540039L1206.45703125,325.36988345059484L1207.72265625,338.34530327536845L1208.98828125,294.0251624367454L1209.62109375,260.51330497048116L1211.203125,254.00509886308149L1211.51953125,339.5416779951616L1212.15234375,330.38094641945577L1213.1015625,306.9253779324618L1213.734375,301.2511998956854" style="fill: none;" fill="none"></path></g></g></g></g></g></g><g transform="translate(37, 376)" clip-path="url(#clip_1)"><clipPath id="clip_1"><rect width="1265" height="24"></rect></clipPath><g><g><line x1="0" y1="0" x2="0" y2="5" style="visibility: inherit;" fill="rgb(0, 0, 0)" stroke="rgb(204, 204, 204)" stroke-width="1px"></line><line x1="126.5625" y1="0" x2="126.5625" y2="5" style="visibility: inherit;" fill="rgb(0, 0, 0)" stroke="rgb(204, 204, 204)" stroke-width="1px"></line><line x1="253.125" y1="0" x2="253.125" y2="5" style="visibility: inherit;" fill="rgb(0, 0, 0)" stroke="rgb(204, 204, 204)" stroke-width="1px"></line><line x1="379.6875" y1="0" x2="379.6875" y2="5" style="visibility: inherit;" fill="rgb(0, 0, 0)" stroke="rgb(204, 204, 204)" stroke-width="1px"></line><line x1="506.25" y1="0" x2="506.25" y2="5" style="visibility: inherit;" fill="rgb(0, 0, 0)" stroke="rgb(204, 204, 204)" stroke-width="1px"></line><line x1="632.8125" y1="0" x2="632.8125" y2="5" style="visibility: inherit;" fill="rgb(0, 0, 0)" stroke="rgb(204, 204, 204)" stroke-width="1px"></line><line x1="759.375" y1="0" x2="759.375" y2="5" style="visibility: inherit;" fill="rgb(0, 0, 0)" stroke="rgb(204, 204, 204)" stroke-width="1px"></line><line x1="885.9375" y1="0" x2="885.9375" y2="5" style="visibility: inherit;" fill="rgb(0, 0, 0)" stroke="rgb(204, 204, 204)" stroke-width="1px"></line><line x1="1012.5" y1="0" x2="1012.5" y2="5" style="visibility: inherit;" fill="rgb(0, 0, 0)" stroke="rgb(204, 204, 204)" stroke-width="1px"></line><line x1="1139.0625" y1="0" x2="1139.0625" y2="5" style="visibility: inherit;" fill="rgb(0, 0, 0)" stroke="rgb(204, 204, 204)" stroke-width="1px"></line><line x1="1265.625" y1="0" x2="1265.625" y2="5" style="visibility: inherit;" fill="rgb(0, 0, 0)" stroke="rgb(204, 204, 204)" stroke-width="1px"></line></g><g transform="translate(0, 8)"><text x="0" y="0" dx="0em" dy="0.95em" style="text-anchor: middle; visibility: hidden; font-family: Roboto, sans-serif; font-size: 12px; font-weight: 200;" fill="rgb(255, 255, 255)" stroke="none" stroke-width="1px">-2k</text><text x="126.5625" y="0" dx="0em" dy="0.95em" style="text-anchor: middle; visibility: inherit; font-family: Roboto, sans-serif; font-size: 12px; font-weight: 200;" fill="rgb(255, 255, 255)" stroke="none" stroke-width="1px">0</text><text x="253.125" y="0" dx="0em" dy="0.95em" style="text-anchor: middle; visibility: inherit; font-family: Roboto, sans-serif; font-size: 12px; font-weight: 200;" fill="rgb(255, 255, 255)" stroke="none" stroke-width="1px">2k</text><text x="379.6875" y="0" dx="0em" dy="0.95em" style="text-anchor: middle; visibility: inherit; font-family: Roboto, sans-serif; font-size: 12px; font-weight: 200;" fill="rgb(255, 255, 255)" stroke="none" stroke-width="1px">4k</text><text x="506.25" y="0" dx="0em" dy="0.95em" style="text-anchor: middle; visibility: inherit; font-family: Roboto, sans-serif; font-size: 12px; font-weight: 200;" fill="rgb(255, 255, 255)" stroke="none" stroke-width="1px">6k</text><text x="632.8125" y="0" dx="0em" dy="0.95em" style="text-anchor: middle; visibility: inherit; font-family: Roboto, sans-serif; font-size: 12px; font-weight: 200;" fill="rgb(255, 255, 255)" stroke="none" stroke-width="1px">8k</text><text x="759.375" y="0" dx="0em" dy="0.95em" style="text-anchor: middle; visibility: inherit; font-family: Roboto, sans-serif; font-size: 12px; font-weight: 200;" fill="rgb(255, 255, 255)" stroke="none" stroke-width="1px">10k</text><text x="885.9375" y="0" dx="0em" dy="0.95em" style="text-anchor: middle; visibility: inherit; font-family: Roboto, sans-serif; font-size: 12px; font-weight: 200;" fill="rgb(255, 255, 255)" stroke="none" stroke-width="1px">12k</text><text x="1012.5" y="0" dx="0em" dy="0.95em" style="text-anchor: middle; visibility: inherit; font-family: Roboto, sans-serif; font-size: 12px; font-weight: 200;" fill="rgb(255, 255, 255)" stroke="none" stroke-width="1px">14k</text><text x="1139.0625" y="0" dx="0em" dy="0.95em" style="text-anchor: middle; visibility: inherit; font-family: Roboto, sans-serif; font-size: 12px; font-weight: 200;" fill="rgb(255, 255, 255)" stroke="none" stroke-width="1px">16k</text><text x="1265.625" y="0" dx="0em" dy="0.95em" style="text-anchor: middle; visibility: hidden; font-family: Roboto, sans-serif; font-size: 12px; font-weight: 200;" fill="rgb(255, 255, 255)" stroke="none" stroke-width="1px">18k</text></g><line x1="0" y1="0" x2="1265.625" y2="0" fill="rgb(0, 0, 0)" stroke="rgb(204, 204, 204)" stroke-width="1px"></line></g></g></g></g></svg>