<svg viewBox="0 0 1303 400" xmlns="http://www.w3.org/2000/svg"><g><g><g><g><g><line x1="64.75" y1="376" x2="59.75" y2="376" style="visibility: inherit;" fill="rgb(0, 0, 0)" stroke="rgb(204, 204, 204)" stroke-width="1px"></line><line x1="64.75" y1="329" x2="59.75" y2="329" style="visibility: inherit;" fill="rgb(0, 0, 0)" stroke="rgb(204, 204, 204)" stroke-width="1px"></line><line x1="64.75" y1="282" x2="59.75" y2="282" style="visibility: inherit;" fill="rgb(0, 0, 0)" stroke="rgb(204, 204, 204)" stroke-width="1px"></line><line x1="64.75" y1="234.99999999999997" x2="59.75" y2="234.99999999999997" style="visibility: inherit;" fill="rgb(0, 0, 0)" stroke="rgb(204, 204, 204)" stroke-width="1px"></line><line x1="64.75" y1="187.99999999999997" x2="59.75" y2="187.99999999999997" style="visibility: inherit;" fill="rgb(0, 0, 0)" stroke="rgb(204, 204, 204)" stroke-width="1px"></line><line x1="64.75" y1="140.99999999999997" x2="59.75" y2="140.99999999999997" style="visibility: inherit;" fill="rgb(0, 0, 0)" stroke="rgb(204, 204, 204)" stroke-width="1px"></line><line x1="64.75" y1="93.99999999999996" x2="59.75" y2="93.99999999999996" style="visibility: inherit;" fill="rgb(0, 0, 0)" stroke="rgb(204, 204, 204)" stroke-width="1px"></line><line x1="64.75" y1="46.999999999999915" x2="59.75" y2="46.999999999999915" style="visibility: inherit;" fill="rgb(0, 0, 0)" stroke="rgb(204, 204, 204)" stroke-width="1px"></line></g><g transform="translate(54.75, 0)"><text x="0" y="376" dx="0em" dy="0.3em" style="text-anchor: end; visibility: hidden; font-family: Roboto, sans-serif; font-size: 12px; font-weight: 200;" fill="rgb(255, 255, 255)" stroke="none" stroke-width="1px">-5e-6</text><text x="0" y="329" dx="0em" dy="0.3em" style="text-anchor: end; visibility: inherit; font-family: Roboto, sans-serif; font-size: 12px; font-weight: 200;" fill="rgb(255, 255, 255)" stroke="none" stroke-width="1px">0</text><text x="0" y="282" dx="0em" dy="0.3em" style="text-anchor: end; visibility: inherit; font-family: Roboto, sans-serif; font-size: 12px; font-weight: 200;" fill="rgb(255, 255, 255)" stroke="none" stroke-width="1px">5e-6</text><text x="0" y="234.99999999999997" dx="0em" dy="0.3em" style="text-anchor: end; visibility: inherit; font-family: Roboto, sans-serif; font-size: 12px; font-weight: 200;" fill="rgb(255, 255, 255)" stroke="none" stroke-width="1px">1e-5</text><text x="0" y="187.99999999999997" dx="0em" dy="0.3em" style="text-anchor: end; visibility: inherit; font-family: Roboto, sans-serif; font-size: 12px; font-weight: 200;" fill="rgb(255, 255, 255)" stroke="none" stroke-width="1px">1.5e-5</text><text x="0" y="140.99999999999997" dx="0em" dy="0.3em" style="text-anchor: end; visibility: inherit; font-family: Roboto, sans-serif; font-size: 12px; font-weight: 200;" fill="rgb(255, 255, 255)" stroke="none" stroke-width="1px">2e-5</text><text x="0" y="93.99999999999996" dx="0em" dy="0.3em" style="text-anchor: end; visibility: inherit; font-family: Roboto, sans-serif; font-size: 12px; font-weight: 200;" fill="rgb(255, 255, 255)" stroke="none" stroke-width="1px">2.5e-5</text><text x="0" y="46.999999999999915" dx="0em" dy="0.3em" style="text-anchor: end; visibility: inherit; font-family: Roboto, sans-serif; font-size: 12px; font-weight: 200;" fill="rgb(255, 255, 255)" stroke="none" stroke-width="1px">3e-5</text></g><line x1="64.75" y1="0" x2="64.75" y2="376" fill="rgb(0, 0, 0)" stroke="rgb(204, 204, 204)" stroke-width="1px"></line></g></g><g transform="translate(64, 0)" clip-path="url(#clip_0)"><clipPath id="clip_0"><rect width="1238" height="376"></rect></clipPath><g><g><g><line x1="0" y1="0" x2="0" y2="376" fill="rgb(0, 0, 0)" stroke="rgb(189, 189, 189)" stroke-width="1px" opacity="0.25"></line><line x1="123.825" y1="0" x2="123.825" y2="376" fill="rgb(0, 0, 0)" stroke="rgb(189, 189, 189)" stroke-width="1px" opacity="0.25"></line><line x1="247.65" y1="0" x2="247.65" y2="376" fill="rgb(0, 0, 0)" stroke="rgb(189, 189, 189)" stroke-width="1px" opacity="0.25"></line><line x1="371.47499999999997" y1="0" x2="371.47499999999997" y2="376" fill="rgb(0, 0, 0)" stroke="rgb(189, 189, 189)" stroke-width="1px" opacity="0.25"></line><line x1="495.3" y1="0" x2="495.3" y2="376" fill="rgb(0, 0, 0)" stroke="rgb(189, 189, 189)" stroke-width="1px" opacity="0.25"></line><line x1="619.125" y1="0" x2="619.125" y2="376" fill="rgb(0, 0, 0)" stroke="rgb(189, 189, 189)" stroke-width="1px" opacity="0.25"></line><line x1="742.9499999999999" y1="0" x2="742.9499999999999" y2="376" fill="rgb(0, 0, 0)" stroke="rgb(189, 189, 189)" stroke-width="1px" opacity="0.25"></line><line x1="866.775" y1="0" x2="866.775" y2="376" fill="rgb(0, 0, 0)" stroke="rgb(189, 189, 189)" stroke-width="1px" opacity="0.25"></line><line x1="990.6" y1="0" x2="990.6" y2="376" fill="rgb(0, 0, 0)" stroke="rgb(189, 189, 189)" stroke-width="1px" opacity="0.25"></line><line x1="1114.425" y1="0" x2="1114.425" y2="376" fill="rgb(0, 0, 0)" stroke="rgb(189, 189, 189)" stroke-width="1px" opacity="0.25"></line><line x1="1238.25" y1="0" x2="1238.25" y2="376" fill="rgb(0, 0, 0)" stroke="rgb(189, 189, 189)" stroke-width="1px" opacity="0.25"></line></g><g><line x1="0" y1="376" x2="1238.25" y2="376" fill="rgb(0, 0, 0)" stroke="rgb(189, 189, 189)" stroke-width="1px" opacity="0.25"></line><line x1="0" y1="329" x2="1238.25" y2="329" fill="rgb(0, 0, 0)" stroke="rgb(189, 189, 189)" stroke-width="1px" opacity="0.25"></line><line x1="0" y1="282" x2="1238.25" y2="282" fill="rgb(0, 0, 0)" stroke="rgb(189, 189, 189)" stroke-width="1px" opacity="0.25"></line><line x1="0" y1="234.99999999999997" x2="1238.25" y2="234.99999999999997" fill="rgb(0, 0, 0)" stroke="rgb(189, 189, 189)" stroke-width="1px" opacity="0.25"></line><line x1="0" y1="187.99999999999997" x2="1238.25" y2="187.99999999999997" fill="rgb(0, 0, 0)" stroke="rgb(189, 189, 189)" stroke-width="1px" opacity="0.25"></line><line x1="0" y1="140.99999999999997" x2="1238.25" y2="140.99999999999997" fill="rgb(0, 0, 0)" stroke="rgb(189, 189, 189)" stroke-width="1px" opacity="0.25"></line><line x1="0" y1="93.99999999999996" x2="1238.25" y2="93.99999999999996" fill="rgb(0, 0, 0)" stroke="rgb(189, 189, 189)" stroke-width="1px" opacity="0.25"></line><line x1="0" y1="46.999999999999915" x2="1238.25" y2="46.999999999999915" fill="rgb(0, 0, 0)" stroke="rgb(189, 189, 189)" stroke-width="1px" opacity="0.25"></line></g></g></g><g><g><line x1="0" y1="329" x2="1238.25" y2="329" fill="rgb(0, 0, 0)" stroke="rgb(153, 153, 153)" stroke-width="1.5px"></line></g></g><g><g><line x1="123.825" y1="0" x2="123.825" y2="376" fill="rgb(0, 0, 0)" stroke="rgb(153, 153, 153)" stroke-width="1.5px"></line></g></g><g><g><g><g><g><path stroke="rgb(255, 112, 67)" stroke-width="2px" d="M125.06325000000001,319.6000000237327L128.158875,313.9577431352169L128.4684375,312.176447408651L129.397125,311.3546275735404L129.7066875,310.91083129988937L130.01624999999999,310.65071427316894L130.63537499999998,310.49088666984323L131.873625,310.3898184515204L132.1831875,310.3247414775435L136.2075,307.0879045849223L138.3744375,304.9634521053316L138.684,303.5621876278941L138.9935625,302.63491364788536L139.6126875,302.0199749913074L140.54137500000002,298.46490574234315L142.39875,296.1016865353713L142.7083125,294.5297547242626L143.017875,293.48372152315625L143.3274375,292.78745039727755L144.256125,292.3239053567125L144.5656875,292.0152604069007L144.87525000000002,291.8097365909994L145.494375,291.67287268350947L145.8039375,291.5817279530957L147.66131249999998,288.3813076007233L149.209125,286.2498964313041L151.3760625,284.8304071013393L154.4716875,280.7454038540786L155.7099375,278.0248176269604L156.638625,276.21291870343293L156.9481875,275.00619912287254L157.5673125,274.20252614545564L159.73425,270.5276766174234L161.2820625,268.08022988886364L162.52031250000002,266.45023172364L162.82987500000002,265.36465354706115L163.449,264.6416587482407L164.068125,264.16014433055847L165.9255,260.69985573611825L166.2350625,258.39530378342636L168.40200000000002,256.8604722943571L169.021125,255.83827457205965L169.3306875,255.1574909109312L170.259375,254.70408900234312L172.42631250000002,251.26252223692455L173.35500000000002,248.9704387929589L173.97412500000002,247.44391122894868L174.59324999999998,246.42724387560747L176.45062499999997,245.75014342018486L176.76018749999997,245.29919451771738L177.06975,244.9988625490483L178.6175625,241.65924324858602L180.78449999999998,239.4350567957078L181.09406249999998,237.9537486186363L181.40362499999998,236.9671973729486L182.641875,236.3101542434279L182.9514375,235.87256351921468L183.261,235.58112809690985L185.42793749999998,232.24743104267657L186.35662499999998,230.0271888046285L186.6661875,228.54850747412019L186.97575,227.56370570801565L187.2853125,226.9078277317963L187.9044375,226.47101299963694L189.1426875,226.18009438802002L189.7618125,225.9863425926837L190.3809375,225.85730389698998L191.6191875,222.63176306278808L191.92875,220.4835528672114L192.2383125,219.05284487695812L193.167,218.09999335544975L194.7148125,217.4653942421254L197.8104375,213.90315302523368L199.35825,211.53070037478412L199.6678125,209.95064690958475L199.977375,208.89833130176206L203.692125,208.1974891069522L204.0016875,204.59112714234192L204.31125,202.1892900739115L207.7164375,200.58966658633682L208.645125,199.52431734361213L209.26425,198.81479474795748L209.883375,198.34225269925147L211.12162500000002,194.88794148739598L212.05031250000002,192.5873702203002L212.97899999999998,191.0551897564144L213.59812499999998,190.03475756746653L215.14593749999997,189.35514972962716L215.7650625,188.9025309096262L216.074625,188.60108677550554L218.55112499999998,185.26072391931433L219.17024999999998,183.036042257091L220.4085,181.55440427005027L221.64675,180.56763337068114L222.265875,179.91044395170127L222.5754375,179.4727557986607L223.504125,176.0416544258688L228.1475625,173.7565409115894L228.457125,172.23465531107936L230.0049375,168.08147843827277L230.6240625,165.31546264098355L230.933625,163.473296119989L232.791,162.24641321700656L233.410125,161.4293092036203L234.64837500000002,160.88511793070506L235.886625,160.52268654294346L236.1961875,157.14171188672657L236.50575,154.88998276568606L236.8153125,153.39033117107311L237.124875,152.39156320906088L237.4344375,151.72638374636074L240.839625,151.28337422420245L243.316125,147.84872881957818L244.55437500000002,145.56125498009843L245.17350000000002,144.03779740300484L245.79262500000002,143.0231746566606L246.7213125,142.3474359075953L248.269125,141.89739390071782L248.88825000000003,138.45806486127051L250.43606250000002,136.16747172099866L251.98387499999998,134.6419366895776L252.29343749999998,133.62593035865117L254.15081249999997,132.94927014225416L254.460375,132.49861443813376L255.698625,129.0588766763227L256.936875,126.76801132695654L258.4846875,125.24229500427867L258.79425,124.22616793337522L259.1038125,123.5494273041535L259.7229375,123.09871804509186L260.9611875,122.79854567855678L261.27074999999996,122.59863088244448L261.889875,119.32588656536674L263.128125,117.14623885019306L263.74725,115.69459347188734L264.9855,114.72779764993574L266.5333125,114.08391163251596L267.7715625,113.6550835449144L268.081125,110.22988297570487L268.70025,107.94869939661135L269.319375,106.42943113293505L270.557625,105.41759846932662L270.8671875,104.7437179153634L272.415,104.29491346642394L272.7245625,103.99600970343025L274.5819375,100.65734444530872L275.2010625,98.43379338339977L276.748875,96.95290837616842L277.987125,95.96663896135234L281.3923125,92.17018246821794L281.70187500000003,89.64174244379049L282.0114375,87.95780138752176L282.321,86.83629664404681L282.6305625,86.08937448489249L282.940125,85.5919243268957L283.8688125,85.2606225216698L284.178375,85.0399755193894L284.4879375,84.89302461587064L288.8218125,81.65555425126028L289.131375,79.49939898842976L289.75050000000005,78.0633995833847L290.0600625,77.10702397962461L290.369625,76.4700778275205L290.98875,76.04587169021912L291.607875,75.76335040277641L292.227,75.57519122533952L292.846125,75.44987721316654L294.08437499999997,72.22681701819253L294.70349999999996,70.08025892833979L295.6321875,68.6506512404979L295.94175,67.69853252039516L297.799125,67.06442145280677L298.41825,66.64210348179289L299.6565,66.36083971309765L300.5851875,63.033916980279784L301.2043125,60.81818644022308L304.60949999999997,59.342509900545345L304.9190625,58.35970932511996L305.84775,57.70516414188657L306.466875,54.12964169788549L306.7764375,51.74834375018075L307.705125,50.16239931700939L308.32425,49.10616032451722L309.87206249999997,48.40270515551748L310.181625,47.93420401296366L311.72943749999996,47.622182252022796L313.27725,47.41437575923619L313.58681249999995,47.27597663504033L314.20593749999995,47.18380281832588L316.0633125,47.122415056394004L316.372875,47.08153080694743L317.3015625,47.05430189681597L317.9206875,47.03616744266844L318.23025,47.02408989620623L319.4685,47.01604625026237L320.70675,47.01068918206373L321.63543749999997,47.007121374643454L322.25456249999996,47.004745214901526L322.564125,47.00316269251341L322.87368749999996,47.00210873260296L324.42150000000004,47.00140679530253L325.04062500000003,47.00093930506051L326.278875,47.00062795655934L327.2075625,47.00042059845753L327.8266875,47.00028249796168L329.993625,47.00019052303149L330.9223125,47.00012926772797L332.470125,47.00008847169583L332.77968749999997,47.000061301538395L334.01793749999996,47.00004320621358L335.2561875,47.00003115472727L337.7326875,47.000023128437334L338.3518125,47.00001778292832L338.9709375,47.000014222819246L339.2805,47.0000118517866L339.899625,47.00001027267889L340.8283125,47.00000922099313L343.30481249999997,47.000008520570425L344.85262500000005,47.000008054088894L345.47175000000004,47.00000774341219L346.4004375,47.00000753650155L346.71000000000004,47.00000739869903L347.32912500000003,47.00000730692254L347.94825000000003,47.00000724579941L348.2578125,47.000007205091414L348.8769375,47.00000717797985L349.18649999999997,47.00000715992357L349.80562499999996,47.00000714789814L350.1151875,47.00000713988914L350.42474999999996,47.000007134555176L351.9725625,47.000007131002725L353.21081250000003,47.000007128636824L353.8299375,47.00000712706114L357.5446875,47.000007126011766L358.1638125,47.0000071253128L360.0211875,47.00000712484731L360.33074999999997,47.00000712453731L361.56899999999996,47.00000712433084L362.49768750000004,47.00000712419334L363.426375,47.00000712410175L363.73593750000003,47.00000712404076L364.35506250000003,47.00000712400015L364.664625,47.000007123973056L364.9741875,47.00000712395502L365.5933125,47.00000712394308L367.4506875,47.000007123935106L372.40368750000005,47.00000712392976L372.71324999999996,47.00000712392626L373.02281250000004,47.00000712392388L373.332375,47.000007123922295L374.26106250000004,47.00000712392129L376.7375625,47.00000712392058L377.047125,47.00000712392012L379.8331875,47.00000712391983L381.0714375,47.00000712391962L381.381,47.000007123919495L382.00012499999997,47.000007123919374L382.30968750000005,47.00000712391929L383.238375,47.00000712391925L383.54793750000005,47.00000712391925L384.476625,47.00000712391925L385.09575,47.00000712391925L386.953125,47.00000712391925L388.8105,47.00000712391925L389.73918749999996,47.00000712391925L390.35831249999995,47.00000712391925L391.59656249999995,47.00000712391925L392.8348125,47.00000712391925L393.144375,47.00000712391925L397.1686875,47.00000712391925L397.7878125,47.00000712391925L399.02606249999997,47.00000712391925L399.64518749999996,47.00000712391925L400.573875,47.00000712391925L401.19300000000004,47.00000712391925L401.50256249999995,47.00000712391925L402.43125000000003,47.00000712391925L402.7408125,47.00000712391925L404.288625,47.00000712391925L404.5981875,47.00000712391925L405.2173125,47.00000712391925L405.526875,47.00000712391925L407.6938125,47.00000712391925L408.003375,47.00000712391925L408.6225,47.00000712391925L410.78943749999996,47.00000712391925L411.40856249999996,47.00000712391925L411.71812500000004,47.00000712391925L412.0276875,47.00000712391925L414.19462500000003,47.00000712391925L415.1233125,47.00000712391925L416.052,47.00000712391925L417.29025,47.00000712391925L418.2189375,47.00000712391925L419.147625,47.00000712391925L420.69543749999997,47.00000712391925L421.62412500000005,47.00000712391925L422.24325000000005,47.00000712391925L422.86237500000004,47.00000712391925L423.1719375,47.00000712391925L426.2675625,47.00000712391925L426.57712499999997,47.00000712391925L427.5058125,47.00000712391925L428.7440625,47.00000712391925L429.9823125,47.00000712391925L430.60143750000003,47.00000712391925L431.2205625,47.00000712391925L431.8396875,47.00000712391925L432.768375,47.00000712391925L433.6970625,47.00000712391925L434.006625,47.00000712391925L434.3161875,47.00000712391925L434.9353125,47.00000712391925L436.483125,47.00000712391925L437.10224999999997,47.00000712391925L437.72137499999997,47.00000712391925L439.88831250000004,47.00000712391925L441.12656250000003,47.00000712391925L441.74568750000003,47.00000712391925L443.912625,47.00000712391925L444.2221875,47.00000712391925L444.53175,47.00000712391925L446.389125,47.00000712391925L447.3178125,47.00000712391925L450.41343750000004,47.00000712391925L451.03256250000004,47.00000712391925L451.65168750000004,47.00000712391925L452.27081250000003,47.00000712391925L453.818625,47.00000712391925L454.43775,47.00000712391925L454.7473125,47.00000712391925L455.056875,47.00000712391925L455.3664375,47.00000712391925L455.676,47.00000712391925L456.91425,47.00000712391925L457.8429375,47.00000712391925L459.39074999999997,47.00000712391925L459.70031250000005,47.00000712391925L460.009875,47.00000712391925L461.248125,47.00000712391925L463.41506250000003,47.00000712391925L464.65331249999997,47.00000712391925L464.962875,47.00000712391925L465.27243749999997,47.00000712391925L466.201125,47.00000712391925L466.82025,47.00000712391925L467.439375,47.00000712391925L467.74893749999995,47.00000712391925L468.36806249999995,47.00000712391925L470.535,47.00000712391925L470.8445625,47.00000712391925L471.77325,47.00000712391925L472.0828125,47.00000712391925L472.7019375,47.00000712391925L473.0115,47.00000712391925L473.9401875,47.00000712391925L474.5593125,47.00000712391925L476.107125,47.00000712391925L478.27406249999996,47.00000712391925L479.5123125,47.00000712391925L479.82187500000003,47.00000712391925L480.1314375,47.00000712391925L483.2270625,47.00000712391925L483.8461875,47.00000712391925L484.774875,47.00000712391925L486.94181249999997,47.00000712391925L487.56093749999997,47.00000712391925L487.8705,47.00000712391925L488.18006249999996,47.00000712391925L489.4183125,47.00000712391925L490.0374375,47.00000712391925L491.58525000000003,47.00000712391925L492.8235,47.00000712391925L493.1330625,47.00000712391925L494.06175,47.00000712391925L496.2286875,47.00000712391925L496.53825,47.00000712391925L496.8478125,47.00000712391925L499.01475000000005,47.00000712391925L500.25300000000004,47.00000712391925L501.8008125,47.00000712391925L502.4199375,47.00000712391925L503.6581875,47.00000712391925L504.58687499999996,47.00000712391925L508.30162499999994,47.00000712391925L508.92075,47.00000712391925L509.8494375,47.00000712391925L510.159,47.00000712391925L510.4685625,47.00000712391925L510.778125,47.00000712391925L511.39725,47.00000712391925L512.0163749999999,47.00000712391925L512.3259375,47.00000712391925L513.2546249999999,47.00000712391925L513.5641875,47.00000712391925L515.4215625,47.00000712391925L516.6598125,47.00000712391925L518.207625,47.00000712391925L518.5171875,47.00000712391925L518.82675,47.00000712391925L520.0649999999999,47.00000712391925L520.9936875,47.00000712391925L522.5414999999999,47.00000712391925L523.4701875000001,47.00000712391925L525.018,47.00000712391925L525.3275625,47.00000712391925L526.25625,47.00000712391925L527.4945,47.00000712391925L528.73275,47.00000712391925L530.2805625,47.00000712391925L531.8283749999999,47.00000712391925L532.4475,47.00000712391925L533.3761875,47.00000712391925L533.68575,47.00000712391925L536.4718125,47.00000712391925L539.5674375,47.00000712391925L540.496125,47.00000712391925L542.3535,47.00000712391925L544.210875,47.00000712391925L545.449125,47.00000712391925L545.7586875,47.00000712391925L546.06825,47.00000712391925L546.687375,47.00000712391925L548.8543125,47.00000712391925L549.163875,47.00000712391925L550.402125,47.00000712391925L552.2595,47.00000712391925L553.49775,47.00000712391925L554.4264375,47.00000712391925L555.6646875,47.00000712391925L561.8559375,47.00000712391925L563.0941875,47.00000712391925L566.1898125,47.00000712391925L567.737625,47.00000712391925L568.35675,47.00000712391925L568.6663125,47.00000712391925L568.975875,47.00000712391925L569.2854375,47.00000712391925L571.7619375,47.00000712391925L572.3810625,47.00000712391925L573.6193125,47.00000712391925L574.2384375,47.00000712391925L574.548,47.00000712391925L575.167125,47.00000712391925L575.4766875,47.00000712391925L579.1914375,47.00000712391925L579.5010000000001,47.00000712391925L580.120125,47.00000712391925L582.2870625,47.00000712391925L583.5253125,47.00000712391925L584.454,47.00000712391925L585.69225,47.00000712391925L586.9304999999999,47.00000712391925L587.2400625,47.00000712391925L588.1687499999999,47.00000712391925L590.3356875000001,47.00000712391925L590.6452499999999,47.00000712391925L590.9548125,47.00000712391925L591.5739375,47.00000712391925L592.502625,47.00000712391925L596.217375,47.00000712391925L598.07475,47.00000712391925L599.0034375,47.00000712391925L599.313,47.00000712391925L600.2416875,47.00000712391925L602.408625,47.00000712391925L603.3373125,47.00000712391925L603.646875,47.00000712391925L606.7425,47.00000712391925L607.6711875,47.00000712391925L607.98075,47.00000712391925L608.599875,47.00000712391925L609.5285625,47.00000712391925L609.838125,47.00000712391925L610.1476875000001,47.00000712391925L611.076375,47.00000712391925L612.314625,47.00000712391925L613.8624375,47.00000712391925L616.9580625,47.00000712391925L617.267625,47.00000712391925L617.5771875,47.00000712391925L618.8154375,47.00000712391925L619.125,47.00000712391925L619.4345625,47.00000712391925L621.9110625,47.00000712391925L626.8640624999999,47.00000712391925L628.1023124999999,47.00000712391925L629.3405624999999,47.00000712391925L629.9596875000001,47.00000712391925L630.888375,47.00000712391925L631.1979375000001,47.00000712391925L632.74575,47.00000712391925L633.0553125,47.00000712391925L634.2935625,47.00000712391925L635.22225,47.00000712391925L635.841375,47.00000712391925L637.69875,47.00000712391925L638.937,47.00000712391925L640.17525,47.00000712391925L641.4135,47.00000712391925L642.3421875,47.00000712391925L642.9613125,47.00000712391925L644.8186875,47.00000712391925L645.12825,47.00000712391925L645.4378125,47.00000712391925L645.7473749999999,47.00000712391925L647.2951875000001,47.00000712391925L647.6047500000001,47.00000712391925L647.9143124999999,47.00000712391925L650.0812500000001,47.00000712391925L650.700375,47.00000712391925L651.6290625,47.00000712391925L652.2481875000001,47.00000712391925L652.55775,47.00000712391925L652.8673125,47.00000712391925L653.176875,47.00000712391925L655.03425,47.00000712391925L656.2725,47.00000712391925L656.5820625,47.00000712391925L657.2011875000001,47.00000712391925L658.749,47.00000712391925L661.2255,47.00000712391925L661.5350625,47.00000712391925L662.7733125,47.00000712391925L663.3924374999999,47.00000712391925L664.94025,47.00000712391925L665.8689374999999,47.00000712391925L666.1785,47.00000712391925L669.5836875,47.00000712391925L672.6793125,47.00000712391925L673.2984375,47.00000712391925L674.227125,47.00000712391925L675.465375,47.00000712391925L675.7749375,47.00000712391925L676.0845,47.00000712391925L677.0131875,47.00000712391925L677.941875,47.00000712391925L679.180125,47.00000712391925L680.418375,47.00000712391925L680.9755875000001,47.00000712391925L685.9905000000001,47.00000712391925L687.2287500000001,50.13960247588693L688.1574375,52.230572980297396L688.4670000000001,53.62315933623483L689.086125,54.550621849289094L689.3956875,55.16831188298327L690.0148125000001,55.57969344542362L691.2530625,55.85367356600886L691.8721875,56.036144326318606L694.6582500000001,56.15766985268492L695.8965000000001,56.238605853244906L698.6825625,56.292509229617856L700.230375,56.32840887828223L700.5399375,56.3523180442927L700.8494999999999,56.36824154885567L703.0164374999999,56.378846602894626L704.8738125,56.385909568884536L705.8024999999999,56.39061350423384L706.7311874999999,56.39374632517648L707.3503125000001,56.39583278392428L709.51725,56.3972223654503L710.7555,56.39814782674666L711.6841875,56.39876418396999L713.5415625,56.39917467788074L713.851125,56.3994480668253L714.1606875,56.399630143862424L715.089375,56.39975140716909L716.6371875,56.39983216853132L718.4945625,56.39988595559859L718.804125,56.399921777785416L721.8997499999999,56.39994563536184L722.2093125,56.399961524507674L723.4475625,56.39997210667882L723.757125,56.39997915440483L724.0666875,56.39998384819036L724.9953750000001,56.39998697425149L725.6144999999999,56.399989056208234L726.5431875,56.39999044279142L727.4718750000001,56.39999136625579L728.4005625000001,56.399991981283094L729.6388125000001,56.39999239089128L729.948375,56.3999926636903L730.5675,56.39999284537451L730.8770625000001,56.39999296637617L731.4961875,56.39999304696328L731.80575,56.39999310063425L734.901375,56.39999313637917L735.5205,56.39999316018525L736.139625,56.3999931760401L737.997,56.399993186599424L738.3065624999999,56.39999319363197L739.23525,56.39999319831561L747.2838750000001,56.399993201434874L748.5221250000001,56.399993203512366L750.0699375,56.399993204895985L750.6890625,56.399993205817495L751.61775,56.39999320643122L752.856,56.399993206839895L753.1655625,56.39999320711211L754.4038125,56.399993207293406L755.3325,56.399993207414134L756.57075,56.39999320749449L758.7376875,56.39999320754809L759.04725,56.39999320758374L759.3568124999999,56.399993207607494L762.762,56.39999320762332L763.0715624999999,56.39999320763388L763.6906875000001,56.39999320764089L764.9289375000001,56.39999320764552L766.47675,56.399993207648656L768.6436875,56.39999320765074L768.95325,56.39999320765216L769.5723750000001,56.39999320765304L770.1915,56.399993207653665L771.42975,56.39999320765408L772.0488750000001,56.39999320765433L772.3584375,56.3999932076545L772.9775625,56.399993207654624L773.90625,56.39999320765471L774.5253749999999,56.399993207654745L775.7636249999999,56.39999320765483L776.0731875,56.39999320765483L777.3114375,56.39999320765483L777.621,56.39999320765483L778.85925,56.39999320765483L779.1688125,56.39999320765483L780.0975,56.39999320765483L780.4070624999999,56.39999320765483L781.33575,56.39999320765483L784.1218124999999,56.39999320765483L785.0505,56.39999320765483L788.146125,56.39999320765483L791.24175,56.39999320765483L792.1704375,56.39999320765483L794.337375,56.39999320765483L796.5043125,56.39999320765483L799.9095,56.39999320765483L800.5286249999999,56.39999320765483L802.0764375000001,56.39999320765483L803.6242500000001,56.39999320765483L804.243375,56.39999320765483L804.8625000000001,56.39999320765483L806.719875,56.39999320765483L807.339,56.39999320765483L807.6485625,56.39999320765483L808.2676875000001,56.39999320765483L808.57725,56.39999320765483L810.434625,56.39999320765483L811.672875,56.39999320765483L815.0780625,56.39999320765483L816.00675,56.39999320765483L816.9354374999999,56.39999320765483L817.5545625,56.39999320765483L821.5788749999999,56.39999320765483L823.7458125,56.39999320765483L824.6745000000001,56.39999320765483L827.4605625,56.39999320765483L828.6988125,56.39999320765483L829.008375,56.39999320765483L832.4135625,56.39999320765483L834.8900625,56.39999320765483L836.437875,56.39999320765483L836.7474374999999,56.39999320765483L838.29525,56.39999320765483L839.8430625,56.39999320765483L840.7717500000001,56.39999320765483L842.3195625000001,56.39999320765483L844.7960625000001,56.39999320765483L845.7247500000001,56.39999320765483L847.2725625,56.39999320765483L847.8916875,56.39999320765483L848.2012500000001,56.39999320765483L848.5108125,56.39999320765483L849.1299375,56.39999320765483L850.9873125,56.39999320765483L852.535125,56.39999320765483L853.1542499999999,56.39999320765483L856.8689999999999,56.39999320765483L857.488125,56.39999320765483L859.0359374999999,56.39999320765483L860.8933125000001,56.39999320765483L862.441125,56.39999320765483L863.06025,56.39999320765483L863.679375,56.39999320765483L863.9889375,56.39999320765483L864.917625,56.39999320765483L865.2271875,56.39999320765483L869.2515,56.39999320765483L870.1801875,56.39999320765483L874.2044999999999,56.39999320765483L875.1331875,56.39999320765483L876.3714375,56.39999320765483L876.6809999999999,56.39999320765483L877.6096875,56.39999320765483L878.2288125,56.39999320765483L878.538375,56.39999320765483L882.2531250000001,56.39999320765483L884.729625,56.39999320765483L885.34875,56.39999320765483L885.6583125000001,56.39999320765483L886.8965625000001,56.39999320765483L888.1348125000001,56.39999320765483L888.7539375,56.39999320765483L889.3730625000001,56.39999320765483L891.54,56.39999320765483L891.8495624999999,56.39999320765483L893.0878124999999,56.39999320765483L894.3260624999999,56.39999320765483L895.873875,56.39999320765483L896.4929999999999,56.39999320765483L897.4216875,56.39999320765483L898.0408124999999,56.39999320765483L898.350375,56.39999320765483L898.9694999999999,56.39999320765483L899.5886250000001,56.39999320765483L900.5173124999999,56.39999320765483L901.7555625,56.39999320765483L902.0651250000001,56.39999320765483L902.3746875,56.39999320765483L902.9938125,56.39999320765483L903.6129375,56.39999320765483L905.16075,56.39999320765483L905.7798750000001,56.39999320765483L906.0894375,56.39999320765483L908.256375,56.39999320765483L908.8755,56.39999320765483L909.8041875,56.39999320765483L916.6145624999999,56.39999320765483L916.924125,56.39999320765483L917.54325,56.39999320765483L919.7101875000001,56.39999320765483L920.3293125,56.39999320765483L920.6388750000001,56.39999320765483L922.1866875000001,56.39999320765483L922.49625,56.39999320765483L922.8058125,56.39999320765483L923.7345,56.39999320765483L924.0440625,56.39999320765483L924.97275,56.39999320765483L926.8301250000001,56.39999320765483L927.1396875,56.39999320765483L927.7588125,56.39999320765483L928.3779375,56.39999320765483L928.9970625,56.39999320765483L929.3066249999999,56.39999320765483L932.7118125,56.39999320765483L933.0213749999999,56.39999320765483L933.3309375,56.39999320765483L935.8074375,56.39999320765483L936.117,56.39999320765483L937.6648124999999,56.39999320765483L937.9743749999999,56.39999320765483L938.2839375000001,56.39999320765483L938.5935000000001,56.39999320765483L939.2126249999999,56.39999320765483L939.5221875000001,56.39999320765483L939.83175,56.39999320765483L940.7604375000001,56.39999320765483L944.165625,56.39999320765483L946.023,56.39999320765483L946.642125,56.39999320765483L949.118625,56.39999320765483L949.4281875,56.39999320765483L949.73775,56.39999320765483L950.356875,56.39999320765483L952.5238125,56.39999320765483L953.4525,56.39999320765483L954.0716249999999,56.39999320765483L955.0003125,56.39999320765483L955.6194375,56.39999320765483L956.2385625,56.39999320765483L959.024625,56.39999320765483L960.262875,56.39999320765483L960.8820000000001,56.39999320765483L961.501125,56.39999320765483L962.12025,56.39999320765483L962.4298125,56.39999320765483L963.6680625,56.39999320765483L963.977625,56.39999320765483L964.2871875000001,56.39999320765483L965.835,56.39999320765483L966.1445625,56.39999320765483L967.3828125,56.39999320765483L967.692375,56.39999320765483L968.930625,56.39999320765483L970.4784374999999,56.39999320765483L970.788,56.39999320765483L971.0975625,56.39999320765483L971.407125,56.39999320765483L972.02625,56.39999320765483L972.3358125,56.39999320765483L974.8123125,56.39999320765483L975.1218749999999,56.39999320765483L975.4314374999999,56.39999320765483L976.9792500000001,56.39999320765483L977.2888125000001,56.39999320765483L978.5270625,56.39999320765483L979.4557500000001,56.39999320765483L980.3844375,56.39999320765483L981.0035625,56.39999320765483L981.6226875,56.39999320765483L982.2418125,56.39999320765483L982.551375,56.39999320765483L982.8609375,56.39999320765483L984.40875,56.39999320765483L984.7183125,56.39999320765483L988.4330625,56.39999320765483L989.0521875,56.39999320765483L991.219125,56.39999320765483L993.0765,56.39999320765483L993.3860625,56.39999320765483L996.7912500000001,56.39999320765483L997.1008125000001,56.39999320765483L999.886875,56.39999320765483L1000.5060000000001,56.39999320765483L1001.125125,56.39999320765483L1002.0538125,56.39999320765483L1002.6729375,56.39999320765483L1002.9825000000001,56.39999320765483L1003.9111875,56.39999320765483L1005.1494375,56.39999320765483L1005.4590000000001,56.39999320765483L1007.0068125,56.39999320765483L1007.6259375,56.39999320765483L1008.2450625,56.39999320765483L1008.554625,56.39999320765483L1009.792875,56.39999320765483L1010.4119999999999,56.39999320765483L1011.3406875,56.39999320765483L1013.8171874999999,56.39999320765483L1014.4363125,56.39999320765483L1014.745875,56.39999320765483L1015.3649999999999,56.39999320765483L1016.9128125000001,56.39999320765483L1017.5319375,56.39999320765483L1018.1510625000001,56.39999320765483L1018.7701875,56.39999320765483L1021.2466875,56.39999320765483L1023.7231875,56.39999320765483L1024.0327499999999,56.39999320765483L1024.651875,56.39999320765483L1024.9614374999999,56.39999320765483L1025.8901250000001,56.39999320765483L1026.5092499999998,56.39999320765483L1026.8188125000001,56.39999320765483L1027.7475,56.39999320765483L1029.604875,56.39999320765483L1030.843125,56.39999320765483L1031.1526875,56.39999320765483L1035.4865625,56.39999320765483L1036.41525,56.39999320765483L1037.3439375,56.39999320765483L1038.272625,56.39999320765483L1039.510875,56.39999320765483L1040.4395625,56.39999320765483L1040.749125,56.39999320765483L1041.0586875,56.39999320765483L1042.9160625000002,56.39999320765483L1044.4638750000001,56.39999320765483L1044.7734375,56.39999320765483L1045.0829999999999,56.39999320765483L1046.32125,56.39999320765483L1046.9403750000001,56.39999320765483L1047.2499375,56.39999320765483L1049.1073125,56.39999320765483L1050.036,56.39999320765483L1050.655125,56.39999320765483L1050.9646875,56.39999320765483L1051.5838125,56.39999320765483L1051.893375,56.39999320765483L1052.4505875,56.39999320765483L1053.131625,56.39999320765483L1054.0603125,56.39999320765483L1056.5368125,56.39999320765483L1056.846375,56.39999320765483L1058.3941875,56.39999320765483L1059.6324375,56.39999320765483L1059.942,56.39999320765483L1061.4898125,56.39999320765483L1065.2045624999998,56.39999320765483L1065.5141250000001,56.39999320765483L1065.8236875,56.39999320765483L1066.13325,56.39999320765483L1066.4428125,56.39999320765483L1069.228875,56.39999320765483L1071.3958125,56.39999320765483L1072.3245,56.39999320765483L1073.8723125,56.39999320765483L1074.801,56.39999320765483L1076.3488125,56.39999320765483L1076.658375,56.39999320765483L1076.9679375,56.39999320765483L1077.2775,56.39999320765483L1078.8253124999999,56.39999320765483L1080.0635625,56.39999320765483L1080.6826875,56.39999320765483L1081.6113750000002,56.39999320765483L1082.849625,56.39999320765483L1083.1591875000001,56.39999320765483L1083.46875,56.39999320765483L1084.087875,56.39999320765483L1085.3261249999998,56.39999320765483L1085.6356875000001,56.39999320765483L1086.2548125,56.39999320765483L1086.564375,56.39999320765483L1087.802625,56.39999320765483L1088.1121875000001,56.39999320765483L1088.42175,56.39999320765483L1089.9695625,56.39999320765483L1090.5886875,56.39999320765483L1093.6843125,56.39999320765483L1093.993875,56.39999320765483L1095.232125,56.39999320765483L1095.85125,56.39999320765483L1097.3990625,56.39999320765483L1098.0181875,56.39999320765483L1098.9468749999999,56.39999320765483L1099.566,56.39999320765483L1102.661625,56.39999320765483L1103.5903125,56.39999320765483L1104.519,56.39999320765483L1106.0668125,56.39999320765483L1106.9955,56.39999320765483L1108.852875,59.53959427052169L1109.7815625,61.63056857839104L1110.4006875,63.023157467431986L1111.9485,63.9506216675333L1112.567625,64.56831282480077L1113.805875,64.9796951355409L1114.1154375,65.25367575449381L1116.5919375,65.43614684671643L1117.8301875,65.5576725941367L1118.13975,65.63860874191866L1119.0684375,65.69251221634146L1119.6875625,65.72841193030695L1120.3066875000002,65.75232113980802L1121.8545000000001,65.76824467333574L1123.09275,65.77884974666516L1124.3310000000001,65.78591272550257L1125.56925,65.79061666940835L1126.188375,65.79374949604951L1128.04575,65.79583595859259L1128.9744375,65.79722554264623L1131.7605,65.79815100562593L1132.379625,65.79876736397047L1132.99875,65.79917785862794L1133.9274375,65.79945124806977L1134.856125,65.79963332543805L1135.7848125,65.79975458896534L1136.094375,65.79983535047447L1137.6421874999999,65.79988913763962L1140.1186874999999,65.79992495989157L1141.9760625000001,65.79994881751136L1142.9047500000001,65.79996470668613L1143.2143125,65.7999752888766L1145.6908125,65.79998233661539L1148.1673125,65.79998703040943L1150.953375,65.79999015647628L1152.191625,65.79999223843674L1154.3585625,65.79999362502247L1156.2159374999999,65.79999454848851L1156.8350625,65.79999516351698L1157.76375,65.79999557312588L1158.382875,65.7999958459254L1160.24025,65.79999602760991L1160.859375,65.79999614861173L1161.1689374999999,65.79999622919901L1163.0263125000001,65.7999962828701L1163.6454375,65.79999631861507L1163.955,65.79999634242122L1164.2645625,65.79999635827612L1165.5028125000001,65.79999636883548L1165.812375,65.79999637586799L1166.1219375,65.79999638055172L1166.7410625,65.79999638367099L1167.66975,65.79999638574847L1168.288875,65.7999963871321L1169.8366875,65.79999638805351L1170.14625,65.79999638866724L1171.0749375,65.79999638907591L1172.62275,65.79999638934818L1172.9323125,65.79999638952947L1173.5514375,65.79999638965016L1173.8609999999999,65.7999963897306L1175.4088125,65.7999963897842L1176.0279375,65.79999638981985L1176.956625,65.7999963898436L1177.2661875,65.79999638985942L1177.57575,65.79999638986999L1178.5044375,65.799996389877L1179.433125,65.79999638988163L1180.3618125,65.79999638988475L1181.6000625000001,65.79999638988684L1182.8383125,65.79999638988818L1183.4574375,65.79999638988915L1185.00525,65.79999638988973L1185.3148125,65.79999638989018L1185.9339375,65.79999638989044L1186.862625,65.79999638989061L1187.48175,65.79999638989072" style="fill: none;" fill="none"></path></g></g></g></g><g opacity="0.2"><g><g><g><path stroke="rgb(255, 112, 67)" stroke-width="2px" d="M125.06325000000001,319.6000000237327L128.158875,310.20000004746544L128.4684375,310.20000004746544L129.397125,310.20000004746544L129.7066875,310.20000004746544L130.01624999999999,310.20000004746544L130.63537499999998,310.20000004746544L131.873625,310.20000004746544L132.1831875,310.20000004746544L136.2075,300.7999990025419L138.3744375,300.7999990025419L138.684,300.7999990025419L138.9935625,300.7999990025419L139.6126875,300.7999990025419L140.54137500000002,291.4000000949309L142.39875,291.4000000949309L142.7083125,291.4000000949309L143.017875,291.4000000949309L143.3274375,291.4000000949309L144.256125,291.4000000949309L144.5656875,291.4000000949309L144.87525000000002,291.4000000949309L145.494375,291.4000000949309L145.8039375,291.4000000949309L147.66131249999998,282.00000118731987L149.209125,282.00000118731987L151.3760625,282.00000118731987L154.4716875,272.59999800508376L155.7099375,272.59999800508376L156.638625,272.59999800508376L156.9481875,272.59999800508376L157.5673125,272.59999800508376L159.73425,263.19999909747276L161.2820625,263.19999909747276L162.52031250000002,263.19999909747276L162.82987500000002,263.19999909747276L163.449,263.19999909747276L164.068125,263.19999909747276L165.9255,253.80000018986175L166.2350625,253.80000018986175L168.40200000000002,253.80000018986175L169.021125,253.80000018986175L169.3306875,253.80000018986175L170.259375,253.80000018986175L172.42631250000002,244.39999700762564L173.35500000000002,244.39999700762564L173.97412500000002,244.39999700762564L174.59324999999998,244.39999700762564L176.45062499999997,244.39999700762564L176.76018749999997,244.39999700762564L177.06975,244.39999700762564L178.6175625,235.00000237463973L180.78449999999998,235.00000237463973L181.09406249999998,235.00000237463973L181.40362499999998,235.00000237463973L182.641875,235.00000237463973L182.9514375,235.00000237463973L183.261,235.00000237463973L185.42793749999998,225.59999919240363L186.35662499999998,225.59999919240363L186.6661875,225.59999919240363L186.97575,225.59999919240363L187.2853125,225.59999919240363L187.9044375,225.59999919240363L189.1426875,225.59999919240363L189.7618125,225.59999919240363L190.3809375,225.59999919240363L191.6191875,216.19999601016752L191.92875,216.19999601016752L192.2383125,216.19999601016752L193.167,216.19999601016752L194.7148125,216.19999601016752L197.8104375,206.80000137718162L199.35825,206.80000137718162L199.6678125,206.80000137718162L199.977375,206.80000137718162L203.692125,206.80000137718162L204.0016875,197.3999981949455L204.31125,197.3999981949455L207.7164375,197.3999981949455L208.645125,197.3999981949455L209.26425,197.3999981949455L209.883375,197.3999981949455L211.12162500000002,188.0000035619596L212.05031250000002,188.0000035619596L212.97899999999998,188.0000035619596L213.59812499999998,188.0000035619596L215.14593749999997,188.0000035619596L215.7650625,188.0000035619596L216.074625,188.0000035619596L218.55112499999998,178.6000003797235L219.17024999999998,178.6000003797235L220.4085,178.6000003797235L221.64675,178.6000003797235L222.265875,178.6000003797235L222.5754375,178.6000003797235L223.504125,169.1999971974874L228.1475625,169.1999971974874L228.457125,169.1999971974874L230.0049375,159.7999940152513L230.6240625,159.7999940152513L230.933625,159.7999940152513L232.791,159.7999940152513L233.410125,159.7999940152513L234.64837500000002,159.7999940152513L235.886625,159.7999940152513L236.1961875,150.40000793151557L236.50575,150.40000793151557L236.8153125,150.40000793151557L237.124875,150.40000793151557L237.4344375,150.40000793151557L240.839625,150.40000793151557L243.316125,141.00000474927947L244.55437500000002,141.00000474927947L245.17350000000002,141.00000474927947L245.79262500000002,141.00000474927947L246.7213125,141.00000474927947L248.269125,141.00000474927947L248.88825000000003,131.60000156704336L250.43606250000002,131.60000156704336L251.98387499999998,131.60000156704336L252.29343749999998,131.60000156704336L254.15081249999997,131.60000156704336L254.460375,131.60000156704336L255.698625,122.19999838480726L256.936875,122.19999838480726L258.4846875,122.19999838480726L258.79425,122.19999838480726L259.1038125,122.19999838480726L259.7229375,122.19999838480726L260.9611875,122.19999838480726L261.27074999999996,122.19999838480726L261.889875,112.79999520257115L263.128125,112.79999520257115L263.74725,112.79999520257115L264.9855,112.79999520257115L266.5333125,112.79999520257115L267.7715625,112.79999520257115L268.081125,103.39999202033505L268.70025,103.39999202033505L269.319375,103.39999202033505L270.557625,103.39999202033505L270.8671875,103.39999202033505L272.415,103.39999202033505L272.7245625,103.39999202033505L274.5819375,94.00000593659934L275.2010625,94.00000593659934L276.748875,94.00000593659934L277.987125,94.00000593659934L281.3923125,84.60000275436319L281.70187500000003,84.60000275436319L282.0114375,84.60000275436319L282.321,84.60000275436319L282.6305625,84.60000275436319L282.940125,84.60000275436319L283.8688125,84.60000275436319L284.178375,84.60000275436319L284.4879375,84.60000275436319L288.8218125,75.19999957212708L289.131375,75.19999957212708L289.75050000000005,75.19999957212708L290.0600625,75.19999957212708L290.369625,75.19999957212708L290.98875,75.19999957212708L291.607875,75.19999957212708L292.227,75.19999957212708L292.846125,75.19999957212708L294.08437499999997,65.79999638989098L294.70349999999996,65.79999638989098L295.6321875,65.79999638989098L295.94175,65.79999638989098L297.799125,65.79999638989098L298.41825,65.79999638989098L299.6565,65.79999638989098L300.5851875,56.39999320765487L301.2043125,56.39999320765487L304.60949999999997,56.39999320765487L304.9190625,56.39999320765487L305.84775,56.39999320765487L306.466875,47.00000712391916L306.7764375,47.00000712391916L307.705125,47.00000712391916L308.32425,47.00000712391916L309.87206249999997,47.00000712391916L310.181625,47.00000712391916L311.72943749999996,47.00000712391916L313.27725,47.00000712391916L313.58681249999995,47.00000712391916L314.20593749999995,47.00000712391916L316.0633125,47.00000712391916L316.372875,47.00000712391916L317.3015625,47.00000712391916L317.9206875,47.00000712391916L318.23025,47.00000712391916L319.4685,47.00000712391916L320.70675,47.00000712391916L321.63543749999997,47.00000712391916L322.25456249999996,47.00000712391916L322.564125,47.00000712391916L322.87368749999996,47.00000712391916L324.42150000000004,47.00000712391916L325.04062500000003,47.00000712391916L326.278875,47.00000712391916L327.2075625,47.00000712391916L327.8266875,47.00000712391916L329.993625,47.00000712391916L330.9223125,47.00000712391916L332.470125,47.00000712391916L332.77968749999997,47.00000712391916L334.01793749999996,47.00000712391916L335.2561875,47.00000712391916L337.7326875,47.00000712391916L338.3518125,47.00000712391916L338.9709375,47.00000712391916L339.2805,47.00000712391916L339.899625,47.00000712391916L340.8283125,47.00000712391916L343.30481249999997,47.00000712391916L344.85262500000005,47.00000712391916L345.47175000000004,47.00000712391916L346.4004375,47.00000712391916L346.71000000000004,47.00000712391916L347.32912500000003,47.00000712391916L347.94825000000003,47.00000712391916L348.2578125,47.00000712391916L348.8769375,47.00000712391916L349.18649999999997,47.00000712391916L349.80562499999996,47.00000712391916L350.1151875,47.00000712391916L350.42474999999996,47.00000712391916L351.9725625,47.00000712391916L353.21081250000003,47.00000712391916L353.8299375,47.00000712391916L357.5446875,47.00000712391916L358.1638125,47.00000712391916L360.0211875,47.00000712391916L360.33074999999997,47.00000712391916L361.56899999999996,47.00000712391916L362.49768750000004,47.00000712391916L363.426375,47.00000712391916L363.73593750000003,47.00000712391916L364.35506250000003,47.00000712391916L364.664625,47.00000712391916L364.9741875,47.00000712391916L365.5933125,47.00000712391916L367.4506875,47.00000712391916L372.40368750000005,47.00000712391916L372.71324999999996,47.00000712391916L373.02281250000004,47.00000712391916L373.332375,47.00000712391916L374.26106250000004,47.00000712391916L376.7375625,47.00000712391916L377.047125,47.00000712391916L379.8331875,47.00000712391916L381.0714375,47.00000712391916L381.381,47.00000712391916L382.00012499999997,47.00000712391916L382.30968750000005,47.00000712391916L383.238375,47.00000712391916L383.54793750000005,47.00000712391916L384.476625,47.00000712391916L385.09575,47.00000712391916L386.953125,47.00000712391916L388.8105,47.00000712391916L389.73918749999996,47.00000712391916L390.35831249999995,47.00000712391916L391.59656249999995,47.00000712391916L392.8348125,47.00000712391916L393.144375,47.00000712391916L397.1686875,47.00000712391916L397.7878125,47.00000712391916L399.02606249999997,47.00000712391916L399.64518749999996,47.00000712391916L400.573875,47.00000712391916L401.19300000000004,47.00000712391916L401.50256249999995,47.00000712391916L402.43125000000003,47.00000712391916L402.7408125,47.00000712391916L404.288625,47.00000712391916L404.5981875,47.00000712391916L405.2173125,47.00000712391916L405.526875,47.00000712391916L407.6938125,47.00000712391916L408.003375,47.00000712391916L408.6225,47.00000712391916L410.78943749999996,47.00000712391916L411.40856249999996,47.00000712391916L411.71812500000004,47.00000712391916L412.0276875,47.00000712391916L414.19462500000003,47.00000712391916L415.1233125,47.00000712391916L416.052,47.00000712391916L417.29025,47.00000712391916L418.2189375,47.00000712391916L419.147625,47.00000712391916L420.69543749999997,47.00000712391916L421.62412500000005,47.00000712391916L422.24325000000005,47.00000712391916L422.86237500000004,47.00000712391916L423.1719375,47.00000712391916L426.2675625,47.00000712391916L426.57712499999997,47.00000712391916L427.5058125,47.00000712391916L428.7440625,47.00000712391916L429.9823125,47.00000712391916L430.60143750000003,47.00000712391916L431.2205625,47.00000712391916L431.8396875,47.00000712391916L432.768375,47.00000712391916L433.6970625,47.00000712391916L434.006625,47.00000712391916L434.3161875,47.00000712391916L434.9353125,47.00000712391916L436.483125,47.00000712391916L437.10224999999997,47.00000712391916L437.72137499999997,47.00000712391916L439.88831250000004,47.00000712391916L441.12656250000003,47.00000712391916L441.74568750000003,47.00000712391916L443.912625,47.00000712391916L444.2221875,47.00000712391916L444.53175,47.00000712391916L446.389125,47.00000712391916L447.3178125,47.00000712391916L450.41343750000004,47.00000712391916L451.03256250000004,47.00000712391916L451.65168750000004,47.00000712391916L452.27081250000003,47.00000712391916L453.818625,47.00000712391916L454.43775,47.00000712391916L454.7473125,47.00000712391916L455.056875,47.00000712391916L455.3664375,47.00000712391916L455.676,47.00000712391916L456.91425,47.00000712391916L457.8429375,47.00000712391916L459.39074999999997,47.00000712391916L459.70031250000005,47.00000712391916L460.009875,47.00000712391916L461.248125,47.00000712391916L463.41506250000003,47.00000712391916L464.65331249999997,47.00000712391916L464.962875,47.00000712391916L465.27243749999997,47.00000712391916L466.201125,47.00000712391916L466.82025,47.00000712391916L467.439375,47.00000712391916L467.74893749999995,47.00000712391916L468.36806249999995,47.00000712391916L470.535,47.00000712391916L470.8445625,47.00000712391916L471.77325,47.00000712391916L472.0828125,47.00000712391916L472.7019375,47.00000712391916L473.0115,47.00000712391916L473.9401875,47.00000712391916L474.5593125,47.00000712391916L476.107125,47.00000712391916L478.27406249999996,47.00000712391916L479.5123125,47.00000712391916L479.82187500000003,47.00000712391916L480.1314375,47.00000712391916L483.2270625,47.00000712391916L483.8461875,47.00000712391916L484.774875,47.00000712391916L486.94181249999997,47.00000712391916L487.56093749999997,47.00000712391916L487.8705,47.00000712391916L488.18006249999996,47.00000712391916L489.4183125,47.00000712391916L490.0374375,47.00000712391916L491.58525000000003,47.00000712391916L492.8235,47.00000712391916L493.1330625,47.00000712391916L494.06175,47.00000712391916L496.2286875,47.00000712391916L496.53825,47.00000712391916L496.8478125,47.00000712391916L499.01475000000005,47.00000712391916L500.25300000000004,47.00000712391916L501.8008125,47.00000712391916L502.4199375,47.00000712391916L503.6581875,47.00000712391916L504.58687499999996,47.00000712391916L508.30162499999994,47.00000712391916L508.92075,47.00000712391916L509.8494375,47.00000712391916L510.159,47.00000712391916L510.4685625,47.00000712391916L510.778125,47.00000712391916L511.39725,47.00000712391916L512.0163749999999,47.00000712391916L512.3259375,47.00000712391916L513.2546249999999,47.00000712391916L513.5641875,47.00000712391916L515.4215625,47.00000712391916L516.6598125,47.00000712391916L518.207625,47.00000712391916L518.5171875,47.00000712391916L518.82675,47.00000712391916L520.0649999999999,47.00000712391916L520.9936875,47.00000712391916L522.5414999999999,47.00000712391916L523.4701875000001,47.00000712391916L525.018,47.00000712391916L525.3275625,47.00000712391916L526.25625,47.00000712391916L527.4945,47.00000712391916L528.73275,47.00000712391916L530.2805625,47.00000712391916L531.8283749999999,47.00000712391916L532.4475,47.00000712391916L533.3761875,47.00000712391916L533.68575,47.00000712391916L536.4718125,47.00000712391916L539.5674375,47.00000712391916L540.496125,47.00000712391916L542.3535,47.00000712391916L544.210875,47.00000712391916L545.449125,47.00000712391916L545.7586875,47.00000712391916L546.06825,47.00000712391916L546.687375,47.00000712391916L548.8543125,47.00000712391916L549.163875,47.00000712391916L550.402125,47.00000712391916L552.2595,47.00000712391916L553.49775,47.00000712391916L554.4264375,47.00000712391916L555.6646875,47.00000712391916L561.8559375,47.00000712391916L563.0941875,47.00000712391916L566.1898125,47.00000712391916L567.737625,47.00000712391916L568.35675,47.00000712391916L568.6663125,47.00000712391916L568.975875,47.00000712391916L569.2854375,47.00000712391916L571.7619375,47.00000712391916L572.3810625,47.00000712391916L573.6193125,47.00000712391916L574.2384375,47.00000712391916L574.548,47.00000712391916L575.167125,47.00000712391916L575.4766875,47.00000712391916L579.1914375,47.00000712391916L579.5010000000001,47.00000712391916L580.120125,47.00000712391916L582.2870625,47.00000712391916L583.5253125,47.00000712391916L584.454,47.00000712391916L585.69225,47.00000712391916L586.9304999999999,47.00000712391916L587.2400625,47.00000712391916L588.1687499999999,47.00000712391916L590.3356875000001,47.00000712391916L590.6452499999999,47.00000712391916L590.9548125,47.00000712391916L591.5739375,47.00000712391916L592.502625,47.00000712391916L596.217375,47.00000712391916L598.07475,47.00000712391916L599.0034375,47.00000712391916L599.313,47.00000712391916L600.2416875,47.00000712391916L602.408625,47.00000712391916L603.3373125,47.00000712391916L603.646875,47.00000712391916L606.7425,47.00000712391916L607.6711875,47.00000712391916L607.98075,47.00000712391916L608.599875,47.00000712391916L609.5285625,47.00000712391916L609.838125,47.00000712391916L610.1476875000001,47.00000712391916L611.076375,47.00000712391916L612.314625,47.00000712391916L613.8624375,47.00000712391916L616.9580625,47.00000712391916L617.267625,47.00000712391916L617.5771875,47.00000712391916L618.8154375,47.00000712391916L619.125,47.00000712391916L619.4345625,47.00000712391916L621.9110625,47.00000712391916L626.8640624999999,47.00000712391916L628.1023124999999,47.00000712391916L629.3405624999999,47.00000712391916L629.9596875000001,47.00000712391916L630.888375,47.00000712391916L631.1979375000001,47.00000712391916L632.74575,47.00000712391916L633.0553125,47.00000712391916L634.2935625,47.00000712391916L635.22225,47.00000712391916L635.841375,47.00000712391916L637.69875,47.00000712391916L638.937,47.00000712391916L640.17525,47.00000712391916L641.4135,47.00000712391916L642.3421875,47.00000712391916L642.9613125,47.00000712391916L644.8186875,47.00000712391916L645.12825,47.00000712391916L645.4378125,47.00000712391916L645.7473749999999,47.00000712391916L647.2951875000001,47.00000712391916L647.6047500000001,47.00000712391916L647.9143124999999,47.00000712391916L650.0812500000001,47.00000712391916L650.700375,47.00000712391916L651.6290625,47.00000712391916L652.2481875000001,47.00000712391916L652.55775,47.00000712391916L652.8673125,47.00000712391916L653.176875,47.00000712391916L655.03425,47.00000712391916L656.2725,47.00000712391916L656.5820625,47.00000712391916L657.2011875000001,47.00000712391916L658.749,47.00000712391916L661.2255,47.00000712391916L661.5350625,47.00000712391916L662.7733125,47.00000712391916L663.3924374999999,47.00000712391916L664.94025,47.00000712391916L665.8689374999999,47.00000712391916L666.1785,47.00000712391916L669.5836875,47.00000712391916L672.6793125,47.00000712391916L673.2984375,47.00000712391916L674.227125,47.00000712391916L675.465375,47.00000712391916L675.7749375,47.00000712391916L676.0845,47.00000712391916L677.0131875,47.00000712391916L677.941875,47.00000712391916L679.180125,47.00000712391916L680.418375,47.00000712391916L680.9755875000001,47.00000712391916L685.9905000000001,47.00000712391916L687.2287500000001,56.39999320765487L688.1574375,56.39999320765487L688.4670000000001,56.39999320765487L689.086125,56.39999320765487L689.3956875,56.39999320765487L690.0148125000001,56.39999320765487L691.2530625,56.39999320765487L691.8721875,56.39999320765487L694.6582500000001,56.39999320765487L695.8965000000001,56.39999320765487L698.6825625,56.39999320765487L700.230375,56.39999320765487L700.5399375,56.39999320765487L700.8494999999999,56.39999320765487L703.0164374999999,56.39999320765487L704.8738125,56.39999320765487L705.8024999999999,56.39999320765487L706.7311874999999,56.39999320765487L707.3503125000001,56.39999320765487L709.51725,56.39999320765487L710.7555,56.39999320765487L711.6841875,56.39999320765487L713.5415625,56.39999320765487L713.851125,56.39999320765487L714.1606875,56.39999320765487L715.089375,56.39999320765487L716.6371875,56.39999320765487L718.4945625,56.39999320765487L718.804125,56.39999320765487L721.8997499999999,56.39999320765487L722.2093125,56.39999320765487L723.4475625,56.39999320765487L723.757125,56.39999320765487L724.0666875,56.39999320765487L724.9953750000001,56.39999320765487L725.6144999999999,56.39999320765487L726.5431875,56.39999320765487L727.4718750000001,56.39999320765487L728.4005625000001,56.39999320765487L729.6388125000001,56.39999320765487L729.948375,56.39999320765487L730.5675,56.39999320765487L730.8770625000001,56.39999320765487L731.4961875,56.39999320765487L731.80575,56.39999320765487L734.901375,56.39999320765487L735.5205,56.39999320765487L736.139625,56.39999320765487L737.997,56.39999320765487L738.3065624999999,56.39999320765487L739.23525,56.39999320765487L747.2838750000001,56.39999320765487L748.5221250000001,56.39999320765487L750.0699375,56.39999320765487L750.6890625,56.39999320765487L751.61775,56.39999320765487L752.856,56.39999320765487L753.1655625,56.39999320765487L754.4038125,56.39999320765487L755.3325,56.39999320765487L756.57075,56.39999320765487L758.7376875,56.39999320765487L759.04725,56.39999320765487L759.3568124999999,56.39999320765487L762.762,56.39999320765487L763.0715624999999,56.39999320765487L763.6906875000001,56.39999320765487L764.9289375000001,56.39999320765487L766.47675,56.39999320765487L768.6436875,56.39999320765487L768.95325,56.39999320765487L769.5723750000001,56.39999320765487L770.1915,56.39999320765487L771.42975,56.39999320765487L772.0488750000001,56.39999320765487L772.3584375,56.39999320765487L772.9775625,56.39999320765487L773.90625,56.39999320765487L774.5253749999999,56.39999320765487L775.7636249999999,56.39999320765487L776.0731875,56.39999320765487L777.3114375,56.39999320765487L777.621,56.39999320765487L778.85925,56.39999320765487L779.1688125,56.39999320765487L780.0975,56.39999320765487L780.4070624999999,56.39999320765487L781.33575,56.39999320765487L784.1218124999999,56.39999320765487L785.0505,56.39999320765487L788.146125,56.39999320765487L791.24175,56.39999320765487L792.1704375,56.39999320765487L794.337375,56.39999320765487L796.5043125,56.39999320765487L799.9095,56.39999320765487L800.5286249999999,56.39999320765487L802.0764375000001,56.39999320765487L803.6242500000001,56.39999320765487L804.243375,56.39999320765487L804.8625000000001,56.39999320765487L806.719875,56.39999320765487L807.339,56.39999320765487L807.6485625,56.39999320765487L808.2676875000001,56.39999320765487L808.57725,56.39999320765487L810.434625,56.39999320765487L811.672875,56.39999320765487L815.0780625,56.39999320765487L816.00675,56.39999320765487L816.9354374999999,56.39999320765487L817.5545625,56.39999320765487L821.5788749999999,56.39999320765487L823.7458125,56.39999320765487L824.6745000000001,56.39999320765487L827.4605625,56.39999320765487L828.6988125,56.39999320765487L829.008375,56.39999320765487L832.4135625,56.39999320765487L834.8900625,56.39999320765487L836.437875,56.39999320765487L836.7474374999999,56.39999320765487L838.29525,56.39999320765487L839.8430625,56.39999320765487L840.7717500000001,56.39999320765487L842.3195625000001,56.39999320765487L844.7960625000001,56.39999320765487L845.7247500000001,56.39999320765487L847.2725625,56.39999320765487L847.8916875,56.39999320765487L848.2012500000001,56.39999320765487L848.5108125,56.39999320765487L849.1299375,56.39999320765487L850.9873125,56.39999320765487L852.535125,56.39999320765487L853.1542499999999,56.39999320765487L856.8689999999999,56.39999320765487L857.488125,56.39999320765487L859.0359374999999,56.39999320765487L860.8933125000001,56.39999320765487L862.441125,56.39999320765487L863.06025,56.39999320765487L863.679375,56.39999320765487L863.9889375,56.39999320765487L864.917625,56.39999320765487L865.2271875,56.39999320765487L869.2515,56.39999320765487L870.1801875,56.39999320765487L874.2044999999999,56.39999320765487L875.1331875,56.39999320765487L876.3714375,56.39999320765487L876.6809999999999,56.39999320765487L877.6096875,56.39999320765487L878.2288125,56.39999320765487L878.538375,56.39999320765487L882.2531250000001,56.39999320765487L884.729625,56.39999320765487L885.34875,56.39999320765487L885.6583125000001,56.39999320765487L886.8965625000001,56.39999320765487L888.1348125000001,56.39999320765487L888.7539375,56.39999320765487L889.3730625000001,56.39999320765487L891.54,56.39999320765487L891.8495624999999,56.39999320765487L893.0878124999999,56.39999320765487L894.3260624999999,56.39999320765487L895.873875,56.39999320765487L896.4929999999999,56.39999320765487L897.4216875,56.39999320765487L898.0408124999999,56.39999320765487L898.350375,56.39999320765487L898.9694999999999,56.39999320765487L899.5886250000001,56.39999320765487L900.5173124999999,56.39999320765487L901.7555625,56.39999320765487L902.0651250000001,56.39999320765487L902.3746875,56.39999320765487L902.9938125,56.39999320765487L903.6129375,56.39999320765487L905.16075,56.39999320765487L905.7798750000001,56.39999320765487L906.0894375,56.39999320765487L908.256375,56.39999320765487L908.8755,56.39999320765487L909.8041875,56.39999320765487L916.6145624999999,56.39999320765487L916.924125,56.39999320765487L917.54325,56.39999320765487L919.7101875000001,56.39999320765487L920.3293125,56.39999320765487L920.6388750000001,56.39999320765487L922.1866875000001,56.39999320765487L922.49625,56.39999320765487L922.8058125,56.39999320765487L923.7345,56.39999320765487L924.0440625,56.39999320765487L924.97275,56.39999320765487L926.8301250000001,56.39999320765487L927.1396875,56.39999320765487L927.7588125,56.39999320765487L928.3779375,56.39999320765487L928.9970625,56.39999320765487L929.3066249999999,56.39999320765487L932.7118125,56.39999320765487L933.0213749999999,56.39999320765487L933.3309375,56.39999320765487L935.8074375,56.39999320765487L936.117,56.39999320765487L937.6648124999999,56.39999320765487L937.9743749999999,56.39999320765487L938.2839375000001,56.39999320765487L938.5935000000001,56.39999320765487L939.2126249999999,56.39999320765487L939.5221875000001,56.39999320765487L939.83175,56.39999320765487L940.7604375000001,56.39999320765487L944.165625,56.39999320765487L946.023,56.39999320765487L946.642125,56.39999320765487L949.118625,56.39999320765487L949.4281875,56.39999320765487L949.73775,56.39999320765487L950.356875,56.39999320765487L952.5238125,56.39999320765487L953.4525,56.39999320765487L954.0716249999999,56.39999320765487L955.0003125,56.39999320765487L955.6194375,56.39999320765487L956.2385625,56.39999320765487L959.024625,56.39999320765487L960.262875,56.39999320765487L960.8820000000001,56.39999320765487L961.501125,56.39999320765487L962.12025,56.39999320765487L962.4298125,56.39999320765487L963.6680625,56.39999320765487L963.977625,56.39999320765487L964.2871875000001,56.39999320765487L965.835,56.39999320765487L966.1445625,56.39999320765487L967.3828125,56.39999320765487L967.692375,56.39999320765487L968.930625,56.39999320765487L970.4784374999999,56.39999320765487L970.788,56.39999320765487L971.0975625,56.39999320765487L971.407125,56.39999320765487L972.02625,56.39999320765487L972.3358125,56.39999320765487L974.8123125,56.39999320765487L975.1218749999999,56.39999320765487L975.4314374999999,56.39999320765487L976.9792500000001,56.39999320765487L977.2888125000001,56.39999320765487L978.5270625,56.39999320765487L979.4557500000001,56.39999320765487L980.3844375,56.39999320765487L981.0035625,56.39999320765487L981.6226875,56.39999320765487L982.2418125,56.39999320765487L982.551375,56.39999320765487L982.8609375,56.39999320765487L984.40875,56.39999320765487L984.7183125,56.39999320765487L988.4330625,56.39999320765487L989.0521875,56.39999320765487L991.219125,56.39999320765487L993.0765,56.39999320765487L993.3860625,56.39999320765487L996.7912500000001,56.39999320765487L997.1008125000001,56.39999320765487L999.886875,56.39999320765487L1000.5060000000001,56.39999320765487L1001.125125,56.39999320765487L1002.0538125,56.39999320765487L1002.6729375,56.39999320765487L1002.9825000000001,56.39999320765487L1003.9111875,56.39999320765487L1005.1494375,56.39999320765487L1005.4590000000001,56.39999320765487L1007.0068125,56.39999320765487L1007.6259375,56.39999320765487L1008.2450625,56.39999320765487L1008.554625,56.39999320765487L1009.792875,56.39999320765487L1010.4119999999999,56.39999320765487L1011.3406875,56.39999320765487L1013.8171874999999,56.39999320765487L1014.4363125,56.39999320765487L1014.745875,56.39999320765487L1015.3649999999999,56.39999320765487L1016.9128125000001,56.39999320765487L1017.5319375,56.39999320765487L1018.1510625000001,56.39999320765487L1018.7701875,56.39999320765487L1021.2466875,56.39999320765487L1023.7231875,56.39999320765487L1024.0327499999999,56.39999320765487L1024.651875,56.39999320765487L1024.9614374999999,56.39999320765487L1025.8901250000001,56.39999320765487L1026.5092499999998,56.39999320765487L1026.8188125000001,56.39999320765487L1027.7475,56.39999320765487L1029.604875,56.39999320765487L1030.843125,56.39999320765487L1031.1526875,56.39999320765487L1035.4865625,56.39999320765487L1036.41525,56.39999320765487L1037.3439375,56.39999320765487L1038.272625,56.39999320765487L1039.510875,56.39999320765487L1040.4395625,56.39999320765487L1040.749125,56.39999320765487L1041.0586875,56.39999320765487L1042.9160625000002,56.39999320765487L1044.4638750000001,56.39999320765487L1044.7734375,56.39999320765487L1045.0829999999999,56.39999320765487L1046.32125,56.39999320765487L1046.9403750000001,56.39999320765487L1047.2499375,56.39999320765487L1049.1073125,56.39999320765487L1050.036,56.39999320765487L1050.655125,56.39999320765487L1050.9646875,56.39999320765487L1051.5838125,56.39999320765487L1051.893375,56.39999320765487L1052.4505875,56.39999320765487L1053.131625,56.39999320765487L1054.0603125,56.39999320765487L1056.5368125,56.39999320765487L1056.846375,56.39999320765487L1058.3941875,56.39999320765487L1059.6324375,56.39999320765487L1059.942,56.39999320765487L1061.4898125,56.39999320765487L1065.2045624999998,56.39999320765487L1065.5141250000001,56.39999320765487L1065.8236875,56.39999320765487L1066.13325,56.39999320765487L1066.4428125,56.39999320765487L1069.228875,56.39999320765487L1071.3958125,56.39999320765487L1072.3245,56.39999320765487L1073.8723125,56.39999320765487L1074.801,56.39999320765487L1076.3488125,56.39999320765487L1076.658375,56.39999320765487L1076.9679375,56.39999320765487L1077.2775,56.39999320765487L1078.8253124999999,56.39999320765487L1080.0635625,56.39999320765487L1080.6826875,56.39999320765487L1081.6113750000002,56.39999320765487L1082.849625,56.39999320765487L1083.1591875000001,56.39999320765487L1083.46875,56.39999320765487L1084.087875,56.39999320765487L1085.3261249999998,56.39999320765487L1085.6356875000001,56.39999320765487L1086.2548125,56.39999320765487L1086.564375,56.39999320765487L1087.802625,56.39999320765487L1088.1121875000001,56.39999320765487L1088.42175,56.39999320765487L1089.9695625,56.39999320765487L1090.5886875,56.39999320765487L1093.6843125,56.39999320765487L1093.993875,56.39999320765487L1095.232125,56.39999320765487L1095.85125,56.39999320765487L1097.3990625,56.39999320765487L1098.0181875,56.39999320765487L1098.9468749999999,56.39999320765487L1099.566,56.39999320765487L1102.661625,56.39999320765487L1103.5903125,56.39999320765487L1104.519,56.39999320765487L1106.0668125,56.39999320765487L1106.9955,56.39999320765487L1108.852875,65.79999638989098L1109.7815625,65.79999638989098L1110.4006875,65.79999638989098L1111.9485,65.79999638989098L1112.567625,65.79999638989098L1113.805875,65.79999638989098L1114.1154375,65.79999638989098L1116.5919375,65.79999638989098L1117.8301875,65.79999638989098L1118.13975,65.79999638989098L1119.0684375,65.79999638989098L1119.6875625,65.79999638989098L1120.3066875000002,65.79999638989098L1121.8545000000001,65.79999638989098L1123.09275,65.79999638989098L1124.3310000000001,65.79999638989098L1125.56925,65.79999638989098L1126.188375,65.79999638989098L1128.04575,65.79999638989098L1128.9744375,65.79999638989098L1131.7605,65.79999638989098L1132.379625,65.79999638989098L1132.99875,65.79999638989098L1133.9274375,65.79999638989098L1134.856125,65.79999638989098L1135.7848125,65.79999638989098L1136.094375,65.79999638989098L1137.6421874999999,65.79999638989098L1140.1186874999999,65.79999638989098L1141.9760625000001,65.79999638989098L1142.9047500000001,65.79999638989098L1143.2143125,65.79999638989098L1145.6908125,65.79999638989098L1148.1673125,65.79999638989098L1150.953375,65.79999638989098L1152.191625,65.79999638989098L1154.3585625,65.79999638989098L1156.2159374999999,65.79999638989098L1156.8350625,65.79999638989098L1157.76375,65.79999638989098L1158.382875,65.79999638989098L1160.24025,65.79999638989098L1160.859375,65.79999638989098L1161.1689374999999,65.79999638989098L1163.0263125000001,65.79999638989098L1163.6454375,65.79999638989098L1163.955,65.79999638989098L1164.2645625,65.79999638989098L1165.5028125000001,65.79999638989098L1165.812375,65.79999638989098L1166.1219375,65.79999638989098L1166.7410625,65.79999638989098L1167.66975,65.79999638989098L1168.288875,65.79999638989098L1169.8366875,65.79999638989098L1170.14625,65.79999638989098L1171.0749375,65.79999638989098L1172.62275,65.79999638989098L1172.9323125,65.79999638989098L1173.5514375,65.79999638989098L1173.8609999999999,65.79999638989098L1175.4088125,65.79999638989098L1176.0279375,65.79999638989098L1176.956625,65.79999638989098L1177.2661875,65.79999638989098L1177.57575,65.79999638989098L1178.5044375,65.79999638989098L1179.433125,65.79999638989098L1180.3618125,65.79999638989098L1181.6000625000001,65.79999638989098L1182.8383125,65.79999638989098L1183.4574375,65.79999638989098L1185.00525,65.79999638989098L1185.3148125,65.79999638989098L1185.9339375,65.79999638989098L1186.862625,65.79999638989098L1187.48175,65.79999638989098" style="fill: none;" fill="none"></path></g></g></g></g></g></g><g transform="translate(64, 376)" clip-path="url(#clip_1)"><clipPath id="clip_1"><rect width="1238" height="24"></rect></clipPath><g><g><line x1="0" y1="0" x2="0" y2="5" style="visibility: inherit;" fill="rgb(0, 0, 0)" stroke="rgb(204, 204, 204)" stroke-width="1px"></line><line x1="123.825" y1="0" x2="123.825" y2="5" style="visibility: inherit;" fill="rgb(0, 0, 0)" stroke="rgb(204, 204, 204)" stroke-width="1px"></line><line x1="247.65" y1="0" x2="247.65" y2="5" style="visibility: inherit;" fill="rgb(0, 0, 0)" stroke="rgb(204, 204, 204)" stroke-width="1px"></line><line x1="371.47499999999997" y1="0" x2="371.47499999999997" y2="5" style="visibility: inherit;" fill="rgb(0, 0, 0)" stroke="rgb(204, 204, 204)" stroke-width="1px"></line><line x1="495.3" y1="0" x2="495.3" y2="5" style="visibility: inherit;" fill="rgb(0, 0, 0)" stroke="rgb(204, 204, 204)" stroke-width="1px"></line><line x1="619.125" y1="0" x2="619.125" y2="5" style="visibility: inherit;" fill="rgb(0, 0, 0)" stroke="rgb(204, 204, 204)" stroke-width="1px"></line><line x1="742.9499999999999" y1="0" x2="742.9499999999999" y2="5" style="visibility: inherit;" fill="rgb(0, 0, 0)" stroke="rgb(204, 204, 204)" stroke-width="1px"></line><line x1="866.775" y1="0" x2="866.775" y2="5" style="visibility: inherit;" fill="rgb(0, 0, 0)" stroke="rgb(204, 204, 204)" stroke-width="1px"></line><line x1="990.6" y1="0" x2="990.6" y2="5" style="visibility: inherit;" fill="rgb(0, 0, 0)" stroke="rgb(204, 204, 204)" stroke-width="1px"></line><line x1="1114.425" y1="0" x2="1114.425" y2="5" style="visibility: inherit;" fill="rgb(0, 0, 0)" stroke="rgb(204, 204, 204)" stroke-width="1px"></line><line x1="1238.25" y1="0" x2="1238.25" y2="5" style="visibility: inherit;" fill="rgb(0, 0, 0)" stroke="rgb(204, 204, 204)" stroke-width="1px"></line></g><g transform="translate(0, 8)"><text x="0" y="0" dx="0em" dy="0.95em" style="text-anchor: middle; visibility: hidden; font-family: Roboto, sans-serif; font-size: 12px; font-weight: 200;" fill="rgb(255, 255, 255)" stroke="none" stroke-width="1px">-2k</text><text x="123.825" y="0" dx="0em" dy="0.95em" style="text-anchor: middle; visibility: inherit; font-family: Roboto, sans-serif; font-size: 12px; font-weight: 200;" fill="rgb(255, 255, 255)" stroke="none" stroke-width="1px">0</text><text x="247.65" y="0" dx="0em" dy="0.95em" style="text-anchor: middle; visibility: inherit; font-family: Roboto, sans-serif; font-size: 12px; font-weight: 200;" fill="rgb(255, 255, 255)" stroke="none" stroke-width="1px">2k</text><text x="371.47499999999997" y="0" dx="0em" dy="0.95em" style="text-anchor: middle; visibility: inherit; font-family: Roboto, sans-serif; font-size: 12px; font-weight: 200;" fill="rgb(255, 255, 255)" stroke="none" stroke-width="1px">4k</text><text x="495.3" y="0" dx="0em" dy="0.95em" style="text-anchor: middle; visibility: inherit; font-family: Roboto, sans-serif; font-size: 12px; font-weight: 200;" fill="rgb(255, 255, 255)" stroke="none" stroke-width="1px">6k</text><text x="619.125" y="0" dx="0em" dy="0.95em" style="text-anchor: middle; visibility: inherit; font-family: Roboto, sans-serif; font-size: 12px; font-weight: 200;" fill="rgb(255, 255, 255)" stroke="none" stroke-width="1px">8k</text><text x="742.9499999999999" y="0" dx="0em" dy="0.95em" style="text-anchor: middle; visibility: inherit; font-family: Roboto, sans-serif; font-size: 12px; font-weight: 200;" fill="rgb(255, 255, 255)" stroke="none" stroke-width="1px">10k</text><text x="866.775" y="0" dx="0em" dy="0.95em" style="text-anchor: middle; visibility: inherit; font-family: Roboto, sans-serif; font-size: 12px; font-weight: 200;" fill="rgb(255, 255, 255)" stroke="none" stroke-width="1px">12k</text><text x="990.6" y="0" dx="0em" dy="0.95em" style="text-anchor: middle; visibility: inherit; font-family: Roboto, sans-serif; font-size: 12px; font-weight: 200;" fill="rgb(255, 255, 255)" stroke="none" stroke-width="1px">14k</text><text x="1114.425" y="0" dx="0em" dy="0.95em" style="text-anchor: middle; visibility: inherit; font-family: Roboto, sans-serif; font-size: 12px; font-weight: 200;" fill="rgb(255, 255, 255)" stroke="none" stroke-width="1px">16k</text><text x="1238.25" y="0" dx="0em" dy="0.95em" style="text-anchor: middle; visibility: hidden; font-family: Roboto, sans-serif; font-size: 12px; font-weight: 200;" fill="rgb(255, 255, 255)" stroke="none" stroke-width="1px">18k</text></g><line x1="0" y1="0" x2="1238.25" y2="0" fill="rgb(0, 0, 0)" stroke="rgb(204, 204, 204)" stroke-width="1px"></line></g></g></g></g></svg>