<svg viewBox="0 0 1283 400" xmlns="http://www.w3.org/2000/svg"><g><g><g><g><g><line x1="51.5625" y1="366.48817514261776" x2="46.5625" y2="366.48817514261776" style="visibility: inherit;" fill="rgb(0, 0, 0)" stroke="rgb(204, 204, 204)" stroke-width="1px"></line><line x1="51.5625" y1="343.60898744842063" x2="46.5625" y2="343.60898744842063" style="visibility: inherit;" fill="rgb(0, 0, 0)" stroke="rgb(204, 204, 204)" stroke-width="1px"></line><line x1="51.5625" y1="323.1428566524263" x2="46.5625" y2="323.1428566524263" style="visibility: inherit;" fill="rgb(0, 0, 0)" stroke="rgb(204, 204, 204)" stroke-width="1px"></line><line x1="51.5625" y1="188.4999995095693" x2="46.5625" y2="188.4999995095693" style="visibility: inherit;" fill="rgb(0, 0, 0)" stroke="rgb(204, 204, 204)" stroke-width="1px"></line><line x1="51.5625" y1="109.7389770910424" x2="46.5625" y2="109.7389770910424" style="visibility: inherit;" fill="rgb(0, 0, 0)" stroke="rgb(204, 204, 204)" stroke-width="1px"></line><line x1="51.5625" y1="53.8571423667123" x2="46.5625" y2="53.8571423667123" style="visibility: inherit;" fill="rgb(0, 0, 0)" stroke="rgb(204, 204, 204)" stroke-width="1px"></line><line x1="51.5625" y1="10.511823876521234" x2="46.5625" y2="10.511823876521234" style="visibility: inherit;" fill="rgb(0, 0, 0)" stroke="rgb(204, 204, 204)" stroke-width="1px"></line></g><g transform="translate(41.5625, 0)"><text x="0" y="366.48817514261776" dx="0em" dy="0.3em" style="text-anchor: end; visibility: inherit; font-family: Roboto, sans-serif; font-size: 12px; font-weight: 200;" fill="rgb(255, 255, 255)" stroke="none" stroke-width="1px">8e-7</text><text x="0" y="343.60898744842063" dx="0em" dy="0.3em" style="text-anchor: end; visibility: hidden; font-family: Roboto, sans-serif; font-size: 12px; font-weight: 200;" fill="rgb(255, 255, 255)" stroke="none" stroke-width="1px">9e-7</text><text x="0" y="323.1428566524263" dx="0em" dy="0.3em" style="text-anchor: end; visibility: inherit; font-family: Roboto, sans-serif; font-size: 12px; font-weight: 200;" fill="rgb(255, 255, 255)" stroke="none" stroke-width="1px">1e-6</text><text x="0" y="188.4999995095693" dx="0em" dy="0.3em" style="text-anchor: end; visibility: hidden; font-family: Roboto, sans-serif; font-size: 12px; font-weight: 200;" fill="rgb(255, 255, 255)" stroke="none" stroke-width="1px">2e-6</text><text x="0" y="109.7389770910424" dx="0em" dy="0.3em" style="text-anchor: end; visibility: inherit; font-family: Roboto, sans-serif; font-size: 12px; font-weight: 200;" fill="rgb(255, 255, 255)" stroke="none" stroke-width="1px">3e-6</text><text x="0" y="53.8571423667123" dx="0em" dy="0.3em" style="text-anchor: end; visibility: hidden; font-family: Roboto, sans-serif; font-size: 12px; font-weight: 200;" fill="rgb(255, 255, 255)" stroke="none" stroke-width="1px">4e-6</text><text x="0" y="10.511823876521234" dx="0em" dy="0.3em" style="text-anchor: end; visibility: inherit; font-family: Roboto, sans-serif; font-size: 12px; font-weight: 200;" fill="rgb(255, 255, 255)" stroke="none" stroke-width="1px">5e-6</text></g><line x1="51.5625" y1="0" x2="51.5625" y2="377" fill="rgb(0, 0, 0)" stroke="rgb(204, 204, 204)" stroke-width="1px"></line></g></g><g transform="translate(51, 0)" clip-path="url(#clip_0)"><clipPath id="clip_0"><rect width="1231" height="377"></rect></clipPath><g><g><g><line x1="0" y1="0" x2="0" y2="377" fill="rgb(0, 0, 0)" stroke="rgb(189, 189, 189)" stroke-width="1px" opacity="0.25"></line><line x1="153.9296875" y1="0" x2="153.9296875" y2="377" fill="rgb(0, 0, 0)" stroke="rgb(189, 189, 189)" stroke-width="1px" opacity="0.25"></line><line x1="307.859375" y1="0" x2="307.859375" y2="377" fill="rgb(0, 0, 0)" stroke="rgb(189, 189, 189)" stroke-width="1px" opacity="0.25"></line><line x1="461.7890625" y1="0" x2="461.7890625" y2="377" fill="rgb(0, 0, 0)" stroke="rgb(189, 189, 189)" stroke-width="1px" opacity="0.25"></line><line x1="615.71875" y1="0" x2="615.71875" y2="377" fill="rgb(0, 0, 0)" stroke="rgb(189, 189, 189)" stroke-width="1px" opacity="0.25"></line><line x1="769.6484375" y1="0" x2="769.6484375" y2="377" fill="rgb(0, 0, 0)" stroke="rgb(189, 189, 189)" stroke-width="1px" opacity="0.25"></line><line x1="923.578125" y1="0" x2="923.578125" y2="377" fill="rgb(0, 0, 0)" stroke="rgb(189, 189, 189)" stroke-width="1px" opacity="0.25"></line><line x1="1077.5078125" y1="0" x2="1077.5078125" y2="377" fill="rgb(0, 0, 0)" stroke="rgb(189, 189, 189)" stroke-width="1px" opacity="0.25"></line><line x1="1231.4375" y1="0" x2="1231.4375" y2="377" fill="rgb(0, 0, 0)" stroke="rgb(189, 189, 189)" stroke-width="1px" opacity="0.25"></line></g><g><line x1="0" y1="366.48817514261776" x2="1231.4375" y2="366.48817514261776" fill="rgb(0, 0, 0)" stroke="rgb(189, 189, 189)" stroke-width="1px" opacity="0.25"></line><line x1="0" y1="343.60898744842063" x2="1231.4375" y2="343.60898744842063" fill="rgb(0, 0, 0)" stroke="rgb(189, 189, 189)" stroke-width="1px" opacity="0.25"></line><line x1="0" y1="323.1428566524263" x2="1231.4375" y2="323.1428566524263" fill="rgb(0, 0, 0)" stroke="rgb(189, 189, 189)" stroke-width="1px" opacity="0.25"></line><line x1="0" y1="188.4999995095693" x2="1231.4375" y2="188.4999995095693" fill="rgb(0, 0, 0)" stroke="rgb(189, 189, 189)" stroke-width="1px" opacity="0.25"></line><line x1="0" y1="109.7389770910424" x2="1231.4375" y2="109.7389770910424" fill="rgb(0, 0, 0)" stroke="rgb(189, 189, 189)" stroke-width="1px" opacity="0.25"></line><line x1="0" y1="53.8571423667123" x2="1231.4375" y2="53.8571423667123" fill="rgb(0, 0, 0)" stroke="rgb(189, 189, 189)" stroke-width="1px" opacity="0.25"></line><line x1="0" y1="10.511823876521234" x2="1231.4375" y2="10.511823876521234" fill="rgb(0, 0, 0)" stroke="rgb(189, 189, 189)" stroke-width="1px" opacity="0.25"></line></g></g></g><g><g><line x1="153.9296875" y1="0" x2="153.9296875" y2="377" fill="rgb(0, 0, 0)" stroke="rgb(153, 153, 153)" stroke-width="1.5px"></line></g></g><g><g><g><g><g><path stroke="rgb(204, 51, 17)" stroke-width="2px" d="M153.9296875,323.1428571428568L155.468984375,323.1428571428568L157.00828125,323.1428571428568L158.547578125,323.1428571428568L160.086875,323.1428571428568L161.626171875,323.1428571428568L163.16546875,323.1428571428568L164.70476562500002,323.1428571428568L166.2440625,323.1428571428568L167.783359375,323.1428571428568L169.32265625000002,323.1428571428568L170.861953125,323.1428571428568L172.40125,323.1428571428568L173.940546875,323.1428571428568L175.47984375,323.1428571428568L177.01914062499998,323.1428571428568L178.5584375,323.1428571428568L180.097734375,323.1428571428568L181.63703124999998,323.1428571428568L183.176328125,323.1428571428568L184.715625,323.1428571428568L186.254921875,323.1428571428568L187.79421875,323.1428571428568L189.333515625,323.1428571428568L190.8728125,323.1428571428568L192.412109375,323.1428571428568L193.95140625,323.1428571428568L195.490703125,323.1428571428568L197.03,323.1428571428568L198.569296875,323.1428571428568L200.10859375,323.1428571428568L201.647890625,323.1428571428568L203.18718750000002,323.1428571428568L204.726484375,323.1428571428568L206.26578125,323.1428571428568L207.80507812500002,323.1428571428568L209.344375,323.1428571428568L210.883671875,323.1428571428568L212.42296875,323.1428571428568L213.962265625,323.1428571428568L215.50156249999998,323.1428571428568L217.040859375,323.1428571428568L218.58015625,323.1428571428568L220.11945312499998,323.1428571428568L221.65875,323.1428571428568L223.198046875,323.1428571428568L224.73734375,323.1428571428568L226.276640625,323.1428571428568L227.8159375,323.1428571428568L229.355234375,323.1428571428568L230.89453125,323.1428571428568L232.433828125,323.1428571428568L233.973125,323.1428571428568L235.512421875,323.1428571428568L237.05171875,323.1428571428568L238.591015625,323.1428571428568L240.1303125,323.1428571428568L241.66960937500002,323.1428571428568L243.20890625,323.1428571428568L244.748203125,323.1428571428568L246.28750000000002,323.1428571428568L247.826796875,323.1428571428568L249.36609375,323.1428571428568L250.905390625,323.1428571428568L252.4446875,323.1428571428568L253.98398437499998,323.1428571428568L255.52328125,323.1428571428568L257.062578125,323.1428571428568L258.601875,323.1428571428568L260.141171875,323.1428571428568L261.68046875,323.1428571428568L263.219765625,323.1428571428568L264.75906249999997,323.1428571428568L266.298359375,323.1428571428568L267.83765625,323.1428571428568L269.376953125,323.1428571428568L270.91625,323.1428571428568L272.455546875,323.1428571428568L273.99484375000003,323.1428571428568L275.534140625,323.1428571428568L277.0734375,323.1428571428568L278.612734375,323.1428571428568L280.15203125,323.1428571428568L281.691328125,323.1428571428568L283.23062500000003,323.1428571428568L284.769921875,323.1428571428568L286.30921875,323.1428571428568L287.848515625,323.1428571428568L289.3878125,323.1428571428568L290.927109375,323.1428571428568L292.46640625,323.1428571428568L294.00570312499997,323.1428571428568L295.545,323.1428571428568L297.084296875,323.1428571428568L298.62359375,323.1428571428568L300.162890625,323.1428571428568L301.7021875,323.1428571428568L303.24148437499997,323.1428571428568L304.78078125,323.1428571428568L306.320078125,323.1428571428568L307.859375,323.1428571428568L309.398671875,323.1428571428568L310.93796875,323.1428571428568L312.477265625,323.1428571428568L314.0165625,323.1428571428568L315.55585937499995,323.1428571428568L317.09515625,323.1428571428568L318.634453125,323.1428571428568L320.17375,323.1428571428568L321.713046875,323.1428571428568L323.25234375,323.1428571428568L324.79164062499996,323.1428571428568L326.3309375,323.1428571428568L327.870234375,323.1428571428568L329.40953125000004,323.1428571428568L330.948828125,323.1428571428568L332.488125,323.1428571428568L334.027421875,323.1428571428568L335.56671875,323.1428571428568L337.106015625,323.1428571428568L338.64531250000005,323.1428571428568L340.184609375,323.1428571428568L341.72390625,323.1428571428568L343.263203125,323.1428571428568L344.8025,323.1428571428568L346.341796875,323.1428571428568L347.88109375,323.1428571428568L349.420390625,323.1428571428568L350.9596875,323.1428571428568L352.498984375,267.1639224003636L354.03828124999995,237.20655938287373L355.577578125,219.54511306116896L357.116875,208.6148506030924L358.656171875,201.66223905132256L360.19546875,197.16612475469253L361.734765625,194.22842778863784L363.27406249999996,192.29628304527495L364.813359375,191.0200549244464L366.35265625,190.17471513356656L367.89195312500004,189.613752864022L369.43125,189.24104870861873L370.970546875,188.99322387559815L372.50984375,188.82834777168438L374.049140625,188.71861787372922L375.5884375,188.64557213494658L377.12773437500005,188.59693890727752L378.66703125,188.56455593136988L380.206328125,188.54299186401386L381.745625,188.52863152311568L383.284921875,188.5190681250105L384.82421875,188.51269916307004L386.363515625,188.50845755026518L387.9028125,188.50563268752015L389.442109375,188.50375135172195L390.98140625,188.50249839218935L392.52070312499995,188.50166392562411L394.06,188.50110817288027L395.599296875,188.50073804243527L397.13859375,188.50049153594992L398.677890625,188.50032736280426L400.2171875,188.50021802356628L401.75648437499996,188.50014520366793L403.29578125,188.50009670563094L404.835078125,188.50006440594467L406.37437500000004,188.50004289435662L407.913671875,188.5000285676407L409.45296875,188.50001902604808L410.992265625,188.50001267134778L412.5315625,188.5000084391175L414.070859375,188.50000562045219L415.61015625000005,188.5000037432212L417.149453125,188.5000024929852L418.68875,188.50000166032828L420.228046875,188.50000110577867L421.76734375,188.50000073644858L423.306640625,188.50000049047452L424.8459375,188.50000032665594L426.385234375,188.50000021755312L427.92453125,188.5000001448904L429.463828125,188.50000009649682L431.00312499999995,188.50000006426697L432.542421875,188.5000000428018L434.08171875,188.50000002850584L435.621015625,188.5000000189851L437.1603125,188.50000001264402L438.699609375,188.5000000084209L440.23890624999996,188.50000000560837L441.778203125,188.50000000373504L443.3175,188.50000000248767L444.85679687500004,188.50000000165682L446.39609375,188.5000000011033L447.935390625,188.50000000073481L449.4746875,188.50000000048945L451.013984375,188.50000000032588L452.55328125,188.50000000021723L454.09257812500005,188.5000000001444L455.631875,188.5000000000961L457.171171875,188.50000000006403L458.71046875,188.5000000000426L460.249765625,188.50000000002845L461.7890625,188.50000000001884L463.328359375,188.5000000000126L464.86765625,188.50000000000844L466.406953125,188.50000000000568L467.94625,188.5000000000036L469.48554687499995,188.5000000000026L471.02484375,188.50000000000153L472.564140625,188.50000000000122L474.1034375,188.5000000000005L475.642734375,188.5000000000005L477.18203125,188.50000000000017L478.72132812499996,188.50000000000017L480.260625,188.50000000000017L481.799921875,188.50000000000017L483.33921875000004,188.49999999999983L484.878515625,188.49999999999983L486.4178125,188.49999999999983L487.957109375,188.49999999999983L489.49640625,188.49999999999983L491.035703125,188.49999999999983L492.57500000000005,188.49999999999983L494.114296875,188.49999999999983L495.65359375,188.49999999999983L497.192890625,188.49999999999983L498.7321875,188.49999999999983L500.271484375,188.49999999999983L501.81078125,188.49999999999983L503.350078125,188.49999999999983L504.889375,188.49999999999983L506.428671875,188.49999999999983L507.96796874999995,188.49999999999983L509.507265625,188.49999999999983L511.0465625,188.49999999999983L512.585859375,188.49999999999983L514.12515625,188.49999999999983L515.664453125,188.49999999999983L517.20375,188.49999999999983L518.743046875,188.49999999999983L520.28234375,188.49999999999983L521.821640625,188.49999999999983L523.3609375,188.49999999999983L524.900234375,188.49999999999983L526.43953125,188.49999999999983L527.9788281250001,188.49999999999983L529.5181249999999,188.49999999999983L531.057421875,188.49999999999983L532.59671875,188.49999999999983L534.136015625,188.49999999999983L535.6753125,188.49999999999983L537.214609375,188.49999999999983L538.75390625,188.49999999999983L540.293203125,188.49999999999983L541.8325,188.49999999999983L543.371796875,188.49999999999983L544.91109375,188.49999999999983L546.450390625,188.49999999999983L547.9896875000001,188.49999999999983L549.5289843749999,188.49999999999983L551.06828125,188.49999999999983L552.607578125,188.49999999999983L554.146875,188.49999999999983L555.686171875,188.49999999999983L557.22546875,188.49999999999983L558.764765625,188.49999999999983L560.3040625,188.49999999999983L561.843359375,188.49999999999983L563.38265625,188.49999999999983L564.921953125,188.49999999999983L566.4612500000001,188.49999999999983L568.0005468749999,188.49999999999983L569.53984375,188.49999999999983L571.079140625,188.49999999999983L572.6184375,188.49999999999983L574.157734375,188.49999999999983L575.69703125,188.49999999999983L577.236328125,188.49999999999983L578.775625,188.49999999999983L580.314921875,188.49999999999983L581.85421875,188.49999999999983L583.393515625,188.49999999999983L584.9328125,188.49999999999983L586.4721093750001,188.49999999999983L588.0114062499999,188.49999999999983L589.550703125,188.49999999999983L591.09,188.49999999999983L592.629296875,188.49999999999983L594.16859375,188.49999999999983L595.707890625,188.49999999999983L597.2471875,188.49999999999983L598.786484375,188.49999999999983L600.32578125,188.49999999999983L601.865078125,188.49999999999983L603.404375,188.49999999999983L604.9436718750001,188.49999999999983L606.4829687499999,188.49999999999983L608.022265625,188.49999999999983L609.5615625,188.49999999999983L611.100859375,188.49999999999983L612.64015625,188.49999999999983L614.179453125,188.49999999999983L615.71875,188.49999999999983L617.258046875,158.50095415621243L618.79734375,140.81778602661552L620.3366406250001,129.87503802159193L621.8759375,122.91484283460422L623.415234375,118.41396706651695L624.95453125,115.47321808722225L626.493828125,113.53909105387939L628.033125,112.26156436541625L629.572421875,111.41536912762012L631.1117187499999,110.85384124226232L632.651015625,110.48076219392073L634.1903125,110.232688478931L635.729609375,110.0676469715925L637.26890625,109.95780707065403L638.8082031250001,109.88468813882149L640.3475,109.83600619512211L641.886796875,109.80359078787431L643.42609375,109.78200512724645L644.965390625,109.76763040788967L646.5046875,109.75805743491105L648.043984375,109.75168209662841L649.5832812499999,109.74743623741189L651.122578125,109.74460854665911L652.661875,109.74272532745385L654.201171875,109.74147111359186L655.74046875,109.74063581165271L657.279765625,109.74007950255394L658.8190625000001,109.7397090015777L660.358359375,109.7394622483199L661.89765625,109.73929791082391L663.436953125,109.73918846212871L664.97625,109.73911556933201L666.515546875,109.73906702274472L668.05484375,109.73903469072405L669.5941406249999,109.73901315760152L671.1334375,109.73899881654302L672.672734375,109.73898926539862L674.21203125,109.7389829043369L675.751328125,109.73897866786969L677.2906250000001,109.73897584638283L678.829921875,109.73897396727239L680.36921875,109.73897271578485L681.908515625,109.7389718822943L683.4478125,109.73897132718946L684.987109375,109.73897095748981L686.52640625,109.73897071126976L688.0657031249999,109.73897054728727L689.605,109.73897043807466L691.144296875,109.73897036533954L692.68359375,109.73897031689764L694.222890625,109.73897028463537L695.7621875,109.73897026314881L697.3014843750001,109.7389702488387L698.84078125,109.73897023930793L700.380078125,109.73897023296064L701.919375,109.73897022873336L703.458671875,109.7389702259181L704.99796875,109.73897022404304L706.537265625,109.73897022279397L708.0765624999999,109.73897022196238L709.615859375,109.73897022140855L711.15515625,109.73897022103968L712.694453125,109.73897022079403L714.23375,109.73897022063045L715.7730468750001,109.73897022052142L717.31234375,109.73897022044864L718.851640625,109.73897022040029L720.3909375,109.73897022036823L721.930234375,109.73897022034684L723.46953125,109.73897022033232L725.008828125,109.73897022032303L726.5481249999999,109.73897022031679L728.087421875,109.73897022031231L729.62671875,109.73897022030955L731.166015625,109.73897022030783L732.7053125,109.73897022030646L734.244609375,109.73897022030579L735.7839062500001,109.73897022030506L737.323203125,109.73897022030474L738.8625,109.7389702203044L740.401796875,109.7389702203044L741.94109375,109.7389702203044L743.480390625,109.73897022030403L745.0196875,109.73897022030403L746.5589843749999,109.73897022030403L748.09828125,109.73897022030403L749.637578125,109.73897022030403L751.176875,109.73897022030403L752.716171875,109.73897022030403L754.2554687500001,109.73897022030403L755.794765625,109.73897022030403L757.3340625,109.73897022030403L758.873359375,109.73897022030403L760.41265625,109.73897022030403L761.951953125,109.73897022030403L763.49125,109.73897022030403L765.0305468749999,109.73897022030403L766.56984375,109.73897022030403L768.109140625,109.73897022030403L769.6484375,109.73897022030403L771.187734375,109.73897022030403L772.72703125,109.73897022030403L774.2663281250001,109.73897022030403L775.805625,109.73897022030403L777.344921875,109.73897022030403L778.88421875,109.73897022030403L780.423515625,109.73897022030403L781.9628125,109.73897022030403L783.502109375,109.73897022030403L785.0414062499999,109.73897022030403L786.580703125,109.73897022030403L788.12,109.73897022030403L789.659296875,109.73897022030403L791.19859375,109.73897022030403L792.7378906250001,109.73897022030403L794.2771875,109.73897022030403L795.816484375,109.73897022030403L797.35578125,109.73897022030403L798.895078125,109.73897022030403L800.434375,109.73897022030403L801.973671875,109.73897022030403L803.5129687499999,109.73897022030403L805.052265625,109.73897022030403L806.5915625,109.73897022030403L808.130859375,109.73897022030403L809.67015625,109.73897022030403L811.209453125,109.73897022030403L812.7487500000001,109.73897022030403L814.288046875,109.73897022030403L815.82734375,109.73897022030403L817.366640625,109.73897022030403L818.9059375,109.73897022030403L820.445234375,109.73897022030403L821.98453125,109.73897022030403L823.5238281249999,109.73897022030403L825.063125,109.73897022030403L826.602421875,109.73897022030403L828.14171875,109.73897022030403L829.681015625,109.73897022030403L831.2203125000001,109.73897022030403L832.759609375,109.73897022030403L834.29890625,109.73897022030403L835.838203125,109.73897022030403L837.3775,109.73897022030403L838.916796875,109.73897022030403L840.45609375,109.73897022030403L841.9953906249999,109.73897022030403L843.5346875,109.73897022030403L845.073984375,109.73897022030403L846.61328125,109.73897022030403L848.152578125,109.73897022030403L849.691875,109.73897022030403L851.2311718750001,109.73897022030403L852.77046875,109.73897022030403L854.309765625,109.73897022030403L855.8490625,109.73897022030403L857.388359375,109.73897022030403L858.92765625,109.73897022030403L860.466953125,109.73897022030403L862.0062499999999,109.73897022030403L863.545546875,109.73897022030403L865.08484375,109.73897022030403L866.624140625,109.73897022030403L868.1634375,109.73897022030403L869.7027343750001,109.73897022030403L871.24203125,109.73897022030403L872.781328125,109.73897022030403L874.320625,109.73897022030403L875.859921875,109.73897022030403L877.39921875,109.73897022030403L878.938515625,109.73897022030403L880.4778124999999,89.23399654207181L882.017109375,76.68779599579747L883.55640625,68.76014675517861L885.095703125,63.65431636007738L886.635,60.32679917149869L888.174296875,58.14188039265234L889.7135937500001,56.70024063731862L891.252890625,55.74601026386971L892.7921875,55.11308351033069L894.331484375,54.69269551369696L895.87078125,54.41322099367205L897.410078125,54.2273137865337L898.949375,54.10359822153782L900.4886718749999,54.02124734656467L902.02796875,53.96642102603297L903.567265625,53.929915279661614L905.1065625,53.9056062581542L906.645859375,53.88941813737021L908.1851562500001,53.878637597314864L909.724453125,53.87145808955073L911.26375,53.86667668459008L912.803046875,53.86349233417876L914.34234375,53.861371585764694L915.881640625,53.859959180166356L917.4209375,53.85901852373484L918.9602343749999,53.858392049078624L920.49953125,53.85797481807889L922.038828125,53.857696942729895L923.578125,53.8575118779682L925.117421875,53.85738862493447L926.65671875,53.8573065384574L928.1960156250001,53.85725186888306L929.7353125,53.85721545895512L931.274609375,53.85719120994696L932.81390625,53.857175060108844L934.353203125,53.85716430431775L935.8925,53.85715714096118L937.431796875,53.85715237016558L938.9710937499999,53.85714919281608L940.510390625,53.85714707670128L942.0496875,53.8571456673688L943.588984375,53.85714472875315L945.12828125,53.85714410363531L946.6675781250001,53.85714368730706L948.206875,53.85714341003205L949.746171875,53.85714322536733L951.28546875,53.85714310238016L952.824765625,53.85714302047105L954.3640625,53.8571429659196L955.903359375,53.8571429295881L957.4426562499999,53.857142905391484L958.981953125,53.85714288927636L960.52125,53.8571428785438L962.060546875,53.85714287139598L963.59984375,53.8571428666356L965.139140625,53.85714286346489L966.6784375000001,53.85714286135353L968.217734375,53.85714285994706L969.75703125,53.85714285901059L971.296328125,53.85714285838674L972.835625,53.857142857971276L974.374921875,53.85714285769457L975.91421875,53.85714285751028L977.4535156249999,53.857142857387814L978.9928125,53.85714285730603L980.532109375,53.85714285725149L982.07140625,53.85714285721529L983.610703125,53.857142857191135L985.1500000000001,53.85714285717489L986.689296875,53.85714285716422L988.22859375,53.857142857157314L989.767890625,53.85714285715246L991.3071875,53.85714285714936L992.846484375,53.85714285714731L994.38578125,53.85714285714593L995.9250781249999,53.857142857144886L997.464375,53.857142857144176L999.003671875,53.857142857143835L1000.54296875,53.8571428571435L1002.082265625,53.85714285714317L1003.6215625,53.85714285714317L1005.1608593750001,53.85714285714317L1006.70015625,53.85714285714317L1008.239453125,53.85714285714317L1009.77875,53.85714285714279L1011.318046875,53.85714285714279L1012.85734375,53.85714285714279L1014.396640625,53.85714285714279L1015.9359374999999,53.85714285714279L1017.475234375,53.85714285714279L1019.01453125,53.85714285714279L1020.553828125,53.85714285714279L1022.093125,53.85714285714279L1023.6324218750001,53.85714285714279L1025.17171875,53.85714285714279L1026.711015625,53.85714285714279L1028.2503125,53.85714285714279L1029.789609375,53.85714285714279L1031.32890625,53.85714285714279L1032.868203125,53.85714285714279L1034.4075,53.85714285714279L1035.946796875,53.85714285714279L1037.48609375,53.85714285714279L1039.025390625,53.85714285714279L1040.5646875,53.85714285714279L1042.103984375,53.85714285714279L1043.64328125,53.85714285714279L1045.182578125,53.85714285714279L1046.721875,53.85714285714279L1048.261171875,53.85714285714279L1049.80046875,53.85714285714279L1051.339765625,53.85714285714279L1052.8790625,53.85714285714279L1054.418359375,53.85714285714279L1055.9576562500001,53.85714285714279L1057.4969531250001,53.85714285714279L1059.0362499999999,53.85714285714279L1060.5755468749999,53.85714285714279L1062.11484375,53.85714285714279L1063.654140625,53.85714285714279L1065.1934375,53.85714285714279L1066.732734375,53.85714285714279L1068.27203125,53.85714285714279L1069.811328125,53.85714285714279L1071.350625,53.85714285714279L1072.889921875,53.85714285714279L1074.42921875,53.85714285714279L1075.968515625,53.85714285714279L1077.199953125,53.85714285714279" style="fill: none;" fill="none"></path></g></g></g></g><g opacity="0.2"><g><g><g><path stroke="rgb(204, 51, 17)" stroke-width="2px" d="M153.9296875,323.1428571428568L155.468984375,323.1428571428568L157.00828125,323.1428571428568L158.547578125,323.1428571428568L160.086875,323.1428571428568L161.626171875,323.1428571428568L163.16546875,323.1428571428568L164.70476562500002,323.1428571428568L166.2440625,323.1428571428568L167.783359375,323.1428571428568L169.32265625000002,323.1428571428568L170.861953125,323.1428571428568L172.40125,323.1428571428568L173.940546875,323.1428571428568L175.47984375,323.1428571428568L177.01914062499998,323.1428571428568L178.5584375,323.1428571428568L180.097734375,323.1428571428568L181.63703124999998,323.1428571428568L183.176328125,323.1428571428568L184.715625,323.1428571428568L186.254921875,323.1428571428568L187.79421875,323.1428571428568L189.333515625,323.1428571428568L190.8728125,323.1428571428568L192.412109375,323.1428571428568L193.95140625,323.1428571428568L195.490703125,323.1428571428568L197.03,323.1428571428568L198.569296875,323.1428571428568L200.10859375,323.1428571428568L201.647890625,323.1428571428568L203.18718750000002,323.1428571428568L204.726484375,323.1428571428568L206.26578125,323.1428571428568L207.80507812500002,323.1428571428568L209.344375,323.1428571428568L210.883671875,323.1428571428568L212.42296875,323.1428571428568L213.962265625,323.1428571428568L215.50156249999998,323.1428571428568L217.040859375,323.1428571428568L218.58015625,323.1428571428568L220.11945312499998,323.1428571428568L221.65875,323.1428571428568L223.198046875,323.1428571428568L224.73734375,323.1428571428568L226.276640625,323.1428571428568L227.8159375,323.1428571428568L229.355234375,323.1428571428568L230.89453125,323.1428571428568L232.433828125,323.1428571428568L233.973125,323.1428571428568L235.512421875,323.1428571428568L237.05171875,323.1428571428568L238.591015625,323.1428571428568L240.1303125,323.1428571428568L241.66960937500002,323.1428571428568L243.20890625,323.1428571428568L244.748203125,323.1428571428568L246.28750000000002,323.1428571428568L247.826796875,323.1428571428568L249.36609375,323.1428571428568L250.905390625,323.1428571428568L252.4446875,323.1428571428568L253.98398437499998,323.1428571428568L255.52328125,323.1428571428568L257.062578125,323.1428571428568L258.601875,323.1428571428568L260.141171875,323.1428571428568L261.68046875,323.1428571428568L263.219765625,323.1428571428568L264.75906249999997,323.1428571428568L266.298359375,323.1428571428568L267.83765625,323.1428571428568L269.376953125,323.1428571428568L270.91625,323.1428571428568L272.455546875,323.1428571428568L273.99484375000003,323.1428571428568L275.534140625,323.1428571428568L277.0734375,323.1428571428568L278.612734375,323.1428571428568L280.15203125,323.1428571428568L281.691328125,323.1428571428568L283.23062500000003,323.1428571428568L284.769921875,323.1428571428568L286.30921875,323.1428571428568L287.848515625,323.1428571428568L289.3878125,323.1428571428568L290.927109375,323.1428571428568L292.46640625,323.1428571428568L294.00570312499997,323.1428571428568L295.545,323.1428571428568L297.084296875,323.1428571428568L298.62359375,323.1428571428568L300.162890625,323.1428571428568L301.7021875,323.1428571428568L303.24148437499997,323.1428571428568L304.78078125,323.1428571428568L306.320078125,323.1428571428568L307.859375,323.1428571428568L309.398671875,323.1428571428568L310.93796875,323.1428571428568L312.477265625,323.1428571428568L314.0165625,323.1428571428568L315.55585937499995,323.1428571428568L317.09515625,323.1428571428568L318.634453125,323.1428571428568L320.17375,323.1428571428568L321.713046875,323.1428571428568L323.25234375,323.1428571428568L324.79164062499996,323.1428571428568L326.3309375,323.1428571428568L327.870234375,323.1428571428568L329.40953125000004,323.1428571428568L330.948828125,323.1428571428568L332.488125,323.1428571428568L334.027421875,323.1428571428568L335.56671875,323.1428571428568L337.106015625,323.1428571428568L338.64531250000005,323.1428571428568L340.184609375,323.1428571428568L341.72390625,323.1428571428568L343.263203125,323.1428571428568L344.8025,323.1428571428568L346.341796875,323.1428571428568L347.88109375,323.1428571428568L349.420390625,323.1428571428568L350.9596875,323.1428571428568L352.498984375,188.49999999999983L354.03828124999995,188.49999999999983L355.577578125,188.49999999999983L357.116875,188.49999999999983L358.656171875,188.49999999999983L360.19546875,188.49999999999983L361.734765625,188.49999999999983L363.27406249999996,188.49999999999983L364.813359375,188.49999999999983L366.35265625,188.49999999999983L367.89195312500004,188.49999999999983L369.43125,188.49999999999983L370.970546875,188.49999999999983L372.50984375,188.49999999999983L374.049140625,188.49999999999983L375.5884375,188.49999999999983L377.12773437500005,188.49999999999983L378.66703125,188.49999999999983L380.206328125,188.49999999999983L381.745625,188.49999999999983L383.284921875,188.49999999999983L384.82421875,188.49999999999983L386.363515625,188.49999999999983L387.9028125,188.49999999999983L389.442109375,188.49999999999983L390.98140625,188.49999999999983L392.52070312499995,188.49999999999983L394.06,188.49999999999983L395.599296875,188.49999999999983L397.13859375,188.49999999999983L398.677890625,188.49999999999983L400.2171875,188.49999999999983L401.75648437499996,188.49999999999983L403.29578125,188.49999999999983L404.835078125,188.49999999999983L406.37437500000004,188.49999999999983L407.913671875,188.49999999999983L409.45296875,188.49999999999983L410.992265625,188.49999999999983L412.5315625,188.49999999999983L414.070859375,188.49999999999983L415.61015625000005,188.49999999999983L417.149453125,188.49999999999983L418.68875,188.49999999999983L420.228046875,188.49999999999983L421.76734375,188.49999999999983L423.306640625,188.49999999999983L424.8459375,188.49999999999983L426.385234375,188.49999999999983L427.92453125,188.49999999999983L429.463828125,188.49999999999983L431.00312499999995,188.49999999999983L432.542421875,188.49999999999983L434.08171875,188.49999999999983L435.621015625,188.49999999999983L437.1603125,188.49999999999983L438.699609375,188.49999999999983L440.23890624999996,188.49999999999983L441.778203125,188.49999999999983L443.3175,188.49999999999983L444.85679687500004,188.49999999999983L446.39609375,188.49999999999983L447.935390625,188.49999999999983L449.4746875,188.49999999999983L451.013984375,188.49999999999983L452.55328125,188.49999999999983L454.09257812500005,188.49999999999983L455.631875,188.49999999999983L457.171171875,188.49999999999983L458.71046875,188.49999999999983L460.249765625,188.49999999999983L461.7890625,188.49999999999983L463.328359375,188.49999999999983L464.86765625,188.49999999999983L466.406953125,188.49999999999983L467.94625,188.49999999999983L469.48554687499995,188.49999999999983L471.02484375,188.49999999999983L472.564140625,188.49999999999983L474.1034375,188.49999999999983L475.642734375,188.49999999999983L477.18203125,188.49999999999983L478.72132812499996,188.49999999999983L480.260625,188.49999999999983L481.799921875,188.49999999999983L483.33921875000004,188.49999999999983L484.878515625,188.49999999999983L486.4178125,188.49999999999983L487.957109375,188.49999999999983L489.49640625,188.49999999999983L491.035703125,188.49999999999983L492.57500000000005,188.49999999999983L494.114296875,188.49999999999983L495.65359375,188.49999999999983L497.192890625,188.49999999999983L498.7321875,188.49999999999983L500.271484375,188.49999999999983L501.81078125,188.49999999999983L503.350078125,188.49999999999983L504.889375,188.49999999999983L506.428671875,188.49999999999983L507.96796874999995,188.49999999999983L509.507265625,188.49999999999983L511.0465625,188.49999999999983L512.585859375,188.49999999999983L514.12515625,188.49999999999983L515.664453125,188.49999999999983L517.20375,188.49999999999983L518.743046875,188.49999999999983L520.28234375,188.49999999999983L521.821640625,188.49999999999983L523.3609375,188.49999999999983L524.900234375,188.49999999999983L526.43953125,188.49999999999983L527.9788281250001,188.49999999999983L529.5181249999999,188.49999999999983L531.057421875,188.49999999999983L532.59671875,188.49999999999983L534.136015625,188.49999999999983L535.6753125,188.49999999999983L537.214609375,188.49999999999983L538.75390625,188.49999999999983L540.293203125,188.49999999999983L541.8325,188.49999999999983L543.371796875,188.49999999999983L544.91109375,188.49999999999983L546.450390625,188.49999999999983L547.9896875000001,188.49999999999983L549.5289843749999,188.49999999999983L551.06828125,188.49999999999983L552.607578125,188.49999999999983L554.146875,188.49999999999983L555.686171875,188.49999999999983L557.22546875,188.49999999999983L558.764765625,188.49999999999983L560.3040625,188.49999999999983L561.843359375,188.49999999999983L563.38265625,188.49999999999983L564.921953125,188.49999999999983L566.4612500000001,188.49999999999983L568.0005468749999,188.49999999999983L569.53984375,188.49999999999983L571.079140625,188.49999999999983L572.6184375,188.49999999999983L574.157734375,188.49999999999983L575.69703125,188.49999999999983L577.236328125,188.49999999999983L578.775625,188.49999999999983L580.314921875,188.49999999999983L581.85421875,188.49999999999983L583.393515625,188.49999999999983L584.9328125,188.49999999999983L586.4721093750001,188.49999999999983L588.0114062499999,188.49999999999983L589.550703125,188.49999999999983L591.09,188.49999999999983L592.629296875,188.49999999999983L594.16859375,188.49999999999983L595.707890625,188.49999999999983L597.2471875,188.49999999999983L598.786484375,188.49999999999983L600.32578125,188.49999999999983L601.865078125,188.49999999999983L603.404375,188.49999999999983L604.9436718750001,188.49999999999983L606.4829687499999,188.49999999999983L608.022265625,188.49999999999983L609.5615625,188.49999999999983L611.100859375,188.49999999999983L612.64015625,188.49999999999983L614.179453125,188.49999999999983L615.71875,188.49999999999983L617.258046875,109.73897022030403L618.79734375,109.73897022030403L620.3366406250001,109.73897022030403L621.8759375,109.73897022030403L623.415234375,109.73897022030403L624.95453125,109.73897022030403L626.493828125,109.73897022030403L628.033125,109.73897022030403L629.572421875,109.73897022030403L631.1117187499999,109.73897022030403L632.651015625,109.73897022030403L634.1903125,109.73897022030403L635.729609375,109.73897022030403L637.26890625,109.73897022030403L638.8082031250001,109.73897022030403L640.3475,109.73897022030403L641.886796875,109.73897022030403L643.42609375,109.73897022030403L644.965390625,109.73897022030403L646.5046875,109.73897022030403L648.043984375,109.73897022030403L649.5832812499999,109.73897022030403L651.122578125,109.73897022030403L652.661875,109.73897022030403L654.201171875,109.73897022030403L655.74046875,109.73897022030403L657.279765625,109.73897022030403L658.8190625000001,109.73897022030403L660.358359375,109.73897022030403L661.89765625,109.73897022030403L663.436953125,109.73897022030403L664.97625,109.73897022030403L666.515546875,109.73897022030403L668.05484375,109.73897022030403L669.5941406249999,109.73897022030403L671.1334375,109.73897022030403L672.672734375,109.73897022030403L674.21203125,109.73897022030403L675.751328125,109.73897022030403L677.2906250000001,109.73897022030403L678.829921875,109.73897022030403L680.36921875,109.73897022030403L681.908515625,109.73897022030403L683.4478125,109.73897022030403L684.987109375,109.73897022030403L686.52640625,109.73897022030403L688.0657031249999,109.73897022030403L689.605,109.73897022030403L691.144296875,109.73897022030403L692.68359375,109.73897022030403L694.222890625,109.73897022030403L695.7621875,109.73897022030403L697.3014843750001,109.73897022030403L698.84078125,109.73897022030403L700.380078125,109.73897022030403L701.919375,109.73897022030403L703.458671875,109.73897022030403L704.99796875,109.73897022030403L706.537265625,109.73897022030403L708.0765624999999,109.73897022030403L709.615859375,109.73897022030403L711.15515625,109.73897022030403L712.694453125,109.73897022030403L714.23375,109.73897022030403L715.7730468750001,109.73897022030403L717.31234375,109.73897022030403L718.851640625,109.73897022030403L720.3909375,109.73897022030403L721.930234375,109.73897022030403L723.46953125,109.73897022030403L725.008828125,109.73897022030403L726.5481249999999,109.73897022030403L728.087421875,109.73897022030403L729.62671875,109.73897022030403L731.166015625,109.73897022030403L732.7053125,109.73897022030403L734.244609375,109.73897022030403L735.7839062500001,109.73897022030403L737.323203125,109.73897022030403L738.8625,109.73897022030403L740.401796875,109.73897022030403L741.94109375,109.73897022030403L743.480390625,109.73897022030403L745.0196875,109.73897022030403L746.5589843749999,109.73897022030403L748.09828125,109.73897022030403L749.637578125,109.73897022030403L751.176875,109.73897022030403L752.716171875,109.73897022030403L754.2554687500001,109.73897022030403L755.794765625,109.73897022030403L757.3340625,109.73897022030403L758.873359375,109.73897022030403L760.41265625,109.73897022030403L761.951953125,109.73897022030403L763.49125,109.73897022030403L765.0305468749999,109.73897022030403L766.56984375,109.73897022030403L768.109140625,109.73897022030403L769.6484375,109.73897022030403L771.187734375,109.73897022030403L772.72703125,109.73897022030403L774.2663281250001,109.73897022030403L775.805625,109.73897022030403L777.344921875,109.73897022030403L778.88421875,109.73897022030403L780.423515625,109.73897022030403L781.9628125,109.73897022030403L783.502109375,109.73897022030403L785.0414062499999,109.73897022030403L786.580703125,109.73897022030403L788.12,109.73897022030403L789.659296875,109.73897022030403L791.19859375,109.73897022030403L792.7378906250001,109.73897022030403L794.2771875,109.73897022030403L795.816484375,109.73897022030403L797.35578125,109.73897022030403L798.895078125,109.73897022030403L800.434375,109.73897022030403L801.973671875,109.73897022030403L803.5129687499999,109.73897022030403L805.052265625,109.73897022030403L806.5915625,109.73897022030403L808.130859375,109.73897022030403L809.67015625,109.73897022030403L811.209453125,109.73897022030403L812.7487500000001,109.73897022030403L814.288046875,109.73897022030403L815.82734375,109.73897022030403L817.366640625,109.73897022030403L818.9059375,109.73897022030403L820.445234375,109.73897022030403L821.98453125,109.73897022030403L823.5238281249999,109.73897022030403L825.063125,109.73897022030403L826.602421875,109.73897022030403L828.14171875,109.73897022030403L829.681015625,109.73897022030403L831.2203125000001,109.73897022030403L832.759609375,109.73897022030403L834.29890625,109.73897022030403L835.838203125,109.73897022030403L837.3775,109.73897022030403L838.916796875,109.73897022030403L840.45609375,109.73897022030403L841.9953906249999,109.73897022030403L843.5346875,109.73897022030403L845.073984375,109.73897022030403L846.61328125,109.73897022030403L848.152578125,109.73897022030403L849.691875,109.73897022030403L851.2311718750001,109.73897022030403L852.77046875,109.73897022030403L854.309765625,109.73897022030403L855.8490625,109.73897022030403L857.388359375,109.73897022030403L858.92765625,109.73897022030403L860.466953125,109.73897022030403L862.0062499999999,109.73897022030403L863.545546875,109.73897022030403L865.08484375,109.73897022030403L866.624140625,109.73897022030403L868.1634375,109.73897022030403L869.7027343750001,109.73897022030403L871.24203125,109.73897022030403L872.781328125,109.73897022030403L874.320625,109.73897022030403L875.859921875,109.73897022030403L877.39921875,109.73897022030403L878.938515625,109.73897022030403L880.4778124999999,53.85714285714279L882.017109375,53.85714285714279L883.55640625,53.85714285714279L885.095703125,53.85714285714279L886.635,53.85714285714279L888.174296875,53.85714285714279L889.7135937500001,53.85714285714279L891.252890625,53.85714285714279L892.7921875,53.85714285714279L894.331484375,53.85714285714279L895.87078125,53.85714285714279L897.410078125,53.85714285714279L898.949375,53.85714285714279L900.4886718749999,53.85714285714279L902.02796875,53.85714285714279L903.567265625,53.85714285714279L905.1065625,53.85714285714279L906.645859375,53.85714285714279L908.1851562500001,53.85714285714279L909.724453125,53.85714285714279L911.26375,53.85714285714279L912.803046875,53.85714285714279L914.34234375,53.85714285714279L915.881640625,53.85714285714279L917.4209375,53.85714285714279L918.9602343749999,53.85714285714279L920.49953125,53.85714285714279L922.038828125,53.85714285714279L923.578125,53.85714285714279L925.117421875,53.85714285714279L926.65671875,53.85714285714279L928.1960156250001,53.85714285714279L929.7353125,53.85714285714279L931.274609375,53.85714285714279L932.81390625,53.85714285714279L934.353203125,53.85714285714279L935.8925,53.85714285714279L937.431796875,53.85714285714279L938.9710937499999,53.85714285714279L940.510390625,53.85714285714279L942.0496875,53.85714285714279L943.588984375,53.85714285714279L945.12828125,53.85714285714279L946.6675781250001,53.85714285714279L948.206875,53.85714285714279L949.746171875,53.85714285714279L951.28546875,53.85714285714279L952.824765625,53.85714285714279L954.3640625,53.85714285714279L955.903359375,53.85714285714279L957.4426562499999,53.85714285714279L958.981953125,53.85714285714279L960.52125,53.85714285714279L962.060546875,53.85714285714279L963.59984375,53.85714285714279L965.139140625,53.85714285714279L966.6784375000001,53.85714285714279L968.217734375,53.85714285714279L969.75703125,53.85714285714279L971.296328125,53.85714285714279L972.835625,53.85714285714279L974.374921875,53.85714285714279L975.91421875,53.85714285714279L977.4535156249999,53.85714285714279L978.9928125,53.85714285714279L980.532109375,53.85714285714279L982.07140625,53.85714285714279L983.610703125,53.85714285714279L985.1500000000001,53.85714285714279L986.689296875,53.85714285714279L988.22859375,53.85714285714279L989.767890625,53.85714285714279L991.3071875,53.85714285714279L992.846484375,53.85714285714279L994.38578125,53.85714285714279L995.9250781249999,53.85714285714279L997.464375,53.85714285714279L999.003671875,53.85714285714279L1000.54296875,53.85714285714279L1002.082265625,53.85714285714279L1003.6215625,53.85714285714279L1005.1608593750001,53.85714285714279L1006.70015625,53.85714285714279L1008.239453125,53.85714285714279L1009.77875,53.85714285714279L1011.318046875,53.85714285714279L1012.85734375,53.85714285714279L1014.396640625,53.85714285714279L1015.9359374999999,53.85714285714279L1017.475234375,53.85714285714279L1019.01453125,53.85714285714279L1020.553828125,53.85714285714279L1022.093125,53.85714285714279L1023.6324218750001,53.85714285714279L1025.17171875,53.85714285714279L1026.711015625,53.85714285714279L1028.2503125,53.85714285714279L1029.789609375,53.85714285714279L1031.32890625,53.85714285714279L1032.868203125,53.85714285714279L1034.4075,53.85714285714279L1035.946796875,53.85714285714279L1037.48609375,53.85714285714279L1039.025390625,53.85714285714279L1040.5646875,53.85714285714279L1042.103984375,53.85714285714279L1043.64328125,53.85714285714279L1045.182578125,53.85714285714279L1046.721875,53.85714285714279L1048.261171875,53.85714285714279L1049.80046875,53.85714285714279L1051.339765625,53.85714285714279L1052.8790625,53.85714285714279L1054.418359375,53.85714285714279L1055.9576562500001,53.85714285714279L1057.4969531250001,53.85714285714279L1059.0362499999999,53.85714285714279L1060.5755468749999,53.85714285714279L1062.11484375,53.85714285714279L1063.654140625,53.85714285714279L1065.1934375,53.85714285714279L1066.732734375,53.85714285714279L1068.27203125,53.85714285714279L1069.811328125,53.85714285714279L1071.350625,53.85714285714279L1072.889921875,53.85714285714279L1074.42921875,53.85714285714279L1075.968515625,53.85714285714279L1077.199953125,53.85714285714279" style="fill: none;" fill="none"></path></g></g></g></g></g></g><g transform="translate(51, 377)" clip-path="url(#clip_1)"><clipPath id="clip_1"><rect width="1231" height="23"></rect></clipPath><g><g><line x1="0" y1="0" x2="0" y2="5" style="visibility: inherit;" fill="rgb(0, 0, 0)" stroke="rgb(204, 204, 204)" stroke-width="1px"></line><line x1="153.9296875" y1="0" x2="153.9296875" y2="5" style="visibility: inherit;" fill="rgb(0, 0, 0)" stroke="rgb(204, 204, 204)" stroke-width="1px"></line><line x1="307.859375" y1="0" x2="307.859375" y2="5" style="visibility: inherit;" fill="rgb(0, 0, 0)" stroke="rgb(204, 204, 204)" stroke-width="1px"></line><line x1="461.7890625" y1="0" x2="461.7890625" y2="5" style="visibility: inherit;" fill="rgb(0, 0, 0)" stroke="rgb(204, 204, 204)" stroke-width="1px"></line><line x1="615.71875" y1="0" x2="615.71875" y2="5" style="visibility: inherit;" fill="rgb(0, 0, 0)" stroke="rgb(204, 204, 204)" stroke-width="1px"></line><line x1="769.6484375" y1="0" x2="769.6484375" y2="5" style="visibility: inherit;" fill="rgb(0, 0, 0)" stroke="rgb(204, 204, 204)" stroke-width="1px"></line><line x1="923.578125" y1="0" x2="923.578125" y2="5" style="visibility: inherit;" fill="rgb(0, 0, 0)" stroke="rgb(204, 204, 204)" stroke-width="1px"></line><line x1="1077.5078125" y1="0" x2="1077.5078125" y2="5" style="visibility: inherit;" fill="rgb(0, 0, 0)" stroke="rgb(204, 204, 204)" stroke-width="1px"></line><line x1="1231.4375" y1="0" x2="1231.4375" y2="5" style="visibility: inherit;" fill="rgb(0, 0, 0)" stroke="rgb(204, 204, 204)" stroke-width="1px"></line></g><g transform="translate(0, 8)"><text x="0" y="0" dx="0em" dy="0.95em" style="text-anchor: middle; visibility: hidden; font-family: Roboto, sans-serif; font-size: 12px; font-weight: 200;" fill="rgb(255, 255, 255)" stroke="none" stroke-width="1px">-500</text><text x="153.9296875" y="0" dx="0em" dy="0.95em" style="text-anchor: middle; visibility: inherit; font-family: Roboto, sans-serif; font-size: 12px; font-weight: 200;" fill="rgb(255, 255, 255)" stroke="none" stroke-width="1px">0</text><text x="307.859375" y="0" dx="0em" dy="0.95em" style="text-anchor: middle; visibility: inherit; font-family: Roboto, sans-serif; font-size: 12px; font-weight: 200;" fill="rgb(255, 255, 255)" stroke="none" stroke-width="1px">500</text><text x="461.7890625" y="0" dx="0em" dy="0.95em" style="text-anchor: middle; visibility: inherit; font-family: Roboto, sans-serif; font-size: 12px; font-weight: 200;" fill="rgb(255, 255, 255)" stroke="none" stroke-width="1px">1k</text><text x="615.71875" y="0" dx="0em" dy="0.95em" style="text-anchor: middle; visibility: inherit; font-family: Roboto, sans-serif; font-size: 12px; font-weight: 200;" fill="rgb(255, 255, 255)" stroke="none" stroke-width="1px">1.5k</text><text x="769.6484375" y="0" dx="0em" dy="0.95em" style="text-anchor: middle; visibility: inherit; font-family: Roboto, sans-serif; font-size: 12px; font-weight: 200;" fill="rgb(255, 255, 255)" stroke="none" stroke-width="1px">2k</text><text x="923.578125" y="0" dx="0em" dy="0.95em" style="text-anchor: middle; visibility: inherit; font-family: Roboto, sans-serif; font-size: 12px; font-weight: 200;" fill="rgb(255, 255, 255)" stroke="none" stroke-width="1px">2.5k</text><text x="1077.5078125" y="0" dx="0em" dy="0.95em" style="text-anchor: middle; visibility: inherit; font-family: Roboto, sans-serif; font-size: 12px; font-weight: 200;" fill="rgb(255, 255, 255)" stroke="none" stroke-width="1px">3k</text><text x="1231.4375" y="0" dx="0em" dy="0.95em" style="text-anchor: middle; visibility: hidden; font-family: Roboto, sans-serif; font-size: 12px; font-weight: 200;" fill="rgb(255, 255, 255)" stroke="none" stroke-width="1px">3.5k</text></g><line x1="0" y1="0" x2="1231.4375" y2="0" fill="rgb(0, 0, 0)" stroke="rgb(204, 204, 204)" stroke-width="1px"></line></g></g></g></g></svg>