<svg viewBox="0 0 1283 400" xmlns="http://www.w3.org/2000/svg"><g><g><g><g><g><line x1="20.390625" y1="325.9751468438006" x2="15.390625" y2="325.9751468438006" style="visibility: inherit;" fill="rgb(0, 0, 0)" stroke="rgb(204, 204, 204)" stroke-width="1px"></line><line x1="20.390625" y1="245.69163467496702" x2="15.390625" y2="245.69163467496702" style="visibility: inherit;" fill="rgb(0, 0, 0)" stroke="rgb(204, 204, 204)" stroke-width="1px"></line><line x1="20.390625" y1="183.4189046968631" x2="15.390625" y2="183.4189046968631" style="visibility: inherit;" fill="rgb(0, 0, 0)" stroke="rgb(204, 204, 204)" stroke-width="1px"></line><line x1="20.390625" y1="132.53837954366108" x2="15.390625" y2="132.53837954366108" style="visibility: inherit;" fill="rgb(0, 0, 0)" stroke="rgb(204, 204, 204)" stroke-width="1px"></line><line x1="20.390625" y1="89.51950848828804" x2="15.390625" y2="89.51950848828804" style="visibility: inherit;" fill="rgb(0, 0, 0)" stroke="rgb(204, 204, 204)" stroke-width="1px"></line><line x1="20.390625" y1="52.254867374827626" x2="15.390625" y2="52.254867374827626" style="visibility: inherit;" fill="rgb(0, 0, 0)" stroke="rgb(204, 204, 204)" stroke-width="1px"></line><line x1="20.390625" y1="19.38512441235508" x2="15.390625" y2="19.38512441235508" style="visibility: inherit;" fill="rgb(0, 0, 0)" stroke="rgb(204, 204, 204)" stroke-width="1px"></line></g><g transform="translate(10.390625, 0)"><text x="0" y="325.9751468438006" dx="0em" dy="0.3em" style="text-anchor: end; visibility: inherit; font-family: Roboto, sans-serif; font-size: 12px; font-weight: 200;" fill="rgb(255, 255, 255)" stroke="none" stroke-width="1px">3</text><text x="0" y="245.69163467496702" dx="0em" dy="0.3em" style="text-anchor: end; visibility: inherit; font-family: Roboto, sans-serif; font-size: 12px; font-weight: 200;" fill="rgb(255, 255, 255)" stroke="none" stroke-width="1px">4</text><text x="0" y="183.4189046968631" dx="0em" dy="0.3em" style="text-anchor: end; visibility: inherit; font-family: Roboto, sans-serif; font-size: 12px; font-weight: 200;" fill="rgb(255, 255, 255)" stroke="none" stroke-width="1px">5</text><text x="0" y="132.53837954366108" dx="0em" dy="0.3em" style="text-anchor: end; visibility: inherit; font-family: Roboto, sans-serif; font-size: 12px; font-weight: 200;" fill="rgb(255, 255, 255)" stroke="none" stroke-width="1px">6</text><text x="0" y="89.51950848828804" dx="0em" dy="0.3em" style="text-anchor: end; visibility: inherit; font-family: Roboto, sans-serif; font-size: 12px; font-weight: 200;" fill="rgb(255, 255, 255)" stroke="none" stroke-width="1px">7</text><text x="0" y="52.254867374827626" dx="0em" dy="0.3em" style="text-anchor: end; visibility: inherit; font-family: Roboto, sans-serif; font-size: 12px; font-weight: 200;" fill="rgb(255, 255, 255)" stroke="none" stroke-width="1px">8</text><text x="0" y="19.38512441235508" dx="0em" dy="0.3em" style="text-anchor: end; visibility: inherit; font-family: Roboto, sans-serif; font-size: 12px; font-weight: 200;" fill="rgb(255, 255, 255)" stroke="none" stroke-width="1px">9</text></g><line x1="20.390625" y1="0" x2="20.390625" y2="377" fill="rgb(0, 0, 0)" stroke="rgb(204, 204, 204)" stroke-width="1px"></line></g></g><g transform="translate(20, 0)" clip-path="url(#clip_0)"><clipPath id="clip_0"><rect width="1262" height="377"></rect></clipPath><g><g><g><line x1="0" y1="0" x2="0" y2="377" fill="rgb(0, 0, 0)" stroke="rgb(189, 189, 189)" stroke-width="1px" opacity="0.25"></line><line x1="157.826171875" y1="0" x2="157.826171875" y2="377" fill="rgb(0, 0, 0)" stroke="rgb(189, 189, 189)" stroke-width="1px" opacity="0.25"></line><line x1="315.65234375" y1="0" x2="315.65234375" y2="377" fill="rgb(0, 0, 0)" stroke="rgb(189, 189, 189)" stroke-width="1px" opacity="0.25"></line><line x1="473.478515625" y1="0" x2="473.478515625" y2="377" fill="rgb(0, 0, 0)" stroke="rgb(189, 189, 189)" stroke-width="1px" opacity="0.25"></line><line x1="631.3046875" y1="0" x2="631.3046875" y2="377" fill="rgb(0, 0, 0)" stroke="rgb(189, 189, 189)" stroke-width="1px" opacity="0.25"></line><line x1="789.130859375" y1="0" x2="789.130859375" y2="377" fill="rgb(0, 0, 0)" stroke="rgb(189, 189, 189)" stroke-width="1px" opacity="0.25"></line><line x1="946.95703125" y1="0" x2="946.95703125" y2="377" fill="rgb(0, 0, 0)" stroke="rgb(189, 189, 189)" stroke-width="1px" opacity="0.25"></line><line x1="1104.783203125" y1="0" x2="1104.783203125" y2="377" fill="rgb(0, 0, 0)" stroke="rgb(189, 189, 189)" stroke-width="1px" opacity="0.25"></line><line x1="1262.609375" y1="0" x2="1262.609375" y2="377" fill="rgb(0, 0, 0)" stroke="rgb(189, 189, 189)" stroke-width="1px" opacity="0.25"></line></g><g><line x1="0" y1="325.9751468438006" x2="1262.609375" y2="325.9751468438006" fill="rgb(0, 0, 0)" stroke="rgb(189, 189, 189)" stroke-width="1px" opacity="0.25"></line><line x1="0" y1="245.69163467496702" x2="1262.609375" y2="245.69163467496702" fill="rgb(0, 0, 0)" stroke="rgb(189, 189, 189)" stroke-width="1px" opacity="0.25"></line><line x1="0" y1="183.4189046968631" x2="1262.609375" y2="183.4189046968631" fill="rgb(0, 0, 0)" stroke="rgb(189, 189, 189)" stroke-width="1px" opacity="0.25"></line><line x1="0" y1="132.53837954366108" x2="1262.609375" y2="132.53837954366108" fill="rgb(0, 0, 0)" stroke="rgb(189, 189, 189)" stroke-width="1px" opacity="0.25"></line><line x1="0" y1="89.51950848828804" x2="1262.609375" y2="89.51950848828804" fill="rgb(0, 0, 0)" stroke="rgb(189, 189, 189)" stroke-width="1px" opacity="0.25"></line><line x1="0" y1="52.254867374827626" x2="1262.609375" y2="52.254867374827626" fill="rgb(0, 0, 0)" stroke="rgb(189, 189, 189)" stroke-width="1px" opacity="0.25"></line><line x1="0" y1="19.38512441235508" x2="1262.609375" y2="19.38512441235508" fill="rgb(0, 0, 0)" stroke="rgb(189, 189, 189)" stroke-width="1px" opacity="0.25"></line></g></g></g><g><g><line x1="157.826171875" y1="0" x2="157.826171875" y2="377" fill="rgb(0, 0, 0)" stroke="rgb(153, 153, 153)" stroke-width="1.5px"></line></g></g><g><g><g><g><g><path stroke="rgb(204, 51, 17)" stroke-width="2px" d="M157.826171875,53.857142857142875L159.40443359375,75.39138037978049L160.9826953125,95.62714847659836L162.56095703125,103.19539521294043L164.13921875,113.27631552496803L165.71748046875,126.42197193295061L167.2957421875,127.97134964471708L168.87400390625,136.91102264506318L170.45226562500002,148.2031134097808L172.03052734375,154.02452299166683L173.60878906250002,156.64858572567988L175.18705078125,163.56351836064792L176.76531250000002,170.09061635143752L178.34357421874998,169.83558649090918L179.9218359375,176.30031775766318L181.50009765624998,178.23034760723135L183.078359375,183.3327073597258L184.65662109374998,190.44456540122675L186.2348828125,205.2672667677631L187.81314453125,204.7712630312257L189.39140625,204.69290848992958L190.96966796875,208.81193284763782L192.5479296875,225.42243716305978L194.12619140625,226.36967193140654L195.704453125,218.93854173103125L197.28271484375,225.78532014913102L198.8609765625,219.48724916288177L200.43923828125,215.69657670449286L202.0175,215.38040752258257L203.59576171875,221.10867185803343L205.1740234375,221.97718542364498L206.75228515625,213.68689951042145L208.330546875,206.221973899594L209.90880859375002,203.2338437036614L211.4870703125,225.1852762818261L213.06533203125002,222.11027648766694L214.64359375,222.06509435644173L216.22185546875002,236.83265661551977L217.80011718749998,244.11716012082945L219.37837890625,251.68060830513184L220.95664062499998,252.58373949053686L222.53490234375,235.6689615987052L224.11316406249998,220.00671212712405L225.69142578125,214.67498723065276L227.2696875,227.4424634664668L228.84794921875,229.5526788946581L230.4262109375,233.90909823618142L232.00447265625,231.60872345671984L233.582734375,230.5679076728011L235.16099609375,235.9108626672559L236.7392578125,239.6180658829762L238.31751953125,249.06774506663479L239.89578125,249.96783761193993L241.47404296875,238.23485773957955L243.0523046875,250.72596169712165L244.63056640625,240.88624206913883L246.208828125,242.02861783362056L247.78708984375,241.26494345626563L249.36535156250002,256.59227471602844L250.94361328125,266.3606897721414L252.52187500000002,260.7131321168736L254.10013671875,257.7651503812013L255.67839843750002,269.164397179851L257.25666015625,280.76317725192496L258.83492187499996,270.90691027209664L260.41318359375,263.68925255005587L261.9914453125,259.6101579711651L263.56970703125,267.81494796075543L265.14796875,274.36758754011277L266.72623046875,274.04731959257066L268.3044921875,262.9208486334547L269.88275390625,263.45220441790286L271.461015625,258.8432102961863L273.03927734375,261.88047650684115L274.6175390625,279.21892733873216L276.19580078125,278.5808030327688L277.7740625,281.9040621726696L279.35232421875,282.2019341393143L280.9305859375,278.99278569299025L282.50884765625,280.12837604641624L284.087109375,283.7462036854175L285.66537109375,270.22134856526174L287.2436328125,284.6268982046141L288.82189453125,282.95772581046407L290.40015625,267.98646256459676L291.97841796875,268.1296822194595L293.55667968750004,260.12360909322956L295.13494140625,261.3902385665931L296.713203125,282.80947246790464L298.29146484374996,293.87911297422335L299.8697265625,288.5861770182574L301.44798828125,288.7193408718503L303.02625,288.82166040885215L304.60451171875,295.721986432192L306.1827734375,293.94912889822774L307.76103515625,288.84943903230595L309.339296875,292.8619394857322L310.91755859375,277.9593895911539L312.4958203125,274.46390891324535L314.07408203125,273.2509832837537L315.65234375,279.40027784158167L317.23060546874996,292.07579807894246L318.8088671875,278.42537090811186L320.38712890625,279.8594037628818L321.965390625,285.4392466492819L323.54365234374995,286.22217718231974L325.1219140625,290.2737343510485L326.70017578125,301.15681914584485L328.2784375,305.11953977543203L329.85669921874995,294.73610738287533L331.4349609375,299.3926960077816L333.01322265625,301.6506332342405L334.591484375,303.6804616311219L336.16974609375,300.40681419853337L337.7480078125,294.9032997866859L339.32626953125,312.32861750150994L340.90453125000005,296.10033260302237L342.48279296875,309.23971729653556L344.0610546875,309.453677687276L345.63931640625,299.2064445442789L347.21757812500005,291.4403478378357L348.79583984375,308.7073868665999L350.3741015625,286.3583006288154L351.95236328125,291.0529867179977L353.53062500000004,313.56829884648147L355.10888671875,304.46062601183763L356.68714843749996,287.9755152412046L358.26541015625,297.57497179067445L359.843671875,292.5598085789237L361.42193359375,309.5147148597718L363.00019531249995,310.05921993933936L364.57845703125,294.66937034593724L366.15671875,297.97266680747487L367.73498046875,306.42496626084744L369.31324218749995,307.9557722261876L370.89150390625,308.93027601907767L372.469765625,302.27713226323317L374.04802734375,297.53380747094155L375.6262890625,293.1398783038203L377.20455078125,304.1365027888561L378.7828125,288.0322234048758L380.36107421875005,287.2526563362554L381.9393359375,305.970939781643L383.51759765625,299.93556677158585L385.095859375,303.8372553452486L386.67412109375005,294.81980687492313L388.2523828125,293.7390110014418L389.83064453125,308.60913207152953L391.40890625,308.8403147739603L392.98716796875004,312.1875783880544L394.5654296875,299.78780039327665L396.14369140624996,304.38947720037515L397.721953125,296.209920192374L399.30021484375,291.37777163897215L400.8784765625,283.0324584977647L402.45673828124995,291.1336767385009L404.035,295.7884209543108L405.61326171875,294.0623665357064L407.1915234375,300.8860858935206L408.76978515624995,297.8836028972811L410.348046875,287.8212837744138L411.92630859375,300.06718076605165L413.5045703125,299.46323771580643L415.08283203125,299.17743687547755L416.66109375,293.6457375052554L418.23935546875,290.60666842601034L419.81761718750005,290.6218540191662L421.39587890625,278.2660201840736L422.974140625,288.9976295932326L424.55240234375,286.4469969867942L426.13066406250005,290.59253990137915L427.70892578125,297.70634160425027L429.2871875,285.7960846217235L430.86544921875,278.76310632776L432.44371093750004,280.47319619081827L434.02197265625,296.8665817189177L435.60023437499996,306.17989015213044L437.17849609375,294.84020201903627L438.7567578125,315.98240539483214L440.33501953125,328.5288849126164L441.91328124999995,304.70061519006333L443.49154296875,286.37908787942257L445.0698046875,300.2871353541192L446.64806640625,305.8844250086037L448.22632812499995,296.0711468862954L449.80458984375,295.0882065994801L451.3828515625,286.8771113429048L452.96111328125,301.3942571564483L454.539375,316.1455857969445L456.11763671875,305.88786701737416L457.6958984375,300.6890383996651L459.27416015625005,299.46635878092474L460.852421875,298.21305774483545L462.43068359375,294.8243885112084L464.0089453125,292.29809288222236L465.58720703125005,301.17776961147973L467.16546875,284.90256193382834L468.74373046875,283.8766726492966L470.3219921875,295.51096326039686L471.90025390625004,302.78452198090037L473.478515625,308.8588283692088L475.05677734374996,309.7708529703842L476.6350390625,307.77716988073485L478.21330078125,306.2139850359475L479.7915625,306.5306628795205L481.36982421874995,304.69891579478485L482.9480859375,305.06661251144993L484.52634765625,293.4854295663524L486.104609375,296.2761237962422L487.68287109374995,291.8771745556786L489.2611328125,291.97580815068716L490.83939453125,291.38748897206415L492.41765625,307.41707890638565L493.99591796875,301.9840997227678L495.5741796875,319.4978282424819L497.15244140625,304.00305611669216L498.73070312500005,303.91252189169364L500.30896484375,308.76595887315415L501.8872265625,303.4197930727654L503.46548828125,287.52729545429327L505.04375000000005,296.91294948675886L506.62201171875,291.93674509665135L508.2002734375,284.2190557541122L509.77853515625,291.88343297852924L511.35679687500004,308.02307672186686L512.93505859375,317.7050794745101L514.5133203125,328.95108167805586L516.09158203125,311.5689555948541L517.6698437499999,314.1280589746857L519.24810546875,308.7164587135925L520.8263671875,317.6215694915029L522.40462890625,311.0406119587601L523.982890625,306.22361248585224L525.56115234375,299.3649127197051L527.1394140625,299.46214200635785L528.71767578125,310.8279615471702L530.2959375,297.55656183783907L531.87419921875,301.2285118557802L533.4524609375,317.0023057103363L535.03072265625,312.92021299807493L536.608984375,314.09606920286313L538.18724609375,325.91822725747767L539.7655078125,315.2617709675079L541.34376953125,320.87340373620214L542.92203125,320.99081724004594L544.50029296875,310.4806956230397L546.0785546875,327.51654424606255L547.6568164062501,320.68317432028334L549.235078125,332.2237845764136L550.81333984375,318.21876271493693L552.3916015625,322.9592533554384L553.96986328125,323.81800141195646L555.548125,326.3196449419191L557.1263867187499,319.8317862519903L558.7046484375,302.9946669482483L560.28291015625,306.58570643735584L561.861171875,304.66048363732045L563.43943359375,311.29923581239683L565.0176953125,309.67348204215324L566.59595703125,302.4744700359894L568.17421875,301.7891137897026L569.75248046875,300.8050407873363L571.3307421875,310.9215229335532L572.90900390625,311.39795603307306L574.487265625,308.9455670077349L576.06552734375,305.3116712047708L577.6437890625,304.47800134438796L579.22205078125,307.13793463860924L580.8003125,311.2393137345349L582.37857421875,309.5107605167543L583.9568359375,323.91530454843706L585.53509765625,301.5200740651903L587.1133593750001,294.4228717998116L588.69162109375,312.2451601388696L590.2698828125,300.40787366828226L591.84814453125,305.66007195319884L593.42640625,314.7871596241747L595.00466796875,324.5899805118468L596.5829296874999,329.1603379411556L598.16119140625,316.99259352280035L599.739453125,302.4192056143024L601.31771484375,307.28778269015424L602.8959765625,297.61187716443635L604.47423828125,297.2034505411678L606.0525,297.28197683827653L607.63076171875,293.773675668749L609.2090234375,306.51882728966166L610.78728515625,305.6253919544804L612.365546875,322.59949894953377L613.94380859375,325.9534460094705L615.5220703125,328.6140673847486L617.10033203125,314.3042517499768L618.67859375,304.1608010191698L620.25685546875,299.1888261130193L621.8351171875,295.4883025570274L623.41337890625,286.0107762585802L624.991640625,294.57630502635004L626.5699023437501,286.63769859586716L628.1481640625,286.4928820611178L629.72642578125,310.1012672045505L631.3046875,315.31831010079986L632.88294921875,305.5354699394633L634.4612109374999,297.30079870283885L636.03947265625,310.62954071220474L637.617734375,308.8468243136227L639.19599609375,316.88594923892737L640.7742578125,308.6369367577494L642.3525195312501,316.9074359320719L643.93078125,315.1498550986177L645.50904296875,306.0715502572836L647.0873046874999,307.1753651411666L648.66556640625,311.38253223186564L650.243828125,317.6850527417699L651.82208984375,323.07379118854084L653.4003515625,302.9754961368647L654.9786132812501,290.79943702471667L656.556875,278.9981115250166L658.13513671875,294.5662349053841L659.7133984374999,305.3026836295688L661.29166015625,305.14019835169614L662.869921875,304.0767316501363L664.44818359375,313.3192843459102L666.0264453125,315.0671637520009L667.6047070312501,305.2700733223989L669.18296875,298.06093069930256L670.76123046875,305.16457824128634L672.3394921875,284.07076183669636L673.9177539062499,283.7781467793454L675.496015625,293.96208574804353L677.07427734375,302.0639644722862L678.6525390625,287.94487527526826L680.23080078125,287.0567774437812L681.8090625000001,292.3784854901057L683.38732421875,297.7012596467612L684.9655859375,305.6689194379722L686.5438476562499,302.36711147241687L688.122109375,313.6443098972221L689.70037109375,310.0095493067052L691.2786328125,299.21857411948497L692.85689453125,298.39473043216793L694.4351562500001,305.2742706571777L696.01341796875,307.6934474494183L697.5916796875,311.0633186171152L699.1699414062499,319.62160664658836L700.748203125,315.5659064698524L702.32646484375,324.54520151844883L703.9047265625,320.90642348328106L705.48298828125,309.57273793106106L707.0612500000001,323.05951460558276L708.63951171875,319.2607956292422L710.2177734375,317.1141768060193L711.79603515625,318.4502544725451L713.3742968749999,308.6411707144042L714.95255859375,309.67522199752165L716.5308203125,307.76923403098175L718.10908203125,309.14762617840125L719.68734375,304.62300839932647L721.2656054687501,317.584441680779L722.8438671875,317.0684443556906L724.42212890625,326.8371163669435L726.0003906249999,321.5564064960544L727.57865234375,309.6422251572196L729.1569140625,315.7066288940088L730.73517578125,310.8833731182622L732.3134375,304.369754667885L733.8916992187501,304.4958699227814L735.4699609375,317.3812300149157L737.04822265625,318.2569545838345L738.6264843749999,315.29667229441367L740.20474609375,316.47489934970764L741.7830078125,305.5413634339755L743.36126953125,320.0955853037437L744.93953125,326.719672979471L746.5177929687501,323.62494426120236L748.0960546875,311.328796543473L749.67431640625,310.92380740628994L751.252578125,297.8167754053244L752.8308398437499,294.1862713085195L754.4091015625,295.70844760502575L755.98736328125,306.8576165481712L757.565625,301.04682812462767L759.14388671875,299.46328825504116L760.7221484375001,302.6795043512734L762.30041015625,298.6128874402539L763.878671875,304.36874253697295L765.4569335937499,313.3895696768301L767.0351953125,316.0541995829535L768.61345703125,312.2709552871349L770.19171875,309.3341957963462L771.76998046875,291.55199286668244L773.3482421875001,307.6727412893656L774.92650390625,295.50407525359725L776.504765625,296.69370546841867L778.0830273437499,294.62791640392425L779.6612890625,299.4832611169663L781.23955078125,306.8482579808529L782.8178125,299.98571313954886L784.39607421875,295.76073232021594L785.9743359375001,306.36046538478007L787.55259765625,314.1141832914461L789.130859375,302.99808773030657L790.70912109375,317.439450602373L792.2873828124999,315.1369911520687L793.86564453125,308.880775612119L795.44390625,302.44477079663756L797.02216796875,306.67813370945686L798.6004296875,313.37672286606613L800.1786914062501,296.30554227572736L801.756953125,278.08771423875385L803.33521484375,289.2280613387127L804.9134765624999,301.9076711409172L806.49173828125,298.9169879819062L808.07,305.5295891364048L809.64826171875,313.6787223840745L811.2265234375,321.9964370348882L812.8047851562501,335.11810990177224L814.383046875,322.3023960516311L815.96130859375,334.59365873907245L817.5395703124999,321.45767202339357L819.11783203125,325.9092010189054L820.69609375,328.0641942592846L822.27435546875,322.85807347270566L823.8526171875,308.8954321413292L825.4308789062501,302.3229767192835L827.009140625,309.4333399473457L828.58740234375,291.3064447626451L830.1656640625,304.41667557205517L831.7439257812499,294.89572442810413L833.3221875,305.7617821085751L834.90044921875,308.2219611303534L836.4787109375,309.2222332541986L838.05697265625,303.31361691823855L839.6352343750001,299.41003015122135L841.21349609375,292.5682547121211L842.7917578125,289.64803444468544L844.3700195312499,302.4372233306333L845.94828125,297.85765489494395L847.52654296875,303.41339132462696L849.1048046875,329.39468541233776L850.68306640625,336.6004386373225L852.2613281250001,328.21110787710523L853.83958984375,322.28793623259L855.4178515625,322.83426931349175L856.9961132812499,300.99714435157745L858.574375,295.5309098495747L860.15263671875,289.6344907342061L861.7308984375,300.79347396226814L863.30916015625,313.8074603346457L864.8874218750001,317.2370176757768L866.46568359375,315.63726614246093L868.0439453125,300.32897202530233L869.62220703125,303.4372092404315L871.2004687499999,306.3739799022216L872.77873046875,303.650034367926L874.3569921875,293.0733713720281L875.93525390625,291.0890933945257L877.513515625,304.7511441777487L879.0917773437501,301.52352222146544L880.6700390625,292.4370855203612L882.24830078125,299.7701722844565L883.8265624999999,300.82303376755556L885.40482421875,308.79893134525497L886.9830859375,307.837786893023L888.56134765625,302.5329192298158L890.139609375,317.27268345475346L891.7178710937501,305.1566447208517L893.2961328125,300.9000837705987L894.87439453125,311.3790490075831L896.4526562499999,299.54081095398175L898.03091796875,292.5429699175582L899.6091796875,294.3543925764322L901.18744140625,295.5506364467414L902.765703125,297.8209400786796L904.3439648437501,309.16725425552147L905.9222265625,298.10160738724477L907.50048828125,307.4306509695401L909.07875,312.9215893558916L910.6570117187499,301.0923001706539L912.2352734375,294.5694974580334L913.81353515625,294.4346022339492L915.391796875,286.1496984141951L916.97005859375,286.5022019549258L918.5483203125001,294.20854873179667L920.12658203125,296.75396244003946L921.70484375,293.8884269295335L923.2831054687499,294.62730220415216L924.8613671875,289.03404916413626L926.43962890625,301.4506982935332L928.017890625,310.88704215964003L929.59615234375,311.65225619555946L931.1744140625001,310.794396650076L932.75267578125,303.662885038644L934.3309375,304.6169310761151L935.9091992187499,310.1810833956861L937.4874609375,298.2827117031333L939.06572265625,297.45015746104735L940.643984375,311.85697200866883L942.22224609375,292.0809420333047L943.8005078125001,296.88829493242457L945.37876953125,298.56626808114623L946.95703125,301.39405699627025L948.53529296875,295.75102679107437L950.1135546874999,294.08472395393005L951.69181640625,294.872297813854L953.270078125,289.06054378876127L954.84833984375,297.10388528545377L956.4266015625,294.0746993057832L958.0048632812501,281.6433981707805L959.583125,311.7617587405945L961.16138671875,316.51305798926063L962.7396484374999,298.25220275668033L964.31791015625,315.36475202263836L965.896171875,304.102146266805L967.47443359375,309.45614143556264L969.0526953125,329.811033429329L970.6309570312501,323.8938528141027L972.20921875,312.8248443463588L973.78748046875,313.04275840240615L975.3657421874999,308.4910734737898L976.94400390625,290.5838480416233L978.522265625,292.58989812615863L980.10052734375,294.98577799283913L981.6787890625,311.1763873681169L983.2570507812501,306.5413306076997L984.8353125,313.1023522657765L986.41357421875,310.3338586498508L987.9918359375,307.3576539323518L989.5700976562499,320.898512904488L991.148359375,340.82586028783305L992.72662109375,327.2616684318035L994.3048828125,315.2687756233251L995.88314453125,288.4684171190397L997.4614062500001,289.2231133830282L999.03966796875,286.4069811162542L1000.6179296875,296.34750082566643L1002.1961914062499,289.6397604444803L1003.774453125,293.47586024190093L1005.35271484375,294.1188085527207L1006.9309765625,303.7994790017958L1008.50923828125,304.3916978947002L1010.0875000000001,298.72487764668L1011.66576171875,302.7358547227117L1013.2440234375,295.18938153524294L1014.8222851562499,287.4454565054521L1016.400546875,283.9532186332796L1017.97880859375,277.39779205436366L1019.5570703125,291.5808666098021L1021.13533203125,310.27451646236966L1022.7135937500001,308.85719013991246L1024.29185546875,311.2895820097518L1025.8701171875,306.2388875503823L1027.44837890625,307.3947758479535L1029.026640625,306.51938075750144L1030.60490234375,306.1837947981147L1032.1831640625,306.6931445684344L1033.76142578125,309.25678032016395L1035.3396874999999,306.0219616809202L1036.91794921875,321.0547677456148L1038.4962109375,308.65251011679777L1040.07447265625,331.78665325741565L1041.652734375,325.42838925767904L1043.23099609375,313.3187564567706L1044.8092578125,322.7949061031872L1046.38751953125,343.97805655665815L1047.96578125,344.8735946766964L1049.54404296875,322.63922766364317L1051.1223046875,303.3757845037628L1052.70056640625,316.82193835940416L1054.278828125,317.11459170215744L1055.8570898437501,329.20392930760556L1057.4353515625,326.03455886308404L1059.01361328125,330.3741184480297L1060.591875,303.6450148180542L1062.17013671875,306.5833765774108L1063.7483984375,295.9701454223573L1065.32666015625,297.02775096615903L1066.904921875,298.07713045568084L1068.48318359375,297.3388668133045L1070.0614453125,294.8957761332217L1071.63970703125,310.6478070085239L1073.21796875,305.0598007266515L1074.7962304687499,303.3177799092366L1076.3744921875,294.04100668632407L1077.95275390625,305.1177551241053L1079.531015625,308.4506525692482L1081.10927734375,321.30753310973483L1082.6875390625,313.7061264256129L1084.26580078125,307.67154954032435L1085.8440625,322.75627642310053L1087.42232421875,322.6703865007613L1089.0005859375,319.6239561445692L1090.57884765625,310.23389107410884L1092.157109375,325.74777527273443L1093.73537109375,306.4140196697858L1095.3136328125001,316.41142448199844L1096.89189453125,321.5776440801582L1098.47015625,310.7421745501074L1100.04841796875,311.5319010605649L1101.6266796875,310.3617039072285L1103.20494140625,306.6067980298737L1104.46755078125,319.7771342633087" style="fill: none;" fill="none"></path></g></g></g></g><g opacity="0.2"><g><g><g><path stroke="rgb(204, 51, 17)" stroke-width="2px" d="M157.826171875,53.857142857142875L159.40443359375,90.71409325988662L160.9826953125,119.94318996410522L162.56095703125,114.18767895219273L164.13921875,130.2224216456451L165.71748046875,150.77747494854708L167.2957421875,130.81348676328665L168.87400390625,154.51646336437688L170.45226562500002,171.21524021514125L172.03052734375,165.69257377035416L173.60878906250002,161.86384617770133L175.18705078125,177.71753450434366L176.76531250000002,183.47472028582482L178.34357421874998,169.3303218751967L179.9218359375,189.60988390997494L181.50009765624998,182.11034906606983L183.078359375,193.77813546831365L184.65662109374998,205.17565272756883L186.2348828125,237.38168617274175L187.81314453125,203.7852852303489L189.39140625,204.536780258173L190.96966796875,217.20970033987564L192.5479296875,261.81855944402884L194.12619140625,228.26795541888467L195.704453125,204.6873281534499L197.28271484375,239.9601743939333L198.8609765625,207.33812078378554L200.43923828125,208.28836794063278L202.0175,214.75103679440844L203.59576171875,232.89424058521982L205.1740234375,223.71711349894915L206.75228515625,197.8567431256285L208.330546875,191.90764584324543L209.90880859375002,197.36932491525158L211.4870703125,274.9008931107164L213.06533203125002,216.07801910311724L214.64359375,221.97502251547547L216.22185546875002,268.8396467285738L217.80011718749998,259.236022964957L219.37837890625,267.40313861244084L220.95664062499998,254.3933654362273L222.53490234375,204.72346254414003L224.11316406249998,191.1778924385616L225.69142578125,204.33820311264412L227.2696875,254.78950992522402L228.84794921875,233.80871218404087L230.4262109375,242.8042765117821L232.00447265625,227.07758688360298L233.582734375,228.50402456433088L235.16099609375,246.8802080115833L236.7392578125,247.16060659571318L238.31751953125,268.92304547630556L239.89578125,251.7713455440876L241.47404296875,216.2160967619946L243.0523046875,277.4377657435746L244.63056640625,222.2443319477979L246.208828125,244.3205835646808L247.78708984375,239.74837748831595L249.36535156250002,289.92359733890316L250.94361328125,286.92322219519366L252.52187500000002,249.78192834863628L254.10013671875,251.97819609418207L255.67839843750002,293.386690269118L257.25666015625,305.4380399435261L258.83492187499996,252.23520836062164L260.41318359375,249.83150778509787L261.9914453125,251.6501601549006L263.56970703125,284.9326907770966L265.14796875,287.9116463403346L266.72623046875,273.4097965272247L268.3044921875,241.97693785295837L269.88275390625,264.51476382126094L271.461015625,249.87398733519697L273.03927734375,268.0373181006977L274.6175390625,317.3831755929732L276.19580078125,277.3127146377448L277.7740625,288.6512039181101L279.35232421875,282.7968451630405L280.9305859375,272.70180109216665L282.50884765625,282.4066445532581L284.087109375,291.1032888609987L285.66537109375,245.06444413277367L287.2436328125,315.7821752768626L288.82189453125,279.6588845663092L290.40015625,240.33637071506854L291.97841796875,268.41548351706507L293.55667968750004,244.81394879758983L295.13494140625,263.93320427898357L296.713203125,331.15787781037267L298.29146484374996,317.356122245798L299.8697265625,278.3225299755557L301.44798828125,288.9850610164617L303.02625,289.02579884304413L304.60451171875,310.01256566365595L306.1827734375,290.4472978014016L307.76103515625,278.9505990460609L309.339296875,301.0393566192569L310.91755859375,250.42694606241787L312.4958203125,267.62191097191646L314.07408203125,270.84801866282L315.65234375,292.08196527468294L317.23060546874996,319.21125333619545L318.8088671875,253.05061714573213L320.38712890625,282.74106880450853L321.965390625,296.9100454463871L323.54365234374995,287.78993746844975L325.1219140625,298.53252580384395L326.70017578125,324.213270285477L328.2784375,313.1932919686838L329.85669921874995,275.11788052607477L331.4349609375,308.9165680204694L333.01322265625,306.208265109518L334.591484375,307.7725753530309L336.16974609375,293.9915644098548L337.7480078125,284.2429550338429L339.32626953125,350.7043063978845L340.90453125000005,266.31178825851396L342.48279296875,337.44488373010074L344.0610546875,309.88080756503854L345.63931640625,279.83228476484646L347.21757812500005,276.57138601947696L348.79583984375,346.69798246489825L350.3741015625,246.5161122045322L351.95236328125,300.6568023091718L353.53062500000004,364.7428423200427L355.10888671875,287.1416605375037L356.68714843749996,257.75324344565837L358.26541015625,317.76228422373606L359.843671875,282.82076630178074L361.42193359375,346.74808031509787L363.00019531249995,311.1481512455978L364.57845703125,266.3042842843519L366.15671875,304.6785446140897L367.73498046875,324.08388767526844L369.31324218749995,311.0335141973031L370.89150390625,310.88366553275426L372.469765625,289.4661739587589L374.04802734375,288.309626099056L375.6262890625,284.57958841832914L377.20455078125,327.4488008720968L378.7828125,258.45348424983246L380.36107421875005,285.70466069728735L381.9393359375,347.5207777712805L383.51759765625,288.2771111365288L385.095859375,311.78398791426L386.67412109375005,277.66456962500484L388.2523828125,291.59630587864376L389.83064453125,340.85810146523704L391.40890625,309.3018683138282L392.98716796875004,318.9843506741008L394.5654296875,276.594779414841L396.14369140624996,313.7981819238393L397.721953125,280.5823382352128L399.30021484375,281.985198724829L400.8784765625,267.10163876601115L402.45673828124995,308.0254135258867L404.035,305.30842352380074L405.61326171875,290.65213674062005L407.1915234375,315.01193075523594L408.76978515624995,291.99135149022567L410.348046875,268.77902024248755L411.92630859375,326.2171083805864L413.5045703125,298.26285554107L415.08283203125,298.60841879701354L416.66109375,282.93236204038635L418.23935546875,284.64376605707207L419.81761718750005,290.65213674062005L421.39587890625,255.15014867715215L422.974140625,311.71327717867763L424.55240234375,281.42955292837956L426.13066406250005,299.04729384866636L427.70892578125,312.4567300921833L429.2871875,263.46437442719474L430.86544921875,265.24715047491173L432.44371093750004,283.91473884838524L434.02197265625,332.7449736707859L435.60023437499996,325.7333949125507L437.17849609375,273.5176910007122L438.7567578125,363.6227630234391L440.33501953125,355.36780379258494L441.91328124999995,262.51424762324564L443.49154296875,253.0864327395867L445.0698046875,330.27793277147043L446.64806640625,317.39220829604704L448.22632812499995,277.47685221344454L449.80458984375,293.13848632493534L451.3828515625,271.19179337891615L452.96111328125,332.81169669267337L454.539375,348.1143129162874L456.11763671875,286.49490530945263L457.6958984375,290.60295464752147L459.27416015625005,297.04419596539935L460.852421875,295.7306375605895L462.43068359375,288.1877435732754L464.0089453125,287.3278847578693L465.58720703125005,319.7747632509346L467.16546875,255.03469425059328L468.74373046875,281.8422262024237L470.3219921875,320.26647981103565L471.90025390625004,317.8797410549781L473.478515625,321.38061785913493L475.05677734374996,311.59838673453714L476.6350390625,303.8437592432627L478.21330078125,303.1228719606959L479.7915625,307.16319700746755L481.36982421874995,301.0818927889279L482.9480859375,305.8012535068473L484.52634765625,271.73507480884734L486.104609375,301.9255159523001L487.68287109374995,283.3073288737818L489.2611328125,292.1725888424382L490.83939453125,290.21806279054357L492.41765625,342.4225616027088L493.99591796875,291.4565364579663L495.5741796875,358.0889480971645L497.15244140625,275.4592046350069L498.73070312500005,303.73208318802676L500.30896484375,318.703261176315L501.8872265625,293.05578756806506L503.46548828125,258.30745143282957L505.04375000000005,316.62649986540214L506.62201171875,282.27140162644474L508.2002734375,269.43912078883477L509.77853515625,307.8248578755519L511.35679687500004,343.29222010189324L512.93505859375,338.07561761083065L514.5133203125,352.82651119863124L516.09158203125,279.8401802611594L517.6698437499999,319.3020790752723L519.24810546875,298.2291600534811L520.8263671875,336.2745345505068L522.40462890625,298.3639463322369L523.982890625,296.85974812964656L525.56115234375,286.1720889076924L527.1394140625,299.65611954578645L528.71767578125,334.974540232421L530.2959375,272.84018386555516L531.87419921875,308.69787989712063L533.4524609375,351.3963277616621L535.03072265625,304.95448937806776L536.608984375,316.45563422840326L538.18724609375,351.10100003507375L539.7655078125,295.15528891674217L541.34376953125,332.4115976442874L542.92203125,321.2250887359592L544.50029296875,290.6357417464981L546.0785546875,364.94599629652527L547.6568164062501,307.5373628560886L549.235078125,356.76660068260026L550.81333984375,292.2302826445828L552.3916015625,332.6592298335543L553.96986328125,325.5382839525629L555.548125,331.3759070637156L557.1263867187499,307.32846521108297L558.7046484375,272.1796624801832L560.28291015625,313.88724139296056L561.861171875,300.86076330976897L563.43943359375,325.02791512969145L565.0176953125,306.4597100229199L566.59595703125,288.6512039181101L568.17421875,300.42750904511263L569.75248046875,298.8530854890416L571.3307421875,332.2593491585318L572.90900390625,312.35040421329217L574.487265625,304.1188793981438L576.06552734375,298.2039011463036L577.6437890625,302.82305099451827L579.22205078125,312.5187739957274L580.8003125,319.6019597210542L582.37857421875,306.0956390175281L583.9568359375,355.0682208361613L585.53509765625,261.604270207439L587.1133593750001,280.7879825682056L588.69162109375,351.5899912911978L590.2698828125,278.20491254617184L591.84814453125,316.43765107182554L593.42640625,333.9293120747188L595.00466796875,345.2290105190698L596.5829296874999,338.50338753638613L598.16119140625,294.207315242125L599.739453125,275.45143211635826L601.31771484375,317.25692040924724L602.8959765625,279.26516444698893L604.47423828125,296.3908229244557L606.0525,297.4386252040958L607.63076171875,286.9070448062724L609.2090234375,333.81448391419127L610.78728515625,303.8523641685271L612.365546875,359.8793614216562L613.94380859375,332.7640390099206L615.5220703125,333.9963188963281L617.10033203125,287.78993746844975L618.67859375,284.97284128302033L620.25685546875,289.53148539199356L621.8351171875,288.25273708770857L623.41337890625,268.0221992546354L624.991640625,312.4833126098851L626.5699023437501,271.4518271786743L628.1481640625,286.2043402862571L629.72642578125,364.13424079447583L631.3046875,326.02165905932964L632.88294921875,286.99600312166166L634.4612109374999,281.57233304943736L636.03947265625,339.2730757426676L637.617734375,305.3257036083026L639.19599609375,333.6423188166444L640.7742578125,292.8822294546245L642.3525195312501,334.16870259104155L643.93078125,311.6779179930578L645.50904296875,288.80586189822196L647.0873046874999,309.38950415207773L648.66556640625,319.9658846256827L650.243828125,330.6938841949513L651.82208984375,334.139949354961L653.4003515625,266.76286275844205L654.9786132812501,267.99953153026007L656.556875,256.8586341371494L658.13513671875,328.4699926606651L659.7133984374999,328.02920986860755L661.29166015625,304.81648288929665L662.869921875,301.96818741628533L664.44818359375,332.7163894644265L666.0264453125,318.5854788970763L667.6047070312501,286.70493543148524L669.18296875,284.21893077944816L670.76123046875,319.8930703485583L672.3394921875,246.24334341341336L673.9177539062499,283.19558312118977L675.496015625,315.45052867004483L677.07427734375,318.9571416688785L678.6525390625,261.7594214440398L680.23080078125,285.29429179605114L681.8090625000001,303.3029192773349L683.38732421875,308.6279467134285L684.9655859375,322.2696091494508L686.5438476562499,295.8976333229022L688.122109375,337.5903005556106L689.70037109375,302.9001199714318L691.2786328125,278.8720177504845L692.85689453125,296.7592006575594L694.4351562500001,319.5201381869589L696.01341796875,312.5808316961623L697.5916796875,317.9068452123956L699.1699414062499,337.5127401088226L700.748203125,307.65059318625276L702.32646484375,343.3615134480417L703.9047265625,313.7892860322714L705.48298828125,288.26087445075115L707.0612500000001,352.0696613943496L708.63951171875,311.83704853841806L710.2177734375,312.8824603354124L711.79603515625,321.13365687605835L713.3742968749999,290.05443034856273L714.95255859375,311.74864084499865L716.5308203125,304.0070932153472L718.10908203125,311.9166478511283L719.68734375,295.81411299719684L721.2656054687501,345.3785416671187L722.8438671875,316.04237873607275L724.42212890625,347.4002199896562L726.0003906249999,311.31581806629015L727.57865234375,287.3035934702181L729.1569140625,328.20731292837854L730.73517578125,301.50765208749135L732.3134375,291.81845390052507L733.8916992187501,304.7475155062408L735.4699609375,344.9998659319146L737.04822265625,320.0114059121522L738.6264843749999,309.4859479141311L740.20474609375,318.8392522126498L741.7830078125,284.9407319036595L743.36126953125,351.6002019073798L744.93953125,340.41689978706256L746.5177929687501,317.5546102529214L748.0960546875,288.317765121109L749.67431640625,310.1180043780512L751.252578125,273.38666858807386L752.8308398437499,287.0850090965354L754.4091015625,298.7686962063811L755.98736328125,330.51418762379006L757.565625,289.8091711845236L759.14388671875,296.3322626371297L760.7221484375001,309.2054881358007L762.30041015625,290.67672126620846L763.878671875,316.21299146013564L765.4569335937499,332.2973921504483L767.0351953125,321.4446780469466L768.61345703125,304.8768510454666L770.19171875,303.56893051467114L771.76998046875,259.1554690571499L773.3482421875001,342.896591217549L774.92650390625,272.7171756038174L776.504765625,299.081088270254L778.0830273437499,290.55380075532935L779.6612890625,309.4245745550298L781.23955078125,322.14112432232974L782.8178125,286.78575390842843L784.39607421875,287.52232986260356L785.9743359375001,328.7798940445622L787.55259765625,330.24957760838174L789.130859375,282.07262058016175L790.70912109375,348.6788221018082L792.2873828124999,310.60179826484665L793.86564453125,296.8094798540869L795.44390625,290.0380704302641L797.02216796875,315.3161785793482L798.6004296875,327.2337948108056L800.1786914062501,265.09751998545556L801.756953125,244.96700624741362L803.33521484375,312.86470595740644L804.9134765624999,329.0525316399131L806.49173828125,293.0475288951577L808.07,319.20218321123775L809.64826171875,330.67498231043714L811.2265234375,339.36089953514306L812.8047851562501,363.28232324798216L814.383046875,298.38080170661846L815.96130859375,360.8474165663296L817.5395703124999,296.97710265021425L819.11783203125,335.0033566836904L820.69609375,332.4115976442874L822.27435546875,312.7582245555509L823.8526171875,282.98019158583185L825.4308789062501,289.6621346588088L827.009140625,324.1763134441649L828.58740234375,258.3366553645313L830.1656640625,332.55443729752596L831.7439257812499,276.8286911045719L833.3221875,328.7798940445622L834.90044921875,313.1932919686838L836.4787109375,311.22755427828963L838.05697265625,291.8925425554865L839.6352343750001,291.7855275617226L841.21349609375,279.40684120966847L842.7917578125,283.91473884838524L844.3700195312499,329.83426491306494L845.94828125,288.9443291357951L847.52654296875,314.83309997315746L849.1048046875,389.7753138331543L850.68306640625,351.54922548289363L852.2613281250001,312.19984695590256L853.83958984375,310.83958793271813L855.4178515625,323.9268671099705L856.9961132812499,261.97382989527426L858.574375,284.9407319036595L860.15263671875,278.236274839537L861.7308984375,324.4722155982357L863.30916015625,341.72286731642095L864.8874218750001,324.2040361258641L866.46568359375,312.47445853300945L868.0439453125,272.1029645596406L869.62220703125,309.7403648157553L871.2004687499999,312.3238343520104L872.77873046875,298.2965550976091L874.3569921875,273.10944787954855L875.93525390625,287.17404346780984L877.513515625,334.16870259104155L879.0917773437501,295.1969375534763L880.6700390625,275.1566433980638L882.24830078125,314.9940403870328L883.8265624999999,302.9343842210181L885.40482421875,325.41755981581167L886.9830859375,305.9310784395305L888.56134765625,292.24677158669886L890.139609375,349.21415044640463L891.7178710937501,282.46235410547587L893.2961328125,292.6014704975239L894.87439453125,333.52760865937285L896.4526562499999,277.336170261085L898.03091796875,279.09211616150964L899.6091796875,298.00187202377595L901.18744140625,297.9513775576345L902.765703125,302.40384205909913L904.3439648437501,333.26966599685994L905.9222265625,277.26584655740805L907.50048828125,327.01895427062647L909.07875,324.2040361258641L910.6570117187499,278.90345510793964L912.2352734375,282.0010932930776L913.81353515625,294.16581402477914L915.391796875,270.3293337605298L916.97005859375,287.20643015622284L918.5483203125001,310.2410700759815L920.12658203125,301.8999202744992L921.70484375,288.26087445075115L923.2831054687499,296.1064937417781L924.8613671875,278.20491254617184L926.43962890625,327.9917219124026L928.017890625,330.7128099180485L929.59615234375,313.1843941529984L931.1744140625001,309.09164616528784L932.75267578125,289.96449190443946L934.3309375,306.52910189868555L935.9091992187499,321.6186267416098L937.4874609375,275.97196555444435L939.06572265625,295.7974119311588L940.643984375,343.01521864511506L942.22224609375,256.39428819352935L943.8005078125001,306.728728171746L945.37876953125,301.9425878246371L946.95703125,307.11970308963436L948.53529296875,284.82833031553065L950.1135546874999,290.7915037657223L951.69181640625,296.44939550268987L953.270078125,277.82107554009986L954.84833984375,313.86944421487686L956.4266015625,288.13087939996024L958.0048632812501,258.3950549893007L959.583125,383.7036772660903L961.16138671875,326.2357329140708L962.7396484374999,265.06012935271104L964.31791015625,352.98019471999027L965.896171875,282.9164143442413L967.47443359375,320.448827616825L969.0526953125,375.4526965142441L970.6309570312501,312.4567300921833L972.20921875,291.98310462216153L973.78748046875,313.4777902354222L975.3657421874999,299.63073115831224L976.94400390625,257.97917845308797L978.522265625,296.6335522660504L980.10052734375,299.82548163477077L981.6787890625,346.56775102638323L983.2570507812501,297.52261317731285L984.8353125,326.6643739002796L986.41357421875,304.8941044267445L987.9918359375,301.51616496273937L989.5700976562499,350.03427924682273L991.148359375,385.39045488827384L992.72662109375,302.03649161725497L994.3048828125,292.79137518683683L995.88314453125,241.66728022312248L997.4614062500001,290.734106614664L999.03966796875,280.8750112583393L1000.6179296875,317.2929936333443L1002.1961914062499,276.72729848304573L1003.774453125,301.2861851219643L1005.35271484375,295.40529390063614L1006.9309765625,324.1670584720328L1008.50923828125,305.5763542249856L1010.0875000000001,287.7574829958891L1011.66576171875,310.91009862443906L1013.2440234375,280.72468544452636L1014.8222851562499,272.6172655744504L1016.400546875,277.117451848821L1017.97880859375,264.768647098693L1019.5570703125,322.2145494837363L1021.13533203125,351.763403663415L1022.7135937500001,306.05233180139163L1024.29185546875,316.20401825919356L1025.8701171875,296.4326563757642L1027.44837890625,309.71402135918026L1029.026640625,304.78198678895865L1030.60490234375,305.5158345797269L1032.1831640625,307.71157760481094L1033.76142578125,314.44009219162007L1035.3396874999999,299.6815102431767L1036.91794921875,353.6881771530501L1038.4962109375,285.45513682815647L1040.07447265625,384.5744914678932L1041.652734375,313.16664173984725L1043.23099609375,290.6357417464981L1044.8092578125,342.7088420135814L1046.38751953125,391.722911367683L1047.96578125,346.66793284815554L1049.54404296875,282.98019158583185L1051.1223046875,268.52904577830634L1052.70056640625,345.7377817473933L1054.278828125,317.69906367671643L1055.8570898437501,354.99595926070054L1057.4353515625,319.82025337026676L1059.01361328125,339.2340466474262L1060.591875,256.95305781977L1062.17013671875,312.5365063785676L1063.7483984375,275.9408752217609L1065.32666015625,299.14866924726107L1066.904921875,300.18145873230964L1068.48318359375,295.87256464516173L1070.0614453125,290.0871530626405L1071.63970703125,344.98989397099115L1073.21796875,294.2405285780659L1074.7962304687499,299.87629617164987L1076.3744921875,276.41557918306273L1077.95275390625,328.6108061242501L1079.531015625,315.21772045541826L1081.10927734375,348.8605211383803L1082.6875390625,299.1402282845267L1084.26580078125,296.01458386730195L1085.8440625,355.51253843133054L1087.42232421875,322.4991998348422L1089.0005859375,313.6468417790937L1090.57884765625,292.4034356497874L1092.157109375,359.52244459571614L1093.73537109375,271.4518271786743L1095.3136328125001,337.48366338679887L1096.89189453125,332.17373169930875L1098.47015625,290.31628052217883L1100.04841796875,313.1133277364243L1101.6266796875,308.0428626738459L1103.20494140625,299.2669904671278L1104.46755078125,348.0538871737803" style="fill: none;" fill="none"></path></g></g></g></g></g></g><g transform="translate(20, 377)" clip-path="url(#clip_1)"><clipPath id="clip_1"><rect width="1262" height="23"></rect></clipPath><g><g><line x1="0" y1="0" x2="0" y2="5" style="visibility: inherit;" fill="rgb(0, 0, 0)" stroke="rgb(204, 204, 204)" stroke-width="1px"></line><line x1="157.826171875" y1="0" x2="157.826171875" y2="5" style="visibility: inherit;" fill="rgb(0, 0, 0)" stroke="rgb(204, 204, 204)" stroke-width="1px"></line><line x1="315.65234375" y1="0" x2="315.65234375" y2="5" style="visibility: inherit;" fill="rgb(0, 0, 0)" stroke="rgb(204, 204, 204)" stroke-width="1px"></line><line x1="473.478515625" y1="0" x2="473.478515625" y2="5" style="visibility: inherit;" fill="rgb(0, 0, 0)" stroke="rgb(204, 204, 204)" stroke-width="1px"></line><line x1="631.3046875" y1="0" x2="631.3046875" y2="5" style="visibility: inherit;" fill="rgb(0, 0, 0)" stroke="rgb(204, 204, 204)" stroke-width="1px"></line><line x1="789.130859375" y1="0" x2="789.130859375" y2="5" style="visibility: inherit;" fill="rgb(0, 0, 0)" stroke="rgb(204, 204, 204)" stroke-width="1px"></line><line x1="946.95703125" y1="0" x2="946.95703125" y2="5" style="visibility: inherit;" fill="rgb(0, 0, 0)" stroke="rgb(204, 204, 204)" stroke-width="1px"></line><line x1="1104.783203125" y1="0" x2="1104.783203125" y2="5" style="visibility: inherit;" fill="rgb(0, 0, 0)" stroke="rgb(204, 204, 204)" stroke-width="1px"></line><line x1="1262.609375" y1="0" x2="1262.609375" y2="5" style="visibility: inherit;" fill="rgb(0, 0, 0)" stroke="rgb(204, 204, 204)" stroke-width="1px"></line></g><g transform="translate(0, 8)"><text x="0" y="0" dx="0em" dy="0.95em" style="text-anchor: middle; visibility: hidden; font-family: Roboto, sans-serif; font-size: 12px; font-weight: 200;" fill="rgb(255, 255, 255)" stroke="none" stroke-width="1px">-500</text><text x="157.826171875" y="0" dx="0em" dy="0.95em" style="text-anchor: middle; visibility: inherit; font-family: Roboto, sans-serif; font-size: 12px; font-weight: 200;" fill="rgb(255, 255, 255)" stroke="none" stroke-width="1px">0</text><text x="315.65234375" y="0" dx="0em" dy="0.95em" style="text-anchor: middle; visibility: inherit; font-family: Roboto, sans-serif; font-size: 12px; font-weight: 200;" fill="rgb(255, 255, 255)" stroke="none" stroke-width="1px">500</text><text x="473.478515625" y="0" dx="0em" dy="0.95em" style="text-anchor: middle; visibility: inherit; font-family: Roboto, sans-serif; font-size: 12px; font-weight: 200;" fill="rgb(255, 255, 255)" stroke="none" stroke-width="1px">1k</text><text x="631.3046875" y="0" dx="0em" dy="0.95em" style="text-anchor: middle; visibility: inherit; font-family: Roboto, sans-serif; font-size: 12px; font-weight: 200;" fill="rgb(255, 255, 255)" stroke="none" stroke-width="1px">1.5k</text><text x="789.130859375" y="0" dx="0em" dy="0.95em" style="text-anchor: middle; visibility: inherit; font-family: Roboto, sans-serif; font-size: 12px; font-weight: 200;" fill="rgb(255, 255, 255)" stroke="none" stroke-width="1px">2k</text><text x="946.95703125" y="0" dx="0em" dy="0.95em" style="text-anchor: middle; visibility: inherit; font-family: Roboto, sans-serif; font-size: 12px; font-weight: 200;" fill="rgb(255, 255, 255)" stroke="none" stroke-width="1px">2.5k</text><text x="1104.783203125" y="0" dx="0em" dy="0.95em" style="text-anchor: middle; visibility: inherit; font-family: Roboto, sans-serif; font-size: 12px; font-weight: 200;" fill="rgb(255, 255, 255)" stroke="none" stroke-width="1px">3k</text><text x="1262.609375" y="0" dx="0em" dy="0.95em" style="text-anchor: middle; visibility: hidden; font-family: Roboto, sans-serif; font-size: 12px; font-weight: 200;" fill="rgb(255, 255, 255)" stroke="none" stroke-width="1px">3.5k</text></g><line x1="0" y1="0" x2="1262.609375" y2="0" fill="rgb(0, 0, 0)" stroke="rgb(204, 204, 204)" stroke-width="1px"></line></g></g></g></g></svg>