<svg viewBox="0 0 1283 400" xmlns="http://www.w3.org/2000/svg"><g><g><g><g><g><line x1="20.390625" y1="325.9751468438006" x2="15.390625" y2="325.9751468438006" style="visibility: inherit;" fill="rgb(0, 0, 0)" stroke="rgb(204, 204, 204)" stroke-width="1px"></line><line x1="20.390625" y1="245.69163467496702" x2="15.390625" y2="245.69163467496702" style="visibility: inherit;" fill="rgb(0, 0, 0)" stroke="rgb(204, 204, 204)" stroke-width="1px"></line><line x1="20.390625" y1="183.4189046968631" x2="15.390625" y2="183.4189046968631" style="visibility: inherit;" fill="rgb(0, 0, 0)" stroke="rgb(204, 204, 204)" stroke-width="1px"></line><line x1="20.390625" y1="132.53837954366108" x2="15.390625" y2="132.53837954366108" style="visibility: inherit;" fill="rgb(0, 0, 0)" stroke="rgb(204, 204, 204)" stroke-width="1px"></line><line x1="20.390625" y1="89.51950848828804" x2="15.390625" y2="89.51950848828804" style="visibility: inherit;" fill="rgb(0, 0, 0)" stroke="rgb(204, 204, 204)" stroke-width="1px"></line><line x1="20.390625" y1="52.254867374827626" x2="15.390625" y2="52.254867374827626" style="visibility: inherit;" fill="rgb(0, 0, 0)" stroke="rgb(204, 204, 204)" stroke-width="1px"></line><line x1="20.390625" y1="19.38512441235508" x2="15.390625" y2="19.38512441235508" style="visibility: inherit;" fill="rgb(0, 0, 0)" stroke="rgb(204, 204, 204)" stroke-width="1px"></line></g><g transform="translate(10.390625, 0)"><text x="0" y="325.9751468438006" dx="0em" dy="0.3em" style="text-anchor: end; visibility: inherit; font-family: Roboto, sans-serif; font-size: 12px; font-weight: 200;" fill="rgb(255, 255, 255)" stroke="none" stroke-width="1px">3</text><text x="0" y="245.69163467496702" dx="0em" dy="0.3em" style="text-anchor: end; visibility: inherit; font-family: Roboto, sans-serif; font-size: 12px; font-weight: 200;" fill="rgb(255, 255, 255)" stroke="none" stroke-width="1px">4</text><text x="0" y="183.4189046968631" dx="0em" dy="0.3em" style="text-anchor: end; visibility: inherit; font-family: Roboto, sans-serif; font-size: 12px; font-weight: 200;" fill="rgb(255, 255, 255)" stroke="none" stroke-width="1px">5</text><text x="0" y="132.53837954366108" dx="0em" dy="0.3em" style="text-anchor: end; visibility: inherit; font-family: Roboto, sans-serif; font-size: 12px; font-weight: 200;" fill="rgb(255, 255, 255)" stroke="none" stroke-width="1px">6</text><text x="0" y="89.51950848828804" dx="0em" dy="0.3em" style="text-anchor: end; visibility: inherit; font-family: Roboto, sans-serif; font-size: 12px; font-weight: 200;" fill="rgb(255, 255, 255)" stroke="none" stroke-width="1px">7</text><text x="0" y="52.254867374827626" dx="0em" dy="0.3em" style="text-anchor: end; visibility: inherit; font-family: Roboto, sans-serif; font-size: 12px; font-weight: 200;" fill="rgb(255, 255, 255)" stroke="none" stroke-width="1px">8</text><text x="0" y="19.38512441235508" dx="0em" dy="0.3em" style="text-anchor: end; visibility: inherit; font-family: Roboto, sans-serif; font-size: 12px; font-weight: 200;" fill="rgb(255, 255, 255)" stroke="none" stroke-width="1px">9</text></g><line x1="20.390625" y1="0" x2="20.390625" y2="377" fill="rgb(0, 0, 0)" stroke="rgb(204, 204, 204)" stroke-width="1px"></line></g></g><g transform="translate(20, 0)" clip-path="url(#clip_0)"><clipPath id="clip_0"><rect width="1262" height="377"></rect></clipPath><g><g><g><line x1="0" y1="0" x2="0" y2="377" fill="rgb(0, 0, 0)" stroke="rgb(189, 189, 189)" stroke-width="1px" opacity="0.25"></line><line x1="157.826171875" y1="0" x2="157.826171875" y2="377" fill="rgb(0, 0, 0)" stroke="rgb(189, 189, 189)" stroke-width="1px" opacity="0.25"></line><line x1="315.65234375" y1="0" x2="315.65234375" y2="377" fill="rgb(0, 0, 0)" stroke="rgb(189, 189, 189)" stroke-width="1px" opacity="0.25"></line><line x1="473.478515625" y1="0" x2="473.478515625" y2="377" fill="rgb(0, 0, 0)" stroke="rgb(189, 189, 189)" stroke-width="1px" opacity="0.25"></line><line x1="631.3046875" y1="0" x2="631.3046875" y2="377" fill="rgb(0, 0, 0)" stroke="rgb(189, 189, 189)" stroke-width="1px" opacity="0.25"></line><line x1="789.130859375" y1="0" x2="789.130859375" y2="377" fill="rgb(0, 0, 0)" stroke="rgb(189, 189, 189)" stroke-width="1px" opacity="0.25"></line><line x1="946.95703125" y1="0" x2="946.95703125" y2="377" fill="rgb(0, 0, 0)" stroke="rgb(189, 189, 189)" stroke-width="1px" opacity="0.25"></line><line x1="1104.783203125" y1="0" x2="1104.783203125" y2="377" fill="rgb(0, 0, 0)" stroke="rgb(189, 189, 189)" stroke-width="1px" opacity="0.25"></line><line x1="1262.609375" y1="0" x2="1262.609375" y2="377" fill="rgb(0, 0, 0)" stroke="rgb(189, 189, 189)" stroke-width="1px" opacity="0.25"></line></g><g><line x1="0" y1="325.9751468438006" x2="1262.609375" y2="325.9751468438006" fill="rgb(0, 0, 0)" stroke="rgb(189, 189, 189)" stroke-width="1px" opacity="0.25"></line><line x1="0" y1="245.69163467496702" x2="1262.609375" y2="245.69163467496702" fill="rgb(0, 0, 0)" stroke="rgb(189, 189, 189)" stroke-width="1px" opacity="0.25"></line><line x1="0" y1="183.4189046968631" x2="1262.609375" y2="183.4189046968631" fill="rgb(0, 0, 0)" stroke="rgb(189, 189, 189)" stroke-width="1px" opacity="0.25"></line><line x1="0" y1="132.53837954366108" x2="1262.609375" y2="132.53837954366108" fill="rgb(0, 0, 0)" stroke="rgb(189, 189, 189)" stroke-width="1px" opacity="0.25"></line><line x1="0" y1="89.51950848828804" x2="1262.609375" y2="89.51950848828804" fill="rgb(0, 0, 0)" stroke="rgb(189, 189, 189)" stroke-width="1px" opacity="0.25"></line><line x1="0" y1="52.254867374827626" x2="1262.609375" y2="52.254867374827626" fill="rgb(0, 0, 0)" stroke="rgb(189, 189, 189)" stroke-width="1px" opacity="0.25"></line><line x1="0" y1="19.38512441235508" x2="1262.609375" y2="19.38512441235508" fill="rgb(0, 0, 0)" stroke="rgb(189, 189, 189)" stroke-width="1px" opacity="0.25"></line></g></g></g><g><g><line x1="157.826171875" y1="0" x2="157.826171875" y2="377" fill="rgb(0, 0, 0)" stroke="rgb(153, 153, 153)" stroke-width="1.5px"></line></g></g><g><g><g><g><g><path stroke="rgb(204, 51, 17)" stroke-width="2px" d="M157.826171875,53.857142857142875L159.40443359375,72.64779214432309L160.9826953125,89.18147903672552L162.56095703125,96.22471313712992L164.13921875,104.15253406297163L165.71748046875,113.47025548483757L167.2957421875,116.71217085785575L168.87400390625,122.99006883358376L170.45226562500002,130.31518232767812L172.03052734375,135.46383608360344L173.60878906250002,139.1591565257925L175.18705078125,144.22359950104322L176.76531250000002,149.17680731598202L178.34357421874998,151.70929592042717L179.9218359375,156.20817918827302L181.50009765624998,159.26108912801016L183.078359375,163.18517239607166L184.65662109374998,167.81015878857804L186.2348828125,175.02202242540443L187.81314453125,178.15082239248576L189.39140625,180.99226639820563L190.96966796875,184.785527526187L192.5479296875,192.27121018513526L194.12619140625,195.96547616892764L195.704453125,196.89212317526696L197.28271484375,201.191676484507L198.8609765625,201.8378824751096L200.43923828125,202.51155994642988L202.0175,203.77108539808077L203.59576171875,206.67405974997172L205.1740234375,208.3982613293267L206.75228515625,207.28795823413947L208.330546875,205.66108390785354L209.90880859375002,204.7967293534406L211.4870703125,211.22865444681102L213.06533203125002,211.7209158651735L214.64359375,212.7504490353993L216.22185546875002,217.9746914107497L217.80011718749998,221.90183516076348L219.37837890625,226.1962520030255L220.95664062499998,228.9276729958087L222.53490234375,226.38021036229648L224.11316406249998,222.61299160621894L225.69142578125,220.7123413116775L227.2696875,223.96737112906254L228.84794921875,224.9437166811168L230.4262109375,226.69159929186677L232.00447265625,226.73042106367663L233.582734375,226.90829393133922L235.16099609375,228.85243577903083L236.7392578125,230.63845103094351L238.31751953125,234.25423244027044L239.89578125,235.96372751012544L241.47404296875,233.9179912014228L243.0523046875,237.98946218789675L244.63056640625,236.3699446482377L246.208828125,237.1568350811891L247.78708984375,237.41548311637519L249.36535156250002,242.25315712958775L250.94361328125,246.4193635640641L252.52187500000002,246.75434475853532L254.10013671875,247.27310731593326L255.67839843750002,251.56198512434884L257.25666015625,256.5108540277162L258.83492187499996,256.079872592311L260.41318359375,255.44810021697003L261.9914453125,255.06564333264376L263.56970703125,257.91476388904664L265.14796875,260.77545392003793L266.72623046875,262.0142350794074L268.3044921875,259.9433488484011L269.88275390625,260.39736587524374L271.461015625,259.32650224257935L273.03927734375,260.1858036593398L274.6175390625,265.40793635729113L276.19580078125,266.5762094810285L277.7740625,268.70741084421303L279.35232421875,270.08514459673455L280.9305859375,270.34577224061803L282.50884765625,271.5289310252138L284.087109375,273.4261013552784L285.66537109375,270.4561398464868L287.2436328125,274.6721527081329L288.82189453125,275.1669060573025L290.40015625,271.4811303471151L291.97841796875,271.17301000725126L293.55667968750004,268.4219213930947L295.13494140625,267.9697442700164L296.713203125,273.6828220697593L298.29146484374996,277.75544935604324L299.8697265625,277.8121094763237L301.44798828125,278.9095565695713L303.02625,279.9048928258737L304.60451171875,282.773775709596L306.1827734375,283.5317365476345L307.76103515625,283.07020516056576L309.339296875,284.81600384050836L310.91755859375,281.1799076315119L312.4958203125,279.79403967505226L314.07408203125,278.88639765669114L315.65234375,280.17825970726096L317.23060546874996,283.84494099718796L318.8088671875,280.60796411846644L320.38712890625,280.82054607894685L321.965390625,282.3884140886797L323.54365234374995,282.92389351312124L325.1219140625,284.4460721785496L326.70017578125,288.17732084063863L328.2784375,290.5804139239345L329.85669921874995,288.9950185953632L331.4349609375,290.9244004945655L333.01322265625,292.41567658020256L334.591484375,293.91390199930606L336.16974609375,293.9216673150493L337.7480078125,292.9385448554495L339.32626953125,298.2058894107905L340.90453125000005,294.8473550351856L342.48279296875,298.82617605367886L344.0610546875,299.9121445760273L345.63931640625,297.8378755522122L347.21757812500005,295.63679468326103L348.79583984375,300.3424799144129L350.3741015625,294.46795374033405L351.95236328125,295.0807001430641L353.53062500000004,301.3146240342167L355.10888671875,299.8644926401713L356.68714843749996,295.3556525778135L358.26541015625,297.5170754854041L359.843671875,296.0121229585775L361.42193359375,300.69024081827655L363.00019531249995,301.71857264749593L364.57845703125,297.96793759569505L366.15671875,298.6317838080693L367.73498046875,301.07504405444575L369.31324218749995,302.05505179536937L370.89150390625,302.9254507234699L372.469765625,301.54993329718684L374.04802734375,300.1972738465326L375.6262890625,298.5955821834813L377.20455078125,301.35030944267925L378.7828125,296.75147370893L380.36107421875005,295.62690551917655L381.9393359375,300.4030081721156L383.51759765625,299.1664319784935L385.095859375,300.4028239665692L386.67412109375005,298.0437947846296L388.2523828125,297.39230116826445L389.83064453125,301.4466056420739L391.40890625,302.2222564724967L392.98716796875004,303.853879534103L394.5654296875,301.00498655324026L396.14369140624996,302.25823565012433L397.721953125,300.0132966873506L399.30021484375,298.1571673898373L400.8784765625,294.8914091092L402.45673828124995,296.1773404670976L404.035,297.07712112044123L405.61326171875,296.42792518576636L407.1915234375,298.2316152519831L408.76978515624995,297.6012720755285L410.348046875,294.5813492159734L411.92630859375,297.58834194099484L413.5045703125,297.6557199870606L415.08283203125,297.75084364831923L416.66109375,296.233081841426L418.23935546875,295.052251149693L419.81761718750005,294.6091045857439L421.39587890625,290.40248364670146L422.974140625,292.4618063528057L424.55240234375,291.3387471221126L426.13066406250005,292.100090373254L427.70892578125,294.070219789451L429.2871875,290.8541029545336L430.86544921875,288.18505244872017L432.44371093750004,287.75506857765384L434.02197265625,291.9413800902718L435.60023437499996,295.1422923555317L437.17849609375,292.9028526440336L438.7567578125,299.2208895289763L440.33501953125,304.3537264869L441.91328124999995,299.8759769858045L443.49154296875,294.82784331630506L445.0698046875,298.17694710482795L446.64806640625,300.04001794743294L448.22632812499995,297.6998192706216L449.80458984375,297.24031639499725L451.3828515625,294.5232922570147L452.96111328125,298.1242180606895L454.539375,302.7390145566145L456.11763671875,301.0713885227166L457.6958984375,300.0066963640517L459.27416015625005,299.7090271180513L460.852421875,299.3086262462253L462.43068359375,298.1763824429231L464.0089453125,297.07235738565583L465.58720703125005,299.2612717650795L467.16546875,294.50958005771537L468.74373046875,293.2166550096623L470.3219921875,295.80665924882254L471.90025390625004,297.9370413964673L473.478515625,300.19473727275584L475.05677734374996,301.31435994366296L476.6350390625,301.56627071076764L478.21330078125,301.72154070725855L479.7915625,302.26095623045615L481.36982421874995,302.1428254657106L482.9480859375,302.50651761875986L484.52634765625,299.2721285434376L486.104609375,299.5363348859779L487.68287109374995,297.87030012427294L489.2611328125,297.29526561489394L490.83939453125,296.57941403287066L492.41765625,300.83934056846005L493.99591796875,299.88673632206013L495.5741796875,305.19018938588647L497.15244140625,302.0704461068862L498.73070312500005,302.23616530477227L500.30896484375,303.8398317560002L501.8872265625,302.7424803904596L503.46548828125,297.9667683004949L505.04375000000005,299.77758807780316L506.62201171875,297.9767176838211L508.2002734375,294.98800364816555L509.77853515625,296.2454413415875L511.35679687500004,300.60886425156406L512.93505859375,304.13713110519933L514.5133203125,308.6411391512401L516.09158203125,305.6235518945018L517.6698437499999,306.9616260111054L519.24810546875,306.0759800981867L520.8263671875,308.95296065414607L522.40462890625,307.8757947974316L523.982890625,306.75441479796774L525.56115234375,304.6265139384529L527.1394140625,304.1254718853288L528.71767578125,307.0613745112955L530.2959375,303.444134113214L531.87419921875,303.96508018559734L533.4524609375,308.36147643971844L535.03072265625,308.01889991352857L536.608984375,308.85118796106724L538.18724609375,312.7996978420906L539.7655078125,310.98420177885407L541.34376953125,313.0544053631846L542.92203125,313.8607923532415L544.50029296875,311.44935539018456L546.0785546875,316.3604784319724L547.6568164062501,315.4655076953146L549.235078125,319.3311840060607L550.81333984375,316.49955297412316L552.3916015625,318.0740574788906L553.96986328125,318.8115599820285L555.548125,320.04284299050994L557.1263867187499,318.7450195604503L558.7046484375,313.72291238929114L560.28291015625,313.7393409359511L561.861171875,312.4244073539692L563.43943359375,313.6594503473752L565.0176953125,312.9310600148133L566.59595703125,310.4057829292017L568.17421875,309.3917466933687L569.75248046875,308.319790309291L571.3307421875,310.6234214519053L572.90900390625,310.7956395986253L574.487265625,310.1207291877414L576.06552734375,308.90588482876905L577.6437890625,308.2916002780781L579.22205078125,308.71144789245557L580.8003125,309.78157223914553L582.37857421875,309.4107804309442L583.9568359375,313.65470224465884L585.53509765625,307.99048686757345L587.1133593750001,305.1477705981139L588.69162109375,309.45926050280383L590.2698828125,306.1715318196623L591.84814453125,307.1813149528718L593.42640625,309.7436556614084L595.00466796875,313.09590260431986L596.5829296874999,315.5350519642432L598.16119140625,313.3274190553853L599.739453125,309.29995818695687L601.31771484375,310.0855224717806L602.8959765625,306.84573417131696L604.47423828125,305.7824405902303L606.0525,304.9367430771981L607.63076171875,303.08044436689494L609.2090234375,306.00593703440995L610.78728515625,305.78983035094916L612.365546875,310.75072045503885L613.94380859375,312.8755379085684L615.5220703125,314.91712044550536L617.10033203125,312.08262234170394L618.67859375,309.2500226469915L620.25685546875,307.2142783723165L621.8351171875,305.25908782739384L623.41337890625,301.3037048914198L624.991640625,302.4017261429055L626.5699023437501,299.14763513932553L628.1481640625,297.82595533621924L629.72642578125,303.7911846446621L631.3046875,305.9362168054468L632.88294921875,303.98329295392625L634.4612109374999,301.6594547995988L636.03947265625,305.2007235306141L637.617734375,305.21321901996L639.19599609375,307.9292931343507L640.7742578125,306.3875485521102L642.3525195312501,309.04446898344275L643.93078125,309.3066984192034L645.50904296875,307.18750245304335L647.0873046874999,307.40692239677844L648.66556640625,308.63768834531686L650.243828125,310.7664983110733L651.82208984375,313.01769356107417L653.4003515625,308.0316056828126L654.9786132812501,303.75989697297496L656.556875,298.6987867227278L658.13513671875,301.5369909902178L659.7133984374999,304.075867474511L661.29166015625,304.1498406312875L662.869921875,303.93090622215635L664.44818359375,306.6794629092435L666.0264453125,307.8474652939981L667.6047070312501,305.65966059305265L669.18296875,303.43992489500044L670.76123046875,305.0422686310144L672.3394921875,298.57262156117406L673.9177539062499,296.99622502117535L675.496015625,298.78769913330405L677.07427734375,300.7402970704208L678.6525390625,296.5878802275981L680.23080078125,295.4377315303909L681.8090625000001,296.2143498728582L683.38732421875,297.4311542562027L684.9655859375,299.8178478232063L686.5438476562499,299.42333897277837L688.122109375,303.0135378040757L689.70037109375,303.002193946334L691.2786328125,300.4930944760468L692.85689453125,300.11744892003026L694.4351562500001,301.99812729638666L696.01341796875,303.03852041709115L697.5916796875,304.4902084634567L699.1699414062499,307.62207481435786L700.748203125,307.624926520407L702.32646484375,310.99955504959377L703.9047265625,311.27727654655484L705.48298828125,308.8883125797021L707.0612500000001,312.91790609833953L708.63951171875,312.8096317672055L710.2177734375,312.8169137688172L711.79603515625,313.6375229813733L713.3742968749999,311.18748727718815L714.95255859375,311.2435518847299L716.5308203125,310.5114033548125L718.10908203125,310.65160980994955L719.68734375,309.13185364194817L721.2656054687501,312.55186926974187L722.8438671875,312.8989621462119L724.42212890625,316.16336159840426L726.0003906249999,315.6748004945643L727.57865234375,312.70431581253416L729.1569140625,314.21642982430706L730.73517578125,312.91918977767887L732.3134375,310.73585790735393L733.8916992187501,310.1312080228247L735.4699609375,313.4284372217279L737.04822265625,314.07979006458515L738.6264843749999,313.6169879616793L740.20474609375,314.13483866322485L741.7830078125,311.0741041808718L743.36126953125,314.8719239525064L744.93953125,317.3237332939554L746.5177929687501,317.34681239646596L748.0960546875,314.3041994669515L749.67431640625,313.88274285326816L751.252578125,309.55825175088717L752.8308398437499,307.2277198233028L754.4091015625,306.3701855552551L755.98736328125,308.6927295973051L757.565625,306.74582630549395L759.14388671875,305.68680871410305L760.7221484375001,306.0366869071381L762.30041015625,304.46208414914423L763.878671875,305.61515740486806L765.4569335937499,308.17146716246805L767.0351953125,309.4707374268792L768.61345703125,309.0079308349157L770.19171875,308.45923573566336L771.76998046875,303.1179505608315L773.3482421875001,306.85016189610593L774.92650390625,303.24276286671994L776.504765625,302.82379150714263L778.0830273437499,301.5722294260869L779.6612890625,302.3475956910396L781.23955078125,304.26495620806776L782.8178125,302.46694031986596L784.39607421875,300.93594729822485L785.9743359375001,303.59860580167407L787.55259765625,306.1520480378543L789.130859375,303.64843180636757L790.70912109375,307.83824086606415L792.2873828124999,308.11336834909343L793.86564453125,306.9621515012618L795.44390625,305.2228041116294L797.02216796875,306.2158716640328L798.6004296875,308.2478465204771L800.1786914062501,303.6199216455782L801.756953125,297.16788289814406L803.33521484375,298.6984259433266L804.9134765624999,301.5895073421518L806.49173828125,300.72344739118387L808.07,302.51722301841346L809.64826171875,305.20854050927494L811.2265234375,308.4417269750194L812.8047851562501,313.46552239926785L814.383046875,311.9198251582069L815.96130859375,316.44415821270167L817.5395703124999,314.4351963600384L819.11783203125,316.42512232498956L820.69609375,317.9831840209124L822.27435546875,317.45626388687873L823.8526171875,313.81056962611973L825.4308789062501,311.2994971364218L827.009140625,312.56076836861314L828.58740234375,306.6389950437763L830.1656640625,309.1248882716566L831.7439257812499,305.7218014564207L833.3221875,307.94374465912097L834.90044921875,308.46427794148997L836.4787109375,308.73937756781334L838.05697265625,307.00818572985725L839.6352343750001,305.44800583909813L841.21349609375,302.73178170206046L842.7917578125,300.7919453947039L844.3700195312499,303.5638880614051L845.94828125,302.0669829492029L847.52654296875,303.3176336474145L849.1048046875,310.85319755684503L850.68306640625,314.6659106885716L852.2613281250001,314.4183213662021L853.83958984375,314.05837576884187L855.4178515625,315.0296685875987L856.9961132812499,309.2465430690255L858.574375,306.71845993547663L860.15263671875,303.73581778475335L861.7308984375,305.7414796762613L863.30916015625,309.1378991907097L864.8874218750001,310.60843390023524L866.46568359375,310.79447588448863L868.0439453125,306.67482674659516L869.62220703125,306.97986963740055L871.2004687499999,307.509684596433L872.77873046875,306.5745634198083L874.3569921875,303.04159220485326L875.93525390625,301.4136174218386L877.513515625,304.52144513406085L879.0917773437501,303.5748487679158L880.6700390625,300.59921601848777L882.24830078125,302.0057419268118L883.8265624999999,302.0984672216045L885.40482421875,304.34462242468516L886.9830859375,304.50286280073806L888.56134765625,303.25274661801615L890.139609375,307.5228597104062L891.7178710937501,304.9130833846969L893.2961328125,303.65719117833464L894.87439453125,306.5044024085537L896.4526562499999,303.44650927911385L898.03091796875,300.9131732399823L899.6091796875,300.6206726105111L901.18744140625,300.3525912445361L902.765703125,300.5570391753481L904.3439648437501,303.6610487152321L905.9222265625,300.90631280095124L907.50048828125,303.4103321276005L909.07875,305.42135213306454L910.6570117187499,302.6532594557439L912.2352734375,300.5178962810295L913.81353515625,299.87614217845487L915.391796875,296.7766532914887L916.97005859375,295.8047265273776L918.5483203125001,297.2152152790716L920.12658203125,297.6801627215248L921.70484375,296.7237979452921L923.2831054687499,296.6620060421461L924.8613671875,294.76038665812575L926.43962890625,297.91100613650195L928.017890625,301.0230345250839L929.59615234375,302.2155972729594L931.1744140625001,302.89562818274766L932.75267578125,301.5752159146836L934.3309375,302.06666597061144L935.9091992187499,303.96135968514926L937.4874609375,301.03266911890876L939.06572265625,300.504701712721L940.643984375,304.47592899978713L942.22224609375,299.27743181871404L943.8005078125001,300.0136720776044L945.37876953125,300.2059647926738L946.95703125,300.88968166109913L948.53529296875,299.24130573746004L950.1135546874999,298.38471908359725L951.69181640625,298.19058165034363L953.270078125,296.08540994209267L954.84833984375,297.81367332142923L956.4266015625,296.8301351437753L958.0048632812501,292.73949918147287L959.583125,300.6121792134506L961.16138671875,303.07122135880024L962.7396484374999,299.0285044924568L964.31791015625,303.9778329083176L965.896171875,301.79870826685743L967.47443359375,303.60862312514365L969.0526953125,310.015744182573L970.6309570312501,310.2588842195009L972.20921875,308.37649880543125L973.78748046875,308.88245212005313L975.3657421874999,307.9433553627418L976.94400390625,302.5246805524622L978.522265625,301.92993989089115L980.10052734375,301.7187784938685L981.6787890625,305.8929109532331L983.2570507812501,305.04449296746765L984.8353125,307.13264955936035L986.41357421875,306.90798527977194L987.9918359375,306.36409122110894L989.5700976562499,310.4361359465324L991.148359375,317.088012814169L992.72662109375,315.5458003746754L994.3048828125,313.1850320463307L995.88314453125,305.15008149908397L997.4614062500001,303.6745079977605L999.03966796875,301.30889046149986L1000.6179296875,302.8667268945705L1002.1961914062499,300.13981810649784L1003.774453125,300.2542431325418L1005.35271484375,299.7655392455071L1006.9309765625,302.1118881327784L1008.50923828125,302.4564057339292L1010.0875000000001,300.9511810776217L1011.66576171875,301.93123148967004L1013.2440234375,299.73657455828993L1014.8222851562499,296.90293545677264L1016.400546875,294.8600578611344L1017.97880859375,291.70064307897155L1019.5570703125,294.60620309698214L1021.13533203125,299.8230507772192L1022.7135937500001,300.43975888054257L1024.29185546875,301.97671107723534L1025.8701171875,301.41732301701245L1027.44837890625,302.23598081554144L1029.026640625,302.4895387082191L1030.60490234375,302.79069575918135L1032.1831640625,303.278897583227L1033.76142578125,304.3751428020959L1035.3396874999999,303.9022112140396L1036.91794921875,308.49965224611543L1038.4962109375,306.10766113929014L1040.07447265625,313.0329431276055L1041.652734375,313.0463101068078L1043.23099609375,310.7225140290634L1044.8092578125,313.7611274118121L1046.38751953125,320.6472929410533L1047.96578125,323.1428571428572L1049.54404296875,318.8563008547853L1051.1223046875,313.3950101036531L1052.70056640625,316.46573712913636L1054.278828125,316.58882479674054L1055.8570898437501,320.2002338193102L1057.4353515625,320.16221248388814L1059.01361328125,322.0118021270398L1060.591875,314.7795774800357L1062.17013671875,314.55445732230726L1063.7483984375,310.4436277658118L1065.32666015625,309.2933369880914L1066.904921875,308.3686440772309L1068.48318359375,307.0935540762009L1070.0614453125,305.345513217312L1071.63970703125,309.0659228279638L1073.21796875,307.54743604752883L1074.7962304687499,306.77076326645346L1076.3744921875,303.58228647740265L1077.95275390625,305.9865118838816L1079.531015625,306.8960124433895L1081.10927734375,310.81963923206246L1082.6875390625,309.62945532786324L1084.26580078125,308.2376865888132L1085.8440625,312.6206748272168L1087.42232421875,313.5929395124912L1089.0005859375,313.59832927067185L1090.57884765625,311.4049197080367L1092.157109375,315.86007028286485L1093.73537109375,311.0874456838467L1095.3136328125001,313.6175103049438L1096.89189453125,315.4185838806003L1098.47015625,312.80427732550265L1100.04841796875,312.8351669698346L1101.6266796875,312.35221624990146L1103.20494140625,311.0157364454952L1104.46755078125,314.50602433604905" style="fill: none;" fill="none"></path></g><g><path stroke="rgb(0, 119, 187)" stroke-width="2px" d="M157.826171875,53.857142857142875L159.40443359375,72.60631670789229L160.9826953125,89.01417191643559L162.56095703125,95.75427238737589L164.13921875,103.28812550686476L165.71748046875,112.20996786198862L167.2957421875,114.87407140691315L168.87400390625,120.49219111172344L170.45226562500002,127.3091019079583L172.03052734375,132.1259951898173L173.60878906250002,135.0876930321625L175.18705078125,139.56656136094523L176.76531250000002,144.0073971261704L178.34357421874998,145.73206963723754L179.9218359375,149.0196416461312L181.50009765624998,151.95244785621233L183.078359375,155.22209824733065L184.65662109374998,159.45671402793485L186.2348828125,166.6303933366774L187.81314453125,169.46403502900685L189.39140625,171.55767463054866L190.96966796875,175.73806529995812L192.5479296875,182.4213853131798L194.12619140625,185.52872088375182L195.704453125,186.85473686014242L197.28271484375,190.59492556091712L198.8609765625,191.80735754269057L200.43923828125,191.9272132871624L202.0175,192.6640509287718L203.59576171875,194.64583005689056L205.1740234375,195.70103216350927L206.75228515625,194.289559916787L208.330546875,192.70111375366022L209.90880859375002,191.72309393702992L211.4870703125,197.2655480184345L213.06533203125002,197.1369806020505L214.64359375,198.26760965263722L216.22185546875002,202.69031206467199L217.80011718749998,205.6984235058829L219.37837890625,209.33141222074667L220.95664062499998,211.72914668583857L222.53490234375,208.86077802812972L224.11316406249998,206.07930295984812L225.69142578125,204.29122982516975L227.2696875,208.17348310752564L228.84794921875,208.78879987656478L230.4262109375,208.6706620716681L232.00447265625,209.65588320367002L233.582734375,208.46170544002572L235.16099609375,210.17032406329022L236.7392578125,212.24399655719563L238.31751953125,215.59402222554496L239.89578125,217.33227671526228L241.47404296875,215.5681272929339L243.0523046875,218.81421589933964L244.63056640625,217.90462322355438L246.208828125,218.81705838055407L247.78708984375,219.68878637507538L249.36535156250002,224.71104435178503L250.94361328125,229.4197848450253L252.52187500000002,228.46923918213676L254.10013671875,230.08476854734434L255.67839843750002,232.84960746241825L257.25666015625,235.98827771465128L258.83492187499996,234.56945089102248L260.41318359375,233.49071329383608L261.9914453125,233.63752664096396L263.56970703125,235.69506450928768L265.14796875,238.99341503126678L266.72623046875,241.26038466159548L268.3044921875,240.5016610789476L269.88275390625,242.65235001865233L271.461015625,241.1203531093801L273.03927734375,239.79530841496938L274.6175390625,244.56534388949066L276.19580078125,244.0679315841681L277.7740625,245.2523283945663L279.35232421875,246.28406528708624L280.9305859375,245.71202463637252L282.50884765625,246.69082425182955L284.087109375,249.48080407465082L285.66537109375,247.25561170259368L287.2436328125,251.03057735028025L288.82189453125,251.10244253284256L290.40015625,248.36688775849007L291.97841796875,248.9680171551252L293.55667968750004,247.2171160734031L295.13494140625,246.81046512949064L296.713203125,252.8273011949743L298.29146484374996,258.14097628576263L299.8697265625,257.92133008775204L301.44798828125,259.34201935382555L303.02625,260.4465558839728L304.60451171875,262.8282894197184L306.1827734375,263.9445799812018L307.76103515625,263.69477108668804L309.339296875,266.4762645766297L310.91755859375,263.3609403514894L312.4958203125,263.0770808310161L314.07408203125,263.30225301182776L315.65234375,264.6549245472341L317.23060546874996,268.25589403041033L318.8088671875,265.81503314859464L320.38712890625,266.4750779203364L321.965390625,267.83528217984053L323.54365234374995,268.41727422799363L325.1219140625,270.67183107927997L326.70017578125,274.8895076773509L328.2784375,277.6558105523666L329.85669921874995,276.130585975167L331.4349609375,278.54105368146173L333.01322265625,280.58923351965365L334.591484375,282.06376641688945L336.16974609375,282.5714021195928L337.7480078125,281.93298650296543L339.32626953125,287.41446375454785L340.90453125000005,283.9828849269932L342.48279296875,288.1038061470633L344.0610546875,289.7348379422077L345.63931640625,288.3625535940631L347.21757812500005,285.93713071086535L348.79583984375,290.86264736530444L350.3741015625,284.77218000961227L351.95236328125,285.6974437423814L353.53062500000004,292.18821977883437L355.10888671875,291.04752534103903L356.68714843749996,287.14072984839913L358.26541015625,288.890534477434L359.843671875,287.71576272516154L361.42193359375,292.6259943638195L363.00019531249995,293.9913550743006L364.57845703125,291.0875081157381L366.15671875,291.9375686409729L367.73498046875,294.15355312416017L369.31324218749995,294.87947044401676L370.89150390625,296.0386684189145L372.469765625,294.92544616583604L374.04802734375,293.89001304390206L375.6262890625,292.20869061584597L377.20455078125,294.77107395974724L378.7828125,290.01810242299746L380.36107421875005,288.87835859400855L381.9393359375,293.7909928184425L383.51759765625,292.512587823138L385.095859375,293.9078579830299L386.67412109375005,291.45749142181575L388.2523828125,291.1501346780757L389.83064453125,295.7526280666845L391.40890625,296.4826290137842L392.98716796875004,298.32497269114L394.5654296875,295.2714068929245L396.14369140624996,296.441386301666L397.721953125,293.8998243857906L399.30021484375,292.1556571297032L400.8784765625,288.8738675672525L402.45673828124995,290.3630722341184L404.035,291.30404081400997L405.61326171875,291.02202556466113L407.1915234375,292.76484914292644L408.76978515624995,292.7526357945422L410.348046875,290.0084678054063L411.92630859375,292.99579199458606L413.5045703125,293.04891024292397L415.08283203125,293.21168136408346L416.66109375,291.464471543711L418.23935546875,290.4339393652663L419.81761718750005,289.66484143814137L421.39587890625,285.6249377168544L422.974140625,287.5798011668209L424.55240234375,286.59085316482435L426.13066406250005,287.2727547954874L427.70892578125,289.4218909621736L429.2871875,286.3093605875582L430.86544921875,283.79565706231784L432.44371093750004,283.2379016886603L434.02197265625,287.007925377929L435.60023437499996,290.1601712014248L437.17849609375,288.16282053816667L438.7567578125,294.51247887055393L440.33501953125,299.4248262249908L441.91328124999995,295.27776045034585L443.49154296875,290.3689195739308L445.0698046875,293.67310228121505L446.64806640625,295.826039110545L448.22632812499995,293.5761681972604L449.80458984375,292.97558540022345L451.3828515625,290.35285236666033L452.96111328125,293.93864929573823L454.539375,298.5793867245526L456.11763671875,297.3773409674134L457.6958984375,296.15692329422535L459.27416015625005,295.7191928599294L460.852421875,295.299153095103L462.43068359375,294.3222304881434L464.0089453125,293.3970744634922L465.58720703125005,295.7884860501779L467.16546875,291.06337427479866L468.74373046875,289.68518628947254L470.3219921875,292.2990509377929L471.90025390625004,294.48561399685366L473.478515625,296.88703989540335L475.05677734374996,298.1460576734761L476.6350390625,298.4155010697912L478.21330078125,298.2856463813696L479.7915625,299.05434765574046L481.36982421874995,298.72187729008743L482.9480859375,299.24338007000046L484.52634765625,296.1590436861567L486.104609375,295.92065391883074L487.68287109374995,293.73852724643274L489.2611328125,293.3017177258163L490.83939453125,292.7555246703123L492.41765625,296.98711751590974L493.99591796875,296.07871026316076L495.5741796875,301.33648107888763L497.15244140625,298.3598761308544L498.73070312500005,298.27519523505003L500.30896484375,299.99847690985456L501.8872265625,298.70183948249417L503.46548828125,294.3980605924121L505.04375000000005,296.15725706606963L506.62201171875,294.4811100340859L508.2002734375,291.5064200115419L509.77853515625,292.99182548713355L511.35679687500004,297.64138555696974L512.93505859375,300.99701040652803L514.5133203125,305.47364231164886L516.09158203125,302.4628988655999L517.6698437499999,303.77001672428435L519.24810546875,302.9101810601229L520.8263671875,305.9160015872643L522.40462890625,304.65037762796254L523.982890625,303.4801566105635L525.56115234375,301.0860897010623L527.1394140625,300.92490421603856L528.71767578125,303.7809492488751L530.2959375,300.4191954398435L531.87419921875,300.8864257786257L533.4524609375,304.96411781224634L535.03072265625,304.5045404024319L536.608984375,305.00819117598144L538.18724609375,308.62708740398574L539.7655078125,306.92512269371616L541.34376953125,308.39944648458174L542.92203125,309.09571472044155L544.50029296875,306.9590726934361L546.0785546875,311.67586373862L547.6568164062501,310.8139588197316L549.235078125,315.0072834297239L550.81333984375,312.465889040242L552.3916015625,314.09693234151257L553.96986328125,314.8212741572804L555.548125,315.9257856407146L557.1263867187499,314.8859148020674L558.7046484375,309.8440910894366L560.28291015625,309.760855319256L561.861171875,308.7809840413717L563.43943359375,310.131643257768L565.0176953125,309.47101321444705L566.59595703125,306.94732504259173L568.17421875,306.05362374546286L569.75248046875,305.3113296813577L571.3307421875,307.4555407665124L572.90900390625,307.73720243356314L574.487265625,307.411545419863L576.06552734375,306.33909827996683L577.6437890625,305.94652989623313L579.22205078125,306.3019266785371L580.8003125,307.54802903945455L582.37857421875,307.2841072592984L583.9568359375,311.4262665819396L585.53509765625,305.98529784625947L587.1133593750001,302.9415281064792L588.69162109375,306.7847481793833L590.2698828125,303.77680047126233L591.84814453125,304.84050346517887L593.42640625,307.23543475903693L595.00466796875,310.47747834513393L596.5829296874999,313.0279581003723L598.16119140625,310.910532794519L599.739453125,306.8341963401133L601.31771484375,307.48974210368874L602.8959765625,304.16599999696416L604.47423828125,303.09998898481825L606.0525,301.94340852626726L607.63076171875,299.90753673875537L609.2090234375,302.76328337856927L610.78728515625,302.6229214415036L612.365546875,307.57877139458617L613.94380859375,309.56732784673665L615.5220703125,311.9967187165139L617.10033203125,309.1051796831779L618.67859375,306.3078780095651L620.25685546875,304.40755100540156L621.8351171875,302.3669856300398L623.41337890625,298.5124523059467L624.991640625,299.3511821281399L626.5699023437501,296.1521559719819L628.1481640625,294.7109734095506L629.72642578125,300.8909849037612L631.3046875,303.04916536791336L632.88294921875,301.2194208453148L634.4612109374999,298.84838556095514L636.03947265625,302.46282427898865L637.617734375,302.4141772030801L639.19599609375,305.17360461158216L640.7742578125,303.4826514583598L642.3525195312501,306.2919486575459L643.93078125,306.59408681198767L645.50904296875,304.3687816170174L647.0873046874999,304.7995453525309L648.66556640625,305.8603847152738L650.243828125,308.43961753138996L651.82208984375,310.6775535842653L653.4003515625,305.8864531008594L654.9786132812501,301.57633757792127L656.556875,296.46323596459507L658.13513671875,299.287185998723L659.7133984374999,301.913989603061L661.29166015625,301.796545276079L662.869921875,301.2776295314115L664.44818359375,303.97438178172155L666.0264453125,305.4680893028336L667.6047070312501,303.1505552268967L669.18296875,300.9909273046065L670.76123046875,302.78774469130167L672.3394921875,296.27947013246046L673.9177539062499,294.7916862161303L675.496015625,296.37984282248533L677.07427734375,298.27312142619905L678.6525390625,294.13176212718963L680.23080078125,293.04593541239984L681.8090625000001,293.9760248910821L683.38732421875,295.20622572338794L684.9655859375,297.55707985642084L686.5438476562499,297.14309760881906L688.122109375,300.7401765068259L689.70037109375,300.71144255402254L691.2786328125,298.27791987045845L692.85689453125,297.88247768461116L694.4351562500001,299.7122390850783L696.01341796875,300.82307007746084L697.5916796875,302.57495113398693L699.1699414062499,305.70528709588126L700.748203125,305.66557533209834L702.32646484375,309.0503620320815L703.9047265625,309.2112500141629L705.48298828125,306.89193087092826L707.0612500000001,310.9084391280026L708.63951171875,310.71829959697396L710.2177734375,310.6855097128946L711.79603515625,311.3630972818541L713.3742968749999,308.94301128475047L714.95255859375,308.9972574391223L716.5308203125,308.1859421750275L718.10908203125,308.11578212576467L719.68734375,306.6785676926963L721.2656054687501,310.10306426476836L722.8438671875,310.5355071421802L724.42212890625,313.3392594442567L726.0003906249999,313.0580846526712L727.57865234375,310.1742821185178L729.1569140625,311.65814829258983L730.73517578125,310.3429598939928L732.3134375,308.2150080618147L733.8916992187501,307.7373181196823L735.4699609375,310.8224953460991L737.04822265625,311.5264258674267L738.6264843749999,311.33141526419814L740.20474609375,311.9926468197295L741.7830078125,309.0814131872138L743.36126953125,312.9610087934007L744.93953125,315.4125790505432L746.5177929687501,315.64307711053664L748.0960546875,312.74969350250797L749.67431640625,312.13906249107447L751.252578125,307.84248744271514L752.8308398437499,305.41314520680726L754.4091015625,304.7536053320911L755.98736328125,307.05048445739436L757.565625,305.25689458766453L759.14388671875,303.77098911406415L760.7221484375001,304.2184782419863L762.30041015625,302.3894727436758L763.878671875,303.5525015532758L765.4569335937499,306.2436190713745L767.0351953125,307.7357146585329L768.61345703125,307.3458081255236L770.19171875,306.780779861687L771.76998046875,301.6252269280901L773.3482421875001,305.144486216063L774.92650390625,301.58788029188975L776.504765625,300.91834880605705L778.0830273437499,299.6679304691863L779.6612890625,300.5757248573969L781.23955078125,302.59634496260674L782.8178125,300.77796294308337L784.39607421875,299.15148823080114L785.9743359375001,301.8282391440277L787.55259765625,304.3679204655187L789.130859375,302.0334581121411L790.70912109375,306.1890434570082L792.2873828124999,306.5777238689162L793.86564453125,305.6450375844171L795.44390625,303.87082362795985L797.02216796875,304.8866282537741L798.6004296875,306.94605016406246L800.1786914062501,302.68283143464737L801.756953125,296.01087005166545L803.33521484375,297.5343825825636L804.9134765624999,300.30242476764863L806.49173828125,299.5032357862584L808.07,301.3904275970751L809.64826171875,303.9075088942858L811.2265234375,307.16123443304394L812.8047851562501,312.36012893252234L814.383046875,310.8720942713009L815.96130859375,315.2617445982696L817.5395703124999,313.1375551013516L819.11783203125,315.2119324832848L820.69609375,316.70314769441023L822.27435546875,316.09146385214916L823.8526171875,312.59165422098187L825.4308789062501,310.04857040123676L827.009140625,311.10483876913736L828.58740234375,305.31430432917045L830.1656640625,307.70818703089924L831.7439257812499,304.2681629436987L833.3221875,306.39479024334895L834.90044921875,306.6459450433796L836.4787109375,306.8747832565565L838.05697265625,305.1956021700553L839.6352343750001,303.9223364996763L841.21349609375,301.2370340505335L842.7917578125,299.35834836124377L844.3700195312499,301.8583120501944L845.94828125,300.50487226319757L847.52654296875,301.66108562176703L849.1048046875,309.11441447544297L850.68306640625,312.8890315725347L852.2613281250001,312.79785181152636L853.83958984375,312.4099429479036L855.4178515625,313.4871042748886L856.9961132812499,307.60654077672336L858.574375,305.02307360059336L860.15263671875,302.2171468408582L861.7308984375,304.20610413619806L863.30916015625,307.4766348961296L864.8874218750001,308.9946596761419L866.46568359375,309.1934966920318L868.0439453125,305.1958746087078L869.62220703125,305.53113695190115L871.2004687499999,306.0271474004746L872.77873046875,305.10709458363164L874.3569921875,301.4813662340629L875.93525390625,299.7105050264272L877.513515625,303.0096043936694L879.0917773437501,302.10140395315324L880.6700390625,299.0392109278695L882.24830078125,300.3811583051087L883.8265624999999,300.72549146389014L885.40482421875,302.88792690128173L886.9830859375,303.0304842847055L888.56134765625,301.8879377079372L890.139609375,306.207724327401L891.7178710937501,303.52980656993714L893.2961328125,302.4320464872584L894.87439453125,305.3409937494209L896.4526562499999,302.44139271077523L898.03091796875,299.9275842987826L899.6091796875,299.6336671748427L901.18744140625,299.3643335238827L902.765703125,299.4450914392382L904.3439648437501,302.53172317327716L905.9222265625,299.7429834082388L907.50048828125,302.2819085907066L909.07875,304.08499637026006L910.6570117187499,301.25173145453346L912.2352734375,299.11537336280975L913.81353515625,298.43686852304376L915.391796875,295.5778270989428L916.97005859375,294.5862804306704L918.5483203125001,295.9866454970112L920.12658203125,296.40999357669216L921.70484375,295.5142195462491L923.2831054687499,295.51666978000554L924.8613671875,293.6849852725981L926.43962890625,296.68396387900725L928.017890625,299.6791161580013L929.59615234375,300.9427757077706L931.1744140625001,301.46913618734914L932.75267578125,300.2860626558235L934.3309375,300.7655536640337L935.9091992187499,302.6725709664145L937.4874609375,299.7515999605464L939.06572265625,299.2302222043303L940.643984375,303.21532570698525L942.22224609375,298.1163867139048L943.8005078125001,298.88132917418017L945.37876953125,298.90805165979975L946.95703125,299.50006466069624L948.53529296875,297.8689704934309L950.1135546874999,297.07927335131535L951.69181640625,297.00364458719935L953.270078125,294.83519022793286L954.84833984375,296.5439232581568L956.4266015625,295.49255501666767L958.0048632812501,291.62688917749324L959.583125,299.3984416775872L961.16138671875,301.8418183003794L962.7396484374999,298.0605435443456L964.31791015625,302.9812772548781L965.896171875,301.0030166436562L967.47443359375,302.77130102428043L969.0526953125,309.1718534325596L970.6309570312501,309.1577008056198L972.20921875,307.0100887123699L973.78748046875,307.58221569842095L975.3657421874999,306.6448288010305L976.94400390625,301.2964095604442L978.522265625,300.848706628607L980.10052734375,300.74281528565433L981.6787890625,304.9002343191343L983.2570507812501,304.0788011077794L984.8353125,306.5577904799146L986.41357421875,306.29386671425107L987.9918359375,305.8634631979121L989.5700976562499,309.89196241352806L991.148359375,316.59180207825614L992.72662109375,315.0640541888752L994.3048828125,312.7373287032485L995.88314453125,304.56894127285204L997.4614062500001,302.8372029816715L999.03966796875,300.55136565997236L1000.6179296875,302.0213576287031L1002.1961914062499,299.2509811497267L1003.774453125,299.33543247477587L1005.35271484375,298.7592875882498L1006.9309765625,301.1286737641108L1008.50923828125,301.3904792836665L1010.0875000000001,300.0909110090802L1011.66576171875,301.2222418104472L1013.2440234375,299.02399353938637L1014.8222851562499,296.12001784245683L1016.400546875,294.00861635537734L1017.97880859375,290.7697745205184L1019.5570703125,293.8490508843191L1021.13533203125,299.0002784916965L1022.7135937500001,299.6145584789457L1024.29185546875,301.1336431713779L1025.8701171875,300.4867071841966L1027.44837890625,301.2382910804138L1029.026640625,301.66225323610223L1030.60490234375,301.85062913860077L1032.1831640625,302.2619807946168L1033.76142578125,303.4655941290975L1035.3396874999999,302.86471298520786L1036.91794921875,307.4649166205667L1038.4962109375,305.1979787056499L1040.07447265625,311.9749397132281L1041.652734375,311.94433959666327L1043.23099609375,309.57819066993585L1044.8092578125,312.5867396047256L1046.38751953125,319.32749449788423L1047.96578125,321.86801634784587L1049.54404296875,317.4887155429722L1051.1223046875,311.96996711543744L1052.70056640625,314.9853165117075L1054.278828125,315.0514807108896L1055.8570898437501,318.80098378859253L1057.4353515625,318.8492389767988L1059.01361328125,320.69874890367385L1060.591875,313.57077532042933L1062.17013671875,313.3906925859873L1063.7483984375,309.30087678149386L1065.32666015625,308.16587344237087L1066.904921875,307.25005934339L1068.48318359375,306.0686867877368L1070.0614453125,304.2995762859508L1071.63970703125,307.99576384380447L1073.21796875,306.40194326752675L1074.7962304687499,305.71045899526723L1076.3744921875,302.6052889335114L1077.95275390625,305.19097674697105L1079.531015625,306.0987496020789L1081.10927734375,310.0382512039428L1082.6875390625,308.8879703541235L1084.26580078125,307.4821493509063L1085.8440625,311.8723557660824L1087.42232421875,312.46021909073477L1089.0005859375,312.4510084040218L1090.57884765625,310.2596999834637L1092.157109375,314.69733247685366L1093.73537109375,310.04793582877056L1095.3136328125001,313.1144250672274L1096.89189453125,314.92438612790926L1098.47015625,312.24756960119896L1100.04841796875,312.38009222587755L1101.6266796875,311.75938452626565L1103.20494140625,310.36502410964636L1104.46755078125,313.83100347460356" style="fill: none;" fill="none"></path></g></g></g></g><g opacity="0.2"><g><g><g><path stroke="rgb(204, 51, 17)" stroke-width="2px" d="M157.826171875,53.857142857142875L159.40443359375,90.71409325988662L160.9826953125,119.94318996410522L162.56095703125,114.18767895219273L164.13921875,130.2224216456451L165.71748046875,150.77747494854708L167.2957421875,130.81348676328665L168.87400390625,154.51646336437688L170.45226562500002,171.21524021514125L172.03052734375,165.69257377035416L173.60878906250002,161.86384617770133L175.18705078125,177.71753450434366L176.76531250000002,183.47472028582482L178.34357421874998,169.3303218751967L179.9218359375,189.60988390997494L181.50009765624998,182.11034906606983L183.078359375,193.77813546831365L184.65662109374998,205.17565272756883L186.2348828125,237.38168617274175L187.81314453125,203.7852852303489L189.39140625,204.536780258173L190.96966796875,217.20970033987564L192.5479296875,261.81855944402884L194.12619140625,228.26795541888467L195.704453125,204.6873281534499L197.28271484375,239.9601743939333L198.8609765625,207.33812078378554L200.43923828125,208.28836794063278L202.0175,214.75103679440844L203.59576171875,232.89424058521982L205.1740234375,223.71711349894915L206.75228515625,197.8567431256285L208.330546875,191.90764584324543L209.90880859375002,197.36932491525158L211.4870703125,274.9008931107164L213.06533203125002,216.07801910311724L214.64359375,221.97502251547547L216.22185546875002,268.8396467285738L217.80011718749998,259.236022964957L219.37837890625,267.40313861244084L220.95664062499998,254.3933654362273L222.53490234375,204.72346254414003L224.11316406249998,191.1778924385616L225.69142578125,204.33820311264412L227.2696875,254.78950992522402L228.84794921875,233.80871218404087L230.4262109375,242.8042765117821L232.00447265625,227.07758688360298L233.582734375,228.50402456433088L235.16099609375,246.8802080115833L236.7392578125,247.16060659571318L238.31751953125,268.92304547630556L239.89578125,251.7713455440876L241.47404296875,216.2160967619946L243.0523046875,277.4377657435746L244.63056640625,222.2443319477979L246.208828125,244.3205835646808L247.78708984375,239.74837748831595L249.36535156250002,289.92359733890316L250.94361328125,286.92322219519366L252.52187500000002,249.78192834863628L254.10013671875,251.97819609418207L255.67839843750002,293.386690269118L257.25666015625,305.4380399435261L258.83492187499996,252.23520836062164L260.41318359375,249.83150778509787L261.9914453125,251.6501601549006L263.56970703125,284.9326907770966L265.14796875,287.9116463403346L266.72623046875,273.4097965272247L268.3044921875,241.97693785295837L269.88275390625,264.51476382126094L271.461015625,249.87398733519697L273.03927734375,268.0373181006977L274.6175390625,317.3831755929732L276.19580078125,277.3127146377448L277.7740625,288.6512039181101L279.35232421875,282.7968451630405L280.9305859375,272.70180109216665L282.50884765625,282.4066445532581L284.087109375,291.1032888609987L285.66537109375,245.06444413277367L287.2436328125,315.7821752768626L288.82189453125,279.6588845663092L290.40015625,240.33637071506854L291.97841796875,268.41548351706507L293.55667968750004,244.81394879758983L295.13494140625,263.93320427898357L296.713203125,331.15787781037267L298.29146484374996,317.356122245798L299.8697265625,278.3225299755557L301.44798828125,288.9850610164617L303.02625,289.02579884304413L304.60451171875,310.01256566365595L306.1827734375,290.4472978014016L307.76103515625,278.9505990460609L309.339296875,301.0393566192569L310.91755859375,250.42694606241787L312.4958203125,267.62191097191646L314.07408203125,270.84801866282L315.65234375,292.08196527468294L317.23060546874996,319.21125333619545L318.8088671875,253.05061714573213L320.38712890625,282.74106880450853L321.965390625,296.9100454463871L323.54365234374995,287.78993746844975L325.1219140625,298.53252580384395L326.70017578125,324.213270285477L328.2784375,313.1932919686838L329.85669921874995,275.11788052607477L331.4349609375,308.9165680204694L333.01322265625,306.208265109518L334.591484375,307.7725753530309L336.16974609375,293.9915644098548L337.7480078125,284.2429550338429L339.32626953125,350.7043063978845L340.90453125000005,266.31178825851396L342.48279296875,337.44488373010074L344.0610546875,309.88080756503854L345.63931640625,279.83228476484646L347.21757812500005,276.57138601947696L348.79583984375,346.69798246489825L350.3741015625,246.5161122045322L351.95236328125,300.6568023091718L353.53062500000004,364.7428423200427L355.10888671875,287.1416605375037L356.68714843749996,257.75324344565837L358.26541015625,317.76228422373606L359.843671875,282.82076630178074L361.42193359375,346.74808031509787L363.00019531249995,311.1481512455978L364.57845703125,266.3042842843519L366.15671875,304.6785446140897L367.73498046875,324.08388767526844L369.31324218749995,311.0335141973031L370.89150390625,310.88366553275426L372.469765625,289.4661739587589L374.04802734375,288.309626099056L375.6262890625,284.57958841832914L377.20455078125,327.4488008720968L378.7828125,258.45348424983246L380.36107421875005,285.70466069728735L381.9393359375,347.5207777712805L383.51759765625,288.2771111365288L385.095859375,311.78398791426L386.67412109375005,277.66456962500484L388.2523828125,291.59630587864376L389.83064453125,340.85810146523704L391.40890625,309.3018683138282L392.98716796875004,318.9843506741008L394.5654296875,276.594779414841L396.14369140624996,313.7981819238393L397.721953125,280.5823382352128L399.30021484375,281.985198724829L400.8784765625,267.10163876601115L402.45673828124995,308.0254135258867L404.035,305.30842352380074L405.61326171875,290.65213674062005L407.1915234375,315.01193075523594L408.76978515624995,291.99135149022567L410.348046875,268.77902024248755L411.92630859375,326.2171083805864L413.5045703125,298.26285554107L415.08283203125,298.60841879701354L416.66109375,282.93236204038635L418.23935546875,284.64376605707207L419.81761718750005,290.65213674062005L421.39587890625,255.15014867715215L422.974140625,311.71327717867763L424.55240234375,281.42955292837956L426.13066406250005,299.04729384866636L427.70892578125,312.4567300921833L429.2871875,263.46437442719474L430.86544921875,265.24715047491173L432.44371093750004,283.91473884838524L434.02197265625,332.7449736707859L435.60023437499996,325.7333949125507L437.17849609375,273.5176910007122L438.7567578125,363.6227630234391L440.33501953125,355.36780379258494L441.91328124999995,262.51424762324564L443.49154296875,253.0864327395867L445.0698046875,330.27793277147043L446.64806640625,317.39220829604704L448.22632812499995,277.47685221344454L449.80458984375,293.13848632493534L451.3828515625,271.19179337891615L452.96111328125,332.81169669267337L454.539375,348.1143129162874L456.11763671875,286.49490530945263L457.6958984375,290.60295464752147L459.27416015625005,297.04419596539935L460.852421875,295.7306375605895L462.43068359375,288.1877435732754L464.0089453125,287.3278847578693L465.58720703125005,319.7747632509346L467.16546875,255.03469425059328L468.74373046875,281.8422262024237L470.3219921875,320.26647981103565L471.90025390625004,317.8797410549781L473.478515625,321.38061785913493L475.05677734374996,311.59838673453714L476.6350390625,303.8437592432627L478.21330078125,303.1228719606959L479.7915625,307.16319700746755L481.36982421874995,301.0818927889279L482.9480859375,305.8012535068473L484.52634765625,271.73507480884734L486.104609375,301.9255159523001L487.68287109374995,283.3073288737818L489.2611328125,292.1725888424382L490.83939453125,290.21806279054357L492.41765625,342.4225616027088L493.99591796875,291.4565364579663L495.5741796875,358.0889480971645L497.15244140625,275.4592046350069L498.73070312500005,303.73208318802676L500.30896484375,318.703261176315L501.8872265625,293.05578756806506L503.46548828125,258.30745143282957L505.04375000000005,316.62649986540214L506.62201171875,282.27140162644474L508.2002734375,269.43912078883477L509.77853515625,307.8248578755519L511.35679687500004,343.29222010189324L512.93505859375,338.07561761083065L514.5133203125,352.82651119863124L516.09158203125,279.8401802611594L517.6698437499999,319.3020790752723L519.24810546875,298.2291600534811L520.8263671875,336.2745345505068L522.40462890625,298.3639463322369L523.982890625,296.85974812964656L525.56115234375,286.1720889076924L527.1394140625,299.65611954578645L528.71767578125,334.974540232421L530.2959375,272.84018386555516L531.87419921875,308.69787989712063L533.4524609375,351.3963277616621L535.03072265625,304.95448937806776L536.608984375,316.45563422840326L538.18724609375,351.10100003507375L539.7655078125,295.15528891674217L541.34376953125,332.4115976442874L542.92203125,321.2250887359592L544.50029296875,290.6357417464981L546.0785546875,364.94599629652527L547.6568164062501,307.5373628560886L549.235078125,356.76660068260026L550.81333984375,292.2302826445828L552.3916015625,332.6592298335543L553.96986328125,325.5382839525629L555.548125,331.3759070637156L557.1263867187499,307.32846521108297L558.7046484375,272.1796624801832L560.28291015625,313.88724139296056L561.861171875,300.86076330976897L563.43943359375,325.02791512969145L565.0176953125,306.4597100229199L566.59595703125,288.6512039181101L568.17421875,300.42750904511263L569.75248046875,298.8530854890416L571.3307421875,332.2593491585318L572.90900390625,312.35040421329217L574.487265625,304.1188793981438L576.06552734375,298.2039011463036L577.6437890625,302.82305099451827L579.22205078125,312.5187739957274L580.8003125,319.6019597210542L582.37857421875,306.0956390175281L583.9568359375,355.0682208361613L585.53509765625,261.604270207439L587.1133593750001,280.7879825682056L588.69162109375,351.5899912911978L590.2698828125,278.20491254617184L591.84814453125,316.43765107182554L593.42640625,333.9293120747188L595.00466796875,345.2290105190698L596.5829296874999,338.50338753638613L598.16119140625,294.207315242125L599.739453125,275.45143211635826L601.31771484375,317.25692040924724L602.8959765625,279.26516444698893L604.47423828125,296.3908229244557L606.0525,297.4386252040958L607.63076171875,286.9070448062724L609.2090234375,333.81448391419127L610.78728515625,303.8523641685271L612.365546875,359.8793614216562L613.94380859375,332.7640390099206L615.5220703125,333.9963188963281L617.10033203125,287.78993746844975L618.67859375,284.97284128302033L620.25685546875,289.53148539199356L621.8351171875,288.25273708770857L623.41337890625,268.0221992546354L624.991640625,312.4833126098851L626.5699023437501,271.4518271786743L628.1481640625,286.2043402862571L629.72642578125,364.13424079447583L631.3046875,326.02165905932964L632.88294921875,286.99600312166166L634.4612109374999,281.57233304943736L636.03947265625,339.2730757426676L637.617734375,305.3257036083026L639.19599609375,333.6423188166444L640.7742578125,292.8822294546245L642.3525195312501,334.16870259104155L643.93078125,311.6779179930578L645.50904296875,288.80586189822196L647.0873046874999,309.38950415207773L648.66556640625,319.9658846256827L650.243828125,330.6938841949513L651.82208984375,334.139949354961L653.4003515625,266.76286275844205L654.9786132812501,267.99953153026007L656.556875,256.8586341371494L658.13513671875,328.4699926606651L659.7133984374999,328.02920986860755L661.29166015625,304.81648288929665L662.869921875,301.96818741628533L664.44818359375,332.7163894644265L666.0264453125,318.5854788970763L667.6047070312501,286.70493543148524L669.18296875,284.21893077944816L670.76123046875,319.8930703485583L672.3394921875,246.24334341341336L673.9177539062499,283.19558312118977L675.496015625,315.45052867004483L677.07427734375,318.9571416688785L678.6525390625,261.7594214440398L680.23080078125,285.29429179605114L681.8090625000001,303.3029192773349L683.38732421875,308.6279467134285L684.9655859375,322.2696091494508L686.5438476562499,295.8976333229022L688.122109375,337.5903005556106L689.70037109375,302.9001199714318L691.2786328125,278.8720177504845L692.85689453125,296.7592006575594L694.4351562500001,319.5201381869589L696.01341796875,312.5808316961623L697.5916796875,317.9068452123956L699.1699414062499,337.5127401088226L700.748203125,307.65059318625276L702.32646484375,343.3615134480417L703.9047265625,313.7892860322714L705.48298828125,288.26087445075115L707.0612500000001,352.0696613943496L708.63951171875,311.83704853841806L710.2177734375,312.8824603354124L711.79603515625,321.13365687605835L713.3742968749999,290.05443034856273L714.95255859375,311.74864084499865L716.5308203125,304.0070932153472L718.10908203125,311.9166478511283L719.68734375,295.81411299719684L721.2656054687501,345.3785416671187L722.8438671875,316.04237873607275L724.42212890625,347.4002199896562L726.0003906249999,311.31581806629015L727.57865234375,287.3035934702181L729.1569140625,328.20731292837854L730.73517578125,301.50765208749135L732.3134375,291.81845390052507L733.8916992187501,304.7475155062408L735.4699609375,344.9998659319146L737.04822265625,320.0114059121522L738.6264843749999,309.4859479141311L740.20474609375,318.8392522126498L741.7830078125,284.9407319036595L743.36126953125,351.6002019073798L744.93953125,340.41689978706256L746.5177929687501,317.5546102529214L748.0960546875,288.317765121109L749.67431640625,310.1180043780512L751.252578125,273.38666858807386L752.8308398437499,287.0850090965354L754.4091015625,298.7686962063811L755.98736328125,330.51418762379006L757.565625,289.8091711845236L759.14388671875,296.3322626371297L760.7221484375001,309.2054881358007L762.30041015625,290.67672126620846L763.878671875,316.21299146013564L765.4569335937499,332.2973921504483L767.0351953125,321.4446780469466L768.61345703125,304.8768510454666L770.19171875,303.56893051467114L771.76998046875,259.1554690571499L773.3482421875001,342.896591217549L774.92650390625,272.7171756038174L776.504765625,299.081088270254L778.0830273437499,290.55380075532935L779.6612890625,309.4245745550298L781.23955078125,322.14112432232974L782.8178125,286.78575390842843L784.39607421875,287.52232986260356L785.9743359375001,328.7798940445622L787.55259765625,330.24957760838174L789.130859375,282.07262058016175L790.70912109375,348.6788221018082L792.2873828124999,310.60179826484665L793.86564453125,296.8094798540869L795.44390625,290.0380704302641L797.02216796875,315.3161785793482L798.6004296875,327.2337948108056L800.1786914062501,265.09751998545556L801.756953125,244.96700624741362L803.33521484375,312.86470595740644L804.9134765624999,329.0525316399131L806.49173828125,293.0475288951577L808.07,319.20218321123775L809.64826171875,330.67498231043714L811.2265234375,339.36089953514306L812.8047851562501,363.28232324798216L814.383046875,298.38080170661846L815.96130859375,360.8474165663296L817.5395703124999,296.97710265021425L819.11783203125,335.0033566836904L820.69609375,332.4115976442874L822.27435546875,312.7582245555509L823.8526171875,282.98019158583185L825.4308789062501,289.6621346588088L827.009140625,324.1763134441649L828.58740234375,258.3366553645313L830.1656640625,332.55443729752596L831.7439257812499,276.8286911045719L833.3221875,328.7798940445622L834.90044921875,313.1932919686838L836.4787109375,311.22755427828963L838.05697265625,291.8925425554865L839.6352343750001,291.7855275617226L841.21349609375,279.40684120966847L842.7917578125,283.91473884838524L844.3700195312499,329.83426491306494L845.94828125,288.9443291357951L847.52654296875,314.83309997315746L849.1048046875,389.7753138331543L850.68306640625,351.54922548289363L852.2613281250001,312.19984695590256L853.83958984375,310.83958793271813L855.4178515625,323.9268671099705L856.9961132812499,261.97382989527426L858.574375,284.9407319036595L860.15263671875,278.236274839537L861.7308984375,324.4722155982357L863.30916015625,341.72286731642095L864.8874218750001,324.2040361258641L866.46568359375,312.47445853300945L868.0439453125,272.1029645596406L869.62220703125,309.7403648157553L871.2004687499999,312.3238343520104L872.77873046875,298.2965550976091L874.3569921875,273.10944787954855L875.93525390625,287.17404346780984L877.513515625,334.16870259104155L879.0917773437501,295.1969375534763L880.6700390625,275.1566433980638L882.24830078125,314.9940403870328L883.8265624999999,302.9343842210181L885.40482421875,325.41755981581167L886.9830859375,305.9310784395305L888.56134765625,292.24677158669886L890.139609375,349.21415044640463L891.7178710937501,282.46235410547587L893.2961328125,292.6014704975239L894.87439453125,333.52760865937285L896.4526562499999,277.336170261085L898.03091796875,279.09211616150964L899.6091796875,298.00187202377595L901.18744140625,297.9513775576345L902.765703125,302.40384205909913L904.3439648437501,333.26966599685994L905.9222265625,277.26584655740805L907.50048828125,327.01895427062647L909.07875,324.2040361258641L910.6570117187499,278.90345510793964L912.2352734375,282.0010932930776L913.81353515625,294.16581402477914L915.391796875,270.3293337605298L916.97005859375,287.20643015622284L918.5483203125001,310.2410700759815L920.12658203125,301.8999202744992L921.70484375,288.26087445075115L923.2831054687499,296.1064937417781L924.8613671875,278.20491254617184L926.43962890625,327.9917219124026L928.017890625,330.7128099180485L929.59615234375,313.1843941529984L931.1744140625001,309.09164616528784L932.75267578125,289.96449190443946L934.3309375,306.52910189868555L935.9091992187499,321.6186267416098L937.4874609375,275.97196555444435L939.06572265625,295.7974119311588L940.643984375,343.01521864511506L942.22224609375,256.39428819352935L943.8005078125001,306.728728171746L945.37876953125,301.9425878246371L946.95703125,307.11970308963436L948.53529296875,284.82833031553065L950.1135546874999,290.7915037657223L951.69181640625,296.44939550268987L953.270078125,277.82107554009986L954.84833984375,313.86944421487686L956.4266015625,288.13087939996024L958.0048632812501,258.3950549893007L959.583125,383.7036772660903L961.16138671875,326.2357329140708L962.7396484374999,265.06012935271104L964.31791015625,352.98019471999027L965.896171875,282.9164143442413L967.47443359375,320.448827616825L969.0526953125,375.4526965142441L970.6309570312501,312.4567300921833L972.20921875,291.98310462216153L973.78748046875,313.4777902354222L975.3657421874999,299.63073115831224L976.94400390625,257.97917845308797L978.522265625,296.6335522660504L980.10052734375,299.82548163477077L981.6787890625,346.56775102638323L983.2570507812501,297.52261317731285L984.8353125,326.6643739002796L986.41357421875,304.8941044267445L987.9918359375,301.51616496273937L989.5700976562499,350.03427924682273L991.148359375,385.39045488827384L992.72662109375,302.03649161725497L994.3048828125,292.79137518683683L995.88314453125,241.66728022312248L997.4614062500001,290.734106614664L999.03966796875,280.8750112583393L1000.6179296875,317.2929936333443L1002.1961914062499,276.72729848304573L1003.774453125,301.2861851219643L1005.35271484375,295.40529390063614L1006.9309765625,324.1670584720328L1008.50923828125,305.5763542249856L1010.0875000000001,287.7574829958891L1011.66576171875,310.91009862443906L1013.2440234375,280.72468544452636L1014.8222851562499,272.6172655744504L1016.400546875,277.117451848821L1017.97880859375,264.768647098693L1019.5570703125,322.2145494837363L1021.13533203125,351.763403663415L1022.7135937500001,306.05233180139163L1024.29185546875,316.20401825919356L1025.8701171875,296.4326563757642L1027.44837890625,309.71402135918026L1029.026640625,304.78198678895865L1030.60490234375,305.5158345797269L1032.1831640625,307.71157760481094L1033.76142578125,314.44009219162007L1035.3396874999999,299.6815102431767L1036.91794921875,353.6881771530501L1038.4962109375,285.45513682815647L1040.07447265625,384.5744914678932L1041.652734375,313.16664173984725L1043.23099609375,290.6357417464981L1044.8092578125,342.7088420135814L1046.38751953125,391.722911367683L1047.96578125,346.66793284815554L1049.54404296875,282.98019158583185L1051.1223046875,268.52904577830634L1052.70056640625,345.7377817473933L1054.278828125,317.69906367671643L1055.8570898437501,354.99595926070054L1057.4353515625,319.82025337026676L1059.01361328125,339.2340466474262L1060.591875,256.95305781977L1062.17013671875,312.5365063785676L1063.7483984375,275.9408752217609L1065.32666015625,299.14866924726107L1066.904921875,300.18145873230964L1068.48318359375,295.87256464516173L1070.0614453125,290.0871530626405L1071.63970703125,344.98989397099115L1073.21796875,294.2405285780659L1074.7962304687499,299.87629617164987L1076.3744921875,276.41557918306273L1077.95275390625,328.6108061242501L1079.531015625,315.21772045541826L1081.10927734375,348.8605211383803L1082.6875390625,299.1402282845267L1084.26580078125,296.01458386730195L1085.8440625,355.51253843133054L1087.42232421875,322.4991998348422L1089.0005859375,313.6468417790937L1090.57884765625,292.4034356497874L1092.157109375,359.52244459571614L1093.73537109375,271.4518271786743L1095.3136328125001,337.48366338679887L1096.89189453125,332.17373169930875L1098.47015625,290.31628052217883L1100.04841796875,313.1133277364243L1101.6266796875,308.0428626738459L1103.20494140625,299.2669904671278L1104.46755078125,348.0538871737803" style="fill: none;" fill="none"></path></g><g><path stroke="rgb(0, 119, 187)" stroke-width="2px" d="M157.826171875,53.857142857142875L159.40443359375,90.63002606690077L160.9826953125,119.52114586983045L162.56095703125,112.91019445620411L164.13921875,127.98502106895195L165.71748046875,147.79934686136065L167.2957421875,126.397132382431L168.87400390625,148.49779679656436L170.45226562500002,165.1326683031367L172.03052734375,160.28736938141233L173.60878906250002,153.11097555205552L175.18705078125,168.94321195243026L176.76531250000002,174.52582146840305L178.34357421874998,157.59299102174424L179.9218359375,172.9731202594493L181.50009765624998,173.86163093418762L183.078359375,180.44320206928066L184.65662109374998,193.44238678697818L186.2348828125,228.6155624215414L187.81314453125,192.56436265950094L189.39140625,188.68693746218048L190.96966796875,211.72020026217322L192.5479296875,243.53026898563772L194.12619140625,212.41289451980288L195.704453125,198.08607305185532L197.28271484375,223.96872035181346L198.8609765625,202.22860285324714L200.43923828125,192.94526163449137L202.0175,199.02886674717158L203.59576171875,212.24572729471987L205.1740234375,204.96454520779852L206.75228515625,182.360444518134L208.330546875,179.26394615245775L209.90880859375002,183.33518893614595L211.4870703125,251.1232335855602L213.06533203125002,196.0113709505512L214.64359375,208.41653104459152L216.22185546875002,245.0574736719703L217.80011718749998,233.78862790924666L219.37837890625,243.73801917739726L220.95664062499998,233.94245292350197L222.53490234375,184.60468833253336L224.11316406249998,182.49391869129045L225.69142578125,188.85761027467706L227.2696875,245.3917870866317L228.84794921875,214.3392046008774L230.4262109375,207.6179849003984L232.00447265625,218.618127837071L233.582734375,198.00372924210876L235.16099609375,225.94424814898449L236.7392578125,231.53143182043507L238.31751953125,247.54662571049295L239.89578125,233.41449589507727L241.47404296875,200.22967718579835L243.0523046875,249.75362289629592L244.63056640625,209.87317477340977L246.208828125,227.14285564076798L247.78708984375,227.63942263383234L249.36535156250002,274.3900761653773L250.94361328125,275.7077061906368L252.52187500000002,220.07184643667532L254.10013671875,245.03659652389604L255.67839843750002,259.009068537263L257.25666015625,265.9064507976844L258.83492187499996,222.12889053041448L260.41318359375,223.97518347410553L261.9914453125,234.96106578819763L263.56970703125,254.91208375761138L265.14796875,270.5504130429946L266.72623046875,262.52166804183776L268.3044921875,233.76857695614598L269.88275390625,262.7811533875668L271.461015625,227.7048229405215L273.03927734375,228.14999568918358L274.6175390625,291.59630587864376L276.19580078125,239.63230110584658L277.7740625,256.14067138001053L279.35232421875,255.74258837282045L280.9305859375,240.6171115387564L282.50884765625,255.65581338463485L284.087109375,275.92532208560567L285.66537109375,227.99280397764406L287.2436328125,287.5142333290635L288.82189453125,251.74996006264726L290.40015625,224.88675035537483L291.97841796875,254.43654514445086L293.55667968750004,231.93626365005335L295.13494140625,243.17740534994851L296.713203125,313.75366284506543L298.29146484374996,311.1481512455978L299.8697265625,255.95240461839623L301.44798828125,272.46365018118695L303.02625,270.58854661404985L304.60451171875,285.22996439901556L306.1827734375,274.19684694364855L307.76103515625,261.45659733335907L309.339296875,292.8409248123645L310.91755859375,236.7863773550793L312.4958203125,260.5353379138884L314.07408203125,265.3369601544176L315.65234375,277.1330529511045L317.23060546874996,302.9429407300053L318.8088671875,244.7583063208848L320.38712890625,272.4866834382451L321.965390625,280.38477508222286L323.54365234374995,273.71046877265525L325.1219140625,291.82667628021443L326.70017578125,316.02442218892105L328.2784375,303.8695543255805L329.85669921874995,262.76631662589165L331.4349609375,301.2265886365454L333.01322265625,299.73231875736354L334.591484375,295.6972464167831L336.16974609375,287.18213013745276L337.7480078125,276.25206443636426L339.32626953125,342.29430967946445L340.90453125000005,254.86161071507843L342.48279296875,328.21668050937296L344.0610546875,304.85959873080446L345.63931640625,276.3065587073267L347.21757812500005,265.0077873165439L348.79583984375,339.6049737534171L350.3741015625,235.22298987825673L351.95236328125,294.16581402477914L353.53062500000004,358.6008194670945L355.10888671875,280.98583147281823L356.68714843749996,254.2422375948626L358.26541015625,305.1529920616706L359.843671875,277.35960922330787L361.42193359375,341.2017282046631L363.00019531249995,306.5898417061558L364.57845703125,266.2291661173714L366.15671875,299.70692343704314L367.73498046875,314.93144378759183L369.31324218749995,301.4991191557214L370.89150390625,306.6939949002927L372.469765625,285.10137322827217L374.04802734375,284.7400410645542L375.6262890625,277.51594415851685L377.20455078125,318.9571416688785L378.7828125,250.5334008914718L380.36107421875005,278.8248683534835L381.9393359375,342.3929688202827L383.51759765625,281.263074693859L385.095859375,306.78951144826965L386.67412109375005,270.32170280926834L388.2523828125,288.3990520924704L389.83064453125,340.9955013911543L391.40890625,303.1400172398234L392.98716796875004,315.4773979075024L394.5654296875,269.1961546405084L396.14369140624996,307.1979679935578L397.721953125,272.01093293604464L399.30021484375,276.9301019736964L400.8784765625,260.95504407205595L402.45673828124995,304.1360859803377L404.035,299.91865542194915L405.61326171875,288.4966316004498L407.1915234375,308.9603220438199L408.76978515624995,292.6427397112018L410.348046875,266.45454546757196L411.92630859375,321.42637051845736L413.5045703125,293.5274299825119L415.08283203125,294.68090947112364L416.66109375,276.21314912196175L418.23935546875,281.3264940636717L419.81761718750005,282.83670853282155L421.39587890625,251.67865863360882L422.974140625,305.8185641353849L424.55240234375,277.84457393149114L426.13066406250005,293.48602974200355L427.70892578125,309.5473347734805L429.2871875,259.7564822081038L430.86544921875,262.13657932802835L432.44371093750004,278.2676406578353L434.02197265625,323.44710368433505L435.60023437499996,320.25737532556485L437.17849609375,270.8022055204123L438.7567578125,359.2812881083604L440.33501953125,348.0236912091307L441.91328124999995,260.49118670654866L443.49154296875,249.68991659415997L445.0698046875,325.31545110012553L446.64806640625,315.9885339593231L448.22632812499995,274.1041407355344L449.80458984375,287.62772216645556L451.3828515625,267.7955508076448L452.96111328125,328.4699926606651L454.539375,344.234107490336L456.11763671875,286.78575390842843L457.6958984375,285.4068812549126L459.27416015625005,291.81021214013856L460.852421875,291.5469767267917L462.43068359375,285.68049108809504L464.0089453125,285.20585502942646L465.58720703125005,318.28666638537123L467.16546875,251.79273266444812L468.74373046875,277.57851758074577L470.3219921875,316.9955825820087L471.90025390625004,314.9761511656545L473.478515625,319.48377594437517L475.05677734374996,309.7403648157553L476.6350390625,300.8522704034031L478.21330078125,297.11966523107424L479.7915625,306.0696373600521L481.36982421874995,295.74733463084846L482.9480859375,303.98128541746L484.52634765625,269.83442650399354L486.104609375,293.78426050578435L487.68287109374995,274.83118033329083L489.2611328125,289.4008972611932L490.83939453125,287.88730418899485L492.41765625,338.26998563258314L493.99591796875,288.03342767455035L495.5741796875,353.7292566370224L497.15244140625,272.90940099324604L498.73070312500005,297.51422125371005L500.30896484375,316.00646679709416L501.8872265625,287.2954839721463L503.46548828125,258.3877608958752L505.04375000000005,312.50991879371287L506.62201171875,279.83228476484646L508.2002734375,266.0715105925099L509.77853515625,306.728728171746L511.35679687500004,343.39120911944053L512.93505859375,333.16464403073036L514.5133203125,349.36583281171664L516.09158203125,276.7350880272495L517.6698437499999,315.8180369769912L519.24810546875,295.2885983607707L520.8263671875,334.5329534563626L522.40462890625,293.51086520071186L523.982890625,293.163290872392L525.56115234375,280.4163644867608L527.1394140625,299.47840897893724L528.71767578125,330.892657043939L530.2959375,271.85765084725756L531.87419921875,305.1270780806731L533.4524609375,344.6217033327921L535.03072265625,300.40205038668745L536.608984375,309.5824250176619L538.18724609375,343.50015177847115L539.7655078125,292.05723700793993L541.34376953125,322.03104465720975L542.92203125,315.4415585944312L544.50029296875,288.4315812664835L546.0785546875,358.1515615815882L547.6568164062501,303.1743109584727L549.235078125,355.8850476841411L550.81333984375,290.57837661921354L552.3916015625,329.2218650556964L553.96986328125,321.42637051845736L555.548125,326.06817902827106L557.1263867187499,305.69743290291467L558.7046484375,268.15070851989344L560.28291015625,309.01284845098627L561.861171875,300.11360700161055L563.43943359375,322.5910802581349L565.0176953125,303.5946797359688L566.59595703125,285.20585502942646L568.17421875,298.1365485444175L569.75248046875,298.7180628142712L571.3307421875,327.53298073020125L572.90900390625,310.2850322713198L574.487265625,304.49760788480364L576.06552734375,296.8681403771903L577.6437890625,302.43804542609536L579.22205078125,309.5210304399038L580.8003125,319.02064789663393L582.37857421875,304.91997621547284L583.9568359375,351.763403663415L585.53509765625,261.2720984720392L587.1133593750001,276.94571121071596L588.69162109375,343.9859290345301L590.2698828125,278.07169012646364L591.84814453125,314.6008060513618L593.42640625,329.7682498987259L595.00466796875,341.4867583372841L596.5829296874999,337.0961552642401L598.16119140625,292.5436999144688L599.739453125,272.6019148836389L601.31771484375,313.4599979434636L602.8959765625,275.909769816209L604.47423828125,293.6848148351215L606.0525,291.74438490968646L607.63076171875,282.2236744349085L609.2090234375,329.8720012167077L610.78728515625,301.3628307812684L612.365546875,356.6523551185819L613.94380859375,328.1322941957452L615.5220703125,334.86887483235193L617.10033203125,284.3471158835938L618.67859375,282.31913698178323L620.25685546875,287.86296416073566L621.8351171875,284.64376605707207L623.41337890625,266.02649273432405L624.991640625,307.01539092330654L626.5699023437501,268.90030446467273L628.1481640625,282.06468062043956L629.72642578125,363.6973189725686L631.3046875,323.2627868579429L632.88294921875,285.2701577002752L634.4612109374999,278.36957587055747L636.03947265625,337.2898420653381L637.617734375,301.9767347026998L639.19599609375,331.3190213063864L640.7742578125,288.70817422400444L642.3525195312501,332.935662961064L643.93078125,309.3281519969713L645.50904296875,285.10137322827217L647.0873046874999,308.7066358072555L648.66556640625,315.5938967877654L650.243828125,332.7926508245154L651.82208984375,331.67008467452064L653.4003515625,266.10905488446L654.9786132812501,265.51668412546104L656.556875,254.2278650684433L658.13513671875,326.07749726468455L659.7133984374999,326.73897677556903L661.29166015625,300.74176456755345L662.869921875,296.6503034477662L664.44818359375,329.49493498804856L666.0264453125,319.2839115625036L667.6047070312501,283.1157975473306L669.18296875,282.27140162644474L670.76123046875,319.501956473427L672.3394921875,243.66875192795627L673.9177539062499,281.7469455549033L675.496015625,311.0952424569333L677.07427734375,315.91672855600655L678.6525390625,259.3898627659414L680.23080078125,283.4590527084211L681.8090625000001,302.48933794951677L683.38732421875,306.52910189868555L684.9655859375,319.6565062863427L686.5438476562499,293.4446356423348L688.122109375,335.38794474632283L689.70037109375,300.4529700262588L691.2786328125,277.28147458545646L692.85689453125,294.3484893263164L694.4351562500001,316.74347953210616L696.01341796875,311.02468497663614L697.5916796875,318.8573691801473L699.1699414062499,335.5804491889838L700.748203125,305.30842352380074L702.32646484375,341.5162551753767L703.9047265625,310.66343109542186L705.48298828125,286.84234462680695L707.0612500000001,349.92275623301526L708.63951171875,309.01284845098627L710.2177734375,310.3905739991749L711.79603515625,317.53657765943035L713.3742968749999,288.0577825755345L714.95255859375,309.4859479141311L716.5308203125,300.98832988388597L718.10908203125,307.48513416165787L719.68734375,294.0662323201938L721.2656054687501,342.9756627088808L722.8438671875,314.457947081932L724.42212890625,339.92752089705334L726.0003906249999,310.5401790429127L727.57865234375,285.4792869269885L729.1569140625,325.3804210270315L730.73517578125,298.7771259387928L732.3134375,289.76015689404625L733.8916992187501,303.4745097438667L735.4699609375,340.2406142381406L737.04822265625,317.94300255052485L738.6264843749999,309.5824250176619L740.20474609375,318.01530972898126L741.7830078125,284.16286949908726L743.36126953125,350.5417226536598L744.93953125,338.50338753638613L746.5177929687501,317.7261718235581L748.0960546875,287.9765949332012L749.67431640625,306.7026881621724L751.252578125,271.8883078388042L752.8308398437499,284.4512965128373L754.4091015625,298.88685639944276L755.98736328125,328.6202096490881L757.565625,289.6131267148426L759.14388671875,290.7422971072356L760.7221484375001,308.27850179410757L762.30041015625,286.44645037500703L763.878671875,314.24380628763174L765.4569335937499,331.70807005574636L767.0351953125,321.5362118803174L768.61345703125,303.8609488702621L770.19171875,301.74635481880733L771.76998046875,259.0676265095466L773.3482421875001,338.99027324675075L774.92650390625,271.4671329789925L776.504765625,294.96376932824637L778.0830273437499,288.6593529084488L779.6612890625,308.881561395977L781.23955078125,321.47213068000906L782.8178125,284.9246690269364L784.39607421875,284.9246690269364L785.9743359375001,327.1497051383776L787.55259765625,328.32922784661173L789.130859375,281.85811262946396L790.70912109375,346.66793284815554L792.2873828124999,310.10042500027555L793.86564453125,297.38823253884175L795.44390625,288.39093008337744L797.02216796875,314.1991948067814L798.6004296875,326.1984850899793L800.1786914062501,266.98867371326315L801.756953125,242.2110988195479L803.33521484375,311.63373584406395L804.9134765624999,326.5338501706954L806.49173828125,292.4116949486912L808.07,318.9752879206402L809.64826171875,327.6452526175663L811.2265234375,338.28940902124896L812.8047851562501,364.1022539006742L814.383046875,297.82521142520017L815.96130859375,358.22464500355704L817.5395703124999,294.71415939453044L819.11783203125,334.6096900399941L820.69609375,330.49527536542297L822.27435546875,310.64581732725566L823.8526171875,282.92437857440547L825.4308789062501,288.1471278910515L827.009140625,320.7955930969713L828.58740234375,257.98646187501913L830.1656640625,330.2306832732136L831.7439257812499,275.0791230375027L833.3221875,326.30091746911194L834.90044921875,308.9165680204694L836.4787109375,308.9428154381976L838.05697265625,290.52102328136687L839.6352343750001,292.71704755343603L841.21349609375,278.1657239784993L842.7917578125,282.9961429270997L844.3700195312499,325.4268563528052L845.94828125,288.61052073308656L847.52654296875,312.2883977268761L849.1048046875,387.02960169694313L850.68306640625,349.3759623723951L852.2613281250001,311.97857178445224L853.83958984375,308.9428154381976L855.4178515625,323.373353555823L856.9961132812499,259.6097836238653L858.574375,282.7888845715976L860.15263671875,278.1578943997234L861.7308984375,322.77495383165325L863.30916015625,338.7759444467007L864.8874218750001,323.0417847939256L866.46568359375,310.9894339439823L868.0439453125,271.5819258705312L869.62220703125,308.5667617362256L871.2004687499999,310.5313654163416L872.77873046875,296.96033184148894L874.3569921875,270.80984962213074L875.93525390625,284.25897871886644L877.513515625,334.6001053910299L879.0917773437501,294.05792390927166L880.6700390625,272.8940158881769L882.24830078125,312.7582245555509L883.8265624999999,303.8437592432627L885.40482421875,323.14304287509964L886.9830859375,304.3167883908274L888.56134765625,291.81021214013856L890.139609375,348.42666109574776L891.7178710937501,280.51910657699835L893.2961328125,292.74181466884227L894.87439453125,332.98334996408295L896.4526562499999,277.6176237706158L898.03091796875,278.2676406578353L899.6091796875,297.00225075744254L901.18744140625,296.95195680897564L902.765703125,300.17296625379095L904.3439648437501,331.9645500557232L905.9222265625,275.8242570887612L907.50048828125,326.2357329140708L909.07875,320.8595191184654L910.6570117187499,276.96911740004913L912.2352734375,280.5902549809911L913.81353515625,292.4034356497874L915.391796875,271.0847942380938L916.97005859375,285.8174158726283L918.5483203125001,308.9165680204694L920.12658203125,300.2493067387349L921.70484375,287.57907015859314L923.2831054687499,295.53872285195274L924.8613671875,277.7193404433164L926.43962890625,325.2319595156958L928.017890625,328.18855635454645L929.59615234375,312.5808316961623L931.1744140625001,306.25159653263654L932.75267578125,289.8582135712721L934.3309375,305.11845434264916L935.9091992187499,320.448827616825L937.4874609375,274.7537503148877L939.06572265625,294.5811438262183L940.643984375,341.90009197710884L942.22224609375,255.9886118509821L943.8005078125001,305.8618350869181L945.37876953125,299.14866924726107L946.95703125,304.8854673206601L948.53529296875,283.60287523147514L950.1135546874999,290.07079122598407L951.69181640625,296.3239064317984L953.270078125,276.041963923275L954.84833984375,312.41242447996115L956.4266015625,286.2043402862571L958.0048632812501,259.05298586449567L959.583125,381.2321317534627L961.16138671875,324.8518290151599L962.7396484374999,266.1540860640972L964.31791015625,351.67158941233123L965.896171875,283.8027496597055L967.47443359375,319.21125333619545L969.0526953125,374.5323413993602L970.6309570312501,309.03035945060105L972.20921875,288.39093008337744L973.78748046875,312.7848358086503L975.3657421874999,298.3470919758301L976.94400390625,257.2801252742292L978.522265625,296.85137611510953L980.10052734375,299.791596954929L981.6787890625,345.39848996395466L983.2570507812501,296.7927191153752L984.8353125,329.9191675260594L986.41357421875,303.9297179683486L987.9918359375,302.01941399964716L989.5700976562499,349.0322210955084L991.148359375,385.4595317514059L992.72662109375,301.6781215850645L994.3048828125,292.6262273572887L995.88314453125,240.1584662855569L997.4614062500001,287.71692988068116L999.03966796875,280.7800602113261L1000.6179296875,315.6118042835681L1002.1961914062499,275.4824864742947L1003.774453125,300.0966466462983L1005.35271484375,293.62681957548284L1006.9309765625,323.4102261838281L1008.50923828125,303.75784746817186L1010.0875000000001,288.6593529084488L1011.66576171875,311.616060729603L1013.2440234375,279.982149319806L1014.8222851562499,271.2606028151102L1016.400546875,275.6921660436625L1017.97880859375,263.19683244670864L1019.5570703125,323.20750895214866L1021.13533203125,350.21683904893086L1022.7135937500001,305.2047860682349L1024.29185546875,315.1908548694001L1025.8701171875,294.73079575663667L1027.44837890625,308.0952166648313L1029.026640625,305.5071782102068L1030.60490234375,303.55175886488934L1032.1831640625,305.99168821208394L1033.76142578125,314.5382975840023L1035.3396874999999,297.51422125371005L1036.91794921875,352.6831625797199L1038.4962109375,285.5838911485756L1040.07447265625,381.75423073107356L1041.652734375,311.6690894317385L1043.23099609375,289.13990417896036L1044.8092578125,341.23119492976866L1046.38751953125,388.6784331080272L1047.96578125,345.8376421980832L1049.54404296875,280.89084271919376L1051.1223046875,266.67259309868376L1052.70056640625,343.6983362155903L1054.278828125,315.6476654683432L1055.8570898437501,355.02694379604554L1057.4353515625,319.2839115625036L1059.01361328125,337.9202252337786L1060.591875,256.48853757834934L1062.17013671875,311.77515599676826L1063.7483984375,274.9628643839696L1065.32666015625,298.1533701154558L1066.904921875,299.1402282845267L1068.48318359375,295.6555230522293L1070.0614453125,288.8628637884719L1071.63970703125,343.66858421656974L1073.21796875,292.4529361056219L1074.7962304687499,299.5630131804616L1076.3744921875,276.1119798539945L1077.95275390625,329.6079991246433L1079.531015625,314.4043858376936L1081.10927734375,348.24524422863954L1082.6875390625,298.7433884202684L1084.26580078125,295.1386272306026L1085.8440625,354.84118654678576L1087.42232421875,317.8074689893232L1089.0005859375,312.36812590064767L1090.57884765625,291.2757438016984L1092.157109375,358.1724441622106L1093.73537109375,271.3600282375841L1095.3136328125001,342.3436466491629L1096.89189453125,331.7650351802807L1098.47015625,289.2459092582099L1100.04841796875,313.5756363010304L1101.6266796875,306.2342796870904L1103.20494140625,298.11970791561686L1104.46755078125,347.12916123169373" style="fill: none;" fill="none"></path></g></g></g></g></g></g><g transform="translate(20, 377)" clip-path="url(#clip_1)"><clipPath id="clip_1"><rect width="1262" height="23"></rect></clipPath><g><g><line x1="0" y1="0" x2="0" y2="5" style="visibility: inherit;" fill="rgb(0, 0, 0)" stroke="rgb(204, 204, 204)" stroke-width="1px"></line><line x1="157.826171875" y1="0" x2="157.826171875" y2="5" style="visibility: inherit;" fill="rgb(0, 0, 0)" stroke="rgb(204, 204, 204)" stroke-width="1px"></line><line x1="315.65234375" y1="0" x2="315.65234375" y2="5" style="visibility: inherit;" fill="rgb(0, 0, 0)" stroke="rgb(204, 204, 204)" stroke-width="1px"></line><line x1="473.478515625" y1="0" x2="473.478515625" y2="5" style="visibility: inherit;" fill="rgb(0, 0, 0)" stroke="rgb(204, 204, 204)" stroke-width="1px"></line><line x1="631.3046875" y1="0" x2="631.3046875" y2="5" style="visibility: inherit;" fill="rgb(0, 0, 0)" stroke="rgb(204, 204, 204)" stroke-width="1px"></line><line x1="789.130859375" y1="0" x2="789.130859375" y2="5" style="visibility: inherit;" fill="rgb(0, 0, 0)" stroke="rgb(204, 204, 204)" stroke-width="1px"></line><line x1="946.95703125" y1="0" x2="946.95703125" y2="5" style="visibility: inherit;" fill="rgb(0, 0, 0)" stroke="rgb(204, 204, 204)" stroke-width="1px"></line><line x1="1104.783203125" y1="0" x2="1104.783203125" y2="5" style="visibility: inherit;" fill="rgb(0, 0, 0)" stroke="rgb(204, 204, 204)" stroke-width="1px"></line><line x1="1262.609375" y1="0" x2="1262.609375" y2="5" style="visibility: inherit;" fill="rgb(0, 0, 0)" stroke="rgb(204, 204, 204)" stroke-width="1px"></line></g><g transform="translate(0, 8)"><text x="0" y="0" dx="0em" dy="0.95em" style="text-anchor: middle; visibility: hidden; font-family: Roboto, sans-serif; font-size: 12px; font-weight: 200;" fill="rgb(255, 255, 255)" stroke="none" stroke-width="1px">-500</text><text x="157.826171875" y="0" dx="0em" dy="0.95em" style="text-anchor: middle; visibility: inherit; font-family: Roboto, sans-serif; font-size: 12px; font-weight: 200;" fill="rgb(255, 255, 255)" stroke="none" stroke-width="1px">0</text><text x="315.65234375" y="0" dx="0em" dy="0.95em" style="text-anchor: middle; visibility: inherit; font-family: Roboto, sans-serif; font-size: 12px; font-weight: 200;" fill="rgb(255, 255, 255)" stroke="none" stroke-width="1px">500</text><text x="473.478515625" y="0" dx="0em" dy="0.95em" style="text-anchor: middle; visibility: inherit; font-family: Roboto, sans-serif; font-size: 12px; font-weight: 200;" fill="rgb(255, 255, 255)" stroke="none" stroke-width="1px">1k</text><text x="631.3046875" y="0" dx="0em" dy="0.95em" style="text-anchor: middle; visibility: inherit; font-family: Roboto, sans-serif; font-size: 12px; font-weight: 200;" fill="rgb(255, 255, 255)" stroke="none" stroke-width="1px">1.5k</text><text x="789.130859375" y="0" dx="0em" dy="0.95em" style="text-anchor: middle; visibility: inherit; font-family: Roboto, sans-serif; font-size: 12px; font-weight: 200;" fill="rgb(255, 255, 255)" stroke="none" stroke-width="1px">2k</text><text x="946.95703125" y="0" dx="0em" dy="0.95em" style="text-anchor: middle; visibility: inherit; font-family: Roboto, sans-serif; font-size: 12px; font-weight: 200;" fill="rgb(255, 255, 255)" stroke="none" stroke-width="1px">2.5k</text><text x="1104.783203125" y="0" dx="0em" dy="0.95em" style="text-anchor: middle; visibility: inherit; font-family: Roboto, sans-serif; font-size: 12px; font-weight: 200;" fill="rgb(255, 255, 255)" stroke="none" stroke-width="1px">3k</text><text x="1262.609375" y="0" dx="0em" dy="0.95em" style="text-anchor: middle; visibility: hidden; font-family: Roboto, sans-serif; font-size: 12px; font-weight: 200;" fill="rgb(255, 255, 255)" stroke="none" stroke-width="1px">3.5k</text></g><line x1="0" y1="0" x2="1262.609375" y2="0" fill="rgb(0, 0, 0)" stroke="rgb(204, 204, 204)" stroke-width="1px"></line></g></g></g></g></svg>