<svg viewBox="0 0 1283 400" xmlns="http://www.w3.org/2000/svg"><g><g><g><g><g><line x1="72.34375" y1="377" x2="67.34375" y2="377" style="visibility: inherit;" fill="rgb(0, 0, 0)" stroke="rgb(204, 204, 204)" stroke-width="1px"></line><line x1="72.34375" y1="329.875" x2="67.34375" y2="329.875" style="visibility: inherit;" fill="rgb(0, 0, 0)" stroke="rgb(204, 204, 204)" stroke-width="1px"></line><line x1="72.34375" y1="282.75" x2="67.34375" y2="282.75" style="visibility: inherit;" fill="rgb(0, 0, 0)" stroke="rgb(204, 204, 204)" stroke-width="1px"></line><line x1="72.34375" y1="235.625" x2="67.34375" y2="235.625" style="visibility: inherit;" fill="rgb(0, 0, 0)" stroke="rgb(204, 204, 204)" stroke-width="1px"></line><line x1="72.34375" y1="188.5" x2="67.34375" y2="188.5" style="visibility: inherit;" fill="rgb(0, 0, 0)" stroke="rgb(204, 204, 204)" stroke-width="1px"></line><line x1="72.34375" y1="141.37499999999997" x2="67.34375" y2="141.37499999999997" style="visibility: inherit;" fill="rgb(0, 0, 0)" stroke="rgb(204, 204, 204)" stroke-width="1px"></line><line x1="72.34375" y1="94.25" x2="67.34375" y2="94.25" style="visibility: inherit;" fill="rgb(0, 0, 0)" stroke="rgb(204, 204, 204)" stroke-width="1px"></line><line x1="72.34375" y1="47.125" x2="67.34375" y2="47.125" style="visibility: inherit;" fill="rgb(0, 0, 0)" stroke="rgb(204, 204, 204)" stroke-width="1px"></line><line x1="72.34375" y1="0" x2="67.34375" y2="0" style="visibility: inherit;" fill="rgb(0, 0, 0)" stroke="rgb(204, 204, 204)" stroke-width="1px"></line></g><g transform="translate(62.34375, 0)"><text x="0" y="377" dx="0em" dy="0.3em" style="text-anchor: end; visibility: hidden; font-family: Roboto, sans-serif; font-size: 12px; font-weight: 200;" fill="rgb(255, 255, 255)" stroke="none" stroke-width="1px">0</text><text x="0" y="329.875" dx="0em" dy="0.3em" style="text-anchor: end; visibility: inherit; font-family: Roboto, sans-serif; font-size: 12px; font-weight: 200;" fill="rgb(255, 255, 255)" stroke="none" stroke-width="1px">2e-6</text><text x="0" y="282.75" dx="0em" dy="0.3em" style="text-anchor: end; visibility: inherit; font-family: Roboto, sans-serif; font-size: 12px; font-weight: 200;" fill="rgb(255, 255, 255)" stroke="none" stroke-width="1px">4e-6</text><text x="0" y="235.625" dx="0em" dy="0.3em" style="text-anchor: end; visibility: inherit; font-family: Roboto, sans-serif; font-size: 12px; font-weight: 200;" fill="rgb(255, 255, 255)" stroke="none" stroke-width="1px">6e-6</text><text x="0" y="188.5" dx="0em" dy="0.3em" style="text-anchor: end; visibility: inherit; font-family: Roboto, sans-serif; font-size: 12px; font-weight: 200;" fill="rgb(255, 255, 255)" stroke="none" stroke-width="1px">8e-6</text><text x="0" y="141.37499999999997" dx="0em" dy="0.3em" style="text-anchor: end; visibility: inherit; font-family: Roboto, sans-serif; font-size: 12px; font-weight: 200;" fill="rgb(255, 255, 255)" stroke="none" stroke-width="1px">1e-5</text><text x="0" y="94.25" dx="0em" dy="0.3em" style="text-anchor: end; visibility: inherit; font-family: Roboto, sans-serif; font-size: 12px; font-weight: 200;" fill="rgb(255, 255, 255)" stroke="none" stroke-width="1px">1.2e-5</text><text x="0" y="47.125" dx="0em" dy="0.3em" style="text-anchor: end; visibility: inherit; font-family: Roboto, sans-serif; font-size: 12px; font-weight: 200;" fill="rgb(255, 255, 255)" stroke="none" stroke-width="1px">1.4e-5</text><text x="0" y="0" dx="0em" dy="0.3em" style="text-anchor: end; visibility: hidden; font-family: Roboto, sans-serif; font-size: 12px; font-weight: 200;" fill="rgb(255, 255, 255)" stroke="none" stroke-width="1px">1.6e-5</text></g><line x1="72.34375" y1="0" x2="72.34375" y2="377" fill="rgb(0, 0, 0)" stroke="rgb(204, 204, 204)" stroke-width="1px"></line></g></g><g transform="translate(72, 0)" clip-path="url(#clip_0)"><clipPath id="clip_0"><rect width="1210" height="377"></rect></clipPath><g><g><g><line x1="0" y1="0" x2="0" y2="377" fill="rgb(0, 0, 0)" stroke="rgb(189, 189, 189)" stroke-width="1px" opacity="0.25"></line><line x1="93.12740384615385" y1="0" x2="93.12740384615385" y2="377" fill="rgb(0, 0, 0)" stroke="rgb(189, 189, 189)" stroke-width="1px" opacity="0.25"></line><line x1="186.2548076923077" y1="0" x2="186.2548076923077" y2="377" fill="rgb(0, 0, 0)" stroke="rgb(189, 189, 189)" stroke-width="1px" opacity="0.25"></line><line x1="279.38221153846155" y1="0" x2="279.38221153846155" y2="377" fill="rgb(0, 0, 0)" stroke="rgb(189, 189, 189)" stroke-width="1px" opacity="0.25"></line><line x1="372.5096153846154" y1="0" x2="372.5096153846154" y2="377" fill="rgb(0, 0, 0)" stroke="rgb(189, 189, 189)" stroke-width="1px" opacity="0.25"></line><line x1="465.6370192307693" y1="0" x2="465.6370192307693" y2="377" fill="rgb(0, 0, 0)" stroke="rgb(189, 189, 189)" stroke-width="1px" opacity="0.25"></line><line x1="558.7644230769231" y1="0" x2="558.7644230769231" y2="377" fill="rgb(0, 0, 0)" stroke="rgb(189, 189, 189)" stroke-width="1px" opacity="0.25"></line><line x1="651.8918269230769" y1="0" x2="651.8918269230769" y2="377" fill="rgb(0, 0, 0)" stroke="rgb(189, 189, 189)" stroke-width="1px" opacity="0.25"></line><line x1="745.0192307692308" y1="0" x2="745.0192307692308" y2="377" fill="rgb(0, 0, 0)" stroke="rgb(189, 189, 189)" stroke-width="1px" opacity="0.25"></line><line x1="838.1466346153846" y1="0" x2="838.1466346153846" y2="377" fill="rgb(0, 0, 0)" stroke="rgb(189, 189, 189)" stroke-width="1px" opacity="0.25"></line><line x1="931.2740384615386" y1="0" x2="931.2740384615386" y2="377" fill="rgb(0, 0, 0)" stroke="rgb(189, 189, 189)" stroke-width="1px" opacity="0.25"></line><line x1="1024.4014423076924" y1="0" x2="1024.4014423076924" y2="377" fill="rgb(0, 0, 0)" stroke="rgb(189, 189, 189)" stroke-width="1px" opacity="0.25"></line><line x1="1117.5288461538462" y1="0" x2="1117.5288461538462" y2="377" fill="rgb(0, 0, 0)" stroke="rgb(189, 189, 189)" stroke-width="1px" opacity="0.25"></line><line x1="1210.65625" y1="0" x2="1210.65625" y2="377" fill="rgb(0, 0, 0)" stroke="rgb(189, 189, 189)" stroke-width="1px" opacity="0.25"></line></g><g><line x1="0" y1="377" x2="1210.65625" y2="377" fill="rgb(0, 0, 0)" stroke="rgb(189, 189, 189)" stroke-width="1px" opacity="0.25"></line><line x1="0" y1="329.875" x2="1210.65625" y2="329.875" fill="rgb(0, 0, 0)" stroke="rgb(189, 189, 189)" stroke-width="1px" opacity="0.25"></line><line x1="0" y1="282.75" x2="1210.65625" y2="282.75" fill="rgb(0, 0, 0)" stroke="rgb(189, 189, 189)" stroke-width="1px" opacity="0.25"></line><line x1="0" y1="235.625" x2="1210.65625" y2="235.625" fill="rgb(0, 0, 0)" stroke="rgb(189, 189, 189)" stroke-width="1px" opacity="0.25"></line><line x1="0" y1="188.5" x2="1210.65625" y2="188.5" fill="rgb(0, 0, 0)" stroke="rgb(189, 189, 189)" stroke-width="1px" opacity="0.25"></line><line x1="0" y1="141.37499999999997" x2="1210.65625" y2="141.37499999999997" fill="rgb(0, 0, 0)" stroke="rgb(189, 189, 189)" stroke-width="1px" opacity="0.25"></line><line x1="0" y1="94.25" x2="1210.65625" y2="94.25" fill="rgb(0, 0, 0)" stroke="rgb(189, 189, 189)" stroke-width="1px" opacity="0.25"></line><line x1="0" y1="47.125" x2="1210.65625" y2="47.125" fill="rgb(0, 0, 0)" stroke="rgb(189, 189, 189)" stroke-width="1px" opacity="0.25"></line><line x1="0" y1="0" x2="1210.65625" y2="0" fill="rgb(0, 0, 0)" stroke="rgb(189, 189, 189)" stroke-width="1px" opacity="0.25"></line></g></g></g><g><g><line x1="0" y1="377" x2="1210.65625" y2="377" fill="rgb(0, 0, 0)" stroke="rgb(153, 153, 153)" stroke-width="1.5px"></line></g></g><g><g><line x1="93.12740384615385" y1="0" x2="93.12740384615385" y2="377" fill="rgb(0, 0, 0)" stroke="rgb(153, 153, 153)" stroke-width="1.5px"></line></g></g><g><g><g><g><g><path stroke="rgb(187, 187, 187)" stroke-width="2px" d="M93.96555048076922,353.4375000594896L95.31589783653845,329.8750001189792L96.01435336538461,329.8750001189792L96.06091706730768,329.8750001189792L97.27157331730768,306.31249749972267L97.92346514423078,306.31249749972267L98.10971995192308,306.31249749972267L99.0875576923077,282.7500002379584L100.76385096153847,282.7500002379584L101.13636057692307,259.1875029761941L102.02107091346153,259.1875029761941L102.57983533653847,259.1875029761941L104.48894711538462,235.62499499944533L105.18740264423076,212.06249773768104L106.25836778846154,212.06249773768104L106.39805889423076,212.06249773768104L107.98122475961539,188.50000047591675L110.16971875,164.937492499168L111.10099278846154,141.37500595238816L111.84601201923077,141.37500595238816L112.45134014423077,117.81249797563942L113.47574158653846,117.81249797563942L114.7795252403846,94.24998999889067L115.24516225961538,94.24998999889067L115.52454447115386,94.24998999889067L116.87489182692309,70.68750345211083L117.94585697115384,70.68750345211083L118.17867548076923,47.124995475362084L118.27180288461538,47.124995475362084L119.01682211538461,47.124995475362084L119.29620432692307,47.124995475362084L120.87937019230769,23.562508928582247L122.74191826923077,23.562508928582247L123.02130048076924,23.562508928582247L123.0678641826923,23.562508928582247L123.71975600961538,23.562508928582247L124.5113389423077,23.562508928582247L126.65326923076923,23.562508928582247L128.65550841346155,23.562508928582247L129.1677091346154,23.562508928582247L130.51805649038462,23.562508928582247L132.9859326923077,23.562508928582247L133.4050060096154,23.562508928582247L134.33628004807693,23.562508928582247L136.94384735576924,23.562508928582247L139.59797836538462,23.562508928582247L140.34299759615385,23.562508928582247L140.8551983173077,23.562508928582247L141.36739903846154,23.562508928582247L142.252109375,23.562508928582247L142.95056490384616,23.562508928582247L144.71998557692308,23.562508928582247L144.81311298076923,23.562508928582247L145.4650048076923,23.562508928582247L145.79095072115385,23.562508928582247L146.7222247596154,23.562508928582247L147.2809891826923,23.562508928582247L147.74662620192308,23.562508928582247L147.83975360576923,23.562508928582247L148.21226322115385,23.562508928582247L149.74886538461539,23.562508928582247L151.33203125,23.562508928582247L151.42515865384615,23.562508928582247L151.56484975961538,23.562508928582247L152.03048677884615,23.562508928582247L152.21674158653846,23.562508928582247L154.7311814903846,23.562508928582247L155.66245552884618,23.562508928582247L157.10593028846154,23.562508928582247L159.0150420673077,23.562508928582247L160.87759014423077,23.562508928582247L160.92415384615384,23.562508928582247L162.6004471153846,23.562508928582247L163.34546634615384,23.562508928582247L163.4851574519231,23.562508928582247L165.11488701923076,23.562508928582247L165.25457812500002,23.562508928582247L165.90646995192307,23.562508928582247L166.8377439903846,23.562508928582247L167.34994471153848,23.562508928582247L168.79341947115384,23.562508928582247L169.16592908653848,23.562508928582247L170.79565865384615,23.562508928582247L171.4941141826923,23.562508928582247L172.2856971153846,23.562508928582247L172.37882451923076,23.562508928582247L172.7047704326923,23.562508928582247L175.7779747596154,23.562508928582247L178.9908701923077,23.562508928582247L179.5961983173077,23.562508928582247L179.92214423076925,23.562508928582247L181.4121826923077,23.562508928582247L181.5518737980769,23.562508928582247L181.87781971153845,23.562508928582247L183.32129447115383,23.562508928582247L184.25256850961537,23.562508928582247L184.29913221153845,23.562508928582247L185.13727884615383,23.562508928582247L189.37457572115383,23.562508928582247L189.79364903846155,23.562508928582247L190.2592860576923,23.562508928582247L190.77148677884617,23.562508928582247L195.84693028846155,23.562508928582247L197.24384134615383,23.562508928582247L200.9689375,23.562508928582247L202.83148557692306,23.562508928582247L204.46121514423078,23.562508928582247L206.37032692307693,23.562508928582247L206.60314543269232,23.562508928582247L207.20847355769232,23.562508928582247L207.58098317307693,23.562508928582247L207.72067427884616,23.562508928582247L208.6519483173077,23.562508928582247L209.49009495192306,23.562508928582247L210.14198677884616,23.562508928582247L210.74731490384616,23.562508928582247L212.93580889423077,23.562508928582247L212.98237259615385,23.562508928582247L213.96021033653844,23.562508928582247L215.26399399038462,23.562508928582247L215.63650360576924,23.562508928582247L216.00901322115385,23.562508928582247L217.918125,23.562508928582247L218.3371983173077,23.562508928582247L219.03565384615385,23.562508928582247L219.45472716346154,23.562508928582247L220.24631009615382,23.562508928582247L220.5256923076923,23.562508928582247L221.1310204326923,23.562508928582247L221.17758413461536,23.562508928582247L221.22414783653846,23.562508928582247L221.82947596153846,23.562508928582247L222.62105889423077,23.562508928582247L223.87827884615382,23.562508928582247L224.90268028846154,23.562508928582247L225.36831730769228,23.562508928582247L226.15990024038462,23.562508928582247L228.9537223557692,23.562508928582247L230.3971971153846,23.562508928582247L230.86283413461538,23.562508928582247L231.37503485576923,23.562508928582247L234.16885697115384,23.562508928582247L236.45047836538464,23.562508928582247L236.4970420673077,23.562508928582247L237.42831610576923,23.562508928582247L237.4748798076923,23.562508928582247L238.17333533653846,23.562508928582247L239.33742788461538,23.562508928582247L240.64121153846156,23.562508928582247L241.52592187500002,23.562508928582247L241.85186778846156,23.562508928582247L242.69001442307695,23.562508928582247L242.82970552884615,23.562508928582247L243.80754326923076,23.562508928582247L244.9250721153846,23.562508928582247L245.06476322115384,23.562508928582247L246.83418389423076,23.562508928582247L249.1623689903846,23.562508928582247L251.39742668269233,23.562508928582247L254.05155769230768,23.562508928582247L255.07595913461537,23.562508928582247L255.12252283653845,23.562508928582247L255.44846875,23.562508928582247L255.8675420673077,23.562508928582247L257.0781983173077,23.562508928582247L258.94074639423076,23.562508928582247L259.0804375,23.562508928582247L260.5239122596154,23.562508928582247L261.22236778846155,23.562508928582247L262.9917884615385,23.562508928582247L263.1314795673077,23.562508928582247L263.317734375,23.562508928582247L263.64368028846155,23.562508928582247L263.78337139423076,23.562508928582247L264.66808173076925,23.562508928582247L265.69248317307694,23.562508928582247L267.97410456730773,23.562508928582247L268.9519423076923,23.562508928582247L272.0251466346154,23.562508928582247L272.11827403846155,23.562508928582247L273.002984375,23.562508928582247L274.53958653846155,23.562508928582247L274.9586598557692,23.562508928582247L275.1449146634616,23.562508928582247L275.424296875,23.562508928582247L275.9830612980769,23.562508928582247L276.12275240384616,23.562508928582247L277.93873677884613,23.562508928582247L279.66159375,23.562508928582247L279.75472115384616,23.562508928582247L280.1737944711538,23.562508928582247L280.6859951923077,23.562508928582247L280.96537740384616,23.562508928582247L281.2913233173077,23.562508928582247L283.01418028846155,23.562508928582247L284.1782728365385,23.562508928582247L284.45765504807696,23.562508928582247L284.7370372596154,23.562508928582247L284.8767283653846,23.562508928582247L285.9011298076923,23.562508928582247L287.530859375,23.562508928582247L288.04306009615385,23.562508928582247L289.62622596153847,23.562508928582247L291.0231370192308,23.562508928582247L293.86352283653844,23.562508928582247L294.32915985576926,23.562508928582247L299.6839855769231,23.562508928582247L300.1961862980769,23.562508928582247L303.5022091346154,23.562508928582247L303.96784615384615,23.562508928582247L304.1541009615385,23.562508928582247L305.3181935096154,23.562508928582247L307.5532512019231,23.562508928582247L309.2761081730769,23.562508928582247L310.99896514423074,23.562508928582247L311.1852199519231,23.562508928582247L311.27834735576926,23.562508928582247L311.55772956730766,23.562508928582247L311.9768028846153,23.562508928582247L313.0477680288462,23.562508928582247L315.23626201923076,23.562508928582247L317.65757451923076,23.562508928582247L317.7507019230769,23.562508928582247L317.8903930288462,23.562508928582247L317.9369567307693,23.562508928582247L318.30946634615384,23.562508928582247L320.07888701923076,23.562508928582247L321.3826706730769,23.562508928582247L322.26738100961535,23.562508928582247L322.7795817307693,23.562508928582247L323.19865504807694,23.562508928582247L324.6421298076923,23.562508928582247L325.1543305288462,23.562508928582247L327.7618978365384,23.562508928582247L328.6466081730769,23.562508928582247L329.25193629807694,23.562508928582247L329.6710096153846,23.562508928582247L329.76413701923076,23.562508928582247L331.71981250000005,23.562508928582247L331.9060673076923,23.562508928582247L332.6045228365385,23.562508928582247L332.7442139423077,23.562508928582247L332.7907776442308,23.562508928582247L334.2808161057692,23.562508928582247L334.8861442307692,23.562508928582247L336.0502367788461,23.562508928582247L336.65556490384614,23.562508928582247L337.35402043269227,23.562508928582247L337.77309375000004,23.562508928582247L337.9127848557692,23.562508928582247L339.30969591346155,23.562508928582247L340.4272247596154,23.562508928582247L340.5669158653846,23.562508928582247L340.6600432692308,23.562508928582247L342.42946394230773,23.562508928582247L342.8019735576923,23.562508928582247L344.33857572115386,23.562508928582247L346.2476875,23.562508928582247L346.6667608173077,23.562508928582247L346.89957932692306,23.562508928582247L349.2277644230769,23.562508928582247L349.7865288461539,23.562508928582247L351.92845913461537,23.562508928582247L356.58482932692306,23.562508928582247L359.5183425480769,23.562508928582247L360.8221262019231,23.562508928582247L361.8930913461538,23.562508928582247L364.2678401442307,23.562508928582247L365.8510060096154,23.562508928582247L366.4563341346154,23.562508928582247L369.66922956730764,23.562508928582247L370.0417391826923,23.562508928582247L371.20583173076926,23.562508928582247L371.9508509615385,23.562508928582247L372.50030264423077,23.562508928582247L374.5118545673077,23.562508928582247L375.6759471153846,23.562508928582247L377.21254927884615,23.562508928582247L377.3056766826923,23.562508928582247L378.23695072115385,23.562508928582247L378.46976923076926,23.562508928582247L378.5628966346154,23.562508928582247L378.6560240384615,23.562508928582247L382.5208112980769,23.562508928582247L383.3589579326923,23.562508928582247L385.0352512019231,23.562508928582247L386.01308894230766,23.562508928582247L387.5031274038462,23.562508928582247L387.59625480769233,23.562508928582247L388.7137836538462,23.562508928582247L388.7603473557693,23.562508928582247L388.9931658653846,23.562508928582247L389.225984375,23.562508928582247L394.068609375,23.562508928582247L396.62961298076925,23.562508928582247L396.76930408653845,23.562508928582247L397.4677596153846,23.562508928582247L397.700578125,23.562508928582247L398.30590625,23.562508928582247L398.5387247596154,23.562508928582247L399.2837439903846,23.562508928582247L399.5165625,23.562508928582247L399.9356358173077,23.562508928582247L400.63409134615387,23.562508928582247L403.33478605769227,23.562508928582247L405.52328004807697,23.562508928582247L405.9889170673077,23.562508928582247L406.9201911057692,23.562508928582247L407.4323918269231,23.562508928582247L409.3415036057692,23.562508928582247L411.2040516826923,23.562508928582247L411.57656129807697,23.562508928582247L411.99563461538463,23.562508928582247L412.74065384615386,23.562508928582247L414.64976562500004,23.562508928582247L414.7894567307692,23.562508928582247L415.30165745192306,23.562508928582247L417.39702403846155,23.562508928582247L418.1420432692308,23.562508928582247L418.37486177884614,23.562508928582247L418.4679891826923,23.562508928582247L419.3992632211539,23.562508928582247L421.0755564903846,23.562508928582247L424.0090697115385,23.562508928582247L424.14876081730773,23.562508928582247L424.42814302884614,23.562508928582247L426.19756370192306,23.562508928582247L426.84945552884614,23.562508928582247L428.1998028846154,23.562508928582247L430.2951694711538,23.562508928582247L431.27300721153847,23.562508928582247L432.8561730769231,23.562508928582247L434.2530841346154,23.562508928582247L434.9515396634616,23.562508928582247L435.60343149038465,23.562508928582247L438.2575625,23.562508928582247L438.7697632211538,23.562508928582247L438.81632692307693,23.562508928582247L440.1201105769231,23.562508928582247L440.3063653846154,23.562508928582247L440.39949278846154,23.562508928582247L440.95825721153847,23.562508928582247L442.0757860576923,23.562508928582247L442.63455048076924,23.562508928582247L443.00706009615385,23.562508928582247L443.2864423076923,23.562508928582247L443.79864302884613,23.562508928582247L444.17115264423074,23.562508928582247L444.2642800480769,23.562508928582247L446.126828125,23.562508928582247L446.54590144230764,23.562508928582247L446.63902884615385,23.562508928582247L446.77871995192305,23.562508928582247L448.22219471153846,23.562508928582247L448.5015769230769,23.562508928582247L449.24659615384616,23.562508928582247L452.36636418269234,23.562508928582247L452.5060552884615,23.562508928582247L453.7167115384615,23.562508928582247L455.4861322115385,23.562508928582247L455.5326959134615,23.562508928582247L456.6967884615385,23.562508928582247L457.48837139423074,23.562508928582247L458.04713581730766,23.562508928582247L458.2799543269231,23.562508928582247L458.3265180288462,23.562508928582247L458.6059002403846,23.562508928582247L460.14250240384615,23.562508928582247L460.4218846153846,23.562508928582247L461.72566826923077,23.562508928582247L464.3797992788462,23.562508928582247L467.1736213942308,23.562508928582247L467.54613100961535,23.562508928582247L468.66365985576925,23.562508928582247L470.7124627403846,23.562508928582247L471.7368641826923,23.562508928582247L472.62157451923076,23.562508928582247L472.66813822115387,23.562508928582247L473.971921875,23.562508928582247L475.08945072115387,23.562508928582247L475.69477884615384,23.562508928582247L476.90543509615384,23.562508928582247L477.92983653846153,23.562508928582247L478.20921875000005,23.562508928582247L478.5817283653846,23.562508928582247L478.814546875,23.562508928582247L481.42211418269227,23.562508928582247L481.93431490384614,23.562508928582247L482.5862067307692,23.562508928582247L483.51748076923076,23.562508928582247L484.16937259615383,23.562508928582247L484.35562740384614,23.562508928582247L487.84790504807694,23.562508928582247L489.2448161057692,23.562508928582247L490.5020360576923,23.562508928582247L490.7814182692308,23.562508928582247L491.2004915865385,23.562508928582247L493.76149519230773,23.562508928582247L494.1805685096154,23.562508928582247L495.67060697115386,23.562508928582247L495.8568617788461,23.562508928582247L497.3003365384615,23.562508928582247L497.57971875,23.562508928582247L498.41786538461537,23.562508928582247L498.6972475961539,23.562508928582247L500.00103125,23.562508928582247L500.09415865384614,23.562508928582247L501.1185600961539,23.562508928582247L501.2116875,23.562508928582247L503.30705408653847,23.562508928582247L503.77269110576924,23.562508928582247L505.2627295673077,23.562508928582247L505.49554807692306,23.562508928582247L505.8214939903846,23.562508928582247L506.3336947115385,23.562508928582247L507.6840420673077,23.562508928582247L507.870296875,23.562508928582247L510.8503737980769,23.562508928582247L511.0831923076923,23.562508928582247L511.8282115384616,23.562508928582247L513.0388677884615,23.562508928582247L513.7838870192307,23.562508928582247L514.2029603365385,23.562508928582247L516.95021875,23.562508928582247L517.1364735576923,23.562508928582247L518.5799483173076,23.562508928582247L520.3493689903846,23.562508928582247L521.3737704326924,23.562508928582247L521.8394074519231,23.562508928582247L522.0256622596154,23.562508928582247L523.2363185096154,23.562508928582247L525.0523028846154,23.562508928582247L525.6110673076923,23.562508928582247L525.7041947115384,23.562508928582247L526.030140625,23.562508928582247L526.7285961538462,23.562508928582247L527.5667427884615,23.562508928582247L528.2186346153846,23.562508928582247L528.498016826923,23.562508928582247L528.8239627403846,23.562508928582247L529.05678125,23.562508928582247L529.5224182692308,23.562508928582247L532.7353137019231,23.562508928582247L534.2253521634615,23.562508928582247L534.3184795673077,23.562508928582247L536.5535372596154,23.562508928582247L536.9726105769231,23.562508928582247L537.3916838942307,23.562508928582247L537.8573209134615,23.562508928582247L539.1145408653846,23.562508928582247L539.7664326923077,23.562508928582247L542.6999459134615,23.562508928582247L542.7465096153846,23.562508928582247L543.6777836538462,23.562508928582247L544.2365480769231,23.562508928582247L544.6090576923077,23.562508928582247L546.5181694711539,23.562508928582247L546.5647331730769,23.562508928582247L547.4028798076923,23.562508928582247L549.3119915865384,23.562508928582247L549.8241923076923,23.562508928582247L550.4295204326922,23.562508928582247L551.0348485576923,23.562508928582247L551.8264314903846,23.562508928582247L553.0836514423077,23.562508928582247L553.5492884615385,23.562508928582247L554.1080528846154,23.562508928582247L554.1546165865384,23.562508928582247L555.5980913461539,23.562508928582247L555.644655048077,23.562508928582247L555.6912187500001,23.562508928582247L556.1568557692308,23.562508928582247L556.7621838942308,23.562508928582247L557.0415661057692,23.562508928582247L557.4140757211538,23.562508928582247L557.6934579326922,23.562508928582247L560.9529170673077,23.562508928582247L562.2101370192307,23.562508928582247L563.6536117788461,23.562508928582247L563.8864302884615,23.562508928582247L564.4451947115384,23.562508928582247L566.9130709134615,23.562508928582247L567.7046538461539,23.562508928582247L568.0305997596154,23.562508928582247L570.4984759615385,23.562508928582247L571.0106766826923,23.562508928582247L573.897626201923,23.562508928582247L574.0373173076923,23.562508928582247L574.0838810096154,23.562508928582247L576.3655024038461,23.562508928582247L578.6936875,23.562508928582247L578.9730697115384,23.562508928582247L579.0196334134615,23.562508928582247L579.2990156249999,23.562508928582247L581.3012548076923,23.562508928582247L582.0928377403847,23.562508928582247L583.6294399038461,23.562508928582247L584.0950769230769,23.562508928582247L584.6538413461539,23.562508928582247L585.7248064903846,23.562508928582247L586.562953125,23.562508928582247L587.4476634615385,23.562508928582247L587.9133004807692,23.562508928582247L588.0064278846154,23.562508928582247L590.8933774038461,23.562508928582247L591.3590144230769,23.562508928582247L591.6849603365384,23.562508928582247L591.9177788461539,23.562508928582247L592.6627980769231,23.562508928582247L592.9887439903846,23.562508928582247L593.873454326923,23.562508928582247L597.1329134615385,23.562508928582247L599.6939170673077,23.562508928582247L603.3724495192307,23.562508928582247L605.5143798076923,23.562508928582247L605.5609435096154,23.562508928582247L605.7937620192308,23.562508928582247L606.1662716346153,23.562508928582247L607.0044182692308,23.562508928582247L608.8669663461538,23.562508928582247L609.9844951923077,23.562508928582247L610.2638774038462,23.562508928582247L610.3104411057692,23.562508928582247L611.8936069711539,23.562508928582247L612.4058076923077,23.562508928582247L614.1752283653847,23.562508928582247L614.3614831730769,23.562508928582247L614.6408653846154,23.562508928582247L614.9668112980769,23.562508928582247L615.013375,23.562508928582247L619.856,23.562508928582247L619.9025637019231,23.562508928582247L622.8360769230769,23.562508928582247L623.3017139423077,23.562508928582247L623.534532451923,23.562508928582247L625.0711346153847,23.562508928582247L625.3039531249999,23.562508928582247L625.90928125,23.562508928582247L626.0024086538461,23.562508928582247L628.935921875,23.562508928582247L630.9847247596155,23.562508928582247L631.357234375,23.562508928582247L632.8938365384615,23.562508928582247L636.8517512019231,23.562508928582247L638.7142992788462,23.562508928582247L639.6455733173076,23.562508928582247L640.0646466346154,23.562508928582247L641.042484375,23.562508928582247L642.4859591346154,23.562508928582247L642.5790865384615,23.562508928582247L642.7653413461538,23.562508928582247L643.7431790865385,23.562508928582247L643.8828701923077,23.562508928582247L644.069125,23.562508928582247L644.8141442307692,23.562508928582247L645.2332175480769,23.562508928582247L645.5125997596155,23.562508928582247L647.2354567307692,23.562508928582247L648.91175,23.562508928582247L649.6102055288461,23.562508928582247L649.7033329326923,23.562508928582247L652.2177728365384,23.562508928582247L654.1268846153846,23.562508928582247L654.4993942307692,23.562508928582247L657.2466526442308,23.562508928582247L659.1092007211538,23.562508928582247L659.2954555288461,23.562508928582247L660.7389302884616,23.562508928582247L661.9030228365385,23.562508928582247L662.4152235576922,23.562508928582247L663.1602427884616,23.562508928582247L663.5793161057692,23.562508928582247L665.0227908653845,23.562508928582247L665.1159182692307,23.562508928582247L665.6746826923077,23.562508928582247L667.4441033653845,23.562508928582247L668.0028677884616,23.562508928582247L669.3066514423077,23.562508928582247L669.49290625,23.562508928582247L669.5860336538461,23.562508928582247L670.5638713942308,23.562508928582247L670.6104350961539,23.562508928582247L671.308890625,23.562508928582247L671.5882728365385,23.562508928582247L671.8676550480769,23.562508928582247L673.1248750000001,23.562508928582247L673.2180024038461,23.562508928582247L673.3111298076923,23.562508928582247L676.75684375,23.562508928582247L678.9453377403846,23.562508928582247L681.0872680288462,23.562508928582247L681.3200865384616,23.562508928582247L682.5307427884616,23.562508928582247L683.8810901442308,23.562508928582247L687.3268040865385,23.562508928582247L687.7458774038461,23.562508928582247L690.8656454326923,23.562508928582247L692.8678846153846,23.562508928582247L693.0541394230769,23.562508928582247L693.8457223557692,23.562508928582247L694.8701237980769,23.562508928582247L696.173907451923,23.562508928582247L696.3601622596153,23.562508928582247L697.338,23.562508928582247L697.943328125,23.562508928582247L698.595219951923,23.562508928582247L699.153984375,23.562508928582247L699.200548076923,23.562508928582247L699.6661850961538,23.562508928582247L699.7127487980769,23.562508928582247L701.575296875,23.562508928582247L701.7615516826924,23.562508928582247L706.2316670673077,23.562508928582247L707.2560685096154,23.562508928582247L708.0010877403847,23.562508928582247L709.0720528846155,23.562508928582247L709.5842536057692,23.562508928582247L711.5864927884616,23.562508928582247L713.681859375,23.562508928582247L715.49784375,23.562508928582247L716.8947548076923,23.562508928582247L718.6176117788463,23.562508928582247L721.7373798076923,23.562508928582247L722.156453125,23.562508928582247L722.2030168269231,23.562508928582247L723.0411634615384,23.562508928582247L723.4136730769231,23.562508928582247L724.2518197115385,23.562508928582247L724.8105841346154,23.562508928582247L726.4403137019231,23.562508928582247L727.3250240384615,23.562508928582247L727.4181514423076,23.562508928582247L727.5578425480769,23.562508928582247L728.1631706730769,23.562508928582247L730.1188461538461,23.562508928582247L730.7707379807692,23.562508928582247L731.7020120192308,23.562508928582247L732.7729771634615,23.562508928582247L734.7752163461538,23.562508928582247L736.079,23.562508928582247L736.9171466346153,23.562508928582247L738.8262584134616,23.562508928582247L740.0369146634615,23.562508928582247L742.5979182692308,23.562508928582247L743.0169915865384,23.562508928582247L744.2276478365384,23.562508928582247L745.5779951923076,23.562508928582247L746.0901959134616,23.562508928582247L748.6977632211539,23.562508928582247L749.2099639423077,23.562508928582247L749.8618557692308,23.562508928582247L750.4671838942307,23.562508928582247L751.3053305288461,23.562508928582247L752.1900408653846,23.562508928582247L752.7022415865384,23.562508928582247L752.981623798077,23.562508928582247L753.5403882211539,23.562508928582247L754.0525889423077,23.562508928582247L754.3319711538462,23.562508928582247L754.3785348557692,23.562508928582247L755.9617007211539,23.562508928582247L756.2876466346154,23.562508928582247L760.1989975961538,23.562508928582247L760.4318161057693,23.562508928582247L760.7577620192309,23.562508928582247L761.0371442307692,23.562508928582247L762.5271826923076,23.562508928582247L762.5737463942307,23.562508928582247L762.8065649038462,23.562508928582247L763.4584567307692,23.562508928582247L763.7844026442308,23.562508928582247L763.8309663461538,23.562508928582247L766.9041706730768,23.562508928582247L766.997298076923,23.562508928582247L768.8132824519231,23.562508928582247L768.8598461538462,23.562508928582247L770.7689579326923,23.562508928582247L772.9108882211538,23.562508928582247L773.9352896634616,23.562508928582247L778.5916598557693,23.562508928582247L779.2901153846153,23.562508928582247L780.0816983173077,23.562508928582247L780.4542079326923,23.562508928582247L782.0373737980769,23.562508928582247L783.5274122596154,23.562508928582247L784.1327403846153,23.562508928582247L784.3189951923077,23.562508928582247L785.7624699519231,23.562508928582247L785.9952884615385,23.562508928582247L786.2746706730769,23.562508928582247L786.7868713942307,23.562508928582247L786.9731262019232,23.562508928582247L787.6715817307692,23.562508928582247L788.3234735576924,23.562508928582247L791.3501141826923,23.562508928582247L793.4454807692307,23.562508928582247L793.4920444711538,23.562508928582247L793.6782992788461,23.562508928582247L794.9820829326923,23.562508928582247L795.5408473557693,23.562508928582247L796.006484375,23.562508928582247L796.1927391826923,23.562508928582247L796.8446310096155,23.562508928582247L797.5430865384616,23.562508928582247L798.6140516826923,23.562508928582247L799.033125,23.562508928582247L799.6850168269231,23.562508928582247L805.2260973557693,23.562508928582247L805.9711165865384,23.562508928582247L806.6230084134614,23.562508928582247L807.2749002403847,23.562508928582247L807.6939735576924,23.562508928582247L809.0443209134614,23.562508928582247L809.9290312500001,23.562508928582247L810.6740504807692,23.562508928582247L810.9534326923077,23.562508928582247L811.6518882211539,23.562508928582247L811.9312704326923,23.562508928582247L813.2350540865385,23.562508928582247L813.3281814903846,23.562508928582247L813.7006911057694,23.562508928582247L818.8226983173076,23.562508928582247L819.8470997596153,23.562508928582247L820.0799182692307,23.562508928582247L821.476829326923,23.562508928582247L823.5256322115384,23.562508928582247L823.9912692307693,23.562508928582247L825.2484891826923,23.562508928582247L825.7606899038461,23.562508928582247L827.1576009615384,23.562508928582247L827.2972920673077,23.562508928582247L827.6698016826923,23.562508928582247L827.9026201923077,23.562508928582247L828.5545120192307,23.562508928582247L829.0667127403847,23.562508928582247L831.0223882211538,23.562508928582247L831.115515625,23.562508928582247L833.2574459134615,23.562508928582247L833.3040096153846,23.562508928582247L835.1665576923077,23.562508928582247L836.004704326923,23.562508928582247L837.5413064903846,23.562508928582247L838.426016826923,23.562508928582247L838.8916538461539,23.562508928582247L840.4748197115384,23.562508928582247L841.8251670673077,23.562508928582247L842.3839314903846,23.562508928582247L842.7564411057692,23.562508928582247L843.9205336538461,23.562508928582247L845.5502632211538,23.562508928582247L845.596826923077,23.562508928582247L847.8784483173076,23.562508928582247L848.018139423077,23.562508928582247L848.111266826923,23.562508928582247L848.3906490384616,23.562508928582247L851.4638533653846,23.562508928582247L853.0004555288461,23.562508928582247L855.1423858173077,23.562508928582247L856.0270961538462,23.562508928582247L856.1667872596154,23.562508928582247L856.7721153846154,23.562508928582247L859.5659374999999,23.562508928582247L862.6857055288461,23.562508928582247L864.9673269230769,23.562508928582247L865.0604543269231,23.562508928582247L865.5260913461537,23.562508928582247L867.1558209134615,23.562508928582247L867.5748942307692,23.562508928582247L870.9274807692308,23.562508928582247L871.1137355769231,23.562508928582247L873.8144302884615,23.562508928582247L874.8853954326923,23.562508928582247L875.6769783653847,23.562508928582247L877.0738894230769,23.562508928582247L877.1670168269231,23.562508928582247L877.8189086538462,23.562508928582247L877.9585997596154,23.562508928582247L879.0761286057692,23.562508928582247L880.9386766826924,23.562508928582247L881.1249314903846,23.562508928582247L883.4996802884615,23.562508928582247L884.1515721153846,23.562508928582247L885.9209927884615,23.562508928582247L886.0606838942307,23.562508928582247L886.9453942307692,23.562508928582247L888.9941971153846,23.562508928582247L889.2735793269231,23.562508928582247L889.3201430288462,23.562508928582247L890.0651622596154,23.562508928582247L890.6239266826923,23.562508928582247L893.0452391826923,23.562508928582247L894.069640625,23.562508928582247L894.1627680288462,23.562508928582247L895.0474783653847,23.562508928582247L895.6528064903846,23.562508928582247L895.7924975961538,23.562508928582247L896.1184435096154,23.562508928582247L896.490953125,23.562508928582247L901.7526514423076,23.562508928582247L903.1029987980769,23.562508928582247L903.4289447115385,23.562508928582247L903.4755084134616,23.562508928582247L907.340295673077,23.562508928582247L907.6662415865384,23.562508928582247L909.5753533653847,23.562508928582247L912.0897932692309,23.562508928582247L912.7882487980769,23.562508928582247L912.8348125,23.562508928582247L913.5332680288461,23.562508928582247L913.5798317307692,23.562508928582247L914.6042331730769,23.562508928582247L915.3958161057692,23.562508928582247L915.8148894230768,23.562508928582247L917.3980552884615,23.562508928582247L918.7949663461538,23.562508928582247L919.1209122596155,23.562508928582247L921.262842548077,23.562508928582247L923.5444639423076,23.562508928582247L924.0101009615385,23.562508928582247L924.336046875,23.562508928582247L924.3826105769231,23.562508928582247L924.5688653846154,23.562508928582247L926.3848497596155,23.562508928582247L926.8970504807692,23.562508928582247L927.6886334134616,23.562508928582247L928.2473978365384,23.562508928582247L930.1565096153847,23.562508928582247L930.2962007211538,23.562508928582247L931.5068569711538,23.562508928582247L931.8328028846154,23.562508928582247L932.857204326923,23.562508928582247L933.6022235576924,23.562508928582247L933.9747331730769,23.562508928582247L934.9525709134616,23.562508928582247L935.5113353365384,23.562508928582247L935.8838449519232,23.562508928582247L936.0700997596155,23.562508928582247L936.2563545673077,23.562508928582247L939.5158137019231,23.562508928582247L942.7287091346154,23.562508928582247L945.3362764423077,23.562508928582247L945.9416045673076,23.562508928582247L947.2919519230769,23.562508928582247L948.6888629807692,23.562508928582247L948.7354266826923,23.562508928582247L949.2941911057693,23.562508928582247L949.8529555288461,23.562508928582247L950.2254651442308,23.562508928582247L950.5514110576923,23.562508928582247L951.0170480769231,23.562508928582247L951.6689399038462,23.562508928582247L952.2742680288461,23.562508928582247L952.6933413461538,23.562508928582247L954.1833798076924,23.562508928582247L957.1634567307692,23.562508928582247L958.5603677884616,23.562508928582247L958.793186298077,23.562508928582247L958.8397500000001,23.562508928582247L959.3519507211538,23.562508928582247L959.8641514423077,23.562508928582247L965.1258497596153,23.562508928582247L965.1724134615384,23.562508928582247L965.451795673077,23.562508928582247L965.5914867788462,23.562508928582247L966.1502512019231,23.562508928582247L966.8487067307692,23.562508928582247L970.4341117788462,23.562508928582247L971.6447680288461,23.562508928582247L971.9241502403846,23.562508928582247L971.9707139423077,23.562508928582247L973.6004435096154,23.562508928582247L974.7645360576922,23.562508928582247L975.9751923076923,23.562508928582247L978.0705588942308,23.562508928582247L978.2102500000001,23.562508928582247L979.2346514423077,23.562508928582247L981.0040721153846,23.562508928582247L981.4697091346154,23.562508928582247L981.6559639423077,23.562508928582247L981.7025276442308,23.562508928582247L986.1260793269231,23.562508928582247L986.2192067307692,23.562508928582247L986.4520252403846,23.562508928582247L989.1992836538461,23.562508928582247L989.2924110576922,23.562508928582247L990.7358858173077,23.562508928582247L991.2015228365385,23.562508928582247L993.5297079326923,23.562508928582247L993.9022175480768,23.562508928582247L994.600673076923,23.562508928582247L995.0663100961539,23.562508928582247L995.2525649038461,23.562508928582247L995.9044567307693,23.562508928582247L997.9998233173077,23.562508928582247L998.4188966346154,23.562508928582247L999.5364254807693,23.562508928582247L999.6761165865385,23.562508928582247L1001.771483173077,23.562508928582247L1005.0775060096154,23.562508928582247L1005.8225252403847,23.562508928582247L1006.8003629807693,23.562508928582247L1007.1263088942308,23.562508928582247L1008.9888569711538,23.562508928582247L1011.8758064903847,23.562508928582247L1011.9689338942308,23.562508928582247L1012.1551887019231,23.562508928582247L1015.4612115384616,23.562508928582247L1016.3924855769231,23.562508928582247L1017.9756514423076,23.562508928582247L1018.7206706730769,23.562508928582247L1019.2328713942308,23.562508928582247L1021.2816742788463,23.562508928582247L1021.9801298076923,23.562508928582247L1022.0266935096154,23.562508928582247L1022.2129483173077,23.562508928582247L1022.8182764423076,23.562508928582247L1023.5167319711538,23.562508928582247L1026.3571177884614,23.562508928582247L1028.0799747596154,23.562508928582247L1028.8715576923075,23.562508928582247L1029.104376201923,23.562508928582247L1037.3461514423077,23.562508928582247L1038.3239891826922,23.562508928582247L1039.7209002403845,23.562508928582247L1041.2109387019232,23.562508928582247L1041.630012019231,23.562508928582247L1042.5147223557692,23.562508928582247L1043.3063052884615,23.562508928582247L1045.355108173077,23.562508928582247L1045.7741814903845,23.562508928582247L1046.7054555288462,23.562508928582247L1047.7298569711538,23.562508928582247L1048.1489302884615,23.562508928582247L1048.8008221153846,23.562508928582247L1049.592405048077,23.562508928582247L1049.7320961538462,23.562508928582247L1049.8717872596153,23.562508928582247L1051.594644230769,23.562508928582247L1052.8984278846153,23.562508928582247L1053.317501201923,23.562508928582247L1053.7365745192308,23.562508928582247L1053.829701923077,23.562508928582247L1057.6944891826922,23.562508928582247L1058.2066899038462,23.562508928582247L1059.4639098557693,23.562508928582247L1060.6745661057691,23.562508928582247L1061.838658653846,23.562508928582247L1061.9783497596154,23.562508928582247L1062.7699326923077,23.562508928582247L1066.9141021634616,23.562508928582247L1067.1003569711538,23.562508928582247L1067.7988125,23.562508928582247L1067.8919399038462,23.562508928582247L1068.1247584134617,23.562508928582247L1068.4041406249999,23.562508928582247L1069.00946875,23.562508928582247L1069.3819783653846,23.562508928582247L1071.0117079326922,23.562508928582247L1071.7567271634616,23.562508928582247L1075.1093137019232,23.562508928582247L1075.3421322115385,23.562508928582247L1076.366533653846,23.562508928582247L1076.4596610576923,23.562508928582247L1077.018425480769,23.562508928582247L1077.390935096154,23.562508928582247L1077.6703173076924,23.562508928582247L1078.8809735576924,23.562508928582247L1079.0672283653846,23.562508928582247L1080.1847572115385,23.562508928582247L1080.6969579326924,23.562508928582247L1081.7679230769231,23.562508928582247L1082.3266875,23.562508928582247L1083.8167259615386,23.562508928582247L1086.8899302884615,23.562508928582247L1087.4952584134617,23.562508928582247L1088.8456057692308,23.562508928582247L1089.3578064903845,23.562508928582247L1090.4287716346153,23.562508928582247L1090.9875360576923,23.562508928582247L1091.4997367788462,23.562508928582247L1092.1050649038461,23.562508928582247L1096.4354891826922,23.562508928582247L1096.5286165865384,23.562508928582247L1096.9476899038461,23.562508928582247L1097.1339447115386,23.562508928582247L1097.1805084134614,23.562508928582247L1097.506454326923,23.562508928582247L1098.1583461538462,23.562508928582247L1098.2514735576924,23.562508928582247L1098.4842920673077,23.562508928582247L1100.5796586538463,23.562508928582247L1100.7659134615385,23.562508928582247L1100.8590408653845,23.562508928582247L1102.6750252403847,23.562508928582247L1102.8147163461538,23.562508928582247L1103.4666081730768,23.562508928582247L1107.098576923077,23.562508928582247L1107.4245228365385,23.562508928582247L1108.6351790865385,23.562508928582247L1111.6618197115383,23.562508928582247" style="fill: none;" fill="none"></path></g></g></g></g></g></g><g transform="translate(72, 377)" clip-path="url(#clip_1)"><clipPath id="clip_1"><rect width="1210" height="23"></rect></clipPath><g><g><line x1="0" y1="0" x2="0" y2="5" style="visibility: inherit;" fill="rgb(0, 0, 0)" stroke="rgb(204, 204, 204)" stroke-width="1px"></line><line x1="93.12740384615385" y1="0" x2="93.12740384615385" y2="5" style="visibility: inherit;" fill="rgb(0, 0, 0)" stroke="rgb(204, 204, 204)" stroke-width="1px"></line><line x1="186.2548076923077" y1="0" x2="186.2548076923077" y2="5" style="visibility: inherit;" fill="rgb(0, 0, 0)" stroke="rgb(204, 204, 204)" stroke-width="1px"></line><line x1="279.38221153846155" y1="0" x2="279.38221153846155" y2="5" style="visibility: inherit;" fill="rgb(0, 0, 0)" stroke="rgb(204, 204, 204)" stroke-width="1px"></line><line x1="372.5096153846154" y1="0" x2="372.5096153846154" y2="5" style="visibility: inherit;" fill="rgb(0, 0, 0)" stroke="rgb(204, 204, 204)" stroke-width="1px"></line><line x1="465.6370192307693" y1="0" x2="465.6370192307693" y2="5" style="visibility: inherit;" fill="rgb(0, 0, 0)" stroke="rgb(204, 204, 204)" stroke-width="1px"></line><line x1="558.7644230769231" y1="0" x2="558.7644230769231" y2="5" style="visibility: inherit;" fill="rgb(0, 0, 0)" stroke="rgb(204, 204, 204)" stroke-width="1px"></line><line x1="651.8918269230769" y1="0" x2="651.8918269230769" y2="5" style="visibility: inherit;" fill="rgb(0, 0, 0)" stroke="rgb(204, 204, 204)" stroke-width="1px"></line><line x1="745.0192307692308" y1="0" x2="745.0192307692308" y2="5" style="visibility: inherit;" fill="rgb(0, 0, 0)" stroke="rgb(204, 204, 204)" stroke-width="1px"></line><line x1="838.1466346153846" y1="0" x2="838.1466346153846" y2="5" style="visibility: inherit;" fill="rgb(0, 0, 0)" stroke="rgb(204, 204, 204)" stroke-width="1px"></line><line x1="931.2740384615386" y1="0" x2="931.2740384615386" y2="5" style="visibility: inherit;" fill="rgb(0, 0, 0)" stroke="rgb(204, 204, 204)" stroke-width="1px"></line><line x1="1024.4014423076924" y1="0" x2="1024.4014423076924" y2="5" style="visibility: inherit;" fill="rgb(0, 0, 0)" stroke="rgb(204, 204, 204)" stroke-width="1px"></line><line x1="1117.5288461538462" y1="0" x2="1117.5288461538462" y2="5" style="visibility: inherit;" fill="rgb(0, 0, 0)" stroke="rgb(204, 204, 204)" stroke-width="1px"></line><line x1="1210.65625" y1="0" x2="1210.65625" y2="5" style="visibility: inherit;" fill="rgb(0, 0, 0)" stroke="rgb(204, 204, 204)" stroke-width="1px"></line></g><g transform="translate(0, 8)"><text x="0" y="0" dx="0em" dy="0.95em" style="text-anchor: middle; visibility: hidden; font-family: Roboto, sans-serif; font-size: 12px; font-weight: 200;" fill="rgb(255, 255, 255)" stroke="none" stroke-width="1px">-10k</text><text x="93.12740384615385" y="0" dx="0em" dy="0.95em" style="text-anchor: middle; visibility: inherit; font-family: Roboto, sans-serif; font-size: 12px; font-weight: 200;" fill="rgb(255, 255, 255)" stroke="none" stroke-width="1px">0</text><text x="186.2548076923077" y="0" dx="0em" dy="0.95em" style="text-anchor: middle; visibility: inherit; font-family: Roboto, sans-serif; font-size: 12px; font-weight: 200;" fill="rgb(255, 255, 255)" stroke="none" stroke-width="1px">10k</text><text x="279.38221153846155" y="0" dx="0em" dy="0.95em" style="text-anchor: middle; visibility: inherit; font-family: Roboto, sans-serif; font-size: 12px; font-weight: 200;" fill="rgb(255, 255, 255)" stroke="none" stroke-width="1px">20k</text><text x="372.5096153846154" y="0" dx="0em" dy="0.95em" style="text-anchor: middle; visibility: inherit; font-family: Roboto, sans-serif; font-size: 12px; font-weight: 200;" fill="rgb(255, 255, 255)" stroke="none" stroke-width="1px">30k</text><text x="465.6370192307693" y="0" dx="0em" dy="0.95em" style="text-anchor: middle; visibility: inherit; font-family: Roboto, sans-serif; font-size: 12px; font-weight: 200;" fill="rgb(255, 255, 255)" stroke="none" stroke-width="1px">40k</text><text x="558.7644230769231" y="0" dx="0em" dy="0.95em" style="text-anchor: middle; visibility: inherit; font-family: Roboto, sans-serif; font-size: 12px; font-weight: 200;" fill="rgb(255, 255, 255)" stroke="none" stroke-width="1px">50k</text><text x="651.8918269230769" y="0" dx="0em" dy="0.95em" style="text-anchor: middle; visibility: inherit; font-family: Roboto, sans-serif; font-size: 12px; font-weight: 200;" fill="rgb(255, 255, 255)" stroke="none" stroke-width="1px">60k</text><text x="745.0192307692308" y="0" dx="0em" dy="0.95em" style="text-anchor: middle; visibility: inherit; font-family: Roboto, sans-serif; font-size: 12px; font-weight: 200;" fill="rgb(255, 255, 255)" stroke="none" stroke-width="1px">70k</text><text x="838.1466346153846" y="0" dx="0em" dy="0.95em" style="text-anchor: middle; visibility: inherit; font-family: Roboto, sans-serif; font-size: 12px; font-weight: 200;" fill="rgb(255, 255, 255)" stroke="none" stroke-width="1px">80k</text><text x="931.2740384615386" y="0" dx="0em" dy="0.95em" style="text-anchor: middle; visibility: inherit; font-family: Roboto, sans-serif; font-size: 12px; font-weight: 200;" fill="rgb(255, 255, 255)" stroke="none" stroke-width="1px">90k</text><text x="1024.4014423076924" y="0" dx="0em" dy="0.95em" style="text-anchor: middle; visibility: inherit; font-family: Roboto, sans-serif; font-size: 12px; font-weight: 200;" fill="rgb(255, 255, 255)" stroke="none" stroke-width="1px">100k</text><text x="1117.5288461538462" y="0" dx="0em" dy="0.95em" style="text-anchor: middle; visibility: inherit; font-family: Roboto, sans-serif; font-size: 12px; font-weight: 200;" fill="rgb(255, 255, 255)" stroke="none" stroke-width="1px">110k</text><text x="1210.65625" y="0" dx="0em" dy="0.95em" style="text-anchor: middle; visibility: hidden; font-family: Roboto, sans-serif; font-size: 12px; font-weight: 200;" fill="rgb(255, 255, 255)" stroke="none" stroke-width="1px">120k</text></g><line x1="0" y1="0" x2="1210.65625" y2="0" fill="rgb(0, 0, 0)" stroke="rgb(204, 204, 204)" stroke-width="1px"></line></g></g></g></g></svg>