<svg viewBox="0 0 1283 400" xmlns="http://www.w3.org/2000/svg"><g><g><g><g><g><line x1="41.171875" y1="377" x2="36.171875" y2="377" style="visibility: inherit;" fill="rgb(0, 0, 0)" stroke="rgb(204, 204, 204)" stroke-width="1px"></line><line x1="41.171875" y1="348.0000000000001" x2="36.171875" y2="348.0000000000001" style="visibility: inherit;" fill="rgb(0, 0, 0)" stroke="rgb(204, 204, 204)" stroke-width="1px"></line><line x1="41.171875" y1="319.00000000000006" x2="36.171875" y2="319.00000000000006" style="visibility: inherit;" fill="rgb(0, 0, 0)" stroke="rgb(204, 204, 204)" stroke-width="1px"></line><line x1="41.171875" y1="290.00000000000006" x2="36.171875" y2="290.00000000000006" style="visibility: inherit;" fill="rgb(0, 0, 0)" stroke="rgb(204, 204, 204)" stroke-width="1px"></line><line x1="41.171875" y1="261" x2="36.171875" y2="261" style="visibility: inherit;" fill="rgb(0, 0, 0)" stroke="rgb(204, 204, 204)" stroke-width="1px"></line><line x1="41.171875" y1="231.99999999999997" x2="36.171875" y2="231.99999999999997" style="visibility: inherit;" fill="rgb(0, 0, 0)" stroke="rgb(204, 204, 204)" stroke-width="1px"></line><line x1="41.171875" y1="203.00000000000009" x2="36.171875" y2="203.00000000000009" style="visibility: inherit;" fill="rgb(0, 0, 0)" stroke="rgb(204, 204, 204)" stroke-width="1px"></line><line x1="41.171875" y1="174.00000000000006" x2="36.171875" y2="174.00000000000006" style="visibility: inherit;" fill="rgb(0, 0, 0)" stroke="rgb(204, 204, 204)" stroke-width="1px"></line><line x1="41.171875" y1="145.00000000000003" x2="36.171875" y2="145.00000000000003" style="visibility: inherit;" fill="rgb(0, 0, 0)" stroke="rgb(204, 204, 204)" stroke-width="1px"></line><line x1="41.171875" y1="116" x2="36.171875" y2="116" style="visibility: inherit;" fill="rgb(0, 0, 0)" stroke="rgb(204, 204, 204)" stroke-width="1px"></line><line x1="41.171875" y1="86.99999999999994" x2="36.171875" y2="86.99999999999994" style="visibility: inherit;" fill="rgb(0, 0, 0)" stroke="rgb(204, 204, 204)" stroke-width="1px"></line><line x1="41.171875" y1="58.00000000000004" x2="36.171875" y2="58.00000000000004" style="visibility: inherit;" fill="rgb(0, 0, 0)" stroke="rgb(204, 204, 204)" stroke-width="1px"></line><line x1="41.171875" y1="29.00000000000002" x2="36.171875" y2="29.00000000000002" style="visibility: inherit;" fill="rgb(0, 0, 0)" stroke="rgb(204, 204, 204)" stroke-width="1px"></line><line x1="41.171875" y1="0" x2="36.171875" y2="0" style="visibility: inherit;" fill="rgb(0, 0, 0)" stroke="rgb(204, 204, 204)" stroke-width="1px"></line></g><g transform="translate(31.171875, 0)"><text x="0" y="377" dx="0em" dy="0.3em" style="text-anchor: end; visibility: hidden; font-family: Roboto, sans-serif; font-size: 12px; font-weight: 200;" fill="rgb(255, 255, 255)" stroke="none" stroke-width="1px">2.7</text><text x="0" y="348.0000000000001" dx="0em" dy="0.3em" style="text-anchor: end; visibility: inherit; font-family: Roboto, sans-serif; font-size: 12px; font-weight: 200;" fill="rgb(255, 255, 255)" stroke="none" stroke-width="1px">2.8</text><text x="0" y="319.00000000000006" dx="0em" dy="0.3em" style="text-anchor: end; visibility: inherit; font-family: Roboto, sans-serif; font-size: 12px; font-weight: 200;" fill="rgb(255, 255, 255)" stroke="none" stroke-width="1px">2.9</text><text x="0" y="290.00000000000006" dx="0em" dy="0.3em" style="text-anchor: end; visibility: inherit; font-family: Roboto, sans-serif; font-size: 12px; font-weight: 200;" fill="rgb(255, 255, 255)" stroke="none" stroke-width="1px">3</text><text x="0" y="261" dx="0em" dy="0.3em" style="text-anchor: end; visibility: inherit; font-family: Roboto, sans-serif; font-size: 12px; font-weight: 200;" fill="rgb(255, 255, 255)" stroke="none" stroke-width="1px">3.1</text><text x="0" y="231.99999999999997" dx="0em" dy="0.3em" style="text-anchor: end; visibility: inherit; font-family: Roboto, sans-serif; font-size: 12px; font-weight: 200;" fill="rgb(255, 255, 255)" stroke="none" stroke-width="1px">3.2</text><text x="0" y="203.00000000000009" dx="0em" dy="0.3em" style="text-anchor: end; visibility: inherit; font-family: Roboto, sans-serif; font-size: 12px; font-weight: 200;" fill="rgb(255, 255, 255)" stroke="none" stroke-width="1px">3.3</text><text x="0" y="174.00000000000006" dx="0em" dy="0.3em" style="text-anchor: end; visibility: inherit; font-family: Roboto, sans-serif; font-size: 12px; font-weight: 200;" fill="rgb(255, 255, 255)" stroke="none" stroke-width="1px">3.4</text><text x="0" y="145.00000000000003" dx="0em" dy="0.3em" style="text-anchor: end; visibility: inherit; font-family: Roboto, sans-serif; font-size: 12px; font-weight: 200;" fill="rgb(255, 255, 255)" stroke="none" stroke-width="1px">3.5</text><text x="0" y="116" dx="0em" dy="0.3em" style="text-anchor: end; visibility: inherit; font-family: Roboto, sans-serif; font-size: 12px; font-weight: 200;" fill="rgb(255, 255, 255)" stroke="none" stroke-width="1px">3.6</text><text x="0" y="86.99999999999994" dx="0em" dy="0.3em" style="text-anchor: end; visibility: inherit; font-family: Roboto, sans-serif; font-size: 12px; font-weight: 200;" fill="rgb(255, 255, 255)" stroke="none" stroke-width="1px">3.7</text><text x="0" y="58.00000000000004" dx="0em" dy="0.3em" style="text-anchor: end; visibility: inherit; font-family: Roboto, sans-serif; font-size: 12px; font-weight: 200;" fill="rgb(255, 255, 255)" stroke="none" stroke-width="1px">3.8</text><text x="0" y="29.00000000000002" dx="0em" dy="0.3em" style="text-anchor: end; visibility: inherit; font-family: Roboto, sans-serif; font-size: 12px; font-weight: 200;" fill="rgb(255, 255, 255)" stroke="none" stroke-width="1px">3.9</text><text x="0" y="0" dx="0em" dy="0.3em" style="text-anchor: end; visibility: hidden; font-family: Roboto, sans-serif; font-size: 12px; font-weight: 200;" fill="rgb(255, 255, 255)" stroke="none" stroke-width="1px">4</text></g><line x1="41.171875" y1="0" x2="41.171875" y2="377" fill="rgb(0, 0, 0)" stroke="rgb(204, 204, 204)" stroke-width="1px"></line></g></g><g transform="translate(41, 0)" clip-path="url(#clip_0)"><clipPath id="clip_0"><rect width="1241" height="377"></rect></clipPath><g><g><g><line x1="0" y1="0" x2="0" y2="377" fill="rgb(0, 0, 0)" stroke="rgb(189, 189, 189)" stroke-width="1px" opacity="0.25"></line><line x1="95.52524038461539" y1="0" x2="95.52524038461539" y2="377" fill="rgb(0, 0, 0)" stroke="rgb(189, 189, 189)" stroke-width="1px" opacity="0.25"></line><line x1="191.05048076923077" y1="0" x2="191.05048076923077" y2="377" fill="rgb(0, 0, 0)" stroke="rgb(189, 189, 189)" stroke-width="1px" opacity="0.25"></line><line x1="286.5757211538462" y1="0" x2="286.5757211538462" y2="377" fill="rgb(0, 0, 0)" stroke="rgb(189, 189, 189)" stroke-width="1px" opacity="0.25"></line><line x1="382.10096153846155" y1="0" x2="382.10096153846155" y2="377" fill="rgb(0, 0, 0)" stroke="rgb(189, 189, 189)" stroke-width="1px" opacity="0.25"></line><line x1="477.62620192307696" y1="0" x2="477.62620192307696" y2="377" fill="rgb(0, 0, 0)" stroke="rgb(189, 189, 189)" stroke-width="1px" opacity="0.25"></line><line x1="573.1514423076924" y1="0" x2="573.1514423076924" y2="377" fill="rgb(0, 0, 0)" stroke="rgb(189, 189, 189)" stroke-width="1px" opacity="0.25"></line><line x1="668.6766826923076" y1="0" x2="668.6766826923076" y2="377" fill="rgb(0, 0, 0)" stroke="rgb(189, 189, 189)" stroke-width="1px" opacity="0.25"></line><line x1="764.2019230769231" y1="0" x2="764.2019230769231" y2="377" fill="rgb(0, 0, 0)" stroke="rgb(189, 189, 189)" stroke-width="1px" opacity="0.25"></line><line x1="859.7271634615385" y1="0" x2="859.7271634615385" y2="377" fill="rgb(0, 0, 0)" stroke="rgb(189, 189, 189)" stroke-width="1px" opacity="0.25"></line><line x1="955.2524038461539" y1="0" x2="955.2524038461539" y2="377" fill="rgb(0, 0, 0)" stroke="rgb(189, 189, 189)" stroke-width="1px" opacity="0.25"></line><line x1="1050.7776442307693" y1="0" x2="1050.7776442307693" y2="377" fill="rgb(0, 0, 0)" stroke="rgb(189, 189, 189)" stroke-width="1px" opacity="0.25"></line><line x1="1146.3028846153848" y1="0" x2="1146.3028846153848" y2="377" fill="rgb(0, 0, 0)" stroke="rgb(189, 189, 189)" stroke-width="1px" opacity="0.25"></line><line x1="1241.828125" y1="0" x2="1241.828125" y2="377" fill="rgb(0, 0, 0)" stroke="rgb(189, 189, 189)" stroke-width="1px" opacity="0.25"></line></g><g><line x1="0" y1="377" x2="1241.828125" y2="377" fill="rgb(0, 0, 0)" stroke="rgb(189, 189, 189)" stroke-width="1px" opacity="0.25"></line><line x1="0" y1="348.0000000000001" x2="1241.828125" y2="348.0000000000001" fill="rgb(0, 0, 0)" stroke="rgb(189, 189, 189)" stroke-width="1px" opacity="0.25"></line><line x1="0" y1="319.00000000000006" x2="1241.828125" y2="319.00000000000006" fill="rgb(0, 0, 0)" stroke="rgb(189, 189, 189)" stroke-width="1px" opacity="0.25"></line><line x1="0" y1="290.00000000000006" x2="1241.828125" y2="290.00000000000006" fill="rgb(0, 0, 0)" stroke="rgb(189, 189, 189)" stroke-width="1px" opacity="0.25"></line><line x1="0" y1="261" x2="1241.828125" y2="261" fill="rgb(0, 0, 0)" stroke="rgb(189, 189, 189)" stroke-width="1px" opacity="0.25"></line><line x1="0" y1="231.99999999999997" x2="1241.828125" y2="231.99999999999997" fill="rgb(0, 0, 0)" stroke="rgb(189, 189, 189)" stroke-width="1px" opacity="0.25"></line><line x1="0" y1="203.00000000000009" x2="1241.828125" y2="203.00000000000009" fill="rgb(0, 0, 0)" stroke="rgb(189, 189, 189)" stroke-width="1px" opacity="0.25"></line><line x1="0" y1="174.00000000000006" x2="1241.828125" y2="174.00000000000006" fill="rgb(0, 0, 0)" stroke="rgb(189, 189, 189)" stroke-width="1px" opacity="0.25"></line><line x1="0" y1="145.00000000000003" x2="1241.828125" y2="145.00000000000003" fill="rgb(0, 0, 0)" stroke="rgb(189, 189, 189)" stroke-width="1px" opacity="0.25"></line><line x1="0" y1="116" x2="1241.828125" y2="116" fill="rgb(0, 0, 0)" stroke="rgb(189, 189, 189)" stroke-width="1px" opacity="0.25"></line><line x1="0" y1="86.99999999999994" x2="1241.828125" y2="86.99999999999994" fill="rgb(0, 0, 0)" stroke="rgb(189, 189, 189)" stroke-width="1px" opacity="0.25"></line><line x1="0" y1="58.00000000000004" x2="1241.828125" y2="58.00000000000004" fill="rgb(0, 0, 0)" stroke="rgb(189, 189, 189)" stroke-width="1px" opacity="0.25"></line><line x1="0" y1="29.00000000000002" x2="1241.828125" y2="29.00000000000002" fill="rgb(0, 0, 0)" stroke="rgb(189, 189, 189)" stroke-width="1px" opacity="0.25"></line><line x1="0" y1="0" x2="1241.828125" y2="0" fill="rgb(0, 0, 0)" stroke="rgb(189, 189, 189)" stroke-width="1px" opacity="0.25"></line></g></g></g><g><g><line x1="0" y1="1160.0000000000002" x2="1241.828125" y2="1160.0000000000002" fill="rgb(0, 0, 0)" stroke="rgb(153, 153, 153)" stroke-width="1.5px"></line></g></g><g><g><line x1="95.52524038461539" y1="0" x2="95.52524038461539" y2="377" fill="rgb(0, 0, 0)" stroke="rgb(153, 153, 153)" stroke-width="1.5px"></line></g></g><g><g><g><g><g><path stroke="rgb(187, 187, 187)" stroke-width="2px" d="M96.38496754807692,358.49802732467657L97.77008353365385,64.44215300274927L98.48652283653846,59.683719113721104L98.53428545673077,167.7864716708326L99.77611358173077,67.41486248979632L100.44479026442308,-8.60633265994583L101.63885576923077,-9.528907338067569L103.35831009615384,55.05214594483378L103.7404110576923,55.275372406060306L104.64790084134614,97.3280858396058L105.22105228365385,149.39807223471084L107.17931971153845,219.86606597655117L107.89575901442306,263.48817013691905L108.99429927884616,255.1025544778932L109.13758713942308,291.48304549347193L110.76151622596154,235.2370790773843L113.006359375,211.76563696897534L113.96161177884615,197.295479274257L114.72581370192307,263.4384580921566L115.34672776442308,259.85312464329473L116.39750540865384,346.7532204646968L117.73485877403846,274.1018137457102L118.21248497596153,211.9064775787672L118.4990606971154,254.25415197492472L119.88417668269231,308.18346745386043L120.98271694711538,306.90473630876994L121.22153004807693,243.8585886543544L121.31705528846153,185.1617877890165L122.08125721153846,175.39931723798546L122.3678329326923,221.50239414181783L123.99176201923078,127.74159227346543L125.90226682692307,229.02939300875036L126.18884254807693,265.1333524548605L126.23660516826922,326.217861477778L126.90528185096154,250.17407863178906L127.71724639423077,25.122765620115505L129.9143269230769,103.63457970263752L131.96811959134615,160.46615411141764L132.49350841346154,129.0223304053753L133.87862439903847,297.2192801116156L136.41004326923075,214.37549432217105L136.83990685096154,215.02194506939514L137.7951592548077,355.5604797495539L140.46986598557692,344.53097349373195L143.19233533653846,300.38821018736616L143.95653725961537,234.8022332376469L144.48192608173076,214.25214558071764L145.00731490384615,394.4213795360891L145.91480468749998,326.7381512385391L146.63124399038463,131.34407272598634L148.44622355769232,153.80487169341887L148.54174879807692,126.99772911871358L149.21042548076923,179.56141509967887L149.54476382211539,156.62716992512398L150.50001622596153,-192.17475231256205L151.07316766826924,14.938231384231537L151.5507938701923,-101.90505991908552L151.6463191105769,-17.414394831336132L152.02842007211538,111.10425395138364L153.60458653846155,176.9576096225747L155.228515625,145.4007506781067L155.32404086538463,228.886146191913L155.46732872596152,356.88057645445923L155.94495492788462,351.0667738589886L156.13600540865386,332.1621088869925L158.71518689903849,450.4488440660322L163.10934795673074,452.62469518485557L165.01985276442306,348.2798573625747L165.06761538461538,345.8811085790663L166.78706971153844,343.2858915377255L167.55127163461538,336.52075255429344L167.69455949519232,260.3678434360717L169.36625120192306,131.7067507724862L169.5095390625,178.83290326125743L170.1782157451923,289.0629502882698L171.13346814903844,319.78027830080157L171.65885697115385,298.18140206460396L173.1394981971154,298.05435291095927L173.52159915865386,330.36939228649413L175.1932908653846,305.58245965500925L175.90973016826925,195.68192550786068L176.72169471153845,278.45215791264167L176.81721995192308,332.172672116261L177.15155829326923,257.1523654636659L180.30389122596156,283.54358285405516L183.5995120192308,210.80787078147821L184.22042608173078,121.9462330014845L184.55476442307693,283.01431625051424L186.08316826923078,306.9376202723328L186.22645612980767,435.2572118862896L186.56079447115383,221.0719489921997L188.04143569711536,165.47264579388843L188.99668810096153,200.55579538245925L189.04445072115385,240.60046157217576L189.90417788461536,264.4709641592738L194.25057632211536,293.12516155787176L194.68043990384615,289.417715911103L195.15806610576922,276.1583407693363L195.68345492788464,303.34013967813934L200.88958052884615,317.6656975192016L202.32245913461537,245.81505298643276L206.14346875,329.1981264211663L208.0539735576923,290.75769843615893L209.72566526442307,296.6746053527186L211.6839326923077,356.34852040694545L211.92274579326923,203.88233745136202L212.54365985576922,247.678309185997L212.9257608173077,144.9715570527923L213.0690486778846,163.50069073377006L214.02430108173075,106.13094226936771L214.8840282451923,212.38939327851838L215.5527049278846,299.77868457061084L216.17361899038463,334.48172004436526L218.41846213942307,345.29273571056564L218.4662247596154,428.0339702191682L219.46923978365382,430.8352360968132L220.80659314903846,263.108725345565L221.18869411057693,252.29222102048442L221.5707950721154,188.99681344879576L223.52906249999998,357.3769639785929L223.95892608173077,367.718272777199L224.6753653846154,231.92114666622706L225.10522896634615,348.2085465015723L225.91719350961537,412.8413749259798L226.20376923076924,358.65877885934816L226.82468329326926,333.49896653558017L226.87244591346152,403.0157433933757L226.92020853365383,336.77227856846355L227.54112259615383,280.1107464001548L228.35308713942308,250.79129956962038L229.64267788461538,276.120432861504L230.69345552884616,348.4032342810161L231.1710817307692,281.41577789285105L231.98304627403846,367.97963208138435L234.8488034855769,310.6389602462007L236.32944471153849,283.7633275656643L236.80707091346153,304.9084235305969L237.33245973557692,171.21176959476932L240.19821694711538,251.88787924740492L242.5385853365385,198.63629291843233L242.58634795673075,120.05836682876264L243.54160036057692,141.4843465988037L243.58936298076924,198.06249742124436L244.30580228365386,271.31052796661544L245.49986778846153,231.22466446237476L246.83722115384617,183.32482873092388L247.7447109375,206.08164197174452L248.07904927884616,265.444575609113L248.9387764423077,263.92134616380525L249.08206430288462,216.58842734373928L250.08507932692308,297.4610390590657L251.23138221153846,321.38278092283025L251.37467007211538,306.8231306763004L253.18964963942307,276.70832215211266L255.57778064903846,298.50504816110265L257.8703864182692,354.9911074566497L260.59285576923077,407.6725466661273L261.64363341346154,370.8011013776068L261.69139603365386,349.90603394663964L262.025734375,358.7035823867671L262.4555979567308,330.95234091738513L263.6974260817308,375.24497034419903L265.6079308894231,309.18179308008524L265.75121875,391.85720721269143L269.76327884615387,391.285697184703L269.90656670673076,347.02444172060393L270.0976171875,409.7571792527023L270.4319555288462,132.11229133484497L270.57524338942306,236.76374732222723L271.48273317307695,269.964763171857L272.5335108173077,308.47504541313515L274.8738792067308,211.72091057294497L275.8768942307692,249.10188034497043L279.02922716346154,296.85657212500456L279.1247524038462,271.2425983464408L280.0322421875,515.6766220600852L282.5158984375,456.8231083814624L283.0890498798077,327.1322073691725L283.2323377403846,370.50203249159694L285.0950799278846,221.30922380618213L286.862296875,223.20427104068088L286.9578221153846,97.20201909004341L287.3876856971154,239.0070623302409L287.91307451923075,302.82208739160205L288.1996502403846,329.62188065568785L288.53398858173074,391.7452637861811L290.30120552884614,423.12346584837525L291.49527103365386,314.7616943099342L291.7818467548077,316.46786120533056L292.06842247596154,196.95535379868159L292.21171033653843,213.91976577297305L293.26248798076927,254.11140484513976L294.9341796875,190.27619158042305L295.4595685096154,294.98913769866374L297.08349759615385,298.94065420561634L298.5163762019231,223.18354835280374L301.42989603365385,311.1713206165262L301.90752223557695,320.4016291431477L307.4002235576923,315.25515816798196L307.92561237980766,442.4529958524187L313.17950060096155,480.54652686008757L315.4721063701923,363.28228383152924L317.2393233173077,342.1864101914589L319.00654026442305,324.4655671553079L319.1975907451923,118.2363942806872L319.29311598557695,154.44153838246442L319.5796917067308,158.01015554611217L320.0095552884615,320.4770590854061L321.10809555288466,240.8587766725739L323.35293870192305,166.40756962020407L325.8365949519231,251.30349726095383L325.9321201923077,264.47996077884557L326.07540805288465,411.891207749389L326.12317067307697,299.1641349153305L326.5052716346154,327.6796714519148L328.3202512019231,307.03591133002635L329.6576045673077,352.342705652577L330.5650943509615,392.06741802529297L331.09048317307696,257.94957241908156L331.5203467548077,248.72062176263304L333.0009879807692,266.2854774193378L333.52637680288467,185.02711886704066L336.20108353365384,224.9116813322276L337.10857331730773,238.90238715709515L337.7294873798077,215.2877824567938L338.15935096153845,202.8246366918167L338.2548762019231,308.576832536071L340.26090625,335.12053225681933L340.4519567307692,305.65686865456576L341.16839603365383,286.66365924970216L341.3116838942308,312.39013122606553L341.3594465144231,223.14262548367964L342.8878503605769,190.71803175450378L343.5087644230769,215.54825247392367L344.7028299278846,263.4193815289885L345.32374399038457,328.9604117932222L346.0401832932692,273.9685184200498L346.47004687500004,107.58057702233069L346.6133347355769,106.77010883212773L348.0462133413462,136.44096137372225L349.1925162259615,216.09028339761022L349.3358040865385,175.02755047094251L349.4313293269231,211.76235727873257L351.24630889423076,69.10549742085674L351.62840985576923,114.5527094348327L353.20457632211543,79.49815980529199L355.16284375,93.70445958523939L355.59270733173076,167.51964899326194L355.8315204326923,180.01905661697123L358.2196514423077,307.3071101038526L358.7928028846154,294.52356146747155L360.98988341346154,358.5191146668282L365.76614543269227,286.16732958742983L368.77519050480765,272.2307391631949L370.11254387019227,219.63317213963668L371.21108413461536,139.62142645923748L373.64697776442307,81.48088620761268L375.2709068509616,169.79118342037057L375.8918209134616,163.59342887322242L379.18744170673074,276.6566288858375L379.56954266826926,440.3705236788148L382.0914090144231,438.3301223543023L384.15475420673073,259.6638107849167L385.34881971153845,225.37609769665218L386.92498617788465,276.62869178698645L387.0205114182692,236.08386831894674L387.97576382211537,245.91687824923287L388.21457692307695,193.0420414085646L388.3101021634616,260.69272358284945L388.4056274038461,289.669328626179L392.3699248798077,315.65108813927384L393.22965204326925,310.7933663217739L394.94910637019234,236.21105512894704L395.95212139423074,324.89404062401326L397.4805252403846,335.1491731057637L397.57605048076925,382.844305533861L398.72235336538466,344.9088113889405L398.7701159855769,291.2928452263888L399.00892908653844,322.9023283892504L399.2477421875,423.12760610656323L404.2150546875,269.05621905205714L406.84199879807693,347.07887704358495L406.9852866586538,423.4022698286561L407.70172596153844,263.3888002041913L407.9405390625,323.0703245295506L408.561453125,361.41375915227525L408.80026622596154,82.05458164084074L409.5644681490385,155.8283083334781L409.80328125,151.45613544772212L410.2331448317308,113.37442037394688L410.9495841346154,144.05518733616745L413.7198161057692,323.33897674741297L415.9646592548077,250.968866255133L416.44228545673076,320.532765212021L417.3975378605769,238.3000369708667L417.9229266826923,178.079829241242L419.88119411057687,312.1177611614469L421.7916989182692,293.64965365352487L422.17379987980775,248.3690527837558L422.6036634615385,323.0243703278781L423.3678653846154,366.8460404356539L425.3261328125,358.82735057014486L425.4694206730769,282.22701157632747L425.99480949519227,244.27758572881606L428.14412740384614,247.3057686865781L428.9083293269231,219.90615941848188L429.1471424278846,280.1533645327096L429.24266766826923,254.09356336522555L430.19792007211544,397.66093596344336L431.91737439903847,352.49080451979L434.92641947115385,426.8903622403482L435.0697073317308,304.9014165500379L435.3562830528846,196.67158490029152L437.1712626201923,266.6066369022367L437.8399393028846,68.74747570705622L439.22505528846153,94.12864190191591L441.37437319711535,246.4137274971849L442.37738822115386,367.381941413634L444.0013173076923,412.3023004726683L445.43419591346156,361.253978992086L446.1506352163462,397.91517224364594L446.8193118990385,314.86534050680973L449.54178125,276.6596265748223L450.06717007211535,253.80078501747488L450.11493269230766,382.12332744028294L451.4522860576923,239.79077299997223L451.64333653846154,204.27563372747403L451.73886177884617,148.00009343910747L452.31201322115385,182.26478623519105L453.45831610576926,195.75746461128247L454.03146754807693,245.97688549552143L454.41356850961535,278.9968343634075L454.70014423076924,300.31010326535227L455.2255330528846,393.97836037777495L455.60763401442307,378.9799763668533L455.7031592548077,324.9875386165942L457.6136640625,363.07805874610995L458.0435276442307,307.7038448662652L458.13905288461535,340.9706314199157L458.2823407451923,341.7299315744767L459.76298197115386,386.76217789707687L460.0495576923077,439.9225540133507L460.81375961538464,222.35811998374052L464.01385516826923,185.16852581154552L464.1571430288461,146.92702285082876L465.3989711538461,215.1121034640743L467.2139507211539,356.83127745656543L467.26171334134614,444.4166670404786L470.12747055288463,398.7226439354558L470.4140462740384,284.8050572854216L471.9902127403846,326.9501687242954L472.27678846153844,316.44915754326286L473.61414182692306,381.2771644899142L476.33661117788466,244.680462289266L479.2023683894231,311.8310021575317L479.5844693509615,248.51563345013798L480.730772235577,310.3461751615214L482.8323275240385,168.91516558977835L483.8831051682692,247.65594886448798L484.7905949519231,233.6900904240881L484.8383575721154,316.6576649244766L486.1757109375,228.4837899291943L487.32201382211537,260.33375970063906L487.9429278846154,200.4934051287622L489.1847560096154,333.0214633908404L490.2355336538461,282.2135664240629L490.522109375,258.7492140048672L490.9042103365385,420.38543551113975L493.81773016826924,411.862203287599L494.3431189903846,354.8974251129297L495.0117956730769,199.12871169267024L495.9670480769231,215.81278278596332L496.6357247596154,69.72058009341666L496.82677524038456,148.291880346961L500.40897175480774,167.19398748395815L501.8418503605769,207.74625979414554L503.1314411057692,394.6893105842566L503.4180168269231,199.90407161182557L503.84788040865385,449.77145109305206L506.47482451923076,430.8318387045841L506.90468810096155,340.5557076345421L508.43309194711543,257.4953606649457L508.6241424278846,234.92553137099046L510.10478365384614,230.13212861308082L510.391359375,212.44946356817715L511.25108653846155,135.24388677708583L511.5376622596154,171.0473852681149L512.875015625,121.714777688563L512.9705408653846,181.6802100514305L514.0213185096154,213.89744667018505L514.1168437499999,120.1778976348854L516.2661616586538,120.82621625500182L516.743787860577,246.0233628624402L518.2721917067308,304.4825941836735L518.5110048076923,380.80439429954583L518.8453431490385,224.7224089994325L519.3707319711539,361.1492517744701L520.7558479567308,297.6243668784066L520.9468984375,427.9310074262734L524.0037061298077,316.2394000221692L524.2425192307693,242.29835014662967L525.0067211538462,271.6942352857902L526.2485492788462,294.5263996932181L527.012751201923,233.96871969263148L527.4426147836539,290.52637918071775L530.260609375,296.44306896351145L530.4516598557692,198.74839068190346L531.9323010817308,230.8536690999095L533.7472806490385,278.794792905284L534.7980582932693,160.67776289729161L535.2756844951923,286.4832868238339L535.4667349759616,340.74683450738524L536.7085631009616,261.0417876578494L538.5713052884615,351.28197702826316L539.1444567307692,331.7920718377709L539.2399819711538,250.93231259717498L539.5743203125,340.97492842564986L540.2907596153847,327.53311660436344L541.1504867788461,474.3317538110482L541.8191634615384,376.20999164968464L542.1057391826923,306.9961778058088L542.4400775240384,349.9431834712124L542.678890625,293.4253063538606L543.156516826923,236.79985368014675L546.4521376201923,172.25706390962034L547.9805414663462,355.94334437007774L548.0760667067308,272.78022807148767L550.3686724759616,252.39880895764543L550.7985360576923,247.396896044776L551.2283996394231,228.02560009599043L551.7060258413461,370.23592271223504L552.9956165865384,481.3851421426205L553.6642932692307,399.3303059422387L556.6733383413462,361.1964189124458L556.7211009615385,346.821922880096L557.6763533653847,493.7936376405167L558.2495048076923,314.18259790112813L558.6316057692308,53.7368587716398L560.5898731971154,143.29366172021724L560.6376358173077,124.67560398566341L561.4973629807693,207.95429728428283L563.4556304086539,192.1095658947213L563.9810192307692,222.08320355571476L564.6019332932692,223.30323217352907L565.2228473557692,268.5357715190956L566.0348118990385,227.32325032154768L567.3244026442308,363.7725218595747L567.8020288461538,424.9698268289845L568.3751802884615,318.1222748348823L568.4229429086538,222.1559650817263L569.9035841346154,149.825269192565L569.9513467548077,222.06938390089303L569.999109375,388.24661493426606L570.476735576923,296.54136166655957L571.0976496394231,274.6358576685737L571.3842253605769,306.0165323394722L571.7663263221154,151.65756976317078L572.0529020432692,280.7857954432898L575.3962854567308,417.76260723845184L578.4053305288462,410.8866362516232L578.9784819711539,309.66304249680064L581.5099008413462,203.32011301337945L582.3218653846154,377.16407264775876L582.6562037259615,150.3503239447629L585.1876225961538,196.76085935873863L585.7130114182693,196.14234483597167L588.6742938701923,206.24940059397701L588.8175817307692,240.07244568236854L588.8653443509615,234.9644341224235L591.2057127403846,225.6249766177368L593.59384375,278.1601783904636L593.8804194711538,297.1182999761853L593.9281820913461,410.5272317471902L594.2147578125,294.8075160337992L596.2685504807692,278.76967251410434L597.0805150240385,307.423318092361L598.6566814903846,335.17561124408945L599.1343076923076,465.19292718992017L599.7074591346153,357.37674341187585L600.8059993990385,104.29769663095554L601.6657265625,158.4572451518112L602.5732163461539,190.0912962185626L603.050842548077,249.45802281071457L603.1463677884616,137.74938879397146L606.1076502403846,148.2395419476339L606.5852764423076,212.31524999068256L606.9196147836539,413.8885081982013L608.2569681490385,438.5098103200951L609.1644579326924,314.7127705325049L612.5078413461539,281.6431658956642L615.1347854567307,315.2745633970195L618.9080324519231,298.9678384180098L621.1051129807693,331.28773088097006L621.1528756009616,307.16267223520134L621.3916887019232,474.17046939881436L624.5440216346154,426.7754023213203L625.6903245192308,362.998969650406L625.9769002403847,319.76834758920285L626.024662860577,218.55453362423847L627.6485919471155,269.04412947713206L628.1739807692308,226.99347573820913L629.9889603365385,354.71926055978315L630.1800108173077,469.23976279807056L630.8009248798077,450.7900899520939L630.8486875,321.6806821487715L635.816,189.9662317605752L635.8637626201923,197.98080700915165L638.8728076923077,265.8803891962292L639.3504338942307,237.42980930604517L639.5892469951923,169.11217529816486L641.1654134615385,363.4283102772223L641.4042265625,344.4726935598827L642.0251406250001,305.88978372613605L642.1206658653847,314.8016479521157L645.1297109374999,408.55022537882144L647.2312662259616,366.9397510914462L647.6133671875,172.6376946919911L649.1895336538462,228.1479334313074L653.2493563701923,130.61794567948726L655.1598611778846,310.9706142152501L656.1151135817307,387.8568821246458L660.3182241586538,413.5700534467995L660.4615120192308,271.9313190877711L660.6525625,372.79220738025344L661.4167644230769,278.60648575897886L661.8466280048077,255.7366829422606L662.1332037259616,268.1008034259866L663.900420673077,317.24897144645314L665.6198750000001,283.48725432774404L666.3363143028846,284.2483516504125L666.4318395432692,264.7923977235811L669.0110210336538,273.7832017944124L670.9692884615384,251.84635877779192L671.351389423077,379.25254120939906L674.1693840144231,361.48189074105306L676.0798888221153,212.86094804167737L676.2709393028846,166.13537001914722L677.7515805288461,188.6571902347845L678.9456460336538,364.9480055646718L679.4710348557692,332.4571611281067L680.2352367788462,286.53545702894746L680.6651003605768,289.95914499517824L682.1457415865384,279.6378340352641L682.241266826923,284.9488187010446L682.8144182692308,298.38502951828525L684.6293978365384,322.511520928671L685.2025492788462,419.2157008139184L686.8264783653846,426.86147642267713L687.8294933894231,341.89239479343655L687.8772560096154,190.47701446734095L688.5936953125,247.82613950168897L688.8802710336539,200.11552779965024L689.1668467548077,272.45506587083685L690.4564375000001,457.48670096472296L690.5519627403845,336.77586280081084L690.6474879807691,393.6233707873731L694.1819218750001,305.7111182877819L696.4267650240384,210.42254874271356L698.6238455528846,191.6999950192574L698.8626586538462,223.2633395136741L700.1044867788462,224.94157360356417L701.4896027644231,182.52069937861643L705.0240366586539,178.0184843678541L705.4539002403845,212.04957749000715L708.6539957932692,106.46195780969983L710.7077884615385,158.7556901826169L710.8988389423077,307.65533053467357L711.7108034855769,383.0336649035487L712.7615811298076,324.06473047999935L714.0989344951922,260.69267144137575L714.2899849759615,403.65413157266795L715.2929999999999,401.8514969433302L715.9139140625,193.3705552123963L716.5825907451923,350.85571683349053L717.1557421875,337.9687658677163L717.2035048076923,97.19323101162462L717.6811310096153,124.88075684187834L717.7288936298077,101.31245884211417L719.6393984375001,109.96657578308478L719.8304489182693,159.95648889932986L724.4156604567307,84.65033083203612L725.4664381009616,123.57858567379677L726.2306400240385,217.71361824349444L727.3291802884615,313.2527647023692L727.8545691105769,171.3449182761834L729.9083617788463,54.67274199634613L732.0576796875,75.94060149125984L733.920421875,179.7876913084348L735.3533004807692,265.4741630670115L737.1205174278847,291.7979913273763L740.3206129807692,292.2919886484405L740.7504765625,396.73579632901385L740.7982391826923,310.30233282224066L741.6579663461539,270.7148662280862L742.0400673076923,254.48116489468364L742.8997944711539,148.87264530731662L743.4729459134616,356.5643221531481L745.1446376201923,213.1212351451831L746.052127403846,159.59632940059143L746.1476526442307,170.99363371808178L746.2909405048076,239.31546744607402L746.9118545673077,310.89250600315216L748.9178846153847,387.63050821742155L749.586561298077,388.0705614467025L750.5418137019232,349.7068045790977L751.6403539663462,509.8274687090007L753.6941466346153,495.89651731884015L755.0314999999999,358.19182215536495L755.8912271634615,286.5305168392026L757.8494945913462,330.19150156304585L759.0913227163462,297.66674223997086L761.7182668269231,342.45122306131276L762.1481304086537,379.30003636459753L763.3899585336538,92.37830560119203L764.7750745192308,211.22108541005545L765.3004633413461,232.7580492061483L767.9751700721155,229.17287348281963L768.5005588942307,335.07462940701555L769.1692355769231,247.63623394202284L769.790149639423,304.103856161657L770.6498768028846,290.61765087349403L771.5573665865385,185.1051475197109L772.0827554086538,107.39498492270337L772.3693311298077,30.96975682360215L772.9424825721154,65.39454291333162L773.4678713942308,-50.48861410989123L773.7544471153847,221.31010004687985L773.802209735577,181.99090965257668L775.4261388221155,289.8295236713285L775.7604771634615,208.6790497020555L779.7725372596154,238.7072939012286L780.0113503605769,276.6348981494044L780.3456887019231,117.50228960478968L780.6322644230769,160.00637466831668L782.1606682692308,91.35721924774205L782.2084308894231,61.24104218476009L782.4472439903847,0.3862326767457488L783.1159206730769,23.029019955594418L783.4502590144231,222.54023659313734L783.4980216346154,-11.016348447952394L786.6503545673077,44.4444698180707L786.7458798076923,95.65852932425773L788.6086219951924,192.1643133428373L788.6563846153846,206.06026819276883L790.6146520432692,160.94747541028352L792.8117325721154,66.90692230595761L793.8625102163462,85.61895350356279L798.638772235577,130.87797765201756L799.3552115384615,256.13699554166635L800.1671760817306,213.70930777922393L800.5492770432692,245.29257547079314L802.1732061298077,268.77759226592104L803.7016099759616,392.9696156177474L804.3225240384616,254.02707394175783L804.5135745192308,350.4748979377538L805.9942157451924,309.46106640078114L806.233028846154,400.56688897139435L806.5196045673076,352.05308647562583L807.0449933894231,319.93662306598765L807.2360438701924,277.2184804494051L807.9524831730769,192.26007239523534L808.6211598557693,168.51331133793792L811.7257301682693,247.07835668598173L813.875048076923,283.081772060661L813.9228106971153,444.40752503748524L814.1138611778846,514.9758752775081L815.4512145432692,192.84091446024155L816.024365985577,275.79485059187647L816.5019921874999,224.85456502944515L816.6930426682692,395.2157477648641L817.3617193509616,352.8963603117382L818.0781586538461,327.2106352703291L819.1766989182693,294.09299481241305L819.6065625,267.958821755913L820.2752391826923,337.68872130842004L825.958990985577,441.36341456242434L826.7231929086538,402.1406640748472L827.3918695913461,339.9476438531711L828.0605462740385,361.46670331502395L828.4904098557693,387.95434649967154L829.8755258413461,430.85619370200124L830.7830156250001,336.21322067299053L831.5472175480769,263.156001350925L831.8337932692308,268.169999736325L832.5502325721153,147.7222544847317L832.8368082932692,105.10511247022205L834.1741616586538,219.067548230592L834.2696868990384,260.8814866924208L834.651787860577,240.90010898698299L839.9056760817307,182.0876838785511L840.9564537259615,214.02354476955733L841.1952668269231,206.36073699652553L842.6281454326923,218.68241433188868L844.7297007211538,227.5472932667312L845.207326923077,293.59169156479624L846.4969176682692,204.49161381096752L847.0223064903845,114.6497325452205L848.4551850961539,141.0979506415581L848.5984729567307,173.87104059202227L848.9805739182692,285.6905480461506L849.2193870192308,455.82128454585546L849.8880637019231,503.98031606177716L850.4134525240385,147.32597557442932L852.4194825721154,193.26468190782478L852.5150078125,177.78354476552528L854.7120883413461,284.9352418806199L854.7598509615384,262.3150181128328L856.6703557692308,270.903160233656L857.5300829326923,336.1336381661231L859.1062493990385,244.64146821524736L860.0137391826923,286.95076548932127L860.4913653846155,167.9596849650426L862.1152944711538,156.7751376182446L863.5004104567307,172.72760863239623L864.0735618990385,180.9110698759551L864.4556628605769,282.1751782228108L865.6497283653846,3.8946594591025483L867.3214200721154,-44.06361333176241L867.3691826923077,88.94874054714644L869.7095510817308,170.71602426744886L869.8528389423077,151.90814382483305L869.9483641826923,-7.4867189658809306L870.2349399038462,100.1650514141456L873.3872728365385,110.42283311537913L874.9634393028847,159.5048614734872L877.1605198317308,203.95228468405335L878.0680096153845,151.91097088432386L878.2112974759615,80.03783458251624L878.8322115384616,101.06685684856502L881.69796875,317.9163991372452L884.8980643028847,376.4040025047266L887.2384326923077,347.8065964250983L887.3339579326923,359.01009876148913L887.8115841346154,55.56072677650982L889.4832758413462,170.92208672095308L889.9131394230769,234.95753624598476L893.3520480769231,204.25307731033516L893.5430985576924,397.95167672648L896.3133305288461,331.2105573194951L897.4118707932693,328.04271846325884L898.2238353365385,278.39403600296964L899.6567139423078,263.47958742374044L899.7522391826924,171.09934571302645L900.4209158653846,134.4283713486049L900.5642037259615,269.1658467364753L901.7105066105769,299.78734113733856L903.6210114182693,348.6387356039082L903.8120618990384,414.81324741762734L906.2479555288461,304.86838144522466L906.9166322115385,416.1924607582827L908.874899639423,509.39309355654456L909.782389423077,298.6520937771339L911.8839447115384,293.127704044385L912.1705204326923,311.30007688881506L912.2182830528847,354.92110915777994L912.9824849759616,409.9990105465393L913.5556364182692,414.7267763219612L916.0392926682691,309.21792557517244L917.0900703125001,279.47525974425264L917.1855955528847,227.68345338289117L918.0930853365385,350.40358044758096L918.7139993990385,334.97492697978424L918.8572872596154,330.5691638715881L919.1916256009615,205.07794111203415L919.5737265625,24.776390162984733L924.9709026442307,87.62536398312277L926.3560186298076,183.56941947479442L926.6903569711538,173.77706049766974L926.7381195913462,176.24397101619473L930.7024170673078,135.40413128797226L931.0367554086538,172.21956016829634L932.9950228365385,101.04098702463045L935.5742043269231,138.61131454552236L936.2906436298077,292.6312991225719L936.33840625,376.41776829664946L937.0548455528846,293.73882466895947L937.1026081730769,283.7920407576643L938.1533858173076,259.6745505629089L938.965350360577,230.57495344608424L939.3952139423076,265.22313505000847L941.0191430288461,242.66806909347505L942.4520216346153,219.93632989218517L942.7863599759615,213.05916964751887L944.9834405048077,241.19826834389016L947.3238088942308,210.00759451804868L947.8014350961539,259.99083408732616L948.1357734374999,195.26704266555038L948.1835360576922,212.4660180969506L948.3745865384615,278.57863957223003L950.2373287259616,267.92249036154584L950.7627175480769,179.06596913502688L951.5746820913462,241.0109524879953L952.1478335336539,254.82588086480214L954.1061009615386,305.1243168407039L954.2493888221153,451.6974394408241L956.8763329326923,380.61840129719366L957.6405348557693,372.41655284426844L958.0226358173077,306.0388859166568L959.0256508413462,462.3121780621881L959.5988022836539,371.1591779195869L959.9809032451924,213.01981491410731L960.1719537259615,100.49262017754336L960.3630042067307,75.60674938875354L963.7063876201923,211.64536661257085L967.0020084134616,169.2776668575299L969.6767151442308,85.36629729525143L970.2976292067307,33.64628041083848L971.6827451923076,122.4551259539588L973.1156237980769,202.3492310070331L973.1633864182692,260.96348920356644L973.736537860577,241.4874602339832L974.3096893028846,183.12782557786753L974.691790264423,224.76065364062296L975.0261286057693,208.51367749990976L975.5037548076923,125.67778194443214L976.1724314903846,92.96120809668521L976.7933455528846,219.21281161273228L977.2232091346154,159.51739226594464L978.7516129807693,248.4193809070858L981.808420673077,237.77267437666217L983.2412992788462,297.6219024101103L983.4801123798077,387.5096779108953L983.527875,347.5316614005215L984.0532638221154,358.2361519100371L984.5786526442308,352.6669793710671L989.9758287259615,332.53045349943477L990.0235913461538,391.12526065401374L990.3101670673077,345.67778509726696L990.4534549278846,223.50898995206558L991.0266063701923,139.68435890536568L991.743045673077,195.41079545639627L995.4207674278846,276.8186982305715L996.6625955528846,391.04112390359495L1001.1045192307691,428.5316985202489L1003.2538371394231,319.96176689991063L1003.3971250000001,447.3504415824584L1004.4479026442308,250.5127205061182L1006.2628822115385,204.18099742317565L1006.7405084134616,306.70997496315636L1006.9315588942308,161.04992159732794L1006.9793215144231,303.95284671704036L1011.5167704326923,279.85278959049737L1011.6122956730769,283.10635445845776L1011.8511087740385,298.01031921475686L1014.6691033653846,260.5621357377064L1014.7646286057692,227.67912387927882L1016.2452698317308,288.70089196258414L1016.7228960336539,222.19485946437086L1019.1110270432692,368.44482622750877L1019.4931280048077,385.64722898752206L1020.2095673076923,207.26812468467537L1020.6871935096154,135.95807032473815L1020.8782439903846,114.0850577922082L1021.5469206730769,161.89547661842533L1023.6962385817308,274.74122350651515L1024.1261021634616,208.21937957534033L1025.272405048077,339.56174688954945L1025.415692908654,259.17739118776313L1027.5650108173077,193.7954179541001L1030.9561568509614,203.55309353031282L1031.7203587740385,178.68842903966257L1032.7233737980769,204.95037314448325L1033.057712139423,189.05317642236028L1034.9682169471155,293.7193728871234L1037.9294993990386,186.89003459570807L1038.025024639423,311.253590883454L1038.2160751201923,258.64038791109374L1041.6072211538462,258.9829469304841L1042.5624735576923,197.704992161127L1044.1864026442306,86.49600659083407L1044.9506045673077,104.89338747525755L1045.4759933894231,6.551279145298331L1047.5775486778846,96.31235482500668L1048.2939879807693,92.74678697853942L1048.3417506009616,74.93263612296177L1048.532801081731,372.3520752884009L1049.1537151442308,505.27569517241335L1052.783674278846,418.14051639574313L1054.5508912259615,244.07692995075396L1055.3628557692307,175.34075239126952L1055.6016688701923,105.49276069936664L1064.0556526442308,-20.044408168121443L1065.0586676682692,77.85380832579494L1066.4915462740385,152.04261901480976L1068.0199501201923,109.47411274420244L1068.4498137019232,49.84738806255346L1069.357303485577,159.49411478220296L1070.169268028846,295.1581876140986L1072.2708233173078,291.00416765302367L1072.7006868990384,323.0878280765763L1073.6559393028847,332.38677325459224L1074.7067169471154,142.903297376032L1075.136580528846,87.07609576633511L1075.8052572115384,149.5350724681767L1076.6172217548076,299.10258905346706L1076.7605096153845,347.7080787852027L1076.9037974759615,291.0359292611138L1078.671014423077,407.9776979551892L1080.0083677884616,461.82995735069875L1080.4382313701924,164.09034633929403L1080.868094951923,267.6599457989174L1080.9636201923076,365.14320472445144L1084.9279176682692,247.5053313071628L1085.4533064903846,337.2783991546369L1086.742897235577,360.9966170373284L1087.984725360577,320.31387635092875L1089.1787908653846,225.59152027310884L1089.3220787259615,209.628823526976L1090.1340432692307,199.77253751777891L1094.384916466346,203.27200074955138L1094.5759669471154,210.32941044903032L1095.29240625,187.9572745699002L1095.3879314903847,81.25355481609874L1095.626744591346,22.296377460066836L1095.9133203125,130.45180145281176L1096.534234375,169.98678364723423L1096.9163353365386,385.28125177973595L1098.5880270432692,333.4169911764923L1099.3522289663463,228.11914218422052L1102.7911376201923,195.3399994753686L1103.029950721154,164.91760299974706L1104.0807283653846,238.01964959308611L1104.1762536057693,184.25679849442054L1104.7494050480768,269.787247326436L1105.1315060096154,412.52975096855954L1106.6599098557692,381.409765759156L1106.8509603365385,178.41968027695475L1107.9972632211538,223.00043817292652L1108.522652043269,165.7593692367281L1109.6211923076924,120.36263664589863L1110.19434375,178.98776543396383L1111.7227475961538,158.6375541210534L1114.8750805288462,249.46064960834994L1115.4959945913463,207.44189142932981L1116.881110576923,14.010824685830059L1117.4064993990385,96.00153217872823L1118.5050396634615,34.13318320798013L1119.0781911057693,97.16961869956687L1119.6035799278845,187.69811293120034L1120.2244939903846,153.71625401082434L1124.666417668269,117.99853773968282L1124.7619429086537,89.70655184378099L1125.1918064903846,166.16465003575536L1125.3828569711538,259.76225152449064L1125.4306195913462,301.0602581624283L1125.7649579326924,219.37445025549798L1126.4336346153846,397.45508664134854L1126.5291598557692,234.0198283227975L1126.7679729567308,292.21670970942324L1128.9172908653848,238.82322468545777L1129.1083413461538,299.0480355428892L1129.2038665865384,364.48663811969953L1131.0666087740385,367.41661441450054L1131.2098966346155,264.3717279115823L1131.8785733173077,241.0452559440286L1135.6040576923076,248.4656445051631L1135.9383960336538,255.7710068804381L1137.1802241586538,84.87422310915098L1140.2847944711539,67.7523104334069" style="fill: none;" fill="none"></path></g></g></g></g><g opacity="0.2"><g><g><g><path stroke="rgb(187, 187, 187)" stroke-width="2px" d="M96.38496754807692,358.49802732467657L97.77008353365385,-131.3990592956543L98.48652283653846,54.40397024154663L98.53428545673077,319.6669793128968L99.77611358173077,-93.35096836090086L100.63584074519231,-145.95705509185797L101.63885576923077,80.2139663696289L103.35831009615384,178.84298086166382L103.7404110576923,55.70901393890383L104.64790084134614,179.74202632904056L105.22105228365385,252.03902721405032L107.17931971153845,359.3100237846375L107.89575901442306,350.03000497818L108.99429927884616,238.43801736831665L109.13758713942308,363.8629841804505L110.76151622596154,123.24998617172243L113.006359375,165.0100016593933L113.96161177884615,168.46098661422732L114.72581370192307,395.26997566223145L115.34672776442308,252.70603418350225L116.39750540865384,519.9990344047548L117.73485877403846,129.25297975540164L118.21248497596153,87.89903163909912L118.4990606971154,338.6910247802735L119.88417668269231,415.71501493453985L120.98271694711538,304.35499668121344L121.22153004807693,118.14596891403198L121.31705528846153,68.12099933624268L122.08125721153846,155.93298196792605L122.3678329326923,313.4320163726807L123.99176201923078,-59.217939376831026L125.90226682692307,430.99802732467657L126.18884254807693,337.1249723434449L126.23660516826922,448.0209827423097L126.90528185096154,98.54196548461915L127.71724639423077,-423.6320495605469L129.9143269230769,260.1880311965943L131.96811959134615,273.78897190093994L132.49350841346154,66.32297754287721L133.87862439903847,632.6059830188752L136.41004326923075,49.18400287628173L136.83990685096154,216.31097555160525L137.7951592548077,635.7959938049316L140.46986598557692,322.53800630569464L143.19233533653846,212.36701250076297L143.95653725961537,104.02301073074344L144.48192608173076,173.2750248908997L145.00731490384615,753.6809885501863L145.91480468749998,191.77698373794556L146.63124399038463,-258.27405929565435L148.44622355769232,198.5919737815857L148.54174879807692,73.5439658164978L149.21042548076923,284.37403440475464L149.54476382211539,110.89601039886477L150.50001622596153,-887.6899623870852L151.5507938701923,-334.89198207855225L151.6463191105769,151.06100320816043L152.02842007211538,367.3719787597657L153.60458653846155,308.2699894905091L155.228515625,82.47599601745607L155.32404086538463,395.3570246696473L155.46732872596152,612.1030032634736L155.94495492788462,339.47398185729986L156.13600540865386,294.4659805297852L158.71518689903849,686.3140106201173L159.67043930288463,290.34798860549927L161.15108052884617,410.43696880340576L163.10934795673074,554.6249723434449L165.01985276442306,140.21500110626224L165.06761538461538,341.09797477722174L166.78706971153844,338.1109976768494L167.55127163461538,323.03098440170294L167.69455949519232,108.51803064346315L169.36625120192306,-124.84500885009766L169.5095390625,272.80301570892334L170.1782157451923,508.86298418045044L171.13346814903844,381.0309982299805L171.65885697115385,255.11298418045044L173.1394981971154,297.80101537704473L173.52159915865386,394.80596780776983L175.1932908653846,256.15701913833624L175.90973016826925,-23.461055755615266L176.81721995192308,439.2920207977295L177.15155829326923,107.56097555160525L180.30389122596156,336.1679863929749L183.5995120192308,65.77198982238771L184.22042608173078,-55.24493694305421L184.55476442307693,604.1860032081605L186.08316826923078,354.6409749984742L186.22645612980767,691.1280143260957L186.56079447115383,-206.01603031158447L188.04143569711536,54.606969356536865L188.99668810096153,270.5120158195496L189.04445072115385,320.4500055313111L189.90417788461536,312.0690321922303L194.25057632211536,350.26197433471685L194.68043990384615,282.02502489089966L195.15806610576922,249.71898794174197L195.68345492788464,357.54097223281866L200.88958052884615,346.23103141784674L202.32245913461537,102.5440073013306L206.14346875,495.46497344970714L208.0539735576923,214.10702466964725L209.72566526442307,308.4729886054993L211.6839326923077,475.33902168273926L211.92274579326923,-100.13705730438235L212.54365985576922,335.0080013275147L212.9257608173077,-59.826936721801765L213.0690486778846,200.4480051994324L214.02430108173075,-8.265023231506373L216.17361899038463,403.6799883842469L218.41846213942307,366.85003042221075L218.4662247596154,593.0209827423097L220.80659314903846,-71.33994579315184L221.18869411057693,230.72398185729983L221.5707950721154,62.78501272201539L223.52906249999998,693.1290006637574L225.91719350961537,541.7200088500977L226.20376923076924,250.6180334091187L226.82468329326926,283.32999944686895L226.87244591346152,541.6330289840698L226.92020853365383,204.68201637268072L227.54112259615383,167.12697267532351L228.35308713942308,192.32797145843506L229.64267788461538,326.6270279884339L230.69345552884616,492.536005973816L231.1710817307692,147.8419876098633L231.98304627403846,540.5889940261842L234.8488034855769,196.30097389221197L236.32944471153849,230.17299413681033L236.80707091346153,347.0719981193543L237.33245973557692,-95.38095951080327L240.19821694711538,412.75700807571417L242.5385853365385,92.45199203491214L242.58634795673075,-36.62695884704593L243.54160036057692,184.20800685882574L243.58936298076924,310.8800077438355L244.30580228365386,417.36797809600836L245.49986778846153,151.29297256469727L246.83722115384617,87.81198263168335L247.7447109375,251.45900011062628L248.07904927884616,383.8149762153626L248.9387764423077,260.88400840759283L249.08206430288462,122.20602035522461L250.08507932692308,458.7219953536988L251.23138221153846,369.0830206871033L251.37467007211538,277.7910137176514L253.18964963942307,216.6590332984925L255.57778064903846,341.9679808616639L257.8703864182692,467.62498617172247L260.59285576923077,512.719967365265L261.64363341346154,297.27899789810186L261.69139603365386,308.24101924896246L262.025734375,376.24599933624273L262.4555979567308,275.61603307724L263.6974260817308,463.5650038719178L265.6079308894231,177.45102643966678L265.75121875,556.7129731178285L267.94829927884615,391.81899070739746L269.76327884615387,290.43496847152716L269.90656670673076,258.7669682502747L270.0976171875,534.8470091819764L270.57524338942306,445.4400038719178L271.48273317307695,336.1679863929749L272.5335108173077,385.26500940322876L274.8738792067308,18.792006969451904L275.8768942307692,323.63998174667364L279.02922716346154,392.0799994468689L279.1247524038462,220.16802787780765L280.0322421875,1003.0809926986694L282.0382722355769,589.8310065269471L282.2293227163462,130.70301294326782L282.5158984375,498.4520196914674L283.0890498798077,68.52699756622313L283.2323377403846,456.9819831848145L285.0950799278846,-76.18302345275882L286.862296875,226.98301792144778L286.9578221153846,-154.04798030853271L290.30120552884614,485.69197654724127L291.49527103365386,98.68702411651611L291.7818467548077,319.869978427887L292.06842247596154,-41.35401725769044L292.21171033653843,247.7470064163208L293.26248798076927,334.25401449203497L294.9341796875,62.988011837005615L295.4595685096154,503.78800630569464L297.08349759615385,306.8200254440308L298.5163762019231,72.12297201156619L301.42989603365385,486.6199922561646L301.90752223557695,338.80697488784796L307.4002235576923,304.99303340911865L307.92561237980766,696.087007522583L311.7943846153846,673.495992422104L311.9854350961539,59.36299800872803L313.17950060096155,668.4789896011354L315.4721063701923,129.45597887039187L317.2393233173077,300.12098550796514L319.00654026442305,289.1299939155579L319.1975907451923,-292.98704624176025L319.29311598557695,226.63502931594851L319.5796917067308,165.12602090835574L320.0095552884615,644.438010454178L321.10809555288466,82.09896802902222L323.35293870192305,17.950971126556404L325.8365949519231,420.5869936943055L325.9321201923077,290.7539868354798L326.07540805288465,705.8309996128083L326.12317067307697,74.38500165939331L326.5052716346154,384.5399928092957L328.3202512019231,265.8720064163208L329.6576045673077,442.68499612808233L331.09048317307696,-9.483017921447761L331.5203467548077,230.31798362731936L333.0009879807692,301.3100099563599L333.52637680288467,22.996978759765607L336.20108353365384,304.44197654724127L337.10857331730773,266.8000221252442L337.7294873798077,168.19997787475586L338.15935096153845,177.9729747772217L338.2548762019231,519.4479775428773L340.26090625,388.04898738861084L340.4519567307692,246.9059705734253L341.16839603365383,248.79097223281866L341.3116838942308,363.68902444839483L341.3594465144231,45.18203020095825L342.8878503605769,126.06300354003909L343.5087644230769,265.0600099563599L344.7028299278846,358.87498617172247L345.32374399038457,459.6500110626221L346.0401832932692,164.31402444839478L346.47004687500004,-224.19897079467773L346.6133347355769,105.15402555465698L348.0462133413462,195.6049966812134L349.1925162259615,374.9119853973389L349.3358040865385,93.14796924591067L349.4313293269231,285.01200199127203L351.24630889423076,-215.35398960113528L351.62840985576923,205.174994468689L353.20457632211543,9.598968029022224L355.16284375,122.03199148178103L355.59270733173076,314.7080206871033L355.8315204326923,204.94302511215213L358.2196514423077,561.1210131645204L358.7928028846154,269.0330123901368L360.98988341346154,486.1270141601563L365.76614543269227,141.89700365066528L368.77519050480765,244.44101095199588L370.11254387019227,114.7529935836792L371.21108413461536,-19.922952651977564L373.64697776442307,-34.4520473480225L375.2709068509616,345.8829736709595L375.8918209134616,151.235032081604L379.18744170673074,502.10600376129156L380.76360817307693,409.50902223587036L381.52781009615387,323.3500027656555L382.0914090144231,525.8860087394714L384.15475420673073,-96.59895420074464L385.34881971153845,157.0059871673584L386.92498617788465,378.8269782066346L387.0205114182692,155.23700475692752L387.97576382211537,265.5240178108216L388.21457692307695,87.60898351669312L388.3101021634616,395.58899402618414L388.4056274038461,347.44902610778814L392.3699248798077,367.45902776718145L393.22965204326925,301.1070108413697L394.94910637019234,87.49303340911865L395.95212139423074,501.7289757728578L397.4805252403846,355.5980300903321L397.57605048076925,477.94897079467785L398.72235336538466,269.26498174667364L398.7701159855769,184.38196659088138L399.00892908653844,385.9320163726807L408.80026622596154,-474.99096393585205L409.5644681490385,302.9340028762818L409.80328125,142.73797035217288L410.2331448317308,37.43902444839477L410.9495841346154,205.23300409317022L413.7198161057692,680.832999944687L415.9646592548077,106.66199922561648L416.44228545673076,459.24401283264166L417.3975378605769,74.32699203491211L417.9229266826923,58.0000138282776L419.88119411057687,579.3910026550294L421.7916989182692,256.8240261077881L422.17379987980775,158.0789923667908L422.6036634615385,471.8879675865174L423.3678653846154,454.22697544097906L425.3261328125,342.837986946106L425.4694206730769,129.48501825332644L425.99480949519227,168.60597610473633L428.14412740384614,253.34400177001956L428.9083293269231,165.27101039886477L429.1471424278846,400.28701305389416L429.24266766826923,202.13000774383548L430.19792007211544,683.9359962940217L431.91737439903847,262.4210214614869L434.92641947115385,575.2439713478088L435.0697073317308,61.65399789810181L435.3562830528846,-19.139995574951133L437.8399393028846,-325.7860612869263L439.22505528846153,144.73899126052856L441.37437319711535,550.0720119476318L444.0013173076923,501.8740344047547L445.43419591346156,259.46301460266113L446.1506352163462,471.01803064346325L446.8193118990385,149.26298141479492L449.54178125,200.47697544097906L450.06717007211535,208.21998119354248L450.11493269230766,638.0000138282777L451.4522860576923,-44.02204513549806L451.64333653846154,133.4580206871033L451.73886177884617,35.785992145538344L452.31201322115385,250.58899402618414L453.45831610576926,222.66202688217166L454.03146754807693,346.11501216888433L454.41356850961535,344.8390078544617L454.70014423076924,342.8090167045594L455.2255330528846,580.7539868354799L455.60763401442307,349.07301902771L455.7031592548077,217.32597112655645L457.6136640625,439.0310120582581L458.0435276442307,197.2869992256165L458.13905288461535,407.30500221252447L458.2823407451923,343.2439851760864L459.76298197115386,476.5570163726808L460.81375961538464,-211.4679670333863L464.01385516826923,111.01202964782715L464.1571430288461,70.67300796508792L465.3989711538461,351.0739707946778L467.2139507211539,639.4210076332092L468.45577884615386,484.44501161575323L469.26774338942306,314.24401283264166L469.84089483173074,397.29996681213385L470.0797079326923,513.3580040931702L470.12747055288463,313.1710076332093L470.4140462740384,57.652025222778335L471.9902127403846,410.98802566528326L472.27678846153844,295.5100154876709L473.61414182692306,510.54498672485363L479.2023683894231,445.72998285293585L479.5844693509615,122.26402997970584L480.730772235577,433.6370158195496L483.8831051682692,404.6660137176514L484.7905949519231,205.84200143814087L484.8383575721154,482.09600210189825L486.1757109375,52.66402721405032L487.32201382211537,323.8429808616639L487.9429278846154,81.17102146148683L489.1847560096154,597.2839987277986L490.2355336538461,180.90201139450076L490.522109375,211.9610142707825L490.9042103365385,742.689996957779L491.1430234375,313.31599712371826L493.81773016826924,466.1750221252442L494.3431189903846,241.3089752197266L495.0117956730769,-111.47596836090088L495.9670480769231,249.08102035522467L496.6357247596154,-221.58902168273926L496.82677524038456,304.9639940261841L500.40897175480774,204.8850154876709L501.8418503605769,288.60797643661505L503.1314411057692,767.4559926986694L506.47482451923076,393.06602478027344L506.90468810096155,160.54402112960818L508.43309194711543,91.87203407287598L508.6241424278846,189.92102146148687L510.10478365384614,220.57402610778811L510.391359375,177.1900177001953L511.25108653846155,-18.704957962036094L511.5376622596154,242.43999004364017L512.875015625,23.34496736526488L512.9705408653846,301.2520003318787L514.0213185096154,278.1390023231507L514.1168437499999,-66.70000553131105L516.2661616586538,122.11897134780884L516.743787860577,495.6679725646973L519.3707319711539,633.1860101222993L520.7558479567308,170.95498561859134L520.9468984375,687.7640092372895L524.0037061298077,93.52499723434448L524.2425192307693,94.85901117324829L525.0067211538462,330.30998229980474L526.2485492788462,340.0540089607239L527.012751201923,113.21598052978516L527.4426147836539,403.303029537201L530.260609375,308.24101924896246L530.4516598557692,3.944032192230244L531.9323010817308,294.8719787597657L533.7472806490385,374.38996791839605L534.7980582932693,-74.84900951385497L535.4667349759616,448.94899845123297L536.7085631009616,102.10896968841556L538.5713052884615,531.2219953536988L539.1444567307692,292.92896747589117L539.2399819711538,89.69698429107666L539.5743203125,520.5209827423097L540.2907596153847,300.72998285293585L541.1504867788461,767.0499944686891L541.8191634615384,180.5540227890015L542.1057391826923,168.98300409317017L542.4400775240384,435.58002710342413L542.678890625,180.72798252105713L543.156516826923,123.88802289962769L546.4521376201923,43.557968139648445L547.9805414663462,722.2159874439241L548.0760667067308,106.95197820663452L550.3686724759616,211.75801515579226L550.7985360576923,237.4230217933655L551.2283996394231,189.39900398254397L551.7060258413461,653.8050091266633L552.9956165865384,703.0180168151857L553.6642932692307,235.7119798660279L556.6733383413462,285.15699148178106L556.7211009615385,318.1590056419373L557.6763533653847,786.8569970130922L558.6316057692308,-465.595064163208L560.5898731971154,321.87099933624273L560.6376358173077,87.55097389221193L561.4973629807693,374.01300907135015L563.4556304086539,160.5149817466736L563.9810192307692,281.85099601745605L564.6019332932692,225.73598384857178L565.2228473557692,358.72999668121344L566.0348118990385,145.14498949050906L567.3244026442308,635.854003429413L567.8020288461538,546.9979858398438L568.3751802884615,105.06697654724121L568.4229429086538,30.797994136810285L569.9035841346154,5.59699535369875L569.9513467548077,366.12501382827764L569.999109375,719.6060037612915L570.476735576923,113.67998838424685L571.0976496394231,230.95602035522464L571.3842253605769,368.5899734497071L571.7663263221154,-156.13605022430426L578.4053305288462,380.044972896576L578.9784819711539,107.82198429107669L581.5099008413462,-8.728961944580066L582.6562037259615,-301.91900730133057L585.1876225961538,289.3040227890015L585.7130114182693,194.90901947021487L588.6742938701923,226.4029908180237L588.8175817307692,307.51600265502935L588.8653443509615,224.7789978981018L591.2057127403846,207.0019865036011L593.59384375,382.9159998893738L593.8804194711538,334.9210214614869L593.9281820913461,636.6659998893739L594.2147578125,64.061017036438L596.2685504807692,246.79002046585083L597.0805150240385,364.55903053283697L598.6566814903846,390.5140161514283L599.1343076923076,724.4490122795106L599.7074591346153,142.38998174667358L600.8059993990385,-400.3449535369873L601.6657265625,266.45203351974493L602.5732163461539,253.16997289657593L603.050842548077,367.83598661422735L603.1463677884616,-84.99896526336669L606.1076502403846,169.1570329666138L606.5852764423076,340.08297920227056L606.9196147836539,815.8279991149903L607.1584278846153,756.3200116157533L607.9226298076923,161.1819887161255L608.2569681490385,504.0199756622315L609.1644579326924,67.85999059677125L612.5078413461539,215.70197820663455L615.1347854567307,382.3359727859497L618.9080324519231,266.45203351974493L621.1051129807693,395.7339835166932L621.1528756009616,259.05701637268066L621.3916887019232,807.1860170364381L621.7737896634615,185.45497179031372L622.6335168269231,534.8470091819764L624.5440216346154,419.9199867248535L625.6903245192308,235.82799911499026L625.9769002403847,233.56596946716311L626.024662860577,16.732976436614972L627.6485919471155,369.72098827362066L628.1739807692308,143.14396858215332L629.9889603365385,609.4060051441194L630.4665865384615,656.6469967365265L630.8009248798077,289.1880035400391L630.8486875,64.23497676849367L635.816,-72.67395973205569L635.8637626201923,213.96196603775027L638.8728076923077,401.27296924591064L639.3504338942307,180.69901227951053L639.5892469951923,32.88599491119383L641.1654134615385,750.8970105648042L641.4042265625,306.67496681213385L642.0251406250001,228.9549994468689L642.1206658653847,332.5720119476319L645.1297109374999,595.486011505127L647.2312662259616,283.9679670333863L647.6133671875,-214.80293273925787L649.1895336538462,338.8360142707825L653.2493563701923,-63.85801792144773L656.5449771634616,518.3749723434449L657.5479921875,317.5500082969666L659.0286334134615,800.4580068588258L659.3152091346154,578.2890272140504L660.3182241586538,190.79102754592898L660.4615120192308,-10.498013496398958L660.6525625,573.9100265502931L661.4167644230769,90.79902887344363L661.8466280048077,210.1340222358704L662.1332037259616,292.7550077438355L663.900420673077,415.2510070800782L665.6198750000001,216.16598606109622L666.3363143028846,285.7659888267517L666.4318395432692,225.99699258804324L669.0110210336538,291.71097278594976L670.9692884615384,208.10403108596802L671.351389423077,633.3019948005677L674.1693840144231,326.0470008850098L676.0798888221153,-83.49099159240723L676.2709393028846,72.96400785446168L677.7515805288461,233.56596946716311L678.9456460336538,716.4740025997162L679.4710348557692,267.6700282096863L680.2352367788462,194.96702909469607L680.6651003605768,296.78601980209356L682.1457415865384,259.05701637268066L682.241266826923,295.5389857292176L682.8144182692308,325.1769948005677L684.6293978365384,370.62003374099737L685.2025492788462,612.0449936389924L686.5399026442308,636.8109893798828L686.730953125,357.16401338577276L686.8264783653846,386.91797256469727L687.8294933894231,172.46302843093872L687.8772560096154,-111.44706726074223L688.5936953125,362.1809816360474L688.8802710336539,104.97999668121341L689.1668467548077,416.7009711265564L690.4564375000001,826.4419972896576L690.5519627403845,96.07700586318973L690.6474879807691,506.9779825210572L694.1819218750001,130.41303396224978L696.4267650240384,20.415999889373797L698.6238455528846,154.36699867248535L698.8626586538462,286.20102643966675L700.1044867788462,228.28799247741702L701.4896027644231,97.93296813964847L705.0240366586539,169.04101371765137L705.4539002403845,279.90798473358154L708.6539957932692,-104.0810203552246L710.7077884615385,263.0300188064576L710.8988389423077,604.5629966259004L711.7108034855769,533.338966369629L712.7615811298076,206.47996902465826L714.0989344951922,134.3280267715454L714.2899849759615,688.7209951877595L716.5825907451923,664.8830151557924L717.1557421875,312.2720313072205L717.2035048076923,-382.91606903076183L717.6811310096153,180.09001493453982L717.7288936298077,54.31699037551883L719.6393984375001,127.22298860549928L719.8304489182693,259.63697433471685L724.4156604567307,-65.51105022430424L725.4664381009616,201.20199203491217L726.2306400240385,405.42000055313116L729.9083617788463,-177.97297477722168L732.0576796875,118.34896802902222L733.920421875,386.86003208160406L735.3533004807692,436.3340139389039L737.1205174278847,344.2880201339722L740.3206129807692,293.2770252227784L740.7504765625,604.9979996681215L740.7982391826923,137.9529714584351L741.6579663461539,191.77698373794556L742.0400673076923,222.1109700202942L742.8997944711539,-61.71200752258304L745.1446376201923,-72.90599822998045L746.052127403846,52.86702632904055L746.1476526442307,193.7199950218201L746.2909405048076,375.5500221252442L746.9118545673077,453.61797809600836L749.586561298077,388.9480328559876L750.5418137019232,273.20901393890387L751.6403539663462,829.1099905967712L753.6941466346153,468.1180334091187L755.0314999999999,83.60701084136964L755.8912271634615,143.63701581954956L757.8494945913462,417.2520279884339L759.0913227163462,232.81198263168338L761.7182668269231,431.75201416015625L764.7750745192308,448.1950116157532L765.3004633413461,275.7030129432679L767.9751700721155,222.0239901542664L768.5005588942307,546.2439990043641L769.1692355769231,73.2830262184143L769.790149639423,416.7009711265564L770.6498768028846,263.7259960174561L771.5573665865385,-25.28804779052739L772.3693311298077,-121.42306327819826L772.9424825721154,134.0379786491394L773.4678713942308,-281.561017036438L773.7544471153847,763.2799911499023L773.802209735577,103.5879731178284L775.4261388221155,504.861011505127L775.7604771634615,46.864032745361335L779.7725372596154,298.5839724540711L780.0113503605769,352.26299524307257L780.3456887019231,-199.8100376129151L780.6322644230769,244.76002931594854L782.1606682692308,-45.53001880645753L782.2084308894231,1.1890244483947723L782.4472439903847,-120.95898628234865L783.1159206730769,68.1790089607239L783.4502590144231,620.3679919242859L783.4980216346154,-476.7309761047364L786.6503545673077,155.03400564193728L786.7458798076923,197.77997732162476L788.6086219951924,384.5980024337769L788.6563846153846,233.76896858215335L790.6146520432692,70.99202632904053L792.8117325721154,-120.61106681823733L793.8625102163462,122.9309678077698L798.638772235577,221.12501382827762L799.3552115384615,505.90497732162487L800.1671760817306,129.1079902648926L800.5492770432692,308.2699894905091L802.1732061298077,315.6069970130921L803.7016099759616,640.6099975109101L804.5135745192308,542.7930140495301L805.9942157451924,227.67899513244632L806.233028846154,582.2329902648926L806.5196045673076,255.31598329544073L807.0449933894231,255.8960103988648L807.2360438701924,192.03799247741702L807.9524831730769,22.85198926925661L808.6211598557693,121.16198539733888L811.7257301682693,403.7379980087281L813.875048076923,354.873013496399L813.9228106971153,766.0930085182192L816.024365985577,441.20599269866955L816.5019921874999,123.279025554657L816.6930426682692,734.917986392975L817.3617193509616,268.51099491119385L818.0781586538461,275.9929919242859L819.1766989182693,228.05602312088018L819.6065625,215.84696769714355L820.2752391826923,476.7309761047364L825.958990985577,648.0919945240022L826.7231929086538,323.93002986907965L827.3918695913461,215.93401670455935L828.0605462740385,404.3759655952454L829.8755258413461,516.4029908180237L830.7830156250001,147.49399900436404L831.5472175480769,117.47903108596802L831.8337932692308,278.1679725646973L832.5502325721153,-92.45199203491214L832.8368082932692,20.126020908355716L834.1741616586538,446.3100099563599L834.2696868990384,344.25898075103765L834.651787860577,201.05700254440313L839.9056760817307,64.81500387191774L840.9564537259615,277.70403385162354L841.1952668269231,191.08100652694705L842.6281454326923,243.2519865036011L844.7297007211538,245.22396802902222L845.207326923077,425.28501272201544L846.4969176682692,26.82499170303347L847.0223064903845,-64.49605464935304L848.4551850961539,193.8360142707825L848.5984729567307,239.22097444534305L848.9805739182692,508.65998506546026L850.4134525240385,-563.8470506668091L852.4194825721154,284.867012500763L852.5150078125,146.91397190093997L854.7120883413461,498.5970091819764L854.7598509615384,217.210021018982L856.6703557692308,288.0280184745789L857.5300829326923,466.2039923667908L859.1062493990385,62.20498561859131L860.0137391826923,371.3160109519959L860.4913653846155,-69.30995464324953L862.1152944711538,134.47301626205444L863.5004104567307,204.5370268821717L864.0735618990385,197.22898960113525L864.4556628605769,484.097023010254L867.3214200721154,-139.6929836273193L867.3691826923077,354.1769671440125L869.7095510817308,333.76096725463873L869.8528389423077,114.40500497817993L869.9483641826923,-325.3219842910767L870.2349399038462,314.8239707946778L873.3872728365385,130.87697267532351L874.9634393028847,257.3750138282776L877.1605198317308,292.58097887039185L878.0680096153845,48.139967918395996L878.2112974759615,-63.27805995941166L878.8322115384616,142.9989790916443L881.69796875,750.3169834613801L884.8980643028847,493.0289840698243L887.2384326923077,290.7830262184143L887.3339579326923,381.35001659393316L889.4832758413462,400.954020023346L889.9131394230769,362.6449894905091L893.3520480769231,143.02801847457886L893.5430985576924,784.1890037059784L896.3133305288461,198.12796592712408L897.4118707932693,321.7260098457337L898.2238353365385,179.39396858215332L899.6567139423078,233.73999834060672L899.7522391826924,-13.107962608337427L900.4209158653846,61.30600929260254L900.5642037259615,537.8339862823486L901.7105066105769,360.8469676971436L903.6210114182693,446.0490012168885L903.8120618990384,546.7660164833069L906.2479555288461,85.637001991272L906.9166322115385,638.1740081310273L908.7316117788461,344.80996847152716L908.874899639423,742.7770113945008L909.782389423077,-121.56798362731938L911.8839447115384,282.11200475692755L912.1705204326923,347.536005973816L912.2182830528847,441.9019699096681L913.5556364182692,424.15399789810186L916.0392926682691,98.83201360702515L917.0900703125001,220.16802787780765L917.1855955528847,124.40997123718262L918.0930853365385,595.1089835166932L918.7139993990385,304.2100071907044L918.8572872596154,321.7840194702149L919.1916256009615,-45.15305995941164L919.5737265625,-334.7470617294312L924.9709026442307,212.94697046279907L926.3560186298076,374.8830151557923L926.6903569711538,154.25097942352298L926.7381195913462,181.16302013397217L930.7024170673078,53.96900177001955L931.0367554086538,245.6299662590027L932.9950228365385,-40.88994026184082L935.5742043269231,213.52699756622317L936.2906436298077,599.7489929199219L936.33840625,543.4889912605287L937.0548455528846,128.87602090835574L937.1026081730769,263.9580345153809L938.1533858173076,211.58398628234866L938.965350360577,172.55000829696658L939.3952139423076,334.31202411651617L941.0191430288461,197.69299745559695L942.4520216346153,174.60896968841556L942.7863599759615,199.3460297584534L944.9834405048077,297.30796813964844L947.3238088942308,147.81301736831665L947.8014350961539,359.6580123901368L948.1357734374999,66.20702743530275L948.1835360576922,246.76098108291626L948.3745865384615,410.4079985618592L950.2373287259616,246.67400121688846L950.7627175480769,1.8850016593933137L951.5746820913462,364.5299911499024L952.1478335336539,282.373013496399L954.1061009615386,405.42000055313116L955.8255552884615,424.6469759941102L956.8763329326923,255.54802179336548L957.6405348557693,356.0619688034058L958.0226358173077,173.68102312088016L959.0256508413462,773.9229941368104L959.5988022836539,189.39900398254397L959.9809032451924,-102.31196880340578L960.1719537259615,-123.88795375823977L960.3630042067307,25.98402500152589L963.7063876201923,482.9079985618592L967.0020084134616,84.7959661483765L969.6767151442308,-81.95397853851318L970.2976292067307,-69.48405265808105L971.6827451923076,299.541027545929L973.1156237980769,361.6590332984925L973.1633864182692,377.841022014618L973.736537860577,202.65202522277832L974.3096893028846,66.75801515579225L974.691790264423,307.7770113945008L975.0261286057693,176.11701250076297L975.5037548076923,-39.497985839843736L976.1724314903846,27.7239680290222L976.7933455528846,470.960021018982L977.2232091346154,40.48401117324828L978.7516129807693,425.6910109519959L981.808420673077,216.54301404953006L983.2412992788462,416.9619798660279L983.4801123798077,566.7469787597657L983.527875,267.8150177001953L984.0532638221154,379.5810341835022L984.5786526442308,341.5619826316834L989.9758287259615,292.37797975540167L990.0235913461538,507.9640078544617L990.3101670673077,255.0549745559693L990.4534549278846,-20.0970506668091L991.0266063701923,-27.46295928955082L991.743045673077,306.5299773216248L995.4207674278846,439.1470313072206L996.9491712740385,757.509001493454L996.9969338942308,182.72900342941287L998.6686256009615,629.4160068035127L999.8626911057692,273.06402444839483L1001.1045192307691,465.56602478027355L1003.2538371394231,103.47202301025393L1003.3971250000001,701.3649845123291L1004.4479026442308,-141.98405265808105L1006.2628822115385,111.79498672485354L1006.7405084134616,511.1539840698243L1006.9793215144231,588.9029908180238L1011.5167704326923,231.79698705673223L1011.6122956730769,289.5940017700196L1011.8511087740385,327.7290034294129L1014.6691033653846,185.89000940322876L1014.7646286057692,162.11000442504886L1016.2452698317308,410.37902832031256L1016.7228960336539,89.5810341835022L1019.1110270432692,660.069011449814L1020.6871935096154,-6.235032081603978L1020.8782439903846,70.47000885009768L1021.5469206730769,257.23002433776855L1023.6962385817308,499.7569942474366L1024.1261021634616,75.57402610778809L1025.272405048077,601.4600002765657L1025.415692908654,98.89002323150635L1027.5650108173077,63.422980308532736L1030.9561568509614,223.01001548767093L1031.7203587740385,129.1079902648926L1032.7233737980769,257.31700420379644L1033.057712139423,157.3539757728577L1034.9682169471155,502.4250221252442L1038.025024639423,559.2360115051271L1038.2160751201923,153.72903108596805L1041.6072211538462,259.6660137176514L1042.5624735576923,75.51601648330688L1044.1864026442306,-135.2560424804688L1044.9506045673077,141.57798528671267L1045.4759933894231,-189.54406261444097L1047.5775486778846,275.2970147132874L1048.2939879807693,85.637001991272L1048.3417506009616,39.41100597381593L1048.532801081731,965.4099988937378L1049.1537151442308,770.3269851207735L1049.8701544471155,280.16899347305304L1052.783674278846,394.3129897117615L1054.5508912259615,-103.00794601440433L1055.3628557692307,38.27999114990235L1055.6016688701923,-33.7849712371826L1064.0556526442308,-270.3670263290406L1065.0586676682692,273.06402444839483L1066.4915462740385,299.9759960174561L1068.0199501201923,24.592001438140887L1068.4498137019232,-69.04901504516602L1070.169268028846,565.6739735603334L1072.2708233173078,282.72100210189825L1072.7006868990384,387.0630311965943L1073.6559393028847,350.92898130416876L1074.7067169471154,-234.92902278900146L1075.136580528846,-24.244012832641616L1075.8052572115384,274.07902002334595L1076.6172217548076,597.3420083522797L1076.7605096153845,444.62800741195684L1076.9037974759615,178.0309844017029L1078.671014423077,641.1609852313996L1080.9636201923076,559.525990486145L1084.9279176682692,12.934002876281731L1085.4533064903846,516.2869715690614L1086.742897235577,408.291027545929L1087.984725360577,239.19200420379644L1089.1787908653846,36.71400785446169L1089.3220787259615,177.79901504516604L1090.1340432692307,180.11898517608645L1094.384916466346,210.24997234344485L1094.5759669471154,224.401969909668L1095.29240625,143.34696769714355L1095.3879314903847,-131.51494026184082L1095.626744591346,-95.26494026184079L1095.9133203125,346.11501216888433L1096.534234375,248.82001161575323L1096.9163353365386,814.5809996128083L1098.5880270432692,229.99903440475467L1099.3522289663463,18.153970241546634L1102.7911376201923,129.97799634933475L1103.029950721154,104.25498008728029L1104.0807283653846,383.786005973816L1104.1762536057693,77.05302953720093L1104.7494050480768,440.33598661422735L1105.4180817307692,381.0599684715272L1106.6599098557692,340.31501770019537L1106.8509603365385,-226.3449811935425L1107.9972632211538,311.8950033187867L1108.522652043269,51.619992256164544L1109.6211923076924,29.84100818634032L1110.19434375,295.88697433471685L1111.7227475961538,118.05898904800418L1114.8750805288462,430.56298971176153L1115.4959945913463,123.65598440170288L1116.881110576923,-371.69303894042974L1117.4064993990385,259.4919848442078L1118.5050396634615,-89.23304557800293L1119.0781911057693,222.8650259971619L1119.6035799278845,368.2130146026612L1120.2244939903846,85.95602035522461L1124.666417668269,46.77698373794557L1124.7619429086537,33.29199314117434L1125.1918064903846,318.6230134963989L1125.3828569711538,446.39698982238775L1125.4306195913462,383.40897798538214L1125.7649579326924,56.491971015930176L1126.4336346153846,752.5500082969667L1126.7679729567308,408.26198816299444L1128.9172908653848,132.35597610473633L1129.1083413461538,419.1370296478272L1129.2038665865384,494.9719953536988L1131.0666087740385,373.2590222358704L1131.2098966346155,58.89899015426638L1131.8785733173077,194.53199148178103L1135.6040576923076,263.26198816299444L1135.9383960336538,270.337986946106L1137.1802241586538,-255.8960103988648L1140.2847944711539,33.61101150512695" style="fill: none;" fill="none"></path></g></g></g></g></g></g><g transform="translate(41, 377)" clip-path="url(#clip_1)"><clipPath id="clip_1"><rect width="1241" height="23"></rect></clipPath><g><g><line x1="0" y1="0" x2="0" y2="5" style="visibility: inherit;" fill="rgb(0, 0, 0)" stroke="rgb(204, 204, 204)" stroke-width="1px"></line><line x1="95.52524038461539" y1="0" x2="95.52524038461539" y2="5" style="visibility: inherit;" fill="rgb(0, 0, 0)" stroke="rgb(204, 204, 204)" stroke-width="1px"></line><line x1="191.05048076923077" y1="0" x2="191.05048076923077" y2="5" style="visibility: inherit;" fill="rgb(0, 0, 0)" stroke="rgb(204, 204, 204)" stroke-width="1px"></line><line x1="286.5757211538462" y1="0" x2="286.5757211538462" y2="5" style="visibility: inherit;" fill="rgb(0, 0, 0)" stroke="rgb(204, 204, 204)" stroke-width="1px"></line><line x1="382.10096153846155" y1="0" x2="382.10096153846155" y2="5" style="visibility: inherit;" fill="rgb(0, 0, 0)" stroke="rgb(204, 204, 204)" stroke-width="1px"></line><line x1="477.62620192307696" y1="0" x2="477.62620192307696" y2="5" style="visibility: inherit;" fill="rgb(0, 0, 0)" stroke="rgb(204, 204, 204)" stroke-width="1px"></line><line x1="573.1514423076924" y1="0" x2="573.1514423076924" y2="5" style="visibility: inherit;" fill="rgb(0, 0, 0)" stroke="rgb(204, 204, 204)" stroke-width="1px"></line><line x1="668.6766826923076" y1="0" x2="668.6766826923076" y2="5" style="visibility: inherit;" fill="rgb(0, 0, 0)" stroke="rgb(204, 204, 204)" stroke-width="1px"></line><line x1="764.2019230769231" y1="0" x2="764.2019230769231" y2="5" style="visibility: inherit;" fill="rgb(0, 0, 0)" stroke="rgb(204, 204, 204)" stroke-width="1px"></line><line x1="859.7271634615385" y1="0" x2="859.7271634615385" y2="5" style="visibility: inherit;" fill="rgb(0, 0, 0)" stroke="rgb(204, 204, 204)" stroke-width="1px"></line><line x1="955.2524038461539" y1="0" x2="955.2524038461539" y2="5" style="visibility: inherit;" fill="rgb(0, 0, 0)" stroke="rgb(204, 204, 204)" stroke-width="1px"></line><line x1="1050.7776442307693" y1="0" x2="1050.7776442307693" y2="5" style="visibility: inherit;" fill="rgb(0, 0, 0)" stroke="rgb(204, 204, 204)" stroke-width="1px"></line><line x1="1146.3028846153848" y1="0" x2="1146.3028846153848" y2="5" style="visibility: inherit;" fill="rgb(0, 0, 0)" stroke="rgb(204, 204, 204)" stroke-width="1px"></line><line x1="1241.828125" y1="0" x2="1241.828125" y2="5" style="visibility: inherit;" fill="rgb(0, 0, 0)" stroke="rgb(204, 204, 204)" stroke-width="1px"></line></g><g transform="translate(0, 8)"><text x="0" y="0" dx="0em" dy="0.95em" style="text-anchor: middle; visibility: hidden; font-family: Roboto, sans-serif; font-size: 12px; font-weight: 200;" fill="rgb(255, 255, 255)" stroke="none" stroke-width="1px">-10k</text><text x="95.52524038461539" y="0" dx="0em" dy="0.95em" style="text-anchor: middle; visibility: inherit; font-family: Roboto, sans-serif; font-size: 12px; font-weight: 200;" fill="rgb(255, 255, 255)" stroke="none" stroke-width="1px">0</text><text x="191.05048076923077" y="0" dx="0em" dy="0.95em" style="text-anchor: middle; visibility: inherit; font-family: Roboto, sans-serif; font-size: 12px; font-weight: 200;" fill="rgb(255, 255, 255)" stroke="none" stroke-width="1px">10k</text><text x="286.5757211538462" y="0" dx="0em" dy="0.95em" style="text-anchor: middle; visibility: inherit; font-family: Roboto, sans-serif; font-size: 12px; font-weight: 200;" fill="rgb(255, 255, 255)" stroke="none" stroke-width="1px">20k</text><text x="382.10096153846155" y="0" dx="0em" dy="0.95em" style="text-anchor: middle; visibility: inherit; font-family: Roboto, sans-serif; font-size: 12px; font-weight: 200;" fill="rgb(255, 255, 255)" stroke="none" stroke-width="1px">30k</text><text x="477.62620192307696" y="0" dx="0em" dy="0.95em" style="text-anchor: middle; visibility: inherit; font-family: Roboto, sans-serif; font-size: 12px; font-weight: 200;" fill="rgb(255, 255, 255)" stroke="none" stroke-width="1px">40k</text><text x="573.1514423076924" y="0" dx="0em" dy="0.95em" style="text-anchor: middle; visibility: inherit; font-family: Roboto, sans-serif; font-size: 12px; font-weight: 200;" fill="rgb(255, 255, 255)" stroke="none" stroke-width="1px">50k</text><text x="668.6766826923076" y="0" dx="0em" dy="0.95em" style="text-anchor: middle; visibility: inherit; font-family: Roboto, sans-serif; font-size: 12px; font-weight: 200;" fill="rgb(255, 255, 255)" stroke="none" stroke-width="1px">60k</text><text x="764.2019230769231" y="0" dx="0em" dy="0.95em" style="text-anchor: middle; visibility: inherit; font-family: Roboto, sans-serif; font-size: 12px; font-weight: 200;" fill="rgb(255, 255, 255)" stroke="none" stroke-width="1px">70k</text><text x="859.7271634615385" y="0" dx="0em" dy="0.95em" style="text-anchor: middle; visibility: inherit; font-family: Roboto, sans-serif; font-size: 12px; font-weight: 200;" fill="rgb(255, 255, 255)" stroke="none" stroke-width="1px">80k</text><text x="955.2524038461539" y="0" dx="0em" dy="0.95em" style="text-anchor: middle; visibility: inherit; font-family: Roboto, sans-serif; font-size: 12px; font-weight: 200;" fill="rgb(255, 255, 255)" stroke="none" stroke-width="1px">90k</text><text x="1050.7776442307693" y="0" dx="0em" dy="0.95em" style="text-anchor: middle; visibility: inherit; font-family: Roboto, sans-serif; font-size: 12px; font-weight: 200;" fill="rgb(255, 255, 255)" stroke="none" stroke-width="1px">100k</text><text x="1146.3028846153848" y="0" dx="0em" dy="0.95em" style="text-anchor: middle; visibility: inherit; font-family: Roboto, sans-serif; font-size: 12px; font-weight: 200;" fill="rgb(255, 255, 255)" stroke="none" stroke-width="1px">110k</text><text x="1241.828125" y="0" dx="0em" dy="0.95em" style="text-anchor: middle; visibility: hidden; font-family: Roboto, sans-serif; font-size: 12px; font-weight: 200;" fill="rgb(255, 255, 255)" stroke="none" stroke-width="1px">120k</text></g><line x1="0" y1="0" x2="1241.828125" y2="0" fill="rgb(0, 0, 0)" stroke="rgb(204, 204, 204)" stroke-width="1px"></line></g></g></g></g></svg>