<svg viewBox="0 0 1283 400" xmlns="http://www.w3.org/2000/svg"><g><g><g><g><g><line x1="30.78125" y1="344.57133877638546" x2="25.78125" y2="344.57133877638546" style="visibility: inherit;" fill="rgb(0, 0, 0)" stroke="rgb(204, 204, 204)" stroke-width="1px"></line><line x1="30.78125" y1="303.97391870245696" x2="25.78125" y2="303.97391870245696" style="visibility: inherit;" fill="rgb(0, 0, 0)" stroke="rgb(204, 204, 204)" stroke-width="1px"></line><line x1="30.78125" y1="275.1695907602664" x2="25.78125" y2="275.1695907602664" style="visibility: inherit;" fill="rgb(0, 0, 0)" stroke="rgb(204, 204, 204)" stroke-width="1px"></line><line x1="30.78125" y1="252.82721823958434" x2="25.78125" y2="252.82721823958434" style="visibility: inherit;" fill="rgb(0, 0, 0)" stroke="rgb(204, 204, 204)" stroke-width="1px"></line><line x1="30.78125" y1="234.5721706863378" x2="25.78125" y2="234.5721706863378" style="visibility: inherit;" fill="rgb(0, 0, 0)" stroke="rgb(204, 204, 204)" stroke-width="1px"></line><line x1="30.78125" y1="219.13774790005104" x2="25.78125" y2="219.13774790005104" style="visibility: inherit;" fill="rgb(0, 0, 0)" stroke="rgb(204, 204, 204)" stroke-width="1px"></line><line x1="30.78125" y1="205.76784274414726" x2="25.78125" y2="205.76784274414726" style="visibility: inherit;" fill="rgb(0, 0, 0)" stroke="rgb(204, 204, 204)" stroke-width="1px"></line><line x1="30.78125" y1="193.9747506124092" x2="25.78125" y2="193.9747506124092" style="visibility: inherit;" fill="rgb(0, 0, 0)" stroke="rgb(204, 204, 204)" stroke-width="1px"></line><line x1="30.78125" y1="183.42547022346523" x2="25.78125" y2="183.42547022346523" style="visibility: inherit;" fill="rgb(0, 0, 0)" stroke="rgb(204, 204, 204)" stroke-width="1px"></line><line x1="30.78125" y1="114.02372220734611" x2="25.78125" y2="114.02372220734611" style="visibility: inherit;" fill="rgb(0, 0, 0)" stroke="rgb(204, 204, 204)" stroke-width="1px"></line><line x1="30.78125" y1="73.42630213341752" x2="25.78125" y2="73.42630213341752" style="visibility: inherit;" fill="rgb(0, 0, 0)" stroke="rgb(204, 204, 204)" stroke-width="1px"></line><line x1="30.78125" y1="44.621974191226954" x2="25.78125" y2="44.621974191226954" style="visibility: inherit;" fill="rgb(0, 0, 0)" stroke="rgb(204, 204, 204)" stroke-width="1px"></line><line x1="30.78125" y1="22.279601670544977" x2="25.78125" y2="22.279601670544977" style="visibility: inherit;" fill="rgb(0, 0, 0)" stroke="rgb(204, 204, 204)" stroke-width="1px"></line><line x1="30.78125" y1="4.0245541172984085" x2="25.78125" y2="4.0245541172984085" style="visibility: inherit;" fill="rgb(0, 0, 0)" stroke="rgb(204, 204, 204)" stroke-width="1px"></line></g><g transform="translate(20.78125, 0)"><text x="0" y="344.57133877638546" dx="0em" dy="0.3em" style="text-anchor: end; visibility: inherit; font-family: Roboto, sans-serif; font-size: 12px; font-weight: 200;" fill="rgb(255, 255, 255)" stroke="none" stroke-width="1px">2</text><text x="0" y="303.97391870245696" dx="0em" dy="0.3em" style="text-anchor: end; visibility: hidden; font-family: Roboto, sans-serif; font-size: 12px; font-weight: 200;" fill="rgb(255, 255, 255)" stroke="none" stroke-width="1px">3</text><text x="0" y="275.1695907602664" dx="0em" dy="0.3em" style="text-anchor: end; visibility: hidden; font-family: Roboto, sans-serif; font-size: 12px; font-weight: 200;" fill="rgb(255, 255, 255)" stroke="none" stroke-width="1px">4</text><text x="0" y="252.82721823958434" dx="0em" dy="0.3em" style="text-anchor: end; visibility: inherit; font-family: Roboto, sans-serif; font-size: 12px; font-weight: 200;" fill="rgb(255, 255, 255)" stroke="none" stroke-width="1px">5</text><text x="0" y="234.5721706863378" dx="0em" dy="0.3em" style="text-anchor: end; visibility: hidden; font-family: Roboto, sans-serif; font-size: 12px; font-weight: 200;" fill="rgb(255, 255, 255)" stroke="none" stroke-width="1px">6</text><text x="0" y="219.13774790005104" dx="0em" dy="0.3em" style="text-anchor: end; visibility: hidden; font-family: Roboto, sans-serif; font-size: 12px; font-weight: 200;" fill="rgb(255, 255, 255)" stroke="none" stroke-width="1px">7</text><text x="0" y="205.76784274414726" dx="0em" dy="0.3em" style="text-anchor: end; visibility: inherit; font-family: Roboto, sans-serif; font-size: 12px; font-weight: 200;" fill="rgb(255, 255, 255)" stroke="none" stroke-width="1px">8</text><text x="0" y="193.9747506124092" dx="0em" dy="0.3em" style="text-anchor: end; visibility: hidden; font-family: Roboto, sans-serif; font-size: 12px; font-weight: 200;" fill="rgb(255, 255, 255)" stroke="none" stroke-width="1px">9</text><text x="0" y="183.42547022346523" dx="0em" dy="0.3em" style="text-anchor: end; visibility: hidden; font-family: Roboto, sans-serif; font-size: 12px; font-weight: 200;" fill="rgb(255, 255, 255)" stroke="none" stroke-width="1px">10</text><text x="0" y="114.02372220734611" dx="0em" dy="0.3em" style="text-anchor: end; visibility: inherit; font-family: Roboto, sans-serif; font-size: 12px; font-weight: 200;" fill="rgb(255, 255, 255)" stroke="none" stroke-width="1px">20</text><text x="0" y="73.42630213341752" dx="0em" dy="0.3em" style="text-anchor: end; visibility: hidden; font-family: Roboto, sans-serif; font-size: 12px; font-weight: 200;" fill="rgb(255, 255, 255)" stroke="none" stroke-width="1px">30</text><text x="0" y="44.621974191226954" dx="0em" dy="0.3em" style="text-anchor: end; visibility: hidden; font-family: Roboto, sans-serif; font-size: 12px; font-weight: 200;" fill="rgb(255, 255, 255)" stroke="none" stroke-width="1px">40</text><text x="0" y="22.279601670544977" dx="0em" dy="0.3em" style="text-anchor: end; visibility: inherit; font-family: Roboto, sans-serif; font-size: 12px; font-weight: 200;" fill="rgb(255, 255, 255)" stroke="none" stroke-width="1px">50</text><text x="0" y="4.0245541172984085" dx="0em" dy="0.3em" style="text-anchor: end; visibility: hidden; font-family: Roboto, sans-serif; font-size: 12px; font-weight: 200;" fill="rgb(255, 255, 255)" stroke="none" stroke-width="1px">60</text></g><line x1="30.78125" y1="0" x2="30.78125" y2="377" fill="rgb(0, 0, 0)" stroke="rgb(204, 204, 204)" stroke-width="1px"></line></g></g><g transform="translate(30, 0)" clip-path="url(#clip_0)"><clipPath id="clip_0"><rect width="1252" height="377"></rect></clipPath><g><g><g><line x1="0" y1="0" x2="0" y2="377" fill="rgb(0, 0, 0)" stroke="rgb(189, 189, 189)" stroke-width="1px" opacity="0.25"></line><line x1="96.32451923076924" y1="0" x2="96.32451923076924" y2="377" fill="rgb(0, 0, 0)" stroke="rgb(189, 189, 189)" stroke-width="1px" opacity="0.25"></line><line x1="192.64903846153848" y1="0" x2="192.64903846153848" y2="377" fill="rgb(0, 0, 0)" stroke="rgb(189, 189, 189)" stroke-width="1px" opacity="0.25"></line><line x1="288.97355769230774" y1="0" x2="288.97355769230774" y2="377" fill="rgb(0, 0, 0)" stroke="rgb(189, 189, 189)" stroke-width="1px" opacity="0.25"></line><line x1="385.29807692307696" y1="0" x2="385.29807692307696" y2="377" fill="rgb(0, 0, 0)" stroke="rgb(189, 189, 189)" stroke-width="1px" opacity="0.25"></line><line x1="481.6225961538462" y1="0" x2="481.6225961538462" y2="377" fill="rgb(0, 0, 0)" stroke="rgb(189, 189, 189)" stroke-width="1px" opacity="0.25"></line><line x1="577.9471153846155" y1="0" x2="577.9471153846155" y2="377" fill="rgb(0, 0, 0)" stroke="rgb(189, 189, 189)" stroke-width="1px" opacity="0.25"></line><line x1="674.2716346153845" y1="0" x2="674.2716346153845" y2="377" fill="rgb(0, 0, 0)" stroke="rgb(189, 189, 189)" stroke-width="1px" opacity="0.25"></line><line x1="770.5961538461539" y1="0" x2="770.5961538461539" y2="377" fill="rgb(0, 0, 0)" stroke="rgb(189, 189, 189)" stroke-width="1px" opacity="0.25"></line><line x1="866.9206730769231" y1="0" x2="866.9206730769231" y2="377" fill="rgb(0, 0, 0)" stroke="rgb(189, 189, 189)" stroke-width="1px" opacity="0.25"></line><line x1="963.2451923076924" y1="0" x2="963.2451923076924" y2="377" fill="rgb(0, 0, 0)" stroke="rgb(189, 189, 189)" stroke-width="1px" opacity="0.25"></line><line x1="1059.5697115384614" y1="0" x2="1059.5697115384614" y2="377" fill="rgb(0, 0, 0)" stroke="rgb(189, 189, 189)" stroke-width="1px" opacity="0.25"></line><line x1="1155.894230769231" y1="0" x2="1155.894230769231" y2="377" fill="rgb(0, 0, 0)" stroke="rgb(189, 189, 189)" stroke-width="1px" opacity="0.25"></line><line x1="1252.21875" y1="0" x2="1252.21875" y2="377" fill="rgb(0, 0, 0)" stroke="rgb(189, 189, 189)" stroke-width="1px" opacity="0.25"></line></g><g><line x1="0" y1="344.57133877638546" x2="1252.21875" y2="344.57133877638546" fill="rgb(0, 0, 0)" stroke="rgb(189, 189, 189)" stroke-width="1px" opacity="0.25"></line><line x1="0" y1="303.97391870245696" x2="1252.21875" y2="303.97391870245696" fill="rgb(0, 0, 0)" stroke="rgb(189, 189, 189)" stroke-width="1px" opacity="0.25"></line><line x1="0" y1="275.1695907602664" x2="1252.21875" y2="275.1695907602664" fill="rgb(0, 0, 0)" stroke="rgb(189, 189, 189)" stroke-width="1px" opacity="0.25"></line><line x1="0" y1="252.82721823958434" x2="1252.21875" y2="252.82721823958434" fill="rgb(0, 0, 0)" stroke="rgb(189, 189, 189)" stroke-width="1px" opacity="0.25"></line><line x1="0" y1="234.5721706863378" x2="1252.21875" y2="234.5721706863378" fill="rgb(0, 0, 0)" stroke="rgb(189, 189, 189)" stroke-width="1px" opacity="0.25"></line><line x1="0" y1="219.13774790005104" x2="1252.21875" y2="219.13774790005104" fill="rgb(0, 0, 0)" stroke="rgb(189, 189, 189)" stroke-width="1px" opacity="0.25"></line><line x1="0" y1="205.76784274414726" x2="1252.21875" y2="205.76784274414726" fill="rgb(0, 0, 0)" stroke="rgb(189, 189, 189)" stroke-width="1px" opacity="0.25"></line><line x1="0" y1="193.9747506124092" x2="1252.21875" y2="193.9747506124092" fill="rgb(0, 0, 0)" stroke="rgb(189, 189, 189)" stroke-width="1px" opacity="0.25"></line><line x1="0" y1="183.42547022346523" x2="1252.21875" y2="183.42547022346523" fill="rgb(0, 0, 0)" stroke="rgb(189, 189, 189)" stroke-width="1px" opacity="0.25"></line><line x1="0" y1="114.02372220734611" x2="1252.21875" y2="114.02372220734611" fill="rgb(0, 0, 0)" stroke="rgb(189, 189, 189)" stroke-width="1px" opacity="0.25"></line><line x1="0" y1="73.42630213341752" x2="1252.21875" y2="73.42630213341752" fill="rgb(0, 0, 0)" stroke="rgb(189, 189, 189)" stroke-width="1px" opacity="0.25"></line><line x1="0" y1="44.621974191226954" x2="1252.21875" y2="44.621974191226954" fill="rgb(0, 0, 0)" stroke="rgb(189, 189, 189)" stroke-width="1px" opacity="0.25"></line><line x1="0" y1="22.279601670544977" x2="1252.21875" y2="22.279601670544977" fill="rgb(0, 0, 0)" stroke="rgb(189, 189, 189)" stroke-width="1px" opacity="0.25"></line><line x1="0" y1="4.0245541172984085" x2="1252.21875" y2="4.0245541172984085" fill="rgb(0, 0, 0)" stroke="rgb(189, 189, 189)" stroke-width="1px" opacity="0.25"></line></g></g></g><g><g><line x1="96.32451923076924" y1="0" x2="96.32451923076924" y2="377" fill="rgb(0, 0, 0)" stroke="rgb(153, 153, 153)" stroke-width="1.5px"></line></g></g><g><g><g><g><g><path stroke="rgb(187, 187, 187)" stroke-width="2px" d="M97.19143990384615,53.857142857142875L98.5881454326923,78.43257094852801L99.31057932692308,65.00521008490203L99.35874158653846,81.54951464194178L100.61096033653845,73.51865202112845L101.28523197115385,74.06429398331056L101.47788100961539,68.73499974841619L102.48928846153846,89.88908641141148L104.22312980769232,104.14630016823209L104.60842788461538,125.14966062149048L105.52351081730768,141.75725672637316L106.10145793269231,151.85153466634586L108.07611057692307,162.81727334034247L108.79854447115385,147.57823708777346L109.90627644230769,152.95782171034918L110.05076322115384,162.77623866662992L111.68828004807693,178.84164436829306L113.95190625,191.27383138368523L114.91515144230769,196.9161369449489L115.68574759615385,206.2489240200021L116.31185697115384,198.18848139436355L117.3714266826923,212.4172955037688L118.71996995192306,209.3874683246149L119.20159254807692,208.7805833898068L119.49056610576923,214.20885773315814L120.88727163461539,215.14379553945616L121.99500360576923,218.42358366884955L122.23581490384616,225.9771165264433L122.33213942307692,231.11667213830313L123.10273557692307,214.5880051179143L123.39170913461538,214.503675777349L125.02922596153846,227.88004035242662L126.95571634615384,234.97946264762808L127.24468990384617,240.75577193022482L127.29285216346153,240.59558563097949L127.96712379807693,237.1478305658187L128.78588221153848,217.51072816625464L131.00134615384616,218.36123972360633L133.07232331730768,232.29913336188213L133.60210817307694,234.28435334327628L134.99881370192307,243.55854730324796L137.55141346153846,230.6659386594127L137.9848737980769,224.43771846231826L138.94811899038461,229.47293275269556L141.64520552884616,234.53486887135927L144.39045432692308,243.2917478686817L145.16105048076923,256.6426033946647L145.69083533653847,269.28351959732674L146.22062019230768,256.37234534698973L147.135703125,241.92444426725166L147.85813701923078,230.6200474718894L149.68830288461538,230.20815234387373L149.78462740384614,242.27394953402617L150.45889903846154,231.06918149472878L150.79603485576922,242.60560596735192L151.75928004807693,227.34671937143736L152.33722716346153,243.28304557832797L152.81884975961538,243.52756042440805L152.91517427884614,248.8861807311371L153.30047235576924,244.849010211536L154.88982692307692,257.90846424831386L156.52734375,249.27293347577256L156.6236682692308,253.42105435347995L156.76815504807692,246.84711023492085L157.2497776442308,258.83544048355543L157.44242668269231,261.02381088969236L160.0431887019231,260.7157098734092L161.00643389423078,273.21195564560577L162.4994639423077,261.88738779749207L164.47411658653846,261.45943588619804L166.40060697115385,272.6339269647213L166.44876923076922,276.8194947982141L168.18261057692305,278.067528147516L168.95320673076924,261.20892731579755L169.0976935096154,263.72287589003895L170.78337259615384,258.7971580921884M171.60213100961536,268.581338220546L172.56537620192307,267.77790185658097L173.0951610576923,272.0476010175441L174.58819110576923,279.5581812086354L174.97348918269233,277.0749528487576L176.65916826923078,280.3559285114809L177.38160216346154,277.17710729852496L178.20036057692306,265.79800691602105L178.29668509615385,260.2950411268809L178.63382091346153,253.47715053287658L181.81253004807695,248.94853403757227L185.13572596153847,258.0009890983473L185.76183533653847,251.23406008601296L186.09897115384615,262.9203925773922L187.64016346153846,261.8976820518664L187.7846502403846,250.91790453678942L188.1217860576923,254.11464638221346L189.61481610576922,262.72368851515876L190.5780612980769,262.50269648509703L190.6262235576923,259.0364130446453L191.49314423076922,259.49395436319423L195.8759098557692,249.4737720656314L196.30937019230768,262.840767176347L196.79099278846152,260.5002882328502L197.3207776442308,274.16880820342857L202.5704639423077,266.04613380703944L204.01533173076922,259.32958524294577L207.8683125,258.57453324048583L209.79480288461536,267.4285973507119L211.48048197115384,250.73501012084748L213.45513461538462,257.5503725116858L213.69594591346154,266.5887418239407L214.32205528846154,273.5113028582863L214.70735336538462,269.43530901333025L214.85184014423075,274.99810188423436L215.81508533653846,270.53581680906365L216.68200600961538,248.11428513966746L217.35627764423077,249.1938427419416L217.98238701923077,260.8851456182057L220.24601322115385,257.94139128539166L220.29417548076924,250.6751790938307L221.3055829326923,255.73700649784973L222.65412620192308,261.60401435544406L223.03942427884616,269.22184017692877L223.42472235576923,258.21784418606296L225.399375,245.69211679177886L225.83283533653847,256.0148877722601L226.55526923076926,263.77121129337667L226.9887295673077,275.25404915616286L227.80748798076922,289.84087047710034L228.09646153846154,277.96322401382747L228.72257091346157,289.32569021115233L228.7707331730769,287.19545402093223L228.8188954326923,269.7840186436272L229.4450048076923,262.67845024308457L230.26376322115385,271.31303747182426L231.56414423076922,267.7737639701398L232.6237139423077,256.13760009021047L233.10533653846153,254.36216120240462L233.92409495192308,265.384216928029L236.81383052884613,269.3511011117396L238.3068605769231,284.33835578448833L238.7884831730769,288.9515637902892L239.31826802884615,288.4598723621184L242.20800360576922,274.6388868731504L244.5679543269231,275.89633673860146L244.61611658653845,278.3418172030525L245.57936177884613,278.5850925784831L245.62752403846153,268.7703223442495L246.34995793269232,271.6593180713559L247.55401442307692,271.5529960352986L248.9025576923077,270.2385659934094L249.81764062500002,270.1321746933867L250.1547764423077,276.761059323736L251.02169711538463,280.0756877636343L251.16618389423076,281.9486176219352L252.17759134615383,286.8167490432434L253.33348557692307,280.54311553239296L253.47797235576923,291.2725272838857L255.30813822115385,263.07401381402144L257.71625120192306,274.1369386274129L260.0280396634615,274.07049639128337L262.77328846153847,276.56258940691936L263.8328581730769,269.27121170066584L263.8810204326923,278.5364617418082L264.21815625,277.1832378693909L264.65161658653847,283.25704153041056L265.90383533653846,284.71796590883076L267.8303257211539,281.8242020006675L267.9748125,278.31156428006517L269.46784254807693,261.08800524455313L270.19027644230766,252.10450552557825L272.0204423076923,263.6903708884767L272.16492908653845,269.5496837338967L272.357578125,271.03263790010215L272.6947139423077,267.88761621809084L272.8392007211538,259.3896951059044L273.7542836538462,254.9586447785691L274.8138533653846,266.56345624132393L277.1738040865385,271.25503331651845L278.18521153846154,255.56302352217227L281.3639206730769,254.5020842647833L281.4602451923077,268.613465438043L282.375328125,272.67732257649163L283.9646826923077,268.7395923069029L284.39814302884616,258.84754935619463L284.5907920673077,265.1466796875916L284.879765625,262.8247142502786L285.45771274038464,276.02776278900524L285.60219951923074,277.62114414058317L287.48052764423073,291.5778469151821L289.26253125,281.7716881454325L289.3588557692308,262.6041349961736L289.79231610576926,266.7656277717356L290.32210096153847,279.34488089222646L290.6110745192308,275.4808000408037L290.94821033653847,281.95623125454347L292.73021394230767,271.63287008712655L293.9342704326923,254.94110566097376L294.2232439903846,246.9090544097616L294.51221754807693,266.34914910830486L294.6567043269231,271.1616204158492L295.71627403846156,272.2516347329006L297.401953125,283.4986878056728L297.93173798076924,286.47927895205186L299.5692548076923,267.34621919002836L301.01412259615387,279.2425516349317L303.9520204326923,268.67587000699166L304.4336430288462,283.2974572327292L309.9723028846154,290.8728272568979L310.5020877403846,283.26392585767275L313.92160817307695,261.48989804976964L314.4032307692308,258.19013474230866L314.5958798076923,262.57384736956186L315.79993629807694,263.5355014387203L318.1117247596154,264.12570716218096L319.8937283653846,279.89945761465157L321.6757319711538,268.2636270076389L321.8683810096154,270.0105516120966L321.9647055288462,262.57460450163927L322.25367908653845,263.1437710731521L322.68713942307687,279.7367988434671L323.79487139423077,282.34078948886525L326.0584975961538,280.4267134800722L328.56293509615386,273.89920161027027L328.6592596153846,280.3067072212934L328.8037463942308,279.1817210397139L328.8519086538462,290.2440142770374L329.23720673076923,286.5247626399225L331.06737259615386,292.3572913032761L332.41591586538465,290.9845897839536L333.3309987980769,276.04264270757574L333.86078365384617,266.6591117732434L334.29424399038464,278.15577969843605L335.78727403846153,291.6147734573174L336.3170588942308,280.0408229699733L339.0141454326923,281.214645008194L339.92922836538463,294.4633154867335L340.55533774038463,295.3822288691343L340.98879807692305,286.2014706858011L341.08512259615384,278.8066311787484L343.10793750000005,286.36680560094595L343.3005865384615,295.19591690104585L344.0230204326923,290.0120211688269L344.16750721153846,294.91025715116086L344.21566947115383,293.0803726855874L345.75686177884614,295.417142834384L346.38297115384614,295.94205270200484L347.5870276442307,269.72606163450564L348.2131370192307,272.3248655583892L348.9355709134615,275.76022397694123L349.36903125000003,278.9965961376586L349.51351802884614,285.1049017261453L350.9583858173077,292.58188080642L352.1142800480769,287.15179851941787L352.2587668269231,293.0630973978994L352.35509134615387,290.940439701365L354.1852572115385,283.0665436592333L354.57055528846155,286.14338494155254L356.1599098557693,288.64245133475936L358.13456249999996,271.5220991090117L358.5680228365385,267.8809023050057L358.8088341346154,268.1209404992947L361.2169471153846,278.3097345082718L361.7948942307693,289.18997076416264L364.01035817307695,286.8369816386694L368.82658413461536,280.51431676021616L371.8608064903846,273.13210496427934L373.20934975961535,263.746053247628L374.3170817307692,276.69313099717834L376.7733569711538,271.25215490217687L378.4108737980769,283.0808544429187L379.0369831730769,279.61827399751246L382.36017908653844,286.25464663559234L382.74547716346154,266.73031494436174L383.9495336538462,279.9625155930335L384.72012980769233,285.86768272719127L385.28844447115387,293.0027346468479L387.3690540865384,298.2668809542688L388.57311057692306,302.91415831525865L390.1624651442308,305.28048832876306L390.2587896634616,290.2369894491908L391.2220348557692,290.6475738019133L391.46284615384616,283.0678151027182L391.55917067307695,288.496454593253L391.6554951923077,285.4794939168333L395.6529627403846,294.87592740548746L396.51988341346157,300.5892254219995L398.2537247596154,294.5488304920538L399.26513221153846,285.130237697227L400.80632451923077,282.1113668113816L400.90264903846156,282.1120134909871L402.05854326923077,293.5972582967804L402.1067055288462,280.88423865122394L402.3475168269231,287.5050806606832L402.58832812500003,262.87565256515535L407.597203125,253.6715558749035L410.2461274038462,270.9347904870425L410.3906141826923,274.0903881805407L411.11304807692306,280.8866719020491L411.353859375,283.26212973018374L411.97996875,281.1252996351601L412.2207800480769,270.8313795400636L412.99137620192306,275.064472139093L413.2321875,283.14485757570606L413.6656478365385,276.0004631842332L414.3880817307692,273.9861933710716L417.1814927884615,272.6244329459627L419.44511899038463,280.88124949032374L419.92674158653847,285.8225419633271L420.88998677884615,294.08924583292696L421.4197716346154,297.90887559191367L423.39442427884615,286.80838225671073L425.3209146634615,281.2265182470276L425.7062127403846,281.73139259255214L426.1396730769231,286.84597125285484L426.91026923076925,295.8788496236976L428.88492187500003,299.5129571052208L429.02940865384613,295.08319953664443L429.55919350961534,296.1091895979778L431.7264951923077,255.16579841451346L432.49709134615387,264.48291166881086L432.73790264423076,274.36025362164156L432.83422716346155,285.01961173851737L433.79747235576923,275.4215289917375L435.53131370192307,280.2775705570412L438.5655360576923,283.20170654240746L438.7100228365385,283.44433645617926L438.99899639423074,274.1735366303701L440.8291622596154,280.797242572165L441.50343389423074,267.42450214373895L442.90013942307695,279.29951709583963L445.0674411057692,296.1521013452282L446.0788485576923,304.5277366052018L447.71636538461536,307.58531092755635L449.16123317307694,307.70582982784464L449.8836670673077,313.78717400710985L450.5579387019231,309.01796355896386L453.3031875,289.48701907740843L453.8329723557692,291.7939653011717L453.8811346153846,288.46498584723486L455.2296778846154,296.374121493237L455.4223269230769,297.66961581949374L455.5186514423077,288.65366966181693L456.09659855769235,289.70577709389045L457.25249278846155,289.089657713173L457.8304399038462,300.8207661847874L458.21573798076923,305.0387358087227L458.50471153846155,310.6597076490749L459.03449639423076,310.40761715542527L459.4197944711538,295.8587809793493L459.5161189903846,298.9060246017867L461.442609375,294.10845436013454L461.87606971153843,302.67005945836047L461.9723942307692,287.40696181182085L462.1168810096154,280.6307559876163L463.60991105769233,288.46004573713225L463.8988846153846,292.8529914511296L464.6694807692308,296.4027905949923L467.8963521634616,292.6861897758425L468.0408389423077,293.8794555563562L469.2930576923077,300.36614613629644L471.1232235576923,303.34852595237123L471.1713858173077,313.304627617384L472.37544230769237,300.4234358273142L473.19420072115383,309.41014745887014L473.77214783653847,313.9344492551578L474.0129591346154,289.6797302269209L474.0611213942308,294.4332077867805L474.35009495192304,288.57343847519115L475.9394495192308,285.10548410040155L476.22842307692304,284.2296521811583L477.5769663461538,280.9794159679905L480.32221514423077,287.14691723580233L483.21195072115387,295.65806751657374L483.5972487980769,286.15790552650725L484.7531430288462,298.80256192748215L486.87228245192307,293.60459810002493L487.9318521634615,309.0635051614018L488.84693509615386,309.86323634139404L488.8950973557692,279.9672935678187L490.243640625,292.7723141220354L491.3995348557692,272.2707130940916L492.0256442307692,285.60554634425307L493.2778629807692,287.7530718134321L494.3374326923077,289.10355665816485L494.62640625,289.2674064286678L495.01170432692305,294.2168424154522L495.252515625,298.96477904722633L497.9496021634615,283.19652075958516L498.4793870192307,295.4204281876444L499.15365865384615,284.3379292165168L500.11690384615383,291.0610409371118L500.79117548076925,275.21198863242137L500.9838245192307,282.73335599840567L504.5959939903846,293.02542444829686L506.04086177884614,294.51689430754647L507.3412427884615,290.39930547170036L507.6302163461539,273.8196803113481L508.0636766826923,277.26080937702346L510.7126009615385,283.3681717990776L511.1460612980769,281.5484283558525L512.6872536057692,269.9077038428466L512.8799026442307,279.9480270819658L514.3729326923077,283.46033306366445L514.66190625,295.8015789040956L515.528826923077,291.15966333978423L515.8178004807693,300.68930413160297L517.16634375,309.4082177859896L517.2626682692307,306.16156563802593L518.3222379807693,283.63016971795804L518.4185625,277.132382629212L520.5858641826923,283.2464237264276L521.0674867788462,291.01229879576147L522.6086790865385,304.33064976427363L522.8494903846154,273.6305033241673L523.1866262019231,262.55464155627146L523.7164110576923,269.9731280714616L525.1131165865385,266.05483338705744L525.3057656249999,271.2319923353184L528.3881502403846,264.285667108913L528.6289615384616,267.22943707043925L529.3995576923077,275.84343005931186L530.6517764423077,281.45864632252756L531.4223725961538,277.3141115373193L531.8558329326924,276.49609178734426L534.69740625,283.23680367343684L534.8900552884616,287.57079201849643L536.3830853365384,291.0281594693483L538.2132512019231,291.8294603366065L539.2728209134616,289.70229528067955L539.7544435096154,273.78870673695315L539.947092548077,284.07366205571253L541.199311298077,278.9311787517405L543.0776394230769,282.3474195110578L543.6555865384615,293.5397469184306L543.7519110576924,296.92083396972197L544.089046875,299.7942396671238L544.8114807692308,293.07713421986244L545.6784014423076,288.5693759318481L546.352673076923,267.5139404185823L546.6416466346154,268.90558239496164L546.978782451923,280.423921936766L547.21959375,286.7428104474016L547.7012163461538,289.4507215438241L551.0244122596154,291.57402934273165L552.5656045673077,285.2124314007475L552.6619290865384,293.42158701090193L554.9737175480769,293.0294402727137L555.4071778846154,290.0262135233249L555.8406382211539,299.2711072851215L556.3222608173077,293.6619870923481L557.6226418269231,288.0559757033443L558.2969134615385,293.08624805360205L561.3311358173077,290.1395957008987L561.3792980769231,287.96066864950285L562.3425432692308,286.72379694398063L562.9204903846154,294.0090723945755L563.3057884615384,280.7394879963887L565.2804411057692,262.1694225884784L565.3286033653847,267.23917429170325L566.1955240384615,264.1394457049118L568.1701766826923,269.7089172445554L568.6999615384615,271.0038151560352L569.3260709134615,285.51515170986926L569.9521802884615,283.63734262672153L570.7709387019231,286.7394260174226L572.0713197115384,298.72731175276954L572.5529423076923,294.3386077116943L573.130889423077,282.5051461347689L573.1790516826923,272.75893108899356L574.6720817307693,278.4519231809851L574.7202439903847,288.3917597701302L574.76840625,288.76615112352914L575.2500288461539,279.91436441819735L575.8761382211538,284.40334492423347L576.1651117788462,259.41231325288436L576.5504098557692,260.80585300102234L576.8393834134615,260.9329042548969L580.2107415865385,267.60398875444054L581.5111225961539,269.34508140588986L583.0041526442308,279.9991616669079L583.2449639423077,296.0376835430251L583.8229110576923,296.70687050203315L586.3755108173077,289.55543363572997L587.1942692307692,276.04508517041404L587.5314050480769,277.7666266061986L590.0840048076923,293.4428309914213L590.6137896634615,282.1227477030923L593.5998497596154,276.3300105167711L593.7443365384615,273.81689778145636L593.792498798077,279.95580173319394L596.1524495192308,278.0696591413816L598.5605625,281.221311864302L598.8495360576923,289.0615657440551L598.8976983173077,288.7470033803654L599.186671875,289.55890412761283L601.2576490384615,278.48791900949556L602.076407451923,264.2933745835105L603.6657620192308,274.63999948509604L604.1473846153846,276.93321575133706L604.7253317307692,282.3040489663242L605.8330637019232,285.8160247006537L606.699984375,287.8933916941906L607.6150673076924,291.4951916438614L608.0966899038461,301.9883732907729L608.193014423077,296.51257370665155L611.1790745192308,291.5481142266597L611.6606971153846,290.4464375734638L611.9978329326923,289.0266530374021L612.2386442307692,284.59537127204953L613.0092403846154,290.59463552462074L613.3463762019231,295.87717040262265L614.2614591346154,309.3829714563301L617.6328173076923,307.1631667085466L620.2817415865385,308.55781627169574L624.0865600961538,305.9540957328628L626.3020240384616,291.62351589149296L626.350186298077,292.8941801960275L626.5909975961539,298.09601754281016L626.9762956730768,302.77509732770187L627.8432163461539,291.0732372371386L629.7697067307693,291.02563800823293L630.9256009615384,257.9487151940362L631.2145745192308,271.9418673420347L631.2627367788461,281.9180913722896L632.9002536057693,278.09349625404144L633.4300384615384,287.7594803881036L635.2602043269231,283.6267890572841L635.4528533653845,289.3947629885072L635.7418269230769,286.37463628409887L636.0789627403847,275.7671874050467L636.127125,285.23659599624546L641.136,274.9002865024346L641.1841622596154,289.23378422793945L644.2183846153846,293.97921152655584L644.7000072115385,306.04452859681425L644.9408185096154,296.545172099136L646.5301730769231,301.4628267216093L646.7709843749999,313.0987601359977L647.3970937500001,300.59231166200436L647.4934182692308,303.17024657929613L650.527640625,294.6033056385606L652.646780048077,284.7116121021928L653.032078125,283.8991795905451L654.6214326923077,296.9496374242342L658.7152247596155,288.66538111531656L660.6417151442307,291.9217266974506L661.6049603365384,289.41677401445213L662.0384206730769,283.11286927129976L663.049828125,281.80660868271656L664.5428581730769,289.1746063417619L664.6391826923077,301.52193858953007L664.8318317307693,297.7798511453859L665.8432391826923,304.84323452396666L665.9877259615384,296.35773768658015L666.180375,294.27821718615917L666.9509711538461,298.17099586795433L667.3844314903846,302.84615154743057L667.673405048077,305.5303046451534L669.4554086538461,305.47062671252365L671.18925,310.51413142421495L671.9116838942308,280.2936439785243L672.0080084134615,277.51107026266715L674.6087704326923,277.37802194866157L676.583423076923,287.02973573160426L676.9687211538461,295.85639278383366L679.8102944711538,290.4662052290692L681.7367848557692,285.9971472173184L681.9294338942308,294.5883324767885L683.4224639423077,293.05948231786675L684.6265204326924,287.2375577920261L685.1563052884615,293.24978898897314L685.9269014423077,303.9785133724284L686.3603617788461,303.21957947629886L687.853391826923,312.00920268026164L687.9497163461538,316.72984556747855L688.5276634615385,310.4546810403699L690.357829326923,302.72907288691994L690.9357764423078,301.2703179435788L692.2843197115385,281.2610773707465L692.4769687500001,290.17692875649715L692.5732932692307,285.45082968924925L693.5847007211539,297.01629025361L693.6328629807692,290.0328845868814L694.355296875,293.7866563067615L694.6442704326923,300.61230863374425L694.9332439903847,294.3625880433275L696.2336250000001,286.1546581324031L696.3299495192307,296.55582680137456L696.4262740384614,294.6254547944151L699.9902812500001,277.4868017448795L702.2539074519232,270.9424872225023L704.4693713942307,268.6540466368658L704.7101826923077,283.3223496243732L705.9624014423077,296.83813644238563L707.3591069711539,293.5472601335993L710.9231141826923,291.1881430500098L711.3565745192307,290.4007516316404L714.5834459134616,284.95299161301824L716.6544230769231,295.70346266307456L716.8470721153847,289.91818849756595L717.6658305288461,300.97424222448177L718.7254002403846,297.7167335584323L720.0739435096153,306.0615063131455L720.2665925480769,307.1371701972586L721.2779999999999,292.4635221234147L721.904109375,284.4957730802879L722.5783810096153,287.98467341923845L723.1563281250001,297.92998546528236L723.2044903846154,280.42328068105996L723.6861129807692,285.7775630464922L723.7342752403846,298.2904351837758L725.6607656250001,301.54035695338564L725.8534146634615,284.9446421767337L730.4769915865385,286.70445571999926L731.5365612980769,293.4929952609341L732.3071574519231,296.18177997514846L733.4148894230769,297.4217516532509L733.9446742788462,276.72969048816395L736.0156514423078,289.4919374376567L738.182953125,299.27653522375317L740.06128125,301.56048426418056L741.5061490384616,310.5391308197515L743.2881526442308,311.08458073180975L746.5150240384615,317.9897746057006L746.948484375,323.1428571428571L746.9966466346154,296.32351743243856L747.8635673076923,305.93381999741047L748.2488653846154,301.3951129252204L749.1157860576923,304.7564688667982L749.693733173077,296.46170570135166L751.3794122596154,298.50145560532263L752.2944951923076,308.3422293195567L752.3908197115384,282.56768082786436L752.5353064903845,289.27296096340007L753.1614158653847,300.0245600522142L755.1842307692308,293.3397272600459L755.8585024038462,304.80212565781005L756.8217475961538,310.2683597827408L757.9294795673077,284.13273234606635L760.0004567307692,282.50464593559064L761.3489999999999,291.75137939952435L762.2159206730769,288.4566397119984L764.1905733173077,290.65147003836273L765.4427920673077,301.13370844908434L768.0917163461539,298.1744536017183L768.5251766826923,289.3220640384417L769.7773954326923,281.60691350816086L771.1741009615384,293.96540019932746L771.7038858173078,297.0670552700321L774.4009723557692,301.65318933847885L774.9307572115384,292.3155013596862L775.6050288461539,299.8164468663652L776.2311382211539,300.5504898917634L777.0980588942307,294.6443054181074L778.0131418269231,295.5509732844062L778.5429266826923,287.10042713172237L778.8319002403846,289.4288667706327L779.4098473557693,302.9437769701768L779.9396322115384,286.77452412824607L780.2286057692307,286.4347296978573L780.2767680288462,292.73513926394514L781.9142848557693,293.42367476942565L782.2514206730768,299.6025203620826L786.2970504807693,307.02117167226453L786.5378617788461,296.855928316902L786.8749975961539,272.89289575883464L787.1639711538461,284.33007044209864L788.7051634615384,289.76652316429346L788.7533257211538,282.97560231291624L788.9941370192308,290.66786987568963L789.6684086538461,278.2797958820385L790.0055444711538,269.48467850448304L790.0537067307692,272.7938121813714L793.2324158653845,281.0551377534553L793.3287403846153,288.68795114344243L795.2070685096154,287.45083348008575L795.2552307692308,282.1734863286811L797.2298834134615,283.83754343478546L799.4453473557692,281.4056984505577L800.5049170673077,289.1049322907465L805.3211430288462,298.4442823673285L806.0435769230769,303.15059584992434L806.8623353365384,289.4129154058936L807.2476334134615,297.59676969966677L808.8851502403846,295.5919288018102L810.426342548077,285.68416535332346L811.0524519230769,292.0823692238391L811.2451009615385,296.71801947857136L812.7381310096155,301.24686019274463L812.9789423076924,296.555449586745L813.2679158653846,299.0288142397473L813.7977007211539,309.3450414066334L813.9903497596155,288.87303939951295L814.7127836538461,295.9030946541923L815.3870552884616,285.95832451840306L818.5176021634616,295.647712745706L820.6849038461538,282.58122078472985L820.7330661057692,281.76797527023547L820.9257151442307,288.3617323837539L822.2742584134616,276.28440865593865L822.8522055288462,279.7481865987301L823.333828125,292.2072061560794L823.5264771634615,292.8995302059818L824.200748798077,284.7186416125817L824.9231826923077,296.28038802814547L826.0309146634615,298.6484009229951L826.464375,298.07803865708894L827.1386466346154,307.962468714996L832.8699555288462,305.2338043510144L833.6405516826923,313.0746335783505L834.3148233173076,315.5721018650238L834.9890949519231,303.46588354971664L835.4225552884616,279.0154513165745L836.8192608173076,281.5963347561938L837.73434375,291.60200550670226L838.5049399038461,281.5587793674093L838.7939134615385,287.2074761737675L839.5163473557692,283.7552865873246L839.8053209134615,290.3212902660331L841.1538641826924,297.0708143344025L841.2501887019231,300.80872362394496L841.6354867788463,306.92732132841235L846.9333353365384,312.7075336813775L847.9929050480769,295.5733049037237L848.2337163461539,295.9436416996118L849.6785841346153,307.360985035817L851.7977235576923,300.76072866545405L852.2793461538462,290.5149157087193L853.5797271634616,279.0082148382024L854.1095120192307,288.8763256044949L855.5543798076923,281.95347700301596L855.6988665865384,294.0122485275732L856.0841646634616,279.42420434564303L856.3249759615385,281.8308029271976L856.9992475961539,284.37047407453L857.5290324519232,293.58298189153123L859.5518473557693,285.02678774288574L859.648171875,300.00495516205365L861.8636358173077,294.73657242479345L861.9117980769231,298.6550152362805L863.8382884615385,298.5586142565394L864.7052091346154,294.0128223904638L866.2945637019232,302.75803368815866L867.2096466346154,309.91448789303263L867.6912692307693,290.31226592117594L869.3287860576922,301.0471766325129L870.7254915865384,299.1542143634922L871.3034387019231,305.53553195666734L871.6887367788461,307.02957498051035L872.8927932692308,283.46490719695703L874.5784723557692,281.95822617620894L874.6266346153847,289.3564545141105L876.9865853365385,295.9699886711472L877.1310721153847,304.42270614334416L877.2273966346154,294.45583245174294L877.5163701923077,291.6273417747133L880.6950793269231,289.44504764969025L882.2844338942308,279.7694261979977L884.4998978365385,285.570634840032L885.4149807692307,277.8578845306365L885.5594675480769,288.3237443081056L886.185576923077,281.0008004669908L889.0753125,283.2973244989239L892.3021838942308,297.0455688706636L894.6621346153846,284.8670692966196L894.7584591346155,297.9651348319911L895.2400817307691,287.58114435465194L896.9257608173077,299.1692316186311L897.3592211538462,300.4488678971874L900.8269038461539,292.82296329442977L901.0195528846155,293.23491738195156L903.8129639423076,297.2481764438059L904.9206959134616,292.9009916983345L905.7394543269231,303.3524564480509L907.1843221153847,301.6583511206744L907.2806466346154,298.1298867430353L907.9549182692308,298.3394881717526L908.099405048077,311.0481985840586L909.2552992788461,320.8416004037859L911.1817896634616,321.8104169446712L911.374438701923,320.89774077967917L913.8307139423076,318.2489906795788L914.5049855769231,299.20416613741173L916.3351514423076,309.2427344786639L916.4796382211538,299.8224038409078L917.3947211538463,309.486478853818L919.5138605769231,311.9691816528953L919.8028341346154,309.1966015826532L919.8509963942308,310.385416014065L920.6215925480769,290.20585689199487L921.1995396634615,295.8638052400554L923.7039771634614,301.2348644639584L924.7635468750001,309.1295617561548L924.8598713942308,297.7288610408642L925.7749543269231,286.58477669791404L926.401063701923,295.83834130117623L926.5455504807692,303.8262582989919L926.8826862980769,312.28873298830655L927.2679843750001,315.5878366995019L932.7103197115384,301.5711575449235L934.1070252403846,311.2672803856659L934.4441610576923,273.6533710848019L934.4923233173078,271.52306188075005L938.4897908653846,269.47843533695396L938.8269266826923,285.3248737043628L940.8015793269232,295.7149242837034L943.4023413461539,288.5839110612073L944.1247752403846,292.7347034619351L944.1729375,294.5198906192589L944.8953713942307,302.83161825417784L944.9435336538461,294.7330328205865L946.0031033653845,283.6869212609565L946.8218617788461,289.64757476579194L947.2553221153845,297.1917141646707L948.8928389423077,297.9430189202929L950.3377067307692,283.8280132951329L950.674842548077,281.7470954516828L952.8903064903847,288.0982847162883L955.2502572115385,297.1351434388199L955.7318798076924,288.0262326238736L956.0690156249999,289.88068981067073L956.1171778846153,301.5614633692685L956.3098269230769,301.80290471694883L958.188155048077,298.7282255006842L958.7179399038462,288.04145011589753L959.5366983173077,288.5958684916097L960.1146454326923,284.7613536081692L962.0892980769231,290.8653971299334L962.2337848557692,290.660559286355L963.4860036057692,289.859941282655L963.8231394230769,287.30911093087286L964.8827091346153,294.7049966200203L965.6533052884616,304.138847225497L966.0386033653846,300.72045593413606L967.0500108173078,291.73871376474995L967.6279579326923,284.39070328881957L968.0132560096154,277.473700212126L968.2059050480769,282.23036270596566L968.3985540865384,293.46660422031147L971.7699122596155,301.8334308305126L975.0931081730769,303.5083653676645L977.7901947115384,297.7319070246034L978.4163040865384,300.81927702769883L979.8130096153845,291.41857088002513L981.2578774038461,293.0753126214877L981.3060396634615,285.54073437409016L981.8839867788462,288.0088540767733L982.4619338942307,293.25535758157605L982.8472319711539,299.7564832064223L983.1843677884616,305.07625663039477L983.6659903846154,300.6552206191116L984.3402620192309,305.8416926063781L984.9663713942308,300.8112581162342L985.3998317307693,299.7805067603706L986.9410240384616,295.96727174828385L990.0234086538461,304.8415129595686L991.4682764423077,307.64674111211156L991.7090877403847,285.67304206842147L991.75725,278.9697312720172L992.2870348557692,278.4002129744831L992.8168197115385,281.71310931716334L998.2591550480769,288.43717519905675L998.3073173076923,303.351146377171L998.5962908653846,306.00168163841437L998.7407776442308,313.1470543237521L999.3187247596154,313.68070677394235L1000.0411586538462,314.7427608822872L1003.7496526442308,308.9712635145843L1005.0018713942308,303.136252978162L1005.2908449519231,292.45565642839875L1005.3390072115385,303.2352705198487L1007.0246862980769,301.0637686485109L1008.2287427884614,309.9992987827662L1009.4809615384614,306.64296188105027L1011.6482632211539,313.4728633308259L1011.7927500000001,310.2476082611468L1012.8523197115385,288.28974246938003L1014.682485576923,292.2841120522585L1015.1641081730769,299.4971320313199L1015.3567572115385,294.70458610458354L1015.4049194711539,305.7435657993583L1019.9803341346154,296.4216700533835L1020.0766586538462,301.71152371793573L1020.3174699519232,305.32958010313473L1023.1590432692307,308.76234054094385L1023.2553677884615,300.23611440162665L1024.7483978365385,299.20312562464335L1025.2300204326923,302.10717174834406L1027.6381334134617,292.88362375949845L1028.0234314903846,292.96341667033124L1028.7458653846154,300.25532135716884L1029.2274879807694,288.15955110724144L1029.4201370192307,299.5192685135063L1030.0944086538461,309.98823537027494L1032.2617103365385,315.2896500244568L1032.695170673077,313.2794283158099L1033.8510649038462,313.56055699491037L1033.9955516826924,289.93169568347724L1036.1628533653845,299.1553059091348L1039.5823737980768,293.75600448829124L1040.3529699519231,283.14196565392416L1041.3643774038462,282.8694210554044L1041.7015132211538,287.24249757760526L1043.6280036057692,280.93579584368825L1046.6140637019232,288.3395818974003L1046.7103882211538,278.6207183412193L1046.9030372596153,285.49274113681025L1050.3225576923078,296.0117307795763L1051.2858028846154,301.06229775916125L1052.9233197115384,293.1100516106098L1053.6939158653847,298.50883327550656L1054.2237007211538,304.74168722548336L1056.3428401442309,311.2299443856185L1057.0652740384614,319.6261586902595L1057.113436298077,318.7016800144832L1057.3060853365384,316.9992424107995L1057.9321947115384,302.0256065057438L1058.6546286057692,301.4114237781317L1061.5925264423076,297.17007406497277L1063.3745300480768,292.1771277943983L1064.1932884615385,295.0632604673302L1064.4340997596153,300.4389525317971L1072.9588197115384,292.4455837236318L1073.9702271634615,299.474036231633L1075.415094951923,297.4975679983681L1076.9562872596155,296.407002188235L1077.389747596154,298.7527143428154L1078.3048305288462,299.51202163998875L1079.1235889423076,313.99928391549884L1081.2427283653847,314.53378609306225L1081.6761887019231,313.6251629410691L1082.639433894231,299.95028504189725L1083.6990036057693,304.228524340142L1084.1324639423076,308.65532969249546L1084.806735576923,307.1638912111759L1085.6254939903847,296.0284092039443L1085.7699807692309,290.3273571094303L1085.914467548077,279.12269140206854L1087.696471153846,285.067627497672L1089.045014423077,281.55184466727013L1089.4784747596154,269.5565579292485L1089.911935096154,273.21318345038503L1090.0082596153848,286.7629871874421L1094.0057271634614,288.8751194344569L1094.5355120192307,294.3949877766074L1095.8358930288462,300.15647241277674L1097.0881117788463,299.0200429060097L1098.2921682692308,297.93177816592373L1098.436655048077,301.5423108647001L1099.2554134615384,306.7514803710987L1103.5418545673078,310.39650551700566L1103.7345036057693,310.25286215034504L1104.4569375,302.55732199108513L1104.5532620192307,308.939239126526L1104.7940733173077,301.4131800907209L1105.083046875,306.9142453403827L1105.70915625,305.0162080557614L1106.0944543269231,288.0063705294222L1107.7801334134615,292.36916069870756L1108.5507295673078,304.56638889733415L1112.0184122596154,304.7549580698267L1112.2592235576924,296.6222385338259L1113.3187932692308,290.3633069391627L1113.4151177884617,296.84815600911946L1113.993064903846,309.0434363225489L1114.3783629807692,306.7055984685422L1114.6673365384615,317.028939473311L1115.9195552884617,319.9131646070514L1116.1122043269231,300.916159165764L1117.2680985576924,311.45431315009995L1117.7978834134615,319.41723918197334L1118.9056153846154,317.11702998320897L1119.4835625,305.9278664376852L1121.0247548076923,308.57844388180683L1124.2034639423077,316.52438362456206L1124.8295733173077,323.0366242502841L1126.2262788461537,313.73303563506045L1126.756063701923,322.9006102485719L1127.863795673077,308.8674613401243L1128.4417427884616,315.71727111720105L1128.9715276442307,313.52523920864957L1129.597637019231,321.5167611874138L1134.0767271634616,304.6800269169931L1134.1730516826924,300.9299398351441L1134.6065120192309,297.3526781892306L1134.7991610576923,296.5172254473428L1134.8473233173077,303.3016411405737L1135.1844591346153,302.6979081098573L1135.8587307692308,300.4793621252174L1135.9550552884616,293.79083744765893L1136.1958665865384,293.38550451948856L1138.3631682692308,299.3304103754146L1138.5558173076922,299.7528069882155L1138.652141826923,299.3951971668212L1140.5304699519231,294.13742992817583L1140.6749567307693,301.4920966106752L1141.3492283653845,308.0448513084709L1145.1058846153846,311.56063132249966L1145.4430204326923,309.69129302283335L1146.6952391826924,304.6339689285152L1149.8257860576923,302.8521754500608" style="fill: none;" fill="none"></path></g></g></g></g><g opacity="0.2"><g><g><g><path stroke="rgb(187, 187, 187)" stroke-width="2px" d="M97.19143990384615,53.857142857142875L98.5881454326923,98.94882037734752L99.31057932692308,51.95169802723184L99.35874158653846,110.67895411198276L100.61096033653845,61.86339051876471L101.28523197115385,75.01684523453207L101.47788100961539,59.70865161525054L102.48928846153846,148.27205063796725L104.22312980769232,138.90940127815594L104.60842788461538,185.62825520769232L105.52351081730768,185.44214708196324L106.10145793269231,175.33847046055322L108.07611057692307,188.86101540404297L108.79854447115385,122.8539982856663L109.90627644230769,164.59137119036666L110.05076322115384,185.74398156114836L111.68828004807693,221.4397201058379L113.95190625,221.87683410838665L114.91515144230769,209.2067181898721L115.68574759615385,227.9320277468358L116.31185697115384,183.83079227868004L117.3714266826923,248.7655329508622L118.71996995192306,203.60732664314415L119.20159254807692,207.58142235497704L119.49056610576923,225.99871338117637L120.88727163461539,217.03447053742602L121.99500360576923,225.30263189440714L122.23581490384616,242.98793277497458L122.33213942307692,242.22668390817194L123.10273557692307,188.0545224880303L123.39170913461538,214.33573462873696L125.02922596153846,261.47012345072676L126.95571634615384,250.84250511696933L127.24468990384617,253.37539929454283L127.29285216346153,240.27693551208145L127.96712379807693,230.60827591648683L128.78588221153848,187.08400843779702L131.00134615384616,220.07904474708974L133.07232331730768,267.7005072565099L133.60210817307694,238.36442228033775L134.99881370192307,265.0932659626276L137.55141346153846,209.05398534293641L137.9848737980769,213.06767383082115L138.94811899038461,240.33878532478937L141.64520552884616,245.46320401885328L144.39045432692308,263.43658869773253L145.16105048076923,290.15155489001864L145.69083533653847,300.56493559111374L146.22062019230768,234.73416833974343L147.135703125,218.155631802524L147.85813701923078,211.29565777681216L149.68830288461538,229.3918522006081L149.78462740384614,271.7977077462569L150.45889903846154,211.89127702742027L150.79603485576922,270.5470228682345L151.75928004807693,202.48434224804384L152.33722716346153,285.49939456211047L152.81884975961538,244.0169156737667L152.91517427884614,260.5120018139487L153.30047235576924,237.25442924639793L154.88982692307692,290.49518351825117L156.52734375,234.00141858631648L156.6236682692308,262.24372627248385L156.76815504807692,234.90145798538316L157.2497776442308,288.1255496805553L157.44242668269231,265.53562839163044L160.0431887019231,260.10416839977984L161.00643389423078,304.04736731414727L162.4994639423077,242.53338414712738L164.47411658653846,260.6115161973448L166.40060697115385,299.5124263725659L166.44876923076922,285.7272160148809L168.18261057692305,280.6035430891648L168.95320673076924,234.24895164380882L169.0976935096154,268.9323851990679L170.78337259615384,249.64429504068275M171.60213100961536,291.51259293234284L172.56537620192307,266.1948317295672L173.0951610576923,281.1467810027878L174.58819110576923,296.4599354126323L174.97348918269233,272.2999556052012L176.65916826923078,287.237780791967L177.38160216346154,271.1247322137429L178.20036057692306,246.36401552465026L178.29668509615385,250.14993208867492L178.63382091346153,241.12851190812262L181.81253004807695,240.48738094227136L185.13572596153847,278.9367154551746L185.76183533653847,238.9693922999341L186.09897115384615,291.3065195701685L187.64016346153846,259.8890477901838L187.7846502403846,232.0721355981404L188.1217860576923,260.81084217737776L189.61481610576922,282.4761559251044L190.5780612980769,262.06348640301235L190.6262235576923,252.46342449926934L191.49314423076922,260.4125862392949L195.8759098557692,232.06562429778558L196.30937019230768,296.401125819756L196.79099278846152,255.99057091198762L197.3207776442308,308.6959908697306L202.5704639423077,251.5853869910722L204.01533173076922,247.1480420998938L207.8683125,257.0857368423941L209.79480288461536,287.83253476405616L211.48048197115384,223.9878502498434L213.45513461538462,272.704556315674L213.69594591346154,287.48658305979393L214.32205528846154,288.93218524832383L214.70735336538462,261.77184153756974L214.85184014423075,287.107969782372L215.81508533653846,262.1909423601415L216.68200600961538,214.42030441497437L217.35627764423077,251.3818745292016L217.98238701923077,289.28606283938814L220.24601322115385,252.31787918994723L220.29417548076924,237.5926721428959L221.3055829326923,266.66508752725184L222.65412620192308,274.4413272068954L223.03942427884616,286.39700871590253L223.42472235576923,239.33623458364403L225.399375,224.60077448181286L225.83283533653847,280.45038104417796L226.55526923076926,281.30101286766916L226.9887295673077,303.0371374192138L227.80748798076922,327.39003823400003L228.09646153846154,257.80291864236955L228.72257091346157,316.75434233453814L228.7707331730769,283.0784209466395L228.8188954326923,242.1168679396991L229.4450048076923,249.85790970978064L230.26376322115385,291.13315295257934L231.56414423076922,261.06925215390214L232.6237139423077,236.327992625522L233.10533653846153,250.91320791861898L233.92409495192308,291.81954035206496L236.81383052884613,277.76361439613004L238.3068605769231,323.2433485742548L238.7884831730769,298.83797910859886L239.31826802884615,287.48658305979393L242.20800360576922,251.72987064875997L244.5679543269231,278.45185434883047L244.61611658653845,283.404010966558L245.57936177884613,279.07195817338265L245.62752403846153,251.67442709120198L246.34995793269232,277.6814500701793L247.55401442307692,271.34132504608004L248.9025576923077,267.6679877886596L249.81764062500002,269.92036602907774L250.1547764423077,291.4536685281907L251.02169711538463,287.03185291994964L251.16618389423076,285.7912115684336L252.17759134615383,297.29317729698994L253.33348557692307,269.0971576239707L253.47797235576923,316.8643730353248L255.30813822115385,223.1848501557084L257.71625120192306,300.69082248591843L260.0280396634615,273.93814124349274L262.77328846153847,281.72503993189196L263.8328581730769,256.14776665077125L263.8810204326923,300.046926597495L264.21815625,274.5382903501409L264.65161658653847,296.5931577153272L265.90383533653846,287.69628305816127L267.8303257211539,276.29226156433566L267.9748125,271.65501725744826L269.46784254807693,233.66018502042368L270.19027644230766,236.28894341702198L272.0204423076923,291.778165114624L272.16492908653845,282.3685034628928L272.357578125,274.05688972734407L272.6947139423077,261.89673117502906L272.8392007211538,244.33467519008022L273.7542836538462,246.66859819942223L274.8138533653846,294.70741924006046L277.1738040865385,281.3223020402443L278.18521153846154,230.1250403629392L281.3639206730769,252.41953612602032L281.4602451923077,304.5831944403027L282.375328125,281.3089949837655L283.9646826923077,261.32179262347665L284.39814302884616,241.63400023693723L284.5907920673077,279.0303241379147L284.879765625,258.3494810104547L285.45771274038464,309.06753550848447L285.60219951923074,280.8761203882804L287.48052764423073,327.040644862779L289.26253125,264.68891872741705L289.3588557692308,232.74824216808108L289.79231610576926,275.61865792097115L290.32210096153847,310.43587412396545L290.6110745192308,268.19424658564225L290.94821033653847,296.2712384148979L292.73021394230767,253.7667856057742L293.9342704326923,228.19630112418722L294.2232439903846,232.59269222965403L294.51221754807693,322.15689938208044L294.6567043269231,281.5087994843705L295.71627403846156,274.4612124675236L297.401953125,310.5890763070016L297.93173798076924,292.7013445200681L299.5692548076923,237.53249511220966L301.01412259615387,308.25612524873713L303.9520204326923,250.44476672173806L304.4336430288462,320.96339994727134L309.9723028846154,307.9396337385526L310.5020877403846,269.62625900306574L313.92160817307695,228.53822349737658L314.4032307692308,251.91821319164467L314.5958798076923,271.9333327163349L315.79993629807694,265.4810698654339L318.1117247596154,265.31307250703276L319.8937283653846,321.5384880747842L321.6757319711538,248.45450498072285L321.8683810096154,273.58764934836853L321.9647055288462,249.21650306563598L322.25367908653845,264.28844623766946L322.68713942307687,324.3294484265362L323.79487139423077,287.74451710464905L326.0584975961538,276.71589497645675L328.56293509615386,262.0305486006763L328.6592596153846,294.45520784124153L328.8037463942308,276.97552575794515L328.8519086538462,316.79606450876844L329.23720673076923,279.49708622173506L331.06737259615386,305.1117793491673L332.41591586538465,288.30233451689327L333.3309987980769,251.60516579013213L333.86078365384617,250.224045509587L334.29424399038464,305.9796986168393L335.78727403846153,325.46882461265596L336.3170588942308,260.3219029674808L339.0141454326923,283.59715680293374L339.92922836538463,327.6475962425399L340.55533774038463,297.2401181169883L340.98879807692305,270.0796379254023L341.08512259615384,265.5151627505951L343.10793750000005,303.3948672226049L343.3005865384615,315.53324189915946L344.0230204326923,280.4134461877286L344.16750721153846,305.456691229718L344.21566947115383,289.5284547437553L345.75686177884614,300.24608676352267L346.38297115384614,296.99701596556946L347.5870276442307,231.88026487502805L348.2131370192307,277.71739057966715L348.9355709134615,282.98364902664025L349.36903125000003,285.7800772374318L349.51351802884614,298.5245816122961L350.9583858173077,309.398185089649L352.1142800480769,277.13111555195945L352.2587668269231,306.00694726134094L352.35509134615387,286.837605712191L354.1852572115385,269.002975165172L354.57055528846155,292.57617320344804L356.1599098557693,293.8199132250829L358.13456249999996,244.22618675463525L358.5680228365385,260.9931799646877L358.8088341346154,268.6013041890711L361.2169471153846,302.36816531191585L361.7948942307693,315.2153374550659L364.01035817307695,282.30397262645806L368.82658413461536,268.9865012172945L371.8608064903846,259.8611197157818L373.20934975961535,247.30710314618182L374.3170817307692,308.92716780586846L376.7733569711538,261.2128585304575L378.4108737980769,311.8917782359031L379.0369831730769,273.05196516941265L382.36017908653844,300.965732876286L382.74547716346154,236.44014031498705L383.9495336538462,313.09459631177685L384.72012980769233,298.796773803204L385.28844447115387,308.95523062599193L387.3690540865384,309.6698473488217L388.57311057692306,312.8791384392554L390.1624651442308,310.17277734857896L390.2587896634616,265.66302564180717L391.2220348557692,291.4713443155585L391.46284615384616,269.47716642185344L391.55917067307695,300.28790064662155L391.6554951923077,279.7221168768407L395.6529627403846,316.7429698635603L396.51988341346157,313.0580474484474L398.2537247596154,283.49373398599425L399.26513221153846,268.6411729661383L400.80632451923077,276.3505004710154L400.90264903846156,282.11330299033307L402.05854326923077,321.3874510039528L402.1067055288462,259.5265481957834L402.3475168269231,302.1778496287906L402.58832812500003,226.7258940551563L407.597203125,237.51358862772113L410.2461274038462,318.02892295001783L410.3906141826923,280.6960813953912L411.11304807692306,295.9934942956053L411.353859375,288.17399101412434L411.97996875,276.9959147161329L412.2207800480769,253.00961198811L412.99137620192306,284.08028132024685L413.2321875,301.5113221059557L413.6656478365385,263.11650661422715L414.3880817307692,270.086773739132L417.1814927884615,269.9631317938621L419.44511899038463,299.70733008946615L419.92674158653847,296.46922235344226L420.88998677884615,312.9411702162789L421.4197716346154,305.98991192998176L423.39442427884615,267.78418044381414L425.3209146634615,270.94699078027764L425.7062127403846,282.7457816833041L426.1396730769231,297.89756139994984L426.91026923076925,316.76192771330903L428.88492187500003,307.178619250184L429.02940865384613,286.7954232156122L429.55919350961534,298.1869539422663L431.7264951923077,203.863657507796L432.49709134615387,286.1341414771107L432.73790264423076,297.54951468451634L432.83422716346155,310.41095719443666L433.79747235576923,258.65678363771053L435.53131370192307,290.72590447631706L438.5655360576923,289.3004735340232L438.7100228365385,283.92990558551384L438.99899639423074,257.9124126224073L440.8291622596154,295.47707590410374L441.50343389423074,245.13814327075127L442.90013942307695,308.24915762477536L445.0674411057692,341.7041393706189L446.0788485576923,323.6650010668122L447.71636538461536,313.9758658345162L449.16123317307694,307.946579855611L449.8836670673077,327.14154492159724L450.5579387019231,300.1368228226836L453.3031875,259.1888274749155L453.8329723557692,296.5590577936826L453.8811346153846,282.1401399653475L455.2296778846154,314.2972451268183L455.4223269230769,300.3039851998922L455.5186514423077,272.78762410151836L456.09659855769235,291.8372808529474L457.25249278846155,287.87231092503333L457.8304399038462,329.34023714623953L458.21573798076923,314.0201318213685L458.50471153846155,322.9081156598577L459.03449639423076,309.9068324051861L459.4197944711538,271.95272601999125L459.5161189903846,305.2739451985202L461.442609375,285.17799011473863L461.87606971153843,322.2970717673705L461.9723942307692,262.5389603519419L462.1168810096154,268.35079410962214L463.60991105769233,306.17738696735256L463.8988846153846,302.2335996041732L464.6694807692308,303.8805121721032L467.8963521634616,285.66326133815505L468.0408389423077,296.302152217563L469.2930576923077,314.70879116632085L471.1232235576923,309.5745016106469L471.1713858173077,336.7127170126816L472.37544230769237,278.8276127259967L473.19420072115383,330.16921794953487L473.77214783653847,323.61625999747974L474.0129591346154,253.93875343574578L474.0611213942308,304.6436567305963L474.35009495192304,277.82271570168206L475.9394495192308,278.52948163547114L476.22842307692304,282.5057745545158L477.5769663461538,274.7973108147372L480.32221514423077,300.71019901667074L483.21195072115387,315.15188106966673L483.5972487980769,269.54340238449504L484.7531430288462,330.09554371949935L486.87228245192307,283.9818261411438L487.9318521634615,349.5965062416619L488.84693509615386,311.4772344344132L488.8950973557692,238.39215326815304L490.243640625,324.5628507707451L491.3995348557692,240.80831822699523L492.0256442307692,319.0634992229568L493.2778629807692,292.17786297566033L494.3374326923077,291.85206348022956L494.62640625,289.5949274009772L495.01170432692305,304.88249909197174L495.252515625,309.1623994741741L497.9496021634615,257.65780410635665L498.4793870192307,325.4233282337055L499.15365865384615,265.34029150159097L500.11690384615383,305.986510082786L500.79117548076925,249.5667273132089L500.9838245192307,299.6625642819053L504.5959939903846,317.3743389331082L506.04086177884614,297.5589107070988L507.3412427884615,282.66211570950355L507.6302163461539,247.21996569990358L508.0636766826923,284.4970348701951L510.7126009615385,296.78556602480626L511.1460612980769,278.01567632646487L512.6872536057692,250.0914538622357L512.8799026442307,303.5908417664996L514.3729326923077,290.8546386219996L514.66190625,326.162045132889L515.528826923077,282.50038694617456L515.8178004807693,322.9202104326943L517.16634375,329.4520929178187L517.2626682692307,299.9859649676532L518.3222379807693,249.8112569121941L518.4185625,265.31307250703276L520.5858641826923,296.68000457618786L521.0674867788462,308.5666222615655L522.6086790865385,337.73617512564374L522.8494903846154,231.27615373247815L523.1866262019231,243.56680496736897L523.7164110576923,286.640923773681L525.1131165865385,258.67164261941815L525.3057656249999,282.43038723940697L528.3881502403846,251.72590397960906L528.6289615384616,273.3710597404136L529.3995576923077,295.6090033201687L530.6517764423077,293.69333658529564L531.4223725961538,269.52920849824386L531.8558329326924,274.884633224204L534.69740625,298.2058518818983L534.8900552884616,296.8166316512678L536.3830853365384,298.3004176764883L538.2132512019231,293.4466648525386L539.2728209134616,285.59101591926645L539.7544435096154,248.05848323698982L539.947092548077,308.4025325171691L541.199311298077,269.4038864329751L543.0776394230769,289.5284547437553L543.6555865384615,320.4702746156125L543.7519110576924,304.02399037084336L544.089046875,305.782399814094L544.8114807692308,280.89467164780075L545.6784014423076,280.1447643151072L546.352673076923,235.39827082760746L546.6416466346154,271.7396405976269L546.978782451923,308.3118670834207L547.21959375,300.6746679751071L547.7012163461538,295.07928999092667L551.0244122596154,295.94727352555617L552.5656045673077,273.6196934433689L552.6619290865384,312.1232192837792L554.9737175480769,292.25204996204366L555.4071778846154,284.2939292196871L555.8406382211539,320.7263959171251L556.3222608173077,283.3360899181581L557.6226418269231,277.7353656734456L558.2969134615385,303.94055149605714L561.3311358173077,284.5107790276079L561.3792980769231,283.75248185522116L562.3425432692308,284.3021535460578L562.9204903846154,310.33979648146385L563.3057884615384,258.5973697523143L565.2804411057692,233.04856337335434L565.3286033653847,278.1857950008903L566.1955240384615,258.2310522952569L568.1701766826923,281.83467506430617L568.6999615384615,273.63694768379327L569.3260709134615,322.8113812239504L569.9521802884615,279.99492592233577L570.7709387019231,293.22758449552805L572.0713197115384,328.01608234068823L572.5529423076923,286.1229689477896L573.130889423077,262.40885426425046L573.1790516826923,255.76760859658944L574.6720817307693,290.8722089653526L574.7202439903847,311.7546044781859L574.76840625,289.516896988407L575.2500288461539,264.3041649961907L575.8761382211538,294.004035137461L576.1651117788462,222.87108557211235L576.5504098557692,263.643858624148L576.8393834134615,261.18672823722414L580.2107415865385,282.4007908989971L581.5111225961539,272.90991617754884L583.0041526442308,305.37542331434133L583.2449639423077,338.61913152563216L583.8229110576923,298.0547381403449L586.3755108173077,276.6599812468259L587.1942692307692,253.5668657427437L587.5314050480769,281.29036680653945L590.0840048076923,334.73750611118254L590.6137896634615,262.7753267413993L593.5998497596154,265.6926200981521L593.7443365384615,268.9865012172945L593.792498798077,293.44967340544747L596.1524495192308,274.41151856475557L598.5605625,287.8183337882426L598.8495360576923,306.80712946980066L598.8976983173077,288.12269692466134L599.186671875,291.1977651764752L601.2576490384615,259.5072847714162L602.076407451923,240.8704972615655L603.6657620192308,299.1428290541184L604.1473846153846,281.6689332063302L604.7253317307692,293.9587306878485L605.8330637019232,293.2095959611767L606.699984375,292.1689585721893L607.6150673076924,299.0887732737753L608.0966899038461,326.90626275597475L608.193014423077,286.4138139135597L611.1790745192308,282.32816841911074L611.6606971153846,288.28521617000627L611.9978329326923,286.2543016363243L612.2386442307692,276.30491826516777L613.0092403846154,303.7505529920722L613.3463762019231,307.32345826318624L614.2614591346154,343.3868834181168L617.6328173076923,302.87855135686493L620.2817415865385,311.3981304491174L624.0865600961538,300.95601938485714L626.3020240384616,268.0146373534819L626.350186298077,295.47707590410374L626.5909975961539,309.3523890722938L626.9762956730768,312.81349448308305L627.8432163461539,271.16801560718073L629.7697067307693,290.930792069419L630.9256009615384,213.36158259877658L631.2145745192308,307.52382029640785L631.2627367788461,305.38219379430967L632.9002536057693,270.8774186905658L633.4300384615384,310.36469570625286L635.2602043269231,275.8628528779171L635.4528533653845,301.99444024577315L635.7418269230769,280.6114760945356L636.0789627403847,257.4751433056942L636.127125,307.3027506178792L641.136,257.01472155313843L641.1841622596154,325.93736409399014L644.2183846153846,304.1710230470513L644.7000072115385,335.56683649812044L644.9408185096154,279.93190638901973L646.5301730769231,312.054454504298L646.7709843749999,341.33508073245406L647.3970937500001,279.52845448808L647.4934182692308,308.5177159836042L650.527640625,279.43960428279036L652.646780048077,267.4985944788444L653.032078125,282.29859586555375L654.6214326923077,329.50806256424335L658.7152247596155,273.94803353832344L660.6417151442307,298.74924098630436L661.6049603365384,284.6014997811746L662.0384206730769,271.61636104710306L663.049828125,279.25170236326124L664.5428581730769,305.7144608150376L664.6391826923077,331.9009983087171L664.8318317307693,290.7112871725475L665.8432391826923,320.6159869850778L665.9877259615384,281.3223020402443L666.180375,290.2562640212101L666.9509711538461,306.4164959243587L667.3844314903846,312.87548559179754L667.673405048077,311.1074054898884L669.4554086538461,305.3517342728881L671.18925,321.39936346351607L671.9116838942308,238.40256160314263L672.0080084134615,272.18327145927634L674.6087704326923,277.1132486001834L676.583423076923,309.59568451305125L676.9687211538461,316.1871693692524L679.8102944711538,280.5137341530969L681.7367848557692,277.6403901192687L681.9294338942308,314.2935489970443L683.4224639423077,290.0789005473815L684.6265204326924,276.55079474652035L685.1563052884615,306.43702106743143L685.9269014423077,329.5683891759592L686.3603617788461,301.72321450746193L687.853391826923,332.241237143212L687.9497163461538,326.86430905886283L688.5276634615385,299.0061654885524L690.357829326923,288.9034717280088L690.9357764423078,298.42348763934933L692.2843197115385,250.38611609416068L692.4769687500001,310.7460720884721L692.5732932692307,276.64474187010677L693.5847007211539,325.04363825644975L693.6328629807692,277.4123005798322L694.355296875,301.7199545771582L694.6442704326923,315.792049507794L694.9332439903847,282.95659148945634L696.2336250000001,271.5583874306086L696.3299495192307,321.2128566053273L696.4262740384614,290.8839242407653L699.9902812500001,250.16747663969795L702.2539074519232,259.04595918106605L704.4693713942307,264.2413047628562L704.7101826923077,321.14548435268034L705.9624014423077,330.8740575046146L707.3591069711539,287.2914457777854L710.9231141826923,286.6437279288983L711.3565745192307,288.84892913629494L714.5834459134616,274.9021068485876L716.6544230769231,321.3556882170723L716.8470721153847,279.29342857288333L717.6658305288461,327.50817998826443L718.7254002403846,291.5214321253035L720.0739435096153,325.11781392703483L720.2665925480769,309.31718077982083L721.2779999999999,268.38820966471656L721.904109375,270.2820657589608L722.5783810096153,295.32695636491593L723.1563281250001,321.30805819079467L723.2044903846154,252.635158236391L723.6861129807692,297.39313587809943L723.7342752403846,329.176970639061L725.6607656250001,308.35370630359677L725.8534146634615,258.32408731045655L730.4769915865385,290.30866314995416L731.5365612980769,308.5806022531498L732.3071574519231,301.76891138337203L733.4148894230769,299.94107443781553L733.9446742788462,245.04174924821945L736.0156514423078,321.14944228205235L738.182953125,322.2089445975241L740.06128125,306.27638177550324L741.5061490384616,331.2765594749393L743.2881526442308,312.1811653920079L746.5150240384615,333.36738173272107L746.948484375,334.2847357540738L746.9966466346154,257.84712353145426L747.8635673076923,328.3859397213134L748.2488653846154,292.91628967153196L749.1157860576923,311.8159518526183L749.693733173077,281.7277097342842L751.3794122596154,302.69714691243314L752.2944951923076,331.4301088248952L752.3908197115384,245.18822417423172L752.5353064903845,304.1543051786712L753.1614158653847,325.6800212291003L755.1842307692308,281.2105700872051L755.8585024038462,332.52491103770086L756.8217475961538,322.14889409254556L757.9294795673077,246.3715174232444L760.0004567307692,279.33517217868786L761.3489999999999,313.2116528813495L762.2159206730769,282.19382270130086L764.1905733173077,295.17706156497576L765.4427920673077,326.02052529323174L768.0917163461539,292.5225741913099L768.5251766826923,273.7109230833895L769.7773954326923,267.79812907950657L771.1741009615384,324.37854775639454L771.7038858173078,303.5542738283179L774.4009723557692,311.4772344344132L774.9307572115384,275.9511099518356L775.6050288461539,316.693689018347L776.2311382211539,302.0304428131491L777.0980588942307,283.815227224843L778.0131418269231,297.3837628490149L778.5429266826923,272.120117524101L778.8319002403846,294.239969507972L779.4098473557693,336.9768875177417L779.9396322115384,260.7089601039452L780.2286057692307,285.76059845395787L780.2767680288462,306.62190425814345L781.9142848557693,294.8109202975948L782.2514206730768,313.1933554049155L786.2970504807693,323.6893853465467L786.5378617788461,279.2282386212875L786.8749975961539,237.47235422713973L787.1639711538461,311.97850487078233L788.7051634615384,301.5764750081932L788.7533257211538,270.6713883982317L788.9941370192308,308.03343457218773L789.6684086538461,257.3849820227039L790.0055444711538,253.96304914850208L790.0537067307692,279.7378381943635L793.2324158653845,299.8930030391929L793.3287403846153,305.9014122135904L795.2070685096154,285.0287172379703L795.2552307692308,272.4143489694022L797.2298834134615,287.240601713151L799.4453473557692,276.726065566721L800.5049170673077,306.4883401011817L805.3211430288462,320.15594945844833L806.0435769230769,313.2519243413902L806.8623353365384,266.6191153052025L807.2476334134615,316.232424082895L808.8851502403846,291.71023464017946L810.426342548077,268.4467085427484L811.0524519230769,306.2080987404161L811.2451009615385,306.6561772625171L812.7381310096155,310.939102069677L812.9789423076924,287.80981552364256L813.2679158653846,304.1509651284719L813.7977007211539,333.7620731192751L813.9903497596155,257.4457804849995L814.7127836538461,311.592414260415L815.3870552884616,268.6646253684488L818.5176021634616,318.31737264193845L820.6849038461538,260.72412680156475L820.7330661057692,280.16580902899364L820.9257151442307,302.9677265850523L822.2742584134616,255.8356781162768L822.8522055288462,287.0346747640067L823.333828125,322.9282776315429L823.5264771634615,294.29448883105994L824.200748798077,270.1653239814643L824.9231826923077,324.29673865905795L826.0309146634615,303.54429802967394L826.464375,296.9503371391774L827.1386466346154,331.1713969665274L832.8699555288462,300.00521320671265L833.6405516826923,330.82167859708625L834.3148233173076,320.7461232717331L834.9890949519231,282.9755322880727L835.4225552884616,243.06056592079122L836.8192608173076,286.9501681405731L837.73434375,315.1481532566122L838.5049399038461,264.1157025660647L838.7939134615385,299.52200081465884L839.5163473557692,277.20772520520916L839.8053209134615,304.8589263728202L841.1538641826924,312.0616920406802L841.2501887019231,308.706485065727L841.6354867788463,320.371947820661L846.9333353365384,325.33653424767664L847.9929050480769,268.2596389981639L848.2337163461539,296.68621186379164L849.6785841346153,334.9510152645023L851.7977235576923,288.7714845512166L852.2793461538462,272.76563297503395L853.5797271634616,259.3874794788377L854.1095120192307,312.0399810008321L855.5543798076923,269.4322519722298L855.6988665865384,323.51478660404734L856.0841646634616,255.46492581514985L856.3249759615385,286.8094798387479L856.9992475961539,289.6354100359491L857.5290324519232,314.9505732898489L859.5518473557693,269.8799960503139L859.648171875,338.8789144379725L861.8636358173077,284.99281950748366L861.9117980769231,306.9583096006965L863.8382884615385,298.36666616277614L864.7052091346154,285.5215954955701L866.2945637019232,322.87183049465995L867.2096466346154,325.9207480653567L867.6912692307693,259.92773581605434L869.3287860576922,326.6547838941789L870.7254915865384,295.48320906002465L871.3034387019231,319.6199416953087L871.6887367788461,310.07696017163823L872.8927932692308,248.48517665181944L874.5784723557692,279.01991678303665L874.6266346153847,305.9728876142399L876.9865853365385,310.6247347835562L877.1310721153847,323.7625641407603L877.2273966346154,277.1285655432948L877.5163701923077,286.2151629599749L880.6950793269231,285.23056209173296L882.2844338942308,262.88597504062176L884.4998978365385,298.24997097054086L885.4149807692307,264.0529605037815L885.5594675480769,313.1640794181394L886.185576923077,267.82604327366846L889.0753125,288.04011771257143L892.3021838942308,331.83044267870565L894.6621346153846,264.2727299464562L894.7584591346155,330.67341166534965L895.2400817307691,269.6238987855959L896.9257608173077,327.26361084860304L897.3592211538462,303.0503583562306L900.8269038461539,279.15788036874557L901.0195528846155,294.0614530999519L903.8129639423076,305.76541074204164L904.9206959134616,284.75839194136313L905.7394543269231,328.1519632787791L907.1843221153847,298.36351370321773L907.2806466346154,291.44483531518637L907.9549182692308,298.7587502766727L908.099405048077,342.5395259716276L909.2552992788461,343.79835374294277L911.1817896634616,323.77068980091866L911.374438701923,319.1023170279559L913.8307139423076,313.167742809651L914.5049855769231,269.49845821949924L916.3351514423076,332.8806506334741L916.4796382211538,283.33066392198606L917.3947211538463,332.08643978561184L919.5138605769231,317.1114233674309L919.8028341346154,303.8871823138727L919.8509963942308,312.79891084877704L920.6215925480769,259.1269718278939L921.1995396634615,308.20040612899936L923.7039771634614,312.89008038455944L924.7635468750001,327.0154307195206L924.8598713942308,278.26321620602937L925.7749543269231,267.49627283086346L926.401063701923,317.3171273854023L926.5455504807692,321.95299749486384L926.8826862980769,331.6542760618545L927.2679843750001,322.50970981795336L932.7103197115384,278.39238062184114L934.1070252403846,333.95549492527397L934.4441610576923,225.07470589081927L934.4923233173078,267.40589202257524L938.4897908653846,265.52198055299294L938.8269266826923,327.2214971458605L940.8015793269232,320.340496132634L943.4023413461539,275.7218031747324L944.1247752403846,301.5634394820454L944.1729375,298.17749880016095L944.8953713942307,321.80134383247844L944.9435336538461,280.3106325025347L946.0031033653845,264.7430364408702L946.8218617788461,302.7103308865466L947.2553221153845,314.1789132422267L948.8928389423077,299.45817073946137L950.3377067307692,260.5141670326253L950.674842548077,277.7225207439808L952.8903064903847,302.10903173288193L955.2502572115385,318.02892295001783L955.7318798076924,272.0157744283969L956.0690156249999,293.6842963881682L956.1171778846153,329.93105226619116L956.3098269230769,302.286086574275L958.188155048077,292.865499379447L958.7179399038462,269.6310021920679L959.5366983173077,289.710634539117L960.1146454326923,277.5275635259564L962.0892980769231,304.2747489507435L962.2337848557692,290.2533568460671L963.4860036057692,288.2823588613648L963.8231394230769,282.40886117740354L964.8827091346153,311.3154925356233L965.6533052884616,326.1079144874397L966.0386033653846,294.23391203311934L967.0500108173078,275.9258874237492L967.6279579326923,271.1752294140469L968.0132560096154,264.9620746262283L968.2059050480769,292.44818656633856L968.3985540865384,320.5253835826861L971.7699122596155,320.9475796992297L975.0931081730769,306.9342431283288L977.7901947115384,287.1220703555582L978.4163040865384,307.2751553084086L979.8130096153845,274.95704721775604L981.2578774038461,296.4630285031293L981.3060396634615,272.02304957579423L981.8839867788462,293.11972315403113L982.4619338942307,304.6167845431172L982.8472319711539,314.13457701721234L983.1843677884616,316.6103562984551L983.6659903846154,292.3827626361222L984.3402620192309,317.0619608836989L984.9663713942308,291.4772369381751L985.3998317307693,297.756318966364L986.9410240384616,288.7714845512166L990.0234086538461,325.2993584380447L991.4682764423077,313.48653454122575L991.7090877403847,252.49136175341815L991.75725,266.8100480297227L992.2870348557692,277.2741660603175L992.8168197115385,288.6654476579724L998.2591550480769,303.36500622263827L998.3073173076923,342.0062252435274L998.5962908653846,311.50602126112517L998.7407776442308,329.1254718244374L999.3187247596154,314.7533824442474L1000.0411586538462,316.8947423159454L1003.7496526442308,298.3698262457185L1005.0018713942308,292.4273665130404L1005.2908449519231,274.0544227245335L1005.3390072115385,328.9711341182152L1007.0246862980769,296.8694742416412L1008.2287427884614,330.62113758966024L1009.4809615384614,300.2685979918986L1011.6482632211539,328.6631604026556L1011.7927500000001,304.11085337360294L1012.8523197115385,255.12626483336405L1014.682485576923,300.7586721668369L1015.1641081730769,315.6456843678553L1015.3567572115385,285.7828573864588L1015.4049194711539,332.22796243148946L1019.9803341346154,280.0816441638547L1020.0766586538462,313.1750612716486L1020.3174699519232,312.95942166084524L1023.1590432692307,315.98000352742037L1023.2553677884615,285.13650090114936L1024.7483978365385,297.17461059581075L1025.2300204326923,308.16211565717913L1027.6381334134617,276.6955568947395L1028.0234314903846,293.12271475895994L1028.7458653846154,316.60278239341153L1029.2274879807694,267.6842462023477L1029.4201370192307,326.9398463821564L1030.0944086538461,334.8373859718541L1032.2617103365385,326.78044437220655L1032.695170673077,309.38761814916586L1033.8510649038462,314.12349822938086L1033.9955516826924,254.88068165170458L1036.1628533653845,320.55294944486013L1039.5823737980768,283.78794406018864L1040.3529699519231,264.84007638788466L1041.3643774038462,282.32816841911074L1041.7015132211538,296.577658326874L1043.6280036057692,269.4346189478028L1046.6140637019232,304.9701023787466L1046.7103882211538,261.67116778632624L1046.9030372596153,300.7877657834887L1050.3225576923078,321.00295207435346L1051.2858028846154,311.9640423411491L1052.9233197115384,278.921119415115L1053.6939158653847,310.2296052749296L1054.2237007211538,318.46384551395806L1056.3428401442309,325.57643568194993L1057.0652740384614,338.8174552645373L1057.113436298077,316.8833538877646L1057.3060853365384,313.68859980977896L1057.9321947115384,277.5455045701664L1058.6546286057692,300.1978687371082L1061.5925264423076,289.21403359434294L1063.3745300480768,282.90790118295484L1064.1932884615385,301.07915239429184L1064.4340997596153,312.1051196183883L1072.9588197115384,278.19095537261137L1073.9702271634615,315.1593460099337L1075.415094951923,293.669240778629L1076.9562872596155,294.26722906975886L1077.389747596154,303.60081427607145L1078.3048305288462,301.043497933722L1079.1235889423076,351.21501831973006L1081.2427283653847,315.60818355421287L1081.6761887019231,311.8376057560476L1082.639433894231,277.24349604040066L1083.6990036057693,313.3471687175125L1084.1324639423076,318.11345438716967L1084.806735576923,304.2546622647067L1085.6254939903847,276.9525893447025L1085.7699807692309,279.84531142843684L1085.914467548077,259.94493757205964L1087.696471153846,298.09249519980517L1089.045014423077,274.8896321786214L1089.4784747596154,249.2261561428441L1089.911935096154,280.9291294964291L1090.0082596153848,320.9080494352725L1094.0057271634614,293.22458975565064L1094.5355120192307,306.4028148327887L1095.8358930288462,312.7406062292332L1097.0881117788463,296.79177986035006L1098.2921682692308,295.79644788707003L1098.436655048077,309.1553684995586L1099.2554134615384,318.02508646899093L1103.5418545673078,318.0865427829033L1103.7345036057693,309.96704923850194L1104.4569375,288.7800850282964L1104.5532620192307,323.02511550040424L1104.7940733173077,287.9092629906181L1105.083046875,318.87741989654165L1105.70915625,301.3356308187251L1106.0944543269231,260.85205028683515L1107.7801334134615,301.68080480456376L1108.5507295673078,334.48822530521375L1112.0184122596154,305.13203069144845L1112.2592235576924,282.14550822364237L1113.3187932692308,278.94191467508887L1113.4151177884617,311.18628003132034L1113.993064903846,338.95935758458705L1114.3783629807692,302.20079944247294L1114.6673365384615,341.46604112934403L1115.9195552884617,325.9248993370664L1116.1122043269231,271.26907918982954L1117.2680985576924,336.5000357520366L1117.7978834134615,337.479325379271L1118.9056153846154,312.6823442219254L1119.4835625,286.7729380627248L1121.0247548076923,314.0828747551791L1124.2034639423077,334.5425583840667L1124.8295733173077,337.44202570176776L1126.2262788461537,297.4212676842945L1126.756063701923,344.1467019168903L1127.863795673077,285.66603824544495L1128.4417427884616,330.95704772286683L1128.9715276442307,309.29254066125515L1129.597637019231,339.6528314453895L1134.0767271634616,277.7482061273327L1134.1730516826924,293.8470586490425L1134.6065120192309,290.57982041793514L1134.7991610576923,294.8718473047169L1134.8473233173077,318.3790178648534L1135.1844591346153,301.50481613398625L1135.8587307692308,296.1970989326558L1135.9550552884616,281.65558000453024L1136.1958665865384,292.5821312098293L1138.3631682692308,312.35520520126806L1138.5558173076922,300.60042770694247L1138.652141826923,298.68590904230047L1140.5304699519231,284.4118998307805L1140.6749567307693,317.9982077561076L1141.3492283653845,322.5498776411542L1145.1058846153846,318.9626617889027L1145.4430204326923,306.0648630768892L1146.6952391826924,295.2535125486479L1149.8257860576923,299.3911963466822" style="fill: none;" fill="none"></path></g></g></g></g></g></g><g transform="translate(30, 377)" clip-path="url(#clip_1)"><clipPath id="clip_1"><rect width="1252" height="23"></rect></clipPath><g><g><line x1="0" y1="0" x2="0" y2="5" style="visibility: inherit;" fill="rgb(0, 0, 0)" stroke="rgb(204, 204, 204)" stroke-width="1px"></line><line x1="96.32451923076924" y1="0" x2="96.32451923076924" y2="5" style="visibility: inherit;" fill="rgb(0, 0, 0)" stroke="rgb(204, 204, 204)" stroke-width="1px"></line><line x1="192.64903846153848" y1="0" x2="192.64903846153848" y2="5" style="visibility: inherit;" fill="rgb(0, 0, 0)" stroke="rgb(204, 204, 204)" stroke-width="1px"></line><line x1="288.97355769230774" y1="0" x2="288.97355769230774" y2="5" style="visibility: inherit;" fill="rgb(0, 0, 0)" stroke="rgb(204, 204, 204)" stroke-width="1px"></line><line x1="385.29807692307696" y1="0" x2="385.29807692307696" y2="5" style="visibility: inherit;" fill="rgb(0, 0, 0)" stroke="rgb(204, 204, 204)" stroke-width="1px"></line><line x1="481.6225961538462" y1="0" x2="481.6225961538462" y2="5" style="visibility: inherit;" fill="rgb(0, 0, 0)" stroke="rgb(204, 204, 204)" stroke-width="1px"></line><line x1="577.9471153846155" y1="0" x2="577.9471153846155" y2="5" style="visibility: inherit;" fill="rgb(0, 0, 0)" stroke="rgb(204, 204, 204)" stroke-width="1px"></line><line x1="674.2716346153845" y1="0" x2="674.2716346153845" y2="5" style="visibility: inherit;" fill="rgb(0, 0, 0)" stroke="rgb(204, 204, 204)" stroke-width="1px"></line><line x1="770.5961538461539" y1="0" x2="770.5961538461539" y2="5" style="visibility: inherit;" fill="rgb(0, 0, 0)" stroke="rgb(204, 204, 204)" stroke-width="1px"></line><line x1="866.9206730769231" y1="0" x2="866.9206730769231" y2="5" style="visibility: inherit;" fill="rgb(0, 0, 0)" stroke="rgb(204, 204, 204)" stroke-width="1px"></line><line x1="963.2451923076924" y1="0" x2="963.2451923076924" y2="5" style="visibility: inherit;" fill="rgb(0, 0, 0)" stroke="rgb(204, 204, 204)" stroke-width="1px"></line><line x1="1059.5697115384614" y1="0" x2="1059.5697115384614" y2="5" style="visibility: inherit;" fill="rgb(0, 0, 0)" stroke="rgb(204, 204, 204)" stroke-width="1px"></line><line x1="1155.894230769231" y1="0" x2="1155.894230769231" y2="5" style="visibility: inherit;" fill="rgb(0, 0, 0)" stroke="rgb(204, 204, 204)" stroke-width="1px"></line><line x1="1252.21875" y1="0" x2="1252.21875" y2="5" style="visibility: inherit;" fill="rgb(0, 0, 0)" stroke="rgb(204, 204, 204)" stroke-width="1px"></line></g><g transform="translate(0, 8)"><text x="0" y="0" dx="0em" dy="0.95em" style="text-anchor: middle; visibility: hidden; font-family: Roboto, sans-serif; font-size: 12px; font-weight: 200;" fill="rgb(255, 255, 255)" stroke="none" stroke-width="1px">-10k</text><text x="96.32451923076924" y="0" dx="0em" dy="0.95em" style="text-anchor: middle; visibility: inherit; font-family: Roboto, sans-serif; font-size: 12px; font-weight: 200;" fill="rgb(255, 255, 255)" stroke="none" stroke-width="1px">0</text><text x="192.64903846153848" y="0" dx="0em" dy="0.95em" style="text-anchor: middle; visibility: inherit; font-family: Roboto, sans-serif; font-size: 12px; font-weight: 200;" fill="rgb(255, 255, 255)" stroke="none" stroke-width="1px">10k</text><text x="288.97355769230774" y="0" dx="0em" dy="0.95em" style="text-anchor: middle; visibility: inherit; font-family: Roboto, sans-serif; font-size: 12px; font-weight: 200;" fill="rgb(255, 255, 255)" stroke="none" stroke-width="1px">20k</text><text x="385.29807692307696" y="0" dx="0em" dy="0.95em" style="text-anchor: middle; visibility: inherit; font-family: Roboto, sans-serif; font-size: 12px; font-weight: 200;" fill="rgb(255, 255, 255)" stroke="none" stroke-width="1px">30k</text><text x="481.6225961538462" y="0" dx="0em" dy="0.95em" style="text-anchor: middle; visibility: inherit; font-family: Roboto, sans-serif; font-size: 12px; font-weight: 200;" fill="rgb(255, 255, 255)" stroke="none" stroke-width="1px">40k</text><text x="577.9471153846155" y="0" dx="0em" dy="0.95em" style="text-anchor: middle; visibility: inherit; font-family: Roboto, sans-serif; font-size: 12px; font-weight: 200;" fill="rgb(255, 255, 255)" stroke="none" stroke-width="1px">50k</text><text x="674.2716346153845" y="0" dx="0em" dy="0.95em" style="text-anchor: middle; visibility: inherit; font-family: Roboto, sans-serif; font-size: 12px; font-weight: 200;" fill="rgb(255, 255, 255)" stroke="none" stroke-width="1px">60k</text><text x="770.5961538461539" y="0" dx="0em" dy="0.95em" style="text-anchor: middle; visibility: inherit; font-family: Roboto, sans-serif; font-size: 12px; font-weight: 200;" fill="rgb(255, 255, 255)" stroke="none" stroke-width="1px">70k</text><text x="866.9206730769231" y="0" dx="0em" dy="0.95em" style="text-anchor: middle; visibility: inherit; font-family: Roboto, sans-serif; font-size: 12px; font-weight: 200;" fill="rgb(255, 255, 255)" stroke="none" stroke-width="1px">80k</text><text x="963.2451923076924" y="0" dx="0em" dy="0.95em" style="text-anchor: middle; visibility: inherit; font-family: Roboto, sans-serif; font-size: 12px; font-weight: 200;" fill="rgb(255, 255, 255)" stroke="none" stroke-width="1px">90k</text><text x="1059.5697115384614" y="0" dx="0em" dy="0.95em" style="text-anchor: middle; visibility: inherit; font-family: Roboto, sans-serif; font-size: 12px; font-weight: 200;" fill="rgb(255, 255, 255)" stroke="none" stroke-width="1px">100k</text><text x="1155.894230769231" y="0" dx="0em" dy="0.95em" style="text-anchor: middle; visibility: inherit; font-family: Roboto, sans-serif; font-size: 12px; font-weight: 200;" fill="rgb(255, 255, 255)" stroke="none" stroke-width="1px">110k</text><text x="1252.21875" y="0" dx="0em" dy="0.95em" style="text-anchor: middle; visibility: hidden; font-family: Roboto, sans-serif; font-size: 12px; font-weight: 200;" fill="rgb(255, 255, 255)" stroke="none" stroke-width="1px">120k</text></g><line x1="0" y1="0" x2="1252.21875" y2="0" fill="rgb(0, 0, 0)" stroke="rgb(204, 204, 204)" stroke-width="1px"></line></g></g></g></g></svg>