<svg viewBox="0 0 1283 400" xmlns="http://www.w3.org/2000/svg"><g><g><g><g><g><line x1="20.390625" y1="327.7988490610369" x2="15.390625" y2="327.7988490610369" style="visibility: inherit;" fill="rgb(0, 0, 0)" stroke="rgb(204, 204, 204)" stroke-width="1px"></line><line x1="20.390625" y1="209.6979334331262" x2="15.390625" y2="209.6979334331262" style="visibility: inherit;" fill="rgb(0, 0, 0)" stroke="rgb(204, 204, 204)" stroke-width="1px"></line><line x1="20.390625" y1="125.90400027617801" x2="15.390625" y2="125.90400027617801" style="visibility: inherit;" fill="rgb(0, 0, 0)" stroke="rgb(204, 204, 204)" stroke-width="1px"></line><line x1="20.390625" y1="60.90837623929637" x2="15.390625" y2="60.90837623929637" style="visibility: inherit;" fill="rgb(0, 0, 0)" stroke="rgb(204, 204, 204)" stroke-width="1px"></line><line x1="20.390625" y1="7.803084648267277" x2="15.390625" y2="7.803084648267277" style="visibility: inherit;" fill="rgb(0, 0, 0)" stroke="rgb(204, 204, 204)" stroke-width="1px"></line></g><g transform="translate(10.390625, 0)"><text x="0" y="327.7988490610369" dx="0em" dy="0.3em" style="text-anchor: end; visibility: inherit; font-family: Roboto, sans-serif; font-size: 12px; font-weight: 200;" fill="rgb(255, 255, 255)" stroke="none" stroke-width="1px">2</text><text x="0" y="209.6979334331262" dx="0em" dy="0.3em" style="text-anchor: end; visibility: inherit; font-family: Roboto, sans-serif; font-size: 12px; font-weight: 200;" fill="rgb(255, 255, 255)" stroke="none" stroke-width="1px">3</text><text x="0" y="125.90400027617801" dx="0em" dy="0.3em" style="text-anchor: end; visibility: inherit; font-family: Roboto, sans-serif; font-size: 12px; font-weight: 200;" fill="rgb(255, 255, 255)" stroke="none" stroke-width="1px">4</text><text x="0" y="60.90837623929637" dx="0em" dy="0.3em" style="text-anchor: end; visibility: inherit; font-family: Roboto, sans-serif; font-size: 12px; font-weight: 200;" fill="rgb(255, 255, 255)" stroke="none" stroke-width="1px">5</text><text x="0" y="7.803084648267277" dx="0em" dy="0.3em" style="text-anchor: end; visibility: inherit; font-family: Roboto, sans-serif; font-size: 12px; font-weight: 200;" fill="rgb(255, 255, 255)" stroke="none" stroke-width="1px">6</text></g><line x1="20.390625" y1="0" x2="20.390625" y2="377" fill="rgb(0, 0, 0)" stroke="rgb(204, 204, 204)" stroke-width="1px"></line></g></g><g transform="translate(20, 0)" clip-path="url(#clip_0)"><clipPath id="clip_0"><rect width="1262" height="377"></rect></clipPath><g><g><g><line x1="0" y1="0" x2="0" y2="377" fill="rgb(0, 0, 0)" stroke="rgb(189, 189, 189)" stroke-width="1px" opacity="0.25"></line><line x1="114.78267045454545" y1="0" x2="114.78267045454545" y2="377" fill="rgb(0, 0, 0)" stroke="rgb(189, 189, 189)" stroke-width="1px" opacity="0.25"></line><line x1="229.5653409090909" y1="0" x2="229.5653409090909" y2="377" fill="rgb(0, 0, 0)" stroke="rgb(189, 189, 189)" stroke-width="1px" opacity="0.25"></line><line x1="344.3480113636363" y1="0" x2="344.3480113636363" y2="377" fill="rgb(0, 0, 0)" stroke="rgb(189, 189, 189)" stroke-width="1px" opacity="0.25"></line><line x1="459.1306818181818" y1="0" x2="459.1306818181818" y2="377" fill="rgb(0, 0, 0)" stroke="rgb(189, 189, 189)" stroke-width="1px" opacity="0.25"></line><line x1="573.9133522727273" y1="0" x2="573.9133522727273" y2="377" fill="rgb(0, 0, 0)" stroke="rgb(189, 189, 189)" stroke-width="1px" opacity="0.25"></line><line x1="688.6960227272726" y1="0" x2="688.6960227272726" y2="377" fill="rgb(0, 0, 0)" stroke="rgb(189, 189, 189)" stroke-width="1px" opacity="0.25"></line><line x1="803.4786931818181" y1="0" x2="803.4786931818181" y2="377" fill="rgb(0, 0, 0)" stroke="rgb(189, 189, 189)" stroke-width="1px" opacity="0.25"></line><line x1="918.2613636363636" y1="0" x2="918.2613636363636" y2="377" fill="rgb(0, 0, 0)" stroke="rgb(189, 189, 189)" stroke-width="1px" opacity="0.25"></line><line x1="1033.0440340909092" y1="0" x2="1033.0440340909092" y2="377" fill="rgb(0, 0, 0)" stroke="rgb(189, 189, 189)" stroke-width="1px" opacity="0.25"></line><line x1="1147.8267045454545" y1="0" x2="1147.8267045454545" y2="377" fill="rgb(0, 0, 0)" stroke="rgb(189, 189, 189)" stroke-width="1px" opacity="0.25"></line><line x1="1262.609375" y1="0" x2="1262.609375" y2="377" fill="rgb(0, 0, 0)" stroke="rgb(189, 189, 189)" stroke-width="1px" opacity="0.25"></line></g><g><line x1="0" y1="327.7988490610369" x2="1262.609375" y2="327.7988490610369" fill="rgb(0, 0, 0)" stroke="rgb(189, 189, 189)" stroke-width="1px" opacity="0.25"></line><line x1="0" y1="209.6979334331262" x2="1262.609375" y2="209.6979334331262" fill="rgb(0, 0, 0)" stroke="rgb(189, 189, 189)" stroke-width="1px" opacity="0.25"></line><line x1="0" y1="125.90400027617801" x2="1262.609375" y2="125.90400027617801" fill="rgb(0, 0, 0)" stroke="rgb(189, 189, 189)" stroke-width="1px" opacity="0.25"></line><line x1="0" y1="60.90837623929637" x2="1262.609375" y2="60.90837623929637" fill="rgb(0, 0, 0)" stroke="rgb(189, 189, 189)" stroke-width="1px" opacity="0.25"></line><line x1="0" y1="7.803084648267277" x2="1262.609375" y2="7.803084648267277" fill="rgb(0, 0, 0)" stroke="rgb(189, 189, 189)" stroke-width="1px" opacity="0.25"></line></g></g></g><g><g><line x1="114.78267045454545" y1="0" x2="114.78267045454545" y2="377" fill="rgb(0, 0, 0)" stroke="rgb(153, 153, 153)" stroke-width="1.5px"></line></g></g><g><g><g><g><g><path stroke="rgb(255, 112, 67)" stroke-width="2px" d="M114.78267045454545,54.376111485264374L115.9304971590909,65.4144464726809L116.50441051136363,53.94949013896054L117.07832386363637,53.85714285714292L120.52180397727274,78.91787046431982L121.09571732954545,110.41058299710357L122.81745738636364,89.39676985351896L123.39137073863637,71.646698552444L125.11311079545455,131.36665567584626L125.68702414772727,135.3750247026221L126.26093750000001,98.53682871779155L127.40876420454545,96.73864784745527L127.98267755681819,83.37474428460699L129.70441761363637,133.95889169908418L130.27833096590908,96.72406762686212L131.42615767045456,96.59370868207299L133.72181107954546,103.6024278398719L134.2957244318182,125.74955237515027L135.44355113636362,123.93423846491389L136.01746448863636,116.76991488084661L136.5913778409091,108.34291441346389L137.16529119318182,148.2004497684924L137.73920454545453,123.00918585713418L141.75659801136365,121.2337817980114L142.33051136363636,122.09078054983037L142.90442471590907,153.3041599459731L143.4783380681818,161.42105528679883L144.05225142045455,169.30275245288746L144.62616477272726,172.83828465432623L145.77399147727272,170.77423779880746L146.34790482954546,145.3784664392897L147.4957315340909,139.03326375043417L149.2174715909091,150.95204914048617L149.7913849431818,169.8286844094847L150.36529829545455,164.01807767721348L150.9392116477273,185.3433519996156L152.0870383522727,157.4808100269667L152.66095170454545,167.8395680858697L153.2348650568182,138.67124247427557L153.8087784090909,169.77840363099105L154.95660511363636,180.6810220341941L155.5305184659091,125.17236410441349L156.67834517045455,127.72747035796785L157.826171875,144.66272314447548L158.97399857954545,166.52596526036774L160.12182528409093,158.62324361230017L160.69573863636361,172.37472100519514L161.8435653409091,176.81401979565862L162.4174786931818,162.48494880835904L163.5653053977273,129.84535852189455L164.13921875,147.2741221426587L165.8609588068182,142.67631942833887L166.4348721590909,157.85211667727407L169.30443892045454,156.60001270110985L171.60009232954545,199.09385006967705L172.17400568181816,171.2625862202227L173.89574573863635,152.50810326425457L175.61748579545454,193.91958133030408L176.19139914772728,165.9404429239848L177.3392258522727,147.034057073543L177.91313920454544,172.99013853359457L180.20879261363638,149.10823633504796L181.35661931818183,163.66493272500568L184.22618607954544,160.7513534098289L186.52183948863637,154.3251179403479L187.0957528409091,148.42806599317476L188.24357954545454,155.50122281035223L188.81749289772725,154.43206539796108L189.39140625,176.96622917744804L189.96531960227273,172.9853077304438L190.53923295454547,191.26272305962837L191.68705965909092,206.7922058928237L192.83488636363637,182.33282059626333L193.40879971590908,182.56361449291538L196.85227982954547,177.06759868892087L197.42619318181818,177.95983104710797L198.57401988636366,239.25502135483637L199.14793323863634,230.90571255072575L200.86967329545453,234.91728606536032L204.88706676136363,217.78843071010203L206.03489346590908,163.5576408193842L206.60880681818182,164.13215294602057L207.75663352272727,196.82464474757958L208.90446022727275,192.725989046382L210.05228693181817,206.19355860534287L212.3479403409091,151.8642859544168L212.92185369318182,85.94755962635259L213.49576704545456,108.84281926788195L215.21750710227272,137.96692139543012L215.79142045454543,188.13312825947762L216.36533380681817,200.23206245059302L216.9392471590909,188.9634983415797L218.08707386363636,201.81970634411994L218.6609872159091,204.67592032196956L219.80881392045455,239.2021863753283L220.3827272727273,213.54546674098717L220.95664062499998,183.6991191595516L221.53055397727272,194.37678884624057L223.2522940340909,225.66125894687465L223.82620738636365,166.73998480139224L224.40012073863636,176.22009230428577L224.9740340909091,164.1367419141562L226.69577414772726,167.92334341754895L228.41751420454545,166.30522656563826L228.9914275568182,147.84851387409034L229.5653409090909,160.7221478307593L230.7131676136364,201.7598877426703L231.2870809659091,202.79308618197493L231.8609943181818,199.8459833511321L232.43490767045452,190.85726376949032L233.582734375,184.89595245330239L234.73056107954545,182.78741359503752L235.87838778409093,153.22864563510075L237.02621448863636,119.51766974659161L238.1740411931818,140.52415187526643L238.74795454545455,172.44871248274632L239.89578125,194.50385596375654L240.46969460227274,208.41879516152707L241.04360795454548,182.12469126612265L241.6175213068182,215.46008282387453L242.1914346590909,224.9790023051255L243.33926136363635,199.92589867845336L243.9131747159091,183.29313050367332L246.208828125,196.28369462120588L247.93056818181816,245.91764383592135L249.65230823863635,271.08272311024655L250.80013494318183,235.77904307289458L251.37404829545454,219.1287226808908L251.94796164772728,183.87962856422214L253.0957883522727,183.09306048474872L253.66970170454545,157.50683049667754L254.8175284090909,178.6648636964649L255.39144176136364,185.30411388244985L255.96535511363638,209.40730241356667L256.5392684659091,164.31297440573792L259.40883522727273,155.2437466162345L259.98274857954544,168.9687226819789L260.55666193181816,192.86764488275188L262.27840198863635,181.10854507126018L262.8523153409091,228.85564312181805L263.4262286931818,228.74940410228854L264.00014204545454,217.81825022127444L265.14796875,235.2247635891248L269.7392755681818,184.26449492045722L270.31318892045454,191.01449219542542L272.0349289772727,189.36885594282052L272.60884232954544,183.47603679027662L273.1827556818182,218.78121918702814L274.33058238636363,242.96216341447789L275.47840909090905,267.720209529064L276.62623579545453,238.72123109442342L277.20014914772725,255.30940294237737L278.3479758522727,252.70625826755844L279.4958025568182,214.11458419458967L280.0697159090909,223.12731841367005L281.21754261363634,200.9059174897718L284.087109375,188.39266906425442L284.6610227272727,228.97619880923858L285.2349360795455,214.94679628889287L285.80884943181815,224.54037654841133L286.3827627840909,211.14104686317785L289.25232954545453,189.8425737659639L290.40015625,203.38490845045055L290.9740696022727,250.0698614455787L291.54798295454543,266.10383956266213L292.12189630681814,269.88417825137316L293.84363636363634,249.86142676130186L294.4175497159091,236.20869396346623L296.1392897727273,268.06961858896614L297.2871164772727,246.13683710376745L297.86102982954543,213.58099234504908L299.5827698863636,196.11187480341735L300.7305965909091,178.8858501787495L303.6001633522727,219.20746177215113L304.1740767045454,199.9448157526418L304.7479900568182,219.04974054435138L305.3219034090909,252.53434777120145L305.8958167613636,184.86776236701957L308.1914701704545,196.23452597635978L308.7653835227273,229.46037756240509L309.9132102272727,250.00578054550024L311.6349502840909,227.0684811795138L312.2088636363637,236.19812058828035L312.7827769886364,220.908210469045L313.3566903409091,213.315237017855L314.5045170454545,230.30238845355592L315.65234375,213.7058057352784L316.8001704545455,261.85690792708954L317.37408380681813,220.61375039371737L317.9479971590909,239.76505227161636L318.5219105113636,235.88160584978272L319.6697372159091,219.82712984760215L320.24365056818186,214.64131102353022L321.39147727272723,158.48163412457035L322.5393039772727,196.2318979900203L323.1132173295455,195.88998743615863L323.6871306818182,184.6256525571412L324.26104403409096,188.77522547684757L324.8349573863636,186.82978848418128L325.4088707386364,194.16835531279918L325.9827840909091,191.2648814654688L329.4262642045455,182.12535217814755L330.0001775568182,190.00899924960177L331.1480042613636,189.83324949179516L331.7219176136364,179.4619566713891L334.0175710227272,173.15709254382278L335.7393110795455,159.96959615280025L336.3132244318182,164.67142419825296L338.0349644886363,183.49039300107506L338.6088778409091,199.76781679660797L339.1827911931818,200.16109897952762L339.75670454545457,157.53735308555108L340.3306178977273,158.4944006944037L340.90453125000005,161.3885092287804L341.4784446022727,157.73871806018215L342.05235795454547,180.69778710794225L342.6262713068182,162.70021912390177L343.2001846590909,182.48113435920533L343.77409801136366,194.4935027743975L344.9219247159091,183.90516288038728L345.4958380681818,202.65653691734147L346.6436647727273,175.30676701356165L347.7914914772727,192.13968565507935L348.9393181818182,167.79061667392097L349.5132315340909,194.71351697352L351.2349715909091,217.57671328908688L351.8088849431818,190.41495845860302L352.38279829545456,185.7340680748139L352.9567116477273,188.51769948264447L354.6784517045454,185.42755976717618L355.2523650568182,159.17934764595398L356.40019176136366,114.7939409939586L356.97410511363637,151.22914085719646L358.69584517045456,157.35276886265166L359.2697585227273,168.2373661858878L361.5654119318182,221.24512301770184L362.1393252840909,116.70001713027983L363.86106534090914,96.3890275979299L364.4349786931818,101.33108719217249L365.0088920454545,137.92529418177395L365.58280539772727,185.74005938670996L366.15671875,199.02152962454963L366.73063210227275,183.30388350664404L367.30454545454546,197.9185293211003L367.87845880681823,155.64641809713683L369.02628551136365,139.56821436650557L369.60019886363636,133.41888116562586L370.1741122159091,175.98517772498565L370.74802556818184,144.91174536076113L373.04367897727275,163.01269927236265L373.61759232954546,141.98054709598563L374.1915056818182,161.45668441963207L374.7654190340909,143.4695622821981L375.33933238636365,144.19650325882412L376.4871590909091,150.36063355339905L377.6349857954545,164.24142934672264L378.7828125,171.6248540014994L379.35672585227275,149.76531050545003L379.93063920454546,174.30337913745447L381.07846590909094,168.39122115568193L381.6523792613636,167.278659401622L382.22629261363636,144.91997475655037L383.37411931818184,160.88257065288772L384.5219460227273,137.44021268489922L385.095859375,158.6760933120144L386.81759943181817,170.36169750809273L387.39151278409093,164.32709261383485L389.11325284090907,197.44831820483586L389.68716619318184,200.05172504653518L390.26107954545455,138.2416672622681L390.8349928977273,166.67435693928172L391.40890625,166.06307720369378L391.9828196022727,150.96022299678071L392.55673295454545,159.69896726033016L393.70455965909093,180.16867852000928L394.27847301136364,238.64891985943368L394.85238636363636,201.58140923734274L395.42629971590907,210.7655486121772L396.57412642045455,208.45488611217237L398.2958664772727,198.35502146811726L398.86977982954545,200.61355053480455L400.59151988636364,206.21299435846515L402.31325994318183,216.1308240564021L402.88717329545455,183.75750508417767L403.46108664772726,183.81788391660007L405.18282670454545,199.86358323794806L406.3306534090909,239.01966561851418L406.90456676136364,282.4144921467874L407.4784801136364,276.3109014032016L408.05239346590906,244.10353223765998L408.6263068181818,293.2136207313817L409.20022017045454,222.1441198318879L409.77413352272725,212.50774698391223L410.92196022727273,209.37478066339628L411.4958735795455,181.28186678333918L412.06978693181816,223.12948070695796L412.6437002840909,198.90672066228544L413.21761363636364,193.6922947503003L413.79152698863635,175.33728543695645L414.9393536931818,232.70599762760952L418.9567471590909,223.0263432604921L420.6784872159091,218.56999201458856L421.25240056818177,219.2896131974289L422.40022727272725,185.63583666537176L422.974140625,147.5005439171951L423.54805397727273,151.29291205705402L424.1219673295455,175.06366257835518L424.6958806818182,165.46550289870123L425.26979403409086,166.0284970325672L425.84370738636363,197.88125142649815L426.41762073863634,205.8554656389253L426.9915340909091,211.4465895701998L428.1393607954546,126.49846798125009L428.71327414772725,138.17764689724856L430.43501420454544,141.65470932191644L431.58284090909086,158.14113685207838L432.73066761363634,187.7535924192735L433.3045809659091,200.30115181336657L433.8784943181818,189.66091876098963L437.3219744318182,198.3920594096451L437.8958877840909,230.71018973912135L438.4698011363636,253.3028342772999L440.7654545454546,235.82223387726086L441.3393678977273,234.66262043758294L442.4871946022727,205.90131757258004L443.6350213068182,222.27259212921956L445.35676136363634,179.1249441996305L447.6524147727273,201.3947259902616L449.9480681818182,236.18387362028915L450.5219815340909,199.69433278454187L451.0958948863637,128.42467489726818L452.24372159090905,155.12415861849067L452.8176349431818,176.07967946443966L453.3915482954545,189.81757602742238L453.9654616477273,164.04729050820143L454.539375,137.23882112423792L455.68720170454543,179.5969983492555L456.8350284090909,155.10297809661938L457.4089417613636,191.32824409989837L457.9828551136364,214.3389004003149L458.55676846590904,221.96946354449528L459.1306818181818,213.64818293277085L459.7045951704545,213.2076649768178L460.2785085227273,206.12200957383286L461.4263352272728,202.42205557517246L463.1480752840909,211.3104850023426L464.2959019886364,175.63839890463723L466.0176420454545,187.964377130785L466.5915553977273,195.64339177853452L467.73938210227277,167.47824712428758L468.3132954545455,157.4133048307658L468.88720880681814,161.05300810834345L470.0350355113636,204.22013447388437L471.1828622159091,168.08926798500806L471.75677556818187,175.4273879336237L473.478515625,181.65942701157385L474.0524289772727,232.59808250595574L474.6263423295455,271.56861269832615L475.20025568181813,205.88630490615148L477.4959090909091,193.90680005137472L478.06982244318186,205.29313543444135L478.6437357954545,197.35655059944514L479.7915625,217.1801256907307L481.5133025568182,260.40061893226374L482.08721590909096,215.8067181364584L482.6611292613636,220.19219191358442L483.2350426136364,220.20351882585467L483.8089559659091,233.77864957062135L484.3828693181818,190.5979085195685L486.6785227272727,158.2319498572739L487.8263494318182,175.83620015709184L488.40026278409096,141.43465575525425L488.9741761363636,159.80826832459402L489.5480894886364,154.78802653019972L490.1220028409091,144.5723342754646L491.8437428977272,147.55075828461733L492.41765625,156.594455301264L492.9915696022727,193.03064120796347L497.0089630681818,211.40903729552429L498.73070312500005,214.81569279850885L501.60026988636366,143.351176387125L502.1741832386363,152.3360951657016L502.7480965909091,167.38689432295095L504.4698366477273,172.02363316557475L505.6176633522727,187.00084560476228L506.1915767045454,193.2688890968797L506.7654900568182,261.1534358077149L507.3394034090909,239.16718704265958L508.4872301136364,156.53115827877684L511.35679687500004,150.3733996944631L511.93071022727275,146.09564373109913L512.5046235795454,173.13204494155283L513.0785369318182,153.32385389792006L513.6524502840908,147.26863621197623L514.2263636363637,138.67362056180778L515.3741903409091,88.67860155053695L517.0959303977273,104.56623922853309L517.6698437499999,142.04397316276382L518.8176704545455,140.73026878772797L521.1133238636363,179.3458932532178L521.6872372159091,179.50323665319573L522.8350639204546,177.2226592249811L524.5568039772727,176.71670725664126L525.7046306818182,173.10436108169418L526.8524573863637,162.36258169363447L527.4263707386364,140.7599694153744L528.0002840909091,161.92983818560978L529.1481107954545,150.00734857075932L529.7220241477273,136.53839386994983L530.2959375,163.736755274765L530.8698508522727,187.3077496087368L531.4437642045455,215.06613170568633L532.0176775568182,210.1958124104459L532.5915909090909,173.94093486916398L533.7394176136364,183.4400196802025L534.313330965909,196.4355493113638L534.8872443181818,211.0933062134577L537.7568110795454,198.33545817267378L538.3307244318182,220.87468861997084L538.9046377840909,224.79169419941303L540.0524644886364,209.32830644031583L540.6263778409091,200.9895734385219L541.2002911931818,178.2472293645126L541.7742045454545,185.49658001937718L545.7915980113636,176.2594329696679L547.5133380681818,185.39409179417586L548.0872514204545,209.89393468472946L549.235078125,213.41921307852613L552.1046448863636,192.64816224658685L552.6785582386364,195.85411538952687L553.2524715909091,196.2944538378796L554.4002982954545,201.6256854603127L554.9742116477273,195.8080219391586L555.548125,198.85784514582565L556.1220383522727,188.89935525859752L556.6959517045455,172.54206428948999L557.2698650568182,159.48242777725554L557.8437784090909,167.2422288052333L558.9916051136364,159.68482450695703L559.5655184659091,177.9605302459049L560.7133451704545,205.10211820486904L561.2872585227273,218.7171173653461L561.861171875,178.42900579861882L562.4350852272727,189.0200970239112L563.0089985795455,199.62953721677098L563.5829119318182,196.24142575635045L565.3046519886364,228.18424698274669L566.4524786931818,241.005647483489L567.0263920454546,224.16528100383357L568.17421875,213.64731508891722L569.3220454545454,234.796575163699L570.469872159091,192.27041920394777L571.0437855113636,179.94943796306936L571.6176988636363,159.9672569370381L572.7655255681818,150.48195951801335L573.3394389204545,170.14496490313505L575.6350923295455,218.66947957570764L576.2090056818182,187.36260575312636L576.7829190340909,198.6522377291405L577.3568323863636,190.951137098944L579.0785724431818,168.3505714433574L580.8003125,178.00707618875498L583.6698792613637,207.4792227867369L584.2437926136363,238.97236753744366L585.3916193181818,219.75370023995362L585.9655326704545,197.53838687849068L586.5394460227272,192.7382936920811L587.6872727272727,199.28076085431468L588.2611860795454,222.89519454015954L588.8350994318182,221.54806601993232L589.4090127840909,202.80445270555967L591.7046661931818,166.91379226984233L592.2785795454546,173.53073595630192L593.42640625,206.1213440264675L594.0003196022727,217.76967690023127L594.5742329545454,298.6562704771482L595.7220596590909,256.80075345888105L596.2959730113637,232.30986224139386L597.4437997159091,218.63891418685805L598.0177130681818,250.7226841805192L599.1655397727272,216.89454776943637L602.0351065340909,234.39131705767517L602.6090198863636,315.788484460945L604.3307599431819,200.61616983121067L605.4785866477273,231.98531953364986L606.0525,197.15478087170902L607.7742400568183,202.6327903813587L608.3481534090909,180.13888565108292L608.9220667613637,248.35125071991624L610.6438068181818,274.84436689203187L611.2177201704545,242.5158994435569L613.5133735795455,260.27363054249196L614.0872869318182,323.14285714285717L619.8264204545454,243.39802252135692L620.974247159091,211.84545058207692L621.5481605113636,211.93244760778293L622.1220738636364,216.41667776249378L622.6959872159091,256.20483273855916L623.2699005681818,243.84749928950393L623.8438139204545,212.41824000804652L624.991640625,198.77926671221638L626.1394673295455,183.2250015684213L627.8612073863636,210.1047757223259L629.009034090909,221.7865640472964L629.5829474431819,213.77632505385034L631.3046875,192.30998902418543L631.8786008522727,208.56577234511482L633.0264275568181,187.9867296201813L634.1742542613637,189.85168085346112L634.7481676136363,189.35935578958436L635.3220809659091,207.39703838679768L636.4699076704546,201.04793804672937L637.0438210227272,207.25937021960033L638.1916477272728,217.8268507145889L638.7655610795454,238.2304020425564L639.9133877840909,215.2305872365017L641.0612144886363,234.94476981254186L641.635127840909,240.89755765888393L642.2090411931819,182.15326277632317L642.7829545454545,203.7083985657074L643.93078125,204.57469392371024L646.226434659091,190.37574622985377L646.8003480113637,191.43254070354064L647.3742613636364,216.1627717511776L647.9481747159091,261.0303992669392L648.5220880681819,260.97094489016433L649.0960014204545,229.46884779828264L649.6699147727272,216.5778889623894L650.243828125,211.0351636160335L650.8177414772728,225.14044289161907L653.1133948863636,241.95410188154972L654.2612215909091,223.9358589249917L654.8351349431819,224.22480541039178L656.556875,219.75467088781846L658.852528409091,225.26752033852935L659.4264417613635,203.82845369288304L660.5742684659091,194.27036197266125L661.7220951704545,188.77068916969867L662.2960085227272,190.87807598311613L662.869921875,134.6018751720396L664.5916619318182,198.51813950583042L665.165575284091,200.64442054031173L665.7394886363636,195.5560272846563L666.3134019886363,160.48289250097724L666.8873153409091,148.481668615569L667.4612286931819,168.60284170700632L668.0351420454544,171.39223362534582L669.18296875,151.18508454273075L669.7568821022727,156.98435538541693L671.478622159091,182.02642412888602L674.3481889204545,217.45747645788188L675.496015625,182.00631285666546L676.0699289772726,177.95100211236584L677.2177556818182,198.60525257759843L677.791669034091,226.3702273451283L678.3655823863636,237.17554440940472L680.0873224431818,188.11980475052707L681.2351491477273,203.36937311723324L681.8090625000001,201.2918946505248L682.3829758522727,168.90311437241687L683.5308025568182,181.3878982854766L684.6786292613635,202.64608930813336L685.2525426136364,204.94098767837764L685.8264559659091,218.56120191843945L686.9742826704545,232.18647531776824L687.5481960227273,214.71147979405427L688.6960227272726,231.07099731207774L689.2699360795455,234.3222444666201L689.8438494318182,258.1372836821886L690.417762784091,226.96893503582868L690.9916761363636,202.47540975671734L691.5655894886364,218.68861786595778L694.4351562500001,176.82654120351617L695.5829829545454,194.25193178306336L696.7308096590908,180.00091672439527L697.3047230113636,159.6849995350215L697.8786363636364,160.65022115554623L700.748203125,122.82450557413544L703.0438565340909,138.9947149985583L704.1916832386364,150.04143448742113L704.7655965909091,135.7715138165122L708.2090767045455,127.61590923016578L708.7829900568182,121.66276152960253L709.3569034090908,192.02364185021474L709.9308167613636,136.88481298638573L710.5047301136364,146.36979028947857L712.8003835227273,147.6325745866113L713.9482102272727,136.33894751878432L714.5221235795455,141.4667176069907L716.2438636363636,161.21698857982608L717.9656036931818,153.7038023329862L718.5395170454545,200.36829606186626L720.2612571022727,193.39385343108884L721.4090838068182,189.86498584843855L721.9829971590908,151.00138966226723L722.5569105113636,130.1540289635039L723.7047372159092,156.69618031077084L725.4264772727273,165.57876694853508L726.0003906249999,196.06718835194698L726.5743039772727,199.59550517434283L727.7221306818183,191.24284583655003L728.2960440340909,180.9600307553804L728.8699573863636,136.23953425939868L729.4438707386364,169.58620342141776L730.017784090909,180.35747179761808L730.5916974431818,163.17179587942934L732.3134375,165.25495771675446L732.8873508522727,184.83531427894383L734.0351775568182,215.79147143926298L734.6090909090909,197.37824718828335L735.1830042613636,170.9629469942715L736.9047443181818,182.23633905093777L737.4786576704546,223.38006795426398L738.0525710227273,199.01024746732583L740.3482244318182,184.4244360993187L740.9221377840909,210.47591695186662L741.4960511363637,200.95661816135544L744.3656178977274,208.55072670745753L745.5134446022727,250.89656581223477L746.6612713068181,271.0959803298831L747.2351846590909,219.32878294132433L747.8090980113636,218.66011372377594L749.5308380681818,165.9891559515608L750.1047514204546,176.13644970491507L750.6786647727273,179.11590136667428L751.252578125,181.7735631878656L751.8264914772727,169.32529598909065L752.4004048295456,153.24314198104236L752.9743181818181,203.8952654557371L753.5482315340909,221.65417285231254L754.6960582386364,162.4942142685496L756.4177982954545,158.98814675270629L757.565625,193.16084976365127L758.1395383522728,227.8281954310097L759.8612784090909,220.0492382897491L760.4351917613636,229.28181943362287L761.583018465909,260.7741827764986L762.1569318181819,268.2731358012876L762.7308451704546,240.68739782661766L763.3047585227272,215.4772354275085L763.878671875,191.12849866250482L765.0264985795455,204.70515863784883L765.6004119318181,214.83343762093793L766.1743252840909,216.04624834370762L766.7482386363637,213.4370990315443L767.8960653409091,175.1361623290223L769.6178053977272,191.72645573434522L771.3395454545455,188.13371410383343L771.9134588068181,192.88917423742052L773.0612855113636,207.88222421226365L773.6351988636363,218.25351923686583L774.209112215909,222.27053590695513L774.7830255681819,217.66049937282682L775.3569389204546,105.72112827763233L775.9308522727272,176.14333684255038L777.0786789772727,182.01954402629343L779.3743323863637,166.67680579489019L779.9482457386363,215.7288694332702L781.0960724431818,212.437589393773L782.2438991477272,226.40156911147702L783.3917258522728,181.01847419076634L783.9656392045454,213.8036319710686L786.835205965909,198.30865568318245L787.4091193181819,210.2711359540072L787.9830326704546,148.4220047601158L789.130859375,153.63198019288274L789.7047727272727,176.90849497712577L790.2786860795454,190.96709959696125L792.5743394886363,178.99410079114722L793.7221661931818,197.1090524264885L794.8699928977272,209.59049612006274L796.0178196022728,171.52667110495182L796.5917329545454,169.2168222281789L797.1656463068182,179.09612992941686L798.8873863636363,178.0452725769453L799.461299715909,185.37955280094613L800.0352130681819,194.73161148416028L800.6091264204545,234.87544127255427L801.1830397727273,243.9962662704178L801.756953125,242.42257702864345L803.3639105113637,199.12921567808567L803.4786931818181,231.55903350386396L805.2004332386364,211.5730978990471L805.7743465909091,220.75194119271592L806.3482599431819,287.61329835609695L807.4960866477272,258.29448606354975L808.07,218.18496636234448L809.7917400568182,201.80221915910093L810.3656534090909,171.90609717298076L810.9395667613636,146.2149011226203L812.0873934659091,173.531219435615L812.6613068181819,186.62151711722103L814.9569602272728,184.34305430629092L815.5308735795454,226.92175303807278L816.678700284091,191.37373519318092L818.4004403409091,198.834465233808L818.9743536931819,193.67571332027836L820.69609375,186.24083377633L821.2700071022728,140.54310101486413L824.1395738636363,157.56596150566355L825.2874005681819,151.53335785278034L825.8613139204544,178.55496657096765L826.4352272727273,206.55813509907662L827.009140625,186.38278747242668L827.5830539772727,218.22626686469312L828.1569673295454,219.69704333960271L828.7308806818182,203.63487253580539L830.4526207386364,194.85351628960362L831.0265340909091,180.60230372476582L831.6004474431819,199.22544003976708L832.1743607954545,181.1685690333864L833.3221875,203.92557001898072L834.4700142045455,196.89125525910754L835.0439275568182,239.03530427693033L836.7656676136363,241.00572679842455L837.3395809659091,256.2135153842873L839.0613210227273,243.0083274751563L840.7830610795454,238.52046112192735L841.3569744318182,221.73756238790367L843.0787144886364,218.6388499230788L845.94828125,227.02496009803903L846.5221946022726,202.7629290439779L847.0961079545455,117.69971770774437L848.243934659091,178.52627989550058L849.3917613636364,199.82720972569382L851.1135014204546,149.5631661729591L852.8352414772727,166.41605972002048L853.9830681818182,201.06358116190407L855.7048082386364,204.9573242773074L857.4265482954545,177.32858781546747L858.574375,187.97958696457232L859.1482883522727,173.86611654398538L860.2961150568182,162.31340308738237L860.8700284090909,160.20403011617032L862.0178551136364,165.31139757256625L863.1656818181817,234.71952720969543L865.4613352272727,195.34561681561797L867.1830752840908,240.68044195901143L867.7569886363636,140.0707265736449L868.3309019886364,137.03550618127142L871.2004687499999,147.79717675053365L872.3482954545455,151.4956844649553L872.9222088068183,164.31697685136533L873.4961221590909,166.4667749139933L874.0700355113636,224.1424167228016L874.6439488636364,223.26645215011104L875.7917755681818,215.33544406272694L879.8091690340908,230.7007103321361L883.2526491477273,219.47394158821186L884.9743892045454,152.91509647709742L885.5483025568183,170.83886962787005L886.6961292613636,196.40993059747987L887.2700426136364,203.03531983772055L888.9917826704545,193.1945808313898L889.5656960227274,214.63212132056407L890.7135227272727,231.0848735144615L891.2874360795455,224.7064155377173L892.4352627840909,187.37120477761513L893.0091761363636,161.5979846010754L894.1570028409091,230.02981438213152L896.4526562499999,231.43213002500738L897.0265696022727,175.9875361206384L897.6004829545454,177.64716214003352L898.1743963068182,182.0893375425068L898.7483096590909,174.76607732486534L901.0439630681818,183.76713483748824L901.6178764204545,201.63912907827103L902.765703125,238.1496033328478L903.3396164772727,243.34506875627704L905.6352698863636,227.6994684980883L906.2091832386365,248.17574043249886L908.5048366477273,223.4108818459247L909.07875,178.42640395559917L909.6526633522727,159.07917985024622L911.3744034090909,175.32660570664268L911.9483167613637,170.14935324634274L913.096143465909,204.14891383994646L914.8178835227272,190.70956931411794L915.391796875,189.5993740787492L916.5396235795455,209.97856689112405L917.1135369318181,206.8408087560985L918.8352769886365,237.78698169319213L919.9831036931819,212.07611875164486L924.5744105113637,197.82300560667954L926.2961505681818,261.7960089995124L926.8700639204546,278.62478515902103L928.017890625,264.1276602605962L929.1657173295455,271.97478526421213L929.7396306818181,240.07776568551083L934.9048508522727,197.6969233550612L935.4787642045455,196.50090046936106L936.0526775568181,198.3118180392967L936.626590909091,215.83685306324202L937.7744176136363,220.98011982915503L938.9222443181818,207.96425095223714L939.4961576704546,183.92724705234846L940.0700710227272,114.30628754823876L940.643984375,123.7427606612398L942.3657244318182,186.11106944249667L943.5135511363637,204.17391056056462L944.0874644886363,251.7335785030638L944.661377840909,226.85884044192002L945.2352911931819,197.86717259236374L945.8092045454546,277.66432236842326L946.3831178977273,313.9379619074746L946.95703125,287.24808901909796L948.1048579545454,242.7559984253255L948.6787713068181,216.83863271473294L949.252684659091,220.98721079920364L949.8265980113637,200.8956380135917L950.4005113636363,210.0114569607178L950.9744247159091,236.7924275283829L951.5483380681818,180.17502635305738L952.1222514204546,196.14773097316584L952.6961647727272,142.73849056946517L953.270078125,171.53840010228822L953.8439914772728,204.18705239776457L957.287471590909,197.14196432108542L959.0092116477273,190.10705656862248L959.583125,129.46499008484412L960.7309517045454,158.0478131368561L961.3048650568181,143.45390665110642L963.6005184659091,166.9568443121576L964.1744318181819,158.23314992428075L964.7483451704545,149.55536995479414L965.3222585227272,141.17365974762797L967.0439985795454,135.55885717239954L967.6179119318182,187.24826561078598L968.1918252840909,194.48796339329735L968.7657386363636,174.98418563205126L969.3396519886363,143.20537560655117L970.4874786931819,101.1224707288667L971.0613920454545,137.13259361928337L973.3570454545454,164.16832905805734L973.9309588068181,187.20178899881995L974.504872159091,167.13052149445238L975.6526988636364,181.18477462710433L977.3744389204545,180.4309384981745L979.6700923295455,193.58714283612963L980.2440056818182,202.91571876694286L980.817919034091,201.4453994412558L981.9657457386363,185.05143920944045L983.1135724431819,172.10168525045893L983.6874857954544,172.9245159874962L987.7048792613635,179.9687684494146L989.4266193181819,188.9329273677371L990.5744460227273,198.2038368061706L991.7222727272726,177.09296760075694L993.444012784091,185.85907057471888L994.0179261363636,165.9321093477992L995.7396661931818,149.56602390816158L996.3135795454546,166.87402945741653L997.4614062500001,193.48796045698538L998.0353196022727,194.74795696810196L1000.3309730113635,171.0507263921402L1001.4787997159091,178.7006339977857L1002.0527130681818,148.2728404213269L1003.774453125,165.24868888457308L1004.3483664772726,181.0502823858717L1004.9222798295455,204.91343640322702L1006.070106534091,241.96625520386007L1007.2179332386364,272.62211643504935L1008.3657599431817,232.04510828567476L1008.9396732954546,227.98528091432294L1010.0875000000001,226.1485182470738L1011.2353267045454,180.90067558365595L1011.8092400568182,213.5449102379333L1012.3831534090908,182.78670724261897L1013.5309801136364,167.9076334619193L1014.6788068181818,166.4261627048839L1015.2527201704545,173.9231342982522L1015.8266335227273,183.9645989885262L1016.400546875,252.91919529731223L1016.9744602272727,274.81252264968754L1018.1222869318182,209.51189492717458L1019.2701136363636,209.44439082205287L1019.8440269886364,183.18028331070906L1020.4179403409091,194.34107352723152L1020.9918536931817,187.61199784799004L1021.5657670454545,184.88698779202048L1023.2875071022727,202.68801333148133L1026.1570738636365,204.36354852672605L1029.026640625,187.734977027242L1029.6005539772727,191.6361148346465L1030.1744673295455,247.12277477562057L1032.4701207386363,201.60967962668914L1033.0440340909092,244.25875945672257L1033.6179474431817,250.95298120506195L1037.635340909091,280.0033179582762L1038.2092542613636,263.9163697826394L1039.357080965909,212.34704070176164L1039.9309943181818,189.06798714697365L1040.5049076704545,188.5815814029074L1041.0788210227274,202.37802375934646L1041.652734375,191.25749886044645L1043.3744744318183,214.47575090571337L1044.5223011363637,186.1152174893056L1045.6701278409091,221.71462507871942L1046.8179545454545,233.10517608837299L1047.3918678977273,226.22362332329507L1049.1136079545454,214.62797084437764L1049.6875213068183,204.71756786356025L1051.983174715909,217.29807714591232L1052.5570880681819,241.85553782774358L1053.1310014204546,241.38938592143523L1053.7049147727273,232.0680632666869L1054.8527414772727,292.435327307771L1055.4266548295454,322.5967321429565L1058.296221590909,274.7194656406498L1058.8701349431817,237.19477038456284L1060.0179616477274,219.2701339738595L1061.1657883522728,207.4076128568753L1061.7397017045455,210.55129782418925L1062.3136150568182,188.21247954660996L1062.887528409091,209.94963859651068L1064.0353551136363,209.7811962960272L1065.1831818181818,272.4163862846762L1065.7570951704545,278.7484181655847L1067.4788352272728,217.1892914510902L1068.626661931818,268.631583209236L1069.7744886363637,292.9629424944763L1071.4962286931818,275.450411746728L1072.0701420454545,247.5439991485601L1074.3657954545456,202.62712560991116L1076.0875355113637,178.84326805883134L1077.2353622159092,229.32282235971587L1077.8092755681819,216.07685130374273L1078.3831889204546,257.0496803691322L1078.9571022727273,256.38938514134514L1080.6788423295454,203.37599477822297L1081.2527556818181,284.45559593597665L1081.8266690340909,238.30909598330348L1082.4005823863636,220.34732319756407L1082.9744957386365,158.07377947936334L1083.548409090909,157.68672366019516L1085.2701491477271,185.1801053212252L1085.8440625,189.72138734861838L1086.4179758522728,180.4498827680465L1087.5658025568182,207.3505838988532L1088.139715909091,158.00408380349663L1088.7136292613636,212.29380562919087L1089.2875426136363,186.80842157598397L1089.861455965909,235.34414428574922L1090.4353693181818,244.33653064993842L1091.5831960227272,252.16673655274863L1093.3049360795455,238.7265873214189L1094.452762784091,190.63025783025896L1095.0266761363637,210.39903389809737L1095.6005894886364,189.14418897875225L1096.174502840909,169.1197150079217L1098.47015625,196.19110605403955L1099.6179829545454,154.50519249244516L1100.191896306818,203.74256008673137L1101.9136363636362,199.77812499484781L1102.4875497159092,264.7929205316647L1103.0614630681819,249.17027496555292L1103.6353764204546,238.94287155091524L1106.5049431818181,215.64899578762524L1111.09625,232.10912918079944L1111.6701633522728,216.35343913632627L1112.2440767045455,146.90922098203632L1113.9658167613636,161.05144434672457L1115.113643465909,135.81518040104538L1115.6875568181817,147.2750530887089L1116.2614701704545,168.40746022211636L1116.8353835227272,204.36535664553236L1117.409296875,197.05906506887843L1117.9832102272728,185.6338180939698L1118.5571235795453,152.7776560885681L1119.704950284091,221.98281497067669L1120.2788636363637,204.6938595345545L1122.0006036931818,200.82711633485357L1124.8701704545454,206.05998028175622L1125.444083806818,221.07646108507234L1126.5919105113635,253.63594103780648L1127.1658238636364,271.1644803275263L1128.3136505681819,242.72240091940137L1128.8875639204546,221.81888544177585L1130.035390625,220.73304785322694L1132.3310440340908,193.3388170457495L1132.9049573863635,211.53296040898985L1133.4788707386363,214.83316987655905L1135.2006107954544,218.05481005051618L1135.7745241477273,218.07984759415754L1137.4962642045455,225.71514199215477L1138.0701775568182,208.66444635541464L1138.644090909091,252.76449514806677L1139.2180042613636,276.80067291396506L1140.365830965909,207.51405650794752L1140.939744318182,204.81579896857764L1142.0875710227272,203.1466545770586L1143.2353977272726,195.1203250206358L1144.3832244318182,217.12027930214012L1144.957137784091,191.52393608340154L1146.678877840909,207.82505342260052L1147.2527911931818,207.98465666392988L1147.7119218750001,217.57360487281312L1147.8267045454545,210.2815854627172L1148.4006178977272,224.1053269802773L1148.97453125,251.88822184694172" style="fill: none;" fill="none"></path></g></g></g></g><g opacity="0.2"><g><g><g><path stroke="rgb(255, 112, 67)" stroke-width="2px" d="M114.78267045454545,54.376111485264374L115.9304971590909,73.00510815144807L116.50441051136363,41.73529760099174L117.07832386363637,53.72744766780748L120.52180397727274,124.17607076916646L121.09571732954545,174.62387131658264L122.81745738636364,54.65536096038796L123.39137073863637,40.978114006008134L125.11311079545455,298.2820227231919L125.68702414772727,143.32299879109397L126.26093750000001,37.570822549855244L127.40876420454545,93.22623512934983L127.98267755681819,58.61058981363325L129.70441761363637,271.4470470423511L130.27833096590908,34.42622235386749L131.42615767045456,96.3345295238763L133.72181107954546,118.08012181124077L134.2957244318182,175.62407018562413L135.44355113636362,120.35027540859745L136.01746448863636,102.99556389798894L136.5913778409091,92.23852969235347L137.16529119318182,248.9250580905557L137.73920454545453,78.47892914307715L141.75659801136365,117.72588798492798L142.33051136363636,123.80711033716915L142.90442471590907,227.75153698929938L143.4783380681818,178.313979756251L144.05225142045455,185.68545199602562L144.62616477272726,180.01884350013887L145.77399147727272,166.7016872898731L146.34790482954546,100.52233383737722L147.4957315340909,126.77913785158371L149.2174715909091,176.28122444041858L149.7913849431818,211.56807799575174L150.36529829545455,152.7666136174642L150.9392116477273,233.1837602992953L152.0870383522727,108.80136659442996L152.66095170454545,189.6643457035387L153.2348650568182,88.00104642231189L153.8087784090909,243.9248396706744L154.95660511363636,203.7206256662298L155.5305184659091,38.62660385106069L156.67834517045455,132.89028123456464L157.826171875,181.6896498979066L158.97399857954545,215.7310841092165L160.12182528409093,143.4776586146032L160.69573863636361,201.90006124774786L161.8435653409091,185.8732680698444L162.4174786931818,135.8589506225123L163.5653053977273,73.99051933879421L164.13921875,185.4888312365188L165.8609588068182,133.71936712849475L166.4348721590909,190.69944896754194L169.30443892045454,154.11925535345836L171.60009232954545,308.52759904713446L172.17400568181816,122.63108547254843L173.89574573863635,118.37089776493517L175.61748579545454,299.7464772447844L176.19139914772728,117.08230339351238L177.3392258522727,112.64442817005197L177.91313920454544,232.87872519570868L180.20879261363638,106.63957522635825L181.35661931818183,195.06165915884284L184.22618607954544,155.02721784074805L186.52183948863637,141.9194270365186L187.0957528409091,137.01409476247952L188.24357954545454,170.13957539922217L188.81749289772725,152.31179649640825L189.39140625,227.8858668629658L189.96531960227273,165.20611486613834L190.53923295454547,231.53611621449534L191.68705965909092,240.4728999882987L192.83488636363637,138.949573972783L193.40879971590908,183.02436689080662L196.85227982954547,166.40865345077927L197.42619318181818,179.74715328951055L198.57401988636366,422.55414600725334L199.14793323863634,214.93916483620515L200.86967329545453,243.08520990934917L204.88706676136363,186.37472518142354L206.03489346590908,78.58416355150543L206.60880681818182,165.28113073502732L207.75663352272727,275.5565174964968L208.90446022727275,184.7214551826109L210.05228693181817,235.0631596439301L212.3479403409091,66.76908728249711L212.92185369318182,-12.85523798069536L213.49576704545456,160.69106611473063L215.21750710227272,206.5114283244824L215.79142045454543,324.9294372013747L216.36533380681817,225.9699323172314L216.9392471590909,167.71702736976025L218.08707386363636,229.28439863510616L218.6609872159091,210.4562386090212L219.80881392045455,323.3617857369773L220.3827272727273,168.28077085098045L220.95664062499998,132.0040629413765L221.53055397727272,216.9130366064694L223.2522940340909,300.3157542048334L223.82620738636365,76.06955757792974L224.40012073863636,196.09762089193583L224.9740340909091,141.44281966541845L226.69577414772726,175.62407018562413L228.41751420454545,163.105269974828L228.9914275568182,114.20714423822162L229.5653409090909,188.22675055935125L230.7131676136364,306.3547185614028L231.2870809659091,204.86430123369493L231.8609943181818,194.05696567880238L232.43490767045452,173.72147616764192L233.582734375,173.36127902400074L234.73056107954545,178.6279839299516L235.87838778409093,101.9675433184751L237.02621448863636,62.09334534183454L238.1740411931818,187.56009545131295L238.74795454545455,248.94728022221864L239.89578125,244.1979409685088L240.46969460227274,238.3226434378139L241.04360795454548,135.86649594599123L241.6175213068182,296.0794825968872L242.1914346590909,244.94214774068908L243.33926136363635,155.60721808319533L243.9131747159091,152.71869766046714L246.208828125,224.05630437512602L247.93056818181816,380.706151323825L249.65230823863635,328.86394219585156L250.80013494318183,176.0475995055878L251.37404829545454,188.52452952967226L251.94796164772728,124.22674618573369L253.0957883522727,181.53094649621585L253.66970170454545,112.35235001182964L254.8175284090909,226.0828724264337L255.39144176136364,199.01247390638844L255.96535511363638,264.3920870991315L256.5392684659091,91.04734859900068L259.40883522727273,137.9612535570214L259.98274857954544,198.43276369464127L260.55666193181816,247.31873058622136L262.27840198863635,158.98930125715245L262.8523153409091,356.66465473495094L263.4262286931818,228.5376778246285L264.00014204545454,197.17448610913897L265.14796875,273.3857730479934L269.7392755681818,103.38624327946545L270.31318892045454,204.95980295072593L272.0349289772727,186.11493311657554L272.60884232954544,172.0700189609127L273.1827556818182,305.2878092393171L274.33058238636363,298.1504608851888L275.47840909090905,324.4251458010548L276.62623579545453,188.30793672979334L277.20014914772725,291.5050669982023L278.3479758522727,247.5839875411558L279.4958025568182,149.71626340194737L280.0697159090909,241.97671357526497L281.21754261363634,161.09341447121628L284.087109375,164.9395525471527L284.6610227272727,332.08277356106896L285.2349360795455,188.8406919946936L285.80884943181815,244.66832199922985L286.3827627840909,186.1328445820629L289.25232954545453,151.5235619175711L290.40015625,232.42698874518598L290.9740696022727,374.0416726091549L291.54798295454543,300.9791401249091L292.12189630681814,277.57191496868336L293.84363636363634,213.62737353333932L294.4175497159091,210.7581534711946L296.1392897727273,344.38414841037786L297.2871164772727,206.7900506225037L297.86102982954543,157.8494341300364L299.5827698863636,164.12473700574785L300.7305965909091,147.30820502797405L303.6001633522727,321.46033343100294L304.1740767045454,164.96454605283566L304.7479900568182,261.35048482827614L305.3219034090909,333.59419189556183L305.8958167613636,84.09545958789936L308.1914701704545,220.31672130363563L308.7653835227273,309.75701164186233L309.9132102272727,295.88361696549373L311.6349502840909,186.10598847049445L312.2088636363637,255.30419049793872L312.7827769886364,192.62506404075924L313.3566903409091,198.7411672316585L314.5045170454545,267.4539036638907L315.65234375,183.19274167241403L316.8001704545455,391.1425557065631L317.37408380681813,152.5431112737649L317.9479971590909,282.1800076372096L318.5219105113636,228.28917924006842L319.6697372159091,190.2359199745596L320.24365056818186,204.56843110109008L321.39147727272723,71.1407421058516L322.5393039772727,290.27333879116253L323.1132173295455,195.20940941818697L323.6871306818182,163.38672411722158L324.26104403409096,197.23028147041123L324.8349573863636,182.98892529785692L325.4088707386364,209.37771425571216L325.9827840909091,185.56030852754455L329.4262642045455,164.71484630237237L330.0001775568182,206.39621346433591L331.1480042613636,189.48311860175613L331.7219176136364,159.82256568113604L334.0175710227272,160.97840107426904L335.7393110795455,135.33198039749465L336.3132244318182,174.2797544313626L338.0349644886363,225.08831256453465L338.6088778409091,235.22207904747614L339.1827911931818,200.94689704207624L339.75670454545457,87.58579246447093L340.3306178977273,160.4122035049982L340.90453125000005,167.2466792255183L341.4784446022727,150.59472798743275L342.05235795454547,232.7105571069781L342.6262713068182,129.8260555933701L343.2001846590909,226.4528724119626L343.77409801136366,220.03491064539844L344.9219247159091,163.87575585549112L345.4958380681818,244.08866971983014L346.6436647727273,127.41524860496999L347.7914914772727,228.92117195724333L348.9393181818182,124.58172117789955L349.5132315340909,257.20664067928914L351.2349715909091,269.3423382377389L351.8088849431818,142.81323451893073L352.38279829545456,176.61903680144485L352.9567116477273,194.14898829865385L354.6784517045454,179.36195163685076L355.2523650568182,112.99249884958311L356.40019176136366,42.472551495783534L356.97410511363637,241.1859726411663L358.69584517045456,169.96163243906753L359.2697585227273,191.23660051112134L361.5654119318182,369.06600427800123L362.1393252840909,-20.443221574472588L363.86106534090914,59.68178916732215L364.4349786931818,111.44320705427045L365.0088920454545,228.3719967745919L365.58280539772727,313.79573076332736L366.15671875,227.46244405948053L366.73063210227275,154.28779487096395L367.30454545454546,229.45059963745982L367.87845880681823,86.17193042834813L369.02628551136365,109.93655833437408L369.60019886363636,121.53147474717917L370.1741122159091,285.6624746715251L370.74802556818184,91.3770379678954L373.04367897727275,202.85633223175827L373.61759232954546,104.0948101147357L374.1915056818182,204.67336893449385L374.7654190340909,110.61289082459353L375.33933238636365,145.6514704893175L376.4871590909091,163.05564257825068L377.6349857954545,194.06615785712626L378.7828125,186.93088278125907L379.35672585227275,110.53689295693036L379.93063920454546,230.4289224380275L381.07846590909094,156.94886846892769L381.6523792613636,165.07280321311308L382.22629261363636,104.88637333681973L383.37411931818184,195.58841979736712L384.5219460227273,95.67082822781205L385.095859375,206.2906303301404L386.81759943181817,195.16322665795005L387.39151278409093,152.65484100810212L389.11325284090907,277.4371126322211L389.68716619318184,205.31345918209718L390.26107954545455,44.16165283152474L390.8349928977273,233.2995581390076L391.40890625,164.847994186464L391.9828196022727,122.99852389974397L392.55673295454545,177.9480827188433L393.70455965909093,225.85701151446872L394.27847301136364,409.2911466523102L394.85238636363636,139.33060032945198L395.42629971590907,229.9913901694596L396.57412642045455,203.90140338530514L398.2958664772727,179.20451111375164L398.86977982954545,205.17004436396897L400.59151988636364,217.71032429793797L402.31325994318183,236.97606630265577L402.88717329545455,128.29494545251904L403.46108664772726,183.93831740564292L405.18282670454545,234.76672169742974L406.3306534090909,337.51279324970733L406.90456676136364,394.8955512541838L407.4784801136364,264.50924852902966L408.05239346590906,188.88590456191812L408.6263068181818,426.0429679598515L409.20022017045454,117.61264163490645L409.77413352272725,194.19501051324033L410.92196022727273,203.22643618179217L411.4958735795455,132.24954835221783L412.06978693181816,330.4027769310247L412.6437002840909,155.89766150193657L413.21761363636364,183.56529098121487L413.79152698863635,141.86557834344055L414.9393536931818,398.53040462545124L418.9567471590909,204.63521568855595L420.6784872159091,209.88246046859913L421.25240056818177,220.7298754808529L422.40022727272725,128.29494545251904L422.974140625,83.74241856436304L423.54805397727273,159.00560048450586L424.1219673295455,229.1805556778241L424.6958806818182,147.22200500482373L425.26979403409086,167.15437287801237L425.84370738636363,274.17216392911945L426.41762073863634,222.4390614409762L426.9915340909091,222.92632740308542L428.1393607954546,7.541048345634948L428.71327414772725,162.96465468387603L430.43501420454544,148.71442961557992L431.58284090909086,194.09375807358074L432.73066761363634,257.66416119303483L433.3045809659091,227.06024944396282L433.8784943181818,169.5383842316125L437.3219744318182,216.62454191579667L437.8958877840909,308.35046592685035L438.4698011363636,304.37258472669606L440.7654545454546,203.81577575755117L441.3393678977273,232.3640277078375L442.4871946022727,155.84922773508L443.6350213068182,257.9504871319614L445.35676136363634,108.46510069581466L447.6524147727273,251.63706711885774L449.9480681818182,321.1327612238495L450.5219815340909,138.26499094642844L451.0958948863637,23.674943121686674L452.24372159090905,217.01257236641425L452.8176349431818,222.98730511731836L453.3915482954545,219.31150076616882L453.9654616477273,118.60517027646048L454.539375,90.18291744343307L455.68720170454543,288.57547941782275L456.8350284090909,111.6650272530527L457.4089417613636,280.639977065753L457.9828551136364,266.4847748674255L458.55676846590904,237.80892613621282L459.1306818181818,197.73305456602708L459.7045951704545,212.33125065338936L460.2785085227273,192.48773926500502L461.4263352272728,195.18170328793346L463.1480752840909,229.88731970804224L464.2959019886364,115.37767514158143L466.0176420454545,214.21843448240637L466.5915553977273,211.5876018529096L467.73938210227277,118.33543989104282L468.3132954545455,138.32578732164342L468.88720880681814,168.44927106468822L470.0350355113636,315.92716175790014L471.1828622159091,107.17169942835936L471.75677556818187,190.6357840742284L473.478515625,194.4989572170337L474.0524289772727,372.3397137297203L474.6263423295455,369.469017315579L475.20025568181813,107.3492686920088L477.4959090909091,171.396733179453L478.06982244318186,229.4194126956297L478.6437357954545,182.14858932595655L479.7915625,261.25776829272047L481.5133025568182,372.28882002583435L482.08721590909096,143.2070716095074L482.6611292613636,229.139053604765L483.2350426136364,220.22610613950343L483.8089559659091,262.8964348884601L484.3828693181818,119.89342566360934L486.6785227272727,102.78024628154378L487.8263494318182,214.4749275705796L488.40026278409096,83.006210184269L488.9741761363636,200.31632072128755L489.5480894886364,145.02871621595352L490.1220028409091,125.21304586232742L491.8437428977272,153.58225957580242L492.41765625,175.51179973188337L492.9915696022727,282.99050744431406L497.0089630681818,251.92876535171138L498.73070312500005,221.7299031261834L501.60026988636366,38.38926939835911L502.1741832386363,171.1244677469241L502.7480965909091,199.94051402217116L504.4698366477273,181.49568614422887L505.6176633522727,219.3817531553368L506.1915767045454,206.18508545479642L506.7654900568182,476.97702398376373L507.3394034090909,199.73403465831618L508.4872301136364,39.88127757663103L511.35679687500004,138.47020240166592L511.93071022727275,137.74882387680023L512.5046235795454,235.9330352882667L513.0785369318182,117.44283775920864L513.6524502840908,135.5577106113556L514.2263636363637,122.25690891887203L515.3741903409091,9.029000861521038L517.0959303977273,139.09429873901513L517.6698437499999,235.23269191945127L518.8176704545455,138.1282816922849L521.1133238636363,276.1169913688681L521.6872372159091,179.81723522163566L522.8350639204546,172.7277782134008L524.5568039772727,175.71044885360868L525.7046306818182,166.0323340163461L526.8524573863637,142.0579460776745L527.4263707386364,101.9474266665432L528.0002840909091,209.37771425571216L529.1481107954545,127.5983027231233L529.7220241477273,111.40854948159966L530.2959375,226.97782855028976L530.8698508522727,240.90485758416168L531.4437642045455,279.8359531267982L532.0176775568182,200.72087071617173L532.5915909090909,112.846248538892L533.7394176136364,203.35940647810455L534.313330965909,224.21954799701217L534.8872443181818,242.72612299868834L537.7568110795454,174.45176205543348L538.3307244318182,271.8073275528391L538.9046377840909,232.76309450758575L540.0524644886364,180.74754722059805L540.6263778409091,185.04242600037563L541.2002911931818,137.59717544369764L541.7742045454545,200.5138151931273L545.7915980113636,158.67131820764956L547.5133380681818,204.51118960854123L548.0872514204545,265.91895818995926L549.235078125,220.5786435599647L552.1046448863636,155.18822066935803L552.6785582386364,202.3541253766928L553.2524715909091,197.17448610913897L554.4002982954545,212.5566773163737L554.9742116477273,184.54327661986076L555.548125,205.03624510060618L556.1220383522727,170.00398706584204L556.6959517045455,142.43534548456137L557.2698650568182,135.0688523770212L557.8437784090909,183.36121384202193L558.9916051136364,145.17649404341506L559.5655184659091,218.22975551269363L560.7133451704545,268.18882146799706L561.2872585227273,247.92697122128078L561.861171875,111.67193809036877L562.4350852272727,211.3629469391056L563.0089985795455,222.01335929621536L563.5829119318182,189.60090663166358L565.3046519886364,304.7356541018668L566.4524786931818,268.39064411509156L567.0263920454546,193.23916826149562L568.17421875,193.74427537837434L569.3220454545454,282.1924474659732L570.469872159091,122.45112564336883L571.0437855113636,156.83547970375764L571.6176988636363,123.79990549818812L572.7655255681818,132.44310638761178L573.3394389204545,213.8242684390527L575.6350923295455,349.32847612312844L576.2090056818182,133.48010628542127L576.7829190340909,222.56080153340815L577.3568323863636,176.17736570878006L579.0785724431818,127.9280763373623L580.8003125,198.27402121370372L583.6698792613637,276.9964168070186L584.2437926136363,314.22631886713725L585.3916193181818,184.84623868444967L585.9655326704545,157.7356943121036L586.5394460227272,183.39670076616574L587.6872727272727,212.78227858049024L588.2611860795454,276.6052267445292L588.8350994318182,218.8803319535551L589.4090127840909,168.68532318017736L591.7046661931818,106.33981758878603L592.2785795454546,187.19140395458948L593.42640625,284.555590607917L594.0003196022727,242.48698606351118L594.5742329545454,594.8349927766188L595.7220596590909,187.89323227816286L596.2959730113637,188.87685286648062L597.4437997159091,193.1566179793599L598.0177130681818,327.68237866061145L599.1655397727272,159.29945417584807L602.0351065340909,272.7702407956508L602.6090198863636,615.7097552611574L604.3307599431819,54.5356498300579L605.4785866477273,306.8828719373132L606.0525,138.1054879669271L607.7742400568183,213.87350709833512L608.3481534090909,139.8877750353558L608.9220667613637,465.91230221494146L610.6438068181818,336.1757403184412L611.2177201704545,187.11950390352754L613.5133735795455,299.2839212689768L614.0872869318182,513.8227787351614L619.8264204545454,129.68586235572027L620.974247159091,157.59764689033045L621.5481605113636,212.10599832148554L622.1220738636364,225.56979190654553L622.6959872159091,356.72899597086774L623.2699005681818,220.66936848225546L623.8438139204545,158.35368192241825L624.991640625,173.35271757159072L626.1394673295455,154.48852791272594L627.8612073863636,272.48103817466324L629.009034090909,246.57946906577473L629.5829474431819,198.43276369464127L631.3046875,153.71841653799504L631.8786008522727,243.9685030513823L633.0264275568181,150.84055021710347L634.1742542613637,193.60644394818414L634.7481676136363,188.38013077871932L635.3220809659091,247.0867958455478L636.4699076704546,188.7864806476799L637.0438210227272,220.05503436506447L638.1916477272728,240.1169915334748L638.7655610795454,283.753236823202L639.9133877840909,174.16802133829103L641.0612144886363,278.7509500343057L641.635127840909,253.14346827181953L642.2090411931819,91.69413328757662L642.7829545454545,252.13084652649854L643.93078125,206.30982649717018L646.226434659091,163.97531882034872L646.8003480113637,193.5513164932097L647.3742613636364,272.79435877179566L647.9481747159091,378.5832394811819L648.5220880681819,260.852428364457L649.0960014204545,175.29602764264217L649.6699147727272,192.4602908046372L650.243828125,200.2881245570332L650.8177414772728,255.48592665668085L653.1133948863636,278.6894279750717L654.2612215909091,191.02707910388858L654.8351349431819,224.80182520727217L656.556875,211.04086979771745L658.852528409091,236.5818262458381L659.4264417613635,165.28113073502732L660.5742684659091,176.09949079900096L661.7220951704545,178.10484538973023L662.2960085227272,195.12629893247214L662.869921875,47.119081513024284L664.5916619318182,394.23618979358764L665.165575284091,204.93115370212928L665.7394886363636,185.66758933561655L666.3134019886363,101.08349912888613L666.8873153409091,125.93313383619399L667.4612286931819,213.42078757902235L668.0351420454544,177.03534601306887L669.18296875,114.6481729905162L669.7568821022727,168.90468297985777L671.478622159091,239.48179878411457L674.3481889204545,304.3457051339546L675.496015625,122.06278734168149L676.0699289772726,170.02939875829483L677.2177556818182,244.7559046552426L677.791669034091,291.15811090850957L678.3655823863636,259.9972686744017L680.0873224431818,109.67473360571269L681.2351491477273,236.39024643916582L681.8090625000001,197.19309076720248L682.3829758522727,113.41775236827905L683.5308025568182,208.00378655753238L684.6786292613635,250.31698376933377L685.2525426136364,209.57173323738252L685.8264559659091,247.78310209561056L686.9742826704545,261.4200623377932L687.5481960227273,182.71445182498303L688.6960227272726,266.720863638437L689.2699360795455,240.91565378491953L689.8438494318182,312.36959437612967L690.417762784091,173.2927331641907L690.9916761363636,159.0382405814656L691.5655894886364,253.9900038004557L694.4351562500001,107.91007778577362L695.5829829545454,232.45849939785046L696.7308096590908,153.51019662327886L697.3047230113636,122.96968237594393L697.8786363636364,162.5844854072196L700.748203125,59.50201920301674L703.0438565340909,174.19379894165615L704.1916832386364,173.40415137029166L704.7655965909091,109.24801944069549L708.2090767045455,112.00500990990581L708.7829900568182,110.14341805594023L709.3569034090908,421.2866530543593L709.9308167613636,50.792505340564446L710.5047301136364,166.25805935174404L712.8003835227273,150.16704252462836L713.9482102272727,115.04778479158102L714.5221235795455,151.96917451436298L716.2438636363636,205.11268453064778L717.9656036931818,139.27722807834178L718.5395170454545,324.2668245692708L720.2612571022727,179.96622840227036L721.4090838068182,182.9534880168586L721.9829971590908,86.2227695780311L722.5569105113636,92.56953991132379L723.7047372159092,218.15978039309027L725.4264772727273,184.1427994292859L726.0003906249999,268.4500569963433L726.5743039772727,206.7612207950023L727.7221306818183,175.27015231169165L728.2960440340909,161.47986056392494L728.8699573863636,63.47115932952956L729.4438707386364,250.23886050332302L730.017784090909,203.10300839545513L730.5916974431818,131.66220741027476L732.3134375,169.4538164071471L732.8873508522727,228.30988141622575L734.0351775568182,289.5061834037024L734.6090909090909,163.80940603897477L735.1830042613636,124.5164695019459L736.9047443181818,206.10836411027697L737.4786576704546,328.32361253942327L738.0525710227273,155.76854191891192L740.3482244318182,157.35418076996584L740.9221377840909,270.62008631450243L741.4960511363637,182.85608938467126L744.3656178977274,224.3114142769728L745.5134446022727,359.8336866203253L746.6612713068181,316.1089977967085L747.2351846590909,137.43046956475925L747.8090980113636,217.33134408111528L749.5308380681818,82.95592932068598L750.1047514204546,197.4908604305974L750.6786647727273,185.14951619772563L751.252578125,187.1464750546653L751.8264914772727,145.98673678366666L752.4004048295456,123.60475319234988L752.9743181818181,342.5399686935896L753.5482315340909,260.667313878015L754.6960582386364,71.53926426774689L756.4177982954545,152.12051681170607L757.565625,276.26337316097306L758.1395383522728,312.4110244798605L759.8612784090909,205.13180322002972L760.4351917613636,248.61417904724925L761.583018465909,336.0258862645689L762.1569318181819,283.8283478084772L762.7308451704546,192.432844930667L763.3047585227272,170.9119202204764L763.878671875,147.92012848006036L765.0264985795455,233.8264746543713L765.6004119318181,236.14560649333936L766.1743252840909,218.47978693384653L766.7482386363637,208.3031687333929L767.8960653409091,111.14539883158547L769.6178053977272,227.92719074628974L771.3395454545455,181.09937447305347L771.9134588068181,202.6098647990719L773.0612855113636,240.30029101410867L773.6351988636363,240.1062248945275L774.209112215909,230.4497772616528L774.7830255681819,208.68026331555743L775.3569389204546,-37.703670285306906L775.9308522727272,405.7486705953437L777.0786789772727,194.10297335460675L779.3743323863637,138.3029781357242L779.9482457386363,348.3422366559945L781.0960724431818,205.98370929831395L782.2438991477272,256.4191117672133L783.3917258522728,107.36976191456864L783.9656392045454,292.80655857388984L786.835205965909,169.67375594825072L787.4091193181819,235.69940878270967L787.9830326704546,54.296375069790614L789.130859375,164.3074677868584L789.7047727272727,229.74167358386916L790.2786860795454,221.20419805204642L792.5743394886363,156.49555872896772L793.7221661931818,236.98674327725607L794.8699928977272,236.19876720497209L796.0178196022728,107.86901668932072L796.5917329545454,164.66492409633673L797.1656463068182,199.85602037862185L798.8873863636363,175.96110019395263L799.461299715909,200.57967645253325L800.0352130681819,214.3269313663596L800.6091264204545,336.5507041543713L801.1830397727273,263.0829719534106L801.756953125,239.30977596791712L803.3639105113637,128.27290836795123L803.4786931818181,309.5244033582423L805.2004332386364,175.3995725358818L805.7743465909091,239.96614069301353L806.3482599431819,498.09190778180437L807.4960866477272,207.39629786745135L808.07,151.67467279618904L809.7917400568182,171.6522298710146L810.3656534090909,120.13604106015214L810.9395667613636,100.89632387937743L812.0873934659091,237.09338196768746L812.6613068181819,214.62299901017767L814.9569602272728,179.8522929589252L815.5308735795454,336.64076233571166L816.678700284091,131.29107520634759L818.4004403409091,214.30719951597408L818.9743536931819,183.65405742694028L820.69609375,171.95913016110117L821.2700071022728,66.47798515445557L824.1395738636363,194.8032434186694L825.2874005681819,139.86486142208284L825.8613139204544,241.3158076314122L826.4352272727273,271.99963277237583L827.009140625,149.89807113023772L827.5830539772727,294.4903716630392L828.1569673295454,222.65214605618786L828.7308806818182,174.03054516869017L830.4526207386364,178.09612260080004L831.0265340909091,154.11124120206236L831.6004474431819,240.34341438168204L832.1743607954545,148.19513152771177L833.3221875,255.41777923485395L834.4700142045455,183.35235335970094L835.0439275568182,347.29705776484843L836.7656676136363,244.97501577409068L837.3395809659091,289.1360868188733L839.0613210227273,218.33973335841483L840.7830610795454,229.77287025157966L841.3569744318182,190.90873474819855L843.0787144886364,212.5566773163737L845.94828125,244.5041395980818L846.5221946022726,159.69171432438L847.0961079545455,-1.3716129346815749L848.243934659091,359.67115659512183L849.3917613636364,247.60610758952959L851.1135014204546,69.57019741059314L852.8352414772727,203.24543145675236L853.9830681818182,285.5868892861351L855.7048082386364,212.88041247480803L857.4265482954545,129.00796253868577L858.574375,210.4562386090212L859.1482883522727,147.6140154106161L860.2961150568182,140.56086911168399L860.8700284090909,156.04297263588236L862.0178551136364,175.77093328702276L863.1656818181817,458.7245759847182L865.4613352272727,129.85558411667265L867.1830752840908,359.86620738755244L867.7569886363636,6.39382959993759L868.3309019886364,131.0760484372671L871.2004687499999,170.52124241327894L872.3482954545455,159.01376989146752L872.9222088068183,191.70172599194126L873.4961221590909,170.80145110063944L874.0700355113636,391.2874068971149L874.6439488636364,221.5275928558575L875.7917755681818,200.13775376019674L879.8091690340908,263.9940513305859L883.2526491477273,198.30202306927504L884.9743892045454,53.386656350109625L885.5483025568183,210.2518888072362L886.6961292613636,255.27013604727608L887.2700426136364,216.714043358049L888.9917826704545,174.51198565233386L889.5656960227274,262.75661738837016L890.7135227272727,266.9571157476536L891.2874360795455,212.39004993318088L892.4352627840909,124.74124841434845L893.0091761363636,116.15128189361585L894.1570028409091,448.7609660460928L896.4526562499999,234.2486801377787L897.0265696022727,89.52023034756259L897.6004829545454,180.98497403220583L898.1743963068182,191.154594034765L898.7483096590909,160.69106611473063L901.0439630681818,202.59091092589483L901.6178764204545,240.92647615388267L902.765703125,328.33820522267956L903.3396164772727,253.9900038004557L905.6352698863636,198.80662884025867L906.2091832386365,293.8804920453645L908.5048366477273,179.54573291235255L909.07875,105.30674072053195L909.6526633522727,123.95897050777936L911.3744034090909,210.70943860168305L911.9483167613637,160.0926836467966L913.096143465909,286.73564154108317L914.8178835227272,165.63144720416767L915.391796875,187.39818335704857L916.5396235795455,255.44050229880105L917.1135369318181,200.68320922736802L918.8352769886365,311.47317821714887L919.9831036931819,166.7268124923294L924.5744105113637,171.32864803118522L926.2961505681818,457.7901036452525L926.8700639204546,315.3963421699593L928.017890625,237.2107449028928L929.1657173295455,288.28286143301847L929.7396306818181,185.3191243069431L934.9048508522727,128.07477203601596L935.4787642045455,194.13057705998452L936.0526775568181,201.9567692984104L936.626590909091,254.28406914544212L937.7744176136363,231.5151834676984L938.9222443181818,183.62742888593584L939.4961576704546,141.2124840497269L940.0700710227272,11.363713942896414L940.643984375,143.52407811298266L942.3657244318182,374.4174435449379L943.5135511363637,243.9248396706744L944.0874644886363,378.86075825139613L944.661377840909,182.8206682602995L945.2352911931819,147.46497733492401L945.8092045454546,566.035750748168L946.3831178977273,403.3981724876053L946.95703125,240.3757932468834L948.1048579545454,170.2921700648344L948.6787713068181,171.16699181457545L949.252684659091,229.44019536193943L949.8265980113637,164.54849203717094L950.4005113636363,229.08716577159865L950.9744247159091,298.9011983230492L951.5483380681818,92.27744527317883L952.1222514204546,230.87756830109063L952.6961647727272,58.784019237975144L953.270078125,239.18083189820445L953.8439914772728,282.79080967472913L957.287471590909,183.5830463389731L959.0092116477273,176.5670528746845L959.583125,36.754669011833236L960.7309517045454,225.08831256453465L961.3048650568181,116.36966111004735L963.6005184659091,220.37715508245208L964.1744318181819,141.58111218045292L964.7483451704545,132.98726619448547L965.3222585227272,125.14768725023139L967.0439985795454,124.67596099490122L967.6179119318182,329.88892816963687L968.1918252840909,209.48442258091802L968.7657386363636,139.60523298138094L969.3396519886363,88.62187747307435L970.4874786931819,31.90524733487388L971.0613920454545,225.78518005597587L973.3570454545454,226.96751222684924L973.9309588068181,239.40652790289292L974.504872159091,130.81673546216314L975.6526988636364,211.41177123866458L977.3744389204545,178.93357907382907L979.6700923295455,221.74001147286367L980.2440056818182,222.45932776904016L980.817919034091,198.5355360214658L981.9657457386363,154.88239326450466L983.1135724431819,147.88086619164682L983.6874857954544,174.57222170365145L987.7048792613635,194.54503476567484L989.4266193181819,207.67576829767364L990.5744460227273,217.6205162444411L991.7222727272726,139.07905829825185L993.444012784091,204.16804482455044L994.0179261363636,129.85558411667265L995.7396661931818,119.4443551160355L996.3135795454546,204.79746410561714L997.4614062500001,255.14526770499359L998.0353196022727,197.2767931645998L1000.3309730113635,128.87552879584925L1001.4787997159091,194.5819108445604L1002.0527130681818,95.70366280806881L1003.774453125,202.37306384737792L1004.3483664772726,215.3744480665328L1004.9222798295455,259.2712073931699L1006.070106534091,333.83199382894077L1007.2179332386364,345.4808126244588L1008.3657599431817,164.88961166401876L1008.9396732954546,220.05503436506447L1010.0875000000001,222.52020778538315L1011.2353267045454,107.4312828234486L1011.8092400568182,292.13576170506315L1012.3831534090908,129.72274691981104L1013.5309801136364,140.33122960464115L1014.6788068181818,163.49439632666767L1015.2527201704545,189.4740699238829L1015.8266335227273,205.08402024158715L1016.400546875,474.46021045987965L1016.9744602272727,324.09422417105674L1018.1222869318182,111.40854948159966L1019.2701136363636,209.30983350948426L1019.8440269886364,136.96871919145892L1020.4179403409091,217.9599338547973L1020.9918536931817,174.64108988969608L1021.5657670454545,179.52822195542257L1023.2875071022727,241.80323724444295L1026.1570738636365,207.73363515235388L1029.026640625,157.16766048834515L1029.6005539772727,199.57455924022406L1030.1744673295455,405.0073619545362L1032.4701207386363,127.78879343361984L1033.0440340909092,354.21462908353976L1033.6179474431817,264.77892117264696L1037.635340909091,348.3422366559945L1038.2092542613636,234.26981026323412L1039.357080965909,130.6982667133613L1039.9309943181818,147.55910367880185L1040.5049076704545,187.61410046172432L1041.0788210227274,232.00741370392024L1041.652734375,170.27522687878297L1043.3744744318183,267.1581146511563L1044.5223011363637,136.67387809553114L1045.6701278409091,309.11434968461094L1046.8179545454545,257.2409495585769L1047.3918678977273,212.96877062106563L1049.1136079545454,192.79908282061635L1049.6875213068183,185.9090623901133L1051.983174715909,244.13238372152105L1052.5570880681819,298.032093477193L1053.1310014204546,240.46209445873603L1053.7049147727273,214.3269313663596L1054.8527414772727,471.4875175149018L1055.4266548295454,394.0533117340234L1058.296221590909,197.79828997428456L1058.8701349431817,174.29695267343257L1060.0179616477274,186.51813292108477L1061.1657883522728,185.10487986012367L1061.7397017045455,216.92297916011054L1062.3136150568182,148.21085651015844L1062.887528409091,258.83411955967335L1064.0353551136363,209.44561082515264L1065.1831818181818,461.9844335620726L1065.7570951704545,291.80094169598163L1067.4788352272728,123.40253653439252L1068.626661931818,410.3139893125846L1069.7744886363637,348.54548525797145L1071.4962286931818,243.39024040722242L1072.0701420454545,198.79728583737685L1074.3657954545456,129.59735493747624L1076.0875355113637,136.53035068649393L1077.2353622159092,367.3093865776101L1077.8092755681819,191.33686442874173L1078.3831889204546,361.4312168978316L1078.9571022727273,255.0771999293141L1080.6788423295454,119.91482077558275L1081.2527556818181,582.0426625580309L1081.8266690340909,163.6518684794057L1082.4005823863636,187.5331074266166L1082.9744957386365,63.45353313580278L1083.548409090909,156.9164616568399L1085.2701491477271,249.22516024274813L1085.8440625,198.99375267767925L1086.4179758522728,162.79929672378302L1087.5658025568182,269.7835452977319L1088.139715909091,79.18519407641102L1088.7136292613636,365.26500692256656L1089.2875426136363,141.81173960373536L1089.861455965909,366.04448967611705L1090.4353693181818,263.1412840793825L1091.5831960227272,268.43816212232497L1093.3049360795455,213.64705938203858L1094.452762784091,113.4247381834139L1095.0266761363637,254.34064592323264L1095.6005894886364,150.89608413565924L1096.174502840909,132.8828303976117L1098.47015625,259.08709479122933L1099.6179829545454,85.82904345959871L1100.191896306818,337.0463780492673L1101.9136363636362,192.03050787762717L1102.4875497159092,465.91230221494146L1103.0614630681819,220.31672130363563L1103.6353764204546,219.56248684136168L1106.5049431818181,174.11645248808978L1111.09625,267.9989867581484L1111.6701633522728,187.27230201610135L1112.2440767045455,44.16165283152474L1113.9658167613636,191.48275856252133L1115.113643465909,91.20891017575654L1115.6875568181817,171.56704617236855L1116.2614701704545,215.7608156211206L1116.8353835227272,292.85823185311574L1117.409296875,183.01549552727994L1117.9832102272728,164.1081290001212L1118.5571235795453,96.60440922998765L1119.704950284091,444.88207727072574L1120.2788636363637,173.0101187149008L1122.0006036931818,193.2667121006729L1124.8701704545454,216.7836719740769L1125.444083806818,253.54951551228797L1126.5919105113635,331.9793364826971L1127.1658238636364,309.6201645818219L1128.3136505681819,193.1566179793599L1128.8875639204546,184.1427994292859L1130.035390625,218.57988349455428L1132.3310440340908,145.3788388849198L1132.9049573863635,251.60343870148705L1133.4788707386363,221.5275928558575L1135.2006107954544,224.58716272817932L1135.7745241477273,218.12977918138287L1137.4962642045455,241.56483067183242L1138.0701775568182,177.38271510552715L1138.644090909091,367.65986363004174L1139.2180042613636,331.61022545412936L1140.365830965909,104.9405864653738L1140.939744318182,199.50892483611418L1142.0875710227272,199.8466436547869L1143.2353977272726,179.74715328951055L1144.3832244318182,266.6736249430622L1144.957137784091,146.3536386656895L1146.678877840909,243.33575095374394L1147.2527911931818,208.3031687333929L1147.7119218750001,237.6913219760024L1147.8267045454545,196.26446526346737L1148.4006178977272,253.79791348972614L1148.97453125,316.725209383998" style="fill: none;" fill="none"></path></g></g></g></g></g></g><g transform="translate(20, 377)" clip-path="url(#clip_1)"><clipPath id="clip_1"><rect width="1262" height="23"></rect></clipPath><g><g><line x1="0" y1="0" x2="0" y2="5" style="visibility: inherit;" fill="rgb(0, 0, 0)" stroke="rgb(204, 204, 204)" stroke-width="1px"></line><line x1="114.78267045454545" y1="0" x2="114.78267045454545" y2="5" style="visibility: inherit;" fill="rgb(0, 0, 0)" stroke="rgb(204, 204, 204)" stroke-width="1px"></line><line x1="229.5653409090909" y1="0" x2="229.5653409090909" y2="5" style="visibility: inherit;" fill="rgb(0, 0, 0)" stroke="rgb(204, 204, 204)" stroke-width="1px"></line><line x1="344.3480113636363" y1="0" x2="344.3480113636363" y2="5" style="visibility: inherit;" fill="rgb(0, 0, 0)" stroke="rgb(204, 204, 204)" stroke-width="1px"></line><line x1="459.1306818181818" y1="0" x2="459.1306818181818" y2="5" style="visibility: inherit;" fill="rgb(0, 0, 0)" stroke="rgb(204, 204, 204)" stroke-width="1px"></line><line x1="573.9133522727273" y1="0" x2="573.9133522727273" y2="5" style="visibility: inherit;" fill="rgb(0, 0, 0)" stroke="rgb(204, 204, 204)" stroke-width="1px"></line><line x1="688.6960227272726" y1="0" x2="688.6960227272726" y2="5" style="visibility: inherit;" fill="rgb(0, 0, 0)" stroke="rgb(204, 204, 204)" stroke-width="1px"></line><line x1="803.4786931818181" y1="0" x2="803.4786931818181" y2="5" style="visibility: inherit;" fill="rgb(0, 0, 0)" stroke="rgb(204, 204, 204)" stroke-width="1px"></line><line x1="918.2613636363636" y1="0" x2="918.2613636363636" y2="5" style="visibility: inherit;" fill="rgb(0, 0, 0)" stroke="rgb(204, 204, 204)" stroke-width="1px"></line><line x1="1033.0440340909092" y1="0" x2="1033.0440340909092" y2="5" style="visibility: inherit;" fill="rgb(0, 0, 0)" stroke="rgb(204, 204, 204)" stroke-width="1px"></line><line x1="1147.8267045454545" y1="0" x2="1147.8267045454545" y2="5" style="visibility: inherit;" fill="rgb(0, 0, 0)" stroke="rgb(204, 204, 204)" stroke-width="1px"></line><line x1="1262.609375" y1="0" x2="1262.609375" y2="5" style="visibility: inherit;" fill="rgb(0, 0, 0)" stroke="rgb(204, 204, 204)" stroke-width="1px"></line></g><g transform="translate(0, 8)"><text x="0" y="0" dx="0em" dy="0.95em" style="text-anchor: middle; visibility: hidden; font-family: Roboto, sans-serif; font-size: 12px; font-weight: 200;" fill="rgb(255, 255, 255)" stroke="none" stroke-width="1px">-1k</text><text x="114.78267045454545" y="0" dx="0em" dy="0.95em" style="text-anchor: middle; visibility: inherit; font-family: Roboto, sans-serif; font-size: 12px; font-weight: 200;" fill="rgb(255, 255, 255)" stroke="none" stroke-width="1px">0</text><text x="229.5653409090909" y="0" dx="0em" dy="0.95em" style="text-anchor: middle; visibility: inherit; font-family: Roboto, sans-serif; font-size: 12px; font-weight: 200;" fill="rgb(255, 255, 255)" stroke="none" stroke-width="1px">1k</text><text x="344.3480113636363" y="0" dx="0em" dy="0.95em" style="text-anchor: middle; visibility: inherit; font-family: Roboto, sans-serif; font-size: 12px; font-weight: 200;" fill="rgb(255, 255, 255)" stroke="none" stroke-width="1px">2k</text><text x="459.1306818181818" y="0" dx="0em" dy="0.95em" style="text-anchor: middle; visibility: inherit; font-family: Roboto, sans-serif; font-size: 12px; font-weight: 200;" fill="rgb(255, 255, 255)" stroke="none" stroke-width="1px">3k</text><text x="573.9133522727273" y="0" dx="0em" dy="0.95em" style="text-anchor: middle; visibility: inherit; font-family: Roboto, sans-serif; font-size: 12px; font-weight: 200;" fill="rgb(255, 255, 255)" stroke="none" stroke-width="1px">4k</text><text x="688.6960227272726" y="0" dx="0em" dy="0.95em" style="text-anchor: middle; visibility: inherit; font-family: Roboto, sans-serif; font-size: 12px; font-weight: 200;" fill="rgb(255, 255, 255)" stroke="none" stroke-width="1px">5k</text><text x="803.4786931818181" y="0" dx="0em" dy="0.95em" style="text-anchor: middle; visibility: inherit; font-family: Roboto, sans-serif; font-size: 12px; font-weight: 200;" fill="rgb(255, 255, 255)" stroke="none" stroke-width="1px">6k</text><text x="918.2613636363636" y="0" dx="0em" dy="0.95em" style="text-anchor: middle; visibility: inherit; font-family: Roboto, sans-serif; font-size: 12px; font-weight: 200;" fill="rgb(255, 255, 255)" stroke="none" stroke-width="1px">7k</text><text x="1033.0440340909092" y="0" dx="0em" dy="0.95em" style="text-anchor: middle; visibility: inherit; font-family: Roboto, sans-serif; font-size: 12px; font-weight: 200;" fill="rgb(255, 255, 255)" stroke="none" stroke-width="1px">8k</text><text x="1147.8267045454545" y="0" dx="0em" dy="0.95em" style="text-anchor: middle; visibility: inherit; font-family: Roboto, sans-serif; font-size: 12px; font-weight: 200;" fill="rgb(255, 255, 255)" stroke="none" stroke-width="1px">9k</text><text x="1262.609375" y="0" dx="0em" dy="0.95em" style="text-anchor: middle; visibility: hidden; font-family: Roboto, sans-serif; font-size: 12px; font-weight: 200;" fill="rgb(255, 255, 255)" stroke="none" stroke-width="1px">10k</text></g><line x1="0" y1="0" x2="1262.609375" y2="0" fill="rgb(0, 0, 0)" stroke="rgb(204, 204, 204)" stroke-width="1px"></line></g></g></g></g></svg>