<svg viewBox="0 0 1283 400" xmlns="http://www.w3.org/2000/svg"><g><g><g><g><g><line x1="30.78125" y1="346.1689611599654" x2="25.78125" y2="346.1689611599654" style="visibility: inherit;" fill="rgb(0, 0, 0)" stroke="rgb(204, 204, 204)" stroke-width="1px"></line><line x1="30.78125" y1="307.66595939446375" x2="25.78125" y2="307.66595939446375" style="visibility: inherit;" fill="rgb(0, 0, 0)" stroke="rgb(204, 204, 204)" stroke-width="1px"></line><line x1="30.78125" y1="280.3476448909154" x2="25.78125" y2="280.3476448909154" style="visibility: inherit;" fill="rgb(0, 0, 0)" stroke="rgb(204, 204, 204)" stroke-width="1px"></line><line x1="30.78125" y1="259.1579139414415" x2="25.78125" y2="259.1579139414415" style="visibility: inherit;" fill="rgb(0, 0, 0)" stroke="rgb(204, 204, 204)" stroke-width="1px"></line><line x1="30.78125" y1="241.8446431254137" x2="25.78125" y2="241.8446431254137" style="visibility: inherit;" fill="rgb(0, 0, 0)" stroke="rgb(204, 204, 204)" stroke-width="1px"></line><line x1="30.78125" y1="227.2064812247875" x2="25.78125" y2="227.2064812247875" style="visibility: inherit;" fill="rgb(0, 0, 0)" stroke="rgb(204, 204, 204)" stroke-width="1px"></line><line x1="30.78125" y1="214.52632862186528" x2="25.78125" y2="214.52632862186528" style="visibility: inherit;" fill="rgb(0, 0, 0)" stroke="rgb(204, 204, 204)" stroke-width="1px"></line><line x1="30.78125" y1="203.34164135991205" x2="25.78125" y2="203.34164135991205" style="visibility: inherit;" fill="rgb(0, 0, 0)" stroke="rgb(204, 204, 204)" stroke-width="1px"></line><line x1="30.78125" y1="193.3365976723914" x2="25.78125" y2="193.3365976723914" style="visibility: inherit;" fill="rgb(0, 0, 0)" stroke="rgb(204, 204, 204)" stroke-width="1px"></line><line x1="30.78125" y1="127.51528140334133" x2="25.78125" y2="127.51528140334133" style="visibility: inherit;" fill="rgb(0, 0, 0)" stroke="rgb(204, 204, 204)" stroke-width="1px"></line><line x1="30.78125" y1="89.01227963783968" x2="25.78125" y2="89.01227963783968" style="visibility: inherit;" fill="rgb(0, 0, 0)" stroke="rgb(204, 204, 204)" stroke-width="1px"></line><line x1="30.78125" y1="61.69396513429126" x2="25.78125" y2="61.69396513429126" style="visibility: inherit;" fill="rgb(0, 0, 0)" stroke="rgb(204, 204, 204)" stroke-width="1px"></line><line x1="30.78125" y1="40.50423418481743" x2="25.78125" y2="40.50423418481743" style="visibility: inherit;" fill="rgb(0, 0, 0)" stroke="rgb(204, 204, 204)" stroke-width="1px"></line><line x1="30.78125" y1="23.190963368789653" x2="25.78125" y2="23.190963368789653" style="visibility: inherit;" fill="rgb(0, 0, 0)" stroke="rgb(204, 204, 204)" stroke-width="1px"></line><line x1="30.78125" y1="8.552801468163413" x2="25.78125" y2="8.552801468163413" style="visibility: inherit;" fill="rgb(0, 0, 0)" stroke="rgb(204, 204, 204)" stroke-width="1px"></line></g><g transform="translate(20.78125, 0)"><text x="0" y="346.1689611599654" dx="0em" dy="0.3em" style="text-anchor: end; visibility: inherit; font-family: Roboto, sans-serif; font-size: 12px; font-weight: 200;" fill="rgb(255, 255, 255)" stroke="none" stroke-width="1px">2</text><text x="0" y="307.66595939446375" dx="0em" dy="0.3em" style="text-anchor: end; visibility: hidden; font-family: Roboto, sans-serif; font-size: 12px; font-weight: 200;" fill="rgb(255, 255, 255)" stroke="none" stroke-width="1px">3</text><text x="0" y="280.3476448909154" dx="0em" dy="0.3em" style="text-anchor: end; visibility: hidden; font-family: Roboto, sans-serif; font-size: 12px; font-weight: 200;" fill="rgb(255, 255, 255)" stroke="none" stroke-width="1px">4</text><text x="0" y="259.1579139414415" dx="0em" dy="0.3em" style="text-anchor: end; visibility: inherit; font-family: Roboto, sans-serif; font-size: 12px; font-weight: 200;" fill="rgb(255, 255, 255)" stroke="none" stroke-width="1px">5</text><text x="0" y="241.8446431254137" dx="0em" dy="0.3em" style="text-anchor: end; visibility: hidden; font-family: Roboto, sans-serif; font-size: 12px; font-weight: 200;" fill="rgb(255, 255, 255)" stroke="none" stroke-width="1px">6</text><text x="0" y="227.2064812247875" dx="0em" dy="0.3em" style="text-anchor: end; visibility: hidden; font-family: Roboto, sans-serif; font-size: 12px; font-weight: 200;" fill="rgb(255, 255, 255)" stroke="none" stroke-width="1px">7</text><text x="0" y="214.52632862186528" dx="0em" dy="0.3em" style="text-anchor: end; visibility: inherit; font-family: Roboto, sans-serif; font-size: 12px; font-weight: 200;" fill="rgb(255, 255, 255)" stroke="none" stroke-width="1px">8</text><text x="0" y="203.34164135991205" dx="0em" dy="0.3em" style="text-anchor: end; visibility: hidden; font-family: Roboto, sans-serif; font-size: 12px; font-weight: 200;" fill="rgb(255, 255, 255)" stroke="none" stroke-width="1px">9</text><text x="0" y="193.3365976723914" dx="0em" dy="0.3em" style="text-anchor: end; visibility: hidden; font-family: Roboto, sans-serif; font-size: 12px; font-weight: 200;" fill="rgb(255, 255, 255)" stroke="none" stroke-width="1px">10</text><text x="0" y="127.51528140334133" dx="0em" dy="0.3em" style="text-anchor: end; visibility: inherit; font-family: Roboto, sans-serif; font-size: 12px; font-weight: 200;" fill="rgb(255, 255, 255)" stroke="none" stroke-width="1px">20</text><text x="0" y="89.01227963783968" dx="0em" dy="0.3em" style="text-anchor: end; visibility: hidden; font-family: Roboto, sans-serif; font-size: 12px; font-weight: 200;" fill="rgb(255, 255, 255)" stroke="none" stroke-width="1px">30</text><text x="0" y="61.69396513429126" dx="0em" dy="0.3em" style="text-anchor: end; visibility: hidden; font-family: Roboto, sans-serif; font-size: 12px; font-weight: 200;" fill="rgb(255, 255, 255)" stroke="none" stroke-width="1px">40</text><text x="0" y="40.50423418481743" dx="0em" dy="0.3em" style="text-anchor: end; visibility: inherit; font-family: Roboto, sans-serif; font-size: 12px; font-weight: 200;" fill="rgb(255, 255, 255)" stroke="none" stroke-width="1px">50</text><text x="0" y="23.190963368789653" dx="0em" dy="0.3em" style="text-anchor: end; visibility: hidden; font-family: Roboto, sans-serif; font-size: 12px; font-weight: 200;" fill="rgb(255, 255, 255)" stroke="none" stroke-width="1px">60</text><text x="0" y="8.552801468163413" dx="0em" dy="0.3em" style="text-anchor: end; visibility: hidden; font-family: Roboto, sans-serif; font-size: 12px; font-weight: 200;" fill="rgb(255, 255, 255)" stroke="none" stroke-width="1px">70</text></g><line x1="30.78125" y1="0" x2="30.78125" y2="377" fill="rgb(0, 0, 0)" stroke="rgb(204, 204, 204)" stroke-width="1px"></line></g></g><g transform="translate(30, 0)" clip-path="url(#clip_0)"><clipPath id="clip_0"><rect width="1252" height="377"></rect></clipPath><g><g><g><line x1="0" y1="0" x2="0" y2="377" fill="rgb(0, 0, 0)" stroke="rgb(189, 189, 189)" stroke-width="1px" opacity="0.25"></line><line x1="113.83806818181819" y1="0" x2="113.83806818181819" y2="377" fill="rgb(0, 0, 0)" stroke="rgb(189, 189, 189)" stroke-width="1px" opacity="0.25"></line><line x1="227.67613636363637" y1="0" x2="227.67613636363637" y2="377" fill="rgb(0, 0, 0)" stroke="rgb(189, 189, 189)" stroke-width="1px" opacity="0.25"></line><line x1="341.5142045454545" y1="0" x2="341.5142045454545" y2="377" fill="rgb(0, 0, 0)" stroke="rgb(189, 189, 189)" stroke-width="1px" opacity="0.25"></line><line x1="455.35227272727275" y1="0" x2="455.35227272727275" y2="377" fill="rgb(0, 0, 0)" stroke="rgb(189, 189, 189)" stroke-width="1px" opacity="0.25"></line><line x1="569.1903409090909" y1="0" x2="569.1903409090909" y2="377" fill="rgb(0, 0, 0)" stroke="rgb(189, 189, 189)" stroke-width="1px" opacity="0.25"></line><line x1="683.028409090909" y1="0" x2="683.028409090909" y2="377" fill="rgb(0, 0, 0)" stroke="rgb(189, 189, 189)" stroke-width="1px" opacity="0.25"></line><line x1="796.8664772727273" y1="0" x2="796.8664772727273" y2="377" fill="rgb(0, 0, 0)" stroke="rgb(189, 189, 189)" stroke-width="1px" opacity="0.25"></line><line x1="910.7045454545455" y1="0" x2="910.7045454545455" y2="377" fill="rgb(0, 0, 0)" stroke="rgb(189, 189, 189)" stroke-width="1px" opacity="0.25"></line><line x1="1024.5426136363637" y1="0" x2="1024.5426136363637" y2="377" fill="rgb(0, 0, 0)" stroke="rgb(189, 189, 189)" stroke-width="1px" opacity="0.25"></line><line x1="1138.3806818181818" y1="0" x2="1138.3806818181818" y2="377" fill="rgb(0, 0, 0)" stroke="rgb(189, 189, 189)" stroke-width="1px" opacity="0.25"></line><line x1="1252.21875" y1="0" x2="1252.21875" y2="377" fill="rgb(0, 0, 0)" stroke="rgb(189, 189, 189)" stroke-width="1px" opacity="0.25"></line></g><g><line x1="0" y1="346.1689611599654" x2="1252.21875" y2="346.1689611599654" fill="rgb(0, 0, 0)" stroke="rgb(189, 189, 189)" stroke-width="1px" opacity="0.25"></line><line x1="0" y1="307.66595939446375" x2="1252.21875" y2="307.66595939446375" fill="rgb(0, 0, 0)" stroke="rgb(189, 189, 189)" stroke-width="1px" opacity="0.25"></line><line x1="0" y1="280.3476448909154" x2="1252.21875" y2="280.3476448909154" fill="rgb(0, 0, 0)" stroke="rgb(189, 189, 189)" stroke-width="1px" opacity="0.25"></line><line x1="0" y1="259.1579139414415" x2="1252.21875" y2="259.1579139414415" fill="rgb(0, 0, 0)" stroke="rgb(189, 189, 189)" stroke-width="1px" opacity="0.25"></line><line x1="0" y1="241.8446431254137" x2="1252.21875" y2="241.8446431254137" fill="rgb(0, 0, 0)" stroke="rgb(189, 189, 189)" stroke-width="1px" opacity="0.25"></line><line x1="0" y1="227.2064812247875" x2="1252.21875" y2="227.2064812247875" fill="rgb(0, 0, 0)" stroke="rgb(189, 189, 189)" stroke-width="1px" opacity="0.25"></line><line x1="0" y1="214.52632862186528" x2="1252.21875" y2="214.52632862186528" fill="rgb(0, 0, 0)" stroke="rgb(189, 189, 189)" stroke-width="1px" opacity="0.25"></line><line x1="0" y1="203.34164135991205" x2="1252.21875" y2="203.34164135991205" fill="rgb(0, 0, 0)" stroke="rgb(189, 189, 189)" stroke-width="1px" opacity="0.25"></line><line x1="0" y1="193.3365976723914" x2="1252.21875" y2="193.3365976723914" fill="rgb(0, 0, 0)" stroke="rgb(189, 189, 189)" stroke-width="1px" opacity="0.25"></line><line x1="0" y1="127.51528140334133" x2="1252.21875" y2="127.51528140334133" fill="rgb(0, 0, 0)" stroke="rgb(189, 189, 189)" stroke-width="1px" opacity="0.25"></line><line x1="0" y1="89.01227963783968" x2="1252.21875" y2="89.01227963783968" fill="rgb(0, 0, 0)" stroke="rgb(189, 189, 189)" stroke-width="1px" opacity="0.25"></line><line x1="0" y1="61.69396513429126" x2="1252.21875" y2="61.69396513429126" fill="rgb(0, 0, 0)" stroke="rgb(189, 189, 189)" stroke-width="1px" opacity="0.25"></line><line x1="0" y1="40.50423418481743" x2="1252.21875" y2="40.50423418481743" fill="rgb(0, 0, 0)" stroke="rgb(189, 189, 189)" stroke-width="1px" opacity="0.25"></line><line x1="0" y1="23.190963368789653" x2="1252.21875" y2="23.190963368789653" fill="rgb(0, 0, 0)" stroke="rgb(189, 189, 189)" stroke-width="1px" opacity="0.25"></line><line x1="0" y1="8.552801468163413" x2="1252.21875" y2="8.552801468163413" fill="rgb(0, 0, 0)" stroke="rgb(189, 189, 189)" stroke-width="1px" opacity="0.25"></line></g></g></g><g><g><line x1="113.83806818181819" y1="0" x2="113.83806818181819" y2="377" fill="rgb(0, 0, 0)" stroke="rgb(153, 153, 153)" stroke-width="1.5px"></line></g></g><g><g><g><g><g><path stroke="rgb(255, 112, 67)" stroke-width="2px" d="M114.97644886363636,74.41917087486908L115.54563920454545,53.85714285714283L116.11482954545454,60.88352734350826L119.5299715909091,74.60476208733587L120.09916193181817,92.10637496962386L121.80673295454545,80.63958736460098L122.37592329545456,94.98577516991496L124.08349431818182,90.34278157522728L124.65268465909091,86.04740306153673L125.22187500000001,81.20474676832617L126.36025568181817,93.13096047918705L126.92944602272728,85.80899660246823L128.63701704545454,91.35443662631297L129.20620738636364,104.44966470306606L130.34458806818182,115.08285708027014L132.62134943181817,123.87909544241131L133.19053977272728,125.09638738135688L134.32892045454545,113.16772694519341L134.89811079545456,98.06583022307834L135.46730113636363,95.38035657038006L136.03649147727273,90.62697551629883L136.6056818181818,95.26618968020489L140.59001420454547,86.09151554641781L141.15920454545454,101.40701675310339L141.72839488636362,95.10365968531089L142.29758522727272,106.2505711042869L142.86677556818182,111.11436850604981L143.43596590909092,102.19632803176741L144.57434659090907,100.86346166066295L145.14353693181818,118.93270165520896L146.28191761363638,121.98266334751443L147.98948863636363,128.4273184169001L148.55867897727273,140.84644542859172L149.1278693181818,113.0284763103041L149.6970596590909,135.60432761518948L150.8354403409091,139.7979900471771L151.4046306818182,152.88375905282993L151.97382102272726,132.97559070937058L152.54301136363637,146.0995365117662L153.68139204545454,153.52533906319368L154.25058238636365,123.93744905570595L155.38896306818182,120.84141251128666L156.52734375,122.87484997378488L157.66572443181818,107.85051783327799L158.80410511363638,106.84860645774134L159.37329545454543,123.82317846535713L160.51167613636363,130.32579921175153L161.08086647727274,137.79049231373185L162.2192471590909,151.59971129501682L162.78843750000001,160.92852129323165L164.4960085227273,153.47227885411215L165.06519886363634,148.5098409460155L167.91115056818182,135.653562620676L170.18791193181818,135.97642487415447L170.75710227272725,113.01756021368176L172.46467329545453,117.9956178061619L174.17224431818184,140.2504526032711L174.7414346590909,115.28377581745278L175.8798153409091,127.79360593073862L176.44900568181816,139.71742094800055L178.72576704545455,151.30799307773776L179.86414772727275,165.21440971622425L182.71009943181818,161.37365246415976L184.98686079545456,169.49812472206233L185.55605113636366,162.77171566198882L186.6944318181818,168.3379447872448L187.2636221590909,183.57123936560387L187.8328125,97.56908754354444L188.4020028409091,118.34670425388043L188.9711931818182,125.87326842856778L190.10957386363637,130.73228323064325L191.24795454545455,123.47655207314251L191.81714488636362,126.62690495880615L195.23228693181818,145.96883402526984L195.80147727272728,166.9935885804957L196.93985795454546,169.5561152435656L197.50904829545453,180.4752504503825L199.2166193181818,195.5093938701037L203.20095170454545,203.0350517532506M204.90852272727273,183.44310725343414L206.0469034090909,190.6228748021322L207.1852840909091,195.45571705477354L208.32366477272726,195.53979563146152L210.60042613636364,153.4848406947844L211.16961647727274,167.2834222149084L211.7388068181818,187.26085028056974L213.44637784090907,192.69709543502682L214.01556818181817,179.16959383908628L214.58475852272727,184.95577636288974L215.15394886363637,187.04720688570316L216.29232954545455,165.68785690807624L216.86151988636365,170.9864314541282L217.99990056818183,182.1209742837319L218.56909090909093,191.00966820727405L219.13828124999998,204.22938199059328L219.70747159090908,213.25384319601565L221.41504261363636,215.2027105655485L221.98423295454546,213.5957366551388L222.55342329545456,220.01847780077512L223.12261363636364,212.59605485642888L224.8301846590909,195.01082557719297L226.53775568181817,206.14829579588869L227.10694602272727,211.75525283114817L227.67613636363637,221.05890933484181L228.81451704545455,220.8712100377567L229.38370738636365,223.1721409018569L229.95289772727273,222.17471657940814L230.5220880681818,202.46909969666524L231.66046875,198.88908493059688L232.79884943181818,200.5288289799162L233.9372301136364,207.37579728524398L235.07561079545454,206.35710173117772L236.2139914772727,205.5709468519948L236.78318181818182,192.9327910433763L237.9215625,198.28764164567693L238.4907528409091,207.4428330116101L239.0599431818182,212.2757787550104L239.62913352272727,215.12855264132904L240.19832386363635,208.55305685690905L241.33670454545452,205.71074392734337L241.90589488636363,216.75490275621323L244.18265625,202.5091274724225L245.89022727272726,209.23686475036166L247.59779829545454,209.5416872011875L248.73617897727274,225.17788569223302L249.30536931818182,228.9141046761946L249.87455965909092,235.0215883323579L251.01294034090907,228.95112801358493L251.58213068181817,224.76647522499928L252.72051136363635,222.1703285411342L253.28970170454545,215.98523322749426L253.85889204545455,223.55536817646728L254.42808238636363,227.1800955608139L257.2740340909091,225.2251621124667L257.84322443181816,230.5914051653002L258.4124147727273,229.62196077214315L260.11998579545457,237.79105140664282L260.68917613636364,213.49619887149976L261.2583664772727,204.15075609433444L261.8275568181818,207.9196923912548L262.9659375,204.24940724957665L267.5194602272727,212.35080104994543L268.08865056818183,222.76434119223404L269.7962215909091,222.00694252596776L270.3654119318182,225.3512373930483L270.93460227272726,222.48331618608805L272.07298295454547,222.6709183353699L273.2113636363636,226.76819318329743L274.3497443181818,224.50331675700306L274.9189346590909,216.07866438038135L276.0573153409091,211.2449221311752L277.1956960227273,210.53094582938914L277.7648863636364,208.76908338982463L278.9032670454545,206.38772351348925L281.74921875,216.04744458508137L282.3184090909091,221.40548156986608L282.8875994318182,228.5109541186576L283.45678977272723,234.71644180404166L284.02598011363636,204.29004907265238L286.87193181818185,207.33049652618485L288.0103125,224.29116665967615L288.57950284090913,229.33633589597676L289.14869318181815,239.1028876358163L289.7178835227273,233.41562385949928L291.42545454545456,245.54837060232853L291.99464488636363,241.97504373153217L293.7022159090909,248.85388033676938L294.84059659090906,248.18795157385182L295.4097869318182,249.75775575240718L297.11735795454547,247.66481382018284L298.2557386363636,248.3008948761068L301.1016903409091,249.25407909106875L301.6708806818182,225.0116046546631L302.24007102272725,242.69638580293372L302.8092613636364,217.29004961149755L303.37845170454545,218.5060695599022L305.6552130681818,224.28949398248807L306.2244034090909,225.3186626774319L307.3627840909091,231.46843602607035L309.07035511363637,232.22481376900657L309.63954545454544,238.31836311759199L310.2087357954546,233.58333096425437L310.77792613636365,243.52849673015945L311.9163068181818,244.01748349563093L313.0546875,239.32542395255265L314.1930681818182,238.2128828500954L314.7622585227272,235.0527032158069L315.33144886363635,238.57878632381474L315.9006392045454,245.4616284190181L317.03901988636363,238.5445809865446L317.60821022727276,229.9793098836716L318.74659090909086,238.55036937161293L319.88497159090906,228.37667532522778L320.4541619318182,241.3923747644922L321.02335227272727,242.3576304194298L321.5925426136364,237.28939383206801L322.16173295454547,239.9065471251205L322.73092329545455,233.25796593846636L323.3001136363636,239.54388996983437L326.7152556818182,242.5012589982631L327.28444602272725,247.20100888826258L328.42282670454546,240.04378126370403L328.9920170454546,246.90672964647047L331.2687784090909,251.7479352957629L332.9763494318182,261.7177138132544L333.54553977272724,254.92539932000415L335.2531107954545,255.837964759031L335.82230113636365,256.20558203068265L336.3914914772727,245.34196882530023L336.96068181818185,245.4547041460183L337.52987215909087,243.51967988607234L338.0990625,236.50277569769335L338.6682528409091,237.57918681622968L339.2374431818182,235.8452198171807L339.8066335227273,247.15571294586553L340.37582386363636,236.51470815266265L340.9450142045455,250.19707728868914L342.08339488636364,254.21638311386909L342.6525852272727,257.28767214312694L343.7909659090909,254.80671172279685L344.92934659090906,253.43657408310037L346.06772727272727,255.869038733512L346.63691761363634,254.47435099524583L348.3444886363637,253.70394691266486L348.9136789772727,255.04100767834507L349.4828693181818,245.57419477706074L350.0520596590909,240.43936829162627L351.7596306818182,251.36241480592696L352.32882102272725,253.40713973068486L353.46720170454546,250.8422394713587L354.03639204545453,257.4009973536254L355.74396306818187,266.8246159811268L356.3131534090909,263.60037695464877L358.5899147727273,247.2801872830968L359.1591051136364,242.36460948178805L360.86667613636365,247.76582704910524L361.4358664772727,248.36634479477988L362.0050568181818,262.5208821339185L362.57424715909093,270.28029393715L363.14343749999995,247.8657331701841L363.7126278409091,254.89003612447297L364.28181818181815,251.87194589229856L364.8510085227273,238.90312849006756L365.9893892045455,241.04714005475242L366.55857954545456,254.04746881099857L367.1277698863636,249.44838884662656L367.6969602272727,256.9492736871808L369.9737215909091,248.50614999721768L370.5429119318182,250.54780165238782L371.1121022727273,249.30539906903005L371.68129261363634,258.68332065653755L372.2504829545455,246.23234218979974L373.3888636363636,255.87504321107096L374.5272443181818,261.18384806110123L375.665625,264.67360340757324L376.2348153409091,261.3363116580063L376.8040056818182,253.44243651869837L377.9423863636364,248.74971923253705L378.5115767045454,244.6209095651013L379.08076704545454,256.88961804370564L380.21914772727274,255.7743572526288L381.35752840909095,265.9895307609407L381.92671874999996,260.9875443188395L383.63428977272724,268.99994769525085L384.2034801136364,262.95569009239716L385.9110511363636,262.1737800841854L386.4802414772727,256.40872227562994L387.0494318181818,255.925415820537L387.61862215909093,257.6911164604206L388.1878125,252.0166817232252L388.7570028409091,253.5990731276432L389.3261931818182,254.89917199948349L390.46457386363636,257.3109738169264L391.03376420454543,254.49272621999793L391.60295454545457,253.46065296008578L392.17214488636364,266.31575412074983L393.3105255681818,269.54917226079414L395.01809659090907,267.16842435777767L395.5872869318182,260.46691894844207L397.2948579545454,261.33946510698667L399.00242897727276,254.90214321147744L399.57161931818183,248.5198818160224L400.1408096590909,253.81236285310442L401.8483806818182,259.3748600736103L402.9867613636364,255.72033250560781L403.55595170454546,242.43311939536747L404.1251420454546,244.41439185887785L404.6943323863636,248.10112806047206L405.2635227272727,245.98737230728045L405.8327130681818,244.47420587840074L406.4019034090909,251.71438702044716L407.5402840909091,261.7293867436937L408.1094744318182,261.1149533219404L408.67866477272725,258.2348357390824L409.2478551136364,257.38767345732447L409.81704545454545,266.85814480519855L410.3862357954545,267.684873521316L411.5246164772727,275.5028299368796L415.5089488636364,276.6319988814641L417.21651988636364,263.6151923300924L417.7857102272727,255.93049398572228L418.9240909090909,264.9534630601058L419.49328125000005,249.83888315521432L420.06247159090907,257.1814658508133L420.6316619318182,265.1815796048389L421.2008522727273,269.003731784847L421.77004261363635,277.0142338736992L422.3392329545455,279.36824563476404L422.9084232954545,281.0952153255612L423.4776136363636,261.52960308005055L424.61599431818183,253.0568625658305L425.1851846590909,260.99556195538116L426.89275568181813,255.04629860309157L428.03113636363634,239.7443102511178L429.16951704545454,247.9984651076574L429.73870738636367,248.71124055112034L430.30789772727275,244.50282310522374L433.7230397727273,248.635276141281L434.2922301136363,261.78628041659107L434.86142045454545,266.93851398355014L437.13818181818186,275.27243861610464L437.70737215909094,276.203766448577L438.8457528409091,248.19849361779515L439.9841335227273,258.7301880948419L441.6917045454545,264.5019039391425L443.9684659090909,265.8848374565446L446.2452272727273,261.22883704835266L446.81441761363635,258.0641547803232L447.3836079545455,263.105085843479L448.52198863636363,259.1853659514381L449.09117897727276,259.1546280178605L449.6603693181818,275.1832170450985L450.2295596590909,276.5656981169897L450.79875,279.44822893192185L451.9371306818182,285.60228355898556L453.07551136363634,289.59681859557685L453.6447017045454,273.7070845689887L454.21389204545454,275.279587105244L454.7830823863636,271.23829381817563L455.35227272727275,278.14196424746785L455.9214630681818,282.690585702782L456.49065340909095,283.8312886430903L457.6290340909091,279.8218308613789L459.3366051136364,268.906176758535L460.47498579545453,271.46076515134934L462.1825568181818,271.529512815891L462.75174715909094,270.4627444155755L463.89012784090914,275.23530798260185L464.45931818181816,273.8572146773836L465.02850852272724,272.40986701246754L466.16688920454544,273.52523051791945L467.30526988636365,266.43800003680406L467.8744602272728,263.45279387832625L469.58203125,266.026584989138L470.1512215909091,269.90723594385844L470.7204119318182,262.0474339148515L471.2896022727272,267.9882892349272L473.56636363636363,259.1656457479289L474.13555397727276,255.8461988628808L474.70474431818184,247.01624182366226L475.843125,259.68546564868075L477.55069602272727,252.57334659261724L478.1198863636364,261.3592525063233L478.68907670454547,277.6110826448478L479.25826704545455,281.24871046687383L479.8274573863636,279.9119525658818L480.3966477272727,273.99649161725534L482.67340909090905,265.81833863770396L483.81178977272725,254.27944255194583L484.3809801136364,256.1505462758758L484.95017045454546,250.4915272135869L485.5193607954546,258.9563134626688L486.08855113636366,255.97799602559292L487.7961221590909,259.7929754982302L488.3653125,274.88105966814646L488.9345028409091,270.5150254783724L492.9188352272727,266.81458243869145L494.62640625,267.1201836276557L497.4723579545455,251.37273890147583L498.0415482954545,259.0297226031796L498.61073863636364,260.82381246212117L500.3183096590909,270.45285522098595L501.45669034090906,271.9934102444831L502.02588068181814,251.23509545087074L502.59507102272727,260.906791215868L503.16426136363634,262.55018306271796L504.30264204545455,249.39933358423005L507.14859375000003,264.23813851995754L507.7177840909091,260.62734595604445L508.2869744318182,251.06236861002688L508.85616477272725,255.37650737274282L509.42535511363633,263.9544306563079L509.99454545454546,278.2148634375087L511.13292613636366,281.8101492806626L512.8404971590909,278.2957043100721L513.4096875,280.4569265725021L514.5480681818182,286.63766101144734L516.8248295454546,278.6113016255988L517.3940198863637,263.9641549630981L518.5324005681817,274.34366424852493L520.2399715909091,277.24022316993074L521.3783522727273,284.54127961360786L522.5167329545454,282.7507939995729L523.0859232954546,272.72424765408493L523.6551136363636,268.7044172024862L524.7934943181818,249.59126135182746L525.362684659091,262.1048628753192L525.931875,275.0218989439199L526.5010653409091,283.0359758883075L527.0702556818181,291.56681216722825L527.6394460227273,289.74756993747775L528.2086363636364,291.8669261451827L529.3470170454545,289.9733748430994L529.9162073863636,277.42729545093596L530.4853977272727,277.9896784713275L533.3313494318181,275.04831548874074L533.9005397727273,277.67182965507874L534.4697301136364,271.8083941964474L535.6081107954545,274.8187783203416L536.1773011363637,269.05821484264465L536.7464914772728,266.589603013504L537.3156818181818,277.4175469799968L541.3000142045454,267.7606300792083L543.0075852272728,278.9060255552191L543.5767755681818,286.599675245732L544.71515625,289.27528236589916L547.5611079545455,269.0340728431377L548.1302982954545,278.97873280161434L548.6994886363636,276.5023185444891L549.8378693181818,286.8421836635475L550.4070596590909,281.92723072395484L550.97625,278.4119988907268L551.5454403409091,282.31569518279514L552.1146306818182,281.4009295947469L552.6838210227272,275.038676079466L553.2530113636363,278.87306395640144L554.3913920454546,278.439973918354L554.9605823863636,283.7257572806813L556.0989630681818,273.91889031618507L556.6681534090909,283.2486054434185L557.23734375,278.21951934442245L557.806534090909,288.0198176514916L558.3757244318182,292.96676745207174L558.9449147727272,292.8631330914448L560.6524857954546,297.91993983683176L561.7908664772727,284.04755578956645L562.3600568181819,281.90488766543905L563.4984375,281.0937864967599L564.6368181818182,276.68705873795597L565.7751988636364,286.3800938305448L566.3443892045455,285.9123023462613L566.9135795454545,285.52160886297105L568.0519602272727,292.06979297421344L568.6211505681819,302.69343886970313L570.8979119318182,301.3829887605212L571.4671022727273,305.93856564084876L572.0362926136364,308.52071702549205L572.6054829545454,303.03491346470116L574.3130539772727,277.4847771851379L576.020625,284.842556752781L578.8665767045454,292.7765914725067L579.4357670454546,283.97727975028084L580.5741477272727,277.51837614324756L581.1433380681818,285.89006337412115L581.7125284090909,271.5597864500189L582.8509090909091,281.83680584987303L583.4200994318181,275.2392663675505L583.9892897727273,285.3452062137403L584.5584801136364,276.56570435457337L586.8352414772727,277.206545245154L587.4044318181818,279.92718510706084L588.5428125,282.751050629018L589.1120028409091,295.6670010721495L589.6811931818181,289.59450262564496L590.8195738636364,288.03553127955905L591.3887642045455,293.52642493367523L592.5271448863637,300.09288681004114L593.0963352272727,298.02410468466985L594.2347159090909,287.1221521141811L597.0806676136364,276.3973398582065L597.6498579545455,263.47288176699897L599.3574289772728,252.03843385453303L600.4958096590909,258.98094981031045L601.0649999999999,254.82192193774708L602.7725710227273,257.54838166041526L603.3417613636364,258.7696809306496L603.9109517045455,248.32805874223234L605.6185227272728,250.8778059808534L606.1877130681818,251.29760995561665L608.4644744318182,252.02556446012537L609.0336647727273,261.23260841962616L614.7255681818182,268.9795892395349L615.8639488636363,279.218532825329L616.4331392045455,279.54697739878725L617.0023295454546,281.76854087905747L617.5715198863636,280.88723074529713L618.1407102272727,281.5653564297977L618.7099005681818,277.5007800994018L619.84828125,268.72393629414796L620.9866619318182,272.5779862876523L622.6942329545454,273.0301675616585L623.8326136363636,277.5535069568367L624.4018039772727,281.50698543247364L626.109375,292.96691535196635L626.6785653409091,290.60698529971455L627.8169460227273,291.59595869156044L628.9553267045455,280.53635997522406L629.5245170454544,283.55163064764525L630.0937073863636,275.84546891263034L631.2320880681818,259.5606171257714L631.8012784090909,262.37057546965843L632.9396590909091,270.1552600164739L633.5088494318181,270.3215027513383L634.6472301136364,281.9323815729742L635.7856107954545,283.5694137318748L636.3548011363637,293.3069798539161L636.9239914772728,292.5946159403327L637.4931818181817,293.44821074513396L638.6315625,296.88696569876146L640.9083238636364,302.268057741957L641.4775142045455,296.6775234993033L642.0467045454545,304.6591153219873L642.6158948863637,284.1846512764787L643.1850852272728,295.7865457236524L643.7542755681818,286.4638715953595L644.3234659090909,295.9618131442939L644.8926562500001,275.1261590650681L645.4618465909091,283.95855675237755L647.7386079545454,293.04224085035463L648.8769886363636,281.0820825385003L649.4461789772728,280.52423579744305L651.1537500000001,249.2218070048308L653.4305113636364,250.69414955601144L653.9997017045454,269.9312093654107L655.1380823863636,278.55597478692533L656.2764630681818,284.19058053100474L656.8456534090909,286.566221898575L657.41484375,279.50681093101184L659.1224147727273,274.98381461958644L659.6916051136365,271.5265547554755L660.2607954545454,276.12685317990156L660.8299857954545,278.9199466717702L661.3991761363636,290.5755966437557L661.9683664772728,282.4208785345486L662.5375568181818,284.1432731529915L663.6759375,287.4873773260755L664.245127840909,276.8151429485706L665.9526988636364,293.02143882882564L668.7986505681818,282.7448120739793L669.93703125,272.5758909814744L670.506221590909,281.3765799013995L671.6446022727273,285.7445351796638L672.2137926136364,281.0660737626723L672.7829829545454,287.64817588240635L674.4905539772728,290.84659270982513L675.6289346590909,285.5197623597115L676.198125,290.80220360987477L676.767315340909,279.72176500390304L677.9056960227273,269.3821435227757L679.0440767045454,273.576634788305L679.6132670454546,283.4014694919173L680.1824573863637,278.4511920609512L681.3208380681818,269.33801787421015L681.890028409091,279.1118001660314L683.028409090909,278.17952354220205L683.5975994318181,272.1623195366141L684.1667897727273,264.61204816581073L684.7359801136364,274.32763635403205L685.3051704545454,287.1627898847504L685.8743607954545,293.86667883289846L688.7203125000001,281.502686567657L689.8586931818181,283.0787225820934L690.9970738636363,295.00488316496774L691.5662642045454,289.0020807192287L692.1354545454545,296.6488786944088L694.9814062500001,294.3842130458354L697.2581676136363,306.77441924776787L698.3965482954545,308.13199017454366L698.9657386363637,290.3764177558471L702.3808806818182,289.60757714291L702.9500710227273,288.700714918196L703.5192613636364,284.73584489840084L704.0884517045455,275.00504647872316L704.6576420454545,282.0670311770768L706.9344034090909,287.3199499341411L708.0727840909091,277.1123620573586L708.6419744318182,274.4898641771669L710.3495454545455,280.85161759876297L712.0571164772726,288.37538867828346L712.6263068181818,288.69472475252593L714.333877840909,279.4383484949675L715.4722585227273,282.0522247596404L716.0414488636363,285.7859961738417L716.6106392045455,271.703377487644L717.7490198863637,276.6614088214233L719.456590909091,286.5285827561828L720.0257812499999,285.11437008151387L720.594971590909,294.57437783320614L721.7333522727273,298.9613706927768L722.3025426136363,291.50177322351556L722.8717329545455,281.59871196333575L723.4409232954546,287.2864594045338L724.0101136363636,300.19911928656296L724.5793039772727,299.8987529521222L726.2868749999999,297.3743653001853L726.856065340909,281.2491255316083L727.9944460227273,284.9297612269259L728.5636363636363,294.117144221933L729.1328267045454,294.052806646646L730.8403977272727,288.62002115719514L731.4095880681818,270.504693830382L731.978778409091,278.23665017094L734.2555397727272,280.9147188289432L734.8247301136363,283.3799993123886L735.3939204545454,280.08772398497257L738.239872159091,286.22903744230933L739.3782528409091,283.6605875611984L740.5166335227273,256.3016416735803L741.0858238636364,259.23824403833885L741.6550142045455,276.7656190276852L743.3625852272727,285.5192724460088L743.9317755681818,291.5831503231318L744.500965909091,283.79375691330705L745.07015625,298.65426828403014L745.6393465909091,302.3296106384329L746.2085369318182,306.7863188648087L746.7777272727272,315.06092749873426L747.3469176136364,298.7400806032087L748.4852982954546,281.86988586765676L750.1928693181818,287.0321444715128L751.33125,297.3706029288771L751.9004403409091,306.4555515056555L753.6080113636364,292.4628222986412L754.1772017045455,302.1513903807223L755.3155823863636,308.5008409593513L755.8847727272728,292.3583959810429L756.4539630681819,290.76882433026714L757.0231534090908,291.94195532480643L757.5923437499999,297.167765460182L758.7307244318182,300.50257047421036L759.2999147727272,296.00356093836814L759.8691051136364,287.7132840654704L760.4382954545455,284.4758588996329L761.5766761363636,275.5509308782585L763.2842471590909,266.2784486359766L764.9918181818182,269.8395332575854L765.5610085227272,276.0042006646341L766.6993892045455,283.19857400630593L767.2685795454545,288.4132130647939L767.8377698863636,299.7423806094317L768.4069602272727,304.1197985967073L768.9761505681819,276.19070979882554L769.5453409090909,281.39119521961095L770.6837215909092,280.0378975653069L772.9604829545455,279.3658780303942L773.5296732954545,288.0737921526558L774.6680539772727,288.873971501236L775.8064346590909,299.42742688424386L776.9448153409091,304.3247007060876L777.5140056818182,297.81112196574117L780.3599573863636,294.699306748069L780.9291477272727,296.1156643889182L781.4983380681819,294.3637326216832L782.63671875,296.6321743256104L783.2059090909091,281.46461606647756L783.7750994318181,295.1312001482561L786.0518607954544,299.5277877575224L787.1902414772727,290.51698050729647L788.3286221590909,286.8508889047028L789.4670028409091,289.2868669221941L790.0361931818181,300.13218308948024L790.6053835227273,302.5124599631041L792.3129545454545,308.46628851247385L792.8821448863637,310.65481057156023L793.4513352272728,286.2309342339969L794.0205255681817,288.0665045711285L794.5897159090908,290.05256338760177L795.15890625,290.8427073059426L796.7526392045455,290.8858521093303L796.8664772727273,298.75560257327794L798.5740482954545,296.7463350614953L799.1432386363637,301.23463480994485L799.7124289772728,289.5362397676701L800.8508096590909,278.11910268517806L801.4200000000001,280.82700436166783L803.1275710227272,291.79217775743297L803.6967613636364,291.8587466408642L804.2659517045454,294.26323583315457L805.4043323863636,297.5582834932896L805.9735227272728,306.10821459551266L808.2502840909092,293.2960996591578L808.8194744318181,285.91455509179787L809.9578551136364,295.75281303679077L811.6654261363636,298.9920771530494L812.2346164772728,289.2190969497217L813.9421875,292.2785521969367L814.5113778409092,265.39757059009753L817.3573295454545,256.8112852745683L818.4957102272728,266.7629675527353L819.0649005681818,281.58165081127646L819.6340909090909,287.8999316993162L820.20328125,278.0142518880717L820.772471590909,286.02126644748L821.3416619318182,293.8659545364537L821.9108522727273,300.87586877456016L823.6184232954545,309.52888630194445L824.1876136363636,303.53674696747663L824.7568039772727,311.84419879957665L825.3259943181818,297.42055566606746L826.464375,298.4308247806725L827.6027556818182,286.9655870002772L828.1719460227273,283.332114201983L829.8795170454546,279.9992288023396L830.4487073863637,285.00818773984247L832.1562784090909,284.99589408070574L833.8638494318182,297.1003720495391L834.4330397727273,295.25377205291187L836.1406107954546,298.7989671263511L838.9865625000001,290.12142928411316L839.555752840909,293.9099419529085L840.1249431818181,283.79061661220953L841.2633238636364,279.8810373070726L842.4017045454545,290.28933592367997L844.1092755681818,293.7017444514527L845.816846590909,300.88204144959724L846.9552272727273,308.86723801687435L848.6627982954545,310.74314932596326L850.3703693181818,310.352379616752L851.5087500000001,310.6106907833313L852.0779403409091,303.89113671909735L853.2163210227274,280.24086861885104L853.7855113636363,280.04227892448057L854.9238920454545,285.96175932267363L856.0622727272727,285.6398836845812L858.3390340909091,272.73257561670465L860.0466051136364,266.8530072154357L860.6157954545455,268.12865408140686L861.1849857954545,281.984982030798L864.0309374999999,277.4663144980885L865.1693181818182,288.1621473496578L865.7385085227273,295.72804982295037L866.3076988636363,302.36016309909047L866.8768892045455,300.25410999226966L867.4460795454546,284.09495845782976L868.5844602272726,289.52215217714524L872.5687926136363,283.7594344404758L875.983934659091,292.14184589464367L877.6915056818182,291.97954891821456L878.2606960227273,306.07270414168147L879.3990767045455,318.0840069360348L879.9682670454546,313.6941306961892L881.6758380681819,320.3532338037107L882.245028409091,309.09381606955907L883.383409090909,300.6993807044785L883.9525994318182,299.3112155472595L885.0909801136363,305.2324280931515L885.6601704545454,298.57514324892895L886.7985511363636,298.63276241064096L889.0753125,282.8422796360336L889.6445028409091,294.10499527613837L890.2136931818183,304.01575545040674L890.7828835227272,301.7574681577629L891.3520738636363,310.43320225351863L893.6288352272727,308.8308150500449L894.1980255681818,304.9483254299952L895.33640625,298.41494613054823L895.9055965909091,294.7183434234569L898.1823579545455,290.7220899928177L898.7515482954547,287.531445433456L901.028309659091,299.1263140654555L901.5975,291.5524254885121L902.1666903409091,292.30129601886404L903.8742613636364,296.9915168515873L904.4434517045455,291.1828480162011L905.5818323863635,293.82752251472425L907.2894034090908,290.1962584851648L907.85859375,297.3281112696375L908.9969744318182,304.5429781750911L909.5661647727272,312.1823697063839L911.2737357954546,299.85702625414416L912.4121164772728,297.4944130405414L916.9656392045455,303.60816442950386L918.6732102272728,299.89584161941536L919.2424005681819,298.60030004077123L920.3807812499999,305.78340490425734L921.5191619318182,312.36135993553415L922.0883522727272,316.07389902526035L927.2110653409092,320.8626451610167L927.7802556818183,323.1428571428571L928.3494460227272,310.20702400366235L928.9186363636363,317.07202625079657L930.0570170454545,298.54459043363937L931.1953977272727,306.5298714333472L931.7645880681819,304.80941771158365L932.3337784090909,270.41828522484343L932.90296875,275.7963854438428L934.6105397727273,281.7882555330109L935.7489204545456,275.60351707148095L936.3181107954545,284.3510546092046L936.8873011363636,284.87411750956346L937.4564914772727,286.1180667182126L938.0256818181819,286.6187948735958L938.5948721590909,295.59606059746534L939.1640625,307.1852691008058L940.3024431818181,289.7480302799531L940.8716335227273,301.2379335748737L941.4408238636364,279.5278060248077L942.0100142045455,295.1578086323002L942.5792045454544,303.78591698820827L943.1483948863636,300.4623010674713L943.7175852272727,285.2189385022402L944.2867755681818,296.1658809941088L944.8559659090909,295.0497018592689L945.42515625,291.36533082092745L945.9943465909091,305.38291916377216L949.4094886363637,309.0539995991796L951.1170596590908,314.62052145419716L951.68625,310.6585335930042L952.8246306818181,304.01437054192064L953.3938210227273,308.6520282230322L955.6705823863637,296.55414018651487L956.2397727272728,287.01156299150205L956.8089630681818,284.65620764752055L957.3781534090909,292.73011860674904L959.0857244318181,297.7902727330298L959.6549147727272,299.49668737066355L960.2241051136364,299.8943962534136L960.7932954545454,297.5747583441363L961.3624857954545,278.7648317940998L962.5008664772728,290.68837385348326L963.0700568181818,300.21185652249585L965.3468181818181,307.1651529297652L965.9160085227272,293.8292925800462L966.4851988636364,301.92524762879486L967.6235795454545,309.57110600973306L969.3311505681818,303.1801732456817L971.6079119318182,301.3387436707116L972.1771022727273,293.3686166179716L972.7462926136365,306.3493458434328L973.8846732954545,307.39866642596576L975.0230539772728,312.057632577648L975.5922443181818,295.2702549135667L979.5765767045453,294.6572310552246L981.2841477272727,308.2356757769206L982.4225284090909,300.1235217676148L983.560909090909,295.08049803059413L985.2684801136364,290.5471036365482L985.8376704545454,286.11731295170455L987.5452414772728,293.9656185500072L988.1144318181817,295.885779160469L989.2528125,303.70389679578017L989.822002840909,298.8889555730235L992.0987642045454,306.09667715014217L993.2371448863637,314.9123806190847L993.8063352272727,308.3653173754387L995.5139062500001,262.0582777580815L996.083096590909,270.7192272550713L996.6522869318181,274.6665388297475L997.7906676136364,287.62030197921786L998.9290482954545,276.41147489894433L1000.0674289772727,273.063815877882L1000.6366193181818,283.02651544199284L1001.7750000000001,299.25907051993454L1002.9133806818181,300.78273162470754L1003.4825710227273,310.2919977833716L1004.0517613636363,307.13210230452734L1005.1901420454545,284.72384025868666L1006.3285227272727,293.9669419869987L1006.8977130681818,294.1671777561522L1007.466903409091,296.24087046920323L1008.0360937500001,288.75563997628313L1008.6052840909091,289.73579187496165L1009.7436647727274,300.3936654827795L1010.8820454545454,304.1182256873878L1011.4512357954545,301.9345115235776L1012.0204261363637,296.4970796099916L1012.5896164772727,288.3405278263373L1013.1588068181818,291.87461346798875L1014.8663778409091,298.1821355201931L1017.7123295454545,286.9308290982594L1020.5582812499999,287.8247228023714L1021.1274715909091,297.5699054984791L1021.6966619318182,284.6033644439796L1023.9734232954546,301.5170842214787L1024.5426136363637,299.90067296210907L1025.1118039772728,303.74097552026967L1029.0961363636363,294.8195480694112L1029.6653267045454,305.1675263670626L1030.8037073863636,289.0996302718419L1031.3728977272726,287.0177990507969L1031.9420880681819,295.47237196404643L1032.511278409091,298.54100860734604L1033.08046875,297.3536087139772L1034.7880397727274,306.84472559371335L1035.9264204545455,299.7625117030408L1037.0648011363635,295.287508143122L1038.2031818181817,301.83729733282723L1038.772372159091,312.12609688060127L1040.4799431818183,320.4938384940755L1041.0491335227273,313.92560232039136L1043.3258948863636,315.66492550907157L1043.8950852272726,309.09607674648777L1044.4642755681818,300.3076096613595L1045.0334659090909,294.00269988944666L1046.1718465909091,285.58128388037653L1046.7410369318181,287.89152096656517L1049.5869886363637,300.516186374327L1050.1561789772727,302.4597511990766L1051.294559659091,302.4814515087615L1052.432940340909,307.17057634441426L1053.0021306818182,296.7208934222179L1053.5713210227273,299.6639620775703L1054.1405113636363,306.8895845934379L1055.2788920454545,308.22785630355094L1056.4172727272728,307.3123682208665L1056.9864630681818,316.38153181371416L1058.694034090909,310.3943284517213L1059.8324147727271,305.6112119985035L1060.9707954545454,307.7087883865658L1062.6783664772727,309.38672988682833L1063.247556818182,315.02087685871743L1065.5243181818182,314.6948617451597L1067.2318892045455,289.5508698528704L1068.3702698863635,288.1290731364221L1068.9394602272728,289.39566529952106L1069.5086505681818,292.68666413538807L1070.0778409090908,298.90292232097715L1071.7854119318183,305.7123296238527L1072.3546022727273,310.684827029958L1072.9237926136364,309.3478282327673L1073.4929829545456,316.58261036673315L1074.0621732954546,304.7728983094207L1074.6313636363636,310.07985001544995L1076.338934659091,309.0852316410151L1076.908125,318.4866648556493L1077.4773153409092,320.109535763928L1078.6156960227272,307.6120349353487L1079.1848863636365,312.0738429591381L1079.7540767045455,304.21246087627964L1080.3232670454545,310.25998593542863L1080.8924573863635,292.7726462642723L1081.4616477272727,292.20962309704504L1082.6000284090908,293.6606922834076L1084.3075994318183,306.53466282895045L1085.4459801136363,310.67556882320446L1086.0151704545456,307.44228568951036L1086.5843607954546,298.4433810846259L1087.1535511363636,297.66354971605955L1089.4303125,305.1919412242094L1090.5686931818182,284.5771994915545L1091.1378835227272,293.64468827790046L1092.8454545454545,305.24006879760395L1093.4146448863637,303.72824789632523L1093.9838352272727,303.75377371330654L1094.553025568182,304.27440374285584L1097.3989772727273,308.52072096111937L1101.9525,299.2750595397488L1102.5216903409091,299.751952254093L1103.0908806818181,296.9027052038785L1104.7984517045454,291.2133977094137L1105.9368323863637,303.8647876566228L1106.5060227272727,302.62380993418054L1107.0752130681817,310.3256663438736L1107.644403409091,308.5755398108594L1108.21359375,313.6159539833303L1108.7827840909092,291.7758122225649L1109.3519744318182,291.6922365515935L1110.4903551136365,290.46333296658554L1111.0595454545455,301.1906561594293L1112.7671164772728,294.9877047791519L1115.613068181818,301.3795437600104L1116.1822585227274,287.5709663890013L1117.3206392045454,290.86158117347793L1117.8898295454544,294.90819927141564L1119.0282102272727,290.40680783244727L1119.5974005681817,303.1787947873779L1120.73578125,310.8824497066662L1123.0125426136365,310.5504050751976L1123.5817329545455,297.51239499934195L1124.1509232954545,298.38998368521993L1125.8584943181818,293.87130798724456L1126.4276846590908,301.3612671305554L1128.135255681818,303.0736770567019L1128.7044460227273,311.70573902600466L1129.2736363636363,315.1491999157433L1129.8428267045454,308.81909721064073L1130.9812073863636,295.6798342378113L1131.5503977272729,305.79118270000265L1132.688778409091,317.18032176949794L1133.827159090909,316.5140604339118L1134.9655397727272,310.72142381162956L1135.5347301136364,306.0809118229164L1137.2423011363637,300.0769499389203L1137.8114914772727,296.7481645906032L1138.2668437500001,312.3892321854765L1138.3806818181818,310.5159162307869L1138.949872159091,308.4661115349458L1139.5190625,310.2518639943121" style="fill: none;" fill="none"></path></g></g></g></g><g opacity="0.2"><g><g><g><path stroke="rgb(255, 112, 67)" stroke-width="2px" d="M114.97644886363636,74.41917087486908L115.54563920454545,42.27938155057939L116.11482954545454,69.34106796465298L119.5299715909091,98.00525281231593L120.09916193181817,129.31123789571944L121.80673295454545,63.55647684338578L122.37592329545456,128.42458812548216L124.08349431818182,82.19241922190946L124.65268465909091,78.32041529154127L125.22187500000001,72.44951764672882L126.36025568181817,122.01387016730531L126.92944602272728,72.84489046753188L128.63701704545454,103.38560732930922L129.20620738636364,137.42119243826016L130.34458806818182,140.5782166202116L132.62134943181817,144.25294496483195L133.19053977272728,127.56752229667234L134.32892045454545,93.1125531370775L134.89811079545456,73.66511696575657L135.46730113636363,90.24427147949773L136.03649147727273,81.80727657328437L136.6056818181818,105.25175898574713L140.59001420454547,70.0837333162229L141.15920454545454,142.16206812111818L141.72839488636362,83.6613891937109L142.29758522727272,133.36016430840277L142.86677556818182,121.62617965220781L143.43596590909092,86.58073299931465L144.57434659090907,98.26031391653865L145.14353693181818,170.320795204234L146.28191761363638,128.37330842922734L147.98948863636363,142.75222527492767L148.55867897727273,171.85710835360922L149.1278693181818,74.12429130988939L149.6970596590909,208.34805423474762L150.8354403409091,148.75725211351082L151.4046306818182,186.0257359262816L151.97382102272726,102.5883659651152L152.54301136363637,179.36549350158958L153.68139204545454,170.32973609582407L154.25058238636365,83.31704988773556L155.38896306818182,114.95378460145172L156.52734375,127.06434573470727L157.66572443181818,83.53760800561548L158.80410511363638,104.88179525477514L159.37329545454543,170.80566924788994L160.51167613636363,144.79475362649822L161.08086647727274,154.69505417165385L162.2192471590909,187.1276271589135L162.78843750000001,182.81344509204376L164.4960085227273,140.15257469190706L165.06519886363634,139.32740933918072L167.91115056818182,114.27527142632502L170.18791193181818,136.62351147549205L170.75710227272725,79.16927907767536L172.46467329545453,128.77613710002163L174.17224431818184,211.26644904789353L174.7414346590909,79.28206931930839L175.8798153409091,159.09066076632945L176.44900568181816,169.18446345037154L178.72576704545455,179.7548233822316L179.86414772727275,201.0689082732335L182.71009943181818,154.14981659678543L184.98686079545456,188.12463056618654L185.55605113636366,150.63315324743195L186.6944318181818,180.51754802441016L187.2636221590909,224.03544816255825L187.8328125,23.221354464202733L188.4020028409091,181.86198671925746L188.9711931818182,142.93748199211495L190.10957386363637,141.23316850263186L191.24795454545455,110.47898741454696L191.81714488636362,133.2390640269643L195.23228693181818,202.82078702684916L195.80147727272728,231.71528625959735L196.93985795454546,174.88199048241285L197.50904829545453,206.90975862175054L199.2166193181818,235.2631111644955L203.20095170454545,220.09692403998247M204.90852272727273,153.4285019215492L206.0469034090909,206.79699133780252L207.1852840909091,205.89527961872744L208.32366477272726,195.70767186683327L210.60042613636364,102.34656051431848L211.16961647727274,202.7756848660393L211.7388068181818,246.9924101330702L213.44637784090907,204.56497708066178L214.01556818181817,156.86581018611494L214.58475852272727,197.6661837202547L215.15394886363637,191.36029164145734L216.29232954545455,133.62462450640706L216.86151988636365,182.52573239627975L217.99990056818183,209.1948897120387L218.56909090909093,211.68600887595642L219.13828124999998,237.80726573776866L219.70747159090908,234.30077457456994L221.41504261363636,219.21240214075314L221.98423295454546,210.47037246890122L222.55342329545456,234.28907894226623L223.12261363636364,199.3305605722481L224.8301846590909,167.4255192765485L226.53775568181817,233.2309405167624L227.10694602272727,224.0328268509863L227.67613636363637,242.87419242469508L228.81451704545455,220.4980392439852L229.38370738636365,227.93366880957356L229.95289772727273,220.21657779268295L230.5220880681818,172.32023546912026L231.66046875,192.12975838890495L232.79884943181818,203.88552549297646L233.9372301136364,222.70652678691613L235.07561079545454,204.35786116077125L236.2139914772727,204.02250912930342L236.78318181818182,171.85862515509564L237.9215625,209.96106267390323L238.4907528409091,228.8484817076649L239.0599431818182,222.71558368825302L239.62913352272727,221.086375609499L240.19832386363635,196.66171677318596L241.33670454545452,200.2851122376522L241.90589488636363,243.55982481201931L244.18265625,179.23197769493058L245.89022727272726,224.26796273195052L247.59779829545454,210.1524433159288L248.73617897727274,267.10061040736207L249.30536931818182,236.83394436131752L249.87455965909092,248.51498763296323L251.01294034090907,217.8947291381929L251.58213068181817,216.9353782185453L252.72051136363635,217.1962808754442L253.28970170454545,204.73828023082316L253.85889204545455,240.7322352594936L254.42808238636363,234.84906480164204L257.2740340909091,221.44317565107235L257.84322443181816,242.29201004224234L258.4124147727273,227.71792792966934L260.11998579545457,256.5355777560938L260.68917613636364,178.20457351205621L261.2583664772727,187.88045015882253L261.8275568181818,215.91333223070674L262.9659375,197.32886345649254L267.5194602272727,230.91634107619487L268.08865056818183,247.72033906676631L269.7962215909091,220.51447747983545L270.3654119318182,232.39340232260182L270.93460227272726,217.01089702142428L272.07298295454547,223.04610924798567L273.2113636363636,235.50707823058343L274.3497443181818,220.14225016566255L274.9189346590909,201.22769461725574L276.0573153409091,202.2840047719106L277.1956960227273,209.12309520340548L277.7648863636364,205.35057636063488L278.9032670454545,201.81042106295632L281.74921875,238.85506400851963L282.3184090909091,233.0865046031997L282.8875994318182,244.49588316241983L283.45678977272723,248.4504931276246L284.02598011363636,162.87821865310613L286.87193181818185,213.700223889429L288.0103125,271.2193144606503L288.57950284090913,240.27502066585535L289.14869318181815,262.21100569715185L289.7178835227273,223.00067554934444L291.42545454545456,275.66253733849067L291.99464488636363,235.22767835506804L293.7022159090909,264.2649202018052L294.84059659090906,246.87386127588493L295.4097869318182,252.96762463151168L297.11735795454547,243.6243102826007L298.2557386363636,249.58211002019308L301.1016903409091,251.18378587028616L301.6708806818182,189.77577612647912L302.24007102272725,292.508294869652L302.8092613636364,180.82919438262277L303.37845170454545,220.97832430904313L305.6552130681818,236.9932192938251L306.2244034090909,227.40474495211674L307.3627840909091,245.06557376486924L309.07035511363637,233.7512658340599L309.63954545454544,251.77761587742478L310.2087357954546,224.79287095312128L310.77792613636365,267.14192401184187L311.9163068181818,245.0001102379802L313.0546875,230.60932228965854L314.1930681818182,236.03262897037465L314.7622585227272,229.0488287536372L315.33144886363635,246.02658907376042L315.9006392045454,260.8827691157012L317.03901988636363,226.09519539103061L317.60821022727276,214.90931257390187L318.74659090909086,258.3673471831184L319.88497159090906,210.8590156120398L320.4541619318182,274.30738380409457L321.02335227272727,244.31215457866216L321.5925426136364,227.9254690561312L322.16173295454547,245.35089147296677L322.73092329545455,221.24676974621053L323.3001136363636,253.47609829750832L326.7152556818182,248.68832563312873L327.28444602272725,257.3296055547077L328.42282670454546,227.20512281956894L328.9920170454546,262.27771821133706L331.2687784090909,262.2070872915347L332.9763494318182,285.401058029049L333.54553977272724,242.6791967646861L335.2531107954545,257.6842351224996L335.82230113636365,256.94289098516737L336.3914914772727,226.80578037448208L336.96068181818185,245.67990002833335L337.52987215909087,239.77507648535124L338.0990625,223.8912334514068L338.6682528409091,239.76268685003342L339.2374431818182,232.47940581460946L339.8066335227273,274.7562127384983L340.37582386363636,218.30515784285618L340.9450142045455,285.3009617135335L342.08339488636364,262.77753415999996L342.6525852272727,263.7253397487687L343.7909659090909,250.04511357665925L344.92934659090906,250.7621359476734L346.06772727272727,260.91371429474987L346.63691761363634,251.75301856691084L348.3444886363637,252.1861612219461L348.9136789772727,257.76467055355255L349.4828693181818,229.11939242383266L350.0520596590909,230.96149239773683L351.7596306818182,277.80848196580666L352.32882102272725,257.6206718160676L353.46720170454546,245.92575028497862L354.03639204545453,272.0096975054713L355.74396306818187,288.9726564037031L356.3131534090909,257.4806280051842L358.5899147727273,221.28627248896993L359.1591051136364,233.2627401301242L360.86667613636365,259.5499546520778L361.4358664772727,249.57524102749673L362.0050568181818,299.2157248015208L362.57424715909093,287.94870308460327L363.14343749999995,214.6177713203864L363.7126278409091,270.6688704821992L364.28181818181815,246.12587713996558L364.8510085227273,217.36857772579054L365.9893892045455,245.47248468607208L366.55857954545456,286.91278046080976L367.1277698863636,240.8934909171243L367.6969602272727,273.94717929051865L369.9737215909091,233.62636197890106L370.5429119318182,254.75478845817128L371.1121022727273,246.87552434719262L371.68129261363634,280.7044170773778L372.2504829545455,225.42049393150168L373.3888636363636,278.63490663011123L374.5272443181818,272.7475104151186L375.665625,272.04014445258923L376.2348153409091,255.0126005417228L376.8040056818182,239.4257451681925L377.9423863636364,240.0324787407124L378.5115767045454,236.88800913351096L379.08076704545454,287.428051580042L380.21914772727274,253.58886532650854L381.35752840909095,290.3737928931927L381.92671874999996,251.73720458805684L383.63428977272724,287.33090786664286L384.2034801136364,251.94293326077863L385.9110511363636,260.6336016706946L386.4802414772727,245.862989993128L387.0494318181818,254.9689780960043L387.61862215909093,261.31308662579943L388.1878125,241.62332865487323L388.7570028409091,256.8353421630983L389.3261931818182,257.545958457029L390.46457386363636,262.3110873711184L391.03376420454543,249.11109550624224L391.60295454545457,251.4355768595736L392.17214488636364,298.713181592565L393.3105255681818,276.34515680449744L395.01809659090907,262.5922559755213L395.5872869318182,248.36908171195003L397.2948579545454,263.10363698311585L399.00242897727276,243.23806800636484L399.57161931818183,236.94661286561424L400.1408096590909,265.33715754505573L401.8483806818182,271.5454933858835L402.9867613636364,248.8279000091573L403.55595170454546,220.458862976347L404.1251420454546,248.49292071054006L404.6943323863636,255.9095069513928L405.2635227272727,241.90797392171547L405.8327130681818,241.52705665188873L406.4019034090909,268.0427307142314L407.5402840909091,285.54137156083505L408.1094744318182,259.9015070692479L408.67866477272725,252.74014578148612L409.2478551136364,255.7206527222043L409.81704545454545,289.1365796523631L410.3862357954545,269.3551816135857L411.5246164772727,293.3239923520964L415.5089488636364,278.9244655328328L417.21651988636364,242.0141433731382L417.7857102272727,242.24590515843508L418.9240909090909,285.99631075815313L419.49328125000005,225.40718285944632L420.06247159090907,273.7720243784064L420.6316619318182,283.4802069167475L421.2008522727273,277.1175872900702L421.77004261363635,295.34019093989L422.3392329545455,284.24388994614037L422.9084232954545,284.63549890752523L423.4776136363636,231.54614893194642L424.61599431818183,238.13089741760987L425.1851846590909,279.13284109128426L426.89275568181813,244.1920294197107L428.03113636363634,215.06676375067622L429.16951704545454,266.9685570263451L429.73870738636367,250.14869583136993L430.30789772727275,236.6299857392575L433.7230397727273,257.4545084041097L434.2922301136363,295.1402397466168L434.86142045454545,278.1303017577335L437.13818181818186,294.454728996184L437.70737215909094,278.08856373994246L438.8457528409091,209.10964311525393L439.9841335227273,284.0289472388511L441.6917045454545,277.17727029600695L443.9684659090909,268.70403860636947L446.2452272727273,252.57520184739707L446.81441761363635,252.0521285058132L447.3836079545455,274.0337711858807L448.52198863636363,251.821556697205L449.09117897727276,259.09336589442364L449.6603693181818,318.55436078719885L450.2295596590909,279.3839562724974L450.79875,285.4711888789413L451.9371306818182,299.2099323554807L453.07551136363634,298.1016035339189L453.6447017045454,248.26573392338713L454.21389204545454,278.4951145446917L454.7830823863636,263.6596063907264L455.35227272727275,293.6156529287121L455.9214630681818,292.46783128160484L456.49065340909095,286.1476024787309L457.6290340909091,272.2993384106336L459.3366051136364,250.2938994194875L460.47498579545453,276.76944257355694L462.1825568181818,271.66674522966605L462.75174715909094,268.3707134308309L463.89012784090914,285.5338512141907L464.45931818181816,271.16757618830377L465.02850852272724,269.5880652664928L466.16688920454544,275.7891653262467L467.30526988636365,253.71252347451403L467.8744602272728,257.7665446539403L469.58203125,271.37687183660887L470.1512215909091,278.1534950166631L470.7204119318182,248.0847102942174L471.2896022727272,281.07448863238966L473.56636363636363,243.69690400958112L474.13555397727276,249.55463703013987L474.70474431818184,231.5362094511367L475.843125,291.48842446762075L477.55069602272727,239.80760143122137L478.1198863636364,281.7563320867309L478.68907670454547,321.81895717041687L479.25826704545455,288.94665841728465L479.8274573863636,277.30133127352656L480.3966477272727,263.1987202740901L482.67340909090905,251.35332681851486L483.81178977272725,234.76383100097175L484.3809801136364,259.99534547678473L484.95017045454546,240.12413385408104L485.5193607954546,278.4881320045826L486.08855113636366,250.30428549818674L487.7961221590909,267.89061491762186L488.3653125,314.82654475383964L488.9345028409091,262.36607611894266L492.9188352272727,259.8402735562004L494.62640625,267.7325076191428L497.4723579545455,226.1153047110059L498.0415482954545,276.43169388624545L498.61073863636364,264.50572354564383L500.3183096590909,293.1744189147119L501.45669034090906,275.1419744521459L502.02588068181814,219.85932516114144L502.59507102272727,283.74802957289023L503.16426136363634,265.91454674933743L504.30264204545455,227.6129662129262L507.14859375000003,303.3015229727735L507.7177840909091,253.81300420944729L508.2869744318182,234.45877883154256L508.85616477272725,264.61227323336294L509.42535511363633,283.78986631562987L509.99454545454546,315.27130786385516L511.13292613636366,289.413030778915L512.8404971590909,271.65374950413303L513.4096875,284.9190581966235L514.5480681818182,300.3108488981844L516.8248295454546,264.38524554397776L517.3940198863637,240.1505660395515L518.5324005681817,299.2012478004371L520.2399715909091,283.29391278801916L521.3783522727273,301.025382439811L522.5167329545454,279.2782657426535L523.0859232954546,255.42620955492558L523.6551136363636,261.1636095373094L524.7934943181818,220.14602731870656L525.362684659091,293.4138470333751L525.931875,307.6184946568344L526.5010653409091,301.3713402377898L527.0702556818181,311.2757221539744L527.6394460227273,286.22081591603074L528.2086363636364,296.2396076281388L529.3470170454545,286.3067168245622L529.9162073863636,256.4820138784153L530.4853977272727,279.1211179487106L533.3313494318181,269.44191245493806L533.9005397727273,283.1299829137039L534.4697301136364,261.0976841196548L535.6081107954545,281.12234778604045L536.1773011363637,258.5200304209368L536.7464914772728,261.8508241595835L537.3156818181818,303.5830925355409L541.3000142045454,251.01803812302686L543.0075852272728,306.01230828009693L543.5767755681818,304.09690388117673L544.71515625,294.8466354467012L547.5611079545455,238.25730215191427L548.1302982954545,302.5907239762414L548.6994886363636,271.74912039214195L549.8378693181818,311.5852925415073L550.4070596590909,272.8264363701026L550.97625,271.76863423788524L551.5454403409091,290.6141872221714L552.1146306818182,279.6027665805709L552.6838210227272,263.4984388759901L553.2530113636363,287.01459119551413L554.3913920454546,277.5822389818006L554.9605823863636,295.2346110707415L556.0989630681818,256.95031416264806L556.6681534090909,305.13603656252496L557.23734375,268.92269158979593L557.806534090909,311.22312818450337L558.3757244318182,303.6741005157977L558.9449147727272,292.6568219357382L560.6524857954546,308.88608953348484L561.7908664772727,261.2742414276101L562.3600568181819,277.7715012025001L563.4984375,279.49683237011004L564.6368181818182,268.46702709341105L565.7751988636364,309.28128235536576L566.3443892045455,284.98634352333727L566.9135795454545,284.7473270482971L568.0519602272727,306.65214914586494L568.6211505681819,328.26010094721113L570.8979119318182,298.82270991517L571.4671022727273,315.73194078822826L572.0362926136364,313.8891276679043L572.6054829545454,292.9599915221926L574.3130539772727,240.87468692251232L576.020625,301.472115112808L578.8665767045454,310.90163101474116L579.4357670454546,268.5445722923333L580.5741477272727,265.81874621569466L581.1433380681818,305.1730353337314L581.7125284090909,248.16925797636307L582.8509090909091,306.3988242768349L583.4200994318181,263.311750156839L583.9892897727273,309.4166030550164L584.5584801136364,261.1636095373094L586.8352414772727,278.49744587272886L587.4044318181818,285.5965549264157L588.5428125,288.645656381032L589.1120028409091,328.26010094721113L589.6811931818181,278.5347104832243L590.8195738636364,285.00129833198736L591.3887642045455,305.5251854843674L592.5271448863637,314.7207874988993L593.0963352272727,294.02877933575985L594.2347159090909,268.52989780194497L597.0806676136364,258.06459521476893L597.6498579545455,241.99987072714237L599.3574289772728,232.67320064981746L600.4958096590909,274.55275080229836L601.0649999999999,247.03586493964227L602.7725710227273,263.2304295712691L603.3417613636364,261.2528805624972L603.9109517045455,230.4126776318766L605.6185227272728,256.17599754869013L606.1877130681818,252.14028508220815L608.4644744318182,253.4939876684785L609.0336647727273,282.78105164021423L614.7255681818182,286.6156074566199L615.8639488636363,303.6710614105053L616.4331392045455,280.20531048977455L617.0023295454546,286.35981424186417L617.5715198863636,279.153932981249L618.1407102272727,282.9321765112954L618.7099005681818,269.88102717835847L619.84828125,253.325950266299L620.9866619318182,280.76400490755486L622.6942329545454,273.93830117687224L623.8326136363636,287.27215667488986L624.4018039772727,289.91845182603737L626.109375,321.01772720043044L626.6785653409091,286.0694075987946L627.8169460227273,293.59927166388195L628.9553267045455,261.7141549911237L629.5245170454544,289.8659489771909L630.0937073863636,262.1267161663224L631.2320880681818,233.6118495751756L631.8012784090909,268.2347906474845L632.9396590909091,287.88956854026617L633.5088494318181,270.65386404398885L634.6472301136364,310.44096562849336L635.7856107954545,286.9204108126583L636.3548011363637,316.33343822950013L636.9239914772728,291.1899094711614L637.4931818181817,295.1735412351219L638.6315625,304.139593348431L640.9083238636364,314.0041107992361L641.4775142045455,286.4255942007234L642.0467045454545,322.9090418350679L642.6158948863637,253.13681351427445L643.1850852272728,324.2678012273166L643.7542755681818,270.22824287661297L644.3234659090909,318.31681281424045L644.8926562500001,243.66140407439806L645.4618465909091,304.4818090297949L647.7386079545454,314.25144797628855L648.8769886363636,260.9640321122582L649.4461789772728,279.4215704690591L651.1537500000001,206.99744415533192L653.4305113636364,253.69997085514174L653.9997017045454,326.31806859654523L655.1380823863636,298.5175080308502L656.2764630681818,296.5347450055275L656.8456534090909,291.48842446762075L657.41484375,266.826377817516L659.1224147727273,266.56114866823526L659.6916051136365,264.9871477235321L660.2607954545454,286.02403093716885L660.8299857954545,284.7473270482971L661.3991761363636,319.2205209801889L661.9683664772728,267.99269410272075L662.5375568181818,287.67391438927655L663.6759375,294.52911806091487L664.245127840909,258.55965473725894L665.9526988636364,337.0578865148049L668.7986505681818,265.0740257075762L669.93703125,255.06534172282596L670.506221590909,301.81375378869285L671.6446022727273,295.1041862254936L672.2137926136364,272.373520983101L672.7829829545454,302.31507323029007L674.4905539772728,297.5650554852385L675.6289346590909,275.71453099023825L676.198125,302.30310437655095L676.767315340909,260.86923204135826L677.9056960227273,251.61784712980474L679.0440767045454,282.53780134416684L679.6132670454546,306.67407363715364L680.1824573863637,269.2896564484556L681.3208380681818,253.4224503966047L681.890028409091,302.2403033238286L683.028409090909,276.3474359421687L683.5975994318181,261.1946556382916L684.1667897727273,251.14188692514622L684.7359801136364,297.29224080023084L685.3051704545454,319.49618686228195L685.8743607954545,308.83800350743616L688.7203125000001,260.8131677923008L689.8586931818181,286.3016606148732L690.9970738636363,324.4791582937266L691.5662642045454,278.0584353184427L692.1354545454545,314.0244111793472L694.9814062500001,290.0235384223719L697.2581676136363,337.694112836781L698.3965482954545,310.8983515732171L698.9657386363637,262.58044456986624L702.3808806818182,288.092834878892L702.9500710227273,286.9178693157646L703.5192613636364,277.29214494286566L704.0884517045455,258.15099860879633L704.6576420454545,297.94146431519584L706.9344034090909,298.75063885885993L708.0727840909091,259.5442349721L708.6419744318182,269.46731725438997L710.3495454545455,294.9711672257618L712.0571164772726,305.43238692987154L712.6263068181818,289.3347083209402L714.333877840909,263.3038126825971L715.4722585227273,287.48945610434714L716.0414488636363,293.7003182243264L716.6106392045455,248.64581067416762L717.7490198863637,287.3948038113201L719.456590909091,309.9209189863334L720.0257812499999,282.35576733225025L720.594971590909,316.8236706399086L721.7333522727273,308.36490165802326L722.3025426136363,278.17669394174885L722.8717329545455,264.48563485735644L723.4409232954546,299.7587986778412L724.0101136363636,332.7816242097658L724.5793039772727,299.3026400976562L726.2868749999999,292.5325838752266L726.856065340909,255.50475411661162L727.9944460227273,292.724411698287L728.5636363636363,315.61140954156167L729.1328267045454,293.92464672327674L730.8403977272727,278.63490663011123L731.4095880681818,242.2665669601637L731.978778409091,295.8335400824513L734.2555397727272,286.49142579608093L734.8247301136363,288.49550931558167L735.3939204545454,273.84514691942974L738.239872159091,299.8054099353967L739.3782528409091,278.73755696942555L740.5166335227273,217.8529248990753L741.0858238636364,265.3797317224028L741.6550142045455,325.94128061002317L743.3625852272727,305.82895751205626L743.9317755681818,304.96974959605967L744.500965909091,269.94271084626615L745.07015625,337.79404671705726L745.6393465909091,310.1123514364797L746.2085369318182,316.3507860655967L746.7777272727272,334.08536707813175L747.3469176136364,272.7453265102484L748.4852982954546,255.1781892982543L750.1928693181818,298.2476809221959L751.33125,322.10965340649875L751.9004403409091,327.6682275407796L753.6080113636364,269.52661146334543L754.1772017045455,325.0400251514531L755.3155823863636,322.58996033205L755.8847727272728,266.591954193324L756.4539630681819,287.6764823160757L757.0231534090908,294.3253636252953L757.5923437499999,308.53404821971213L758.7307244318182,307.52362876104627L759.2999147727272,287.62264375950605L759.8691051136364,273.072394817662L760.4382954545455,278.3322852963346L761.5766761363636,259.9244832438805L763.2842471590909,250.11933756225426L764.9918181818182,277.3657263041289L765.5610085227272,289.6379121848454L766.6993892045455,299.4099450757963L767.2685795454545,299.7529730110891L767.8377698863636,327.39899850708775L768.4069602272727,313.5012567050373L768.9761505681819,237.17686362730075L769.5453409090909,292.6973661522842L770.6837215909092,277.39564668547933L772.9604829545455,278.03989440222375L773.5296732954545,308.2597260987164L774.6680539772727,290.489952427641L775.8064346590909,324.7894953664336L776.9448153409091,314.91532925243416L777.5140056818182,286.02151331765475L780.3599573863636,288.7830624073614L780.9291477272727,299.0045669901512L781.4983380681819,290.96397898681136L782.63671875,301.32395416248835L783.2059090909091,256.9633039074037L783.7750994318181,330.18249028391983L786.0518607954544,308.95344478418104L787.1902414772727,274.7584540567562L788.3286221590909,279.93782506008455L789.4670028409091,294.3391225483874L790.0361931818181,326.3488882170834L790.6053835227273,307.44464492392336L792.3129545454545,321.58410318423336L792.8821448863637,315.17533706033794L793.4513352272728,250.80213432223047L794.0205255681817,291.8360977739351L794.5897159090908,294.14126598420785L795.15890625,292.43816508095466L796.7526392045455,290.97194192322763L796.8664772727273,316.71218870740796L798.5740482954545,292.86244132713824L799.1432386363637,310.87215914694104L799.7124289772728,269.79176737894994L800.8508096590909,258.7788316169132L801.4200000000001,286.4686336998709L803.1275710227272,318.3628609231358L803.6967613636364,291.9916252547544L804.2659517045454,299.2475861188333L805.4043323863636,304.49099022138387L805.9735227272728,325.86840566466975L808.2502840909092,271.97924995216744L808.8194744318181,272.714652656432L809.9578551136364,319.0633549552952L811.6654261363636,305.8010184652082L812.2346164772728,272.3015120825407L813.9421875,298.6901430622942L814.5113778409092,227.42786315673183L817.3573295454545,241.70862740628854L818.4957102272728,290.39489938259874L819.0649005681818,320.5742891325855L819.6340909090909,301.9120161882878L820.20328125,260.92725771221654L820.772471590909,304.33804726943333L821.3416619318182,311.75697779319205L821.9108522727273,316.6182342592274L823.6184232954545,329.5665844919734L824.1876136363636,292.61089145268124L824.7568039772727,330.95599557348737L825.3259943181818,273.90502886327863L826.464375,300.47797609659676L827.6027556818182,267.55598239396596L828.1719460227273,276.4772634060479L829.8795170454546,273.68345458647013L830.4487073863637,295.8614872234972L832.1562784090909,284.97138512699877L833.8638494318182,327.12663999445954L834.4330397727273,291.6754740014874L836.1406107954546,306.2895619272722L838.9865625000001,274.87715939347027L839.555752840909,301.9477796545402L840.1249431818181,266.3540047677868L841.2633238636364,272.53518574556267L842.4017045454545,315.23016680981266L844.1092755681818,300.89560270204663L845.816846590909,317.05750807987187L846.9552272727273,327.12663999445954L848.6627982954545,314.5981304632129L850.3703693181818,309.57794766015354L851.5087500000001,311.1278733512857L852.0779403409091,291.76378153749323L853.2163210227274,245.6403521634214L853.7855113636363,279.6475241214826L854.9238920454545,298.9959011956041L856.0622727272727,285.00129833198736L858.3390340909091,251.28337522954487L860.0466051136364,256.1152860683241L860.6157954545455,270.72463383671936L861.1849857954545,317.6710014049289L864.0309374999999,269.05118061123363L865.1693181818182,313.9398414407376L865.7385085227273,312.893965585212L866.3076988636363,317.15190671286115L866.8768892045455,296.18910271398465L867.4460795454546,258.3070946891448L868.5844602272726,301.3683810050672L872.5687926136363,273.21763199771857L875.983934659091,311.4534372570175L877.6915056818182,291.65675245938365L878.2606960227273,342.55875741371443L879.3990767045455,347.8213156785154L879.9682670454546,305.50352462142484L881.6758380681819,335.21244959227727L882.245028409091,289.9814885747655L883.383409090909,285.8955853567216L883.9525994318182,296.60233876511256L885.0909801136363,318.27078702420243L885.6601704545454,286.54968974522967L886.7985511363636,298.7477601769529L889.0753125,257.5291498178011L889.6445028409091,321.56212083318246L890.2136931818183,327.53156399968924L890.7828835227272,297.4086560721882L891.3520738636363,330.5322029094804L893.6288352272727,305.71415280344263L894.1980255681818,297.65047233440436L895.33640625,286.59278553870666L895.9055965909091,287.7508783939119L898.1823579545455,283.2229207155688L898.7515482954547,281.4724367991235L901.028309659091,327.5862058165722L901.5975,278.044534816342L902.1666903409091,293.81241623114954L903.8742613636364,307.09790489093996L904.4434517045455,280.56392425611153L905.5818323863635,299.3316341586804L907.2894034090908,283.3453515750629L907.85859375,313.3801558157619L908.9969744318182,320.80665585069505L909.5661647727272,329.53868389872514L911.2737357954546,279.2219462680362L912.4121164772728,292.9518601265453L916.9656392045455,317.1169286822515L918.6732102272728,292.900366683889L919.2424005681819,296.06856812575444L920.3807812499999,321.96603202996334L921.5191619318182,327.01791493886793L922.0883522727272,323.9403757821469L927.2110653409092,331.1990174541842L927.7802556818183,327.85989686236553L928.3494460227272,288.7182258025523L928.9186363636363,332.44819090406037L930.0570170454545,269.80452087928046L931.1953977272727,324.7894953664336L931.7645880681819,301.4691456680327L932.3337784090909,225.44046721350094L932.90296875,287.52529477276994L934.6105397727273,294.99886167906214L935.7489204545456,264.3571563093512L936.3181107954545,304.64417990106745L936.8873011363636,285.9257911602091L937.4564914772727,288.648244544033L938.0256818181819,287.6252041892981L938.5948721590909,316.5139428958162L939.1640625,335.6279544559455L940.3024431818181,262.3464349627546L940.8716335227273,329.3794103609711L941.4408238636364,247.06763387541528L942.0100142045455,337.0578865148049L942.5792045454544,323.75645809254445L943.1483948863636,294.1632267903691L943.7175852272727,260.61817799255533L944.2867755681818,322.6826082569649L944.8559659090909,292.86244132713824L945.42515625,284.4196689694717L945.9943465909091,341.61274742744354L949.4094886363637,316.8271529239531L951.1170596590908,326.8008283410321L951.68625,303.2199303184038L952.8246306818181,292.01041294068733L953.3938210227273,318.63604468853333L955.6705823863637,276.2405273333354L956.2397727272728,270.4418909647677L956.8089630681818,280.12711345849215L957.3781534090909,311.22312818450337L959.0857244318181,308.7643244599184L959.6549147727272,302.99366079133637L960.2241051136364,300.6924395326257L960.7932954545454,293.1119400518731L961.3624857954545,249.6834669784378L962.5008664772728,320.15457473039766L963.0700568181818,322.6381196103242L965.3468181818181,322.7642072542174L965.9160085227272,271.788162438845L966.4851988636364,320.4764280862346L967.6235795454545,326.94420013048784L969.3311505681818,291.5925941423744L971.6079119318182,297.77018378941614L972.1771022727273,279.2313323924802L972.7462926136365,339.15133650622084L973.8846732954545,309.52628539942066L975.0230539772728,322.0912298426108L975.5922443181818,268.68304194444676L979.5765767045453,293.446541964036L981.2841477272727,342.9939883375869L982.4225284090909,285.762285709596L983.560909090909,285.7597750199285L985.2684801136364,282.1063488898955L985.8376704545454,277.85703281317376L987.5452414772728,311.8661013053556L988.1144318181817,299.8345509879817L989.2528125,321.52548033147724L989.822002840909,289.96046750001335L992.0987642045454,322.34211294264264L993.2371448863637,335.39030053074663L993.8063352272727,296.5206709836468L995.5139062500001,207.86213831742006L996.083096590909,290.77832433325756L996.6522869318181,283.06399971196356L997.7906676136364,320.3352625474357L998.9290482954545,257.3724598916288L1000.0674289772727,266.72143487009396L1000.6366193181818,306.68974349029077L1001.7750000000001,343.39433071243593L1002.9133806818181,303.895913697254L1003.4825710227273,332.67858578759996L1004.0517613636363,301.12874232922877L1005.1901420454545,251.48286782972917L1006.3285227272727,315.61485585816143L1006.8977130681818,294.56771507074234L1007.466903409091,300.5161291416059L1008.0360937500001,275.3895102758057L1008.6052840909091,291.7209541532782L1009.7436647727274,326.0603107086312L1010.8820454545454,312.01178676160265L1011.4512357954545,297.7245606579954L1012.0204261363637,286.5040890939129L1012.5896164772727,273.9094609722166L1013.1588068181818,299.34033064691806L1014.8663778409091,312.16765026112313L1017.7123295454545,267.8302495204015L1020.5582812499999,289.6326754607423L1021.1274715909091,320.61781244059915L1021.6966619318182,263.0719699895111L1023.9734232954546,348.2619870692707L1024.5426136363637,296.7574079863666L1025.1118039772728,311.8958833223279L1029.0961363636363,279.1984906070151L1029.6653267045454,329.93404737067254L1030.8037073863636,263.42888372045275L1031.3728977272726,282.9980681472108L1031.9420880681819,314.97684724229845L1032.511278409091,304.972830550797L1033.08046875,295.0293388732707L1034.7880397727274,329.18069574355314L1035.9264204545455,287.04515510607837L1037.0648011363635,286.9484021062126L1038.2031818181817,316.4236518116048L1038.772372159091,336.7220244896233L1040.4799431818183,339.76628388986046L1041.0491335227273,302.04618091070625L1043.3258948863636,319.2312523295429L1043.8950852272726,297.2156495084213L1044.4642755681818,284.89165865895524L1045.0334659090909,282.5572359047376L1046.1718465909091,270.7353648551817L1046.7410369318181,292.67304141183473L1049.5869886363637,332.1773627891213L1050.1561789772727,306.4581857043018L1051.294559659091,302.52473699452224L1052.432940340909,317.27441050517785L1053.0021306818182,278.79358980656207L1053.5713210227273,305.81963864876565L1054.1405113636363,323.18073032991225L1055.2788920454545,310.9540393612776L1056.4172727272728,305.51280513551893L1056.9864630681818,337.5509164866138L1058.694034090909,299.47670971073046L1059.8324147727271,296.73765734524494L1060.9707954545454,312.03498443503133L1062.6783664772727,312.8237575729529L1063.247556818182,327.36393586533393L1065.5243181818182,314.0481058233669L1067.2318892045455,253.36346502282214L1068.3702698863635,285.35599954139394L1068.9394602272728,291.97284128519686L1069.5086505681818,299.61037996867384L1070.0778409090908,312.6634733589582L1071.7854119318183,320.9485244194677L1072.3546022727273,321.45225916602055L1072.9237926136364,306.7367461504673L1073.4929829545456,332.8971569820854L1074.0621732954546,284.86925320999376L1074.6313636363636,321.6390988214449L1076.338934659091,307.13251672220315L1076.908125,340.5730465297298L1077.4773153409092,323.43077911505094L1078.6156960227272,286.734872395629L1079.1848863636365,321.65009827432874L1079.7540767045455,290.247233532814L1080.3232670454545,323.6065771830049L1080.8924573863635,265.308785360686L1081.4616477272727,291.0968156543552L1082.6000284090908,296.6220612785985L1084.3075994318183,338.9927118601017L1085.4459801136363,319.5141222720082L1086.0151704545456,301.3061948899198L1086.5843607954546,282.70314233760536L1087.1535511363636,296.12741613965L1089.4303125,322.260875690452L1090.5686931818182,253.36703497827526L1091.1378835227272,314.80948126324836L1092.8454545454545,333.7015168559214L1093.4146448863637,300.7836586128847L1093.9838352272727,303.8046929890892L1094.553025568182,305.32114529280136L1097.3989772727273,317.6006917350733L1101.9525,283.1568787566742L1102.5216903409091,300.710091394939L1103.0908806818181,291.4644010418166L1104.7984517045454,280.7950099121473L1105.9368323863637,335.6109666719271L1106.5060227272727,300.1966686853936L1107.0752130681817,327.84423397262225L1107.644403409091,305.17919584567596L1108.21359375,324.54341989083974L1108.7827840909092,259.1693071981441L1109.3519744318182,291.52580491044023L1110.4903551136365,288.05935971727837L1111.0595454545455,327.06060689664304L1112.7671164772728,283.711125271313L1115.613068181818,315.57356572625906L1116.1822585227274,264.8842167106645L1117.3206392045454,297.7844442391773L1117.8898295454544,303.5315554605312L1119.0282102272727,282.02174367946895L1119.5974005681817,335.3098043342736L1120.73578125,328.40569468128626L1123.0125426136365,309.8917498800525L1123.5817329545455,275.88199000478284L1124.1509232954545,300.1644943599159L1125.8584943181818,285.45615989196114L1126.4276846590908,318.3309803840099L1128.135255681818,306.58327973533835L1128.7044460227273,331.6869350368143L1129.2736363636363,322.4123303628409L1129.8428267045454,297.3319776330629L1130.9812073863636,273.9094609722166L1131.5503977272729,329.8780381251743L1132.688778409091,345.0174582734787L1133.827159090909,315.1993206697229L1134.9655397727272,300.12939611715774L1135.5347301136364,297.45412764461327L1137.2423011363637,289.1313705014278L1137.8114914772727,290.4397764840806L1138.2668437500001,354.32975899326516L1138.3806818181818,306.8873246684528L1138.949872159091,304.5062966135238L1139.5190625,313.91616573213713" style="fill: none;" fill="none"></path></g></g></g></g></g></g><g transform="translate(30, 377)" clip-path="url(#clip_1)"><clipPath id="clip_1"><rect width="1252" height="23"></rect></clipPath><g><g><line x1="0" y1="0" x2="0" y2="5" style="visibility: inherit;" fill="rgb(0, 0, 0)" stroke="rgb(204, 204, 204)" stroke-width="1px"></line><line x1="113.83806818181819" y1="0" x2="113.83806818181819" y2="5" style="visibility: inherit;" fill="rgb(0, 0, 0)" stroke="rgb(204, 204, 204)" stroke-width="1px"></line><line x1="227.67613636363637" y1="0" x2="227.67613636363637" y2="5" style="visibility: inherit;" fill="rgb(0, 0, 0)" stroke="rgb(204, 204, 204)" stroke-width="1px"></line><line x1="341.5142045454545" y1="0" x2="341.5142045454545" y2="5" style="visibility: inherit;" fill="rgb(0, 0, 0)" stroke="rgb(204, 204, 204)" stroke-width="1px"></line><line x1="455.35227272727275" y1="0" x2="455.35227272727275" y2="5" style="visibility: inherit;" fill="rgb(0, 0, 0)" stroke="rgb(204, 204, 204)" stroke-width="1px"></line><line x1="569.1903409090909" y1="0" x2="569.1903409090909" y2="5" style="visibility: inherit;" fill="rgb(0, 0, 0)" stroke="rgb(204, 204, 204)" stroke-width="1px"></line><line x1="683.028409090909" y1="0" x2="683.028409090909" y2="5" style="visibility: inherit;" fill="rgb(0, 0, 0)" stroke="rgb(204, 204, 204)" stroke-width="1px"></line><line x1="796.8664772727273" y1="0" x2="796.8664772727273" y2="5" style="visibility: inherit;" fill="rgb(0, 0, 0)" stroke="rgb(204, 204, 204)" stroke-width="1px"></line><line x1="910.7045454545455" y1="0" x2="910.7045454545455" y2="5" style="visibility: inherit;" fill="rgb(0, 0, 0)" stroke="rgb(204, 204, 204)" stroke-width="1px"></line><line x1="1024.5426136363637" y1="0" x2="1024.5426136363637" y2="5" style="visibility: inherit;" fill="rgb(0, 0, 0)" stroke="rgb(204, 204, 204)" stroke-width="1px"></line><line x1="1138.3806818181818" y1="0" x2="1138.3806818181818" y2="5" style="visibility: inherit;" fill="rgb(0, 0, 0)" stroke="rgb(204, 204, 204)" stroke-width="1px"></line><line x1="1252.21875" y1="0" x2="1252.21875" y2="5" style="visibility: inherit;" fill="rgb(0, 0, 0)" stroke="rgb(204, 204, 204)" stroke-width="1px"></line></g><g transform="translate(0, 8)"><text x="0" y="0" dx="0em" dy="0.95em" style="text-anchor: middle; visibility: hidden; font-family: Roboto, sans-serif; font-size: 12px; font-weight: 200;" fill="rgb(255, 255, 255)" stroke="none" stroke-width="1px">-1k</text><text x="113.83806818181819" y="0" dx="0em" dy="0.95em" style="text-anchor: middle; visibility: inherit; font-family: Roboto, sans-serif; font-size: 12px; font-weight: 200;" fill="rgb(255, 255, 255)" stroke="none" stroke-width="1px">0</text><text x="227.67613636363637" y="0" dx="0em" dy="0.95em" style="text-anchor: middle; visibility: inherit; font-family: Roboto, sans-serif; font-size: 12px; font-weight: 200;" fill="rgb(255, 255, 255)" stroke="none" stroke-width="1px">1k</text><text x="341.5142045454545" y="0" dx="0em" dy="0.95em" style="text-anchor: middle; visibility: inherit; font-family: Roboto, sans-serif; font-size: 12px; font-weight: 200;" fill="rgb(255, 255, 255)" stroke="none" stroke-width="1px">2k</text><text x="455.35227272727275" y="0" dx="0em" dy="0.95em" style="text-anchor: middle; visibility: inherit; font-family: Roboto, sans-serif; font-size: 12px; font-weight: 200;" fill="rgb(255, 255, 255)" stroke="none" stroke-width="1px">3k</text><text x="569.1903409090909" y="0" dx="0em" dy="0.95em" style="text-anchor: middle; visibility: inherit; font-family: Roboto, sans-serif; font-size: 12px; font-weight: 200;" fill="rgb(255, 255, 255)" stroke="none" stroke-width="1px">4k</text><text x="683.028409090909" y="0" dx="0em" dy="0.95em" style="text-anchor: middle; visibility: inherit; font-family: Roboto, sans-serif; font-size: 12px; font-weight: 200;" fill="rgb(255, 255, 255)" stroke="none" stroke-width="1px">5k</text><text x="796.8664772727273" y="0" dx="0em" dy="0.95em" style="text-anchor: middle; visibility: inherit; font-family: Roboto, sans-serif; font-size: 12px; font-weight: 200;" fill="rgb(255, 255, 255)" stroke="none" stroke-width="1px">6k</text><text x="910.7045454545455" y="0" dx="0em" dy="0.95em" style="text-anchor: middle; visibility: inherit; font-family: Roboto, sans-serif; font-size: 12px; font-weight: 200;" fill="rgb(255, 255, 255)" stroke="none" stroke-width="1px">7k</text><text x="1024.5426136363637" y="0" dx="0em" dy="0.95em" style="text-anchor: middle; visibility: inherit; font-family: Roboto, sans-serif; font-size: 12px; font-weight: 200;" fill="rgb(255, 255, 255)" stroke="none" stroke-width="1px">8k</text><text x="1138.3806818181818" y="0" dx="0em" dy="0.95em" style="text-anchor: middle; visibility: inherit; font-family: Roboto, sans-serif; font-size: 12px; font-weight: 200;" fill="rgb(255, 255, 255)" stroke="none" stroke-width="1px">9k</text><text x="1252.21875" y="0" dx="0em" dy="0.95em" style="text-anchor: middle; visibility: hidden; font-family: Roboto, sans-serif; font-size: 12px; font-weight: 200;" fill="rgb(255, 255, 255)" stroke="none" stroke-width="1px">10k</text></g><line x1="0" y1="0" x2="1252.21875" y2="0" fill="rgb(0, 0, 0)" stroke="rgb(204, 204, 204)" stroke-width="1px"></line></g></g></g></g></svg>