<svg viewBox="0 0 1283 400" xmlns="http://www.w3.org/2000/svg"><g><g><g><g><g><line x1="72.34375" y1="377" x2="67.34375" y2="377" style="visibility: inherit;" fill="rgb(0, 0, 0)" stroke="rgb(204, 204, 204)" stroke-width="1px"></line><line x1="72.34375" y1="329.875" x2="67.34375" y2="329.875" style="visibility: inherit;" fill="rgb(0, 0, 0)" stroke="rgb(204, 204, 204)" stroke-width="1px"></line><line x1="72.34375" y1="282.75" x2="67.34375" y2="282.75" style="visibility: inherit;" fill="rgb(0, 0, 0)" stroke="rgb(204, 204, 204)" stroke-width="1px"></line><line x1="72.34375" y1="235.62499999999997" x2="67.34375" y2="235.62499999999997" style="visibility: inherit;" fill="rgb(0, 0, 0)" stroke="rgb(204, 204, 204)" stroke-width="1px"></line><line x1="72.34375" y1="188.49999999999997" x2="67.34375" y2="188.49999999999997" style="visibility: inherit;" fill="rgb(0, 0, 0)" stroke="rgb(204, 204, 204)" stroke-width="1px"></line><line x1="72.34375" y1="141.37499999999997" x2="67.34375" y2="141.37499999999997" style="visibility: inherit;" fill="rgb(0, 0, 0)" stroke="rgb(204, 204, 204)" stroke-width="1px"></line><line x1="72.34375" y1="94.24999999999996" x2="67.34375" y2="94.24999999999996" style="visibility: inherit;" fill="rgb(0, 0, 0)" stroke="rgb(204, 204, 204)" stroke-width="1px"></line><line x1="72.34375" y1="47.124999999999915" x2="67.34375" y2="47.124999999999915" style="visibility: inherit;" fill="rgb(0, 0, 0)" stroke="rgb(204, 204, 204)" stroke-width="1px"></line></g><g transform="translate(62.34375, 0)"><text x="0" y="377" dx="0em" dy="0.3em" style="text-anchor: end; visibility: hidden; font-family: Roboto, sans-serif; font-size: 12px; font-weight: 200;" fill="rgb(255, 255, 255)" stroke="none" stroke-width="1px">-5e-6</text><text x="0" y="329.875" dx="0em" dy="0.3em" style="text-anchor: end; visibility: inherit; font-family: Roboto, sans-serif; font-size: 12px; font-weight: 200;" fill="rgb(255, 255, 255)" stroke="none" stroke-width="1px">0</text><text x="0" y="282.75" dx="0em" dy="0.3em" style="text-anchor: end; visibility: inherit; font-family: Roboto, sans-serif; font-size: 12px; font-weight: 200;" fill="rgb(255, 255, 255)" stroke="none" stroke-width="1px">5e-6</text><text x="0" y="235.62499999999997" dx="0em" dy="0.3em" style="text-anchor: end; visibility: inherit; font-family: Roboto, sans-serif; font-size: 12px; font-weight: 200;" fill="rgb(255, 255, 255)" stroke="none" stroke-width="1px">1e-5</text><text x="0" y="188.49999999999997" dx="0em" dy="0.3em" style="text-anchor: end; visibility: inherit; font-family: Roboto, sans-serif; font-size: 12px; font-weight: 200;" fill="rgb(255, 255, 255)" stroke="none" stroke-width="1px">1.5e-5</text><text x="0" y="141.37499999999997" dx="0em" dy="0.3em" style="text-anchor: end; visibility: inherit; font-family: Roboto, sans-serif; font-size: 12px; font-weight: 200;" fill="rgb(255, 255, 255)" stroke="none" stroke-width="1px">2e-5</text><text x="0" y="94.24999999999996" dx="0em" dy="0.3em" style="text-anchor: end; visibility: inherit; font-family: Roboto, sans-serif; font-size: 12px; font-weight: 200;" fill="rgb(255, 255, 255)" stroke="none" stroke-width="1px">2.5e-5</text><text x="0" y="47.124999999999915" dx="0em" dy="0.3em" style="text-anchor: end; visibility: inherit; font-family: Roboto, sans-serif; font-size: 12px; font-weight: 200;" fill="rgb(255, 255, 255)" stroke="none" stroke-width="1px">3e-5</text></g><line x1="72.34375" y1="0" x2="72.34375" y2="377" fill="rgb(0, 0, 0)" stroke="rgb(204, 204, 204)" stroke-width="1px"></line></g></g><g transform="translate(72, 0)" clip-path="url(#clip_0)"><clipPath id="clip_0"><rect width="1210" height="377"></rect></clipPath><g><g><g><line x1="0" y1="0" x2="0" y2="377" fill="rgb(0, 0, 0)" stroke="rgb(189, 189, 189)" stroke-width="1px" opacity="0.25"></line><line x1="110.0596590909091" y1="0" x2="110.0596590909091" y2="377" fill="rgb(0, 0, 0)" stroke="rgb(189, 189, 189)" stroke-width="1px" opacity="0.25"></line><line x1="220.1193181818182" y1="0" x2="220.1193181818182" y2="377" fill="rgb(0, 0, 0)" stroke="rgb(189, 189, 189)" stroke-width="1px" opacity="0.25"></line><line x1="330.17897727272725" y1="0" x2="330.17897727272725" y2="377" fill="rgb(0, 0, 0)" stroke="rgb(189, 189, 189)" stroke-width="1px" opacity="0.25"></line><line x1="440.2386363636364" y1="0" x2="440.2386363636364" y2="377" fill="rgb(0, 0, 0)" stroke="rgb(189, 189, 189)" stroke-width="1px" opacity="0.25"></line><line x1="550.2982954545454" y1="0" x2="550.2982954545454" y2="377" fill="rgb(0, 0, 0)" stroke="rgb(189, 189, 189)" stroke-width="1px" opacity="0.25"></line><line x1="660.3579545454545" y1="0" x2="660.3579545454545" y2="377" fill="rgb(0, 0, 0)" stroke="rgb(189, 189, 189)" stroke-width="1px" opacity="0.25"></line><line x1="770.4176136363636" y1="0" x2="770.4176136363636" y2="377" fill="rgb(0, 0, 0)" stroke="rgb(189, 189, 189)" stroke-width="1px" opacity="0.25"></line><line x1="880.4772727272727" y1="0" x2="880.4772727272727" y2="377" fill="rgb(0, 0, 0)" stroke="rgb(189, 189, 189)" stroke-width="1px" opacity="0.25"></line><line x1="990.5369318181819" y1="0" x2="990.5369318181819" y2="377" fill="rgb(0, 0, 0)" stroke="rgb(189, 189, 189)" stroke-width="1px" opacity="0.25"></line><line x1="1100.5965909090908" y1="0" x2="1100.5965909090908" y2="377" fill="rgb(0, 0, 0)" stroke="rgb(189, 189, 189)" stroke-width="1px" opacity="0.25"></line><line x1="1210.65625" y1="0" x2="1210.65625" y2="377" fill="rgb(0, 0, 0)" stroke="rgb(189, 189, 189)" stroke-width="1px" opacity="0.25"></line></g><g><line x1="0" y1="377" x2="1210.65625" y2="377" fill="rgb(0, 0, 0)" stroke="rgb(189, 189, 189)" stroke-width="1px" opacity="0.25"></line><line x1="0" y1="329.875" x2="1210.65625" y2="329.875" fill="rgb(0, 0, 0)" stroke="rgb(189, 189, 189)" stroke-width="1px" opacity="0.25"></line><line x1="0" y1="282.75" x2="1210.65625" y2="282.75" fill="rgb(0, 0, 0)" stroke="rgb(189, 189, 189)" stroke-width="1px" opacity="0.25"></line><line x1="0" y1="235.62499999999997" x2="1210.65625" y2="235.62499999999997" fill="rgb(0, 0, 0)" stroke="rgb(189, 189, 189)" stroke-width="1px" opacity="0.25"></line><line x1="0" y1="188.49999999999997" x2="1210.65625" y2="188.49999999999997" fill="rgb(0, 0, 0)" stroke="rgb(189, 189, 189)" stroke-width="1px" opacity="0.25"></line><line x1="0" y1="141.37499999999997" x2="1210.65625" y2="141.37499999999997" fill="rgb(0, 0, 0)" stroke="rgb(189, 189, 189)" stroke-width="1px" opacity="0.25"></line><line x1="0" y1="94.24999999999996" x2="1210.65625" y2="94.24999999999996" fill="rgb(0, 0, 0)" stroke="rgb(189, 189, 189)" stroke-width="1px" opacity="0.25"></line><line x1="0" y1="47.124999999999915" x2="1210.65625" y2="47.124999999999915" fill="rgb(0, 0, 0)" stroke="rgb(189, 189, 189)" stroke-width="1px" opacity="0.25"></line></g></g></g><g><g><line x1="0" y1="329.875" x2="1210.65625" y2="329.875" fill="rgb(0, 0, 0)" stroke="rgb(153, 153, 153)" stroke-width="1.5px"></line></g></g><g><g><line x1="110.0596590909091" y1="0" x2="110.0596590909091" y2="377" fill="rgb(0, 0, 0)" stroke="rgb(153, 153, 153)" stroke-width="1.5px"></line></g></g><g><g><g><g><g><path stroke="rgb(255, 112, 67)" stroke-width="2px" d="M110.0596590909091,320.45000002379584L111.16025568181817,320.45000002379584L111.71055397727272,320.45000002379584L112.26085227272728,320.45000002379584L115.56264204545455,320.45000002379584L116.11294034090908,311.0250000475917L117.76383522727274,311.0250000475917L118.31413352272727,311.0250000475917L119.9650284090909,311.0250000475917L120.51532670454546,311.0250000475917L121.06562500000001,311.0250000475917L122.16622159090909,311.0250000475917L122.71651988636364,311.0250000475917L124.36741477272727,311.0250000475917L124.91771306818181,311.0250000475917L126.01830965909092,311.0250000475917L128.2195028409091,301.59999899988907L128.76980113636364,301.59999899988907L129.87039772727272,301.59999899988907L130.42069602272727,301.59999899988907L130.97099431818182,301.59999899988907L131.52129261363638,301.59999899988907L132.0715909090909,301.59999899988907L135.92367897727271,301.59999899988907L136.47397727272727,301.59999899988907L137.02427556818182,301.59999899988907L137.57457386363635,301.59999899988907L138.1248721590909,301.59999899988907L138.67517045454545,292.17500009518335L139.77576704545453,292.17500009518335L140.32606534090908,292.17500009518335L141.4266619318182,292.17500009518335L143.07755681818182,292.17500009518335L143.62785511363637,292.17500009518335L144.17815340909092,292.17500009518335L144.72845170454545,292.17500009518335L145.82904829545456,292.17500009518335L146.37934659090908,292.17500009518335L146.92964488636363,292.17500009518335L147.4799431818182,292.17500009518335L148.58053977272726,292.17500009518335L149.13083806818182,292.17500009518335L150.2314346590909,282.75000119047763L151.33203125,282.75000119047763L152.4326278409091,282.75000119047763L153.53322443181818,282.75000119047763L154.0835227272727,282.75000119047763L155.1841193181818,282.75000119047763L155.73441761363637,282.75000119047763L156.83501420454544,282.75000119047763L157.3853125,282.75000119047763L159.03620738636366,282.75000119047763L159.58650568181818,282.75000119047763L162.33799715909092,273.32499799977813L164.53919034090907,273.32499799977813L165.08948863636363,273.32499799977813L166.74038352272729,273.32499799977813L168.39127840909092,273.32499799977813L168.94157670454547,273.32499799977813L170.04217329545452,273.32499799977813L170.59247159090907,273.32499799977813L172.79366477272728,263.8999990950724L173.89426136363636,263.8999990950724L176.6457528409091,263.8999990950724L178.84694602272728,263.8999990950724L179.39724431818183,263.8999990950724L180.49784090909088,263.8999990950724L181.04813920454544,263.8999990950724L181.5984375,263.8999990950724L182.14873579545454,263.8999990950724L182.6990340909091,263.8999990950724L183.7996306818182,263.8999990950724L184.90022727272728,254.4750001903667L185.4505255681818,254.4750001903667L188.7523153409091,254.4750001903667L189.30261363636365,254.4750001903667L190.40321022727275,254.4750001903667L190.95350852272725,254.4750001903667L192.6044034090909,254.4750001903667L196.45649147727272,245.0499969996672L197.55708806818183,245.0499969996672L198.10738636363635,245.0499969996672L199.20798295454546,245.0499969996672L200.30857954545456,245.0499969996672L201.4091761363636,245.0499969996672L203.61036931818182,245.0499969996672L204.16066761363638,245.0499969996672L204.71096590909093,245.0499969996672L206.36186079545453,245.0499969996672L206.91215909090909,235.62500238095527L207.46245738636364,235.62500238095527L208.01275568181816,235.62500238095527L209.11335227272727,235.62500238095527L209.66365056818182,235.62500238095527L210.76424715909093,235.62500238095527L211.31454545454548,235.62500238095527L211.86484374999998,235.62500238095527L212.41514204545453,235.62500238095527L214.0660369318182,235.62500238095527L214.61633522727274,235.62500238095527L215.16663352272727,235.62500238095527L215.71693181818182,235.62500238095527L217.36782670454545,235.62500238095527L219.01872159090908,226.19999919025577L219.56901988636363,226.19999919025577L220.1193181818182,226.19999919025577L221.2199147727273,226.19999919025577L221.77021306818185,226.19999919025577L222.32051136363634,226.19999919025577L222.8708096590909,226.19999919025577L223.97140625,226.19999919025577L225.0720028409091,226.19999919025577L226.17259943181818,226.19999919025577L227.27319602272726,226.19999919025577L228.37379261363637,226.19999919025577L228.9240909090909,226.19999919025577L230.0246875,216.77499599955627L230.57498579545455,216.77499599955627L231.1252840909091,216.77499599955627L231.67558238636366,216.77499599955627L232.22588068181815,216.77499599955627L233.32647727272726,216.77499599955627L233.8767755681818,216.77499599955627L236.07796875,216.77499599955627L237.72886363636363,216.77499599955627L239.37975852272726,216.77499599955627L240.48035511363636,216.77499599955627L241.03065340909092,207.35000138084433L241.58095170454547,207.35000138084433L242.68154829545452,207.35000138084433L243.23184659090907,207.35000138084433L244.33244318181818,207.35000138084433L244.88274147727273,207.35000138084433L245.43303977272728,207.35000138084433L245.98333806818184,207.35000138084433L248.73482954545455,207.35000138084433L249.28512784090907,207.35000138084433L249.83542613636362,207.35000138084433L251.48632102272728,207.35000138084433L252.03661931818183,207.35000138084433L252.5869176136364,197.92499819014483L253.13721590909088,197.92499819014483L254.2378125,197.92499819014483L258.64019886363633,197.92499819014483L259.1904971590909,197.92499819014483L260.84139204545454,197.92499819014483L261.3916903409091,197.92499819014483L261.94198863636365,197.92499819014483L263.04258522727275,197.92499819014483L264.1431818181818,188.5000035714329L265.2437784090909,188.5000035714329L265.79407670454543,188.5000035714329L266.89467329545454,188.5000035714329L267.99526988636364,188.5000035714329L268.5455681818182,188.5000035714329L269.6461647727273,188.5000035714329L272.39765625,188.5000035714329L272.94795454545454,188.5000035714329L273.4982528409091,188.5000035714329L274.04855113636364,188.5000035714329L274.59884943181817,188.5000035714329L277.3503409090909,179.0750003807334L278.4509375,179.0750003807334L279.00123579545453,179.0750003807334L279.55153409090906,179.0750003807334L280.10183238636364,179.0750003807334L281.75272727272727,179.0750003807334L282.3030255681818,179.0750003807334L283.9539204545455,179.0750003807334L285.05451704545453,179.0750003807334L285.60481534090906,179.0750003807334L287.25571022727274,169.6499971900339L288.35630681818185,169.6499971900339L291.10779829545453,169.6499971900339L291.6580965909091,169.6499971900339L292.20839488636364,169.6499971900339L292.75869318181816,169.6499971900339L293.30899147727274,169.6499971900339L295.5101846590909,169.6499971900339L296.0604829545454,169.6499971900339L297.1610795454545,169.6499971900339L298.8119744318182,160.2249939993344L299.36227272727274,160.2249939993344L299.91257102272726,160.2249939993344L300.4628693181818,160.2249939993344L301.5634659090909,160.2249939993344L302.6640625,160.2249939993344L303.7646590909091,160.2249939993344L304.31495738636363,160.2249939993344L304.8652556818182,160.2249939993344L305.41555397727274,160.2249939993344L306.5161505681818,160.2249939993344L307.06644886363637,160.2249939993344L308.1670454545454,160.2249939993344L309.2676420454545,160.2249939993344L309.8179403409091,150.80000795261003L310.3682386363636,150.80000795261003L310.9185369318182,150.80000795261003L311.46883522727273,150.80000795261003L312.0191335227273,150.80000795261003L312.56943181818184,150.80000795261003L315.8712215909091,150.80000795261003L316.4215198863636,150.80000795261003L317.52211647727273,150.80000795261003L318.0724147727273,150.80000795261003L320.2736079545454,150.80000795261003L321.9245028409091,141.37500476191053L322.4748011363636,141.37500476191053L324.12569602272725,141.37500476191053L324.67599431818184,141.37500476191053L325.22629261363636,141.37500476191053L325.77659090909094,141.37500476191053L326.32688920454547,141.37500476191053L326.87718750000005,141.37500476191053L327.4274857954545,141.37500476191053L327.9777840909091,141.37500476191053L328.5280823863636,141.37500476191053L329.07838068181815,141.37500476191053L329.6286789772727,141.37500476191053L330.72927556818183,141.37500476191053L331.27957386363636,141.37500476191053L332.38017045454546,131.95000157121103L333.48076704545457,131.95000157121103L334.5813636363636,131.95000157121103L335.13166193181814,131.95000157121103L336.78255681818183,131.95000157121103L337.33285511363636,131.95000157121103L337.88315340909094,131.95000157121103L338.43345170454546,131.95000157121103L340.08434659090904,131.95000157121103L340.6346448863637,131.95000157121103L341.7352414772727,131.95000157121103L342.28553977272725,131.95000157121103L343.93643465909093,122.52499838051153L344.48673295454546,122.52499838051153L346.68792613636367,122.52499838051153L347.23822443181814,122.52499838051153L348.8891193181818,122.52499838051153L349.43941761363635,122.52499838051153L349.9897159090909,122.52499838051153L350.54001420454546,122.52499838051153L351.0903125,122.52499838051153L351.64061079545456,122.52499838051153L352.1909090909091,122.52499838051153L352.74120738636367,122.52499838051153L353.8418039772728,122.52499838051153L354.39210227272724,122.52499838051153L354.94240056818177,113.09999518981203L355.49269886363635,113.09999518981203L357.69389204545456,113.09999518981203L358.2441903409091,113.09999518981203L358.79448863636367,113.09999518981203L359.3447869318182,113.09999518981203L359.8950852272728,113.09999518981203L360.99568181818177,113.09999518981203L362.09627840909087,113.09999518981203L363.196875,113.09999518981203L363.74717329545456,113.09999518981203L364.2974715909091,113.09999518981203L365.3980681818182,113.09999518981203L365.9483664772727,113.09999518981203L366.4986647727273,103.67499199911254L367.5992613636364,103.67499199911254L368.69985795454545,103.67499199911254L369.25015625,103.67499199911254L370.9010511363636,103.67499199911254L371.4513494318182,103.67499199911254L373.1022443181818,103.67499199911254L373.6525426136364,103.67499199911254L374.2028409090909,103.67499199911254L374.7531392045455,103.67499199911254L375.3034375,103.67499199911254L375.8537357954545,103.67499199911254L376.4040340909091,103.67499199911254L377.5046306818182,103.67499199911254L378.0549289772727,94.25000595238816L378.6052272727273,94.25000595238816L379.1555255681818,94.25000595238816L380.2561221590909,94.25000595238816L381.9070170454545,94.25000595238816L382.4573153409091,94.25000595238816L384.1082102272727,94.25000595238816L385.7591051136364,94.25000595238816L386.3094034090909,94.25000595238816L386.85970170454544,94.25000595238816L388.51059659090913,94.25000595238816L389.6111931818182,84.82500276168862L390.1614914772727,84.82500276168862L390.7117897727273,84.82500276168862L391.2620880681818,84.82500276168862L391.81238636363634,84.82500276168862L392.3626846590909,84.82500276168862L392.91298295454544,84.82500276168862L394.01357954545455,84.82500276168862L394.56387784090913,84.82500276168862L395.11417613636365,84.82500276168862L395.66447443181823,84.82500276168862L396.2147727272727,84.82500276168862L396.7650710227272,84.82500276168862L397.86566761363633,84.82500276168862L401.71775568181823,75.39999957098912L403.3686505681818,75.39999957098912L403.91894886363633,75.39999957098912L405.01954545454544,75.39999957098912L405.56984375,75.39999957098912L406.12014204545454,75.39999957098912L406.6704403409091,75.39999957098912L407.22073863636365,75.39999957098912L407.7710369318182,75.39999957098912L408.32133522727275,75.39999957098912L408.8716335227273,75.39999957098912L409.42193181818186,75.39999957098912L410.5225284090909,75.39999957098912L411.07282670454543,75.39999957098912L412.72372159090907,65.97499638028962L413.82431818181817,65.97499638028962L414.9249147727273,65.97499638028962L415.47521306818186,65.97499638028962L416.0255113636363,65.97499638028962L419.32730113636364,65.97499638028962L419.87759943181817,65.97499638028962L420.42789772727275,65.97499638028962L422.62909090909096,65.97499638028962L423.17938920454543,56.549993189590126L424.27998579545454,56.549993189590126L425.38058238636364,56.549993189590126L427.0314772727273,56.549993189590126L429.2326704545455,56.549993189590126L431.43386363636364,56.549993189590126L431.98416193181816,56.549993189590126L432.53446022727275,56.549993189590126L433.6350568181818,56.549993189590126L434.1853551136364,56.549993189590126L434.7356534090909,47.125007142865755L435.2859517045455,47.125007142865755L435.83625,47.125007142865755L436.93684659090906,47.125007142865755L438.03744318181816,47.125007142865755L438.5877414772727,47.125007142865755L439.13803977272727,47.125007142865755L439.6883380681818,47.125007142865755L440.2386363636364,47.125007142865755L440.7889346590909,47.125007142865755L441.3392329545455,47.125007142865755L442.4398295454546,47.125007142865755L444.09072443181816,47.125007142865755L445.19132102272727,47.125007142865755L446.8422159090909,47.125007142865755L447.3925142045455,47.125007142865755L448.4931107954546,47.125007142865755L449.0434090909091,47.125007142865755L449.59370738636363,47.125007142865755L450.6943039772727,47.125007142865755L451.7949005681818,47.125007142865755L452.34519886363637,47.125007142865755L453.99609375,47.125007142865755L454.5463920454545,47.125007142865755L455.0966903409091,47.125007142865755L455.64698863636363,47.125007142865755L457.8481818181818,47.125007142865755L458.39848011363637,47.125007142865755L458.9487784090909,47.125007142865755L460.049375,47.125007142865755L461.7002698863636,47.125007142865755L462.2505681818182,47.125007142865755L462.80086647727273,47.125007142865755L463.3511647727273,47.125007142865755L463.90146306818184,47.125007142865755L464.4517613636363,47.125007142865755L466.6529545454545,47.125007142865755L467.7535511363636,47.125007142865755L468.3038494318182,47.125007142865755L468.85414772727273,47.125007142865755L469.4044460227273,47.125007142865755L469.95474431818184,47.125007142865755L471.6056392045454,47.125007142865755L472.1559375,47.125007142865755L472.7062357954545,47.125007142865755L476.55832386363636,47.125007142865755L478.20921875000005,47.125007142865755L480.9607102272727,47.125007142865755L481.51100852272725,47.125007142865755L482.06130681818183,47.125007142865755L483.71220170454546,47.125007142865755L484.81279829545457,47.125007142865755L485.36309659090904,47.125007142865755L485.9133948863636,47.125007142865755L486.46369318181814,47.125007142865755L487.56428977272725,47.125007142865755L490.31578125000004,47.125007142865755L490.86607954545457,47.125007142865755L491.41637784090904,47.125007142865755L491.9666761363637,47.125007142865755L492.51697443181814,47.125007142865755L493.0672727272727,47.125007142865755L494.16786931818183,47.125007142865755L495.81876420454546,47.125007142865755L496.3690625,47.125007142865755L497.4696590909091,47.125007142865755L499.67085227272725,47.125007142865755L500.2211505681818,47.125007142865755L501.3217471590909,47.125007142865755L502.97264204545456,47.125007142865755L504.07323863636367,47.125007142865755L505.1738352272728,47.125007142865755L505.72413352272724,47.125007142865755L506.27443181818177,47.125007142865755L507.3750284090909,47.125007142865755L507.92532670454545,47.125007142865755L508.475625,47.125007142865755L509.02592329545456,47.125007142865755L509.5762215909091,47.125007142865755L510.12651988636367,47.125007142865755L510.6768181818182,47.125007142865755L511.7774147727273,47.125007142865755L512.3277130681818,47.125007142865755L512.8780113636363,47.125007142865755L515.6295028409091,47.125007142865755L516.1798011363637,47.125007142865755L516.7300994318182,47.125007142865755L517.8306960227272,47.125007142865755L518.3809943181818,47.125007142865755L518.9312926136364,47.125007142865755L519.4815909090909,47.125007142865755L523.3336789772727,47.125007142865755L524.9845738636363,47.125007142865755L525.5348721590909,47.125007142865755L526.63546875,47.125007142865755L529.3869602272727,47.125007142865755L529.9372585227273,47.125007142865755L530.4875568181818,47.125007142865755L531.5881534090909,47.125007142865755L532.1384517045454,47.125007142865755L532.68875,47.125007142865755L533.2390482954545,47.125007142865755L533.7893465909091,47.125007142865755L534.3396448863637,47.125007142865755L534.8899431818182,47.125007142865755L535.9905397727273,47.125007142865755L536.5408380681818,47.125007142865755L537.6414346590909,47.125007142865755L538.1917329545454,47.125007142865755L538.74203125,47.125007142865755L539.2923295454545,47.125007142865755L539.8426278409091,47.125007142865755L540.3929261363636,47.125007142865755L542.0438210227273,47.125007142865755L543.1444176136363,47.125007142865755L543.6947159090909,47.125007142865755L544.7953125,47.125007142865755L545.8959090909091,47.125007142865755L546.9965056818182,47.125007142865755L547.5468039772727,47.125007142865755L548.0971022727273,47.125007142865755L549.1976988636363,47.125007142865755L549.7479971590909,47.125007142865755L551.9491903409091,47.125007142865755L552.4994886363636,47.125007142865755L553.0497869318182,47.125007142865755L553.6000852272728,47.125007142865755L555.2509801136364,47.125007142865755L556.901875,47.125007142865755L559.6533664772727,47.125007142865755L560.2036647727273,47.125007142865755L561.3042613636363,47.125007142865755L561.8545596590909,47.125007142865755L562.4048579545455,47.125007142865755L563.5054545454545,47.125007142865755L564.055752840909,47.125007142865755L564.6060511363636,47.125007142865755L565.1563494318182,47.125007142865755L567.3575426136364,47.125007142865755L567.907840909091,47.125007142865755L569.0084375,47.125007142865755L569.5587357954546,47.125007142865755L570.1090340909091,47.125007142865755L571.2096306818181,47.125007142865755L571.7599289772727,47.125007142865755L572.8605255681819,47.125007142865755L573.4108238636363,47.125007142865755L574.5114204545455,47.125007142865755L577.2629119318182,47.125007142865755L577.8132102272727,47.125007142865755L579.4641051136364,47.125007142865755L580.5647017045454,47.125007142865755L581.115,47.125007142865755L582.7658948863636,47.125007142865755L583.3161931818182,47.125007142865755L583.8664914772728,47.125007142865755L585.5173863636363,47.125007142865755L586.0676846590909,47.125007142865755L588.2688778409091,47.125007142865755L588.8191761363637,47.125007142865755L594.322159090909,47.125007142865755L595.4227556818182,47.125007142865755L595.9730539772727,47.125007142865755L596.5233522727273,47.125007142865755L597.0736505681818,47.125007142865755L597.6239488636364,47.125007142865755L598.1742471590909,47.125007142865755L599.27484375,47.125007142865755L600.3754403409091,47.125007142865755L602.0263352272727,47.125007142865755L603.1269318181818,47.125007142865755L603.6772301136364,47.125007142865755L605.328125,47.125007142865755L605.8784232954546,47.125007142865755L606.9790198863636,47.125007142865755L608.0796164772728,47.125007142865755L608.6299147727273,47.125007142865755L609.1802130681818,47.125007142865755L610.280809659091,47.125007142865755L610.8311079545455,47.125007142865755L611.9317045454546,47.125007142865755L612.482002840909,47.125007142865755L613.5825994318182,47.125007142865755L614.6831960227272,47.125007142865755L615.2334943181818,47.125007142865755L615.7837926136364,47.125007142865755L616.3340909090908,47.125007142865755L617.4346875,47.125007142865755L619.6358806818182,47.125007142865755L620.1861789772728,47.125007142865755L620.7364772727273,47.125007142865755L621.2867755681818,47.125007142865755L621.8370738636364,47.125007142865755L622.3873721590909,47.125007142865755L622.9376704545455,47.125007142865755L623.48796875,47.125007142865755L624.0382670454546,47.125007142865755L626.2394602272726,47.125007142865755L627.3400568181818,47.125007142865755L627.8903551136364,47.125007142865755L629.54125,47.125007142865755L631.7424431818182,47.125007142865755L632.2927414772727,47.125007142865755L633.3933380681818,47.125007142865755L634.4939346590909,47.125007142865755L635.0442329545455,47.125007142865755L635.59453125,47.125007142865755L637.2454261363637,47.125007142865755L637.7957244318183,47.125007142865755L638.3460227272727,47.125007142865755L638.8963210227273,47.125007142865755L639.4466193181819,47.125007142865755L639.9969176136365,47.125007142865755L640.5472159090908,47.125007142865755L641.6478125,47.125007142865755L642.1981107954545,47.125007142865755L643.8490056818182,47.125007142865755L646.6004971590909,47.125007142865755L647.70109375,47.125007142865755L648.2513920454545,47.125007142865755L649.3519886363637,47.125007142865755L649.9022869318183,47.125007142865755L650.4525852272727,47.125007142865755L652.1034801136365,47.125007142865755L653.2040767045455,47.125007142865755L653.7543750000001,47.125007142865755L654.3046732954544,47.125007142865755L655.4052698863636,47.125007142865755L656.5058664772727,47.125007142865755L657.0561647727272,47.125007142865755L657.6064630681818,47.125007142865755L658.7070596590909,47.125007142865755L659.2573579545455,47.125007142865755L660.3579545454545,47.125007142865755L660.9082528409091,47.125007142865755L661.4585511363637,47.125007142865755L662.0088494318182,47.125007142865755L662.5591477272727,47.125007142865755L663.1094460227273,47.125007142865755L665.8609375000001,47.125007142865755L666.9615340909091,47.125007142865755L668.0621306818181,47.125007142865755L668.6124289772727,47.125007142865755L669.1627272727272,47.125007142865755L671.91421875,47.125007142865755L674.1154119318181,47.125007142865755L675.2160085227273,47.125007142865755L675.7663068181819,47.125007142865755L679.0680965909091,47.125007142865755L679.6183948863637,47.125007142865755L680.1686931818181,47.125007142865755L680.7189914772727,47.125007142865755L681.2692897727273,47.125007142865755L683.4704829545454,47.125007142865755L684.5710795454545,47.125007142865755L685.1213778409091,47.125007142865755L686.7722727272727,47.125007142865755L688.4231676136363,47.125007142865755L688.9734659090909,47.125007142865755L690.6243607954545,47.125007142865755L691.7249573863637,47.125007142865755L692.2752556818182,47.125007142865755L692.8255539772728,47.125007142865755L693.9261505681819,47.125007142865755L695.5770454545454,47.125007142865755L696.1273437499999,47.125007142865755L696.6776420454545,47.125007142865755L697.7782386363637,47.125007142865755L698.3285369318181,47.125007142865755L698.8788352272727,47.125007142865755L699.4291335227273,47.125007142865755L699.9794318181818,47.125007142865755L700.5297301136363,47.125007142865755L702.180625,47.125007142865755L702.7309232954545,47.125007142865755L703.8315198863637,47.125007142865755L704.3818181818182,47.125007142865755L704.9321164772728,47.125007142865755L706.5830113636364,47.125007142865755L707.133309659091,47.125007142865755L707.6836079545456,47.125007142865755L709.8848011363635,47.125007142865755L710.4350994318181,47.125007142865755L710.9853977272727,47.125007142865755L713.7368892045455,47.125007142865755L714.8374857954545,47.125007142865755L715.9380823863636,47.125007142865755L716.4883806818182,47.125007142865755L717.0386789772728,47.125007142865755L718.6895738636364,47.125007142865755L719.239872159091,47.125007142865755L719.7901704545455,47.125007142865755L720.34046875,47.125007142865755L720.8907670454546,47.125007142865755L721.4410653409092,47.125007142865755L721.9913636363635,47.125007142865755L722.5416619318181,47.125007142865755L723.6422585227273,47.125007142865755L725.2931534090909,47.125007142865755L726.39375,47.125007142865755L726.9440482954545,47.125007142865755L728.5949431818182,47.125007142865755L729.1452414772727,47.125007142865755L730.2458380681818,47.125007142865755L730.7961363636364,47.125007142865755L731.346434659091,47.125007142865755L731.8967329545454,47.125007142865755L732.44703125,47.125007142865755L733.5476278409092,47.125007142865755L734.0979261363636,47.125007142865755L734.6482244318182,47.125007142865755L735.1985227272728,47.125007142865755L736.2991193181817,47.125007142865755L737.9500142045454,47.125007142865755L739.6009090909091,47.125007142865755L740.1512073863636,47.125007142865755L741.2518039772727,47.125007142865755L741.8021022727272,47.125007142865755L742.3524005681818,47.125007142865755L742.9026988636364,47.125007142865755L743.452997159091,47.125007142865755L744.0032954545454,47.125007142865755L745.1038920454546,47.125007142865755L747.3050852272728,47.125007142865755L747.8553835227273,47.125007142865755L748.9559801136364,47.125007142865755L750.0565767045454,47.125007142865755L751.1571732954545,47.125007142865755L751.707471590909,47.125007142865755L754.4589630681818,47.125007142865755L755.0092613636364,47.125007142865755L755.559559659091,47.125007142865755L756.66015625,47.125007142865755L757.2104545454546,47.125007142865755L757.760752840909,47.125007142865755L759.9619460227273,47.125007142865755L761.0625426136364,47.125007142865755L762.1631392045455,47.125007142865755L763.2637357954546,47.125007142865755L763.814034090909,47.125007142865755L764.3643323863636,47.125007142865755L766.0152272727272,47.125007142865755L766.5655255681818,47.125007142865755L767.1158238636364,47.125007142865755L767.6661221590908,47.125007142865755L768.2164204545454,47.125007142865755L768.76671875,47.125007142865755L770.3075539772727,47.125007142865755L770.4176136363636,47.125007142865755L772.0685085227273,47.125007142865755L772.6188068181818,47.125007142865755L773.1691051136364,47.125007142865755L774.2697017045455,47.125007142865755L774.82,47.125007142865755L776.4708948863637,47.125007142865755L777.0211931818183,47.125007142865755L777.5714914772726,47.125007142865755L778.6720880681818,47.125007142865755L779.2223863636364,47.125007142865755L781.4235795454546,47.125007142865755L781.973877840909,47.125007142865755L783.0744744318182,47.125007142865755L784.7253693181818,47.125007142865755L785.2756676136364,47.125007142865755L786.9265625,47.125007142865755L787.4768607954546,47.125007142865755L790.2283522727273,47.125007142865755L791.3289488636365,47.125007142865755L791.8792471590908,47.125007142865755L792.4295454545454,47.125007142865755L792.97984375,47.125007142865755L793.5301420454545,47.125007142865755L794.080440340909,47.125007142865755L794.6307386363636,47.125007142865755L796.2816335227272,47.125007142865755L796.8319318181818,47.125007142865755L797.3822301136364,47.125007142865755L797.9325284090909,47.125007142865755L799.033125,47.125007142865755L800.1337215909091,47.125007142865755L800.6840198863637,47.125007142865755L802.3349147727273,47.125007142865755L802.8852130681819,47.125007142865755L804.5361079545455,47.125007142865755L806.187002840909,47.125007142865755L806.7373011363636,47.125007142865755L808.3881960227272,47.125007142865755L811.1396875,47.125007142865755L811.6899857954545,47.125007142865755L812.2402840909091,47.125007142865755L813.3408806818182,47.125007142865755L814.4414772727273,47.125007142865755L816.0923721590909,47.125007142865755L817.7432670454546,47.125007142865755L818.8438636363637,47.125007142865755L820.4947585227272,47.125007142865755L822.1456534090909,47.125007142865755L823.24625,47.125007142865755L823.7965482954545,47.125007142865755L824.8971448863637,47.125007142865755L825.4474431818181,47.125007142865755L826.5480397727273,47.125007142865755L827.6486363636363,47.125007142865755L829.8498295454546,47.125007142865755L831.5007244318181,47.125007142865755L832.0510227272727,47.125007142865755L832.6013210227273,47.125007142865755L835.3528124999999,47.125007142865755L836.4534090909091,47.125007142865755L837.0037073863637,47.125007142865755L837.5540056818181,47.125007142865755L838.1043039772727,47.125007142865755L838.6546022727273,47.125007142865755L839.7551988636363,47.125007142865755L843.6072869318182,47.125007142865755L846.9090767045454,47.125007142865755L848.5599715909091,47.125007142865755L849.1102698863637,47.125007142865755L850.2108664772727,47.125007142865755L850.7611647727273,47.125007142865755L852.4120596590909,47.125007142865755L852.9623579545455,47.125007142865755L854.0629545454545,47.125007142865755L854.6132528409091,47.125007142865755L855.7138494318182,47.125007142865755L856.2641477272728,47.125007142865755L857.3647443181818,47.125007142865755L859.5659374999999,47.125007142865755L860.1162357954545,47.125007142865755L860.6665340909091,47.125007142865755L861.2168323863635,47.125007142865755L861.7671306818181,47.125007142865755L863.9683238636363,47.125007142865755L864.5186221590909,47.125007142865755L865.61921875,47.125007142865755L866.1695170454545,47.125007142865755L868.3707102272728,47.125007142865755L868.9210085227273,47.125007142865755L871.1222017045455,47.125007142865755L871.6725,47.125007142865755L872.2227982954546,47.125007142865755L873.8736931818181,47.125007142865755L874.4239914772727,47.125007142865755L875.5245880681817,47.125007142865755L877.1754829545454,47.125007142865755L877.72578125,47.125007142865755L878.8263778409091,47.125007142865755L879.3766761363636,47.125007142865755L881.0275710227273,47.125007142865755L882.1281676136364,47.125007142865755L886.5305539772728,47.125007142865755L888.1814488636363,47.125007142865755L888.7317471590909,47.125007142865755L889.83234375,47.125007142865755L890.9329403409091,47.125007142865755L891.4832386363636,47.125007142865755L896.4359232954546,47.125007142865755L896.9862215909092,47.125007142865755L897.5365198863636,47.125007142865755L898.0868181818182,47.125007142865755L899.1874147727273,47.125007142865755L900.2880113636364,47.125007142865755L900.838309659091,47.125007142865755L901.3886079545454,47.125007142865755L901.93890625,47.125007142865755L903.5898011363636,47.125007142865755L904.6903977272727,47.125007142865755L905.2406960227272,47.125007142865755L905.7909943181818,47.125007142865755L906.3412926136364,47.125007142865755L906.891590909091,47.125007142865755L907.4418892045454,47.125007142865755L907.9921875,47.125007142865755L909.092784090909,47.125007142865755L909.6430823863636,47.125007142865755L910.1933806818182,47.125007142865755L910.7436789772728,47.125007142865755L911.2939772727273,47.125007142865755L911.8442755681818,47.125007142865755L912.3945738636364,47.125007142865755L912.944872159091,47.125007142865755L913.4951704545455,47.125007142865755L914.04546875,47.125007142865755L914.5957670454546,47.125007142865755L917.8975568181818,47.125007142865755L919.5484517045454,47.125007142865755L920.09875,47.125007142865755L921.199346590909,47.125007142865755L921.7496448863636,47.125007142865755L923.9508380681818,47.125007142865755L924.5011363636364,47.125007142865755L925.0514346590909,47.125007142865755L925.6017329545455,47.125007142865755L927.2526278409091,47.125007142865755L927.8029261363637,47.125007142865755L928.3532244318183,47.125007142865755L928.9035227272726,47.125007142865755L929.4538210227272,47.125007142865755L930.5544176136364,47.125007142865755L931.1047159090908,47.125007142865755L933.305909090909,47.125007142865755L933.8562073863636,47.125007142865755L934.4065056818182,47.125007142865755L935.5071022727273,47.125007142865755L937.1579971590909,47.125007142865755L939.3591903409091,47.125007142865755L939.9094886363637,47.125007142865755L940.4597869318183,47.125007142865755L941.5603835227273,47.125007142865755L942.6609801136365,47.125007142865755L943.2112784090908,47.125007142865755L947.0633664772727,47.125007142865755L948.7142613636364,47.125007142865755L949.8148579545455,47.125007142865755L950.9154545454545,47.125007142865755L952.5663494318183,47.125007142865755L953.1166477272727,47.125007142865755L954.7675426136365,47.125007142865755L955.3178409090909,47.125007142865755L956.4184375000001,47.125007142865755L956.9687357954544,47.125007142865755L959.1699289772727,47.125007142865755L960.2705255681818,47.125007142865755L960.8208238636363,47.125007142865755L962.47171875,47.125007142865755L963.0220170454545,47.125007142865755L963.5723153409091,47.125007142865755L964.6729119318182,47.125007142865755L965.7735085227273,47.125007142865755L966.8741051136363,47.125007142865755L967.4244034090909,47.125007142865755L968.5250000000001,47.125007142865755L969.6255965909091,47.125007142865755L970.1758948863637,47.125007142865755L970.7261931818181,47.125007142865755L971.8267897727272,47.125007142865755L972.9273863636363,47.125007142865755L973.4776846590909,47.125007142865755L974.0279829545455,47.125007142865755L974.57828125,47.125007142865755L975.1285795454545,47.125007142865755L976.2291761363637,47.125007142865755L977.3297727272727,47.125007142865755L977.8800710227273,47.125007142865755L978.4303693181819,47.125007142865755L978.9806676136363,47.125007142865755L979.5309659090909,47.125007142865755L981.1818607954546,47.125007142865755L983.9333522727273,47.125007142865755L986.6848437499999,47.125007142865755L987.2351420454545,47.125007142865755L987.7854403409091,47.125007142865755L989.9866335227273,47.125007142865755L990.5369318181819,47.125007142865755L991.0872301136363,47.125007142865755L994.9393181818182,47.125007142865755L995.4896164772728,47.125007142865755L996.5902130681819,47.125007142865755L997.1405113636363,47.125007142865755L997.6908096590909,47.125007142865755L998.2411079545454,47.125007142865755L998.7914062499999,47.125007142865755L1000.4423011363637,47.125007142865755L1001.5428977272727,47.125007142865755L1002.6434943181818,47.125007142865755L1003.7440909090909,47.125007142865755L1004.2943892045455,47.125007142865755L1005.9452840909091,47.125007142865755L1006.4955823863637,47.125007142865755L1008.6967755681818,47.125007142865755L1009.2470738636364,47.125007142865755L1009.797372159091,47.125007142865755L1010.3476704545456,47.125007142865755L1011.4482670454545,47.125007142865755L1011.9985653409091,47.125007142865755L1014.7500568181817,47.125007142865755L1015.3003551136363,47.125007142865755L1016.4009517045455,47.125007142865755L1017.5015482954545,47.125007142865755L1018.0518465909091,47.125007142865755L1018.6021448863636,47.125007142865755L1019.1524431818182,47.125007142865755L1020.2530397727273,47.125007142865755L1021.3536363636364,47.125007142865755L1021.903934659091,47.125007142865755L1023.5548295454546,47.125007142865755L1024.6554261363635,47.125007142865755L1025.7560227272727,47.125007142865755L1027.4069176136363,47.125007142865755L1027.957215909091,47.125007142865755L1030.1584090909091,47.125007142865755L1031.8093039772727,47.125007142865755L1032.9099005681817,47.125007142865755L1033.4601988636364,47.125007142865755L1034.0104971590908,47.125007142865755L1034.5607954545453,47.125007142865755L1036.2116903409092,47.125007142865755L1036.7619886363636,47.125007142865755L1037.312286931818,47.125007142865755L1037.8625852272728,47.125007142865755L1038.4128835227273,47.125007142865755L1038.9631818181817,47.125007142865755L1040.6140767045454,47.125007142865755L1041.164375,47.125007142865755L1041.7146732954545,47.125007142865755L1042.8152698863637,47.125007142865755L1043.3655681818182,47.125007142865755L1043.9158664772729,47.125007142865755L1044.466164772727,47.125007142865755L1045.0164630681818,47.125007142865755L1045.5667613636365,47.125007142865755L1046.6673579545454,47.125007142865755L1048.318252840909,47.125007142865755L1049.4188494318182,47.125007142865755L1049.9691477272727,47.125007142865755L1050.5194460227272,47.125007142865755L1051.0697443181818,47.125007142865755L1053.2709375,47.125007142865755L1054.371534090909,47.125007142865755L1054.9218323863636,47.125007142865755L1056.5727272727272,47.125007142865755L1057.123025568182,47.125007142865755L1057.6733238636364,47.125007142865755L1058.223622159091,47.125007142865755L1060.9751136363636,47.125007142865755L1065.3775,47.125007142865755L1065.9277982954545,47.125007142865755L1066.478096590909,47.125007142865755L1068.1289914772728,47.125007142865755L1069.2295880681818,47.125007142865755L1069.7798863636365,47.125007142865755L1070.330184659091,47.125007142865755L1070.8804829545454,47.125007142865755L1071.43078125,47.125007142865755L1071.9810795454546,47.125007142865755L1072.531377840909,47.125007142865755L1073.6319744318182,47.125007142865755L1074.182272727273,47.125007142865755L1075.8331676136363,47.125007142865755L1078.584659090909,47.125007142865755L1079.1349573863636,47.125007142865755L1080.2355539772727,47.125007142865755L1080.7858522727272,47.125007142865755L1081.8864488636364,47.125007142865755L1082.4367471590908,47.125007142865755L1083.53734375,47.125007142865755L1085.7385369318183,47.125007142865755L1086.2888352272726,47.125007142865755L1086.8391335227273,47.125007142865755L1088.4900284090909,47.125007142865755L1089.0403267045454,47.125007142865755L1090.691221590909,47.125007142865755L1091.2415198863637,47.125007142865755L1091.7918181818181,47.125007142865755L1092.3421164772726,47.125007142865755L1093.4427130681818,47.125007142865755L1093.9930113636365,47.125007142865755L1095.0936079545454,47.125007142865755L1096.1942045454546,47.125007142865755L1097.2948011363637,47.125007142865755L1097.8450994318182,47.125007142865755L1099.4959943181818,47.125007142865755L1100.0462926136365,47.125007142865755L1100.48653125,47.125007142865755L1100.5965909090908,47.125007142865755L1101.1468892045455,47.125007142865755L1101.6971875,47.125007142865755" style="fill: none;" fill="none"></path></g></g></g></g></g></g><g transform="translate(72, 377)" clip-path="url(#clip_1)"><clipPath id="clip_1"><rect width="1210" height="23"></rect></clipPath><g><g><line x1="0" y1="0" x2="0" y2="5" style="visibility: inherit;" fill="rgb(0, 0, 0)" stroke="rgb(204, 204, 204)" stroke-width="1px"></line><line x1="110.0596590909091" y1="0" x2="110.0596590909091" y2="5" style="visibility: inherit;" fill="rgb(0, 0, 0)" stroke="rgb(204, 204, 204)" stroke-width="1px"></line><line x1="220.1193181818182" y1="0" x2="220.1193181818182" y2="5" style="visibility: inherit;" fill="rgb(0, 0, 0)" stroke="rgb(204, 204, 204)" stroke-width="1px"></line><line x1="330.17897727272725" y1="0" x2="330.17897727272725" y2="5" style="visibility: inherit;" fill="rgb(0, 0, 0)" stroke="rgb(204, 204, 204)" stroke-width="1px"></line><line x1="440.2386363636364" y1="0" x2="440.2386363636364" y2="5" style="visibility: inherit;" fill="rgb(0, 0, 0)" stroke="rgb(204, 204, 204)" stroke-width="1px"></line><line x1="550.2982954545454" y1="0" x2="550.2982954545454" y2="5" style="visibility: inherit;" fill="rgb(0, 0, 0)" stroke="rgb(204, 204, 204)" stroke-width="1px"></line><line x1="660.3579545454545" y1="0" x2="660.3579545454545" y2="5" style="visibility: inherit;" fill="rgb(0, 0, 0)" stroke="rgb(204, 204, 204)" stroke-width="1px"></line><line x1="770.4176136363636" y1="0" x2="770.4176136363636" y2="5" style="visibility: inherit;" fill="rgb(0, 0, 0)" stroke="rgb(204, 204, 204)" stroke-width="1px"></line><line x1="880.4772727272727" y1="0" x2="880.4772727272727" y2="5" style="visibility: inherit;" fill="rgb(0, 0, 0)" stroke="rgb(204, 204, 204)" stroke-width="1px"></line><line x1="990.5369318181819" y1="0" x2="990.5369318181819" y2="5" style="visibility: inherit;" fill="rgb(0, 0, 0)" stroke="rgb(204, 204, 204)" stroke-width="1px"></line><line x1="1100.5965909090908" y1="0" x2="1100.5965909090908" y2="5" style="visibility: inherit;" fill="rgb(0, 0, 0)" stroke="rgb(204, 204, 204)" stroke-width="1px"></line><line x1="1210.65625" y1="0" x2="1210.65625" y2="5" style="visibility: inherit;" fill="rgb(0, 0, 0)" stroke="rgb(204, 204, 204)" stroke-width="1px"></line></g><g transform="translate(0, 8)"><text x="0" y="0" dx="0em" dy="0.95em" style="text-anchor: middle; visibility: hidden; font-family: Roboto, sans-serif; font-size: 12px; font-weight: 200;" fill="rgb(255, 255, 255)" stroke="none" stroke-width="1px">-1k</text><text x="110.0596590909091" y="0" dx="0em" dy="0.95em" style="text-anchor: middle; visibility: inherit; font-family: Roboto, sans-serif; font-size: 12px; font-weight: 200;" fill="rgb(255, 255, 255)" stroke="none" stroke-width="1px">0</text><text x="220.1193181818182" y="0" dx="0em" dy="0.95em" style="text-anchor: middle; visibility: inherit; font-family: Roboto, sans-serif; font-size: 12px; font-weight: 200;" fill="rgb(255, 255, 255)" stroke="none" stroke-width="1px">1k</text><text x="330.17897727272725" y="0" dx="0em" dy="0.95em" style="text-anchor: middle; visibility: inherit; font-family: Roboto, sans-serif; font-size: 12px; font-weight: 200;" fill="rgb(255, 255, 255)" stroke="none" stroke-width="1px">2k</text><text x="440.2386363636364" y="0" dx="0em" dy="0.95em" style="text-anchor: middle; visibility: inherit; font-family: Roboto, sans-serif; font-size: 12px; font-weight: 200;" fill="rgb(255, 255, 255)" stroke="none" stroke-width="1px">3k</text><text x="550.2982954545454" y="0" dx="0em" dy="0.95em" style="text-anchor: middle; visibility: inherit; font-family: Roboto, sans-serif; font-size: 12px; font-weight: 200;" fill="rgb(255, 255, 255)" stroke="none" stroke-width="1px">4k</text><text x="660.3579545454545" y="0" dx="0em" dy="0.95em" style="text-anchor: middle; visibility: inherit; font-family: Roboto, sans-serif; font-size: 12px; font-weight: 200;" fill="rgb(255, 255, 255)" stroke="none" stroke-width="1px">5k</text><text x="770.4176136363636" y="0" dx="0em" dy="0.95em" style="text-anchor: middle; visibility: inherit; font-family: Roboto, sans-serif; font-size: 12px; font-weight: 200;" fill="rgb(255, 255, 255)" stroke="none" stroke-width="1px">6k</text><text x="880.4772727272727" y="0" dx="0em" dy="0.95em" style="text-anchor: middle; visibility: inherit; font-family: Roboto, sans-serif; font-size: 12px; font-weight: 200;" fill="rgb(255, 255, 255)" stroke="none" stroke-width="1px">7k</text><text x="990.5369318181819" y="0" dx="0em" dy="0.95em" style="text-anchor: middle; visibility: inherit; font-family: Roboto, sans-serif; font-size: 12px; font-weight: 200;" fill="rgb(255, 255, 255)" stroke="none" stroke-width="1px">8k</text><text x="1100.5965909090908" y="0" dx="0em" dy="0.95em" style="text-anchor: middle; visibility: inherit; font-family: Roboto, sans-serif; font-size: 12px; font-weight: 200;" fill="rgb(255, 255, 255)" stroke="none" stroke-width="1px">9k</text><text x="1210.65625" y="0" dx="0em" dy="0.95em" style="text-anchor: middle; visibility: hidden; font-family: Roboto, sans-serif; font-size: 12px; font-weight: 200;" fill="rgb(255, 255, 255)" stroke="none" stroke-width="1px">10k</text></g><line x1="0" y1="0" x2="1210.65625" y2="0" fill="rgb(0, 0, 0)" stroke="rgb(204, 204, 204)" stroke-width="1px"></line></g></g></g></g></svg>