<svg viewBox="0 0 2153 400" xmlns="http://www.w3.org/2000/svg"><g><g><g><g><g><line x1="20.390625" y1="322.7953891729113" x2="15.390625" y2="322.7953891729113" style="visibility: inherit;" fill="rgb(0, 0, 0)" stroke="rgb(204, 204, 204)" stroke-width="1px"></line><line x1="20.390625" y1="228.99650284869642" x2="15.390625" y2="228.99650284869642" style="visibility: inherit;" fill="rgb(0, 0, 0)" stroke="rgb(204, 204, 204)" stroke-width="1px"></line><line x1="20.390625" y1="162.4451338854743" x2="15.390625" y2="162.4451338854743" style="visibility: inherit;" fill="rgb(0, 0, 0)" stroke="rgb(204, 204, 204)" stroke-width="1px"></line><line x1="20.390625" y1="110.82388168608752" x2="15.390625" y2="110.82388168608752" style="visibility: inherit;" fill="rgb(0, 0, 0)" stroke="rgb(204, 204, 204)" stroke-width="1px"></line><line x1="20.390625" y1="68.64624756125933" x2="15.390625" y2="68.64624756125933" style="visibility: inherit;" fill="rgb(0, 0, 0)" stroke="rgb(204, 204, 204)" stroke-width="1px"></line><line x1="20.390625" y1="32.98556602596865" x2="15.390625" y2="32.98556602596865" style="visibility: inherit;" fill="rgb(0, 0, 0)" stroke="rgb(204, 204, 204)" stroke-width="1px"></line><line x1="20.390625" y1="2.094878598037302" x2="15.390625" y2="2.094878598037302" style="visibility: inherit;" fill="rgb(0, 0, 0)" stroke="rgb(204, 204, 204)" stroke-width="1px"></line></g><g transform="translate(10.390625, 0)"><text x="0" y="322.7953891729113" dx="0em" dy="0.3em" style="text-anchor: end; visibility: inherit; font-family: Roboto, sans-serif; font-size: 12px; font-weight: 200;" fill="rgb(255, 255, 255)" stroke="none" stroke-width="1px">2</text><text x="0" y="228.99650284869642" dx="0em" dy="0.3em" style="text-anchor: end; visibility: inherit; font-family: Roboto, sans-serif; font-size: 12px; font-weight: 200;" fill="rgb(255, 255, 255)" stroke="none" stroke-width="1px">3</text><text x="0" y="162.4451338854743" dx="0em" dy="0.3em" style="text-anchor: end; visibility: inherit; font-family: Roboto, sans-serif; font-size: 12px; font-weight: 200;" fill="rgb(255, 255, 255)" stroke="none" stroke-width="1px">4</text><text x="0" y="110.82388168608752" dx="0em" dy="0.3em" style="text-anchor: end; visibility: inherit; font-family: Roboto, sans-serif; font-size: 12px; font-weight: 200;" fill="rgb(255, 255, 255)" stroke="none" stroke-width="1px">5</text><text x="0" y="68.64624756125933" dx="0em" dy="0.3em" style="text-anchor: end; visibility: inherit; font-family: Roboto, sans-serif; font-size: 12px; font-weight: 200;" fill="rgb(255, 255, 255)" stroke="none" stroke-width="1px">6</text><text x="0" y="32.98556602596865" dx="0em" dy="0.3em" style="text-anchor: end; visibility: inherit; font-family: Roboto, sans-serif; font-size: 12px; font-weight: 200;" fill="rgb(255, 255, 255)" stroke="none" stroke-width="1px">7</text><text x="0" y="2.094878598037302" dx="0em" dy="0.3em" style="text-anchor: end; visibility: hidden; font-family: Roboto, sans-serif; font-size: 12px; font-weight: 200;" fill="rgb(255, 255, 255)" stroke="none" stroke-width="1px">8</text></g><line x1="20.390625" y1="0" x2="20.390625" y2="377" fill="rgb(0, 0, 0)" stroke="rgb(204, 204, 204)" stroke-width="1px"></line></g></g><g transform="translate(20, 0)" clip-path="url(#clip_0)"><clipPath id="clip_0"><rect width="2132" height="377"></rect></clipPath><g><g><g><line x1="0" y1="0" x2="0" y2="377" fill="rgb(0, 0, 0)" stroke="rgb(189, 189, 189)" stroke-width="1px" opacity="0.25"></line><line x1="236.9565972222222" y1="0" x2="236.9565972222222" y2="377" fill="rgb(0, 0, 0)" stroke="rgb(189, 189, 189)" stroke-width="1px" opacity="0.25"></line><line x1="473.9131944444444" y1="0" x2="473.9131944444444" y2="377" fill="rgb(0, 0, 0)" stroke="rgb(189, 189, 189)" stroke-width="1px" opacity="0.25"></line><line x1="710.8697916666666" y1="0" x2="710.8697916666666" y2="377" fill="rgb(0, 0, 0)" stroke="rgb(189, 189, 189)" stroke-width="1px" opacity="0.25"></line><line x1="947.8263888888888" y1="0" x2="947.8263888888888" y2="377" fill="rgb(0, 0, 0)" stroke="rgb(189, 189, 189)" stroke-width="1px" opacity="0.25"></line><line x1="1184.782986111111" y1="0" x2="1184.782986111111" y2="377" fill="rgb(0, 0, 0)" stroke="rgb(189, 189, 189)" stroke-width="1px" opacity="0.25"></line><line x1="1421.7395833333333" y1="0" x2="1421.7395833333333" y2="377" fill="rgb(0, 0, 0)" stroke="rgb(189, 189, 189)" stroke-width="1px" opacity="0.25"></line><line x1="1658.6961805555557" y1="0" x2="1658.6961805555557" y2="377" fill="rgb(0, 0, 0)" stroke="rgb(189, 189, 189)" stroke-width="1px" opacity="0.25"></line><line x1="1895.6527777777776" y1="0" x2="1895.6527777777776" y2="377" fill="rgb(0, 0, 0)" stroke="rgb(189, 189, 189)" stroke-width="1px" opacity="0.25"></line><line x1="2132.609375" y1="0" x2="2132.609375" y2="377" fill="rgb(0, 0, 0)" stroke="rgb(189, 189, 189)" stroke-width="1px" opacity="0.25"></line></g><g><line x1="0" y1="322.7953891729113" x2="2132.609375" y2="322.7953891729113" fill="rgb(0, 0, 0)" stroke="rgb(189, 189, 189)" stroke-width="1px" opacity="0.25"></line><line x1="0" y1="228.99650284869642" x2="2132.609375" y2="228.99650284869642" fill="rgb(0, 0, 0)" stroke="rgb(189, 189, 189)" stroke-width="1px" opacity="0.25"></line><line x1="0" y1="162.4451338854743" x2="2132.609375" y2="162.4451338854743" fill="rgb(0, 0, 0)" stroke="rgb(189, 189, 189)" stroke-width="1px" opacity="0.25"></line><line x1="0" y1="110.82388168608752" x2="2132.609375" y2="110.82388168608752" fill="rgb(0, 0, 0)" stroke="rgb(189, 189, 189)" stroke-width="1px" opacity="0.25"></line><line x1="0" y1="68.64624756125933" x2="2132.609375" y2="68.64624756125933" fill="rgb(0, 0, 0)" stroke="rgb(189, 189, 189)" stroke-width="1px" opacity="0.25"></line><line x1="0" y1="32.98556602596865" x2="2132.609375" y2="32.98556602596865" fill="rgb(0, 0, 0)" stroke="rgb(189, 189, 189)" stroke-width="1px" opacity="0.25"></line><line x1="0" y1="2.094878598037302" x2="2132.609375" y2="2.094878598037302" fill="rgb(0, 0, 0)" stroke="rgb(189, 189, 189)" stroke-width="1px" opacity="0.25"></line></g></g></g><g><g><line x1="236.9565972222222" y1="0" x2="236.9565972222222" y2="377" fill="rgb(0, 0, 0)" stroke="rgb(153, 153, 153)" stroke-width="1.5px"></line></g></g><g><g><g><g><g><path stroke="rgb(0, 153, 136)" stroke-width="2px" d="M238.7337717013889,128.51934709960645L239.32616319444443,112.4436500900648L242.88051215277778,119.21208486864552L245.25007812500002,110.89421829101627L245.84246961805556,99.65486696882755L247.61964409722222,158.77119376716152L248.21203559027776,161.04781777832537L248.80442708333334,127.16599117055294L249.98921006944445,121.30114465518145L250.5816015625,114.41276315160958L252.35877604166666,145.18638115127158L252.95116753472223,124.21545669532546L260.65225694444445,121.62441905527892L264.79899739583334,131.84732251406925L265.39138888888886,139.3781654451342L265.9837803819444,162.72918097527096L267.1685633680555,169.7417640870831L268.94573784722223,182.02139298968686L270.7229123263889,166.86329943674212L272.50008680555555,178.4543587233082L273.0924782986111,179.96968707808873L273.68486979166664,170.04673739504142L274.2772612847222,186.56991716071408L275.46204427083336,172.99193473739095L276.0544357638889,181.7511806615384L276.64682725694445,157.90777374262748L277.23921875,181.09384211013332L278.4240017361111,180.66088125572443L279.0163932291667,139.90424188148089L282.5707421875,167.97374009490983L285.5326996527778,174.84968710227503L289.67944010416664,174.6635675110807L295.6033550347222,206.73786743561988L297.97292100694443,186.4206249794482L299.7500954861111,217.01709067882632L300.34248697916667,191.44226280741475L301.5272699652778,174.63148312586307L305.6740104166667,189.78210518190946L308.63596788194445,190.97609821235028L311.0055338541667,193.01476287219688L311.5979253472222,183.07209405992322L312.78270833333335,180.94436101923557L313.96749131944443,200.48015715879635L317.52184027777776,193.47800538165262L318.1142317708333,190.85868386976605L322.2609722222222,194.13563562452987L323.44575520833337,228.95481684191068L324.0381467013889,228.64448797166582L325.8153211805556,238.24995791917854L329.9620616319445,226.96200705050978L331.7392361111111,209.9397475913124L332.92401909722224,231.01818647026394L334.10880208333333,219.21443509292422L337.66315104166665,181.19229836284342L338.2555425347222,131.58037251084122L338.8479340277778,146.7410403556653L341.80989149305555,176.47758342736125L345.95663194444444,178.7190094596725L346.5490234375,173.58860056934995L347.1414149305555,188.69142724258964L349.51098090277776,149.13018827382325L350.10337239583333,169.39342021789457L350.6957638888889,168.16541863777476L354.8425043402778,160.26696587496522L356.61967881944446,195.48584414377476L357.21207031250003,205.09984092186608L357.80446180555555,208.46118925965425L358.3968532986111,214.85261527675144L359.5816362847222,201.95973963698992L361.95120225694444,177.51916848720487L363.13598524305553,153.28643777180844L364.3207682291667,172.39736510965585L366.6903342013889,197.46429227412733L367.2827256944444,186.61818408494477L367.8751171875,212.6789206693588L369.65229166666666,202.33046653034452L372.61424913194446,211.70118990374158L378.53816406249996,189.07988188199602L381.50012152777776,201.54681620549567L382.09251302083334,205.42538739895306L382.68490451388885,223.19126986560133L389.79360243055555,258.40054446074635L390.3859939236111,252.054882335948L390.97838541666664,238.64472972882413L397.49469184027777,229.48271887866284L399.2718663194445,221.39509204377836L400.4566493055555,243.40237824567228L401.64143229166666,261.9954559367849L404.0109982638889,238.11193243338244L405.78817274305555,240.52730929303462L407.5653472222222,242.26458531300028L408.75013020833336,222.30108606664712L411.7120876736111,214.8873137440877L412.89687065972225,215.01491838155502L413.48926215277777,224.87412278365463L418.22839409722224,231.50695373449653L419.4131770833333,247.7181882873219L421.78274305555556,240.52504417556202L424.1523090277778,266.3053963770842L425.3370920138889,249.70987580943282L425.92948350694445,226.47185878338996L427.7066579861111,213.1112523156781L436.59253038194447,221.12952767388524L437.184921875,250.50541326439713L440.1468793402778,237.92385633451593L441.3316623263889,230.26848013492526L441.92405381944445,225.63932302106625L445.47840277777783,261.6986358407985L446.66318576388886,268.17943076726027L449.0327517361111,252.93139295460838L451.4023177083333,266.6711136076712L451.99470920138884,251.64867004010253L452.5871006944445,232.96811448683164L453.1794921875,227.52088821430863L453.77188368055556,218.28234216246884L454.36427517361113,222.04577544249986L460.8805815972222,209.54108496961862L465.61971354166667,208.69527279224843L467.9892795138889,224.19223273095628L469.1740625,188.1896017897181L470.35884548611114,186.23599535823365L472.1360199652778,179.0376431694743L475.09797743055555,200.86894953248125L476.28276041666663,189.62389678484044L479.24471788194444,211.2849365195885L482.20667534722224,207.0887472922933L482.79906684027776,212.00168301267652L486.35341579861114,166.78163612779537L486.94580729166665,192.47240024276724L488.7229817708333,194.0744145256471L489.3153732638889,200.42938452565392L491.6849392361111,243.9312951140855L494.6468967013889,209.6134138706295L495.23928819444444,216.64952942013863L495.8316796875,242.59730562264443L497.0164626736111,220.53681786636523L499.38602864583333,197.22505712371074L499.9784201388889,184.40517309291567L501.163203125,169.67541459067314L503.53276909722223,186.26206702163316L504.7175520833333,200.303167044601L507.08711805555555,200.08166122279593L509.4566840277778,203.68519539895976L510.04907552083336,184.81103579411862L512.4186414930556,186.48482972927042L513.0110329861111,172.5636007268757L514.1958159722222,185.6422964175001L515.3805989583334,170.2059013460938L517.7501649305556,185.2815248227176L518.3425564236111,186.5365229254149L521.3045138888889,150.14381631833157L521.8969053819444,178.99612866118952L525.4512543402777,230.06782908272226L526.0436458333334,210.2905802273216L526.6360373263889,220.903067572674L529.5979947916667,216.0016158613962L531.9675607638889,221.27035467714242L538.4838671875,261.56469905898956L539.0762586805555,264.727059007762L539.668650173611,243.39283798002992L540.2610416666668,284.7697097387325L540.8534331597223,230.99425090900593L541.4458246527778,224.98368907494492L543.2229991319444,202.81332545740898L543.815390625,235.38463595903463L544.4077821180556,213.8740376838622L552.7012630208333,220.04150977168004L553.2936545138889,225.04089310469698L554.4784375,203.929293703474L555.0708289930556,177.17307660102173L555.6632204861111,182.1774006023844L556.8480034722222,178.98221104197938L558.0327864583334,207.9886887584342L559.2175694444445,218.0517418732933L560.4023524305555,153.8281251569124L560.994743923611,165.81909961090508L562.7719184027778,168.37107665590574L563.9567013888889,182.85272084826232L565.7338758680555,201.95318613021402L566.326267361111,199.2677827662244L569.8806163194445,209.53493321448107L570.4730078125,237.58574116145417L571.0653993055556,256.82799201299133L573.4349652777778,244.4409064447149L575.2121397569443,223.2184193801431L576.3969227430556,237.2686395717456L578.1740972222223,203.25297486830362L580.5436631944444,218.5883293720214L582.9132291666666,245.58185584796666L583.5056206597222,217.87059018489603L585.2827951388889,224.02967001923378L586.467578125,228.64587617810264L587.0599696180556,201.88136668308408L588.8371440972222,227.05742096489436L590.0219270833334,197.71841504439303L591.2067100694444,219.90961622063352L591.7991015625,228.6400660446329L592.9838845486111,229.1504646800003L593.5762760416667,220.60936810567733L596.5382335069444,226.39548010761325L599.5001909722222,225.73479563726858L600.0925824652778,228.1547900490629L601.2773654513888,201.1990300008773L603.6469314236111,235.2097122334302L604.8317144097222,205.0852156824557L605.4241059027778,209.91233414361002L607.2012803819445,211.74046996470793L608.3860633680556,251.22862105615343L608.9784548611111,211.20676600074967L611.3480208333334,206.002291184417L613.7175868055556,221.873803259295L615.4947612847222,260.15218938670284L616.0871527777778,228.22119830420212L616.6795442708334,233.19957649802703L617.2719357638889,235.2487759182257L617.8643272569444,247.61611364446503L620.8262847222222,206.824040134472L622.0110677083334,216.52483872414714L622.6034592013889,183.22519252928802L623.7882421874999,182.7978857923327L624.3806336805557,174.4482247698965L626.1578081597222,179.11435272525222L627.3425911458334,209.96904173481184L631.4893315972222,227.41988113958283L633.266506076389,230.29801515315344L636.2284635416667,172.7764191850867L636.8208550347222,181.93983466153367L639.1904210069445,189.0552194060608L641.5599869791666,246.77862781851425L643.3371614583334,186.23365953850825L646.2991189236111,182.03139803261567L647.4839019097222,203.73880986577663L648.6686848958333,189.39128800406968L649.2610763888889,179.25544855323923L650.4458593749999,135.39407244430146L652.2230338541667,147.64388573640127L654.0002083333333,155.4661740133275L656.9621657986112,171.37562648603807L659.924123263889,180.7026936675988L661.10890625,184.86292061170002L662.8860807291667,169.46900676740398L663.4784722222222,185.16838778558431L664.6632552083333,175.52423499229212L665.8480381944445,195.61926348643627L666.4404296875,213.21910407695813L667.625212673611,215.91576363600254L668.2176041666667,194.09007845690155L669.4023871527778,204.21783848241566L669.9947786458333,216.12761927335256L670.587170138889,220.30700853831925L673.5491276041668,213.7148746996044L675.9186935763888,208.5713340046412L677.1034765625,193.32085387369818L684.2121744791667,216.29231071552564L685.3969574652778,223.12471422339405L688.9513064236111,223.1679212421036L689.5436979166666,220.12023071293024L691.9132638888889,219.4703996446387L693.6904383680555,199.26422773988003L695.4676128472223,192.6211729240153L696.0600043402778,205.15895823045594L697.2447873263889,229.19276861064625L697.8371788194445,238.91525083482048L698.4295703125,206.35540114190138L699.614353298611,217.825530449705L703.1687022569445,237.00561954288503L712.6469661458333,266.39180587716453L713.2393576388889,226.33535612982882L713.8317491319444,230.68938792132346L714.4241406250001,222.40557952316712L716.2013151041666,205.03158353780108L720.9404470486111,227.43750958032234L721.5328385416666,252.68007440182998L726.8643619791667,231.57914104099257L729.2339279513889,199.06468317996925L729.8263194444444,202.29120454048513L731.0111024305556,227.8839871940354L731.6034939236112,235.17095267279973L733.3806684027778,226.7244894290584L733.9730598958333,222.5719408315192L735.750234375,251.73449396339268L736.9350173611111,230.27493758287963L739.8969748263889,244.70237372596299L740.4893663194445,306.9558566943774L744.0437152777778,253.38124527389039L745.8208897569444,247.13788164282403L747.0056727430556,292.1992620703708L748.7828472222222,301.939793683177L749.3752387152778,270.02328518876124L751.7448046874999,280.60286880464815L752.3371961805556,323.14285714285717L760.0382855902777,287.827485005965L761.2230685763889,308.378094172121L763.5926345486112,265.4010258814153L764.7774175347222,235.66280680337812L766.554592013889,251.01895097274394L767.739375,255.1571154002509L768.3317664930555,242.53935018807468L770.1089409722222,221.82630292136258L770.7013324652777,232.04497120194955L773.6632899305555,225.31743363151062L774.2556814236111,235.27523487692022L775.4404644097223,223.82573800915745L776.0328559027778,228.9497814003028L780.1795963541667,247.67424004796848L780.7719878472222,250.35069077121855L781.9567708333333,253.69000796944687L786.1035112847222,239.95171261721782L787.2882942708333,268.7690853467339L787.8806857638889,268.5161604873336L788.4730772569444,241.81601054334095L792.6198177083332,255.58644112267785L794.3969921875,251.29427243325063L796.1741666666667,246.69018980373787L798.543732638889,248.16848551618824L800.3209071180555,233.79453920645147L802.0980815972223,227.3205646874331L805.0600390625,225.8273431324997L806.8372135416668,203.40878494829727L808.0219965277778,205.02788506615948L809.2067795138888,187.94122413711418L809.7991710069444,189.78123160476957L815.7230859375001,179.27530852162502L816.3154774305556,185.20540596544643L818.0926519097222,212.61145511454163L820.4622178819445,188.28399952831742L822.8317838541666,174.6534457227916L824.0165668402777,194.02119298255008L825.2013498263889,214.86802212287708L826.3861328125,229.88859758779708L828.1633072916666,224.11425186900786L829.9404817708333,235.169568424756L830.5328732638889,257.7793224596659L831.1252647569445,236.0742259943384L832.3100477430555,245.63542045422597L835.2720052083333,207.80523162665403L836.4567881944445,220.80470416981385L837.6415711805556,208.85166459483142L841.7883116319443,171.05920791948262L844.1578776041666,180.38510945794596L845.3426605902778,186.40835908827023L849.4894010416666,173.63002255756146L850.0817925347222,165.60478119042313L850.6741840277778,219.119056984803L851.2665755208334,174.7459081800399L851.8589670138889,180.34114741827668L854.2285329861111,178.4585961350026L856.0057074652779,180.72566798771896L861.9296223958333,188.58153194696976L863.1144053819444,195.56934472559496L864.2991883680556,174.9456186409993L865.4839713541667,194.19727884736457L867.2611458333333,198.2654788408259L868.4459288194444,207.68517925094767L869.6307118055556,206.21237713655444L870.2231032986111,202.6136848030028L870.8154947916667,170.44699193207194L871.4078862847222,194.9322558017815L872.0002777777778,204.84758429562035L874.36984375,200.94543837467523L876.1470182291666,227.9693130571628L879.1089756944444,228.0449746750883L879.7013671875,257.2033402299932L880.2937586805556,228.1859935992916L882.6633246527778,214.58627454502192L886.8100651041667,224.3841733627549L887.9948480902777,258.1681319018452L889.1796310763889,274.3610627813388L889.7720225694444,234.12178232072856L890.3644140624999,233.8945310984939L892.1415885416667,191.4106657741792L893.3263715277777,196.88804272660883L894.5111545138889,190.31456350063516L895.1035460069444,179.73945838379063L896.2883289930555,205.84816204379996L899.2502864583333,198.29726756016592L900.4350694444445,222.78294735776942L901.0274609375,247.87137005545566L902.8046354166667,240.62392827328102L903.3970269097222,247.70344623304592L904.5818098958334,272.15245874473055L905.174201388889,276.8919989331836L906.9513758680555,240.0480993855365L908.1361588541666,244.58642048744787L909.3209418402778,243.88465814855948L911.0981163194444,210.9571805273798L915.2448567708333,213.8771954450114L917.6144227430556,223.49858417020903L918.2068142361112,225.50805762964075L918.7992057291667,142.2127256983502L924.7231206597222,166.09586578644453L925.9079036458332,195.71627101823358L927.685078125,224.00877110369254L931.2394270833333,230.97585108361648L931.831818576389,181.26435471321926L933.0166015625,185.8113630467244L933.6089930555555,203.48201123281515L934.201384548611,214.4040649420352L936.5709505208333,206.17193261079709L937.7557335069445,219.06488761769933L938.9405164930555,227.92985582998782L940.7176909722223,216.046497924872L943.0872569444444,209.9023251455193L943.6796484375,214.64188535658107L945.4568229166667,232.26079226619183L949.6035633680556,221.6858112252352L950.1959548611111,231.57443569270552L950.7883463541667,287.18715696748035L954.9350868055556,234.61436593958038L957.3046527777777,233.2337366801537L960.2666102430555,261.34044105157164L961.4513932291666,225.8178894043064L963.8209592013889,219.1154073967469L965.5981336805555,211.3456658158862L969.1524826388888,214.06428023071095L972.7068315972223,237.9565845541038L973.8916145833333,224.85030592683867L975.6687890625001,218.98416699825046L976.2611805555556,205.76405349664557L976.8535720486111,220.71767954881722L977.4459635416666,205.4784945422064L978.6307465277778,222.64237180474612L979.8155295138889,217.5382989376924L980.4079210069444,252.42046764552896L982.1850954861111,255.45581223137563L982.7774869791666,266.71481469802103L986.3318359375,260.12061483136705L988.7014019097222,248.59303828382676L991.663359375,251.39454241649773L992.2557508680555,227.9487506601341L992.8481423611111,158.8467097365965L995.2177083333333,186.36340941489206L996.9948828125,159.1778798357823L999.9568402777778,195.55951729269086L1001.7340147569444,206.79941645011758L1004.6959722222222,212.8112563185808L1005.2883637152778,203.35339839773636L1007.0655381944445,196.96169496169665L1009.4351041666666,250.81243998231682L1011.8046701388889,219.89429451964048L1014.7666276041666,200.13586400659563L1017.7285850694444,199.29431231766154L1018.9133680555556,194.72109764276522L1020.6905425347222,238.31350439779126L1021.2829340277777,237.92708523202674L1022.4677170138889,231.5873193046875L1026.6144574652778,240.7627469150117L1032.5383723958334,235.32675277633922L1034.3155468749999,234.22878490576153L1037.8698958333334,245.1193481617994L1041.4242447916668,291.4399408875904L1043.7938107638888,278.3693593772341L1044.3862022569444,218.5393848325184L1044.97859375,213.75249369452996L1045.5709852430555,213.5487053070775L1046.163376736111,205.0312479888759L1050.3101171875,241.35520120820863L1050.9025086805555,248.9313152500594L1053.2720746527777,238.18053438601615L1056.2340321180554,227.63121846364083L1056.826423611111,195.65874923770338L1059.1959895833334,206.08134826858216L1060.9731640625,231.6309100261966L1063.3427300347223,224.50070340258281L1075.1905598958333,248.83072452995782L1077.5601258680556,263.0422042070975L1083.4840407986112,226.59459702758363L1086.445998263889,230.33881002100753L1087.63078125,223.37619610651475L1088.2231727430556,202.93658742532347L1088.8155642361112,152.82762435936573L1089.4079557291668,159.40576981582777L1094.1470876736112,166.51041733255727L1095.3318706597222,218.16203752033599L1097.7014366319445,211.65892888437125L1098.8862196180555,205.2204491824639L1099.4786111111111,217.18967155509284L1100.6633940972222,185.6899699362239L1101.2557855902778,202.90414543024164L1108.3644835069445,201.85250787741253L1108.956875,159.76162000157748L1110.141657986111,183.79387624346788L1114.2883984374998,179.83023784382797L1116.6579644097224,174.52340451367206L1118.435138888889,172.17283223621408L1120.804704861111,193.40720057297008L1123.1742708333331,209.4703121991897L1123.7666623263888,221.20323929675473L1125.5438368055557,225.47039764871042L1129.6905772569444,230.3894632569848L1130.28296875,231.26406468301144L1130.8753602430554,225.8183051208328L1132.0601432291667,210.9211840261947L1133.244926215278,201.47230061916045L1133.8373177083333,205.44237172050697L1140.946015625,216.54339881809153L1144.5003645833333,198.43063534302738L1146.2775390625,185.3303504745906L1146.8699305555556,196.96162636912698L1148.6471050347222,203.95221507539108L1152.7938454861112,179.42089363887615L1154.5710199652779,194.3076025246636L1155.1634114583333,207.31457389562573L1155.755802951389,227.69748222706033L1161.0873263888889,228.43866240941298L1162.8645008680555,249.70365357566516L1163.4568923611112,218.44891551065152L1164.6416753472222,202.34029474289724L1166.4188498263889,205.36872158845952L1167.0112413194445,207.96926583696091L1167.6036328124999,262.39782525670444L1169.3808072916668,220.79507961902956L1171.7503732638888,226.93034441945701L1174.7123307291665,235.86689995513828L1180.6362456597224,220.0800823661632L1181.2286371527778,220.07974995971472L1181.8210286458334,261.2916461995072L1184.1905946180555,223.81969369513166L1184.782986111111,257.2464591450844L1185.3753776041665,263.2765299414342L1190.114509548611,259.2267083037681L1197.8155989583333,266.41385960318826L1199.5927734375,253.1031484811874L1201.962339409722,237.87747606393467L1204.3319053819446,245.9996140238005L1205.5166883680556,247.06678428256535L1207.2938628472223,292.28050574743344L1207.886254340278,317.7882615084251L1210.8482118055556,281.7617321759055L1211.440603298611,251.36744158260782L1213.8101692708335,234.67229111200595L1215.58734375,245.5561045791291L1216.7721267361112,240.37879684883166L1220.3264756944443,210.8439594220468L1222.6960416666668,245.63665641377196L1225.0656076388889,236.58030396244237L1227.4351736111112,210.53747798244032L1229.2123480902776,194.70907648676325L1230.3971310763889,233.311916282314L1233.9514800347222,204.46427813119973L1234.5438715277778,271.92229838774426L1235.1362630208334,241.87597607350838L1235.7286545138888,229.86722380944542L1238.6906119791665,240.14171593555096L1239.2830034722222,232.8549183786295L1239.8753949652778,219.4341675614279L1244.0221354166667,235.86205030943344L1245.2069184027778,248.03562600833416L1246.9840928819444,242.15956363027036L1248.1688758680555,208.79734489210517L1248.7612673611113,225.96689522589637L1249.3536588541667,210.83531326662907L1249.9460503472224,194.70099431214916L1253.5003993055554,173.13414879404203L1255.8699652777777,186.83062657515964L1256.4623567708331,242.70951152531308L1257.0547482638888,243.28236802143695L1257.6471397569446,240.4409282387795L1260.6090972222223,225.4169190863799L1265.3482291666667,240.59197696561324L1265.940620659722,229.3999802587792L1268.3101866319446,223.97812635837704L1269.4949696180556,189.27478864028623L1272.4569270833333,190.30274762952408L1274.2341015625,242.12899360120053L1274.8264930555554,225.45478588783138L1281.3427994791666,254.93826477679457L1287.2667144097222,227.23057772908444L1288.4514973958333,231.39802894056294L1290.228671875,234.099912327743L1292.5982378472222,240.6841992296519L1293.1906293402778,228.3745610272368L1293.7830208333335,263.50464794955434L1295.5601953125001,220.20454574436224L1297.3373697916666,220.47023947415363L1299.7069357638889,237.20736643328328L1302.0765017361111,242.55488164878244L1303.142806423611,245.06532483127154L1306.2232421875,212.5673784564365L1307.4080251736111,209.62824896712564L1312.739548611111,231.47454758435308L1315.1091145833334,197.75417275163664L1316.8862890625,185.45849896494553L1317.4786805555555,175.24970203544842L1318.6634635416665,195.2171787678591L1319.2558550347221,195.0447907765929L1320.4406380208334,187.9261680078902L1322.8102039930557,226.4497222294901L1323.9949869791667,212.00108814747026L1328.1417274305554,270.7409396213338L1329.3265104166667,234.25750642512784L1329.9189019097223,243.60622706933546L1331.696076388889,263.32857924013217L1337.0275998263887,218.9083429966872L1339.9895572916666,222.96063285547876L1340.5819487847223,220.03846321394485L1341.174340277778,252.9873934407344L1344.1362977430556,206.29053770925037L1345.3210807291666,180.10246398194113L1348.8754296875,200.52695329391668L1350.6526041666666,216.48154487303202L1351.2449956597222,230.17568391862963L1352.4297786458333,225.92159388440749L1353.6145616319443,229.46460491140382L1354.7993446180556,217.51815979611263L1357.7613020833335,222.8662171719625L1360.1308680555555,230.54598654825753L1361.9080425347222,267.4925632667509L1365.4623914930555,245.8566362354102L1366.0547829861111,198.59805244786446L1366.6471744791668,190.04049818381017L1368.4243489583334,195.70506660428083L1371.3863064236111,221.63811364362547L1374.9406553819445,215.92012970102175L1375.533046875,198.3960847773086L1381.4569618055555,239.22524710464515L1382.0493532986113,202.16587165158558L1384.4189192708334,192.73762858449516L1385.011310763889,194.85589075994943L1385.6037022569444,239.24692774022472L1387.380876736111,252.12791418253576L1388.565659722222,237.31157290965996L1390.3428342013888,234.15570639588594L1392.1200086805557,223.99599092723537L1393.8971831597223,239.75860082430958L1396.2667491319444,236.34725246381606L1396.859140625,240.64003934408947L1397.4515321180554,227.06095586332125L1398.043923611111,239.81670975767855L1398.6363151041667,233.73089974112202L1399.821098090278,230.91758770392465L1400.4134895833333,216.1930666425297L1401.005881076389,212.53316285360012L1406.337404513889,189.7623495603194L1407.5221875,203.01401867035653L1408.7069704861112,222.82726055424826L1412.2613194444446,239.3633758233646L1412.8537109375,231.2209735425686L1414.6308854166666,201.17736162912414L1430.0330642361112,202.8700662414964L1432.4026302083332,208.839940523947L1432.9950217013889,213.49726591842443L1435.3645876736111,219.27444996071512L1436.5493706597224,228.81999489854041L1438.3265451388888,191.41743605220734L1440.6961111111111,233.90251966339062L1441.2885026041665,226.1355018917905L1443.6580685763888,214.10650797224704L1445.4352430555557,215.07076993091178L1447.8048090277778,210.34764840121983L1451.9515494791665,237.63973936357922L1452.5439409722221,248.91408426229583L1453.136332465278,252.5756975209374L1459.6526388888888,252.04839320984394L1460.2450303819444,240.86931396730586L1461.4298133680554,241.82606884557566L1463.799379340278,257.4093915038171L1466.7613368055556,247.9284082176072L1469.7232942708333,255.46451864439334L1470.9080772569446,242.31537582996415L1471.50046875,224.00727084924844L1472.6852517361112,222.1471051490489L1473.8700347222223,239.35557299600978L1476.2396006944443,266.7038877052342L1477.4243836805556,229.57778013537617L1478.016775173611,248.3234906051495L1479.201558159722,246.47589496031586L1480.978732638889,157.8711002178884L1482.163515625,169.13219329624425L1484.5330815972222,187.46046949098272L1485.1254730902776,188.09904862893416L1487.4950390625,215.4689072494034L1488.0874305555556,194.43276242898463L1490.4569965277778,222.40539968581245L1491.0493880208335,247.02515392205046L1492.8265625,252.5671736003761L1493.4189539930555,227.87068208016484L1495.1961284722222,243.18987247516893L1499.9352604166668,241.4647936066893L1500.5276519097222,228.6304972520872L1502.3048263888888,227.78987498507226L1504.6743923611111,171.78991785621244L1508.2287413194445,182.23851410804633L1514.1526562499998,185.13488948063005L1515.9298307291667,187.794373348447L1520.0765711805554,212.43990448867643L1524.2233116319446,245.51723318161595L1530.7396180555554,235.77332776553573L1531.9244010416667,228.0556969049983L1534.8863585069446,180.96403372988857L1537.8483159722223,210.25395606482985L1539.0330989583333,220.88498880773022L1540.2178819444443,222.49098213638592L1543.772230902778,229.14048597010776L1544.957013888889,288.6268001138179L1545.5494053819446,261.473250452809L1546.7341883680556,245.70655748669435L1547.326579861111,281.10293405708325L1550.8809288194445,281.51534376102535L1553.2504947916668,228.3545225596503L1554.4352777777779,227.4557042855836L1559.7668012152778,224.58631095053923L1561.5439756944445,210.96681772263264L1563.3211501736112,219.39419935405647L1564.5059331597222,220.1650064081802L1570.4298480902778,225.67012862540884L1572.2070225694445,219.11356068409583L1572.7994140625,247.02770662805736L1576.3537630208332,229.8312882135622L1578.1309375,222.28875098769643L1583.4624609375,189.18573175324676L1585.8320269097221,180.39845869207215L1586.424418402778,197.71679159171478L1592.9407248263888,206.73762992915283L1597.6798567708333,228.0151441823392L1600.641814236111,194.21336473064392L1601.2342057291667,195.9248562727449L1604.1961631944446,157.13229671138913L1607.1581206597223,167.63937017352902L1608.935295138889,202.73400705226967L1611.8972526041666,185.17949227184957L1615.4516015625,202.60211983684076L1616.6363845486112,209.54539147779647L1618.4135590277776,216.86173313484002L1621.3755164930556,207.34709456790947L1622.5602994791668,212.92103232188575L1623.1526909722222,226.97652828677911L1623.7450824652778,209.81594054972666L1624.9298654513889,241.43184903955637L1628.4842144097222,232.31353958359318L1629.0766059027776,234.7190444687896L1631.4461718750001,221.07634156672003L1632.6309548611111,217.79668322890262L1637.9624782986111,239.02793151930103L1639.7396527777778,227.5037733741152L1640.924435763889,230.42713447485352L1643.8863932291667,218.66279423759212L1647.4407421874998,217.64404042281416L1650.4026996527778,256.5779104067133L1651.587482638889,224.87242321857917L1652.772265625,221.77525549100696L1653.3646571180554,224.67223180498644L1655.141831597222,219.60185632382465L1655.7342230902777,260.44456219796064L1663.4353125,212.3883973598985L1665.2124869791667,215.58648072112067L1672.913576388889,221.22140328808607L1674.6907508680554,212.5125852901499L1677.060316840278,231.5707518945807L1677.6527083333333,248.88375192210904L1679.4298828125,233.2613174996408L1680.614665798611,198.8488894713437L1681.2070572916666,233.828060943122L1684.7614062500002,231.23363010674106L1688.3157552083333,233.42136585308373L1693.0548871527778,200.67975832405543L1694.2396701388889,196.1761647588919L1694.8320616319445,198.96392021633991L1697.2016276041666,202.0809585795467L1699.5711935763889,235.38884434009145L1700.7559765624999,226.6195262832099L1701.9407595486111,237.80078198482036L1706.0875,198.15397074377248L1706.6798914930555,183.67358001701524L1709.0494574652778,184.79806837418738L1711.4190234375,212.89141095370098L1714.3809809027778,234.55395651444346L1714.9733723958334,226.15759900447512L1715.5657638888888,255.93517150549894L1717.3429383680555,256.88127182223826L1718.5277213541665,242.17013892073723L1719.1201128472221,226.51502683768666L1720.3048958333334,220.72631762603822L1721.4896788194444,225.65898858339654L1723.266853298611,249.81672581567847L1724.451636284722,242.60862354181222L1725.6364192708334,255.31956384045742L1726.2288107638888,243.03279862885975L1726.8212022569444,231.93229695829282L1728.0059852430554,259.0785964191677L1729.1907682291667,284.6748347659822L1732.1527256944444,259.54450997393843L1733.3375086805556,260.1063060928144L1733.929900173611,231.94907024613812L1738.076640625,187.0093502038309L1739.2614236111112,224.3079360220953L1740.4462065972223,216.31865893920383L1741.038598090278,203.15374150624197L1747.554904513889,218.31841077073832L1754.0712109375,214.4387741928285L1754.6636024305556,212.43898134919482L1755.8483854166668,211.90470067729186L1759.9951258680555,225.39302357776072L1761.1799088541666,232.98124317156947L1761.7723003472222,261.4496437993808L1764.7342578125001,295.52310869431767L1765.3266493055555,276.2619654265418L1765.9190407986111,243.08936388775084L1767.6962152777778,227.9363531296688L1768.2886067708334,239.00264199800807L1770.0657812499999,269.281843115966L1773.6201302083334,283.78977485684453L1774.212521701389,280.1697655077803L1775.3973046875,262.64917856622264L1776.582087673611,235.8521395716322L1777.7668706597221,234.0340210573663L1778.3592621527778,229.00564829503605L1784.875568576389,208.72091524286964L1785.4679600694444,195.24989173636718L1786.0603515625,208.70118296922664L1790.7994835069446,186.97323697300533L1791.391875,186.96246886913397L1794.3538324652777,198.97497828417494L1794.9462239583333,172.58260358705408L1795.538615451389,185.12668226872955L1796.1310069444444,198.8221991116981L1797.3157899305554,226.9008152806072L1797.908181423611,224.60496103285104L1798.5005729166667,246.68138915276322L1800.2777473958333,219.2221753042199L1806.7940538194443,209.44633666748567L1810.348402777778,251.00940386086842L1811.533185763889,239.97437110840414L1816.2723177083333,217.49487451852386L1816.8647092013887,245.17142554626068L1817.4571006944445,223.5311867961709L1818.6418836805556,214.3344239951313L1822.7886241319445,247.63221243968687L1824.565798611111,282.8624765598631L1825.7505815972222,274.6183132524435L1827.5277560763889,253.97974273622788L1828.7125390625001,226.2460035122593L1829.8973220486112,236.6567398544181L1835.2288454861111,234.72901052332557L1835.8212369791668,228.60054528967143L1836.4136284722224,213.49856794014536L1837.5984114583334,233.7404629964065L1838.7831944444445,202.75109093523878L1839.9679774305555,195.21417104038653L1841.1527604166665,189.46613236578193L1841.7451519097222,181.9002353862501L1844.1147178819444,220.0549446616576L1844.707109375,263.982369485037L1845.2995008680557,281.88940056710214L1848.2614583333334,304.58660150526316L1848.8538498263888,313.8721116633664L1850.0386328125,273.28762685029136L1851.223415798611,245.8235100891873L1851.8158072916665,203.7592727941747L1854.185373263889,234.07870049804097L1854.7777647569444,224.05529127463623L1857.1473307291667,220.60621076332575L1857.739722222222,221.21812396673047L1858.3321137152777,198.40326242881372L1858.9245052083334,190.68022200312453L1860.1092881944444,167.31808749169005L1860.7016796875,151.95347456468997L1861.2940711805554,188.9499277805419L1865.4408116319444,201.33660303953621L1866.033203125,231.5328032712723L1866.6255946180556,222.1131693141296L1869.5875520833333,188.21471191788842L1870.1799435763887,198.70658834419058L1872.5495095486112,195.56876386141906L1874.326684027778,198.26321880393002L1876.1038585069443,201.59628951594078L1877.2886414930556,208.71774226429025L1878.4734244791666,243.04020991611804L1879.6582074652779,245.91231178716566L1880.2505989583335,246.95269740224262L1880.842990451389,250.09273052620847L1883.8049479166666,233.1357549996223L1884.3973394097222,224.3705950973331L1891.5060373263889,201.7954861664791L1892.6908203125,228.34318785471132L1896.8375607638889,241.29073922605386L1900.3919097222222,243.74357283340754L1900.9843012152778,270.0989895955246L1907.500607638889,271.1332776537833L1908.0929991319445,248.825598481358L1913.4245225694444,263.3610584958474L1914.6093055555555,243.5530367345251L1915.7940885416667,213.6494201778549L1916.3864800347224,223.0590981769818L1917.5712630208334,217.95452391608174L1918.7560460069444,203.89028212680975L1919.3484375,201.84756286033755L1921.1256119791667,215.99677924765993L1923.4951779513888,222.1580251693326L1924.0875694444446,170.75661631260837L1927.0495269097223,220.82769127530383L1928.2343098958333,244.07817935536883L1929.4190928819444,262.718287519506L1930.011484375,236.09222457888492L1932.381050347222,235.39689285776748L1933.5658333333333,242.73626432261037L1935.3430078125,247.49990960718253L1940.0821397569443,234.72366364881253L1941.2669227430554,206.15030817479976L1941.8593142361112,197.56607139589264L1943.0440972222223,196.63891593462967L1946.0060546875,201.97092043058854L1947.190837673611,179.25388988081178L1948.3756206597222,191.25624008043835L1949.5604036458333,179.31985782603806L1951.9299696180556,184.25523707796344L1954.2995355902779,196.74522329284798L1954.8919270833333,209.0008980334083L1959.0386675347222,204.74662562775165L1959.6310590277778,244.05054797679549L1960.8158420138889,174.6874184600443L1961.4082335069445,196.55497797438954L1963.1854079861112,194.1196124699954L1964.3701909722222,188.3500849227384L1964.9625824652778,193.83430449181682L1965.5549739583332,193.50194393666206L1966.7397569444445,203.82230982206354L1970.2941059027778,191.88549247248298L1972.663671875,204.8339540378025L1973.2560633680555,195.91986870797007L1981.5495442708334,190.65422088959008L1983.32671875,198.25396611486772L1985.1038932291665,191.6927249065901L1986.8810677083334,211.52458214197227L1989.2506336805557,221.00269088828261L1991.027808159722,234.67460725094506L1991.6201996527777,245.8262410436911L1992.2125911458334,231.1711839793582L1995.7669401041667,199.1316385587618L1998.7288975694444,182.23039086593514L1999.3212890625,180.21120809436323L1999.9136805555556,203.83143371234792L2002.2832465277777,204.7655540771962L2003.4680295138887,252.22344573094676L2004.0604210069446,260.4233431818541L2007.614769965278,240.21464765722047L2009.3919444444443,233.978438738889L2010.5767274305556,253.5032000216304L2011.169118923611,246.8716549158419L2012.353901909722,260.92754867410423L2012.9462934027779,270.4592945798143L2014.0125980902778,248.43175920419986L2015.315859375,238.04486275879302L2017.0930338541666,247.4975483354564L2021.8321657986112,221.23615554481586L2022.4245572916668,209.91047757502454L2025.3865147569445,198.87284777587064L2027.7560807291666,184.01274472961762L2028.3484722222222,165.86419869711804L2031.3104296875001,194.431403863936L2038.4191276041665,204.07571472009172L2039.0115190972222,260.003148424688L2039.6039105902778,247.79672897598735L2040.1963020833334,226.87162057553067L2040.788693576389,228.4948285751553L2043.7506510416667,227.67422416064403L2046.1202170138888,234.85499131524224L2050.2669574652778,230.58046857246663L2051.451740451389,231.54271829242825L2052.0441319444444,201.48437062710428L2055.0060894097223,227.31930190926343L2056.783263888889,191.8850830284432L2059.7452213541665,213.2250525183999L2060.3376128472223,202.81378899848752L2060.9300043402777,186.36124883037954L2061.5223958333336,177.31112945054073L2062.114787326389,187.5869126004355L2064.484353298611,186.18429187815195L2066.853919270833,182.23675860557003L2068.0387022569444,195.0596840582247L2069.815876736111,194.32280122658722L2072.1854427083335,199.37704854231407L2072.777834201389,199.0528405115476L2073.3702256944443,209.82342353070206L2074.5550086805556,238.52075018607064L2076.9245746527777,255.23149803453347L2077.516966145833,250.0528756061703L2078.7017491319443,248.82610392374164L2079.2941406249997,286.55248911812555L2081.6637065972222,271.72526736613764L2082.2560980902776,269.97689537753985L2082.8484895833335,252.1269192603454L2085.810447048611,233.88440257726995L2086.402838541667,262.01370232239157L2086.995230034722,257.3810310224449L2092.9191449652776,265.3551501289194L2093.5115364583335,269.75732097546245L2095.8811024305555,262.397631883892L2097.0658854166663,236.43847867653886L2100.0278428819447,256.5302559335919L2101.2126258680555,262.8463175632759L2102.989800347222,240.79963214323004L2104.1745833333334,235.99758463694312L2110.098498263889,264.20624544659603L2111.8756727430555,248.64738625877737L2113.652847222222,224.01432546990094L2116.0224131944447,212.15168100006395L2116.6148046875,204.6893081145254L2118.3919791666667,227.0764594687255L2118.984370659722,203.9572494720984" style="fill: none;" fill="none"></path></g></g></g></g><g opacity="0.2"><g><g><g><path stroke="rgb(0, 153, 136)" stroke-width="2px" d="M238.7337717013889,128.51934709960645L239.32616319444443,102.32530697073557L242.88051215277778,126.96133876600015L245.25007812500002,99.69121009275764L245.84246961805556,82.71842285248607L247.61964409722222,321.21613584494514L248.21203559027776,165.24966408301933L248.80442708333334,74.45968728820263L249.98921006944445,110.45864744196219L250.5816015625,101.59060094999455L252.35877604166666,220.80735245419444L252.95116753472223,87.73019836212538L260.65225694444445,116.58118446910801L264.79899739583334,153.57222106569827L265.39138888888886,155.11351835301141L265.9837803819444,217.6434777344079L267.1685633680555,184.37070879942286L268.94573784722223,208.6151925263902L270.7229123263889,139.33156034405818L272.50008680555555,203.4482466639851L273.0924782986111,183.0203203951363L273.68486979166664,151.4503091894891L274.2772612847222,223.5175429836576L275.46204427083336,148.0886374137857L276.0544357638889,200.27314888013615L276.64682725694445,116.64284913157763L277.23921875,235.68536943613202L278.4240017361111,179.7999781721355L279.0163932291667,75.31130858190252L282.5707421875,236.76739582272938L285.5326996527778,189.20229765175367L289.67944010416664,174.2928904519014L295.6033550347222,288.11169406867526L297.97292100694443,150.56407598558226L299.7500954861111,293.6433524689335L300.34248697916667,147.59454523084779L301.5272699652778,144.36829300692054L305.6740104166667,223.32181226686194L308.63596788194445,193.37548898374203L311.0055338541667,197.13431174983472L311.5979253472222,164.4374038085513L312.78270833333335,176.75917492492673L313.96749131944443,245.1802473383678L317.52184027777776,180.11813021931337L318.1142317708333,185.72262176862438L322.2609722222222,200.81183080316822L323.44575520833337,319.49929047476047L324.0381467013889,228.02692838376166L325.8153211805556,258.6829729424117L329.9620616319445,205.97540712114926L331.7392361111111,179.33290616925024L332.92401909722224,279.8287000212086L334.10880208333333,197.33597219971188L337.66315104166665,120.10369249052033L338.2555425347222,56.25299673038084L338.8479340277778,180.30548395342788L341.80989149305555,250.39916004764518L345.95663194444444,183.25433019219295L346.5490234375,163.68610536397748L347.1414149305555,222.11355607906836L349.51098090277776,86.05720629115916L350.10337239583333,216.01927887915417L350.6957638888889,165.73605700996768L354.8425043402778,145.27934832659764L356.61967881944446,287.4058583840345L357.21207031250003,225.5522172786778L357.80446180555555,215.31316965610978L358.3968532986111,228.1498265548533L359.5816362847222,178.21576300079693L361.95120225694444,135.35703239949652L363.13598524305553,111.43540868733452L364.3207682291667,215.9828316304737L366.6903342013889,257.38906646605625L367.2827256944444,166.39990265417018L367.8751171875,275.48923474008205L369.65229166666666,182.98238904694477L372.61424913194446,231.60209770278473L378.53816406249996,149.66483652493702L381.50012152777776,228.6112541192426L382.09251302083334,213.3590002726889L382.68490451388885,263.2963037377115L389.79360243055555,350.287384049102L390.3859939236111,239.89858717623065L390.97838541666664,214.0230211434477L397.49469184027777,212.23022180411562L399.2718663194445,206.06618198240264L400.4566493055555,294.7370462497326L401.64143229166666,304.2323302517177L404.0109982638889,196.78519139110958L405.78817274305555,245.4202117662657L407.5653472222222,245.76817198839439L408.75013020833336,186.9988724833602L411.7120876736111,200.777702274849L412.89687065972225,215.26957385651292L413.48926215277777,245.8842751324723L418.22839409722224,245.32916011182178L419.4131770833333,283.8891168460124L421.78274305555556,226.81682237117175L424.1523090277778,328.29669986026363L425.3370920138889,219.797301623793L425.92948350694445,186.11949619132798L427.7066579861111,188.57338628775014L436.59253038194447,237.99875741414078L437.184921875,323.3048918941992L440.1468793402778,214.7106957181563L441.3316623263889,215.72055304011394L441.92405381944445,216.6763654940195L445.47840277777783,356.5458129696185L446.66318576388886,281.6707942685702L449.0327517361111,225.23335367965706L451.4023177083333,296.77462655582985L451.99470920138884,224.32473687449615L452.5871006944445,199.69494509615993L453.1794921875,217.02756236229743L453.77188368055556,200.89376307577032L454.36427517361113,229.73796080993966L460.8805815972222,186.45928390483647L465.61971354166667,207.0178885725715L467.9892795138889,258.5865497847384L469.1740625,129.75127659493566L470.35884548611114,182.389047022562L472.1360199652778,165.31993384629826L475.09797743055555,251.7224894634624L476.28276041666663,168.71171622364795L479.24471788194444,261.6742659515165L482.20667534722224,198.94206957559044L482.79906684027776,222.12103368423487L486.35341579861114,96.66424402434605L486.94580729166665,254.2028330813698L488.7229817708333,197.30235258648753L489.3153732638889,213.64746410148433L491.6849392361111,366.98979205568753L494.6468967013889,153.42757154761952L495.23928819444444,231.35267402453823L495.8316796875,305.07719097607844L497.0164626736111,181.9796404095357L499.38602864583333,156.76103423923348L499.9784201388889,160.78547795689198L501.163203125,142.838294157908L503.53276909722223,223.37448856856864L504.7175520833333,231.13465332972874L507.08711805555555,199.64060806261963L509.4566840277778,211.04271177002093L510.04907552083336,151.22980512311975L512.4186414930556,189.85898589053852L513.0110329861111,147.0798544433711L514.1958159722222,214.16038917164522L515.3805989583334,142.19624809169986L517.7501649305556,218.63676436391165L518.3425564236111,189.05951259672594L521.3045138888889,91.18939647209169L521.8969053819444,250.17934260143076L525.4512543402777,387.0143429008601L526.0436458333334,175.2811340431153L526.6360373263889,243.6389144015447L529.5979947916667,206.5275481733217L531.9675607638889,232.14863972649403L538.4838671875,371.9287365696658L539.0762586805555,271.1648931929566L539.668650173611,205.95447053442888L540.2610416666668,399.32113296741005L540.8534331597223,150.92146784735L541.4458246527778,213.4454999403022L543.2229991319444,164.08765978555982L543.815390625,318.38447326459266L544.4077821180556,176.16314073770909L552.7012630208333,232.85322859916855L553.2936545138889,235.3443019892258L554.4784375,166.83566670225943L555.0708289930556,131.591310119621L555.6632204861111,192.49133531662295L556.8480034722222,172.73974937663223L558.0327864583334,279.6462582426261L559.2175694444445,239.52706836546292L560.4023524305555,62.606919661067984L560.994743923611,191.76149038359927L562.7719184027778,173.5453579520076L563.9567013888889,214.75418631335288L565.7338758680555,245.5112992718077L566.326267361111,194.0043500410186L569.8806163194445,231.47735224803907L570.4730078125,306.323366432598L571.0653993055556,300.7571888384046L573.4349652777778,221.5603132365217L575.2121397569443,185.95297174006242L576.3969227430556,268.1222059282088L578.1740972222223,147.47527107198124L580.5436631944444,252.58332791466918L582.9132291666666,311.1451885874449L583.5056206597222,170.9028552724246L585.2827951388889,236.82322484263852L586.467578125,238.1350840465493L587.0599696180556,156.28750574480722L588.8371440972222,287.2966913129353L590.0219270833334,148.4204449628178L591.2067100694444,271.74857109409896L591.7991015625,247.0985587399455L592.9838845486111,230.17157949872922L593.5762760416667,204.46551962324014L596.5382335069444,238.38389118425732L599.5001909722222,224.4229887090885L600.0925824652778,233.05719578776728L601.2773654513888,155.32652551308536L603.6469314236111,323.00367896346205L604.8317144097222,154.67689119836592L605.4241059027778,219.84918137286925L607.2012803819445,215.42949419966783L608.3860633680556,358.53511662111976L608.9784548611111,147.54574734961722L611.3480208333334,195.96146318263013L613.7175868055556,257.1973560359759L615.4947612847222,362.96450951230236L616.0871527777778,175.2933631606417L616.6795442708334,243.45824291124595L617.2719357638889,239.38989997772342L617.8643272569444,274.4451165122454L620.8262847222222,142.1856617822776L622.0110677083334,237.1744426346523L622.6034592013889,128.41948535314688L623.7882421874999,181.94817989142345L624.3806336805557,158.64786360637765L626.1578081597222,188.7093993329495L627.3425911458334,287.4157981272293L631.4893315972222,266.72011306190035L633.266506076389,236.14620000397343L636.2284635416667,88.5859622928233L636.8208550347222,201.37229413789441L639.1904210069445,203.9320966443393L641.5599869791666,439.4117427914027L643.3371614583334,98.81979401991171L646.2991189236111,173.87324165123388L647.4839019097222,254.25444086848364L648.6686848958333,163.19240638920252L649.2610763888889,160.28072514586714L650.4458593749999,66.93300541944733L652.2230338541667,174.19551213769665L654.0002083333333,171.90080822131256L656.9621657986112,206.79359922048425L659.924123263889,200.5048388987948L661.10890625,193.38869729004202L662.8860807291667,141.52957469395292L663.4784722222222,220.06424589992037L664.6632552083333,157.41655598075678L665.8480381944445,241.7978646369016L666.4404296875,252.89948557090898L667.625212673611,221.38862759203525L668.2176041666667,155.89363774171295L669.4023871527778,225.8411050730706L669.9947786458333,241.87937265261166L670.587170138889,228.87315417445217L673.5491276041668,201.10557350788542L675.9186935763888,198.64430328647228L677.1034765625,165.61876977064392L684.2121744791667,270.28751298573485L685.3969574652778,237.38225733059022L688.9513064236111,223.25410065117276L689.5436979166666,214.16038917164522L691.9132638888889,218.18005228429053L693.6904383680555,163.5814641585315L695.4676128472223,179.91845135584413L696.0600043402778,232.39108758278272L697.2447873263889,286.1684129578822L697.8371788194445,259.61416124025817L698.4295703125,152.56146297996688L699.614353298611,242.54888623019718L703.1687022569445,280.7720242382518L712.6469661458333,339.22323316775424L713.2393576388889,162.63028030245997L713.8317491319444,239.6239296460233L714.4241406250001,206.72355963172777L716.2013151041666,173.855017717052L720.9404470486111,279.86713439117557L721.5328385416666,313.1113059280609L726.8643619791667,194.5020521632746L729.2339279513889,145.33307431340054L729.8263194444444,208.8624553167487L731.0111024305556,289.32956064429385L731.6034939236112,250.42453161490562L733.3806684027778,210.7503395489947L733.9730598958333,214.50778432451656L735.750234375,323.87361204579065L736.9350173611111,192.64285371264822L739.8969748263889,276.4718029906889L740.4893663194445,528.2097810791995L744.0437152777778,173.53322088844587L745.8208897569444,235.17001023372802L747.0056727430556,421.75823781588196L748.7828472222222,322.6797582006454L749.3752387152778,217.11546241339502L751.7448046874999,303.2629492361484L752.3371961805556,442.302039053491L760.0382855902777,230.30338793076714L761.2230685763889,355.7708591291298L763.5926345486112,198.02968657598032L764.7774175347222,185.79937960996492L766.554592013889,285.0652654441607L767.739375,263.636426187135L768.3317664930555,219.26435302421436L770.1089409722222,185.35197145923317L770.7013324652777,253.8763122651104L773.6632899305555,212.45984723654837L774.2556814236111,256.51021307717446L775.4404644097223,202.55922723230512L776.0328559027778,239.51898719879537L780.1795963541667,290.2522298403405L780.7719878472222,255.7818151753772L781.9567708333333,260.4960818092227L786.1035112847222,214.77593467737518L787.2882942708333,339.8449715952864L787.8806857638889,268.01264923993864L788.4730772569444,196.3160460033343L792.6198177083332,285.76398496132333L794.3969921875,242.9662628397711L796.1741666666667,237.7743854271689L798.543732638889,251.14472680010522L800.3209071180555,207.5514447436889L802.0980815972223,214.92826510183403L805.0600390625,222.87830736849168L806.8372135416668,164.3032722995499L808.0219965277778,208.29061518105735L809.2067795138888,157.2298987237605L809.7991710069444,193.49450128366135L815.7230859375001,159.65132211950015L816.3154774305556,197.50415963791352L818.0926519097222,279.406411442525L820.4622178819445,146.29109448463035L822.8317838541666,149.65935658703103L824.0165668402777,238.27952876864998L825.2013498263889,263.05496429240554L826.3861328125,263.10856405678317L828.1633072916666,213.01330751551467L829.9404817708333,258.9285799966166L830.5328732638889,310.77154992746426L831.1252647569445,198.06341206506676L832.3100477430555,265.9679398897464L835.2720052083333,146.966235882501L836.4567881944445,249.13381559471514L837.6415711805556,186.7160797208128L841.7883116319443,110.26933535410585L844.1578776041666,200.18461851029483L845.3426605902778,198.90821575687593L849.4894010416666,150.0811169581657L850.0817925347222,150.38833546000205L850.6741840277778,388.42325138969557L851.2665755208334,105.65841426032658L851.8589670138889,191.91909377719747L854.2285329861111,174.74988668398888L856.0057074652779,185.31365589795573L861.9296223958333,205.09053518672218L863.1144053819444,210.1667182598253L864.2991883680556,138.6104544903296L865.4839713541667,238.15113113223586L867.2611458333333,206.59752843368767L868.4459288194444,227.69695927335118L869.6307118055556,203.3032887885124L870.2231032986111,195.60075512789837L870.8154947916667,117.1938776469597L871.4078862847222,253.19037592145426L872.0002777777778,225.98567529306254L874.36984375,193.35564641838818L876.1470182291666,293.62295533350647L879.1089756944444,228.19591875589512L879.7013671875,329.32952079531526L880.2937586805556,179.34535136769736L882.6633246527778,189.64422512139362L886.8100651041667,245.25469174308373L887.9948480902777,345.1983296671465L889.1796310763889,310.4862251910241L889.7720225694444,170.18411567387938L890.3644140624999,233.44205472968235L892.1415885416667,124.65115611437199L893.3263715277777,208.21306262993613L894.5111545138889,177.73950092959717L895.1035460069444,159.99441807807398L896.2883289930555,268.7989798934524L899.2502864583333,183.93873219918635L900.4350694444445,281.04225347493264L901.0274609375,307.85804722687055L902.8046354166667,226.81682237117175L903.3970269097222,262.50169145418977L904.5818098958334,330.3072414788453L905.174201388889,286.64281568291403L906.9513758680555,180.4992358881061L908.1361588541666,253.91064717286253L909.3209418402778,242.49165835332275L911.0981163194444,156.6595052724161L915.2448567708333,219.81212574627216L917.6144227430556,243.96774677941406L918.2068142361112,229.56784063519873L918.7992057291667,33.06158199901861L924.7231206597222,222.64562209022466L925.9079036458332,269.2757273966943L927.685078125,293.48025001462287L931.2394270833333,245.52784653874807L931.831818576389,105.82133986985617L933.0166015625,195.15398300984583L933.6089930555555,243.3433506810868L934.201384548611,237.85448784252472L936.5709505208333,190.58284385269675L937.7557335069445,247.14025375125502L938.9405164930555,246.69031704198355L940.7176909722223,194.03087093404133L943.0872569444444,198.11737985886452L943.6796484375,224.39274461244807L945.4568229166667,271.98988082841333L949.6035633680556,201.94098793695142L950.1959548611111,252.6516403681625L950.7883463541667,467.774971776947L954.9350868055556,155.89363774171295L957.3046527777777,230.5050998134328L960.2666102430555,330.2475106053637L961.4513932291666,168.01752429325765L963.8209592013889,206.3037334913441L965.5981336805555,196.59070658112262L969.1524826388888,219.58250265799703L972.7068315972223,294.53221439454546L973.8916145833333,200.74357878068798L975.6687890625001,207.71315877211592L976.2611805555556,181.46419448435705L976.8535720486111,253.7732767170207L977.4459635416666,177.79511772991285L978.6307465277778,261.2129139083649L979.8155295138889,207.68502209760288L980.4079210069444,343.18101122349924L982.1850954861111,261.6298676185509L982.7774869791666,290.9466307622224L986.3318359375,247.5075221395974L988.7014019097222,227.19143010144174L991.663359375,257.0841330780151L992.2557508680555,187.2820113634887L992.8481423611111,62.76097163688693L995.2177083333333,253.4902164543387L996.9948828125,112.9713584435372L999.9568402777778,291.5420804881318L1001.7340147569444,230.98683029700004L1004.6959722222222,225.28646710086298L1005.2883637152778,185.57556737289173L1007.0655381944445,184.72067345962296L1009.4351041666666,421.8824638601212L1011.8046701388889,168.37326500751507L1014.7666276041666,165.15603215859312L1017.7285850694444,197.62533163608973L1018.9133680555556,185.86336139555686L1020.6905425347222,361.7430916914925L1021.2829340277777,237.1584821988275L1022.4677170138889,219.441877931233L1026.6144574652778,260.2223125812756L1032.5383723958334,224.85433406100637L1034.3155468749999,232.05485771852017L1037.8698958333334,268.496936560784L1041.4242447916668,426.4177452480719L1043.7938107638888,254.32324865312796L1044.3862022569444,131.87998948959105L1044.97859375,204.49325087225625L1045.5709852430555,213.14288391635515L1046.163376736111,188.92977178283036L1050.3101171875,337.13404587370565L1050.9025086805555,264.8217393924955L1053.2720746527777,218.12854546703562L1056.2340321180554,207.9312921480996L1056.826423611111,142.6736151634905L1059.1959895833334,228.38043445874504L1060.9731640625,292.9509780010513L1063.3427300347223,210.9071820667229L1075.1905598958333,306.64675049914393L1077.5601258680556,294.2866748326899L1083.4840407986112,167.56770234250482L1086.445998263889,237.99072945833333L1087.63078125,210.08853431910399L1088.2231727430556,166.88872258256637L1088.8155642361112,76.92406982782286L1089.4079557291668,173.10889652797246L1094.1470876736112,181.3637508859557L1095.3318706597222,377.9716959072573L1097.7014366319445,199.21309478759298L1098.8862196180555,192.89339787971426L1099.4786111111111,243.0809678971215L1100.6633940972222,133.35938205533313L1101.2557855902778,241.60235472365392L1108.3644835069445,199.76969354034063L1108.956875,93.49170669569565L1110.141657986111,240.76512220671597L1114.2883984374998,172.12381638399467L1116.6579644097224,164.29161055167066L1118.435138888889,167.55587487134432L1120.804704861111,242.6388304338424L1123.1742708333331,245.27124038962378L1123.7666623263888,246.54052578493517L1125.5438368055557,234.2215778877002L1129.6905772569444,240.52185816977266L1130.28296875,233.0179631154612L1130.8753602430554,215.32770919192853L1132.0601432291667,183.8054945187385L1133.244926215278,183.7103781859094L1133.8373177083333,213.56811229363277L1140.946015625,240.4083953954121L1144.5003645833333,166.06480039407322L1146.2775390625,161.2337994243949L1146.8699305555556,222.0611660835183L1148.6471050347222,218.55566529405644L1152.7938454861112,137.1231361701003L1154.5710199652779,227.1990736586376L1155.1634114583333,235.66156386933952L1155.755802951389,274.6422894713444L1161.0873263888889,229.92371106080842L1162.8645008680555,299.0181095620296L1163.4568923611112,166.458737192099L1164.6416753472222,173.22399128346808L1166.4188498263889,211.528423366638L1167.0112413194445,213.24371194648796L1167.6036328124999,436.53819614932803L1169.3808072916668,155.1359351444393L1171.7503732638888,239.67236587243949L1174.7123307291665,254.78829380333374L1180.6362456597224,191.49248506192853L1181.2286371527778,220.07908713870142L1181.8210286458334,375.1987281054811L1184.1905946180555,163.44782787290478L1184.782986111111,343.0799726541366L1185.3753776041665,275.79112264219015L1190.114509548611,251.35697869870472L1197.8155989583333,281.44819011712036L1199.5927734375,228.6497648206929L1201.962339409722,210.21648235579832L1204.3319053819446,263.09963700199154L1205.5166883680556,249.20954340686288L1207.2938628472223,422.4867951906074L1207.886254340278,378.98701965134865L1210.8482118055556,223.29172971973745L1211.440603298611,200.57983327362163L1213.8101692708335,204.59732644292598L1215.58734375,268.9180856154381L1216.7721267361112,230.3886940161286L1220.3264756944443,161.26831326269627L1222.6960416666668,336.090358521321L1225.0656076388889,219.51587657433836L1227.4351736111112,166.00019892213265L1229.2123480902776,166.0530495103195L1230.3971310763889,337.3187175058522L1233.9514800347222,155.86554527328988L1234.5438715277778,532.0073838632737L1235.1362630208334,191.57775014700746L1235.7286545138888,207.63579953199266L1238.6906119791665,262.10096224028666L1239.2830034722222,218.97618069388548L1239.8753949652778,194.79453083591181L1244.0221354166667,272.5756465880664L1245.2069184027778,274.4075724123301L1246.9840928819444,230.8701819072257L1248.1688758680555,153.90641208901465L1248.7612673611113,264.5518318304858L1249.3536588541667,183.3302732702122L1249.9460503472224,165.54255376082497L1253.5003993055554,135.33645247908734L1255.8699652777777,216.82995288521076L1256.4623567708331,424.77622937266443L1257.0547482638888,244.42890271711903L1257.6471397569446,234.87716271325547L1260.6090972222223,198.0903863453277L1265.3482291666667,274.1918455298506L1265.940620659722,208.57989323963656L1268.3101866319446,213.53203196334033L1269.4949696180556,132.5702069925338L1272.4569270833333,192.366246848471L1274.2341015625,402.8092127843052L1274.8264930555554,195.4139413322889L1281.3427994791666,328.0717415943326L1287.2667144097222,180.26801000181624L1288.4514973958333,239.9390236485893L1290.228671875,239.58356745414116L1292.5982378472222,254.40069470623078L1293.1906293402778,205.6266225154954L1293.7830208333335,355.11817754317167L1295.5601953125001,152.43405487181798L1297.3373697916666,221.0009485944043L1299.7069357638889,274.6986650837677L1302.0765017361111,253.60169361494496L1303.142806423611,250.15399790927646L1306.2232421875,158.85844935613997L1307.4080251736111,203.87675532548067L1312.739548611111,282.3690230513394L1315.1091145833334,142.37646651304263L1316.8862890625,162.7344920423903L1317.4786805555555,156.14675777352696L1318.6634635416665,241.05740810887104L1319.2558550347221,194.70143004395894L1320.4406380208334,174.35376727627894L1322.8102039930557,330.1639075897451L1323.9949869791667,185.6331005906525L1328.1417274305554,469.44778130968183L1329.3265104166667,175.1833389380097L1329.9189019097223,263.4573509152363L1331.696076388889,308.52044528228583L1337.0275998263887,149.76336707930898L1339.9895572916666,231.2592140752621L1340.5819487847223,214.31954431993154L1341.174340277778,337.23252004337974L1344.1362977430556,134.39702632452696L1345.3210807291666,135.35188111534035L1348.8754296875,247.58271936662354L1350.6526041666666,252.01192296229013L1351.2449956597222,260.1693773196181L1352.4297786458333,217.66549944228484L1353.6145616319443,236.69563273086817L1354.7993446180556,195.39392315653788L1357.7613020833335,233.91418961005678L1360.1308680555555,246.66533186660652L1361.9080425347222,365.4825260190274L1365.4623914930555,207.9524084173608L1366.0547829861111,126.03548033223308L1366.6471744791668,173.8671571892423L1368.4243489583334,207.43197940329068L1371.3863064236111,284.07496027974014L1374.9406553819445,204.9237013978703L1375.533046875,166.9771667245834L1381.4569618055555,351.6461234650169L1382.0493532986113,142.3340659045882L1384.4189192708334,175.01230055952388L1385.011310763889,199.1385259440375L1385.6037022569444,365.9838576507035L1387.380876736111,280.174793571272L1388.565659722222,210.33027149826702L1390.3428342013888,227.98853952318925L1392.1200086805557,204.97929376943495L1393.8971831597223,274.8114351291784L1396.2667491319444,229.6915603723158L1396.859140625,249.44529077340178L1397.4515321180554,202.15374344712154L1398.043923611111,267.5658177914195L1398.6363151041667,222.0536904132004L1399.821098090278,225.40791760363766L1400.4134895833333,189.36467241337374L1401.005881076389,205.40369395416693L1406.337404513889,150.1194969662962L1407.5221875,231.94549030192408L1408.7069704861112,268.2592411300779L1412.2613194444446,276.3487450283085L1412.8537109375,215.7933880286677L1414.6308854166666,150.88295456801725L1430.0330642361112,206.2827671704417L1432.4026302083332,221.2245357297674L1432.9950217013889,223.0736451226487L1435.3645876736111,231.2436379932175L1436.5493706597224,249.1170083851575L1438.3265451388888,131.13625051490538L1440.6961111111111,352.84159060406L1441.2885026041665,211.38547014291194L1443.6580685763888,191.8402786590256L1445.4352430555557,217.00560129528225L1447.8048090277778,201.20811946796192L1451.9515494791665,304.0935874035401L1452.5439409722221,273.18156988675776L1453.136332465278,260.0546907451964L1459.6526388888888,251.00051637068532L1460.2450303819444,220.0716575556949L1461.4298133680554,243.74574297077558L1463.799379340278,292.01750382578865L1466.7613368055556,230.1095921049239L1469.7232942708333,271.26668338310355L1470.9080772569446,218.13589536379138L1471.50046875,191.3286260557692L1472.6852517361112,218.48197311264028L1473.8700347222223,278.0392901739109L1476.2396006944443,333.3259450690735L1477.4243836805556,169.6584717037476L1478.016775173611,290.9567238139356L1479.201558159722,242.83523816230584L1480.978732638889,44.20890577889028L1482.163515625,193.36886935258093L1484.5330815972222,229.01192835670003L1485.1254730902776,189.3776691781159L1487.4950390625,282.15546261663934L1488.0874305555556,157.4561725849868L1490.4569965277778,290.9063350374081L1491.0493880208335,305.6671951289993L1492.8265625,264.0308632970248L1493.4189539930555,185.32642704660682L1495.1961284722222,277.14498357860765L1499.9352604166668,238.06289549273674L1500.5276519097222,204.98625411311562L1502.3048263888888,226.1227275892974L1504.6743923611111,89.255161071432L1508.2287413194445,204.59732644292598L1514.1526562499998,191.02085065555863L1515.9298307291667,193.19046285232847L1520.0765711805554,271.1556277215327L1524.2233116319446,330.18778091388907L1530.7396180555554,217.48933196981312L1531.9244010416667,213.39503643816633L1534.8863585069446,108.59990521212953L1537.8483159722223,282.78703942839695L1539.0330989583333,243.66355523607243L1540.2178819444443,225.72702207042082L1543.772230902778,242.99901595860024L1544.957013888889,491.91550686537295L1545.5494053819446,215.31316965610978L1546.7341883680556,217.15208856065394L1547.326579861111,373.6372000652701L1550.8809288194445,282.3398948242571L1553.2504947916668,148.9708575611695L1554.4352777777779,225.6738074158121L1559.7668012152778,218.9688040519275L1561.5439756944445,185.9913933445265L1563.3211501736112,237.1744426346523L1564.5059331597222,221.70971416406493L1570.4298480902778,237.05465197777954L1572.2070225694445,206.56954380095678L1572.7994140625,315.35174895918783L1576.3537630208332,198.94206957559044L1578.1309375,207.94537504205468L1583.4624609375,134.64819104410446L1585.8320269097221,163.81406756535847L1586.424418402778,236.67968628810277L1592.9407248263888,225.84870414359725L1597.6798567708333,277.3634832952008L1600.641814236111,138.7252683045656L1601.2342057291667,199.37585922181376L1604.1961631944446,95.04660091723609L1607.1581206597223,190.1326092700289L1608.935295138889,294.2253184548806L1611.8972526041666,153.71141087245115L1615.4516015625,241.83047217058842L1616.6363845486112,224.0452933808555L1618.4135590277776,232.17989641979693L1621.3755164930556,189.46865148461637L1622.5602994791668,224.45323676024933L1623.1526909722222,257.8428687328344L1623.7450824652778,178.9847714004261L1624.9298654513889,321.31955561002053L1628.4842144097222,215.138801098314L1629.0766059027776,239.59163163053316L1631.4461718750001,196.06175355803552L1632.6309548611111,211.39260889133865L1637.9624782986111,288.25112481355217L1639.7396527777778,206.1080772788453L1640.924435763889,236.3689976092631L1643.8863932291667,196.8522853235997L1647.4407421874998,215.6259278536625L1650.4026996527778,361.8115355641536L1651.587482638889,172.2565333714865L1652.772265625,215.72055304011394L1653.3646571180554,230.5594376347798L1655.141831597222,209.81157866270127L1655.7342230902777,372.91782544898336L1663.4353125,138.88192901373446L1665.2124869791667,222.09858374893307L1672.913576388889,232.88459934012818L1674.6907508680554,196.06845069669635L1677.060316840278,275.0183193572646L1677.6527083333333,287.83308443831885L1679.4298828125,204.94454490049782L1680.614665798611,142.53562028065198L1681.2070572916666,324.9218684210646L1684.7614062500002,226.14557148142723L1688.3157552083333,237.84648399351835L1693.0548871527778,146.63653184825537L1694.2396701388889,187.44948024403126L1694.8320616319445,204.62507349761137L1697.2016276041666,208.42462015007828L1699.5711935763889,320.8258587105958L1700.7559765624999,210.06722217147112L1701.9407595486111,261.85196573280155L1706.0875,134.9715428110318L1706.6798914930555,157.25252154606056L1709.0494574652778,187.05676081161565L1711.4190234375,281.7579605906096L1714.3809809027778,284.9473858153387L1714.9733723958334,210.27337840855643L1715.5657638888888,329.9848579128507L1717.3429383680555,258.77943630689026L1718.5277213541665,215.3640533634712L1719.1201128472221,198.1443765225085L1720.3048958333334,209.59874954255142L1721.4896788194444,235.82033918679525L1723.266853298611,307.14346167479L1724.451636284722,228.87315417445217L1725.6364192708334,282.9622486297683L1726.2288107638888,220.3240608710636L1726.8212022569444,211.27116091534006L1728.0059852430554,325.0970266246847L1729.1907682291667,346.1304468623186L1732.1527256944444,216.35489112181622L1733.3375086805556,261.2306233326058L1733.929900173611,184.33892144509028L1738.076640625,117.23193429470587L1739.2614236111112,323.5600646778641L1740.4462065972223,201.1670858483419L1741.038598090278,178.9474959546083L1747.554904513889,251.89270418604139L1754.0712109375,206.89169696702166L1754.6636024305556,208.50224366744388L1755.8483854166668,210.84300791056668L1759.9951258680555,254.89176196445234L1761.1799088541666,248.89838526724984L1761.7723003472222,331.4571639045051L1764.7342578125001,383.52915201546654L1765.3266493055555,242.066965708753L1765.9190407986111,188.4568628833643L1767.6962152777778,200.39578035176928L1768.2886067708334,262.78708776589997L1770.0657812499999,344.90542299375784L1773.6201302083334,315.7553079969572L1774.212521701389,273.1162406448446L1775.3973046875,231.2358410635562L1776.582087673611,190.21084463837457L1777.7668706597221,230.45077475230843L1778.3592621527778,219.29393398818343L1784.875568576389,172.91517447675542L1785.4679600694444,170.5252428476284L1786.0603515625,238.11102506685114L1790.7994835069446,148.92723102105165L1791.391875,186.94099863712535L1794.3538324652777,224.96796933743684L1794.9462239583333,127.53255287983656L1795.538615451389,212.37371526454697L1796.1310069444444,228.81921095219732L1797.3157899305554,295.72271769583983L1797.908181423611,220.09391163877152L1798.5005729166667,298.20546534839946L1800.2777473958333,172.6188579209093L1806.7940538194443,191.10594205265977L1810.348402777778,366.29076360298893L1811.533185763889,219.42707751462504L1816.2723177083333,178.29625678426427L1816.8647092013887,312.77876423024475L1817.4571006944445,185.62031250104334L1818.6418836805556,197.02012134924468L1822.7886241319445,333.0355899257977L1824.565798611111,374.82182970557005L1825.7505815972222,259.0075835214289L1827.5277560763889,217.62144061982025L1828.7125390625001,179.24582334885204L1829.8973220486112,258.9285799966166L1835.2288454861111,230.93239200592416L1835.8212369791668,216.84458806731985L1836.4136284722224,186.0426320789067L1837.5984114583334,280.309520363121L1838.7831944444445,151.1306481357903L1839.9679774305555,180.8809853622071L1841.1527604166665,178.4139621769895L1841.7451519097222,167.51449053075362L1844.1147178819444,322.4140040734076L1844.707109375,388.79221547234295L1845.2995008680557,322.35627659969913L1848.2614583333334,357.8207708627168L1848.8538498263888,333.5802996932569L1850.0386328125,208.91193960490668L1851.223415798611,199.21309478759298L1851.8158072916665,137.52263018839653L1854.185373263889,309.82910745095575L1854.7777647569444,205.27837957207868L1857.1473307291667,213.87850131635565L1857.739722222222,222.44313912901023L1858.3321137152777,158.69336255312885L1858.9245052083334,176.00976969287262L1860.1092881944444,126.77784173303807L1860.7016796875,124.06249665116572L1861.2940711805554,287.1181932670055L1865.4408116319444,228.21129097148344L1866.033203125,306.89498564645993L1866.6255946180556,204.40310753574514L1869.5875520833333,132.5956324407001L1870.1799435763887,221.1648818820475L1872.5495095486112,189.4361559094843L1874.326684027778,203.73152877751733L1876.1038585069443,208.38934992828322L1877.2886414930556,223.6079264511844L1878.4734244791666,331.8898609654695L1879.6582074652779,251.74800658929038L1880.2505989583335,249.04131085325844L1880.842990451389,256.48416525131586L1883.8049479166666,202.63490707634855L1884.3973394097222,207.82572292717677L1891.5060373263889,162.45091143590275L1892.6908203125,292.5852483633452L1896.8375607638889,269.49611505295746L1900.3919097222222,248.71358081380552L1900.9843012152778,333.7742857078909L1907.500607638889,273.2095674227835L1908.0929991319445,209.88965211445296L1913.4245225694444,295.3937100224091L1914.6093055555555,208.49517672996322L1915.7940885416667,163.55240863400627L1916.3864800347224,243.0481836378123L1917.5712630208334,208.10030989048767L1918.7560460069444,178.16622865920343L1919.3484375,197.8274207591443L1921.1256119791667,247.09020871099955L1923.4951779513888,234.9562680236579L1924.0875694444446,93.36724500679856L1927.0495269097223,372.9321934380999L1928.2343098958333,298.8511746858059L1929.4190928819444,305.07719097607844L1930.011484375,190.70042773543923L1932.381050347222,234.01660073076215L1933.5658333333333,258.1050776276185L1935.3430078125,257.3019075550071L1940.0821397569443,211.17832092064808L1941.2669227430554,157.94346081859558L1941.8593142361112,181.34492724126284L1943.0440972222223,194.80117552985124L1946.0060546875,212.98453595661087L1947.190837673611,139.69294544677686L1948.3756206597222,217.22535825616959L1949.5604036458333,157.21293979894097L1951.9299696180556,194.42235226627406L1954.2995355902779,223.86420188108926L1954.8919270833333,235.56634717702266L1959.0386675347222,196.49018667837987L1959.6310590277778,350.66546010936827L1960.8158420138889,78.34704427091825L1961.4082335069445,247.5075221395974L1963.1854079861112,189.33868107420594L1964.3701909722222,177.25807244091703L1964.9625824652778,205.17399722139734L1965.5549739583332,192.84063497835382L1966.7397569444445,225.8867395199294L1970.2941059027778,169.77782558563584L1972.663671875,233.04149817855946L1973.2560633680555,179.10905146401126L1981.5495442708334,180.4992358881061L1983.32671875,214.19655039875576L1985.1038932291665,179.14012820982498L1986.8810677083334,257.0057835950112L1989.2506336805557,241.1467935522471L1991.027808159722,264.61478638959034L1991.6201996527777,269.80865601708757L1992.2125911458334,204.45857492931694L1995.7669401041667,146.0538955230238L1998.7288975694444,151.82008353402108L1999.3212890625,176.23679087418412L1999.9136805555556,259.64056390988003L2002.2832465277777,206.63953676825048L2003.4680295138887,392.2332624917375L2004.0604210069446,277.69637441065396L2007.614769965278,204.52793201368868L2009.3919444444443,222.0237544692678L2010.5767274305556,298.1742486208523L2011.169118923611,234.19004413359568L2012.353901909722,291.79485232707646L2012.9462934027779,290.72500705876246L2014.0125980902778,209.9251518375225L2015.315859375,218.62938095757627L2017.0930338541666,267.58404202824727L2021.8321657986112,176.3780253113425L2022.4245572916668,188.85846002179588L2025.3865147569445,178.32103655414284L2027.7560807291666,156.95862420830295L2028.3484722222222,133.44101197632898L2031.3104296875001,264.7407469273724L2038.4191276041665,224.5969419810233L2039.0115190972222,442.340827806958L2039.6039105902778,225.225774795314L2040.1963020833334,190.0674359244536L2040.788693576389,231.7659247736847L2043.7506510416667,226.04656731643053L2046.1202170138888,249.8753089185303L2050.2669574652778,222.2857807713422L2051.451740451389,233.47348668220877L2052.0441319444444,151.16920267707278L2055.0060894097223,289.46972757814603L2056.783263888889,134.20243657398652L2059.7452213541665,262.7424753652019L2060.3376128472223,183.3555982017414L2060.9300043402777,156.68204548195058L2061.5223958333336,160.25780425806624L2062.114787326389,209.54911813905338L2064.484353298611,183.4125818877843L2066.853919270833,174.5608742021114L2068.0387022569444,222.96844138200993L2069.815876736111,192.8604176903714L2072.1854427083335,209.7973817053413L2072.777834201389,198.40771895972628L2073.3702256944443,232.92380939969337L2074.5550086805556,309.2283805238828L2076.9245746527777,292.6563145010761L2077.516966145833,240.0603176346895L2078.7017491319443,246.39915627830595L2079.2941406249997,387.35047799439235L2081.6637065972222,244.72585752913014L2082.2560980902776,266.52957529933025L2082.8484895833335,220.1829847806402L2085.810447048611,201.3107109043755L2086.402838541667,330.9893143057129L2086.995230034722,248.41146616290666L2092.9191449652776,282.12636126544925L2093.5115364583335,278.7935608322422L2095.8811024305555,248.38631440651656L2097.0658854166663,192.0242276115874L2100.0278428819447,302.7002236698756L2101.2126258680555,275.97998593874854L2102.989800347222,202.26363410196493L2104.1745833333334,226.70990291475493L2110.098498263889,333.42281115792156L2111.8756727430555,220.4354919398378L2113.652847222222,181.56468171313315L2116.0224131944447,190.17173141915336L2116.6148046875,190.4914223754659L2118.3919791666667,279.4543563398708L2118.984370659722,163.78496894451095" style="fill: none;" fill="none"></path></g></g></g></g></g></g><g transform="translate(20, 377)" clip-path="url(#clip_1)"><clipPath id="clip_1"><rect width="2132" height="23"></rect></clipPath><g><g><line x1="0" y1="0" x2="0" y2="5" style="visibility: inherit;" fill="rgb(0, 0, 0)" stroke="rgb(204, 204, 204)" stroke-width="1px"></line><line x1="236.9565972222222" y1="0" x2="236.9565972222222" y2="5" style="visibility: inherit;" fill="rgb(0, 0, 0)" stroke="rgb(204, 204, 204)" stroke-width="1px"></line><line x1="473.9131944444444" y1="0" x2="473.9131944444444" y2="5" style="visibility: inherit;" fill="rgb(0, 0, 0)" stroke="rgb(204, 204, 204)" stroke-width="1px"></line><line x1="710.8697916666666" y1="0" x2="710.8697916666666" y2="5" style="visibility: inherit;" fill="rgb(0, 0, 0)" stroke="rgb(204, 204, 204)" stroke-width="1px"></line><line x1="947.8263888888888" y1="0" x2="947.8263888888888" y2="5" style="visibility: inherit;" fill="rgb(0, 0, 0)" stroke="rgb(204, 204, 204)" stroke-width="1px"></line><line x1="1184.782986111111" y1="0" x2="1184.782986111111" y2="5" style="visibility: inherit;" fill="rgb(0, 0, 0)" stroke="rgb(204, 204, 204)" stroke-width="1px"></line><line x1="1421.7395833333333" y1="0" x2="1421.7395833333333" y2="5" style="visibility: inherit;" fill="rgb(0, 0, 0)" stroke="rgb(204, 204, 204)" stroke-width="1px"></line><line x1="1658.6961805555557" y1="0" x2="1658.6961805555557" y2="5" style="visibility: inherit;" fill="rgb(0, 0, 0)" stroke="rgb(204, 204, 204)" stroke-width="1px"></line><line x1="1895.6527777777776" y1="0" x2="1895.6527777777776" y2="5" style="visibility: inherit;" fill="rgb(0, 0, 0)" stroke="rgb(204, 204, 204)" stroke-width="1px"></line><line x1="2132.609375" y1="0" x2="2132.609375" y2="5" style="visibility: inherit;" fill="rgb(0, 0, 0)" stroke="rgb(204, 204, 204)" stroke-width="1px"></line></g><g transform="translate(0, 8)"><text x="0" y="0" dx="0em" dy="0.95em" style="text-anchor: middle; visibility: hidden; font-family: Roboto, sans-serif; font-size: 12px; font-weight: 200;" fill="rgb(255, 255, 255)" stroke="none" stroke-width="1px">-2k</text><text x="236.9565972222222" y="0" dx="0em" dy="0.95em" style="text-anchor: middle; visibility: inherit; font-family: Roboto, sans-serif; font-size: 12px; font-weight: 200;" fill="rgb(255, 255, 255)" stroke="none" stroke-width="1px">0</text><text x="473.9131944444444" y="0" dx="0em" dy="0.95em" style="text-anchor: middle; visibility: inherit; font-family: Roboto, sans-serif; font-size: 12px; font-weight: 200;" fill="rgb(255, 255, 255)" stroke="none" stroke-width="1px">2k</text><text x="710.8697916666666" y="0" dx="0em" dy="0.95em" style="text-anchor: middle; visibility: inherit; font-family: Roboto, sans-serif; font-size: 12px; font-weight: 200;" fill="rgb(255, 255, 255)" stroke="none" stroke-width="1px">4k</text><text x="947.8263888888888" y="0" dx="0em" dy="0.95em" style="text-anchor: middle; visibility: inherit; font-family: Roboto, sans-serif; font-size: 12px; font-weight: 200;" fill="rgb(255, 255, 255)" stroke="none" stroke-width="1px">6k</text><text x="1184.782986111111" y="0" dx="0em" dy="0.95em" style="text-anchor: middle; visibility: inherit; font-family: Roboto, sans-serif; font-size: 12px; font-weight: 200;" fill="rgb(255, 255, 255)" stroke="none" stroke-width="1px">8k</text><text x="1421.7395833333333" y="0" dx="0em" dy="0.95em" style="text-anchor: middle; visibility: inherit; font-family: Roboto, sans-serif; font-size: 12px; font-weight: 200;" fill="rgb(255, 255, 255)" stroke="none" stroke-width="1px">10k</text><text x="1658.6961805555557" y="0" dx="0em" dy="0.95em" style="text-anchor: middle; visibility: inherit; font-family: Roboto, sans-serif; font-size: 12px; font-weight: 200;" fill="rgb(255, 255, 255)" stroke="none" stroke-width="1px">12k</text><text x="1895.6527777777776" y="0" dx="0em" dy="0.95em" style="text-anchor: middle; visibility: inherit; font-family: Roboto, sans-serif; font-size: 12px; font-weight: 200;" fill="rgb(255, 255, 255)" stroke="none" stroke-width="1px">14k</text><text x="2132.609375" y="0" dx="0em" dy="0.95em" style="text-anchor: middle; visibility: hidden; font-family: Roboto, sans-serif; font-size: 12px; font-weight: 200;" fill="rgb(255, 255, 255)" stroke="none" stroke-width="1px">16k</text></g><line x1="0" y1="0" x2="2132.609375" y2="0" fill="rgb(0, 0, 0)" stroke="rgb(204, 204, 204)" stroke-width="1px"></line></g></g></g></g></svg>