<svg viewBox="0 0 2153 400" xmlns="http://www.w3.org/2000/svg"><g><g><g><g><g><line x1="30.78125" y1="365.2204820999818" x2="25.78125" y2="365.2204820999818" style="visibility: inherit;" fill="rgb(0, 0, 0)" stroke="rgb(204, 204, 204)" stroke-width="1px"></line><line x1="30.78125" y1="325.5423892603953" x2="25.78125" y2="325.5423892603953" style="visibility: inherit;" fill="rgb(0, 0, 0)" stroke="rgb(204, 204, 204)" stroke-width="1px"></line><line x1="30.78125" y1="297.39033437141734" x2="25.78125" y2="297.39033437141734" style="visibility: inherit;" fill="rgb(0, 0, 0)" stroke="rgb(204, 204, 204)" stroke-width="1px"></line><line x1="30.78125" y1="275.5539041372323" x2="25.78125" y2="275.5539041372323" style="visibility: inherit;" fill="rgb(0, 0, 0)" stroke="rgb(204, 204, 204)" stroke-width="1px"></line><line x1="30.78125" y1="257.7122415318309" x2="25.78125" y2="257.7122415318309" style="visibility: inherit;" fill="rgb(0, 0, 0)" stroke="rgb(204, 204, 204)" stroke-width="1px"></line><line x1="30.78125" y1="242.62733073886645" x2="25.78125" y2="242.62733073886645" style="visibility: inherit;" fill="rgb(0, 0, 0)" stroke="rgb(204, 204, 204)" stroke-width="1px"></line><line x1="30.78125" y1="229.56018664285295" x2="25.78125" y2="229.56018664285295" style="visibility: inherit;" fill="rgb(0, 0, 0)" stroke="rgb(204, 204, 204)" stroke-width="1px"></line><line x1="30.78125" y1="218.03414869224434" x2="25.78125" y2="218.03414869224434" style="visibility: inherit;" fill="rgb(0, 0, 0)" stroke="rgb(204, 204, 204)" stroke-width="1px"></line><line x1="30.78125" y1="207.7237564086678" x2="25.78125" y2="207.7237564086678" style="visibility: inherit;" fill="rgb(0, 0, 0)" stroke="rgb(204, 204, 204)" stroke-width="1px"></line><line x1="30.78125" y1="139.89360868010343" x2="25.78125" y2="139.89360868010343" style="visibility: inherit;" fill="rgb(0, 0, 0)" stroke="rgb(204, 204, 204)" stroke-width="1px"></line><line x1="30.78125" y1="100.21551584051689" x2="25.78125" y2="100.21551584051689" style="visibility: inherit;" fill="rgb(0, 0, 0)" stroke="rgb(204, 204, 204)" stroke-width="1px"></line><line x1="30.78125" y1="72.06346095153899" x2="25.78125" y2="72.06346095153899" style="visibility: inherit;" fill="rgb(0, 0, 0)" stroke="rgb(204, 204, 204)" stroke-width="1px"></line><line x1="30.78125" y1="50.22703071735387" x2="25.78125" y2="50.22703071735387" style="visibility: inherit;" fill="rgb(0, 0, 0)" stroke="rgb(204, 204, 204)" stroke-width="1px"></line><line x1="30.78125" y1="32.38536811195254" x2="25.78125" y2="32.38536811195254" style="visibility: inherit;" fill="rgb(0, 0, 0)" stroke="rgb(204, 204, 204)" stroke-width="1px"></line><line x1="30.78125" y1="17.300457318988073" x2="25.78125" y2="17.300457318988073" style="visibility: inherit;" fill="rgb(0, 0, 0)" stroke="rgb(204, 204, 204)" stroke-width="1px"></line><line x1="30.78125" y1="4.233313222974625" x2="25.78125" y2="4.233313222974625" style="visibility: inherit;" fill="rgb(0, 0, 0)" stroke="rgb(204, 204, 204)" stroke-width="1px"></line></g><g transform="translate(20.78125, 0)"><text x="0" y="365.2204820999818" dx="0em" dy="0.3em" style="text-anchor: end; visibility: inherit; font-family: Roboto, sans-serif; font-size: 12px; font-weight: 200;" fill="rgb(255, 255, 255)" stroke="none" stroke-width="1px">2</text><text x="0" y="325.5423892603953" dx="0em" dy="0.3em" style="text-anchor: end; visibility: hidden; font-family: Roboto, sans-serif; font-size: 12px; font-weight: 200;" fill="rgb(255, 255, 255)" stroke="none" stroke-width="1px">3</text><text x="0" y="297.39033437141734" dx="0em" dy="0.3em" style="text-anchor: end; visibility: hidden; font-family: Roboto, sans-serif; font-size: 12px; font-weight: 200;" fill="rgb(255, 255, 255)" stroke="none" stroke-width="1px">4</text><text x="0" y="275.5539041372323" dx="0em" dy="0.3em" style="text-anchor: end; visibility: inherit; font-family: Roboto, sans-serif; font-size: 12px; font-weight: 200;" fill="rgb(255, 255, 255)" stroke="none" stroke-width="1px">5</text><text x="0" y="257.7122415318309" dx="0em" dy="0.3em" style="text-anchor: end; visibility: hidden; font-family: Roboto, sans-serif; font-size: 12px; font-weight: 200;" fill="rgb(255, 255, 255)" stroke="none" stroke-width="1px">6</text><text x="0" y="242.62733073886645" dx="0em" dy="0.3em" style="text-anchor: end; visibility: hidden; font-family: Roboto, sans-serif; font-size: 12px; font-weight: 200;" fill="rgb(255, 255, 255)" stroke="none" stroke-width="1px">7</text><text x="0" y="229.56018664285295" dx="0em" dy="0.3em" style="text-anchor: end; visibility: inherit; font-family: Roboto, sans-serif; font-size: 12px; font-weight: 200;" fill="rgb(255, 255, 255)" stroke="none" stroke-width="1px">8</text><text x="0" y="218.03414869224434" dx="0em" dy="0.3em" style="text-anchor: end; visibility: hidden; font-family: Roboto, sans-serif; font-size: 12px; font-weight: 200;" fill="rgb(255, 255, 255)" stroke="none" stroke-width="1px">9</text><text x="0" y="207.7237564086678" dx="0em" dy="0.3em" style="text-anchor: end; visibility: hidden; font-family: Roboto, sans-serif; font-size: 12px; font-weight: 200;" fill="rgb(255, 255, 255)" stroke="none" stroke-width="1px">10</text><text x="0" y="139.89360868010343" dx="0em" dy="0.3em" style="text-anchor: end; visibility: inherit; font-family: Roboto, sans-serif; font-size: 12px; font-weight: 200;" fill="rgb(255, 255, 255)" stroke="none" stroke-width="1px">20</text><text x="0" y="100.21551584051689" dx="0em" dy="0.3em" style="text-anchor: end; visibility: hidden; font-family: Roboto, sans-serif; font-size: 12px; font-weight: 200;" fill="rgb(255, 255, 255)" stroke="none" stroke-width="1px">30</text><text x="0" y="72.06346095153899" dx="0em" dy="0.3em" style="text-anchor: end; visibility: hidden; font-family: Roboto, sans-serif; font-size: 12px; font-weight: 200;" fill="rgb(255, 255, 255)" stroke="none" stroke-width="1px">40</text><text x="0" y="50.22703071735387" dx="0em" dy="0.3em" style="text-anchor: end; visibility: inherit; font-family: Roboto, sans-serif; font-size: 12px; font-weight: 200;" fill="rgb(255, 255, 255)" stroke="none" stroke-width="1px">50</text><text x="0" y="32.38536811195254" dx="0em" dy="0.3em" style="text-anchor: end; visibility: hidden; font-family: Roboto, sans-serif; font-size: 12px; font-weight: 200;" fill="rgb(255, 255, 255)" stroke="none" stroke-width="1px">60</text><text x="0" y="17.300457318988073" dx="0em" dy="0.3em" style="text-anchor: end; visibility: hidden; font-family: Roboto, sans-serif; font-size: 12px; font-weight: 200;" fill="rgb(255, 255, 255)" stroke="none" stroke-width="1px">70</text><text x="0" y="4.233313222974625" dx="0em" dy="0.3em" style="text-anchor: end; visibility: hidden; font-family: Roboto, sans-serif; font-size: 12px; font-weight: 200;" fill="rgb(255, 255, 255)" stroke="none" stroke-width="1px">80</text></g><line x1="30.78125" y1="0" x2="30.78125" y2="377" fill="rgb(0, 0, 0)" stroke="rgb(204, 204, 204)" stroke-width="1px"></line></g></g><g transform="translate(30, 0)" clip-path="url(#clip_0)"><clipPath id="clip_0"><rect width="2122" height="377"></rect></clipPath><g><g><g><line x1="0" y1="0" x2="0" y2="377" fill="rgb(0, 0, 0)" stroke="rgb(189, 189, 189)" stroke-width="1px" opacity="0.25"></line><line x1="212.221875" y1="0" x2="212.221875" y2="377" fill="rgb(0, 0, 0)" stroke="rgb(189, 189, 189)" stroke-width="1px" opacity="0.25"></line><line x1="424.44375" y1="0" x2="424.44375" y2="377" fill="rgb(0, 0, 0)" stroke="rgb(189, 189, 189)" stroke-width="1px" opacity="0.25"></line><line x1="636.665625" y1="0" x2="636.665625" y2="377" fill="rgb(0, 0, 0)" stroke="rgb(189, 189, 189)" stroke-width="1px" opacity="0.25"></line><line x1="848.8875" y1="0" x2="848.8875" y2="377" fill="rgb(0, 0, 0)" stroke="rgb(189, 189, 189)" stroke-width="1px" opacity="0.25"></line><line x1="1061.109375" y1="0" x2="1061.109375" y2="377" fill="rgb(0, 0, 0)" stroke="rgb(189, 189, 189)" stroke-width="1px" opacity="0.25"></line><line x1="1273.33125" y1="0" x2="1273.33125" y2="377" fill="rgb(0, 0, 0)" stroke="rgb(189, 189, 189)" stroke-width="1px" opacity="0.25"></line><line x1="1485.553125" y1="0" x2="1485.553125" y2="377" fill="rgb(0, 0, 0)" stroke="rgb(189, 189, 189)" stroke-width="1px" opacity="0.25"></line><line x1="1697.775" y1="0" x2="1697.775" y2="377" fill="rgb(0, 0, 0)" stroke="rgb(189, 189, 189)" stroke-width="1px" opacity="0.25"></line><line x1="1909.996875" y1="0" x2="1909.996875" y2="377" fill="rgb(0, 0, 0)" stroke="rgb(189, 189, 189)" stroke-width="1px" opacity="0.25"></line><line x1="2122.21875" y1="0" x2="2122.21875" y2="377" fill="rgb(0, 0, 0)" stroke="rgb(189, 189, 189)" stroke-width="1px" opacity="0.25"></line></g><g><line x1="0" y1="365.2204820999818" x2="2122.21875" y2="365.2204820999818" fill="rgb(0, 0, 0)" stroke="rgb(189, 189, 189)" stroke-width="1px" opacity="0.25"></line><line x1="0" y1="325.5423892603953" x2="2122.21875" y2="325.5423892603953" fill="rgb(0, 0, 0)" stroke="rgb(189, 189, 189)" stroke-width="1px" opacity="0.25"></line><line x1="0" y1="297.39033437141734" x2="2122.21875" y2="297.39033437141734" fill="rgb(0, 0, 0)" stroke="rgb(189, 189, 189)" stroke-width="1px" opacity="0.25"></line><line x1="0" y1="275.5539041372323" x2="2122.21875" y2="275.5539041372323" fill="rgb(0, 0, 0)" stroke="rgb(189, 189, 189)" stroke-width="1px" opacity="0.25"></line><line x1="0" y1="257.7122415318309" x2="2122.21875" y2="257.7122415318309" fill="rgb(0, 0, 0)" stroke="rgb(189, 189, 189)" stroke-width="1px" opacity="0.25"></line><line x1="0" y1="242.62733073886645" x2="2122.21875" y2="242.62733073886645" fill="rgb(0, 0, 0)" stroke="rgb(189, 189, 189)" stroke-width="1px" opacity="0.25"></line><line x1="0" y1="229.56018664285295" x2="2122.21875" y2="229.56018664285295" fill="rgb(0, 0, 0)" stroke="rgb(189, 189, 189)" stroke-width="1px" opacity="0.25"></line><line x1="0" y1="218.03414869224434" x2="2122.21875" y2="218.03414869224434" fill="rgb(0, 0, 0)" stroke="rgb(189, 189, 189)" stroke-width="1px" opacity="0.25"></line><line x1="0" y1="207.7237564086678" x2="2122.21875" y2="207.7237564086678" fill="rgb(0, 0, 0)" stroke="rgb(189, 189, 189)" stroke-width="1px" opacity="0.25"></line><line x1="0" y1="139.89360868010343" x2="2122.21875" y2="139.89360868010343" fill="rgb(0, 0, 0)" stroke="rgb(189, 189, 189)" stroke-width="1px" opacity="0.25"></line><line x1="0" y1="100.21551584051689" x2="2122.21875" y2="100.21551584051689" fill="rgb(0, 0, 0)" stroke="rgb(189, 189, 189)" stroke-width="1px" opacity="0.25"></line><line x1="0" y1="72.06346095153899" x2="2122.21875" y2="72.06346095153899" fill="rgb(0, 0, 0)" stroke="rgb(189, 189, 189)" stroke-width="1px" opacity="0.25"></line><line x1="0" y1="50.22703071735387" x2="2122.21875" y2="50.22703071735387" fill="rgb(0, 0, 0)" stroke="rgb(189, 189, 189)" stroke-width="1px" opacity="0.25"></line><line x1="0" y1="32.38536811195254" x2="2122.21875" y2="32.38536811195254" fill="rgb(0, 0, 0)" stroke="rgb(189, 189, 189)" stroke-width="1px" opacity="0.25"></line><line x1="0" y1="17.300457318988073" x2="2122.21875" y2="17.300457318988073" fill="rgb(0, 0, 0)" stroke="rgb(189, 189, 189)" stroke-width="1px" opacity="0.25"></line><line x1="0" y1="4.233313222974625" x2="2122.21875" y2="4.233313222974625" fill="rgb(0, 0, 0)" stroke="rgb(189, 189, 189)" stroke-width="1px" opacity="0.25"></line></g></g></g><g><g><line x1="212.221875" y1="0" x2="212.221875" y2="377" fill="rgb(0, 0, 0)" stroke="rgb(153, 153, 153)" stroke-width="1.5px"></line></g></g><g><g><g><g><g><path stroke="rgb(0, 153, 136)" stroke-width="2px" d="M213.8135390625,53.85714285714292L214.34409375,60.79406102326966L217.527421875,69.65370431547915L219.649640625,78.44760063132546L220.1801953125,88.36897201060918L221.771859375,82.57280783028428L222.3024140625,88.90086244190663L222.83296875,77.92871131933526L223.894078125,89.95814422556194L224.4246328125,97.26577164711811L226.016296875,98.01748317926865L226.5468515625,106.37138093467364L233.4440625,110.06232795177726L237.1579453125,114.05369151787917L237.6885,117.72636685721766L238.2190546875,112.45576595508619L239.2801640625,114.35175867159184L240.871828125,110.12405938659289L242.4634921875,120.74840751064238L244.05515625,131.62665758948745L244.5857109375,144.19714709946862L245.116265625,128.48784337390632L245.6468203125,143.86304851107306L246.7079296875,149.3023589380059L247.238484375,155.03724783203984L247.7690390625,133.22085022161397L248.29959375,136.3095395120816L249.360703125,134.99590898109165L249.8912578125,118.2701393847045L253.0745859375,123.38067021288991L255.727359375,110.922326133893L259.4412421875,111.22757233577732L264.7467890625,123.18243537962033L266.8690078125,116.83417986675481L268.460671875,136.6782695354742L268.9912265625,101.24304215193655L270.0523359375,114.03937250501971L273.76621875,134.36872192000078L276.4189921875,143.0517922259677L278.5412109375,150.5262683239028L279.071765625,145.96673493865572L280.132875,151.72345623446842L281.193984375,152.732771926111L284.3773125,140.9090430467141L284.9078671875,137.67016313240762L288.62175,158.42992391028636L289.682859375,151.40240472080168L290.2134140625,155.82560278957774L291.805078125,170.1442134376714L295.5189609375,173.8217017012123L297.110625,167.40441248564747L298.171734375,158.02393350009524L299.23284375,164.46761953635843L302.416171875,122.99073600233116L302.9467265625,142.42138345793435L303.47728125,163.25517524426738L306.1300546875,135.2061913845064L309.8439375,152.79226812590878L310.3744921875,168.6893495111163L310.905046875,188.15923376374823L313.027265625,170.97341455767298L313.5578203125,184.66133177061246L314.088375,185.9528920942082L317.8022578125,190.46503683051844L319.393921875,192.97452069281155L319.9244765625,197.56287986315394L320.45503125,206.06977395411553L320.9855859375,187.9541173519024L322.0466953125,183.93642540491908L324.1689140625,190.99174171688827L325.2300234375,180.9114546517852L326.2911328125,181.3718732363754L328.4133515625,191.52300595502913L328.94390625,198.32403049954783L329.4744609375,195.54928615736807L331.066125,193.60018743506885L333.7188984375,177.91593991251617L339.0244453125,185.18035909321458L341.67721875,188.6373312235021L342.2077734375,191.2410578407385L342.738328125,178.32195594610607L349.104984375,171.51554580245127L349.6355390625,169.83402503161065L350.16609375,176.97595511709045L356.0021953125,191.7124211176827L357.593859375,192.63264051440186L358.65496875,192.24906497115944L359.716078125,201.9175255014578L361.838296875,196.31342559726252L363.4299609375,194.80616775343304L365.021625,190.60336114332983L366.082734375,187.62985906908162L368.7355078125,193.83509165911326L369.7966171875,200.94440265197034L370.327171875,206.40028625289543L374.571609375,223.65553943915742L375.63271875,230.92583010162605L377.7549375,239.12648540175417L379.87715625,239.68969635385346L380.938265625,231.48428090759947L381.4688203125,231.90535502104515L383.060484375,231.5814088309369L391.0188046875,230.38445986975637L391.549359375,224.61697194675597L394.2021328125,226.07702595645773L395.2632421875,214.4885548719127L395.793796875,224.21978992086474L398.977125,217.8682106525016L400.038234375,217.38170122455085L402.160453125,213.44745715052613L404.282671875,206.2308585321806L404.8132265625,218.5411808161425L405.34378125,222.29294077727448L405.8743359375,221.9866297375152L406.404890625,230.27855292659726L406.9354453125,219.8547563137326L412.771546875,228.21220353703873L417.015984375,224.79168546589358L419.138203125,231.1917035308171L420.1993125,230.96650143467951L421.260421875,220.86681976686208L422.8520859375,232.495219530974L425.504859375,235.21579427333407L426.56596875,230.6745091034838L429.2187421875,230.5395553772194L431.871515625,225.46685300189299L432.4020703125,221.08716309173613L435.5853984375,227.8994078749128L436.115953125,237.86684099651433L437.7076171875,250.58942414728241L438.238171875,248.79328333740932L440.360390625,226.81419309546277L443.0131640625,229.1363259642355L443.54371875,243.26650051647934L444.0742734375,249.00618404613732L445.1353828125,251.72977689391627L447.2576015625,235.871829030457L447.78815625,247.8385801900326L448.849265625,251.83505180826762L450.971484375,236.42672868259368L452.03259375,236.2161345929316L454.1548125,241.420397936935L456.27703125,243.27561331263382L456.8075859375,239.06660219942734L458.9298046875,234.90431664628338L459.460359375,245.4629638496885L460.52146875,246.93844201516816L461.582578125,257.3466316364718L463.704796875,263.50782149928847L464.2353515625,254.95150911939118L466.888125,252.1223148567781L467.4186796875,252.6573838820318L470.6020078125,245.6115119954395L471.1325625,243.28616028770475L471.6631171875,252.86848051415086L474.315890625,254.02234676490545L476.438109375,251.8597292000093L482.2742109375,232.67071859737604L482.804765625,232.68341530481365L483.3353203125,233.2749059813237L483.865875,229.02966927701289L484.3964296875,229.29654927168784L484.926984375,237.0717641996863L486.5186484375,234.63540533844812L487.049203125,226.55700363359807L487.5797578125,231.6557112323838L495.0075234375,232.51561009371449L495.538078125,232.37213883884112L496.5991875,242.27379803799238L497.1297421875,227.9342036955028L497.660296875,237.21464543684044L498.72140625,246.1920324920666L499.782515625,255.40910206547125L500.843625,237.0485565927128L501.904734375,230.56862112934843L502.4352890625,242.96142845513958L504.026953125,243.98789521359964L505.0880625,221.77466084750316L506.6797265625,224.86358431030646L507.21028125,219.10308244717638L510.393609375,219.281775870034L510.9241640625,236.39592068442914L511.45471875,245.59369887413234L513.5769375,258.70845610381184L515.1686015624999,231.23440919847584L516.2297109374999,243.82049267222652L517.821375,249.1916692335329L519.94359375,249.47690644552333L522.0658125,245.63951890708816L522.5963671874999,241.1361916788007L524.18803125,236.6308455417415L525.249140625,253.94799430632935L525.7796953124999,256.4625492438438L527.371359375,261.1568416905061L528.43246875,266.7484045319809L529.493578125,264.734237814137L530.0241328124999,262.0979792123584L531.0852421875,266.4069696049499L531.615796875,268.84102787580537L534.2685703125,251.66503482345172L536.92134375,255.15647676302652L537.4518984375,251.6329620930752L538.5130078125,258.089821524989L540.6352265625,259.4654440447823L541.6963359375,252.18442155318294L542.226890625,252.45396254872145L543.8185546875,259.7446198065975L544.8796640625,248.19498939307422L545.41021875,253.61434647046414L547.5324375,238.20328729212207L549.65465625,247.87555431502327L551.2463203125,240.38839909909981L551.776875,248.16603117633142L552.3074296875,263.31408129229476L552.837984375,267.1287216383301L553.3685390625,266.45900042522885L556.0213125,251.95988887424585L557.082421875,240.02438271827575L557.6129765625,240.1271579591717L558.6740859375,240.99828757336385L559.204640625,235.69382555765498L560.7963046875,241.27174253794809L561.8574140625,244.20273248689645L565.571296875,251.04335390100084L567.1629609375,249.61100046771574L569.815734375,231.77501343729267L570.3462890625,235.3190698750407L572.4685078125,246.4857386458866L574.5907265625,251.72058343528758L576.182390625,233.2316796053674L578.8351640625,249.3003011601587L579.8962734375,237.34001711359483L580.9573828125,246.88544229596866L581.4879375,262.27416104701234L582.549046875,265.5390854344037L584.1407109375,262.2206081943609L585.732375,269.4534850316713L588.3851484375,254.16881091982683L591.037921875,255.1580288920321L592.09903125,266.0661476154422L593.6906953125,254.82275896404505L594.22125,250.60402249728386L595.282359375,233.41526607322743L596.34346875,248.92709951947313L596.8740234375,258.6391289334937L597.9351328125,258.9687474862037L598.4656875,264.5340161793295L599.526796875,267.31408131206535L600.0573515625,258.2084518521922L600.58790625,247.70983331965297L603.2406796875,247.54972163461173L605.3628984375,257.00571068865884L606.4240078125,252.61509914666402L612.7906640625,257.8169532544966L613.8517734375,261.79688956573756L617.0351015625,266.9236037574879L617.56565625,215.20863999427792L619.687875,227.15604995709847L621.2795390625,219.28872936805763L622.871203125,229.39402659135672L623.4017578125,242.2283606932125L624.4628671875,237.39753519784406L624.993421875,250.1631429994621L625.5239765625,247.15422341925154L626.5850859375,257.3630181875312L629.7684140625,247.9285196486494L638.2572890625,258.2530909342667L638.78784375,268.92521359184093L639.3183984375,274.4149767247344L639.848953125,270.42323226798214L641.4406171875,254.0361678388416L645.6850546875,265.97603818102243L646.215609375,260.45801351520083L650.9906015625,244.58708721041697L653.1128203125,248.09927064893094L653.643375,255.66626980295058L654.704484375,258.6890759853625L655.2350390625,274.60750979237656L656.826703125,271.1449782953528L657.3572578125,275.7569815119306L658.948921875,276.93550717810956L660.01003125,269.47866279749024L662.6628046875,257.7047941162089L663.193359375,241.85112932512L666.3766875,236.75417303935976L667.9683515625,239.1953013716324L669.0294609375,234.75481318474777L670.621125,235.03313274003705L671.1516796875,236.7806059429959L673.2738984375,231.49467796457247L673.804453125,240.57144492573502L680.7016640625,251.2254159690523L681.7627734375,255.2291986255805L683.8849921875,246.2925459195127L684.9461015625,252.75948412606354L686.537765625,253.59150944979478L687.598875,258.76512683554665L688.1294296875,263.1116549080716L689.72109375,275.3556110364789L690.2516484375,271.6660608720198L692.904421875,269.98032854534625L693.4349765625,261.7269591809664L694.4960859375,245.7244490560702L695.026640625,246.6212175057442L698.7405234375,249.99511069307346L699.271078125,264.55079428325257L700.3321875,269.26110313640237L704.0460703125,267.33693544783284L705.1071796875,255.0622738713681L705.637734375,269.954743926275L706.1682890625,266.73771071765134L709.882171875,275.10895726197435L711.4738359375,271.8722599101694L713.0655,230.3980158823055L715.18771875,230.65341601259732L716.7793828125,244.17192835448643L718.371046875,253.64625377634007L721.0238203125,235.29506179092508L722.615484375,251.62398989095007L723.67659375,253.12475368461116L724.737703125,259.4943372070058L725.2682578125,251.12994067936756L730.5738046875,245.8255442357455L731.104359375,257.19660774923426L732.6960234375,256.8990185854021L734.8182421875,263.50981484887086L736.9404609375,258.75067007845877L738.0015703125,249.9311725291299L739.0626796875,253.39352517474342L740.1237890625,251.95372466637707L741.715453125,261.87442342124757L743.3071171875,257.07909711182697L743.837671875,248.96075236810609L744.3682265625,258.1454408198635L745.4293359375,268.99857028118896L748.082109375,257.74198336591127L749.14321875,263.7834367105621L750.204328125,276.6602439694486L753.9182109375,273.7063531525032L756.0404296875,285.9265798006862L757.1015390625,285.4078457569156L760.815421875,280.77761767915325L761.3459765625,271.3360061572832L761.87653125,264.78869818341394L762.4070859375,256.67738850467157L762.937640625,262.9872420721312L765.059859375,267.5735661656298L766.6515234375,258.0439045431107L771.9570703125,252.97188706509385L773.0181796875,258.6866195497757L774.0792890625,249.66613929002568L775.1403984375,256.52278897538025L776.7320625,266.2691339468461L777.793171875,276.49194186291976L778.85428125,281.8485053751011L779.3848359375,274.65413068151645L779.915390625,262.061479805636L780.4459453125,268.6802528756286L780.9765,281.7043018199207L783.09871875,278.0514553622252L784.6903828125,274.39808263098L787.34315625,269.6543450846369L787.8737109375,243.36256217402655L788.404265625,252.09657365105113L790.526484375,256.49014794812416L794.2403671875,261.53968799626523L795.3014765625,256.91855170609165L796.3625859375,232.93011454099118L796.893140625,238.54712006437617L797.4236953125,255.2655914199152L799.015359375,261.3125292212873L800.07646875,257.3890329667033L801.137578125,268.3397778082516L801.6681328125,274.8649580001115L802.7292421875,267.15589489515236L805.382015625,272.71848849672585L806.443125,281.04303470902977L806.9736796875,289.35890568511195L808.56534375,262.55523805525127L809.0958984375,275.4217930317951L810.1570078125,285.2945216619423L810.6875625,270.29753491141906L812.2792265625,277.0400147004852L813.3403359375,281.435647842702L814.4014453125,272.92249897891634L815.993109375,261.6685295183091L819.7069921875,265.5320610139169L821.8292109375,278.16215517183633L822.359765625,284.4374931249921L822.8903203125,261.34489410476533L828.1958671875,266.2952495816451L829.2569765625,277.4791344515343L830.848640625,275.43063540875494L834.03196875,274.9441686855794L834.5625234375,272.9969168761798L835.6236328125,274.90728037921406L836.1541875,261.24818152483397L836.6847421875,276.0228898534902L838.8069609375,278.5303130464563L839.8680703125,270.98743221704706L840.9291796875,267.36470740640783L842.52084375,278.6441972514452L844.6430625,284.7228195741926L845.1736171875,289.6617771986958L846.76528125,284.38466895694955L850.4791640625,281.4838099829572L851.00971875,284.04949393855446L851.5402734375,269.0212688580524L855.25415625,270.58299153776574L857.376375,281.11892530923325L860.0291484375,273.2352215342758L861.0902578125,284.0340335555967L863.2124765625,265.95467671926986L864.804140625,269.93715836331154L867.98746875,251.26048816692432L871.170796875,258.4824300149784L872.23190625,268.5633354350095L873.8235703125,281.1504832798297L874.354125,276.4971116956143L874.8846796875,286.70556569320365L875.415234375,276.0093767653944L876.47634375,276.2999696941031L877.537453125,263.87852871215745L878.0680078125,263.467416252028L879.659671875,260.1190374518791L880.1902265625,263.38275007358396L883.3735546875,274.31812979732535L885.4957734375,276.47600336868254L888.148546875,269.03324746931656L888.6791015625,273.7464003394898L889.20965625,263.3486036896306L891.331875,271.5721186077445L892.9235390625,267.4298334500888L895.5763125,277.32280076713965L897.1679765625,281.5317405819595L899.82075,283.9233442347981L900.3513046875,281.4591815027198L901.94296875,274.0338549001838L904.0651875,270.7976115240785L906.18740625,261.98884104955346L908.8401796875,272.41782486754454L911.492953125,267.21141650196535L912.5540625,276.33993637465795L914.1457265625,277.977239442959L914.67628125,270.2229485843902L915.737390625,272.74579791224033L919.4512734375,265.73776214240524L924.7568203125,280.5129920721749L926.348484375,278.621256461364L929.5318125,273.5338267731249L932.715140625,274.45955402727475L934.837359375,262.7878506080238L935.3679140625,276.32311319198055L935.89846875,286.1112376438914L936.4290234375,284.91750943166954L936.959578125,292.8656264891049L940.6734609375,283.02778140430473L941.204015625,278.6850204433648L943.326234375,272.54056044243475L945.9790078125,282.77378758268844L946.5095625,275.47354234847126L948.63178125,280.28141149498117L950.2234453125,282.39790419062155L952.3456640625,285.8400003133169L962.9567578125,285.2104103081094L965.0789765625,292.19367917869226L970.3845234375,298.44924419794086L973.037296875,280.37026254142665L974.09840625,288.5617945570729L974.6289609375,286.67581707836L975.159515625,253.92072128188678L975.6900703125,258.5880354817253L979.9345078125,263.3275361746332L980.9956171875,272.61746206598343L983.1178359375,283.65373170346163L984.1789453125,293.32023301845226L984.7095,296.6906626295369L985.770609375,274.9262836526155L986.3011640625,283.6853902722052L992.6678203125,289.6666522341281L993.198375,286.2614450765317L994.259484375,282.1797474612161L997.9733671875,278.31453819168024L1000.0955859375,282.1076011741888L1001.68725,276.15216400927704L1003.80946875,284.3762444203964L1005.9316875,289.1743984836072L1006.4622421875,273.97334886999334L1008.05390625,284.80780680650673L1011.7677890625,283.54808132648185L1012.29834375,273.75836666034473L1012.8288984375,286.169619200169L1013.8900078125,285.9693253546325L1014.9511171875,290.35211170126837L1015.481671875,273.5265092155982L1021.848328125,270.18472862624964L1025.03165625,266.67728926831717L1026.6233203125,273.82803967081065L1027.153875,275.9200336591716L1028.7455390625,273.71309214186437L1032.4594218749999,275.01919445919464M1034.5816406249999,272.9554609434798L1035.1121953125,270.0383611986533L1039.8871875,286.2705557670537L1041.4788515625,295.83366214346023L1042.00940625,292.7046467405604L1043.0705156249999,267.4319385485329L1044.6621796875002,270.6966525846259L1045.1927343749999,272.2967348398351L1045.7232890625,265.6917001568325L1047.3149531249999,277.5698320887708L1049.4371718749999,273.7955891578645L1052.0899453125,279.22804758359655L1057.3954921875002,274.0399019254018L1057.9260468749999,282.5399542324361L1058.4566015625,266.1999942831773L1060.5788203125,283.0115781882544L1061.109375,278.1248722583768L1061.6399296875,282.9344416358581L1065.8843671875,292.2630138654862L1072.781578125,268.2830430205221L1074.3732421875,281.3103978455185L1076.4954609375,281.9528290818341L1078.6176796875,283.2957026314287L1079.6787890625,272.6078065118475L1081.270453125,262.47680683976006L1081.8010078125,266.3950595788693L1084.45378125,278.745806726479L1084.9843359375,280.93840500521003L1087.1065546875,285.284681015935L1088.69821875,292.1305732671179L1089.759328125,289.707488089861L1092.94265625,285.0791659153869L1095.064875,286.5620059521794L1097.18709375,293.4696815026165L1099.3093125,293.5325997424337L1100.9009765625,275.3514883631241L1101.9620859375,269.33122859542004L1105.1454140625,275.7038817033287L1105.67596875,280.3078920075203L1106.2065234375,280.66954538365667L1106.737078125,290.61690337218795L1109.3898515625,287.8665985578965L1109.92040625,298.23748594093195L1110.4509609375,300.0604052460232L1114.16484375,285.4084359490658L1115.225953125,279.33377713775036L1116.8176171875,290.08427915642756L1117.8787265625,292.08822131627807L1118.40928125,286.7334095586811L1118.9398359375,276.29963478005936L1119.470390625,279.280655292192L1122.65371875,257.1980744052327L1124.7759375,273.0802274750381L1125.3064921875,273.91749848374013L1125.837046875,279.4538925498245L1126.3676015625,279.5638275075357L1129.020375,285.36786897951936L1133.2648125,277.37074393457675L1133.7953671875,279.1809422679173L1135.9175859375,279.07430153256445L1136.9786953125,287.6889303953799L1139.63146875,265.48976871071505L1141.2231328125,265.17704013458354L1141.7536875,276.7620887958409L1147.5897890625,276.9465653982774L1152.8953359375,281.02844088131053L1153.9564453125,274.54165762342296L1155.548109375,271.61555045376497L1157.670328125,275.963095489893L1158.2008828125,286.17344714399485L1158.7314375,290.40746459168275L1160.3231015625,275.6341259842051L1161.914765625,288.3235094944748L1164.036984375,284.5411040527743L1166.159203125,279.25800799373417L1167.1142015625,291.1116580734019L1169.8730859375,284.0407474706512L1170.9341953125,276.0239202250741L1175.7091875,268.6765480276121L1177.83140625,265.29263534331386L1179.4230703125,256.70415849015785L1179.953625,269.582117730066L1181.014734375,276.3957473830482L1181.5452890625,279.55275023492743L1182.6063984375,281.0354764121635L1184.7286171875,283.7086408707393L1185.7897265625,252.86857598783922L1189.503609375,255.73433627824474L1190.56471875,266.5616676193577L1191.0952734375,276.0909742945715L1192.6869375,284.7898961183595L1197.4619296875,278.066966512548L1200.114703125,263.0480962989094L1200.6452578125,271.0866819946582L1201.1758125,282.789992971854L1203.8285859375,262.50171648310084L1204.8896953125,269.9675141042107L1208.0730234375,261.4029546678293L1209.6646875,276.7483282360847L1210.1952421875,271.0103471753096L1211.2563515625,276.852052794482L1212.3174609375,284.4751522358631L1213.3785703125,293.1496486891552L1216.03134375,281.18610094478674L1218.1535625,282.7147345335971L1219.7452265625,272.68934196342633L1222.9285546875,281.735106384836L1223.459109375,279.58053078802135L1223.9896640625,283.0804048712686L1225.581328125,291.75165802567295L1228.2341015625,294.29168308497253L1231.4174296875,287.7964262760194L1231.947984375,290.9210476725998L1237.25353125,295.11751683393095L1237.7840859375,283.1657058137976L1239.9063046875,290.9492200807868L1240.436859375,300.3589309439325L1240.9674140625,305.5334088476688L1242.559078125,285.12372985251113L1243.6201875,285.5708403074025L1245.2118515625,293.9402769779059L1246.803515625,297.81109901673295L1248.3951796875,296.3897710840647L1250.5173984375,293.2437530524844L1251.047953125,289.74148003549465L1251.5785078125,284.0570338076054L1252.1090625,283.2480888927245L1252.6396171875,279.8526788686261L1253.7007265625,283.6934860047824L1254.23128125,291.13311356128094L1254.7618359375,283.8844908423715L1259.536828125,279.07532927772945L1260.5979375,279.50844678818055L1261.659046875,274.1679183230864L1264.842375,285.57913074398436L1265.3729296875,288.065772455978L1266.96459375,294.34069133845026L1280.759015625,280.1019999602623L1282.881234375,268.7210254024974L1283.4117890625,281.47316080166416L1285.5340078125,283.2349548764123L1286.5951171875,280.92727630980767L1288.18678125,277.7131329735782L1290.309,274.89835060926066L1290.8395546875,277.95261137651613L1292.9617734375,281.19402806051534L1294.5534375,289.1125694061529L1296.67565625,286.73216783492774L1300.3895390625,293.85966079313005L1300.92009375,294.53470046063643L1301.4506484375,291.69581163898886L1307.28675,282.26690225631006L1307.8173046875,284.882171487379L1308.8784140625,277.5155390379818L1311.0006328125,272.0121377752014L1313.65340625,285.73393307534565L1316.3061796875,273.9617483412431L1317.3672890625,268.9975119152906L1317.89784375,273.77019788753006L1318.958953125,277.7726943838025L1320.0200625,280.0724164612943L1322.14228125,275.88780178639956L1323.203390625,286.4175339790055L1323.7339453125,273.3970754410848L1324.7950546875,287.79202342779183L1326.38671875,273.1317223092277L1327.447828125,287.21978391898455L1329.570046875,288.5537010414705L1330.1006015625,284.1075314955444L1332.2228203125,262.79179206939045L1332.753375,281.012432309807L1334.87559375,294.15385455044543L1335.4061484375,287.63504091318276L1336.9978125,270.9283917398241L1337.5283671875,262.3867430511799L1339.12003125,266.9227595116774L1343.36446875,274.4604576615347L1343.8950234375,276.0728177848446L1345.4866875,276.0022402934528L1347.60890625,274.38345648985836L1350.792234375,269.18032112921156L1356.09778125,277.9301225369376L1357.6894453125,282.4391211838869L1361.403328125,284.8575012048437L1365.1172109375,279.28828773578175L1370.9533125,293.7381063777022L1372.014421875,293.55178041267015L1374.6671953125,282.07753954773136L1377.31996875,292.065355528856L1378.381078125,281.71930331400625L1379.4421875,277.30283170793314L1382.625515625,277.5656051632572L1383.686625,274.8528196488349L1384.2171796875,286.63438435554286L1385.2782890625,282.8915610416233L1385.80884375,276.7584628693206L1388.992171875,263.2323183498995L1391.114390625,270.4753604555922L1392.1755,269.30219914865995L1396.9504921875,261.80933075171754L1398.54215625,263.02897709469755L1400.1338203125,275.9066539131294L1401.1949296875,268.3608326922914L1406.5004765625,284.24383262851694L1408.092140625,294.0770277887904L1408.6226953125,276.97240703082895L1411.8060234375,287.7709991538362L1413.3976875,284.7674825591431L1418.1726796875,279.6240550124752L1420.2948984375,278.51350328698436L1420.825453125,292.09586563175895L1426.6615546875,294.43957130223004L1430.9059921875,298.9879543075564L1433.558765625,292.23958487304463L1434.0893203125,279.1494184590359L1436.74209375,273.31769491433124L1439.3948671875,271.71739449638267L1440.98653125,275.35187944981504L1443.6393046875,290.5543189467574L1446.8226328125,277.2532186381964L1447.8837421875,274.696990741012L1449.47540625,270.8791388497588L1452.1281796875,284.5480581653602L1453.1892890625,287.0524345011236L1453.71984375,291.47605284995984L1454.2503984375,295.5775809523043L1455.3115078125,278.4502688967786L1458.4948359375,292.2628032545213L1459.025390625,300.4649916624659L1461.147609375,296.8022078789701L1462.20871875,303.3138034284438L1466.9837109375,296.1430437063985L1468.575375,283.03016734037567L1469.636484375,266.3562885147327L1472.2892578125,275.76902004493155L1475.4725859375,278.7760817522901L1478.125359375,269.6376973597553L1479.18646875,279.6654875606148L1480.247578125,287.2623527373882L1480.7781328125,273.11610236337367L1482.369796875,278.15328390467727L1482.9003515625,277.6667032835297L1489.7975625,274.4763676759812L1491.3892265625,288.46319519547035L1498.2864375,274.5243722404472L1499.8781015625,270.9791695585335L1502.0003203125,253.5198016822419L1502.530875,264.6079852394912L1504.1225390625,280.90584260510667L1505.1836484375,288.06360096707203L1505.714203125,284.91823236643245L1508.89753125,293.94011448081926L1512.080859375,299.6867693099958L1516.325296875,294.3445809795186L1517.38640625,284.6426801826856L1517.9169609375,291.39759178031227L1520.0391796875,296.82317401731035L1522.1613984375,276.1811704550765L1523.2225078125,277.20926947908305L1524.2836171875,286.12341972738426L1527.9975,287.77882052583476L1528.5280546875,286.4824947737911L1530.6502734375,293.10030310488173L1532.7724921875,284.2140186705353L1535.425265625,288.94614938677614L1535.9558203125,297.2350368414701L1536.486375,296.08380041161075L1538.0780390625,273.68086031832934L1539.1391484375,246.44731292756444L1539.669703125,263.0807004374111L1540.7308125,273.6099944639479L1541.791921875,275.17659554062044L1543.3835859375,282.5935697551208L1544.4446953125,274.82598707399706L1545.5058046875,276.5424337617341L1546.036359375,287.90238714645864L1546.5669140625,284.4914042806085L1547.6280234375,276.2238244613683L1548.6891328125,247.42165942658033L1551.34190625,251.02326571378651L1552.403015625,266.17240686208174L1552.9335703125,274.5948909936097L1556.647453125,276.95967034314003L1557.7085625,287.1826543427316L1558.769671875,295.20997692871316L1559.3002265625,299.23212112344885L1565.136328125,304.3277201357823L1570.9724296875,301.06406453575744L1571.502984375,301.0243542002833L1572.56409375,303.4827366501605L1576.2779765625,297.8894481478635L1577.3390859375,290.235518638833L1577.869640625,279.4880891525516L1580.5224140625,290.24452576349427L1581.05296875,288.51378910922017L1581.5835234375,296.26333157635383L1583.1751875,304.12354181743945L1583.7057421875,297.3179934705633L1585.29740625,298.07338355946905L1588.480734375,306.95522317752506L1589.0112890625,303.0129440706533L1590.0723984375,290.37295588708156L1591.1335078125,302.2339072422412L1592.1946171875,307.559789383236L1592.725171875,298.6283719277586L1598.5612734375,290.430105260665L1599.091828125,295.1769558251692L1599.6223828125,301.95189899307087L1603.8668203125,299.6833727167449L1604.397375,304.4884640122434L1607.0501484375,310.8650298678359L1607.580703125,303.9827160423158L1608.1112578125,304.5754549156224L1608.6418125,294.0981929184964L1609.702921875,288.35366000982344L1610.2334765625,304.18014358769904L1610.76403125,291.0329838235405L1612.3556953125,281.80065158331564L1618.191796875,269.34958387725015L1621.375125,258.38584393872384L1622.436234375,262.2356366759703L1626.680671875,267.1808997960837L1627.2112265625,282.3416610088172L1627.74178125,279.2720154105358L1628.802890625,271.1336945055754L1632.5167734375,271.22950102890064L1634.1084375,263.5878092523806L1635.169546875,280.28883030573706L1636.7612109375,287.23805222226616L1637.8223203125,290.8702574539895L1638.8834296875,294.8184016452765L1643.658421875,292.56598545833407L1644.1889765625,282.58907126674336L1644.71953125,282.5438450539841L1645.780640625,290.5293197031644L1646.84175,291.11392311130993L1647.902859375,295.3987692659737L1648.96396875,289.60590388689445L1649.4945234375,293.3540360290208L1651.6167421875,303.8606558340675L1652.147296875,295.43434401653116L1652.6778515625,297.0792692412886L1655.330625,278.00978250659244L1655.8611796875,283.99592131091214L1656.9222890625,298.6264680305893L1657.9833984375,303.68082372612764L1658.513953125,305.0051900732759L1660.636171875,317.12813628636553L1661.1667265625,311.2552840640329L1663.2889453125,314.7484590795088L1663.8195,300.9788804827538L1664.3500546875,310.7931605496953L1664.880609375,314.21554328361873L1665.94171875,305.05165957548195L1666.4722734375,300.3587641780042L1667.002828125,297.82118772645015L1670.7167109375,309.50710028564515L1671.247265625,311.70451938747L1671.7778203125,291.7571889208149L1674.43059375,269.63809970026455L1674.9611484375,274.1042869405285L1677.0833671875,273.0524979489612L1678.67503125,274.411825476938L1680.2666953125,289.7738500831359L1681.3278046875,298.21344962140324L1682.3889140625,290.3238893151783L1683.4500234375,300.0737261800387L1683.980578125,305.95181010348836L1684.5111328125,278.30350187133337L1687.16390625,277.76020708648224L1687.6944609375,287.60147458205364L1694.0611171875,291.1266702218937L1695.1222265625,271.7598066403654L1698.836109375,286.85381467161136L1702.0194375,284.42644508855454L1702.5499921875,291.9115907092104L1708.38609375,293.24439483028385L1708.9166484375,287.14609106353544L1713.691640625,275.0029121087443L1714.75275,287.9624605964674L1715.813859375,286.60973941594074L1716.3444140625,293.17530497979845L1717.4055234375,277.9316365133307L1718.4666328125,274.72676649460806L1718.9971875,275.1421081383521L1720.5888515625,278.10258805230507L1722.7110703125,288.0360240680806L1723.241625,290.27546702420227L1725.8943984375,290.0171421069834L1726.9555078125,287.1615454706656L1728.0166171875,294.2857090518371L1728.547171875,295.8716960422468L1730.669390625,302.54798397685846L1731.7305,298.92121872076655L1733.3221640625,290.0672675284076L1737.5666015625,277.37650773989475L1738.6277109375,277.0071655534734L1739.158265625,273.79739470294953L1740.219375,274.7993633388678L1742.8721484375,264.06962804893334L1743.9332578125,275.13401173167455L1744.9943671875,289.72297456567094L1746.0554765625,287.1991518187571L1748.1776953125,280.70055299840476L1750.2999140625,286.5157831490988L1750.83046875,288.0956818810406L1754.5443515625,296.4517719083645L1755.07490625,290.0136618355321L1756.136015625,287.4725958514498L1756.6665703125,297.30262189446313L1758.258234375,308.6059325428098L1759.31934375,315.2907729725342L1759.8498984375,311.53664268330834L1760.380453125,319.5945164144543L1761.4415625,314.6214195637131L1764.624890625,317.4718076640651L1766.747109375,323.14285714285717L1767.2776640625,304.75144571352365L1774.7054296875,306.75887767394977L1776.29709375,317.9640422466014L1777.8887578125,318.72380350472514L1779.480421875,304.9446858283732L1781.602640625,309.00271024397944L1783.1943046875,310.9449819864737L1783.724859375,309.33567156743385L1784.2554140625,315.185264721411L1787.4387421875,315.19237680362795L1790.091515625,300.6069017558259L1790.6220703125,305.2521545036567L1791.152625,298.0850742168334L1793.27484375,286.85147629121326L1794.335953125,290.40260359968175L1794.8665078125,295.9943229488101L1798.0498359375,297.92948654485315L1799.6415,296.5079457288839L1800.702609375,300.77089988062505L1801.2331640625,304.0371037680869L1802.2942734375,309.9141621607727L1802.824828125,311.29350885945496L1803.7798265625,303.7161808961783L1804.947046875,298.63106349766434L1806.5387109375,273.29615130480664L1810.7831484375,279.23931999154917L1811.313703125,276.77075613575596L1813.9664765625,280.4668146384872L1816.0886953125,279.0073425193033L1816.61925,273.783536006035L1819.2720234375,274.64096994717937L1825.6386796875,280.26936062878934L1826.169234375,282.9633890989842L1826.6997890625,294.2386639867904L1827.23034375,308.9096265864375L1827.7608984375,305.1975411951639L1830.413671875,301.33635727783604L1832.535890625,299.35320959394875L1836.2497734375,297.3232912587645L1837.3108828125,298.95309088560975L1837.8414375,278.0101623496297L1840.4942109375,292.3432480219134L1842.085875,287.79671486901674L1844.7386484375,293.5113390683641L1845.269203125,295.88208390566876L1845.7997578125,298.2860262136101L1846.3303125,286.09901767202814L1846.8608671875,292.81908665747574L1848.9830859375,299.51381522700495L1851.1053046875,292.62527195047215L1852.1664140625,297.19529369194527L1853.758078125,300.12959816636936L1855.880296875,303.1936558511961L1856.4108515625,303.6131891304444L1856.94140625,295.7769207779118L1858.002515625,284.8046293606449L1860.124734375,297.42221006495873L1860.6552890625,291.3808483948398L1861.7163984375,294.0515014359966L1862.246953125,286.307448307753L1864.369171875,295.9605547320674L1864.8997265625,296.8850986848167L1865.43028125,300.0508639704865L1868.0830546875,299.5601930442904L1868.613609375,287.22553321206055L1869.1441640625,277.4013091379231L1874.4497109375,288.752589369443L1874.980265625,299.2860182334887L1877.102484375,282.42407667091487L1878.16359375,284.76459912744866L1880.8163671875,293.807404378669L1881.8774765625,304.23166714488156L1883.469140625,301.33594954295813L1884.53025,298.46413216821503L1889.835796875,301.54099572959296L1891.4274609375,308.8801452020048L1893.019125,300.6554916115879L1895.14134375,305.1816194701702L1895.6718984375,292.55760473905497L1897.2635625,301.486208184029L1897.7941171875,305.33135414049997" style="fill: none;" fill="none"></path></g></g></g></g><g opacity="0.2"><g><g><g><path stroke="rgb(0, 153, 136)" stroke-width="2px" d="M213.8135390625,53.85714285714292L214.34409375,65.70282031943326L217.527421875,80.52479055468942L219.649640625,92.3122485061874L220.1801953125,106.70979703888021L221.771859375,73.27705780917759L222.3024140625,101.5862771557293L222.83296875,60.15196749992688L223.894078125,118.20486257841515L224.4246328125,113.24091618364666L226.016296875,99.50763124645445L226.5468515625,125.27589442402238L233.4440625,117.8038570823599L237.1579453125,122.48920751755361L237.6885,125.46148868949388L238.2190546875,102.74527706367468L239.2801640625,118.23975771975672L240.871828125,102.21049266605478L242.4634921875,146.1377551757626L244.05515625,157.75738431170154L244.5857109375,175.42971234538837L245.116265625,103.13971939893163L245.6468203125,184.40644277897155L246.7079296875,161.142819399584L247.238484375,167.58486054518238L247.7690390625,100.40195109537834L248.29959375,142.77547763571806L249.360703125,132.42804902536983L249.8912578125,91.60142913122642L253.0745859375,134.44433655675078L255.727359375,90.00127299373841L259.4412421875,111.83909187567235L264.7467890625,152.52945581995428L266.8690078125,105.28650199868737L268.460671875,194.87409777250093L268.9912265625,54.89730787977238L270.0523359375,145.99079350771467L273.76621875,194.7420301707595L276.4189921875,163.07252627448534L278.5412109375,167.3870143914327L279.071765625,137.46386859090637L280.132875,164.32434171710435L281.193984375,154.77697745499447L284.3773125,120.89471232157587L284.9078671875,131.51519367670315L288.62175,220.78531183783258L289.682859375,138.73693444356124L290.2134140625,165.29126910209692L291.805078125,207.05182438858415L295.5189609375,181.594895354078L297.110625,155.74217776596655L298.171734375,141.63921679294214L299.23284375,178.7409993613784L302.416171875,71.7064454328478L302.9467265625,198.8078457470472L303.47728125,225.9564539872846L306.1300546875,95.72878365099692L309.8439375,201.57493455124913L310.3744921875,211.1047575700599L310.905046875,244.71566189020973L313.027265625,143.71880426268942L313.5578203125,219.47562210542117L314.088375,188.58030764882525L317.8022578125,200.1354172909953L319.393921875,198.179158453046L319.9244765625,207.40916054699935L320.45503125,225.62101909815024L320.9855859375,159.53468576268463L322.0466953125,176.3862322120909L324.1689140625,206.78880090772654L325.2300234375,163.4639455416657L326.2911328125,182.2964707936193L328.4133515625,215.5806490116081L328.94390625,213.48356171720573L329.4744609375,190.24074442599084L331.066125,189.82584285458978L333.7188984375,152.5962814717977L339.0244453125,201.5060376722317L341.67721875,195.91802778969972L342.2077734375,196.64933974851212L342.738328125,156.75127890155403L349.104984375,159.21167651720583L349.6355390625,166.56491376874214L350.16609375,192.99149367181232L356.0021953125,230.0396433975698L357.593859375,194.49381075476325L358.65496875,191.48866973545694L359.716078125,224.62271201375512L361.838296875,186.01423319220297L363.4299609375,191.86825115842402L365.021625,182.72605813172814L366.082734375,181.9574613044633L368.7355078125,207.52335061809816L369.7966171875,216.87758103065227L370.327171875,218.28128403223312L374.571609375,271.1491520957159L375.63271875,247.26640964435836L377.7549375,257.8689427271942L379.87715625,240.82251533206727L380.938265625,216.92810447615264L381.4688203125,232.75042927797443L383.060484375,230.93863983990948L391.0188046875,228.04056252157528L391.549359375,214.04147156285345L394.2021328125,229.0550767533655L395.2632421875,194.81404494817022L395.793796875,247.09944278941018L398.977125,206.31499680558053L400.038234375,216.41875644851547L402.160453125,206.0452832728539L404.282671875,193.2578687417431L404.8132265625,248.97725518257826L405.34378125,230.2328222626804L405.8743359375,221.37868910967507L406.404890625,249.2610893703246L406.9354453125,201.89250052888062L412.771546875,247.36760268142137L417.015984375,218.30853482581594L419.138203125,245.35756131314528L420.1993125,230.51898689395304L421.260421875,203.39012747921504L422.8520859375,260.85616051839565L425.504859375,240.87743041358888L426.56596875,222.20349050753344L429.2187421875,230.27101031099468L431.871515625,216.0749796196642L432.4020703125,212.89888869280463L435.5853984375,243.08694681439192L436.115953125,261.40676098821376L437.7076171875,282.3089166573178L438.238171875,245.30726101641852L440.360390625,193.80892895790856L443.0131640625,233.937960263726L443.54371875,279.5425533455734L444.0742734375,261.56609872828227L445.1353828125,257.3979697089271L447.2576015625,210.32483716979166L447.78815625,277.2218388651003L448.849265625,260.3270585420021L450.971484375,211.47011520636713L452.03259375,235.79755547431546L454.1548125,252.70500331560265L456.27703125,247.08335337739743L456.8075859375,231.17836503230404L458.9298046875,227.09847075483464L459.460359375,270.68250905362737L460.52146875,249.94868356369383L461.582578125,282.1350208297568L463.704796875,277.0885447123004L464.2353515625,239.84339794504876L466.888125,246.71388613559398L467.4186796875,253.73313133559412L470.6020078125,232.91612427843552L471.1325625,238.80807944568272L471.6631171875,275.3349478236695L474.315890625,256.3645968281738L476.438109375,247.68507038505274L482.2742109375,202.93712419228493L482.804765625,232.70873760996955L483.3353203125,234.46512603533745L483.865875,221.07763019333228L484.3964296875,229.83089371014057L484.926984375,254.70572551527184L486.5186484375,229.95117546955066L487.049203125,212.20187091998542L487.5797578125,242.69165937870287L495.0075234375,234.25314900502002L495.538078125,232.08668180227093L496.5991875,265.62924550735863L497.1297421875,204.40647198159834L497.660296875,258.85072920932714L498.72140625,267.00406532296734L499.782515625,276.8720810880433L500.843625,208.3264621305932L501.904734375,218.80262956406887L502.4352890625,273.65251454037275L504.026953125,246.06739367702366L505.0880625,188.50388611209078L506.6797265625,231.33020921939223L507.21028125,208.53937091737706L510.393609375,219.63906968982502L510.9241640625,283.34613740676616L511.45471875,267.00406532296734L513.5769375,291.6697830173504L515.1686015624999,192.3353974812101L516.2297109374999,275.1125782430151L517.821375,260.87131616171547L519.94359375,250.04816675263643L522.0658125,238.4095885120664L522.5963671874999,232.73147303149142L524.18803125,228.22259875062358L525.249140625,301.68116540938627L525.7796953124999,261.6781290516361L527.371359375,271.2483674115223L528.43246875,278.9531461341542L529.493578125,260.83763478835994L530.0241328124999,257.0441977775833L531.0852421875,275.6106807900316L531.615796875,273.8831281056974L534.2685703125,224.4228677896123L536.92134375,262.5139213471406L537.4518984375,244.9644760698449L538.5130078125,272.39567037070947L540.6352265625,262.26756046165247L541.6963359375,239.10700818348366L542.226890625,252.99365689606094L543.8185546875,276.1369113224125L544.8796640625,228.57677586300068L545.41021875,265.40844755805153L547.5324375,213.2430622240778L549.65465625,270.5913079998367L551.2463203125,226.978075023677L551.776875,265.80624157510675L552.3074296875,303.0661047984393L552.837984375,275.21004688244693L553.3685390625,265.13709632550535L556.0213125,228.21655763582578L557.082421875,219.84929105253153L557.6129765625,240.332415788148L558.6740859375,242.75882712954737L559.204640625,225.90459996711914L560.7963046875,253.4438549742207L561.8574140625,250.32302715435205L565.571296875,266.3017761226723L567.1629609375,246.8159702190843L569.815734375,203.70331213124786L570.3462890625,242.79383054812854L572.4685078125,273.47416802135325L574.5907265625,263.0773978263095L576.182390625,204.35161903252813L578.8351640625,292.3389375215171L579.8962734375,217.1293499137043L580.9573828125,269.2499049519445L581.4879375,302.87185854221L582.549046875,272.39377280754826L584.1407109375,255.9216128963029L585.732375,285.6991678469683L588.3851484375,229.37565914927538L591.037921875,257.1609021842041L592.09903125,292.2971353877243L593.6906953125,235.6503432682391L594.22125,242.69865025534025L595.282359375,206.1569368076316L596.34346875,289.9610577520771L596.8740234375,281.46535953790607L597.9351328125,259.6293436940502L598.4656875,276.67589856254165L599.526796875,273.1050756148643L600.0573515625,242.24642762946132L600.58790625,229.63605416614726L603.2406796875,247.23123688415407L605.3628984375,279.12350647122366L606.4240078125,244.4076746066986L612.7906640625,269.0958731585369L613.8517734375,270.25144696872024L617.0351015625,278.0254392386134L617.56565625,156.68677417771517L619.687875,256.4804854012943L621.2795390625,205.26920299247337L622.871203125,253.32214304317742L623.4017578125,274.2996088690416L624.4628671875,228.42309903990386L624.993421875,282.01786594121455L625.5239765625,241.4172076897502L626.5850859375,281.58393880517104L629.7684140625,231.46107932225294L638.2572890625,282.80296458434054L638.78784375,294.471640172191L639.3183984375,286.37667206885743L639.848953125,262.9190270728866L641.4406171875,227.80238329843746L645.6850546875,295.27755576853343L646.215609375,250.30488481821206L650.9906015625,219.0231469424608L653.1128203125,255.5029388387206L653.643375,272.7639965055164L654.704484375,265.0104959904375L655.2350390625,317.1002187382807L656.826703125,264.586161395391L657.3572578125,285.6579240308824L658.948921875,279.32873657235746L660.01003125,256.1171767753284L662.6628046875,237.76231753462093L663.193359375,216.30973182036527L666.3766875,227.32059645276425L667.9683515625,244.252620372336L669.0294609375,226.46000898172778L670.621125,235.59047937785826L671.1516796875,240.3610968667135L673.2738984375,221.73713516875625L673.804453125,261.6526618705383L680.7016640625,276.71945545625977L681.7627734375,263.7377700614524L683.8849921875,230.59189391308453L684.9461015625,267.0901847714947L686.537765625,255.2719979440065L687.598875,269.97744689448655L688.1294296875,272.4013542443485L689.72109375,305.5871438302749L690.2516484375,264.6999510478656L692.904421875,266.70323416768014L693.4349765625,247.09505387128274L694.4960859375,219.98896706064966L695.026640625,248.43429570714738L698.7405234375,257.0911874100213L699.271078125,302.2605570717024L700.3321875,279.38978496826655L704.0460703125,263.6094966975501L705.1071796875,234.4021275936269L705.637734375,308.8188709045826L706.1682890625,260.62232885033694L709.882171875,294.30081491765173L711.4738359375,265.72124418430553L713.0655,179.11576509251415L715.18771875,231.16468534671301L716.7793828125,278.43375471751136L718.371046875,275.81455267655537L721.0238203125,206.5844964192546L722.615484375,295.618118008843L723.67659375,256.18780112738085L724.737703125,273.5853552571714L725.2682578125,236.32306779652134L730.5738046875,236.03643070799694L731.104359375,284.7894362084495L732.6960234375,256.30831004191464L734.8182421875,278.19620422523235L736.9404609375,249.90048414781L738.0015703125,234.41241203491134L739.0626796875,260.6861958686812L740.1237890625,249.1444742637806L741.715453125,285.2832215931828L743.3071171875,248.16616358394708L743.837671875,234.54232313751456L744.3682265625,279.5201301843962L745.4293359375,295.06947269739237L748.082109375,238.55028410883645L749.14321875,277.07264805153807L750.204328125,308.8656218592173L753.9182109375,268.0697638522381L756.0404296875,316.0851151869566L757.1015390625,284.38162033463976L760.815421875,272.151521505324L761.3459765625,254.8576818725981L761.87653125,252.9113186098147L762.4070859375,242.27010268323411L762.937640625,276.93161552739065L765.059859375,277.41514407113107L766.6515234375,241.43101559824262L771.9570703125,243.58119173256168L773.0181796875,271.1865769899179L774.0792890625,233.83567966146563L775.1403984375,271.82128074240666L776.7320625,289.19084435626047L777.793171875,300.7525982572545L778.85428125,293.4934761641761L779.3848359375,261.717205109644L779.915390625,240.95023761143108L780.4459453125,283.3864181061373L780.9765,314.37654919361086L783.09871875,271.1510167552059L784.6903828125,267.4967019161616L787.34315625,260.83089829879947L787.8737109375,205.67467718141836L788.404265625,272.2536446257772L790.526484375,265.8877702659966L794.2403671875,272.4601190007075L795.3014765625,248.30828990361627L796.3625859375,197.68952093904093L796.893140625,250.81273991344L797.4236953125,300.712100425146L799.015359375,274.615066339487L800.07646875,250.0059489754354L801.137578125,294.69510168454144L801.6681328125,289.3394431405803L802.7292421875,253.38922287589784L805.382015625,284.853978971035L806.443125,300.1115831788691L806.9736796875,308.40457133639933L808.56534375,224.3393325794408L809.0958984375,307.5947721696229L810.1570078125,308.5689783193517L810.6875625,245.88656457905824L812.2792265625,292.05358962701814L813.3403359375,290.8379970102617L814.4014453125,257.8820066508302L815.993109375,242.48065403175198L819.7069921875,273.7235668834181L821.8292109375,309.59177785100695L822.359765625,298.2972671881875L822.8903203125,227.08892691600468L828.1958671875,276.98324072375493L829.2569765625,304.518279882097L830.848640625,271.4696184414894L834.03196875,273.98130781144675L834.5625234375,269.226045940112L835.6236328125,278.831640123645L836.1541875,238.6495635782569L836.6847421875,314.4813758452817L838.8069609375,283.73050493548396L839.8680703125,257.48742372340314L840.9291796875,260.51821459114313L842.52084375,305.9656228351248L844.6430625,298.10239186599694L845.1736171875,300.32310778042495L846.76528125,274.64220866832824L850.4791640625,275.9441539198744L851.00971875,289.3754968617146L851.5402734375,244.56867283176214L855.25415625,273.7735175214676L857.376375,306.2732177614361L860.0291484375,259.18957967617126L861.0902578125,309.9471511933564L863.2124765625,237.5802530997346L864.804140625,278.39747911663096L867.98746875,222.15018024709025L871.170796875,274.7004014508921L872.23190625,292.4226175735533L873.8235703125,312.4458920909112L874.354125,267.8307266936627L874.8846796875,310.92552029094554L875.415234375,257.6421330127448L876.47634375,276.88200413305265L877.537453125,243.0097222701049L878.0680078125,262.6527729013042L879.659671875,253.76602234156536L880.1902265625,270.23475797866354L883.3735546875,300.6286107133118L885.4957734375,280.9262967898674L888.148546875,255.69447483487994L888.6791015625,283.8816820554208L889.20965625,245.42515106276463L891.331875,290.37463162419215L892.9235390625,259.65928754386806L895.5763125,300.6539058459262L897.1679765625,290.50679334170053L899.82075,288.8741309570305L900.3513046875,276.7234221456481L901.94296875,260.7231935262507L904.0651875,264.6474182312719L906.18740625,246.48676288791876L908.8401796875,297.2656501530614L911.492953125,257.58999235147417L912.5540625,297.5617355250187L914.1457265625,281.3261622643529L914.67628125,256.38390589835166L915.737390625,277.9792786945389L919.4512734375,253.10406850937866L924.7568203125,318.9732699903557L926.348484375,274.9548877502094L929.5318125,264.1166272713286L932.715140625,276.33202460862867L934.837359375,242.9928862404314L935.3679140625,310.6393842825474L935.89846875,309.1493667008978L936.4290234375,282.57980636963487L936.959578125,310.94799473282495L940.6734609375,265.9463028694647L941.204015625,270.56154139514183L943.326234375,261.33226126322324L945.9790078125,307.06400295186313L946.5095625,262.3650060315051L948.63178125,290.63685823834066L950.2234453125,286.75997764915655L952.3456640625,293.08760195105475L962.9567578125,283.96696367961L965.0789765625,307.80951965295117L970.3845234375,312.26060022998814L973.037296875,251.99630430149907L974.09840625,307.280297827948L974.6289609375,283.0202971093293L975.159515625,209.95271383515058L975.6900703125,268.61702057224267L979.9345078125,273.52399148624056L980.9956171875,294.2794883630427L983.1178359375,310.2591642214671L984.1789453125,316.0199811743851L984.7095,303.7790534687853L985.770609375,242.16568997127408L986.3011640625,303.9097187734339L992.6678203125,302.80978256481166L993.198375,279.8058920562428L994.259484375,274.51625828578346L997.9733671875,271.0350829030108L1000.0955859375,290.14035679430776L1001.68725,265.26034910841474L1003.80946875,303.1802437180462L1005.9316875,299.5072301900521L1006.4622421875,249.2910194816714L1008.05390625,310.82443240010423L1011.7677890625,281.08356830129014L1012.29834375,256.7498251707716L1012.8288984375,316.91785122587544L1013.8900078125,285.57115661917965L1014.9511171875,299.72497159787724L1015.481671875,246.72991491101422L1021.848328125,263.8436297842778L1025.03165625,260.03769373340646L1026.6233203125,289.865865335759L1027.153875,280.2299332961838L1028.7455390625,269.4556468575635L1032.4594218749999,277.67679864177M1034.5816406249999,268.9658820300431L1035.1121953125,264.46900397131697L1039.8871875,329.90822249977845L1041.4788515625,318.24699037335745L1042.00940625,286.7490111790871L1043.0705156249999,230.81218209725733L1044.6621796875002,277.5508748192921L1045.1927343749999,275.56760518708114L1045.7232890625,253.71904177340505L1047.3149531249999,306.6839540392251L1049.4371718749999,266.67820659937695L1052.0899453125,291.05330420790676L1057.3954921875002,264.449781572936L1057.9260468749999,302.07302901560973L1058.4566015625,240.0270061901645L1060.5788203125,328.8093319030529L1061.109375,269.05374616704614L1061.6399296875,293.2938469917344L1065.8843671875,314.03084884659893L1072.781578125,233.05166671224268L1074.3732421875,313.99316109962L1076.4954609375,283.24657323120204L1078.6176796875,286.0297041080709L1079.6787890625,254.25285105410578L1081.270453125,244.95302072588632L1081.8010078125,274.71009744502567L1084.45378125,309.306749182369L1084.9843359375,285.4628183393385L1087.1065546875,294.5738025881939L1088.69821875,307.40216967429524L1089.759328125,285.047873352381L1092.94265625,276.45638875252746L1095.064875,289.58761750668594L1097.18709375,308.8958874702134L1099.3093125,293.6581803509422L1100.9009765625,246.85099401135642L1101.9620859375,258.3306957903143L1105.1454140625,289.80244433476656L1105.67596875,290.1903511004438L1106.2065234375,281.39470091984094L1106.737078125,314.10046970370627L1109.3898515625,282.6029417824364L1109.92040625,322.9193760548596L1110.4509609375,303.7999449582546L1114.16484375,261.45927910050665L1115.225953125,268.2421570061224L1116.8176171875,315.8573496483477L1117.8787265625,296.21093772689727L1118.40928125,276.8581961898852L1118.9398359375,258.3224940894839L1119.470390625,285.5104682736279L1122.65371875,224.0752885794612L1124.7759375,315.4416377118418L1125.3064921875,275.6087198500266L1125.837046875,291.5268126988872L1126.3676015625,279.78340847950193L1129.020375,298.08267600638993L1133.2648125,263.14461434931155L1133.7953671875,282.8936380295006L1135.9175859375,278.86200489863035L1136.9786953125,307.52691059528206L1139.63146875,232.23491361751232L1141.2231328125,264.55642309651313L1141.7536875,304.99306793483805L1147.5897890625,277.31545531173686L1152.8953359375,289.71420064748816L1153.9564453125,262.76433520074875L1155.548109375,266.02972643402995L1157.670328125,285.2551259113244L1158.2008828125,310.39878140004026L1158.7314375,299.4397583870584L1160.3231015625,251.52207923064236L1161.914765625,319.93882063133185L1164.036984375,277.4091614026785L1166.159203125,269.50530762175566L1167.1142015625,320.1516017707803L1169.8730859375,271.3045670880035L1170.9341953125,261.766493648239L1175.7091875,255.49177759601156L1177.83140625,258.87548531902286L1179.4230703125,241.54570902243077L1179.953625,301.7911369354856L1181.014734375,291.5867439836721L1181.5452890625,286.1692174479353L1182.6063984375,284.0608502251887L1184.7286171875,289.26736478709904L1185.7897265625,210.67720848861552L1189.503609375,261.7121091087387L1190.56471875,292.55758736098807L1191.0952734375,298.41091911797423L1192.6869375,304.85302958136407L1197.4619296875,265.9001825788411L1200.114703125,238.60796256734614L1200.6452578125,289.40481171751986L1201.1758125,311.37605332211814L1203.8285859375,231.45484089367824L1204.8896953125,286.8060753756558L1208.0730234375,246.28193257498447L1209.6646875,317.1930225665268L1210.1952421875,260.4846545104069L1211.2563515625,289.65766854341706L1212.3174609375,301.7169573765441L1213.3785703125,313.14746673614457L1216.03134375,260.970749436514L1218.1535625,285.83603343674537L1219.7452265625,255.32451153536414L1222.9285546875,302.7322398469117L1223.459109375,275.4209039636229L1223.9896640625,290.4566371497564L1225.581328125,311.740807732397L1228.2341015625,299.5622478161499L1231.4174296875,276.0050858145617L1231.947984375,297.46620189471173L1237.25353125,304.06412257897847L1237.7840859375,262.96720152487325L1239.9063046875,308.6046400835062L1240.436859375,322.3494223618872L1240.9674140625,316.74775759277094L1242.559078125,253.93378600459204L1243.6201875,286.46852857451154L1245.2118515625,313.12735178748824L1246.803515625,306.019050138536L1248.3951796875,293.6157997585287L1250.5173984375,287.25722734911267L1251.047953125,283.11117224782953L1251.5785078125,273.6218113560689L1252.1090625,281.6547342443162L1252.6396171875,273.4147913389268L1253.7007265625,291.83375819843764L1254.23128125,307.90481138264374L1254.7618359375,270.8595712014045L1259.536828125,270.1384188066343L1260.5979375,280.37785297990536L1261.659046875,264.31708592995653L1264.842375,313.2912692308847L1265.3729296875,293.22114504614683L1266.96459375,308.1994388722205L1280.759015625,256.71107390613616L1282.881234375,249.3479012154127L1283.4117890625,313.28551224858734L1285.5340078125,286.8456064997435L1286.5951171875,276.48207760785294L1288.18678125,271.60298960972216L1290.309,269.51634482061786L1290.8395546875,284.34307195020943L1292.9617734375,287.99675397885005L1294.5534375,307.1180334785606L1296.67565625,282.15177155020865L1300.3895390625,309.8387350065553L1300.92009375,295.89479905184584L1301.4506484375,286.26961500820846L1307.28675,265.8080156033193L1307.8173046875,290.31543787149934L1308.8784140625,264.2996402403821L1311.0006328125,261.88385844171523L1313.65340625,320.65919727364906L1316.3061796875,254.02170009301068L1317.3672890625,259.7924840541015L1317.89784375,284.04377972004056L1318.958953125,286.27835145887207L1320.0200625,284.8260062398477L1322.14228125,268.04256934659355L1323.203390625,311.5540202873319L1323.7339453125,251.68450092881284L1324.7950546875,324.9569980364581L1326.38671875,249.1713681763508L1327.447828125,323.3554128724241L1329.570046875,291.2690861682139L1330.1006015625,275.80278180373494L1332.2228203125,230.54616820890038L1332.753375,332.32886344064485L1334.87559375,327.20037433505337L1335.4061484375,275.80474663636403L1336.9978125,244.2838909011434L1337.5283671875,247.3015950511029L1339.12003125,276.648186340317L1343.36446875,291.4830496746965L1343.8950234375,279.3694248019966L1345.4866875,275.8616596934213L1347.60890625,271.2333827087024L1350.792234375,259.56450601506816L1356.09778125,298.12950472197895L1357.6894453125,292.10225031311023L1361.403328125,289.865865335759L1365.1172109375,269.0482534381552L1370.9533125,331.088615235847L1372.014421875,293.18129987776143L1374.6671953125,262.56875344837454L1377.31996875,315.6625380723636L1378.381078125,263.873152225617L1379.4421875,269.05008722432865L1382.625515625,278.09169431517586L1383.686625,269.65813170053593L1384.2171796875,315.4563479637194L1385.2782890625,275.83025561567297L1385.80884375,265.56914087655787L1388.992171875,240.81702486406476L1391.114390625,286.7468138471931L1392.1755,267.00406532296734L1396.9504921875,248.38980578920678L1398.54215625,265.50730452229664L1400.1338203125,308.11478039138245L1401.1949296875,254.85609565271247L1406.5004765625,326.6083050833662L1408.092140625,317.24095784785686L1408.6226953125,249.8207067226294L1411.8060234375,313.68347871150684L1413.3976875,279.0403201132694L1418.1726796875,270.1106522187173L1420.2948984375,276.33597562421215L1420.825453125,326.56544164023L1426.6615546875,299.2874863247436L1430.9059921875,308.74191490501596L1433.558765625,280.030992859L1434.0893203125,257.33945857506905L1436.74209375,262.63390394277985L1439.3948671875,268.60243340013744L1440.98653125,283.0287482227885L1443.6393046875,330.49663910087475L1446.8226328125,255.14958328612212L1447.8837421875,269.79090278444147L1449.47540625,263.6840068652269L1452.1281796875,319.30018923757154L1453.1892890625,292.246053371125L1453.71984375,300.9426850597312L1454.2503984375,304.3080043103236L1455.3115078125,251.26979039963564L1458.4948359375,327.48611125131674L1459.025390625,319.21147510359924L1461.147609375,289.88398236952963L1462.20871875,317.7547250257031L1466.9837109375,283.2444632478173L1468.575375,261.18851640816087L1469.636484375,239.75376187268589L1472.2892578125,297.76781397947934L1475.4725859375,285.06297036963514L1478.125359375,253.62514078848076L1479.18646875,303.3751036879495L1480.247578125,304.4367455661885L1480.7781328125,249.85080133394808L1482.369796875,289.04470965587916L1482.9003515625,276.7036186347438L1489.7975625,268.4093974085554L1491.3892265625,324.2623314637008L1498.2864375,251.54198203323966L1499.8781015625,264.27172695153166L1502.0003203125,225.91991837981146L1502.530875,291.365654091642L1504.1225390625,324.7852955527103L1505.1836484375,304.1191393427776L1505.714203125,278.9328862626009L1508.89753125,314.87254295655157L1512.080859375,312.26344529331857L1516.325296875,284.49091477172095L1517.38640625,267.7674450748436L1517.9169609375,306.44213460179935L1520.0391796875,308.63207702952997L1522.1613984375,244.7185152577405L1523.2225078125,279.29212774631486L1524.2836171875,306.76469349312777L1527.9975,291.1657277384624L1528.5280546875,283.94776400328556L1530.6502734375,307.8040762861346L1532.7724921875,268.59149879363434L1535.425265625,299.12548779232424L1535.9558203125,316.2095747397112L1536.486375,293.82787525338534L1538.0780390625,240.1959572134397L1539.1391484375,207.79228084870226L1539.669703125,308.20764034993044L1540.7308125,298.7452228630124L1541.791921875,278.3773339486286L1543.3835859375,299.3074404991028L1544.4446953125,260.9656921586683L1545.5058046875,280.0576277944244L1546.036359375,315.462234086854L1546.5669140625,278.0254392386134L1547.6280234375,261.5694963606016L1548.6891328125,207.19674465532495L1551.34190625,258.6265806170005L1552.403015625,305.9282429803903L1552.9335703125,293.9222850128646L1556.647453125,281.8528263102947L1557.7085625,311.4438101795488L1558.769671875,313.49871209699455L1559.3002265625,307.7823123325367L1565.136328125,315.3563590264925L1570.9724296875,294.8642298373941L1571.502984375,300.94521938512054L1572.56409375,308.57721082794546L1576.2779765625,287.6085829237602L1577.3390859375,276.5571857640511L1577.869640625,261.04497434510495L1580.5224140625,316.0347856850837L1581.05296875,285.1514499117828L1581.5835234375,313.83095572261084L1583.1751875,321.97757547056386L1583.7057421875,285.01553778459396L1585.29740625,299.59727297525416L1588.480734375,327.5094055755067L1589.0112890625,295.5965024611052L1590.0723984375,269.19486388663677L1591.1335078125,331.2959654546275L1592.1946171875,319.1320113835783L1592.725171875,282.9358361556712L1598.5612734375,275.885226390299L1599.091828125,305.3904856149666L1599.6223828125,317.04636978448065L1603.8668203125,295.3110801934142L1604.397375,314.83744363518184L1607.0501484375,324.97321063331765L1607.580703125,291.55447126733463L1608.1112578125,305.76820966894974L1608.6418125,276.05622439882853L1609.702921875,277.81690430841667L1610.2334765625,346.3405241836242L1610.76403125,269.14352480362544L1612.3556953125,265.64339611662416L1618.191796875,248.43875217814644L1621.375125,239.62352440972995L1622.436234375,270.3961629147716L1626.680671875,277.8569781948153L1627.2112265625,322.13811529589134L1627.74178125,273.4243607790498L1628.802890625,256.6836346958013L1632.5167734375,271.42082083144976L1634.1084375,249.92910215667104L1635.169546875,325.66968937497484L1636.7612109375,302.76841839145385L1637.8223203125,298.54202360997834L1638.8834296875,303.2010139356709L1643.658421875,288.2237160774285L1644.1889765625,265.2973527137564L1644.71953125,282.45372578900265L1645.780640625,308.7089466668L1646.84175,292.29015902796476L1647.902859375,304.5472301799556L1648.96396875,278.9875985115812L1649.4945234375,301.28576606748504L1651.6167421875,328.93081967373826L1652.147296875,280.5301206247057L1652.6778515625,300.4441871598804L1655.330625,248.42094872962L1655.8611796875,297.1508759987626L1656.9222890625,336.59131391245313L1657.9833984375,314.61256031193415L1658.513953125,307.7007292473514L1660.636171875,346.98816661781933L1661.1667265625,300.50225711961866L1663.2889453125,322.10976471059735L1663.8195,278.2283769484229L1664.3500546875,333.9042681995485L1664.880609375,321.4193131636405L1665.94171875,288.99979394287925L1666.4722734375,291.62363541186176L1667.002828125,292.9495696997534L1670.7167109375,338.0408142303088L1671.247265625,316.23922929169004L1671.7778203125,261.114182585202L1674.43059375,236.47391908768805L1674.9611484375,283.66881779431094L1677.0833671875,270.98837191264886L1678.67503125,277.18004098695053L1680.2666953125,330.27728422065974L1681.3278046875,317.58617590704415L1682.3889140625,276.2689146529247L1683.4500234375,323.0051595560986L1683.980578125,318.84524769782087L1684.5111328125,239.228459605678L1687.16390625,276.68579229206097L1687.6944609375,310.78795928944754L1694.0611171875,298.55935299312563L1695.1222265625,241.8115283417137L1698.836109375,326.41722687622115L1702.0194375,279.7588841743459L1702.5499921875,308.79962623034436L1708.38609375,295.95746689826046L1708.9166484375,276.0149213281914L1713.691640625,254.5303255000678L1714.75275,320.42983118046294L1715.813859375,283.96696367961L1716.3444140625,307.7496657489335L1717.4055234375,253.19279947642633L1718.4666328125,268.6334359142251L1718.9971875,275.97560394913484L1720.5888515625,284.2874154774142L1722.7110703125,311.48053533801067L1723.241625,294.90000113129L1725.8943984375,289.50406580988596L1726.9555078125,281.70473893447604L1728.0166171875,310.25637683573524L1728.547171875,299.11303244459003L1730.669390625,317.39690450850054L1731.7305,292.06748705471614L1733.3221640625,274.4949576460543L1737.5666015625,256.12680262889216L1738.6277109375,276.27482801361936L1739.158265625,267.69517821931805L1740.219375,276.82845622249033L1742.8721484375,245.65270160916404L1743.9332578125,301.8218485913344L1744.9943671875,327.54602441695914L1746.0554765625,282.35296414696904L1748.1776953125,268.9036846374041L1750.2999140625,299.2575537724473L1750.83046875,291.32426556755024L1754.5443515625,315.6035862827795L1755.07490625,278.31692331527444L1756.136015625,282.59452736049377L1756.6665703125,320.45769915585413L1758.258234375,335.99786057648316L1759.31934375,330.160946274354L1759.8498984375,304.45515100814504L1760.380453125,337.96301258729346L1761.4415625,305.4011074017558L1764.624890625,323.4160374455321L1766.747109375,335.5379696570563L1767.2776640625,275.99132338060286L1774.7054296875,310.8890027954764L1776.29709375,345.0659231879893L1777.8887578125,320.2566150868395L1779.480421875,282.1810872189586L1781.602640625,317.6343042071019L1783.1943046875,314.93691047116897L1783.724859375,306.2035918686124L1784.2554140625,328.00991251912876L1787.4387421875,315.20655992386435L1790.091515625,276.7471878712181L1790.6220703125,315.2300395072711L1791.152625,285.19247047505746L1793.27484375,267.69336964788124L1794.335953125,297.89314593872257L1794.8665078125,308.1994388722205L1798.0498359375,301.9063569042929L1799.6415,293.733567726679L1800.702609375,309.86930313083L1801.2331640625,310.89462049987503L1802.2942734375,322.8051224663024L1802.824828125,314.10337568407454L1803.7798265625,290.1608000135081L1804.947046875,289.2178396854078L1806.5387109375,236.61054067398172L1810.7831484375,292.29015902796476L1811.313703125,272.0268439137295L1813.9664765625,288.2816469894908L1816.0886953125,276.16054440806903L1816.61925,264.13230472641754L1819.2720234375,276.37346176468895L1825.6386796875,292.56223983580855L1826.169234375,288.5673824865644L1826.6997890625,321.5476216316116L1827.23034375,347.0125407824354L1827.7608984375,298.19114478138533L1830.413671875,294.0640650144953L1832.535890625,295.51486008414304L1836.2497734375,293.39712714688267L1837.3108828125,302.28627150307244L1837.8414375,246.19635232283582L1840.4942109375,329.29959279578594L1842.085875,279.3165353413393L1844.7386484375,306.01103641271345L1845.269203125,300.7880521429193L1845.7997578125,303.2633386651217L1846.3303125,265.56384029010735L1846.8608671875,307.7768704788759L1848.9830859375,314.4085684186223L1851.1053046875,280.18683091583915L1852.1664140625,306.9992108210072L1853.758078125,306.25714290284327L1855.880296875,309.6056344469767L1856.4108515625,304.45515100814504L1856.94140625,281.80692410189914L1858.002515625,266.02972643402995L1860.124734375,328.81270117699944L1860.6552890625,280.3449658778991L1861.7163984375,299.60477829308553L1862.246953125,272.4847797937386L1864.369171875,318.6231325894653L1864.8997265625,298.7551413509297L1865.43028125,306.6866415019485L1868.0830546875,298.58907270978784L1868.613609375,266.4800024035629L1869.1441640625,260.3404627881043L1874.4497109375,316.2866995196152L1874.980265625,324.433118000681L1877.102484375,255.5811032019748L1878.16359375,289.60568309531345L1880.8163671875,314.7965173002883L1881.8774765625,329.0659939627071L1883.469140625,295.8056989410422L1884.53025,292.9776222394056L1889.835796875,307.98111163347005L1891.4274609375,325.3957147719735L1893.019125,286.0689227849005L1895.14134375,314.88423855397605L1895.6718984375,271.402061749506L1897.2635625,322.16647409703717L1897.7941171875,313.48140552112807" style="fill: none;" fill="none"></path></g></g></g></g></g></g><g transform="translate(30, 377)" clip-path="url(#clip_1)"><clipPath id="clip_1"><rect width="2122" height="23"></rect></clipPath><g><g><line x1="0" y1="0" x2="0" y2="5" style="visibility: inherit;" fill="rgb(0, 0, 0)" stroke="rgb(204, 204, 204)" stroke-width="1px"></line><line x1="212.221875" y1="0" x2="212.221875" y2="5" style="visibility: inherit;" fill="rgb(0, 0, 0)" stroke="rgb(204, 204, 204)" stroke-width="1px"></line><line x1="424.44375" y1="0" x2="424.44375" y2="5" style="visibility: inherit;" fill="rgb(0, 0, 0)" stroke="rgb(204, 204, 204)" stroke-width="1px"></line><line x1="636.665625" y1="0" x2="636.665625" y2="5" style="visibility: inherit;" fill="rgb(0, 0, 0)" stroke="rgb(204, 204, 204)" stroke-width="1px"></line><line x1="848.8875" y1="0" x2="848.8875" y2="5" style="visibility: inherit;" fill="rgb(0, 0, 0)" stroke="rgb(204, 204, 204)" stroke-width="1px"></line><line x1="1061.109375" y1="0" x2="1061.109375" y2="5" style="visibility: inherit;" fill="rgb(0, 0, 0)" stroke="rgb(204, 204, 204)" stroke-width="1px"></line><line x1="1273.33125" y1="0" x2="1273.33125" y2="5" style="visibility: inherit;" fill="rgb(0, 0, 0)" stroke="rgb(204, 204, 204)" stroke-width="1px"></line><line x1="1485.553125" y1="0" x2="1485.553125" y2="5" style="visibility: inherit;" fill="rgb(0, 0, 0)" stroke="rgb(204, 204, 204)" stroke-width="1px"></line><line x1="1697.775" y1="0" x2="1697.775" y2="5" style="visibility: inherit;" fill="rgb(0, 0, 0)" stroke="rgb(204, 204, 204)" stroke-width="1px"></line><line x1="1909.996875" y1="0" x2="1909.996875" y2="5" style="visibility: inherit;" fill="rgb(0, 0, 0)" stroke="rgb(204, 204, 204)" stroke-width="1px"></line><line x1="2122.21875" y1="0" x2="2122.21875" y2="5" style="visibility: inherit;" fill="rgb(0, 0, 0)" stroke="rgb(204, 204, 204)" stroke-width="1px"></line></g><g transform="translate(0, 8)"><text x="0" y="0" dx="0em" dy="0.95em" style="text-anchor: middle; visibility: hidden; font-family: Roboto, sans-serif; font-size: 12px; font-weight: 200;" fill="rgb(255, 255, 255)" stroke="none" stroke-width="1px">-2k</text><text x="212.221875" y="0" dx="0em" dy="0.95em" style="text-anchor: middle; visibility: inherit; font-family: Roboto, sans-serif; font-size: 12px; font-weight: 200;" fill="rgb(255, 255, 255)" stroke="none" stroke-width="1px">0</text><text x="424.44375" y="0" dx="0em" dy="0.95em" style="text-anchor: middle; visibility: inherit; font-family: Roboto, sans-serif; font-size: 12px; font-weight: 200;" fill="rgb(255, 255, 255)" stroke="none" stroke-width="1px">2k</text><text x="636.665625" y="0" dx="0em" dy="0.95em" style="text-anchor: middle; visibility: inherit; font-family: Roboto, sans-serif; font-size: 12px; font-weight: 200;" fill="rgb(255, 255, 255)" stroke="none" stroke-width="1px">4k</text><text x="848.8875" y="0" dx="0em" dy="0.95em" style="text-anchor: middle; visibility: inherit; font-family: Roboto, sans-serif; font-size: 12px; font-weight: 200;" fill="rgb(255, 255, 255)" stroke="none" stroke-width="1px">6k</text><text x="1061.109375" y="0" dx="0em" dy="0.95em" style="text-anchor: middle; visibility: inherit; font-family: Roboto, sans-serif; font-size: 12px; font-weight: 200;" fill="rgb(255, 255, 255)" stroke="none" stroke-width="1px">8k</text><text x="1273.33125" y="0" dx="0em" dy="0.95em" style="text-anchor: middle; visibility: inherit; font-family: Roboto, sans-serif; font-size: 12px; font-weight: 200;" fill="rgb(255, 255, 255)" stroke="none" stroke-width="1px">10k</text><text x="1485.553125" y="0" dx="0em" dy="0.95em" style="text-anchor: middle; visibility: inherit; font-family: Roboto, sans-serif; font-size: 12px; font-weight: 200;" fill="rgb(255, 255, 255)" stroke="none" stroke-width="1px">12k</text><text x="1697.775" y="0" dx="0em" dy="0.95em" style="text-anchor: middle; visibility: inherit; font-family: Roboto, sans-serif; font-size: 12px; font-weight: 200;" fill="rgb(255, 255, 255)" stroke="none" stroke-width="1px">14k</text><text x="1909.996875" y="0" dx="0em" dy="0.95em" style="text-anchor: middle; visibility: inherit; font-family: Roboto, sans-serif; font-size: 12px; font-weight: 200;" fill="rgb(255, 255, 255)" stroke="none" stroke-width="1px">16k</text><text x="2122.21875" y="0" dx="0em" dy="0.95em" style="text-anchor: middle; visibility: hidden; font-family: Roboto, sans-serif; font-size: 12px; font-weight: 200;" fill="rgb(255, 255, 255)" stroke="none" stroke-width="1px">18k</text></g><line x1="0" y1="0" x2="2122.21875" y2="0" fill="rgb(0, 0, 0)" stroke="rgb(204, 204, 204)" stroke-width="1px"></line></g></g></g></g></svg>