<svg viewBox="0 0 2153 400" xmlns="http://www.w3.org/2000/svg"><g><g><g><g><g><line x1="72.34375" y1="377" x2="67.34375" y2="377" style="visibility: inherit;" fill="rgb(0, 0, 0)" stroke="rgb(204, 204, 204)" stroke-width="1px"></line><line x1="72.34375" y1="348" x2="67.34375" y2="348" style="visibility: inherit;" fill="rgb(0, 0, 0)" stroke="rgb(204, 204, 204)" stroke-width="1px"></line><line x1="72.34375" y1="319" x2="67.34375" y2="319" style="visibility: inherit;" fill="rgb(0, 0, 0)" stroke="rgb(204, 204, 204)" stroke-width="1px"></line><line x1="72.34375" y1="290" x2="67.34375" y2="290" style="visibility: inherit;" fill="rgb(0, 0, 0)" stroke="rgb(204, 204, 204)" stroke-width="1px"></line><line x1="72.34375" y1="261" x2="67.34375" y2="261" style="visibility: inherit;" fill="rgb(0, 0, 0)" stroke="rgb(204, 204, 204)" stroke-width="1px"></line><line x1="72.34375" y1="232" x2="67.34375" y2="232" style="visibility: inherit;" fill="rgb(0, 0, 0)" stroke="rgb(204, 204, 204)" stroke-width="1px"></line><line x1="72.34375" y1="203.00000000000003" x2="67.34375" y2="203.00000000000003" style="visibility: inherit;" fill="rgb(0, 0, 0)" stroke="rgb(204, 204, 204)" stroke-width="1px"></line><line x1="72.34375" y1="174" x2="67.34375" y2="174" style="visibility: inherit;" fill="rgb(0, 0, 0)" stroke="rgb(204, 204, 204)" stroke-width="1px"></line><line x1="72.34375" y1="145.00000000000003" x2="67.34375" y2="145.00000000000003" style="visibility: inherit;" fill="rgb(0, 0, 0)" stroke="rgb(204, 204, 204)" stroke-width="1px"></line><line x1="72.34375" y1="116" x2="67.34375" y2="116" style="visibility: inherit;" fill="rgb(0, 0, 0)" stroke="rgb(204, 204, 204)" stroke-width="1px"></line><line x1="72.34375" y1="86.99999999999999" x2="67.34375" y2="86.99999999999999" style="visibility: inherit;" fill="rgb(0, 0, 0)" stroke="rgb(204, 204, 204)" stroke-width="1px"></line><line x1="72.34375" y1="57.999999999999964" x2="67.34375" y2="57.999999999999964" style="visibility: inherit;" fill="rgb(0, 0, 0)" stroke="rgb(204, 204, 204)" stroke-width="1px"></line><line x1="72.34375" y1="29.00000000000002" x2="67.34375" y2="29.00000000000002" style="visibility: inherit;" fill="rgb(0, 0, 0)" stroke="rgb(204, 204, 204)" stroke-width="1px"></line><line x1="72.34375" y1="0" x2="67.34375" y2="0" style="visibility: inherit;" fill="rgb(0, 0, 0)" stroke="rgb(204, 204, 204)" stroke-width="1px"></line></g><g transform="translate(62.34375, 0)"><text x="0" y="377" dx="0em" dy="0.3em" style="text-anchor: end; visibility: hidden; font-family: Roboto, sans-serif; font-size: 12px; font-weight: 200;" fill="rgb(255, 255, 255)" stroke="none" stroke-width="1px">-2e-6</text><text x="0" y="348" dx="0em" dy="0.3em" style="text-anchor: end; visibility: inherit; font-family: Roboto, sans-serif; font-size: 12px; font-weight: 200;" fill="rgb(255, 255, 255)" stroke="none" stroke-width="1px">0</text><text x="0" y="319" dx="0em" dy="0.3em" style="text-anchor: end; visibility: inherit; font-family: Roboto, sans-serif; font-size: 12px; font-weight: 200;" fill="rgb(255, 255, 255)" stroke="none" stroke-width="1px">2e-6</text><text x="0" y="290" dx="0em" dy="0.3em" style="text-anchor: end; visibility: inherit; font-family: Roboto, sans-serif; font-size: 12px; font-weight: 200;" fill="rgb(255, 255, 255)" stroke="none" stroke-width="1px">4e-6</text><text x="0" y="261" dx="0em" dy="0.3em" style="text-anchor: end; visibility: inherit; font-family: Roboto, sans-serif; font-size: 12px; font-weight: 200;" fill="rgb(255, 255, 255)" stroke="none" stroke-width="1px">6e-6</text><text x="0" y="232" dx="0em" dy="0.3em" style="text-anchor: end; visibility: inherit; font-family: Roboto, sans-serif; font-size: 12px; font-weight: 200;" fill="rgb(255, 255, 255)" stroke="none" stroke-width="1px">8e-6</text><text x="0" y="203.00000000000003" dx="0em" dy="0.3em" style="text-anchor: end; visibility: inherit; font-family: Roboto, sans-serif; font-size: 12px; font-weight: 200;" fill="rgb(255, 255, 255)" stroke="none" stroke-width="1px">1e-5</text><text x="0" y="174" dx="0em" dy="0.3em" style="text-anchor: end; visibility: inherit; font-family: Roboto, sans-serif; font-size: 12px; font-weight: 200;" fill="rgb(255, 255, 255)" stroke="none" stroke-width="1px">1.2e-5</text><text x="0" y="145.00000000000003" dx="0em" dy="0.3em" style="text-anchor: end; visibility: inherit; font-family: Roboto, sans-serif; font-size: 12px; font-weight: 200;" fill="rgb(255, 255, 255)" stroke="none" stroke-width="1px">1.4e-5</text><text x="0" y="116" dx="0em" dy="0.3em" style="text-anchor: end; visibility: inherit; font-family: Roboto, sans-serif; font-size: 12px; font-weight: 200;" fill="rgb(255, 255, 255)" stroke="none" stroke-width="1px">1.6e-5</text><text x="0" y="86.99999999999999" dx="0em" dy="0.3em" style="text-anchor: end; visibility: inherit; font-family: Roboto, sans-serif; font-size: 12px; font-weight: 200;" fill="rgb(255, 255, 255)" stroke="none" stroke-width="1px">1.8e-5</text><text x="0" y="57.999999999999964" dx="0em" dy="0.3em" style="text-anchor: end; visibility: inherit; font-family: Roboto, sans-serif; font-size: 12px; font-weight: 200;" fill="rgb(255, 255, 255)" stroke="none" stroke-width="1px">2e-5</text><text x="0" y="29.00000000000002" dx="0em" dy="0.3em" style="text-anchor: end; visibility: inherit; font-family: Roboto, sans-serif; font-size: 12px; font-weight: 200;" fill="rgb(255, 255, 255)" stroke="none" stroke-width="1px">2.2e-5</text><text x="0" y="0" dx="0em" dy="0.3em" style="text-anchor: end; visibility: hidden; font-family: Roboto, sans-serif; font-size: 12px; font-weight: 200;" fill="rgb(255, 255, 255)" stroke="none" stroke-width="1px">2.4e-5</text></g><line x1="72.34375" y1="0" x2="72.34375" y2="377" fill="rgb(0, 0, 0)" stroke="rgb(204, 204, 204)" stroke-width="1px"></line></g></g><g transform="translate(72, 0)" clip-path="url(#clip_0)"><clipPath id="clip_0"><rect width="2080" height="377"></rect></clipPath><g><g><g><line x1="0" y1="0" x2="0" y2="377" fill="rgb(0, 0, 0)" stroke="rgb(189, 189, 189)" stroke-width="1px" opacity="0.25"></line><line x1="208.065625" y1="0" x2="208.065625" y2="377" fill="rgb(0, 0, 0)" stroke="rgb(189, 189, 189)" stroke-width="1px" opacity="0.25"></line><line x1="416.13125" y1="0" x2="416.13125" y2="377" fill="rgb(0, 0, 0)" stroke="rgb(189, 189, 189)" stroke-width="1px" opacity="0.25"></line><line x1="624.196875" y1="0" x2="624.196875" y2="377" fill="rgb(0, 0, 0)" stroke="rgb(189, 189, 189)" stroke-width="1px" opacity="0.25"></line><line x1="832.2625" y1="0" x2="832.2625" y2="377" fill="rgb(0, 0, 0)" stroke="rgb(189, 189, 189)" stroke-width="1px" opacity="0.25"></line><line x1="1040.328125" y1="0" x2="1040.328125" y2="377" fill="rgb(0, 0, 0)" stroke="rgb(189, 189, 189)" stroke-width="1px" opacity="0.25"></line><line x1="1248.39375" y1="0" x2="1248.39375" y2="377" fill="rgb(0, 0, 0)" stroke="rgb(189, 189, 189)" stroke-width="1px" opacity="0.25"></line><line x1="1456.459375" y1="0" x2="1456.459375" y2="377" fill="rgb(0, 0, 0)" stroke="rgb(189, 189, 189)" stroke-width="1px" opacity="0.25"></line><line x1="1664.525" y1="0" x2="1664.525" y2="377" fill="rgb(0, 0, 0)" stroke="rgb(189, 189, 189)" stroke-width="1px" opacity="0.25"></line><line x1="1872.590625" y1="0" x2="1872.590625" y2="377" fill="rgb(0, 0, 0)" stroke="rgb(189, 189, 189)" stroke-width="1px" opacity="0.25"></line><line x1="2080.65625" y1="0" x2="2080.65625" y2="377" fill="rgb(0, 0, 0)" stroke="rgb(189, 189, 189)" stroke-width="1px" opacity="0.25"></line></g><g><line x1="0" y1="377" x2="2080.65625" y2="377" fill="rgb(0, 0, 0)" stroke="rgb(189, 189, 189)" stroke-width="1px" opacity="0.25"></line><line x1="0" y1="348" x2="2080.65625" y2="348" fill="rgb(0, 0, 0)" stroke="rgb(189, 189, 189)" stroke-width="1px" opacity="0.25"></line><line x1="0" y1="319" x2="2080.65625" y2="319" fill="rgb(0, 0, 0)" stroke="rgb(189, 189, 189)" stroke-width="1px" opacity="0.25"></line><line x1="0" y1="290" x2="2080.65625" y2="290" fill="rgb(0, 0, 0)" stroke="rgb(189, 189, 189)" stroke-width="1px" opacity="0.25"></line><line x1="0" y1="261" x2="2080.65625" y2="261" fill="rgb(0, 0, 0)" stroke="rgb(189, 189, 189)" stroke-width="1px" opacity="0.25"></line><line x1="0" y1="232" x2="2080.65625" y2="232" fill="rgb(0, 0, 0)" stroke="rgb(189, 189, 189)" stroke-width="1px" opacity="0.25"></line><line x1="0" y1="203.00000000000003" x2="2080.65625" y2="203.00000000000003" fill="rgb(0, 0, 0)" stroke="rgb(189, 189, 189)" stroke-width="1px" opacity="0.25"></line><line x1="0" y1="174" x2="2080.65625" y2="174" fill="rgb(0, 0, 0)" stroke="rgb(189, 189, 189)" stroke-width="1px" opacity="0.25"></line><line x1="0" y1="145.00000000000003" x2="2080.65625" y2="145.00000000000003" fill="rgb(0, 0, 0)" stroke="rgb(189, 189, 189)" stroke-width="1px" opacity="0.25"></line><line x1="0" y1="116" x2="2080.65625" y2="116" fill="rgb(0, 0, 0)" stroke="rgb(189, 189, 189)" stroke-width="1px" opacity="0.25"></line><line x1="0" y1="86.99999999999999" x2="2080.65625" y2="86.99999999999999" fill="rgb(0, 0, 0)" stroke="rgb(189, 189, 189)" stroke-width="1px" opacity="0.25"></line><line x1="0" y1="57.999999999999964" x2="2080.65625" y2="57.999999999999964" fill="rgb(0, 0, 0)" stroke="rgb(189, 189, 189)" stroke-width="1px" opacity="0.25"></line><line x1="0" y1="29.00000000000002" x2="2080.65625" y2="29.00000000000002" fill="rgb(0, 0, 0)" stroke="rgb(189, 189, 189)" stroke-width="1px" opacity="0.25"></line><line x1="0" y1="0" x2="2080.65625" y2="0" fill="rgb(0, 0, 0)" stroke="rgb(189, 189, 189)" stroke-width="1px" opacity="0.25"></line></g></g></g><g><g><line x1="0" y1="348" x2="2080.65625" y2="348" fill="rgb(0, 0, 0)" stroke="rgb(153, 153, 153)" stroke-width="1.5px"></line></g></g><g><g><line x1="208.065625" y1="0" x2="208.065625" y2="377" fill="rgb(0, 0, 0)" stroke="rgb(153, 153, 153)" stroke-width="1.5px"></line></g></g><g><g><g><g><g><path stroke="rgb(0, 153, 136)" stroke-width="2px" d="M209.6261171875,333.500000036609L210.14628125000002,333.500000036609L213.267265625,333.500000036609L215.347921875,333.500000036609L215.86808593749998,333.500000036609L217.428578125,333.500000036609L217.9487421875,333.500000036609L218.46890625,333.500000036609L219.509234375,333.500000036609L220.0293984375,333.500000036609L221.58989062499998,333.500000036609L222.1100546875,333.500000036609L228.8721875,333.500000036609L232.51333593750002,328.6405857197108L233.0335,325.41337003339623L233.55366406250002,323.26809027628286L234.5939921875,321.8411242614564L236.154484375,320.89155773585367L237.7149765625,320.2594977274534L239.27546875000002,319.83870147245483L239.7956328125,319.5585202006485L240.31579687500002,319.3719500845302L240.8359609375,319.24770796202563L241.8762890625,319.1649687288021L242.39645312500002,319.10986706959795L242.9166171875,319.0731705488443L243.43678125000002,319.04873119129377L244.477109375,319.03245481214606L244.99727343749998,319.0216148469719L248.1182578125,319.01439547600165L250.71907812499998,319.009587395266L254.3602265625,314.16337381262184L259.5618671875,310.9358016199896L261.6425234375,308.78624122471587L263.203015625,307.35463519241813L263.7231796875,306.40118610316233L264.7635078125,305.7661892440282L268.40465625,305.34328143977467L271.0054765625,305.0616248882403L273.0861328125,300.0310417873709L273.606296875,296.68067368541733L274.64662500000003,294.44932863740036L275.686953125,292.96325288327364L278.80793750000004,291.9735264522506L279.3281015625,291.3143686586039L282.96925000000005,290.875369572211L284.009578125,290.58299618252573L284.5297421875,290.3882755058168L286.090234375,290.2585915354931L289.73138281250004,290.17222201141914L291.291875,290.1146999084576L292.33220312500004,290.07639018791707L293.37253124999995,290.0508759140511L296.493515625,285.19088396905397L297.0136796875,281.9541293344796L297.53384374999996,279.79845074820514L300.13466406249995,278.36276880990243L303.7758125,277.4066046390622L304.29597656249996,276.76979930131324L304.816140625,276.34568694638614L306.896796875,276.0632281180107L307.4169609375,275.87511053831537L307.937125,275.7498242302394L311.5782734375,275.6663835490614L313.13876562499996,275.61081205539705L313.6589296875,275.5738014406167L314.17909375,275.5491523711731L314.6992578125,275.5327360909236L315.7395859375,270.6788012087456L317.8202421875,267.44608057721683L318.8605703125,265.2930886366195L319.9008984375,263.85919600418197L321.9815546875,262.9042235109788L322.50171875,262.26821183050544L323.0218828125,261.84462805131034L324.582375,261.56252125436635L327.1831953125,261.37463812760166L332.3848359375,261.24950796517646L334.98565625000003,261.1661712770012L335.5058203125,261.1106690426765L336.025984375,261.07370455461626L342.267953125,256.2060867683808L342.7881171875,252.96425332274808L343.30828125,250.80519224795663L349.0300859375,249.36725757214558L350.59057812500004,248.40959307805542L351.63090625,247.77178852499136L352.67123437500004,247.34701069265068L354.75189062500004,247.0641086563118L356.3123828125,246.8756959001101L357.87287499999996,246.75021300447975L358.913203125,241.8236419588027L361.5140234375,238.5425456423818L362.55435156249996,236.35733549564551L363.074515625,234.90198553791913L367.23582812499995,233.93272246607333L368.27615625,233.2871932602241L370.3568125,232.85727080912847L372.43746875,232.57094245669873L373.47779687499997,232.38024777398056L373.9979609375,232.25324511529027L375.55845312499997,232.16866134460253L383.3609140625,227.26932691379585L383.881078125,224.00637018287856L386.4818984375,221.83324100008764L387.5222265625,220.3859369643489L388.042390625,219.42203247654692L391.163375,218.78007208767073L392.203703125,218.3525264686793L394.284359375,218.06778108643093L396.365015625,217.8781406618535L396.8851796875,217.751840139085L397.40534375,217.66772399092113L397.92550781250003,217.61170263624402L398.445671875,217.57439241402903L398.9658359375,217.54954380603388L404.68764062500003,212.68999739826324L408.84895312500004,209.45353949068803L410.92960937500004,207.29805852424295L411.9699375,205.86250820059053L413.01026562500005,204.906431685038L414.5707578125,204.26968472568004L417.171578125,203.84561125074762L418.21190625,203.56317831644265L420.8127265625,203.37507798219548L423.41354687499995,198.40680152005822L423.9337109375,195.09792939627482L427.0546953125,192.89422056183508L427.57485937499996,191.42655047809822L429.1353515625,190.4490822023295L429.65551562499996,189.7980883306675L431.73617187499997,189.36452641214058L434.33699218749996,189.07577417440166L434.85715625,188.88346518406755L435.3773203125,188.75538739650503L436.41764843749996,188.67008758998844L438.49830468749997,188.6132779188483L439.01846875,188.57544267786903L440.058796875,188.55024440737682L442.139453125,188.533462359229L443.17978124999996,188.52228551516254L445.26043749999997,183.67184009748564L447.34109374999997,180.44144344931283L447.8612578125,178.28999928162972L449.9419140625,176.85713746595275L450.462078125,175.90285149671192L451.50240625,175.2672970411975L452.542734375,174.8440177738249L454.623390625,174.56211378175476L455.1435546875,174.37436572303605L457.744375,174.2493255159294L458.2645390625,174.1660487379964L461.3855234375,174.11058640389297L461.9056875,174.0736484893801L462.4258515625,174.04904783831452L465.02667187500003,174.03266380470487L467.10732812500004,169.178754803475L472.8291328125,165.9460514086559L473.349296875,163.7930709477064L473.86946093750004,162.359185960714L474.389625,161.40421855937709L474.9097890625,160.76821027008668L475.429953125,160.3446287494193L476.9904453125,160.06252345665484L477.510609375,159.87464133167364L478.03077343750005,159.74951183643623L485.31307031250003,159.66617559260808L485.833234375,159.61067365421854L486.87356250000005,159.5737093632511L487.39372656250004,159.5490911454668L487.91389062499996,154.68969377289375L488.95421875,151.45333512276014L489.99454687499997,149.29792026177117L491.034875,147.86241396435247L492.075203125,146.90636677027166L492.59536718749996,146.2696393390138L494.155859375,145.84557886979604L495.19618749999995,145.56315459729709L496.75667968749997,145.37506003181275L497.27684374999995,145.24978905120017L500.397828125,145.16635857811218L500.9179921875,145.11079388303557L501.43815624999996,145.07378779611457L503.51881249999997,145.0491417422252L505.0793046875,145.0327274703349L506.1196328125,145.02179556525593L507.680125,145.01451491647333L509.76078125,140.1666687695383L511.8414375,136.93800323567953L512.3616015625,134.78771199012962L513.92209375,133.35561802059337L514.962421875,132.4018434368823L515.4825859375,131.76662956413065L517.043078125,131.3435771248781L518.08340625,131.06182420033585L519.123734375,130.87417675259073L519.6438984375,130.7492035523925L520.6842265624999,130.66597140106046L521.204390625,130.6105387882733L523.8052109375,130.5736206681571L526.40603125,130.54903320015967L526.9261953125,130.5326579464734L527.9665234375,130.52175202751835L530.0471796874999,130.51448868549429L531.0875078125,130.50965129970626L531.607671875,130.50642960077144L533.1681640625,130.50428394928082L534.2084921874999,130.50285494538807L534.72865625,130.50190322879553L536.8093125,130.50126938554484L538.88996875,130.50084724593995L540.4504609375,130.50056610096303L540.970625,130.50037885840845L541.4907890625,130.50025415486706L542.010953125,130.50017110230854L542.5311171875,130.50011578930454L545.1319375,130.50007895084389L546.172265625,130.50005441642907L546.6924296875,130.50003807650884L547.7327578124999,130.50002719412197L548.252921875,130.50001994645228L549.8134140625,130.5000151195043L550.8537421875,130.50001190475692L554.494890625,130.50000976373516L556.0553828124999,130.5000083378147L558.656203125,130.50000738815166L559.1763671875,130.50000675567605L561.2570234374999,130.50000633444733L563.3376796875,130.50000605390895L564.898171875,130.50000586707043L567.4989921875,130.50000574263595L568.5393203125,130.5000056597626L569.5796484374999,130.500005604569L570.0998125000001,130.50000556781L571.1401406250001,130.50000554332857L572.7006328125,130.50000552702386L574.261125,130.50000551616495L576.8619453125,130.50000550893293L579.4627656250001,130.50000550411636L580.5030937500001,130.50000550090857L582.0635859375,130.50000549877217L582.58375,130.50000549734935L583.6240781250001,130.5000054964017L584.6644062500001,130.5000054957706L585.1845703125,130.50000549535028L586.2248984375,130.50000549507033L586.7450624999999,130.5000054948839L587.785390625,130.50000549475976L588.3055546875,130.50000549467708L588.82571875,130.500005494622L591.4265390625,130.5000054945853L593.5071953125,130.5000054945609L594.5475234375,130.5000054945446L600.7894921875001,130.50000549453378L601.8298203125,130.50000549452653L604.9508046875001,130.50000549452173L605.47096875,130.50000549451855L607.551625,130.50000549451642L609.1121171875001,130.500005494515L610.672609375,130.50000549451406L611.1927734375,130.50000549451343L612.2331015625,130.50000549451298L612.7532656249999,130.5000054945127L613.2734296875,130.50000549451252L614.3137578125001,130.50000549451238L617.4347421875,130.5000054945123L625.7573671875,130.50000549451227L626.2775312499999,130.50000549451218L626.7976953125001,130.50000549451218L627.317859375,130.50000549451218L628.8783515625,130.50000549451218L633.0396640625,130.50000549451218L633.559828125,130.50000549451218L638.2413046875,130.50000549451218L640.3219609375001,130.50000549451218L640.842125,130.50000549451218L641.882453125,130.50000549451218L642.4026171875,130.50000549451218L643.963109375,130.50000549451218L644.4832734375001,130.50000549451218L646.043765625,130.50000549451218L647.08409375,130.50000549451218L649.6849140625001,130.50000549451218L650.205078125,130.50000549451218L653.3260625,130.50000549451218L654.8865546874999,130.50000549451218L655.9268828124999,130.50000549451218L657.487375,130.50000549451218L658.0075390625,130.50000549451218L660.0881953124999,130.50000549451218L660.608359375,130.50000549451218L667.3704921875,130.50000549451218L668.4108203124999,130.50000549451218L670.4914765625,130.50000549451218L671.5318046875,130.50000549451218L673.092296875,130.50000549451218L674.1326250000001,130.50000549451218L674.6527890625,130.50000549451218L676.21328125,130.50000549451218L676.7334453125,130.50000549451218L679.3342656250001,130.50000549451218L679.8544296875,130.50000549451218L680.8947578125,130.50000549451218L681.414921875,130.50000549451218L685.0560703125,130.50000549451218L685.576234375,130.50000549451218L686.6165625,130.50000549451218L690.2577109375,130.50000549451218L691.2980390624999,130.50000549451218L691.8182031250001,130.50000549451218L692.3383671875,130.50000549451218L695.9795156250001,130.50000549451218L697.5400078125,130.50000549451218L699.1005,130.50000549451218L701.1811562500001,130.50000549451218L702.7416484375,130.50000549451218L704.302140625,130.50000549451218L706.9029609375,130.50000549451218L708.463453125,130.50000549451218L709.5037812500001,130.50000549451218L710.5441093750001,130.50000549451218L711.0642734375,130.50000549451218L716.2659140625,130.50000549451218L716.7860781249999,130.50000549451218L718.3465703125,130.50000549451218L720.4272265625,130.50000549451218L722.5078828125,130.50000549451218L723.5482109375,130.50000549451218L724.5885390625,130.50000549451218L725.6288671875,130.50000549451218L727.189359375,130.50000549451218L728.7498515625,130.50000549451218L729.2700156249999,130.50000549451218L729.7901796875,130.50000549451218L730.8305078125001,130.50000549451218L733.4313281249999,130.50000549451218L734.4716562499999,130.50000549451218L735.511984375,130.50000549451218L739.1531328125001,130.50000549451218L741.2337890625,130.50000549451218L742.2741171875,130.50000549451218L745.915265625,130.50000549451218L746.4354296875,130.50000549451218L746.9555937499999,130.50000549451218L747.4757578125,130.50000549451218L747.995921875,130.50000549451218L750.076578125,130.50000549451218L751.6370703125,130.50000549451218L756.8387109375001,130.50000549451218L757.8790390625,130.50000549451218L758.9193671875,130.50000549451218L759.9596953125,130.50000549451218L761.5201875,130.50000549451218L762.560515625,130.50000549451218L763.60084375,130.50000549451218L764.1210078125,130.50000549451218L764.6411718749999,130.50000549451218L765.1613359375001,130.50000549451218L765.6815,130.50000549451218L767.76215625,130.50000549451218L769.3226484375,130.50000549451218L771.92346875,130.50000549451218L772.4436328125,130.50000549451218L772.963796875,130.50000549451218L775.044453125,130.50000549451218L778.6856015625001,130.50000549451218L779.7259296875001,130.50000549451218L780.7662578124999,130.50000549451218L781.286421875,130.50000549451218L781.8065859374999,130.50000549451218L783.367078125,130.50000549451218L784.40740625,130.50000549451218L785.447734375,130.50000549451218L785.9678984374999,130.50000549451218L787.0082265625,130.50000549451218L789.609046875,130.50000549451218L790.649375,130.50000549451218L791.1695390625,130.50000549451218L792.73003125,130.50000549451218L793.2501953125,130.50000549451218L794.2905234374999,130.50000549451218L794.8106875,130.50000549451218L796.3711796875,130.50000549451218L797.4115078125,130.50000549451218L798.4518359374999,130.50000549451218L800.0123281250001,130.50000549451218L803.6534765624999,130.50000549451218L805.7341328125,130.50000549451218L806.254296875,130.50000549451218L806.7744609375,130.50000549451218L811.9761015624999,130.50000549451218L813.0164296875,130.50000549451218L814.576921875,130.50000549451218L817.6979062500001,130.50000549451218L818.2180703125,130.50000549451218L819.2583984375,130.50000549451218L819.7785625,130.50000549451218L820.2987265625,130.50000549451218L822.3793828125,130.50000549451218L823.4197109375,130.50000549451218L824.4600390625,130.50000549451218L826.0205312500001,130.50000549451218L828.1011875,130.50000549451218L828.6213515625,130.50000549451218L830.1818437500001,130.50000549451218L833.8229921875,130.50000549451218L834.34315625,130.50000549451218L834.8633203125,130.50000549451218L838.50446875,130.50000549451218L840.5851250000001,130.50000549451218L843.1859453125,130.50000549451218L844.2262734375,130.50000549451218L846.3069296875,130.50000549451218L847.867421875,130.50000549451218L850.9884062499999,130.50000549451218L854.109390625,130.50000549451218L855.1497187499999,130.50000549451218L856.7102109375,130.50000549451218L857.230375,130.50000549451218L857.7505390625,130.50000549451218L858.270703125,130.50000549451218L859.3110312499999,130.50000549451218L860.3513593749999,130.50000549451218L860.8715234375001,130.50000549451218L862.432015625,130.50000549451218L862.9521796875,130.50000549451218L866.0731640625,130.50000549451218L868.1538203125,130.50000549451218L870.754640625,130.50000549451218L871.2748046875,130.50000549451218L871.79496875,130.50000549451218L873.875625,130.50000549451218L875.4361171875,130.50000549451218L878.0369375,130.50000549451218L879.5974296875,130.50000549451218L882.19825,130.50000549451218L882.7184140625001,130.50000549451218L884.27890625,130.50000549451218L886.3595624999999,130.50000549451218L888.44021875,130.50000549451218L891.0410390625001,130.50000549451218L893.641859375,130.50000549451218L894.6821874999999,130.50000549451218L896.2426796875001,130.50000549451218L896.76284375,130.50000549451218L897.803171875,130.50000549451218L901.4443203125,130.50000549451218L906.6459609375,130.50000549451218L908.206453125,130.50000549451218L911.3274375,130.50000549451218L914.448421875,130.50000549451218L916.529078125,130.50000549451218L917.0492421875,130.50000549451218L917.56940625,130.50000549451218L918.0895703125,130.50000549451218L918.609734375,130.50000549451218L922.2508828125,130.50000549451218L922.771046875,130.50000549451218L924.851703125,130.50000549451218L927.4525234375,130.50000549451218L927.9726875,130.50000549451218L930.0533437500001,130.50000549451218L931.6138359375,130.50000549451218L933.6944921874999,130.50000549451218L944.0977734375,130.50000549451218L946.1784296874999,130.50000549451218L951.3800703124999,130.50000549451218L953.980890625,130.50000549451218L955.02121875,130.50000549451218L955.5413828124999,130.50000549451218L956.0615468750001,130.50000549451218L956.5817109375,130.50000549451218L960.7430234375,130.50000549451218L961.7833515625,130.50000549451218L963.8640078125,130.50000549451218L964.9043359375,130.50000549451218L965.4245000000001,130.50000549451218L966.464828125,130.50000549451218L966.9849921875,130.50000549451218L973.2269609375,130.50000549451218L973.7471250000001,130.50000549451218L974.7874531250001,130.50000549451218L978.4286015625,130.50000549451218L980.5092578125,130.50000549451218L982.06975,130.50000549451218L984.15040625,130.50000549451218L986.2310625,130.50000549451218L986.7512265625,130.50000549451218L988.31171875,130.50000549451218L991.9528671875,130.50000549451218L992.47303125,130.50000549451218L992.9931953125,130.50000549451218L994.0335234375,130.50000549451218L995.0738515625001,130.50000549451218L995.594015625,130.50000549451218L1001.835984375,130.50000549451218L1004.95696875,130.50000549451218L1006.5174609375,130.50000549451218L1007.0376249999999,130.50000549451218L1008.5981171875001,130.50000549451218L1012.239265625,130.50000549451218L1013.7997578125,130.50000549451218L1014.319921875,130.50000549451218L1014.8400859375,130.50000549451218L1019.5215625,130.50000549451218L1021.0820546875001,130.50000549451218L1021.60221875,130.50000549451218L1022.642546875,130.50000549451218L1024.2030390625,130.50000549451218L1024.723203125,130.50000549451218L1025.2433671875,130.50000549451218L1026.803859375,130.50000549451218L1028.884515625,130.50000549451218L1031.4853359375,130.50000549451218L1036.6869765625001,130.50000549451218L1037.207140625,130.50000549451218L1037.7273046875,130.50000549451218L1039.8079609375,130.50000549451218L1040.328125,130.50000549451218L1040.8482890625,130.50000549451218L1045.0096015625,130.50000549451218L1051.7717343749998,130.50000549451218L1053.3322265625,130.50000549451218L1055.4128828125,130.50000549451218L1057.4935390624998,130.50000549451218L1058.5338671875002,130.50000549451218L1060.0943593749998,130.50000549451218L1060.6145234375,130.50000549451218L1063.21534375,130.50000549451218L1063.7355078125,130.50000549451218L1065.8161640624999,130.50000549451218L1067.37665625,130.50000549451218L1068.4169843749999,130.50000549451218L1071.5379687500001,130.50000549451218L1073.618625,130.50000549451218L1075.69928125,130.50000549451218L1077.7799375,130.50000549451218L1079.3404296875,130.50000549451218L1080.3807578125,130.50000549451218L1083.5017421875,130.50000549451218L1084.02190625,130.50000549451218L1084.5420703125,130.50000549451218L1085.062234375,130.50000549451218L1087.6630546875,130.50000549451218L1088.1832187500002,130.50000549451218L1088.7033828125,130.50000549451218L1092.34453125,130.50000549451218L1093.384859375,130.50000549451218L1094.9453515625,130.50000549451218L1095.9856796875001,130.50000549451218L1096.50584375,130.50000549451218L1097.0260078125,130.50000549451218L1097.546171875,130.50000549451218L1100.66715625,130.50000549451218L1102.7478125,130.50000549451218L1103.2679765625,130.50000549451218L1103.7881406249999,130.50000549451218L1104.3083046875001,130.50000549451218L1106.9091250000001,130.50000549451218L1111.0704375,130.50000549451218L1111.5906015625,130.50000549451218L1113.6712578125,130.50000549451218L1114.7115859374999,130.50000549451218L1117.31240625,130.50000549451218L1118.8728984375,130.50000549451218L1119.3930625,130.50000549451218L1125.1148671874998,130.50000549451218L1130.3165078125,130.50000549451218L1131.3568359375,130.50000549451218L1132.917328125,130.50000549451218L1134.997984375,130.50000549451218L1135.5181484374998,130.50000549451218L1136.0383125,130.50000549451218L1137.5988046875,130.50000549451218L1139.1592968749999,130.50000549451218L1141.239953125,130.50000549451218L1143.320609375,130.50000549451218L1144.2569046875,130.50000549451218L1146.9617578125,130.50000549451218L1148.0020859375,130.50000549451218L1152.6835625,130.50000549451218L1154.76421875,130.50000549451218L1156.3247109375,130.50000549451218L1156.844875,130.50000549451218L1157.885203125,130.50000549451218L1158.4053671875,130.50000549451218L1159.4456953125,130.50000549451218L1161.5263515625,130.50000549451218L1162.5666796875,130.50000549451218L1166.207828125,130.50000549451218L1167.2481562500002,130.50000549451218L1167.7683203125,130.50000549451218L1169.3288125000001,130.50000549451218L1174.0102890625,130.50000549451218L1176.611109375,130.50000549451218L1177.1312734374999,130.50000549451218L1177.6514375,130.50000549451218L1180.2522578125001,130.50000549451218L1181.2925859375,130.50000549451218L1184.4135703125,130.50000549451218L1185.9740625,130.50000549451218L1186.4942265625,130.50000549451218L1187.5345546874998,130.50000549451218L1188.5748828125002,130.50000549451218L1189.6152109375,130.50000549451218L1192.21603125,130.50000549451218L1194.2966875,130.50000549451218L1195.8571796874999,130.50000549451218L1198.9781640625001,130.50000549451218L1199.498328125,130.50000549451218L1200.0184921875,130.50000549451218L1201.5789843750001,130.50000549451218L1204.1798046874999,130.50000549451218L1207.3007890625001,130.50000549451218L1207.820953125,130.50000549451218L1213.02259375,130.50000549451218L1213.5427578125,130.50000549451218L1215.6234140625002,130.50000549451218L1216.143578125,130.50000549451218L1216.6637421875,130.50000549451218L1218.2242343750002,130.50000549451218L1219.2645625,130.50000549451218L1220.8250546875,130.50000549451218L1222.385546875,130.50000549451218L1223.9460390625002,130.50000549451218L1226.0266953125001,130.50000549451218L1226.546859375,130.50000549451218L1227.0670234375,130.50000549451218L1227.5871875,130.50000549451218L1228.1073515625,130.50000549451218L1229.1476796875,130.50000549451218L1229.66784375,130.50000549451218L1230.1880078125,130.50000549451218L1234.869484375,130.50000549451218L1235.9098125,130.50000549451218L1236.9501406250001,130.50000549451218L1240.071125,130.50000549451218L1240.5912890625,130.50000549451218L1242.1517812499999,130.50000549451218L1255.676046875,130.50000549451218L1257.756703125,130.50000549451218L1258.2768671875,130.50000549451218L1260.3575234375,130.50000549451218L1261.3978515625,130.50000549451218L1262.95834375,130.50000549451218L1265.039,130.50000549451218L1265.5591640624998,130.50000549451218L1267.6398203125,130.50000549451218L1269.2003124999999,130.50000549451218L1271.28096875,130.50000549451218L1274.9221171875001,130.50000549451218L1275.44228125,130.50000549451218L1275.9624453125,130.50000549451218L1281.68425,130.50000549451218L1282.2044140624998,130.50000549451218L1283.2447421875002,130.50000549451218L1285.3253984375,130.50000549451218L1287.92621875,130.50000549451218L1290.5270390624999,130.50000549451218L1291.5673671875,130.50000549451218L1292.08753125,130.50000549451218L1293.127859375,130.50000549451218L1294.1681875,130.50000549451218L1296.24884375,130.50000549451218L1297.2891718750002,130.50000549451218L1297.8093359375,130.50000549451218L1298.8496640624999,130.50000549451218L1300.41015625,130.50000549451218L1301.4504843749999,130.50000549451218L1303.5311406249998,130.50000549451218L1304.0513046875,130.50000549451218L1306.1319609375,130.50000549451218L1306.652125,130.50000549451218L1308.73278125,130.50000549451218L1309.2529453125,130.50000549451218L1310.8134375,130.50000549451218L1311.3336015625,130.50000549451218L1312.89409375,130.50000549451218L1317.05540625,130.50000549451218L1317.5755703124998,130.50000549451218L1319.1360625,130.50000549451218L1321.21671875,130.50000549451218L1324.337703125,130.50000549451218L1329.53934375,130.50000549451218L1331.0998359375,130.50000549451218L1334.740984375,130.50000549451218L1338.3821328125,130.50000549451218L1344.1039375,130.50000549451218L1345.144265625,130.50000549451218L1347.7450859375,130.50000549451218L1350.34590625,130.50000549451218L1351.386234375,130.50000549451218L1352.4265625,130.50000549451218L1355.5475468749999,130.50000549451218L1356.587875,130.50000549451218L1357.1080390625,130.50000549451218L1358.1483671875,130.50000549451218L1358.6685312500001,130.50000549451218L1361.789515625,130.50000549451218L1363.8701718749999,130.50000549451218L1364.9105,130.50000549451218L1369.5919765625,130.50000549451218L1371.15246875,130.50000549451218L1372.7129609375,130.50000549451218L1373.7532890625,130.50000549451218L1378.9549296875,130.50000549451218L1380.515421875,130.50000549451218L1381.0355859375,130.50000549451218L1384.1565703125,130.50000549451218L1385.7170625,130.50000549451218L1390.3985390625,130.50000549451218L1392.4791953125,130.50000549451218L1392.999359375,130.50000549451218L1398.7211640625,130.50000549451218L1402.8824765625,130.50000549451218L1405.483296875,130.50000549451218L1406.0034609375,130.50000549451218L1408.60428125,130.50000549451218L1411.2051015625,130.50000549451218L1412.76559375,130.50000549451218L1415.3664140625,130.50000549451218L1418.4873984375,130.50000549451218L1419.5277265625,130.50000549451218L1421.0882187500001,130.50000549451218L1423.6890390625001,130.50000549451218L1424.7293671875,130.50000549451218L1425.24953125,130.50000549451218L1425.7696953125,130.50000549451218L1426.8100234375,130.50000549451218L1429.9310078125,130.50000549451218L1430.451171875,130.50000549451218L1432.531828125,130.50000549451218L1433.5721562499998,130.50000549451218L1438.2536328125,130.50000549451218L1439.8141249999999,130.50000549451218L1440.854453125,130.50000549451218L1443.4552734375,130.50000549451218L1446.5762578125,130.50000549451218L1449.177078125,130.50000549451218L1450.2174062499998,130.50000549451218L1451.257734375,130.50000549451218L1451.7778984375,130.50000549451218L1453.338390625,130.50000549451218L1453.8585546875,130.50000549451218L1460.6206874999998,130.50000549451218L1462.1811796875,130.50000549451218L1468.9433124999998,130.50000549451218L1470.5038046875,130.50000549451218L1472.5844609375,130.50000549451218L1473.104625,130.50000549451218L1474.6651171875,130.50000549451218L1475.7054453125002,130.50000549451218L1476.225609375,130.50000549451218L1479.34659375,130.50000549451218L1482.467578125,130.50000549451218L1486.628890625,130.50000549451218L1487.66921875,130.50000549451218L1488.1893828125,130.50000549451218L1490.2700390625,130.50000549451218L1492.3506953125002,130.50000549451218L1493.3910234375,130.50000549451218L1494.4313515625001,130.50000549451218L1498.0725,130.50000549451218L1498.5926640624998,130.50000549451218L1500.6733203125,130.50000549451218L1502.7539765625,130.50000549451218L1505.3547968750001,130.50000549451218L1505.8749609375,130.50000549451218L1506.395125,130.50000549451218L1507.9556171875,130.50000549451218L1508.9959453125,130.50000549451218L1509.516109375,130.50000549451218L1510.5564375,130.50000549451218L1511.596765625,130.50000549451218L1513.1572578125,130.50000549451218L1514.1975859375,130.50000549451218L1515.2379140624998,130.50000549451218L1515.758078125,130.50000549451218L1516.2782421875,130.50000549451218L1517.3185703125,130.50000549451218L1518.3588984375,130.50000549451218L1520.9597187499999,130.50000549451218L1522.0000468750002,130.50000549451218L1522.5202109375,130.50000549451218L1526.161359375,130.50000549451218L1527.2016875,130.50000549451218L1528.242015625,130.50000549451218L1528.7621796875,130.50000549451218L1534.483984375,130.50000549451218L1540.2057890625,130.50000549451218L1540.7259531250002,130.50000549451218L1541.76628125,130.50000549451218L1545.4074296875,130.50000549451218L1546.4477578125,130.50000549451218L1546.967921875,130.50000549451218L1549.5687421875,130.50000549451218L1550.08890625,130.50000549451218L1550.6090703124999,130.50000549451218L1552.1695625,130.50000549451218L1552.6897265625,135.343002729358L1554.25021875,138.5684388877653L1557.3712031250002,140.71657936926454L1557.8913671875,142.14724092994308L1558.9316953124999,143.10006152935495L1559.9720234375,143.73464004856328L1561.0123515625,144.15726934235605L1561.5325156249999,144.43874045202196L1567.2543203124999,144.62620021105954L1567.774484375,144.75104841057856L1568.2946484375,144.83419731145815L1572.4559609375,144.88957447944404L1572.976125,144.92645567332258L1575.5769453125,144.95101854844572L1576.097109375,144.96737742327775L1576.6172734375,144.97827243391583L1577.1374375,144.98552851100087L1578.177765625,144.99036105833943L1578.6979296875002,144.9935795348669L1579.21809375,144.99572304023428L1580.7785859375,144.99715061480887L1586.500390625,144.99810137947563L1589.621375,144.99873458874362L1590.6617031249998,144.99915630611616L1594.823015625,144.99943716988625L1595.3431796875002,144.9996242251571L1595.86334375,144.99974880396752L1596.9036718749999,144.99983177345524L1600.5448203125,144.99988703113408L1602.1053125,144.99992383274815L1603.145640625,144.9999483426232L1604.7061328125,144.9999646661999L1605.7464609375002,144.99997553770203L1606.7867890625,144.9999827781224L1611.468265625,144.9999876002424L1611.9884296875,144.99999081177432L1612.50859375,144.99999295065462L1613.548921875,144.99999437514884L1614.58925,144.99999532386204L1615.6295781249999,144.99999595570495L1616.66990625,144.9999963765124L1617.1900703125,144.99999665677015L1619.2707265625,144.99999684342183L1619.790890625,144.99999696773176L1620.3110546875,144.9999970505222L1622.911875,144.9999971056607L1623.4320390625,144.9999971423829L1624.4723671875001,144.9999971668399L1625.5126953125,144.99999718312822L1626.032859375,144.9999971939763L1628.113515625,144.99999720120113L1628.6336796874998,144.99999720601278L1630.7143359375,144.9999972092174L1631.2345,144.9999972113517L1631.7546640625,144.9999972127731L1632.2748281249999,144.9999972137198L1633.31515625,144.99999721435026L1633.8353203125,144.99999721477016L1634.355484375,144.99999721504983L1637.9966328125,144.99999721523608L1638.516796875,144.9999972153601L1639.0369609375,144.9999972154427L1641.63778125,144.99999721549773L1642.1579453125,144.9999972155344L1644.2386015625,144.99999721555875L1645.79909375,144.999997215575L1647.3595859375,144.99999721558586L1648.3999140625,144.99999721559303L1649.4402421875,144.99999721559786L1650.4805703125,144.99999721560104L1651.0007343749999,144.9999972156032L1651.5208984375,144.99999721560462L1654.1217187500001,144.99999721560556L1654.6418828125,144.99999721560621L1660.8838515625,144.99999721560658L1661.9241796874999,144.9999972156069L1665.565328125,144.99999721560707L1668.6863125,144.99999721560718L1669.2064765625,144.99999721560724L1674.92828125,144.9999972156073L1675.4484453125,144.99999721560735L1680.129921875,144.99999721560738L1681.1702500000001,144.99999721560738L1682.210578125,144.99999721560738L1682.7307421875,144.99999721560738L1683.7710703125001,144.99999721560738L1684.8113984375,144.99999721560738L1685.3315625,144.99999721560738L1686.8920546875,144.99999721560738L1688.9727109374999,144.99999721560738L1689.4928750000001,144.99999721560738L1692.0936953125001,144.99999721560738L1693.1340234375,144.99999721560738L1694.1743515625,144.99999721560738L1694.694515625,144.99999721560738L1696.775171875,144.99999721560738L1697.8155,144.99999721560738L1699.3759921875,144.99999721560738L1703.5373046875,144.99999721560738L1704.5776328125,144.99999721560738L1705.097796875,144.99999721560738L1706.138125,144.99999721560738L1708.7389453125002,144.99999721560738L1709.7792734375,144.99999721560738L1710.8196015625,144.99999721560738L1711.8599296875,144.99999721560738L1713.9405859375,144.99999721560738L1716.0212421874999,144.99999721560738L1716.54140625,144.99999721560738L1720.1825546875,144.99999721560738L1720.7027187499998,144.99999721560738L1721.7430468750001,144.99999721560738L1722.2632109375,144.99999721560738L1723.823703125,144.99999721560738L1724.86403125,144.99999721560738L1725.3841953125002,144.99999721560738L1725.904359375,144.99999721560738L1726.9446874999999,144.99999721560738L1730.0656718750001,144.99999721560738L1732.146328125,144.99999721560738L1732.6664921875,144.99999721560738L1739.9487890625,144.99999721560738L1741.50928125,144.99999721560738L1743.0697734375,144.99999721560738L1744.630265625,144.99999721560738L1746.710921875,144.99999721560738L1748.2714140625,144.99999721560738L1748.7915781250001,144.99999721560738L1749.3117421875,144.99999721560738L1752.4327265625002,144.99999721560738L1755.033546875,144.99999721560738L1755.5537109375,144.99999721560738L1756.073875,144.99999721560738L1758.15453125,144.99999721560738L1759.194859375,144.99999721560738L1759.7150234375,144.99999721560738L1762.8360078125,144.99999721560738L1764.3965,144.99999721560738L1765.4368281250001,144.99999721560738L1765.9569921875,144.99999721560738L1766.9973203124998,144.99999721560738L1767.517484375,144.99999721560738L1768.4537796875,144.99999721560738L1769.598140625,144.99999721560738L1771.1586328125,144.99999721560738L1775.3199453124998,144.99999721560738L1775.840109375,144.99999721560738L1778.4409296875,144.99999721560738L1780.5215859375,144.99999721560738L1781.0417499999999,144.99999721560738L1783.6425703124999,144.99999721560738L1789.8845390625,144.99999721560738L1790.4047031250002,144.99999721560738L1790.9248671875,144.99999721560738L1791.44503125,144.99999721560738L1791.9651953124999,144.99999721560738L1794.566015625,144.99999721560738L1796.646671875,144.99999721560738L1800.2878203125,144.99999721560738L1801.3281484375,144.99999721560738L1801.8483125,144.99999721560738L1804.4491328125,144.99999721560738L1806.009625,144.99999721560738L1808.6104453125,144.99999721560738L1809.1306093750002,144.99999721560738L1809.6507734375,144.99999721560738L1810.1709375,144.99999721560738L1810.6911015624999,144.99999721560738L1812.7717578125,144.99999721560738L1814.8524140625,144.99999721560738L1815.8927421875,144.99999721560738L1817.4532343750002,144.99999721560738L1819.5338906250001,144.99999721560738L1820.0540546875,144.99999721560738L1820.57421875,144.99999721560738L1821.6145468749999,144.99999721560738L1823.6952031249998,144.99999721560738L1824.2153671875,144.99999721560738L1825.2556953125,144.99999721560738L1825.775859375,144.99999721560738L1827.856515625,144.99999721560738L1828.3766796875,144.99999721560738L1828.89684375,144.99999721560738L1831.4976640625,144.99999721560738L1832.0178281249998,144.99999721560738L1832.5379921875,144.99999721560738L1837.7396328124998,144.99999721560738L1838.259796875,144.99999721560738L1840.3404531249998,144.99999721560738L1841.38078125,144.99999721560738L1843.9816015625,144.99999721560738L1845.0219296875,144.99999721560738L1846.582421875,144.99999721560738L1847.62275,144.99999721560738L1852.824390625,144.99999721560738L1854.3848828124999,144.99999721560738L1855.945375,144.99999721560738L1858.02603125,144.99999721560738L1858.5461953125,144.99999721560738L1860.1066875000001,144.99999721560738L1860.6268515625,144.99999721560738" style="fill: none;" fill="none"></path></g></g></g></g><g opacity="0.2"><g><g><g><path stroke="rgb(0, 153, 136)" stroke-width="2px" d="M209.6261171875,333.500000036609L210.14628125000002,333.500000036609L213.267265625,333.500000036609L215.347921875,333.500000036609L215.86808593749998,333.500000036609L217.428578125,333.500000036609L217.9487421875,333.500000036609L218.46890625,333.500000036609L219.509234375,333.500000036609L220.0293984375,333.500000036609L221.58989062499998,333.500000036609L222.1100546875,333.500000036609L228.8721875,333.500000036609L232.51333593750002,319.00000007321796L233.0335,319.00000007321796L233.55366406250002,319.00000007321796L234.5939921875,319.00000007321796L236.154484375,319.00000007321796L237.7149765625,319.00000007321796L239.27546875000002,319.00000007321796L239.7956328125,319.00000007321796L240.31579687500002,319.00000007321796L240.8359609375,319.00000007321796L241.8762890625,319.00000007321796L242.39645312500002,319.00000007321796L242.9166171875,319.00000007321796L243.43678125000002,319.00000007321796L244.477109375,319.00000007321796L244.99727343749998,319.00000007321796L248.1182578125,319.00000007321796L250.71907812499998,319.00000007321796L254.3602265625,304.4999984613678L259.5618671875,304.4999984613678L261.6425234375,304.4999984613678L263.203015625,304.4999984613678L263.7231796875,304.4999984613678L264.7635078125,304.4999984613678L268.40465625,304.4999984613678L271.0054765625,304.4999984613678L273.0861328125,290.0000001464359L273.606296875,290.0000001464359L274.64662500000003,290.0000001464359L275.686953125,290.0000001464359L278.80793750000004,290.0000001464359L279.3281015625,290.0000001464359L282.96925000000005,290.0000001464359L284.009578125,290.0000001464359L284.5297421875,290.0000001464359L286.090234375,290.0000001464359L289.73138281250004,290.0000001464359L291.291875,290.0000001464359L292.33220312500004,290.0000001464359L293.37253124999995,290.0000001464359L296.493515625,275.50000183150405L297.0136796875,275.50000183150405L297.53384374999996,275.50000183150405L300.13466406249995,275.50000183150405L303.7758125,275.50000183150405L304.29597656249996,275.50000183150405L304.816140625,275.50000183150405L306.896796875,275.50000183150405L307.4169609375,275.50000183150405L307.937125,275.50000183150405L311.5782734375,275.50000183150405L313.13876562499996,275.50000183150405L313.6589296875,275.50000183150405L314.17909375,275.50000183150405L314.6992578125,275.50000183150405L315.7395859375,260.9999969227356L317.8202421875,260.9999969227356L318.8605703125,260.9999969227356L319.9008984375,260.9999969227356L321.9815546875,260.9999969227356L322.50171875,260.9999969227356L323.0218828125,260.9999969227356L324.582375,260.9999969227356L327.1831953125,260.9999969227356L332.3848359375,260.9999969227356L334.98565625000003,260.9999969227356L335.5058203125,260.9999969227356L336.025984375,260.9999969227356L342.267953125,246.49999860780372L342.7881171875,246.49999860780372L343.30828125,246.49999860780372L349.0300859375,246.49999860780372L350.59057812500004,246.49999860780372L351.63090625,246.49999860780372L352.67123437500004,246.49999860780372L354.75189062500004,246.49999860780372L356.3123828125,246.49999860780372L357.87287499999996,246.49999860780372L358.913203125,232.00000029287185L361.5140234375,232.00000029287185L362.55435156249996,232.00000029287185L363.074515625,232.00000029287185L367.23582812499995,232.00000029287185L368.27615625,232.00000029287185L370.3568125,232.00000029287185L372.43746875,232.00000029287185L373.47779687499997,232.00000029287185L373.9979609375,232.00000029287185L375.55845312499997,232.00000029287185L383.3609140625,217.49999538410339L383.881078125,217.49999538410339L386.4818984375,217.49999538410339L387.5222265625,217.49999538410339L388.042390625,217.49999538410339L391.163375,217.49999538410339L392.203703125,217.49999538410339L394.284359375,217.49999538410339L396.365015625,217.49999538410339L396.8851796875,217.49999538410339L397.40534375,217.49999538410339L397.92550781250003,217.49999538410339L398.445671875,217.49999538410339L398.9658359375,217.49999538410339L404.68764062500003,203.00000366300813L408.84895312500004,203.00000366300813L410.92960937500004,203.00000366300813L411.9699375,203.00000366300813L413.01026562500005,203.00000366300813L414.5707578125,203.00000366300813L417.171578125,203.00000366300813L418.21190625,203.00000366300813L420.8127265625,203.00000366300813L423.41354687499995,188.49999875423967L423.9337109375,188.49999875423967L427.0546953125,188.49999875423967L427.57485937499996,188.49999875423967L429.1353515625,188.49999875423967L429.65551562499996,188.49999875423967L431.73617187499997,188.49999875423967L434.33699218749996,188.49999875423967L434.85715625,188.49999875423967L435.3773203125,188.49999875423967L436.41764843749996,188.49999875423967L438.49830468749997,188.49999875423967L439.01846875,188.49999875423967L440.058796875,188.49999875423967L442.139453125,188.49999875423967L443.17978124999996,188.49999875423967L445.26043749999997,173.99999384547118L447.34109374999997,173.99999384547118L447.8612578125,173.99999384547118L449.9419140625,173.99999384547118L450.462078125,173.99999384547118L451.50240625,173.99999384547118L452.542734375,173.99999384547118L454.623390625,173.99999384547118L455.1435546875,173.99999384547118L457.744375,173.99999384547118L458.2645390625,173.99999384547118L461.3855234375,173.99999384547118L461.9056875,173.99999384547118L462.4258515625,173.99999384547118L465.02667187500003,173.99999384547118L467.10732812500004,159.5000021243759L472.8291328125,159.5000021243759L473.349296875,159.5000021243759L473.86946093750004,159.5000021243759L474.389625,159.5000021243759L474.9097890625,159.5000021243759L475.429953125,159.5000021243759L476.9904453125,159.5000021243759L477.510609375,159.5000021243759L478.03077343750005,159.5000021243759L485.31307031250003,159.5000021243759L485.833234375,159.5000021243759L486.87356250000005,159.5000021243759L487.39372656250004,159.5000021243759L487.91389062499996,144.99999721560744L488.95421875,144.99999721560744L489.99454687499997,144.99999721560744L491.034875,144.99999721560744L492.075203125,144.99999721560744L492.59536718749996,144.99999721560744L494.155859375,144.99999721560744L495.19618749999995,144.99999721560744L496.75667968749997,144.99999721560744L497.27684374999995,144.99999721560744L500.397828125,144.99999721560744L500.9179921875,144.99999721560744L501.43815624999996,144.99999721560744L503.51881249999997,144.99999721560744L505.0793046875,144.99999721560744L506.1196328125,144.99999721560744L507.680125,144.99999721560744L509.76078125,130.50000549451215L511.8414375,130.50000549451215L512.3616015625,130.50000549451215L513.92209375,130.50000549451215L514.962421875,130.50000549451215L515.4825859375,130.50000549451215L517.043078125,130.50000549451215L518.08340625,130.50000549451215L519.123734375,130.50000549451215L519.6438984375,130.50000549451215L520.6842265624999,130.50000549451215L521.204390625,130.50000549451215L523.8052109375,130.50000549451215L526.40603125,130.50000549451215L526.9261953125,130.50000549451215L527.9665234375,130.50000549451215L530.0471796874999,130.50000549451215L531.0875078125,130.50000549451215L531.607671875,130.50000549451215L533.1681640625,130.50000549451215L534.2084921874999,130.50000549451215L534.72865625,130.50000549451215L536.8093125,130.50000549451215L538.88996875,130.50000549451215L540.4504609375,130.50000549451215L540.970625,130.50000549451215L541.4907890625,130.50000549451215L542.010953125,130.50000549451215L542.5311171875,130.50000549451215L545.1319375,130.50000549451215L546.172265625,130.50000549451215L546.6924296875,130.50000549451215L547.7327578124999,130.50000549451215L548.252921875,130.50000549451215L549.8134140625,130.50000549451215L550.8537421875,130.50000549451215L554.494890625,130.50000549451215L556.0553828124999,130.50000549451215L558.656203125,130.50000549451215L559.1763671875,130.50000549451215L561.2570234374999,130.50000549451215L563.3376796875,130.50000549451215L564.898171875,130.50000549451215L567.4989921875,130.50000549451215L568.5393203125,130.50000549451215L569.5796484374999,130.50000549451215L570.0998125000001,130.50000549451215L571.1401406250001,130.50000549451215L572.7006328125,130.50000549451215L574.261125,130.50000549451215L576.8619453125,130.50000549451215L579.4627656250001,130.50000549451215L580.5030937500001,130.50000549451215L582.0635859375,130.50000549451215L582.58375,130.50000549451215L583.6240781250001,130.50000549451215L584.6644062500001,130.50000549451215L585.1845703125,130.50000549451215L586.2248984375,130.50000549451215L586.7450624999999,130.50000549451215L587.785390625,130.50000549451215L588.3055546875,130.50000549451215L588.82571875,130.50000549451215L591.4265390625,130.50000549451215L593.5071953125,130.50000549451215L594.5475234375,130.50000549451215L600.7894921875001,130.50000549451215L601.8298203125,130.50000549451215L604.9508046875001,130.50000549451215L605.47096875,130.50000549451215L607.551625,130.50000549451215L609.1121171875001,130.50000549451215L610.672609375,130.50000549451215L611.1927734375,130.50000549451215L612.2331015625,130.50000549451215L612.7532656249999,130.50000549451215L613.2734296875,130.50000549451215L614.3137578125001,130.50000549451215L617.4347421875,130.50000549451215L625.7573671875,130.50000549451215L626.2775312499999,130.50000549451215L626.7976953125001,130.50000549451215L627.317859375,130.50000549451215L628.8783515625,130.50000549451215L633.0396640625,130.50000549451215L633.559828125,130.50000549451215L638.2413046875,130.50000549451215L640.3219609375001,130.50000549451215L640.842125,130.50000549451215L641.882453125,130.50000549451215L642.4026171875,130.50000549451215L643.963109375,130.50000549451215L644.4832734375001,130.50000549451215L646.043765625,130.50000549451215L647.08409375,130.50000549451215L649.6849140625001,130.50000549451215L650.205078125,130.50000549451215L653.3260625,130.50000549451215L654.8865546874999,130.50000549451215L655.9268828124999,130.50000549451215L657.487375,130.50000549451215L658.0075390625,130.50000549451215L660.0881953124999,130.50000549451215L660.608359375,130.50000549451215L667.3704921875,130.50000549451215L668.4108203124999,130.50000549451215L670.4914765625,130.50000549451215L671.5318046875,130.50000549451215L673.092296875,130.50000549451215L674.1326250000001,130.50000549451215L674.6527890625,130.50000549451215L676.21328125,130.50000549451215L676.7334453125,130.50000549451215L679.3342656250001,130.50000549451215L679.8544296875,130.50000549451215L680.8947578125,130.50000549451215L681.414921875,130.50000549451215L685.0560703125,130.50000549451215L685.576234375,130.50000549451215L686.6165625,130.50000549451215L690.2577109375,130.50000549451215L691.2980390624999,130.50000549451215L691.8182031250001,130.50000549451215L692.3383671875,130.50000549451215L695.9795156250001,130.50000549451215L697.5400078125,130.50000549451215L699.1005,130.50000549451215L701.1811562500001,130.50000549451215L702.7416484375,130.50000549451215L704.302140625,130.50000549451215L706.9029609375,130.50000549451215L708.463453125,130.50000549451215L709.5037812500001,130.50000549451215L710.5441093750001,130.50000549451215L711.0642734375,130.50000549451215L716.2659140625,130.50000549451215L716.7860781249999,130.50000549451215L718.3465703125,130.50000549451215L720.4272265625,130.50000549451215L722.5078828125,130.50000549451215L723.5482109375,130.50000549451215L724.5885390625,130.50000549451215L725.6288671875,130.50000549451215L727.189359375,130.50000549451215L728.7498515625,130.50000549451215L729.2700156249999,130.50000549451215L729.7901796875,130.50000549451215L730.8305078125001,130.50000549451215L733.4313281249999,130.50000549451215L734.4716562499999,130.50000549451215L735.511984375,130.50000549451215L739.1531328125001,130.50000549451215L741.2337890625,130.50000549451215L742.2741171875,130.50000549451215L745.915265625,130.50000549451215L746.4354296875,130.50000549451215L746.9555937499999,130.50000549451215L747.4757578125,130.50000549451215L747.995921875,130.50000549451215L750.076578125,130.50000549451215L751.6370703125,130.50000549451215L756.8387109375001,130.50000549451215L757.8790390625,130.50000549451215L758.9193671875,130.50000549451215L759.9596953125,130.50000549451215L761.5201875,130.50000549451215L762.560515625,130.50000549451215L763.60084375,130.50000549451215L764.1210078125,130.50000549451215L764.6411718749999,130.50000549451215L765.1613359375001,130.50000549451215L765.6815,130.50000549451215L767.76215625,130.50000549451215L769.3226484375,130.50000549451215L771.92346875,130.50000549451215L772.4436328125,130.50000549451215L772.963796875,130.50000549451215L775.044453125,130.50000549451215L778.6856015625001,130.50000549451215L779.7259296875001,130.50000549451215L780.7662578124999,130.50000549451215L781.286421875,130.50000549451215L781.8065859374999,130.50000549451215L783.367078125,130.50000549451215L784.40740625,130.50000549451215L785.447734375,130.50000549451215L785.9678984374999,130.50000549451215L787.0082265625,130.50000549451215L789.609046875,130.50000549451215L790.649375,130.50000549451215L791.1695390625,130.50000549451215L792.73003125,130.50000549451215L793.2501953125,130.50000549451215L794.2905234374999,130.50000549451215L794.8106875,130.50000549451215L796.3711796875,130.50000549451215L797.4115078125,130.50000549451215L798.4518359374999,130.50000549451215L800.0123281250001,130.50000549451215L803.6534765624999,130.50000549451215L805.7341328125,130.50000549451215L806.254296875,130.50000549451215L806.7744609375,130.50000549451215L811.9761015624999,130.50000549451215L813.0164296875,130.50000549451215L814.576921875,130.50000549451215L817.6979062500001,130.50000549451215L818.2180703125,130.50000549451215L819.2583984375,130.50000549451215L819.7785625,130.50000549451215L820.2987265625,130.50000549451215L822.3793828125,130.50000549451215L823.4197109375,130.50000549451215L824.4600390625,130.50000549451215L826.0205312500001,130.50000549451215L828.1011875,130.50000549451215L828.6213515625,130.50000549451215L830.1818437500001,130.50000549451215L833.8229921875,130.50000549451215L834.34315625,130.50000549451215L834.8633203125,130.50000549451215L838.50446875,130.50000549451215L840.5851250000001,130.50000549451215L843.1859453125,130.50000549451215L844.2262734375,130.50000549451215L846.3069296875,130.50000549451215L847.867421875,130.50000549451215L850.9884062499999,130.50000549451215L854.109390625,130.50000549451215L855.1497187499999,130.50000549451215L856.7102109375,130.50000549451215L857.230375,130.50000549451215L857.7505390625,130.50000549451215L858.270703125,130.50000549451215L859.3110312499999,130.50000549451215L860.3513593749999,130.50000549451215L860.8715234375001,130.50000549451215L862.432015625,130.50000549451215L862.9521796875,130.50000549451215L866.0731640625,130.50000549451215L868.1538203125,130.50000549451215L870.754640625,130.50000549451215L871.2748046875,130.50000549451215L871.79496875,130.50000549451215L873.875625,130.50000549451215L875.4361171875,130.50000549451215L878.0369375,130.50000549451215L879.5974296875,130.50000549451215L882.19825,130.50000549451215L882.7184140625001,130.50000549451215L884.27890625,130.50000549451215L886.3595624999999,130.50000549451215L888.44021875,130.50000549451215L891.0410390625001,130.50000549451215L893.641859375,130.50000549451215L894.6821874999999,130.50000549451215L896.2426796875001,130.50000549451215L896.76284375,130.50000549451215L897.803171875,130.50000549451215L901.4443203125,130.50000549451215L906.6459609375,130.50000549451215L908.206453125,130.50000549451215L911.3274375,130.50000549451215L914.448421875,130.50000549451215L916.529078125,130.50000549451215L917.0492421875,130.50000549451215L917.56940625,130.50000549451215L918.0895703125,130.50000549451215L918.609734375,130.50000549451215L922.2508828125,130.50000549451215L922.771046875,130.50000549451215L924.851703125,130.50000549451215L927.4525234375,130.50000549451215L927.9726875,130.50000549451215L930.0533437500001,130.50000549451215L931.6138359375,130.50000549451215L933.6944921874999,130.50000549451215L944.0977734375,130.50000549451215L946.1784296874999,130.50000549451215L951.3800703124999,130.50000549451215L953.980890625,130.50000549451215L955.02121875,130.50000549451215L955.5413828124999,130.50000549451215L956.0615468750001,130.50000549451215L956.5817109375,130.50000549451215L960.7430234375,130.50000549451215L961.7833515625,130.50000549451215L963.8640078125,130.50000549451215L964.9043359375,130.50000549451215L965.4245000000001,130.50000549451215L966.464828125,130.50000549451215L966.9849921875,130.50000549451215L973.2269609375,130.50000549451215L973.7471250000001,130.50000549451215L974.7874531250001,130.50000549451215L978.4286015625,130.50000549451215L980.5092578125,130.50000549451215L982.06975,130.50000549451215L984.15040625,130.50000549451215L986.2310625,130.50000549451215L986.7512265625,130.50000549451215L988.31171875,130.50000549451215L991.9528671875,130.50000549451215L992.47303125,130.50000549451215L992.9931953125,130.50000549451215L994.0335234375,130.50000549451215L995.0738515625001,130.50000549451215L995.594015625,130.50000549451215L1001.835984375,130.50000549451215L1004.95696875,130.50000549451215L1006.5174609375,130.50000549451215L1007.0376249999999,130.50000549451215L1008.5981171875001,130.50000549451215L1012.239265625,130.50000549451215L1013.7997578125,130.50000549451215L1014.319921875,130.50000549451215L1014.8400859375,130.50000549451215L1019.5215625,130.50000549451215L1021.0820546875001,130.50000549451215L1021.60221875,130.50000549451215L1022.642546875,130.50000549451215L1024.2030390625,130.50000549451215L1024.723203125,130.50000549451215L1025.2433671875,130.50000549451215L1026.803859375,130.50000549451215L1028.884515625,130.50000549451215L1031.4853359375,130.50000549451215L1036.6869765625001,130.50000549451215L1037.207140625,130.50000549451215L1037.7273046875,130.50000549451215L1039.8079609375,130.50000549451215L1040.328125,130.50000549451215L1040.8482890625,130.50000549451215L1045.0096015625,130.50000549451215L1051.7717343749998,130.50000549451215L1053.3322265625,130.50000549451215L1055.4128828125,130.50000549451215L1057.4935390624998,130.50000549451215L1058.5338671875002,130.50000549451215L1060.0943593749998,130.50000549451215L1060.6145234375,130.50000549451215L1063.21534375,130.50000549451215L1063.7355078125,130.50000549451215L1065.8161640624999,130.50000549451215L1067.37665625,130.50000549451215L1068.4169843749999,130.50000549451215L1071.5379687500001,130.50000549451215L1073.618625,130.50000549451215L1075.69928125,130.50000549451215L1077.7799375,130.50000549451215L1079.3404296875,130.50000549451215L1080.3807578125,130.50000549451215L1083.5017421875,130.50000549451215L1084.02190625,130.50000549451215L1084.5420703125,130.50000549451215L1085.062234375,130.50000549451215L1087.6630546875,130.50000549451215L1088.1832187500002,130.50000549451215L1088.7033828125,130.50000549451215L1092.34453125,130.50000549451215L1093.384859375,130.50000549451215L1094.9453515625,130.50000549451215L1095.9856796875001,130.50000549451215L1096.50584375,130.50000549451215L1097.0260078125,130.50000549451215L1097.546171875,130.50000549451215L1100.66715625,130.50000549451215L1102.7478125,130.50000549451215L1103.2679765625,130.50000549451215L1103.7881406249999,130.50000549451215L1104.3083046875001,130.50000549451215L1106.9091250000001,130.50000549451215L1111.0704375,130.50000549451215L1111.5906015625,130.50000549451215L1113.6712578125,130.50000549451215L1114.7115859374999,130.50000549451215L1117.31240625,130.50000549451215L1118.8728984375,130.50000549451215L1119.3930625,130.50000549451215L1125.1148671874998,130.50000549451215L1130.3165078125,130.50000549451215L1131.3568359375,130.50000549451215L1132.917328125,130.50000549451215L1134.997984375,130.50000549451215L1135.5181484374998,130.50000549451215L1136.0383125,130.50000549451215L1137.5988046875,130.50000549451215L1139.1592968749999,130.50000549451215L1141.239953125,130.50000549451215L1143.320609375,130.50000549451215L1144.2569046875,130.50000549451215L1146.9617578125,130.50000549451215L1148.0020859375,130.50000549451215L1152.6835625,130.50000549451215L1154.76421875,130.50000549451215L1156.3247109375,130.50000549451215L1156.844875,130.50000549451215L1157.885203125,130.50000549451215L1158.4053671875,130.50000549451215L1159.4456953125,130.50000549451215L1161.5263515625,130.50000549451215L1162.5666796875,130.50000549451215L1166.207828125,130.50000549451215L1167.2481562500002,130.50000549451215L1167.7683203125,130.50000549451215L1169.3288125000001,130.50000549451215L1174.0102890625,130.50000549451215L1176.611109375,130.50000549451215L1177.1312734374999,130.50000549451215L1177.6514375,130.50000549451215L1180.2522578125001,130.50000549451215L1181.2925859375,130.50000549451215L1184.4135703125,130.50000549451215L1185.9740625,130.50000549451215L1186.4942265625,130.50000549451215L1187.5345546874998,130.50000549451215L1188.5748828125002,130.50000549451215L1189.6152109375,130.50000549451215L1192.21603125,130.50000549451215L1194.2966875,130.50000549451215L1195.8571796874999,130.50000549451215L1198.9781640625001,130.50000549451215L1199.498328125,130.50000549451215L1200.0184921875,130.50000549451215L1201.5789843750001,130.50000549451215L1204.1798046874999,130.50000549451215L1207.3007890625001,130.50000549451215L1207.820953125,130.50000549451215L1213.02259375,130.50000549451215L1213.5427578125,130.50000549451215L1215.6234140625002,130.50000549451215L1216.143578125,130.50000549451215L1216.6637421875,130.50000549451215L1218.2242343750002,130.50000549451215L1219.2645625,130.50000549451215L1220.8250546875,130.50000549451215L1222.385546875,130.50000549451215L1223.9460390625002,130.50000549451215L1226.0266953125001,130.50000549451215L1226.546859375,130.50000549451215L1227.0670234375,130.50000549451215L1227.5871875,130.50000549451215L1228.1073515625,130.50000549451215L1229.1476796875,130.50000549451215L1229.66784375,130.50000549451215L1230.1880078125,130.50000549451215L1234.869484375,130.50000549451215L1235.9098125,130.50000549451215L1236.9501406250001,130.50000549451215L1240.071125,130.50000549451215L1240.5912890625,130.50000549451215L1242.1517812499999,130.50000549451215L1255.676046875,130.50000549451215L1257.756703125,130.50000549451215L1258.2768671875,130.50000549451215L1260.3575234375,130.50000549451215L1261.3978515625,130.50000549451215L1262.95834375,130.50000549451215L1265.039,130.50000549451215L1265.5591640624998,130.50000549451215L1267.6398203125,130.50000549451215L1269.2003124999999,130.50000549451215L1271.28096875,130.50000549451215L1274.9221171875001,130.50000549451215L1275.44228125,130.50000549451215L1275.9624453125,130.50000549451215L1281.68425,130.50000549451215L1282.2044140624998,130.50000549451215L1283.2447421875002,130.50000549451215L1285.3253984375,130.50000549451215L1287.92621875,130.50000549451215L1290.5270390624999,130.50000549451215L1291.5673671875,130.50000549451215L1292.08753125,130.50000549451215L1293.127859375,130.50000549451215L1294.1681875,130.50000549451215L1296.24884375,130.50000549451215L1297.2891718750002,130.50000549451215L1297.8093359375,130.50000549451215L1298.8496640624999,130.50000549451215L1300.41015625,130.50000549451215L1301.4504843749999,130.50000549451215L1303.5311406249998,130.50000549451215L1304.0513046875,130.50000549451215L1306.1319609375,130.50000549451215L1306.652125,130.50000549451215L1308.73278125,130.50000549451215L1309.2529453125,130.50000549451215L1310.8134375,130.50000549451215L1311.3336015625,130.50000549451215L1312.89409375,130.50000549451215L1317.05540625,130.50000549451215L1317.5755703124998,130.50000549451215L1319.1360625,130.50000549451215L1321.21671875,130.50000549451215L1324.337703125,130.50000549451215L1329.53934375,130.50000549451215L1331.0998359375,130.50000549451215L1334.740984375,130.50000549451215L1338.3821328125,130.50000549451215L1344.1039375,130.50000549451215L1345.144265625,130.50000549451215L1347.7450859375,130.50000549451215L1350.34590625,130.50000549451215L1351.386234375,130.50000549451215L1352.4265625,130.50000549451215L1355.5475468749999,130.50000549451215L1356.587875,130.50000549451215L1357.1080390625,130.50000549451215L1358.1483671875,130.50000549451215L1358.6685312500001,130.50000549451215L1361.789515625,130.50000549451215L1363.8701718749999,130.50000549451215L1364.9105,130.50000549451215L1369.5919765625,130.50000549451215L1371.15246875,130.50000549451215L1372.7129609375,130.50000549451215L1373.7532890625,130.50000549451215L1378.9549296875,130.50000549451215L1380.515421875,130.50000549451215L1381.0355859375,130.50000549451215L1384.1565703125,130.50000549451215L1385.7170625,130.50000549451215L1390.3985390625,130.50000549451215L1392.4791953125,130.50000549451215L1392.999359375,130.50000549451215L1398.7211640625,130.50000549451215L1402.8824765625,130.50000549451215L1405.483296875,130.50000549451215L1406.0034609375,130.50000549451215L1408.60428125,130.50000549451215L1411.2051015625,130.50000549451215L1412.76559375,130.50000549451215L1415.3664140625,130.50000549451215L1418.4873984375,130.50000549451215L1419.5277265625,130.50000549451215L1421.0882187500001,130.50000549451215L1423.6890390625001,130.50000549451215L1424.7293671875,130.50000549451215L1425.24953125,130.50000549451215L1425.7696953125,130.50000549451215L1426.8100234375,130.50000549451215L1429.9310078125,130.50000549451215L1430.451171875,130.50000549451215L1432.531828125,130.50000549451215L1433.5721562499998,130.50000549451215L1438.2536328125,130.50000549451215L1439.8141249999999,130.50000549451215L1440.854453125,130.50000549451215L1443.4552734375,130.50000549451215L1446.5762578125,130.50000549451215L1449.177078125,130.50000549451215L1450.2174062499998,130.50000549451215L1451.257734375,130.50000549451215L1451.7778984375,130.50000549451215L1453.338390625,130.50000549451215L1453.8585546875,130.50000549451215L1460.6206874999998,130.50000549451215L1462.1811796875,130.50000549451215L1468.9433124999998,130.50000549451215L1470.5038046875,130.50000549451215L1472.5844609375,130.50000549451215L1473.104625,130.50000549451215L1474.6651171875,130.50000549451215L1475.7054453125002,130.50000549451215L1476.225609375,130.50000549451215L1479.34659375,130.50000549451215L1482.467578125,130.50000549451215L1486.628890625,130.50000549451215L1487.66921875,130.50000549451215L1488.1893828125,130.50000549451215L1490.2700390625,130.50000549451215L1492.3506953125002,130.50000549451215L1493.3910234375,130.50000549451215L1494.4313515625001,130.50000549451215L1498.0725,130.50000549451215L1498.5926640624998,130.50000549451215L1500.6733203125,130.50000549451215L1502.7539765625,130.50000549451215L1505.3547968750001,130.50000549451215L1505.8749609375,130.50000549451215L1506.395125,130.50000549451215L1507.9556171875,130.50000549451215L1508.9959453125,130.50000549451215L1509.516109375,130.50000549451215L1510.5564375,130.50000549451215L1511.596765625,130.50000549451215L1513.1572578125,130.50000549451215L1514.1975859375,130.50000549451215L1515.2379140624998,130.50000549451215L1515.758078125,130.50000549451215L1516.2782421875,130.50000549451215L1517.3185703125,130.50000549451215L1518.3588984375,130.50000549451215L1520.9597187499999,130.50000549451215L1522.0000468750002,130.50000549451215L1522.5202109375,130.50000549451215L1526.161359375,130.50000549451215L1527.2016875,130.50000549451215L1528.242015625,130.50000549451215L1528.7621796875,130.50000549451215L1534.483984375,130.50000549451215L1540.2057890625,130.50000549451215L1540.7259531250002,130.50000549451215L1541.76628125,130.50000549451215L1545.4074296875,130.50000549451215L1546.4477578125,130.50000549451215L1546.967921875,130.50000549451215L1549.5687421875,130.50000549451215L1550.08890625,130.50000549451215L1550.6090703124999,130.50000549451215L1552.1695625,130.50000549451215L1552.6897265625,144.99999721560744L1554.25021875,144.99999721560744L1557.3712031250002,144.99999721560744L1557.8913671875,144.99999721560744L1558.9316953124999,144.99999721560744L1559.9720234375,144.99999721560744L1561.0123515625,144.99999721560744L1561.5325156249999,144.99999721560744L1567.2543203124999,144.99999721560744L1567.774484375,144.99999721560744L1568.2946484375,144.99999721560744L1572.4559609375,144.99999721560744L1572.976125,144.99999721560744L1575.5769453125,144.99999721560744L1576.097109375,144.99999721560744L1576.6172734375,144.99999721560744L1577.1374375,144.99999721560744L1578.177765625,144.99999721560744L1578.6979296875002,144.99999721560744L1579.21809375,144.99999721560744L1580.7785859375,144.99999721560744L1586.500390625,144.99999721560744L1589.621375,144.99999721560744L1590.6617031249998,144.99999721560744L1594.823015625,144.99999721560744L1595.3431796875002,144.99999721560744L1595.86334375,144.99999721560744L1596.9036718749999,144.99999721560744L1600.5448203125,144.99999721560744L1602.1053125,144.99999721560744L1603.145640625,144.99999721560744L1604.7061328125,144.99999721560744L1605.7464609375002,144.99999721560744L1606.7867890625,144.99999721560744L1611.468265625,144.99999721560744L1611.9884296875,144.99999721560744L1612.50859375,144.99999721560744L1613.548921875,144.99999721560744L1614.58925,144.99999721560744L1615.6295781249999,144.99999721560744L1616.66990625,144.99999721560744L1617.1900703125,144.99999721560744L1619.2707265625,144.99999721560744L1619.790890625,144.99999721560744L1620.3110546875,144.99999721560744L1622.911875,144.99999721560744L1623.4320390625,144.99999721560744L1624.4723671875001,144.99999721560744L1625.5126953125,144.99999721560744L1626.032859375,144.99999721560744L1628.113515625,144.99999721560744L1628.6336796874998,144.99999721560744L1630.7143359375,144.99999721560744L1631.2345,144.99999721560744L1631.7546640625,144.99999721560744L1632.2748281249999,144.99999721560744L1633.31515625,144.99999721560744L1633.8353203125,144.99999721560744L1634.355484375,144.99999721560744L1637.9966328125,144.99999721560744L1638.516796875,144.99999721560744L1639.0369609375,144.99999721560744L1641.63778125,144.99999721560744L1642.1579453125,144.99999721560744L1644.2386015625,144.99999721560744L1645.79909375,144.99999721560744L1647.3595859375,144.99999721560744L1648.3999140625,144.99999721560744L1649.4402421875,144.99999721560744L1650.4805703125,144.99999721560744L1651.0007343749999,144.99999721560744L1651.5208984375,144.99999721560744L1654.1217187500001,144.99999721560744L1654.6418828125,144.99999721560744L1660.8838515625,144.99999721560744L1661.9241796874999,144.99999721560744L1665.565328125,144.99999721560744L1668.6863125,144.99999721560744L1669.2064765625,144.99999721560744L1674.92828125,144.99999721560744L1675.4484453125,144.99999721560744L1680.129921875,144.99999721560744L1681.1702500000001,144.99999721560744L1682.210578125,144.99999721560744L1682.7307421875,144.99999721560744L1683.7710703125001,144.99999721560744L1684.8113984375,144.99999721560744L1685.3315625,144.99999721560744L1686.8920546875,144.99999721560744L1688.9727109374999,144.99999721560744L1689.4928750000001,144.99999721560744L1692.0936953125001,144.99999721560744L1693.1340234375,144.99999721560744L1694.1743515625,144.99999721560744L1694.694515625,144.99999721560744L1696.775171875,144.99999721560744L1697.8155,144.99999721560744L1699.3759921875,144.99999721560744L1703.5373046875,144.99999721560744L1704.5776328125,144.99999721560744L1705.097796875,144.99999721560744L1706.138125,144.99999721560744L1708.7389453125002,144.99999721560744L1709.7792734375,144.99999721560744L1710.8196015625,144.99999721560744L1711.8599296875,144.99999721560744L1713.9405859375,144.99999721560744L1716.0212421874999,144.99999721560744L1716.54140625,144.99999721560744L1720.1825546875,144.99999721560744L1720.7027187499998,144.99999721560744L1721.7430468750001,144.99999721560744L1722.2632109375,144.99999721560744L1723.823703125,144.99999721560744L1724.86403125,144.99999721560744L1725.3841953125002,144.99999721560744L1725.904359375,144.99999721560744L1726.9446874999999,144.99999721560744L1730.0656718750001,144.99999721560744L1732.146328125,144.99999721560744L1732.6664921875,144.99999721560744L1739.9487890625,144.99999721560744L1741.50928125,144.99999721560744L1743.0697734375,144.99999721560744L1744.630265625,144.99999721560744L1746.710921875,144.99999721560744L1748.2714140625,144.99999721560744L1748.7915781250001,144.99999721560744L1749.3117421875,144.99999721560744L1752.4327265625002,144.99999721560744L1755.033546875,144.99999721560744L1755.5537109375,144.99999721560744L1756.073875,144.99999721560744L1758.15453125,144.99999721560744L1759.194859375,144.99999721560744L1759.7150234375,144.99999721560744L1762.8360078125,144.99999721560744L1764.3965,144.99999721560744L1765.4368281250001,144.99999721560744L1765.9569921875,144.99999721560744L1766.9973203124998,144.99999721560744L1767.517484375,144.99999721560744L1768.4537796875,144.99999721560744L1769.598140625,144.99999721560744L1771.1586328125,144.99999721560744L1775.3199453124998,144.99999721560744L1775.840109375,144.99999721560744L1778.4409296875,144.99999721560744L1780.5215859375,144.99999721560744L1781.0417499999999,144.99999721560744L1783.6425703124999,144.99999721560744L1789.8845390625,144.99999721560744L1790.4047031250002,144.99999721560744L1790.9248671875,144.99999721560744L1791.44503125,144.99999721560744L1791.9651953124999,144.99999721560744L1794.566015625,144.99999721560744L1796.646671875,144.99999721560744L1800.2878203125,144.99999721560744L1801.3281484375,144.99999721560744L1801.8483125,144.99999721560744L1804.4491328125,144.99999721560744L1806.009625,144.99999721560744L1808.6104453125,144.99999721560744L1809.1306093750002,144.99999721560744L1809.6507734375,144.99999721560744L1810.1709375,144.99999721560744L1810.6911015624999,144.99999721560744L1812.7717578125,144.99999721560744L1814.8524140625,144.99999721560744L1815.8927421875,144.99999721560744L1817.4532343750002,144.99999721560744L1819.5338906250001,144.99999721560744L1820.0540546875,144.99999721560744L1820.57421875,144.99999721560744L1821.6145468749999,144.99999721560744L1823.6952031249998,144.99999721560744L1824.2153671875,144.99999721560744L1825.2556953125,144.99999721560744L1825.775859375,144.99999721560744L1827.856515625,144.99999721560744L1828.3766796875,144.99999721560744L1828.89684375,144.99999721560744L1831.4976640625,144.99999721560744L1832.0178281249998,144.99999721560744L1832.5379921875,144.99999721560744L1837.7396328124998,144.99999721560744L1838.259796875,144.99999721560744L1840.3404531249998,144.99999721560744L1841.38078125,144.99999721560744L1843.9816015625,144.99999721560744L1845.0219296875,144.99999721560744L1846.582421875,144.99999721560744L1847.62275,144.99999721560744L1852.824390625,144.99999721560744L1854.3848828124999,144.99999721560744L1855.945375,144.99999721560744L1858.02603125,144.99999721560744L1858.5461953125,144.99999721560744L1860.1066875000001,144.99999721560744L1860.6268515625,144.99999721560744" style="fill: none;" fill="none"></path></g></g></g></g></g></g><g transform="translate(72, 377)" clip-path="url(#clip_1)"><clipPath id="clip_1"><rect width="2080" height="23"></rect></clipPath><g><g><line x1="0" y1="0" x2="0" y2="5" style="visibility: inherit;" fill="rgb(0, 0, 0)" stroke="rgb(204, 204, 204)" stroke-width="1px"></line><line x1="208.065625" y1="0" x2="208.065625" y2="5" style="visibility: inherit;" fill="rgb(0, 0, 0)" stroke="rgb(204, 204, 204)" stroke-width="1px"></line><line x1="416.13125" y1="0" x2="416.13125" y2="5" style="visibility: inherit;" fill="rgb(0, 0, 0)" stroke="rgb(204, 204, 204)" stroke-width="1px"></line><line x1="624.196875" y1="0" x2="624.196875" y2="5" style="visibility: inherit;" fill="rgb(0, 0, 0)" stroke="rgb(204, 204, 204)" stroke-width="1px"></line><line x1="832.2625" y1="0" x2="832.2625" y2="5" style="visibility: inherit;" fill="rgb(0, 0, 0)" stroke="rgb(204, 204, 204)" stroke-width="1px"></line><line x1="1040.328125" y1="0" x2="1040.328125" y2="5" style="visibility: inherit;" fill="rgb(0, 0, 0)" stroke="rgb(204, 204, 204)" stroke-width="1px"></line><line x1="1248.39375" y1="0" x2="1248.39375" y2="5" style="visibility: inherit;" fill="rgb(0, 0, 0)" stroke="rgb(204, 204, 204)" stroke-width="1px"></line><line x1="1456.459375" y1="0" x2="1456.459375" y2="5" style="visibility: inherit;" fill="rgb(0, 0, 0)" stroke="rgb(204, 204, 204)" stroke-width="1px"></line><line x1="1664.525" y1="0" x2="1664.525" y2="5" style="visibility: inherit;" fill="rgb(0, 0, 0)" stroke="rgb(204, 204, 204)" stroke-width="1px"></line><line x1="1872.590625" y1="0" x2="1872.590625" y2="5" style="visibility: inherit;" fill="rgb(0, 0, 0)" stroke="rgb(204, 204, 204)" stroke-width="1px"></line><line x1="2080.65625" y1="0" x2="2080.65625" y2="5" style="visibility: inherit;" fill="rgb(0, 0, 0)" stroke="rgb(204, 204, 204)" stroke-width="1px"></line></g><g transform="translate(0, 8)"><text x="0" y="0" dx="0em" dy="0.95em" style="text-anchor: middle; visibility: hidden; font-family: Roboto, sans-serif; font-size: 12px; font-weight: 200;" fill="rgb(255, 255, 255)" stroke="none" stroke-width="1px">-2k</text><text x="208.065625" y="0" dx="0em" dy="0.95em" style="text-anchor: middle; visibility: inherit; font-family: Roboto, sans-serif; font-size: 12px; font-weight: 200;" fill="rgb(255, 255, 255)" stroke="none" stroke-width="1px">0</text><text x="416.13125" y="0" dx="0em" dy="0.95em" style="text-anchor: middle; visibility: inherit; font-family: Roboto, sans-serif; font-size: 12px; font-weight: 200;" fill="rgb(255, 255, 255)" stroke="none" stroke-width="1px">2k</text><text x="624.196875" y="0" dx="0em" dy="0.95em" style="text-anchor: middle; visibility: inherit; font-family: Roboto, sans-serif; font-size: 12px; font-weight: 200;" fill="rgb(255, 255, 255)" stroke="none" stroke-width="1px">4k</text><text x="832.2625" y="0" dx="0em" dy="0.95em" style="text-anchor: middle; visibility: inherit; font-family: Roboto, sans-serif; font-size: 12px; font-weight: 200;" fill="rgb(255, 255, 255)" stroke="none" stroke-width="1px">6k</text><text x="1040.328125" y="0" dx="0em" dy="0.95em" style="text-anchor: middle; visibility: inherit; font-family: Roboto, sans-serif; font-size: 12px; font-weight: 200;" fill="rgb(255, 255, 255)" stroke="none" stroke-width="1px">8k</text><text x="1248.39375" y="0" dx="0em" dy="0.95em" style="text-anchor: middle; visibility: inherit; font-family: Roboto, sans-serif; font-size: 12px; font-weight: 200;" fill="rgb(255, 255, 255)" stroke="none" stroke-width="1px">10k</text><text x="1456.459375" y="0" dx="0em" dy="0.95em" style="text-anchor: middle; visibility: inherit; font-family: Roboto, sans-serif; font-size: 12px; font-weight: 200;" fill="rgb(255, 255, 255)" stroke="none" stroke-width="1px">12k</text><text x="1664.525" y="0" dx="0em" dy="0.95em" style="text-anchor: middle; visibility: inherit; font-family: Roboto, sans-serif; font-size: 12px; font-weight: 200;" fill="rgb(255, 255, 255)" stroke="none" stroke-width="1px">14k</text><text x="1872.590625" y="0" dx="0em" dy="0.95em" style="text-anchor: middle; visibility: inherit; font-family: Roboto, sans-serif; font-size: 12px; font-weight: 200;" fill="rgb(255, 255, 255)" stroke="none" stroke-width="1px">16k</text><text x="2080.65625" y="0" dx="0em" dy="0.95em" style="text-anchor: middle; visibility: hidden; font-family: Roboto, sans-serif; font-size: 12px; font-weight: 200;" fill="rgb(255, 255, 255)" stroke="none" stroke-width="1px">18k</text></g><line x1="0" y1="0" x2="2080.65625" y2="0" fill="rgb(0, 0, 0)" stroke="rgb(204, 204, 204)" stroke-width="1px"></line></g></g></g></g></svg>