<svg viewBox="0 0 1283 400" xmlns="http://www.w3.org/2000/svg"><g><g><g><g><g><line x1="20.390625" y1="301.9403557999847" x2="15.390625" y2="301.9403557999847" style="visibility: inherit;" fill="rgb(0, 0, 0)" stroke="rgb(204, 204, 204)" stroke-width="1px"></line><line x1="20.390625" y1="228.74787550325092" x2="15.390625" y2="228.74787550325092" style="visibility: inherit;" fill="rgb(0, 0, 0)" stroke="rgb(204, 204, 204)" stroke-width="1px"></line><line x1="20.390625" y1="171.97537715563143" x2="15.390625" y2="171.97537715563143" style="visibility: inherit;" fill="rgb(0, 0, 0)" stroke="rgb(204, 204, 204)" stroke-width="1px"></line><line x1="20.390625" y1="125.58886846712753" x2="15.390625" y2="125.58886846712753" style="visibility: inherit;" fill="rgb(0, 0, 0)" stroke="rgb(204, 204, 204)" stroke-width="1px"></line><line x1="20.390625" y1="86.36963419288948" x2="15.390625" y2="86.36963419288948" style="visibility: inherit;" fill="rgb(0, 0, 0)" stroke="rgb(204, 204, 204)" stroke-width="1px"></line><line x1="20.390625" y1="52.396388170393855" x2="15.390625" y2="52.396388170393855" style="visibility: inherit;" fill="rgb(0, 0, 0)" stroke="rgb(204, 204, 204)" stroke-width="1px"></line><line x1="20.390625" y1="22.42986143100408" x2="15.390625" y2="22.42986143100408" style="visibility: inherit;" fill="rgb(0, 0, 0)" stroke="rgb(204, 204, 204)" stroke-width="1px"></line></g><g transform="translate(10.390625, 0)"><text x="0" y="301.9403557999847" dx="0em" dy="0.3em" style="text-anchor: end; visibility: inherit; font-family: Roboto, sans-serif; font-size: 12px; font-weight: 200;" fill="rgb(255, 255, 255)" stroke="none" stroke-width="1px">3</text><text x="0" y="228.74787550325092" dx="0em" dy="0.3em" style="text-anchor: end; visibility: inherit; font-family: Roboto, sans-serif; font-size: 12px; font-weight: 200;" fill="rgb(255, 255, 255)" stroke="none" stroke-width="1px">4</text><text x="0" y="171.97537715563143" dx="0em" dy="0.3em" style="text-anchor: end; visibility: inherit; font-family: Roboto, sans-serif; font-size: 12px; font-weight: 200;" fill="rgb(255, 255, 255)" stroke="none" stroke-width="1px">5</text><text x="0" y="125.58886846712753" dx="0em" dy="0.3em" style="text-anchor: end; visibility: inherit; font-family: Roboto, sans-serif; font-size: 12px; font-weight: 200;" fill="rgb(255, 255, 255)" stroke="none" stroke-width="1px">6</text><text x="0" y="86.36963419288948" dx="0em" dy="0.3em" style="text-anchor: end; visibility: inherit; font-family: Roboto, sans-serif; font-size: 12px; font-weight: 200;" fill="rgb(255, 255, 255)" stroke="none" stroke-width="1px">7</text><text x="0" y="52.396388170393855" dx="0em" dy="0.3em" style="text-anchor: end; visibility: inherit; font-family: Roboto, sans-serif; font-size: 12px; font-weight: 200;" fill="rgb(255, 255, 255)" stroke="none" stroke-width="1px">8</text><text x="0" y="22.42986143100408" dx="0em" dy="0.3em" style="text-anchor: end; visibility: inherit; font-family: Roboto, sans-serif; font-size: 12px; font-weight: 200;" fill="rgb(255, 255, 255)" stroke="none" stroke-width="1px">9</text></g><line x1="20.390625" y1="0" x2="20.390625" y2="377" fill="rgb(0, 0, 0)" stroke="rgb(204, 204, 204)" stroke-width="1px"></line></g></g><g transform="translate(20, 0)" clip-path="url(#clip_0)"><clipPath id="clip_0"><rect width="1262" height="377"></rect></clipPath><g><g><g><line x1="0" y1="0" x2="0" y2="377" fill="rgb(0, 0, 0)" stroke="rgb(189, 189, 189)" stroke-width="1px" opacity="0.25"></line><line x1="157.826171875" y1="0" x2="157.826171875" y2="377" fill="rgb(0, 0, 0)" stroke="rgb(189, 189, 189)" stroke-width="1px" opacity="0.25"></line><line x1="315.65234375" y1="0" x2="315.65234375" y2="377" fill="rgb(0, 0, 0)" stroke="rgb(189, 189, 189)" stroke-width="1px" opacity="0.25"></line><line x1="473.478515625" y1="0" x2="473.478515625" y2="377" fill="rgb(0, 0, 0)" stroke="rgb(189, 189, 189)" stroke-width="1px" opacity="0.25"></line><line x1="631.3046875" y1="0" x2="631.3046875" y2="377" fill="rgb(0, 0, 0)" stroke="rgb(189, 189, 189)" stroke-width="1px" opacity="0.25"></line><line x1="789.130859375" y1="0" x2="789.130859375" y2="377" fill="rgb(0, 0, 0)" stroke="rgb(189, 189, 189)" stroke-width="1px" opacity="0.25"></line><line x1="946.95703125" y1="0" x2="946.95703125" y2="377" fill="rgb(0, 0, 0)" stroke="rgb(189, 189, 189)" stroke-width="1px" opacity="0.25"></line><line x1="1104.783203125" y1="0" x2="1104.783203125" y2="377" fill="rgb(0, 0, 0)" stroke="rgb(189, 189, 189)" stroke-width="1px" opacity="0.25"></line><line x1="1262.609375" y1="0" x2="1262.609375" y2="377" fill="rgb(0, 0, 0)" stroke="rgb(189, 189, 189)" stroke-width="1px" opacity="0.25"></line></g><g><line x1="0" y1="301.9403557999847" x2="1262.609375" y2="301.9403557999847" fill="rgb(0, 0, 0)" stroke="rgb(189, 189, 189)" stroke-width="1px" opacity="0.25"></line><line x1="0" y1="228.74787550325092" x2="1262.609375" y2="228.74787550325092" fill="rgb(0, 0, 0)" stroke="rgb(189, 189, 189)" stroke-width="1px" opacity="0.25"></line><line x1="0" y1="171.97537715563143" x2="1262.609375" y2="171.97537715563143" fill="rgb(0, 0, 0)" stroke="rgb(189, 189, 189)" stroke-width="1px" opacity="0.25"></line><line x1="0" y1="125.58886846712753" x2="1262.609375" y2="125.58886846712753" fill="rgb(0, 0, 0)" stroke="rgb(189, 189, 189)" stroke-width="1px" opacity="0.25"></line><line x1="0" y1="86.36963419288948" x2="1262.609375" y2="86.36963419288948" fill="rgb(0, 0, 0)" stroke="rgb(189, 189, 189)" stroke-width="1px" opacity="0.25"></line><line x1="0" y1="52.396388170393855" x2="1262.609375" y2="52.396388170393855" fill="rgb(0, 0, 0)" stroke="rgb(189, 189, 189)" stroke-width="1px" opacity="0.25"></line><line x1="0" y1="22.42986143100408" x2="1262.609375" y2="22.42986143100408" fill="rgb(0, 0, 0)" stroke="rgb(189, 189, 189)" stroke-width="1px" opacity="0.25"></line></g></g></g><g><g><line x1="157.826171875" y1="0" x2="157.826171875" y2="377" fill="rgb(0, 0, 0)" stroke="rgb(153, 153, 153)" stroke-width="1.5px"></line></g></g><g><g><g><g><g><path stroke="rgb(238, 51, 119)" stroke-width="2px" d="M157.826171875,74.57674155208701L159.40443359375,103.91014995233692L160.9826953125,113.80122549432978L162.56095703125,121.71223505667855L164.13921875,130.2444118719382L165.71748046875,136.89545528964393L167.2957421875,135.45792756006998L168.87400390625,144.28913318615463L170.45226562500002,153.07770150442084L172.03052734375,152.7957174484169L173.60878906250002,158.57174442248436L175.18705078125,163.18976398563865L176.76531250000002,164.64900940155636L178.34357421874998,168.27975184203999L179.9218359375,181.60059492017487L181.50009765624998,179.4561311067377L183.078359375,185.27977646675163L184.65662109374998,192.41698299401367L186.2348828125,206.6680894785232L187.81314453125,207.60789545333998L189.39140625,209.46763305960675L190.96966796875,211.8025668928335L192.5479296875,229.41268736134552L194.12619140625,231.80238018888056L195.704453125,224.40820109681698L197.28271484375,234.10422722114797L198.8609765625,228.29705937982482L200.43923828125,224.91371673156266L202.0175,230.13233100689453L203.59576171875,243.4376094006918L205.1740234375,247.2629136084758L206.75228515625,231.6605570701148L208.330546875,224.56736825355463L209.90880859375002,228.39249063764092L211.4870703125,247.5412130976871L213.06533203125002,247.2801634091339L214.64359375,246.14923503057693L216.22185546875002,258.19198271157495L217.80011718749998,266.2895295987691L219.37837890625,273.4548492211132L220.95664062499998,268.9319469084335L222.53490234375,254.33189203186777L224.11316406249998,238.2657272175512L225.69142578125,235.6945937798467L227.2696875,246.5614039071662L228.84794921875,255.90681645463894L230.4262109375,258.26273625748587L232.00447265625,249.116957373155L233.582734375,250.82908900979027L235.16099609375,251.3551087582164L236.7392578125,252.26233403606284L238.31751953125,257.44991099038106L239.89578125,255.06565564653678L241.47404296875,246.3583745856162L243.0523046875,260.6754789217321L244.63056640625,246.82205999829577L246.208828125,251.49240365505815L247.78708984375,251.61392107635595L249.36535156250002,263.6787769509875L250.94361328125,269.4077646176001L252.52187500000002,263.73636031754097L254.10013671875,263.1486351777663L255.67839843750002,270.67206651685433L257.25666015625,278.44255823385697L258.83492187499996,273.0524789029067L260.41318359375,264.1166852842877L261.9914453125,260.9326421884832L263.56970703125,267.0519473020556L265.14796875,271.88174625880947L266.72623046875,268.0354592840141L268.3044921875,257.9888800767024L269.88275390625,260.2488188183956L271.461015625,256.8021175831302L273.03927734375,260.79899659096407L274.6175390625,273.8292457895664L276.19580078125,270.34748069812275L277.7740625,274.6706434435279L279.35232421875,278.39554432264896L280.9305859375,274.41361527087327L282.50884765625,273.42133838233786L284.087109375,275.33150626877693L285.66537109375,262.68672086433253L287.2436328125,275.08223854761474L288.82189453125,274.14389631452565L290.40015625,260.1871182823437L291.97841796875,260.72696362615056L293.55667968750004,250.31098935815425L295.13494140625,251.88486759667472L296.713203125,272.1344618244383L298.29146484374996,281.97079382437107L299.8697265625,275.16127660505634L301.44798828125,280.51994093760436L303.02625,276.6801528269206L304.60451171875,285.0161145406648L306.1827734375,284.7578093683973L307.76103515625,277.7415576423203L309.339296875,283.55218793242204L310.91755859375,275.8913386758528L312.4958203125,270.41828979702456L314.07408203125,262.33972336022447L315.65234375,272.44960185777046L317.23060546874996,287.44013284242453L318.8088671875,273.27428198531203L320.38712890625,272.4731277265388L321.965390625,275.66886114365235L323.54365234374995,274.7161801055807L325.1219140625,283.7209243340045L326.70017578125,291.86616525114306L328.2784375,292.36141418221655L329.85669921874995,282.9018937097088L331.4349609375,285.8469442863569L333.01322265625,293.13737695695295L334.591484375,293.6664759405886L336.16974609375,292.62025285877763L337.7480078125,284.3573110740258L339.32626953125,299.18400537102724L340.90453125000005,283.7300110089906L342.48279296875,294.7253558989659L344.0610546875,291.7170836537158L345.63931640625,283.590107188137L347.21757812500005,281.50011651801964L348.79583984375,296.3697971114863L350.3741015625,281.0868311896698L351.95236328125,282.60105783009664L353.53062500000004,301.9392236019392L355.10888671875,292.79532384550964L356.68714843749996,274.50222974037337L358.26541015625,284.5025906285813L359.843671875,277.95998005507215L361.42193359375,294.38421587864366L363.00019531249995,295.6061926033756L364.57845703125,279.5523184459403L366.15671875,282.5858312276516L367.73498046875,294.1268324520866L369.31324218749995,294.5244062504686L370.89150390625,294.47851513197594L372.469765625,289.89041822313885L374.04802734375,284.81932653758633L375.6262890625,279.5054075042844L377.20455078125,289.10519889569315L378.7828125,277.05300986286056L380.36107421875005,275.00105324181595L381.9393359375,292.5842386794794L383.51759765625,287.95175950450226L385.095859375,287.9856727583385L386.67412109375005,279.97102768643526L388.2523828125,277.6140547402149L389.83064453125,289.4434075697462L391.40890625,290.3331851918291L392.98716796875004,294.66837500293184L394.5654296875,280.97654403039155L396.14369140624996,287.16995847225365L397.721953125,286.2819863750471L399.30021484375,279.5074570541951L400.8784765625,269.52206627837023L402.45673828124995,276.67585605597634L404.035,281.30872710210093L405.61326171875,283.8447871577236L407.1915234375,289.3689883369007L408.76978515624995,282.7392621520151L410.348046875,272.36236681023985L411.92630859375,285.00088675783604L413.5045703125,281.66883875499576L415.08283203125,283.36446878954007L416.66109375,278.55039458820164L418.23935546875,274.29906475950617L419.81761718750005,272.8092405178981L421.39587890625,264.33625779894373L422.974140625,274.5910093825061L424.55240234375,273.37186432041335L426.13066406250005,277.12109179110786L427.70892578125,286.6309984968653L429.2871875,274.4239955097988L430.86544921875,265.974611362713L432.44371093750004,266.18194690314095L434.02197265625,282.7232774494999L435.60023437499996,293.8683796780516L437.17849609375,282.7306611268001L438.7567578125,299.8682222564914L440.33501953125,317.7568728585286L441.91328124999995,292.75668952477156L443.49154296875,272.63134705794624L445.0698046875,284.9372988536114L446.64806640625,290.7943521716232L448.22632812499995,283.90323432280627L449.80458984375,281.6990575326451L451.3828515625,273.0408781194988L452.96111328125,284.49247392690813L454.539375,295.688891757055L456.11763671875,284.5898634690842L457.6958984375,281.51619349422685L459.27416015625005,280.9876916838222L460.852421875,284.36261777065755L462.43068359375,280.2821486694595L464.0089453125,276.560018406752L465.58720703125005,285.6019649309683L467.16546875,270.74302306469485L468.74373046875,271.14592306257094L470.3219921875,282.0498279582391L471.90025390625004,287.7143176269279L473.478515625,291.5064069916632L475.05677734374996,292.04771634808117L476.6350390625,288.34346231353874L478.21330078125,287.68614849302173L479.7915625,289.20320234226006L481.36982421874995,290.1023161322389L482.9480859375,291.82193919555993L484.52634765625,279.25156544433975L486.104609375,282.6586489367086L487.68287109374995,279.016483143712L489.2611328125,277.34612240946706L490.83939453125,275.08758716508714L492.41765625,291.8035243298179L493.99591796875,286.26368785717676L495.5741796875,300.96535041731374L497.15244140625,286.4044411536713L498.73070312500005,287.8126617950438L500.30896484375,292.96086434149726L501.8872265625,289.15786583024544L503.46548828125,273.4239564319215L505.04375000000005,282.76816872684105L506.62201171875,277.87176519018817L508.2002734375,268.9979565020171L509.77853515625,274.8661197909946L511.35679687500004,291.61878557689283L512.93505859375,300.22469343236367L514.5133203125,311.4498506262028L516.09158203125,296.56645419905084L517.6698437499999,300.7732839616157L519.24810546875,292.3236597738202L520.8263671875,300.50720157430374L522.40462890625,299.55826245020427L523.982890625,293.2754806475782L525.56115234375,284.66308388195L527.1394140625,282.39716021775297L528.71767578125,293.94043209127506L530.2959375,281.75410149693727L531.87419921875,283.9462810050607L533.4524609375,302.947831766488L535.03072265625,298.3107071772376L536.608984375,302.6962693825036L538.18724609375,312.7387413817894L539.7655078125,301.5832077546087L541.34376953125,310.41903442911575L542.92203125,309.73676623761014L544.50029296875,295.2185259768829L546.0785546875,312.73581489908497L547.6568164062501,305.27669578768234L549.235078125,313.12873904596665L550.81333984375,300.49038191491036L552.3916015625,305.1560153880447L553.96986328125,306.90962241331613L555.548125,306.57113760521L557.1263867187499,301.4421870176145L558.7046484375,285.1058611715666L560.28291015625,292.97081195071075L561.861171875,288.44347030469567L563.43943359375,293.3647500601143L565.0176953125,293.15785707801837L566.59595703125,286.49149244934944L568.17421875,285.5073336464011L569.75248046875,283.25136294039015L571.3307421875,293.3688075230821L572.90900390625,295.4475538987679L574.487265625,296.1289544007697L576.06552734375,290.7355428488927L577.6437890625,287.30753813739074L579.22205078125,291.34272718074783L580.8003125,293.41334250207194L582.37857421875,291.34137702880275L583.9568359375,304.40038345527086L585.53509765625,285.41588937346836L587.1133593750001,278.50074838467776L588.69162109375,297.1976863600856L590.2698828125,281.7600727659504L591.84814453125,287.4661139274366L593.42640625,296.1880896527304L595.00466796875,306.0410756921172L596.5829296874999,310.02831205842136L598.16119140625,297.53654616120684L599.739453125,285.27770419476076L601.31771484375,289.40061718156136L602.8959765625,280.6226344551186L604.47423828125,280.0657521103266L606.0525,281.77778037027286L607.63076171875,279.5689339758253L609.2090234375,290.28028915373216L610.78728515625,291.1907092849646L612.365546875,305.91804775528976L613.94380859375,307.54198016859993L615.5220703125,311.50406492882496L617.10033203125,298.41543900278685L618.67859375,289.4366319697785L620.25685546875,280.4817367470834L621.8351171875,278.2630257353019L623.41337890625,268.669785769497L624.991640625,277.25614732259316L626.5699023437501,271.09370817000126L628.1481640625,270.52715648127213L629.72642578125,290.8435009940461L631.3046875,298.6648213858121L632.88294921875,288.95821136987354L634.4612109374999,281.4931939170967L636.03947265625,293.6553388205529L637.617734375,292.07550561873745L639.19599609375,298.6029014926158L640.7742578125,291.77372270610635L642.3525195312501,299.9460990351858L643.93078125,297.49619578148867L645.50904296875,288.2540492235837L647.0873046874999,288.6032633247973L648.66556640625,293.0161027904031L650.243828125,298.9091435999678L651.82208984375,305.1787512025573L653.4003515625,284.64455232283046L654.9786132812501,273.75128939361616L656.556875,262.3645613362754L658.13513671875,276.504760396654L659.7133984374999,286.6364441570521L661.29166015625,284.9535075262801L662.869921875,286.18957699202036L664.44818359375,294.7094382568628L666.0264453125,295.5584552326412L667.6047070312501,287.9980865949208L669.18296875,282.1055258489512L670.76123046875,286.0993773478762L672.3394921875,267.0949506054057L673.9177539062499,266.5433760216865L675.496015625,279.7380867786713L677.07427734375,286.48404873621774L678.6525390625,271.0533470602681L680.23080078125,269.55335354546094L681.8090625000001,274.19083111066533L683.38732421875,279.32243467734656L684.9655859375,286.6020871445329L686.5438476562499,283.9629443960096L688.122109375,294.5046509815424L689.70037109375,290.8847093813031L691.2786328125,281.03846984943044L692.85689453125,283.7684299051057L694.4351562500001,288.1740210059889L696.01341796875,289.58392756033516L697.5916796875,291.7761572629763L699.1699414062499,299.38350033971375L700.748203125,294.58613016463005L702.32646484375,304.9596286842487L703.9047265625,302.021680600137L705.48298828125,293.1162842552886L707.0612500000001,305.7267974138542L708.63951171875,304.5044824966685L710.2177734375,302.4985815986595L711.79603515625,306.58283889483806L713.3742968749999,294.1568260262411L714.95255859375,292.879764447951L716.5308203125,292.9279504302396L718.10908203125,292.3128370727007L719.68734375,287.94039837113354L721.2656054687501,298.98911684233747L722.8438671875,298.77926794915004L724.42212890625,310.65973182874114L726.0003906249999,304.8844726950061L727.57865234375,293.17682010218897L729.1569140625,298.13534535699927L730.73517578125,292.7376664457676L732.3134375,286.74926045869796L733.8916992187501,286.60469713434657L735.4699609375,300.4810870526676L737.04822265625,303.2065569638721L738.6264843749999,297.38408344213445L740.20474609375,298.00275203782843L741.7830078125,286.55280903094354L743.36126953125,300.3939142108336L744.93953125,308.09365929507L746.5177929687501,304.9619524387328L748.0960546875,294.96465833759305L749.67431640625,296.3128975242637L751.252578125,282.96045925972L752.8308398437499,278.896156985703L754.4091015625,277.8095129753723L755.98736328125,288.0732211560103L757.565625,284.3494587417745L759.14388671875,283.25117866754954L760.7221484375001,285.59831257446575L762.30041015625,282.6593742770383L763.878671875,288.8896518869877L765.4569335937499,295.6412319094549L767.0351953125,297.2212877776623L768.61345703125,293.2639804097378L770.19171875,291.44647316285193L771.76998046875,275.7190838853042L773.3482421875001,290.50251483722514L774.92650390625,278.52545995468995L776.504765625,281.54795140262485L778.0830273437499,278.7620885723397L779.6612890625,283.20292278494753L781.23955078125,288.65757484593394L782.8178125,282.35871051923715L784.39607421875,278.2537120716131L785.9743359375001,287.614243668124L787.55259765625,294.4820383231479L789.130859375,282.87715277320945L790.70912109375,297.92617745544584L792.2873828124999,294.48129419301694L793.86564453125,290.0273524175081L795.44390625,285.989209462452L797.02216796875,290.2929515023623L798.6004296875,294.1956100392809L800.1786914062501,280.06393374083484L801.756953125,263.9911467371491L803.33521484375,272.77828505248476L804.9134765624999,283.3650986356187L806.49173828125,280.22801609140095L808.07,285.905148566107L809.64826171875,293.527799299343L811.2265234375,303.24084200194454L812.8047851562501,314.60308154494055L814.383046875,301.9330565090938L815.96130859375,313.89043866984446L817.5395703124999,302.9131441787896L819.11783203125,310.87137249674043L820.69609375,311.23592477817414L822.27435546875,305.3398216516105L823.8526171875,290.07529918203966L825.4308789062501,284.35250512244556L827.009140625,292.8244860998799L828.58740234375,274.42113887633934L830.1656640625,286.58406667085035L831.7439257812499,276.31805066729976L833.3221875,285.90260602111863L834.90044921875,289.32696202516235L836.4787109375,289.0650575535955L838.05697265625,282.8072310569862L839.6352343750001,278.71038301758466L841.21349609375,273.1992460898073L842.7917578125,270.0308529850546L844.3700195312499,286.3917284137544L845.94828125,281.5971325751588L847.52654296875,286.0904434972897L849.1048046875,314.06121429123243L850.68306640625,320.61001647477167L852.2613281250001,311.01572705386843L853.83958984375,302.84902290312544L855.4178515625,301.9156188716054L856.9961132812499,279.50611450475753L858.574375,275.27892343103144L860.15263671875,273.33352941471827L861.7308984375,284.9452481892674L863.30916015625,297.76442321622363L864.8874218750001,299.4290954729192L866.46568359375,298.2079878683867L868.0439453125,282.0258859442522L869.62220703125,284.82701123874494L871.2004687499999,288.36130484435597L872.77873046875,285.1794650895359L874.3569921875,276.53130220394587L875.93525390625,276.05449802301155L877.513515625,286.45486735923765L879.0917773437501,284.83336015781765L880.6700390625,275.39067366930965L882.24830078125,281.2497938591097L883.8265624999999,280.70114430477304L885.40482421875,287.2278208889288L886.9830859375,288.55182593638403L888.56134765625,283.33307689111723L890.139609375,296.52044602488303L891.7178710937501,286.7261977583688L893.2961328125,281.59331885907295L894.87439453125,290.8536378612907L896.4526562499999,280.5259493068383L898.03091796875,273.9188519516814L899.6091796875,276.7635444711081L901.18744140625,276.9626373113713L902.765703125,279.51396238300373L904.3439648437501,289.7016242066653L905.9222265625,279.4098395227028L907.50048828125,286.4966603728292L909.07875,291.8097585068922L910.6570117187499,282.3536099680223L912.2352734375,278.37943483074264L913.81353515625,276.6165540571196L915.391796875,268.61447366373596L916.97005859375,269.49209603484724L918.5483203125001,277.16619401679054L920.12658203125,279.3500414248548L921.70484375,276.67266151166183L923.2831054687499,276.1817301338141L924.8613671875,270.0621736755498L926.43962890625,282.6944923580699L928.017890625,290.26819022361843L929.59615234375,291.0984647249803L931.1744140625001,291.19090274413315L932.75267578125,285.41795841473987L934.3309375,285.6008715765363L935.9091992187499,296.044292216794L937.4874609375,284.8773152082001L939.06572265625,284.1261156832034L940.643984375,295.74328701192553L942.22224609375,276.55082634801784L943.8005078125001,280.4522219067878L945.37876953125,281.1712937431508L946.95703125,286.44586523239286L948.53529296875,280.7970041983679L950.1135546874999,277.73347222465895L951.69181640625,278.54745026409194L953.270078125,272.5297188547095L954.84833984375,279.3172513090783L956.4266015625,277.828331885918L958.0048632812501,265.98179788822813L959.583125,293.27653237595587L961.16138671875,296.317588704138L962.7396484374999,279.27036623608706L964.31791015625,297.55970685761366L965.896171875,285.16773754120794L967.47443359375,290.125310236998L969.0526953125,308.62005029272876L970.6309570312501,303.03355881383703L972.20921875,294.44773010371296L973.78748046875,293.666806955349L975.3657421874999,289.2109624599067L976.94400390625,270.3610751369795L978.522265625,272.06713055973586L980.10052734375,274.28731114552227L981.6787890625,289.4937702710318L983.2570507812501,285.2941676527122L984.8353125,292.9606572090875L986.41357421875,290.48652595350507L987.9918359375,287.7244819487261L989.5700976562499,300.82218208843113L991.148359375,317.71078393066585L992.72662109375,305.4812486210283L994.3048828125,295.1149983860736L995.88314453125,271.8203497958093L997.4614062500001,273.10025637895825L999.03966796875,272.6048165633979L1000.6179296875,282.75558893885767L1002.1961914062499,273.45189280509334L1003.774453125,275.6047271557233L1005.35271484375,276.627796640737L1006.9309765625,285.32745933448217L1008.50923828125,286.2639389324363L1010.0875000000001,280.321788371372L1011.66576171875,283.21205543573836L1013.2440234375,276.1470940371338L1014.8222851562499,269.2587394796647L1016.400546875,266.49398464167365L1017.97880859375,259.46989310196284L1019.5570703125,273.5952194399747L1021.13533203125,290.57321167447833L1022.7135937500001,289.2244171789628L1024.29185546875,292.8348949032764L1025.8701171875,287.408398381296L1027.44837890625,288.20531099222023L1029.026640625,285.9292171816018L1030.60490234375,285.8510833056135L1032.1831640625,288.8478645538371L1033.76142578125,291.1321053531052L1035.3396874999999,285.49117060942285L1036.91794921875,299.8883987684642L1038.4962109375,288.3847812762565L1040.07447265625,310.86270806985885L1041.652734375,305.9817505402843L1043.23099609375,295.76092459578894L1044.8092578125,301.87601978239417L1046.38751953125,323.1428571428571L1047.96578125,322.5224981791124L1049.54404296875,303.4453880646531L1051.1223046875,287.56762262182417L1052.70056640625,301.26811990269914L1054.278828125,299.5067798632677L1055.8570898437501,311.31115860818966L1057.4353515625,308.01219323396737L1059.01361328125,311.17502537023404L1060.591875,285.86948704242263L1062.17013671875,289.5607901674471L1063.7483984375,278.8562821550687L1065.32666015625,278.56220701104036L1066.904921875,277.6961320285138L1068.48318359375,277.8078837367517L1070.0614453125,275.59142995390744L1071.63970703125,289.3372639960707L1073.21796875,285.43839424408407L1074.7962304687499,284.3557726699698L1076.3744921875,274.8420646592781L1077.95275390625,285.65824950546465L1079.531015625,288.5297323592655L1081.10927734375,300.79369347675856L1082.6875390625,293.5261019969281L1084.26580078125,287.83469453402546L1085.8440625,302.20043404317306L1087.42232421875,303.7257899167538L1089.0005859375,301.18893576059213L1090.57884765625,293.88336834016246L1092.157109375,307.2419652318339L1093.73537109375,287.82959237877594L1095.3136328125001,295.43155882529925L1096.89189453125,299.0447108729128L1098.47015625,290.8125260640767L1100.04841796875,292.55441222429744L1101.6266796875,290.4810358495625L1103.20494140625,286.75305698732296L1104.46755078125,297.9032510434508" style="fill: none;" fill="none"></path></g><g><path stroke="rgb(51, 187, 238)" stroke-width="2px" d="M157.826171875,53.85714285714292L159.40443359375,73.6636404154218L160.9826953125,92.2919365360405L162.56095703125,99.7229377037062L164.13921875,109.53523880320321L165.71748046875,121.89887806310425L167.2957421875,124.10110091718904L168.87400390625,133.26012518910179L170.45226562500002,144.12793108934628L172.03052734375,149.83391289461187L173.60878906250002,153.23894853823037L175.18705078125,160.2166001918998L176.76531250000002,166.04554531036405L178.34357421874998,167.0522090372398L179.9218359375,175.1437729026235L181.50009765624998,176.72247542456765L183.078359375,183.59810929604885L184.65662109374998,189.72605863070345L186.2348828125,202.522881940044L187.81314453125,201.91990759490284L189.39140625,202.9993002653686L190.96966796875,204.48237883813104L192.5479296875,220.9178326323241L194.12619140625,222.1862808926212L195.704453125,214.22919157530293L197.28271484375,222.00618405535295L198.8609765625,215.45241736598737L200.43923828125,213.91039024073206L202.0175,215.47256113967347L203.59576171875,223.44936810158205L205.1740234375,225.69124944887824L206.75228515625,216.52282168385082L208.330546875,208.81889521661904L209.90880859375002,208.10331143623034L211.4870703125,227.60783143769484L213.06533203125002,228.67947113207046L214.64359375,227.85623664291433L216.22185546875002,242.66255247878993L217.80011718749998,251.48182140727056L219.37837890625,261.8941437107941L220.95664062499998,260.5351846609685L222.53490234375,246.53528276755563L224.11316406249998,230.15780339440153L225.69142578125,227.0936398535036L227.2696875,238.6812654019418L228.84794921875,244.1390116724081L230.4262109375,250.49868553181568L232.00447265625,244.1782768477242L233.582734375,245.84538264318815L235.16099609375,248.81240349882242L236.7392578125,253.8493931739106L238.31751953125,260.3322991999145L239.89578125,258.1867056772266L241.47404296875,247.38700367759577L243.0523046875,259.0652263102837L244.63056640625,244.49785127851894L246.208828125,247.6769714283644L247.78708984375,249.67808691443474L249.36535156250002,261.2802741262541L250.94361328125,268.17305621833503L252.52187500000002,264.8412659067438L254.10013671875,262.08861280877545L255.67839843750002,271.70397168767687L257.25666015625,280.0093663719099L258.83492187499996,272.32730994229365L260.41318359375,264.749080616601L261.9914453125,258.6245978149947L263.56970703125,265.2960022689782L265.14796875,270.91160786031605L266.72623046875,270.0635397326909L268.3044921875,260.5605400980726L269.88275390625,261.64977659842276L271.461015625,256.2807517994263L273.03927734375,262.0877186205918L274.6175390625,276.5173434353727L276.19580078125,273.53248109876694L277.7740625,277.32733677148576L279.35232421875,276.6910913681205L280.9305859375,273.42137077295627L282.50884765625,273.6076135544781L284.087109375,276.5897794754379L285.66537109375,261.26729306923L287.2436328125,273.039953077881L288.82189453125,272.6606470465485L290.40015625,257.83946212621976L291.97841796875,259.7929406089975L293.55667968750004,249.12821119318332L295.13494140625,250.44303258090704L296.713203125,270.8580802771402L298.29146484374996,281.311061981855L299.8697265625,279.3462060835953L301.44798828125,281.3630167379841L303.02625,279.21987875882417L304.60451171875,285.32160989625993L306.1827734375,282.865816023182L307.76103515625,277.46173243561526L309.339296875,282.9747116645261L310.91755859375,270.3496606811585L312.4958203125,266.87877415385157L314.07408203125,262.7847841152837L315.65234375,270.16478552132986L317.23060546874996,283.99605120436127L318.8088671875,269.2318274851153L320.38712890625,270.5621816553457L321.965390625,274.9077446890463L323.54365234374995,275.4866795945926L325.1219140625,282.3254509049062L326.70017578125,290.35842068380197L328.2784375,291.93098918927143L329.85669921874995,283.59099042711955L331.4349609375,286.77227756391517L333.01322265625,291.6405701288605L334.591484375,292.47270855791555L336.16974609375,289.55951312964044L337.7480078125,283.4811850493173L339.32626953125,297.2381148446774L340.90453125000005,283.16823101179557L342.48279296875,295.1937386404125L344.0610546875,294.37900869031705L345.63931640625,283.8911143522758L347.21757812500005,278.997952833026L348.79583984375,293.5212621688228L350.3741015625,275.0793271930225L351.95236328125,278.4726980467231L353.53062500000004,298.4037455357072L355.10888671875,289.0007062304136L356.68714843749996,272.3705427653609L358.26541015625,281.4511897033738L359.843671875,276.0570342784189L361.42193359375,293.19503714173743L363.00019531249995,293.67752965457623L364.57845703125,278.78909929762483L366.15671875,281.9847363995524L367.73498046875,293.17084046417426L369.31324218749995,294.70543640420163L370.89150390625,294.5330080378544L372.469765625,288.85565697904576L374.04802734375,283.08375035332955L375.6262890625,280.7143168086352L377.20455078125,289.6328306234279L378.7828125,276.91522327175574L380.36107421875005,275.0781748894505L381.9393359375,291.04398780386737L383.51759765625,285.550598191595L385.095859375,288.2880344829836L386.67412109375005,280.33778486618354L388.2523828125,278.65604647860124L389.83064453125,290.963606006234L391.40890625,292.88522372929566L392.98716796875004,295.4483574915835L394.5654296875,283.40731163671137L396.14369140624996,288.549273041276L397.721953125,283.7160878961193L399.30021484375,277.62418635511693L400.8784765625,268.85858732852296L402.45673828124995,277.3810454404451L404.035,281.7554012980394L405.61326171875,282.04092694848134L407.1915234375,287.5261877784583L408.76978515624995,281.82974157664177L410.348046875,271.2099913552098L411.92630859375,284.4845213474566L413.5045703125,283.85466384915884L415.08283203125,284.31198959298246L416.66109375,279.01385866817077L418.23935546875,274.85959035583585L419.81761718750005,275.58219530695027L421.39587890625,265.16127720432354L422.974140625,275.94671588245717L424.55240234375,274.6433896212487L426.13066406250005,277.37213081769664L427.70892578125,284.874204174855L429.2871875,272.45836217622L430.86544921875,265.89359864081956L432.44371093750004,267.0251937024199L434.02197265625,283.47769770697334L435.60023437499996,294.0550887990064L437.17849609375,281.9551625992663L438.7567578125,299.8459189776806L440.33501953125,312.29006426732656L441.91328124999995,290.75924809210204L443.49154296875,271.8680627607418L445.0698046875,284.6812774339965L446.64806640625,289.40088047515314L448.22632812499995,281.14431630012575L449.80458984375,279.7131426993782L451.3828515625,272.27949844915827L452.96111328125,285.3432726197603L454.539375,297.13816387419234L456.11763671875,286.77206164082L457.6958984375,282.67410101874043L459.27416015625005,282.5979644681162L460.852421875,283.8920257849617L462.43068359375,279.73469283847754L464.0089453125,276.57974072091986L465.58720703125005,284.56840868036517L467.16546875,269.736090506554L468.74373046875,270.2861385900492L470.3219921875,282.2527897367981L471.90025390625004,288.67929351336556L473.478515625,292.19922318800644L475.05677734374996,292.82125689118766L476.6350390625,289.7295497813715L478.21330078125,289.54317547471123L479.7915625,289.1065264635115L481.36982421874995,287.83879741770437L482.9480859375,289.41329890152906L484.52634765625,277.59593774512985L486.104609375,283.0607817273755L487.68287109374995,280.35023804428704L489.2611328125,279.13258719835267L490.83939453125,276.3730193357205L492.41765625,293.35437527478894L493.99591796875,287.7335578781L495.5741796875,303.14599758875323L497.15244140625,288.64600278182314L498.73070312500005,288.55267020689234L500.30896484375,292.9517370858161L501.8872265625,288.3423601224307L503.46548828125,273.45194771611443L505.04375000000005,282.2337807953032L506.62201171875,278.01708440471026L508.2002734375,270.8450457642728L509.77853515625,276.6692312516339L511.35679687500004,291.9886698458728L512.93505859375,300.58086575738486L514.5133203125,311.58295145540274L516.09158203125,295.7859536868293L517.6698437499999,299.2896668482333L519.24810546875,292.24332251948204L520.8263671875,300.097373488432L522.40462890625,297.5291495103757L523.982890625,292.05872795702487L525.56115234375,284.8544813545537L527.1394140625,283.10151029752495L528.71767578125,294.24415509636003L530.2959375,281.8369263733134L531.87419921875,285.28010851843356L533.4524609375,303.9357339356378L535.03072265625,298.56190270012854L536.608984375,303.58671716709284L538.18724609375,313.7081093387697L539.7655078125,302.26874198952163L541.34376953125,312.62555567440717L542.92203125,311.3941872302058L544.50029296875,297.97475159470594L546.0785546875,312.7766332382731L547.6568164062501,305.30022733015204L549.235078125,313.66937690017187L550.81333984375,301.9209879543719L552.3916015625,305.0795530003707L553.96986328125,305.15446343665815L555.548125,307.03570410444627L557.1263867187499,301.2165810739796L558.7046484375,285.5804114008431L560.28291015625,291.3438384374195L561.861171875,287.3403942658412L563.43943359375,293.21668025020955L565.0176953125,292.64386967509927L566.59595703125,285.67651085209985L568.17421875,284.9557658614314L569.75248046875,282.9686183240969L571.3307421875,293.63299121683707L572.90900390625,293.99713500942494L574.487265625,294.03391459704045L576.06552734375,288.7643759697297L577.6437890625,285.92280027919395L579.22205078125,289.77227202190693L580.8003125,292.81650154142017L582.37857421875,291.34603657933457L583.9568359375,304.01497501494555L585.53509765625,284.1797709319997L587.1133593750001,277.8482851791441L588.69162109375,296.95195162794397L590.2698828125,282.5439097689911L591.84814453125,288.131155506544L593.42640625,296.2969571837024L595.00466796875,305.8833111131914L596.5829296874999,308.2755123177082L598.16119140625,296.21314827053965L599.739453125,284.0696993254324L601.31771484375,288.6065000070388L602.8959765625,280.16600286903576L604.47423828125,280.42247810204844L606.0525,282.2134295893673L607.63076171875,280.66805855345694L609.2090234375,291.0921334244607L610.78728515625,290.54125193331384L612.365546875,305.85333077875197L613.94380859375,307.83756015846905L615.5220703125,311.86590554675047L617.10033203125,297.41417874052627L618.67859375,288.8516451531515L620.25685546875,282.41656945636134L621.8351171875,279.89179109035325L623.41337890625,269.2394931657765L624.991640625,278.70108057993644L626.5699023437501,270.6106348682363L628.1481640625,270.9723187629731L629.72642578125,291.89595814901645L631.3046875,297.52634391297966L632.88294921875,287.6272866976232L634.4612109374999,280.0617756620522L636.03947265625,291.1568313544376L637.617734375,290.42447292014475L639.19599609375,298.47474115555804L640.7742578125,290.6669761964642L642.3525195312501,299.4171059888801L643.93078125,296.52248117254817L645.50904296875,287.8800858188297L647.0873046874999,288.83222936904L648.66556640625,293.0535901646952L650.243828125,298.77238721461816L651.82208984375,305.5331592948459L653.4003515625,286.1820312152378L654.9786132812501,274.47177510015797L656.556875,262.64106743979494L658.13513671875,276.7276191724912L659.7133984374999,286.4175184568295L661.29166015625,285.0444318652574L662.869921875,285.93902142653184L664.44818359375,294.9333582813488L666.0264453125,294.77829076513734L667.6047070312501,286.56382536016554L669.18296875,281.0981751920235L670.76123046875,286.2762658642891L672.3394921875,267.88967167194227L673.9177539062499,268.1280190141996L675.496015625,281.0129085194639L677.07427734375,287.19744378220634L678.6525390625,272.406620366505L680.23080078125,270.9922172264147L681.8090625000001,275.4770998178184L683.38732421875,279.041221914969L684.9655859375,286.86809166512296L686.5438476562499,284.65114428699576L688.122109375,294.96013246162704L689.70037109375,291.04523974446585L691.2786328125,280.82567402829227L692.85689453125,283.451257598605L694.4351562500001,287.0063672738829L696.01341796875,288.47338582630607L697.5916796875,292.3682296828797L699.1699414062499,300.2985272346622L700.748203125,293.6081547209203L702.32646484375,303.9379727644284L703.9047265625,301.75304104495484L705.48298828125,292.3890676528474L707.0612500000001,304.9136774065717L708.63951171875,302.97073536806226L710.2177734375,301.1309007532985L711.79603515625,305.20269525989676L713.3742968749999,294.4248186779755L714.95255859375,293.6378870232624L716.5308203125,292.68048319705366L718.10908203125,293.0275622021008L719.68734375,287.70534854672246L721.2656054687501,300.5550984312895L722.8438671875,299.0181554215632L724.42212890625,311.178647429966L726.0003906249999,305.2308066754512L727.57865234375,292.38016962829624L729.1569140625,297.8531602418282L730.73517578125,293.0920129875561L732.3134375,286.74478669277283L733.8916992187501,287.0741861950379L735.4699609375,301.0425549961274L737.04822265625,301.6814054411507L738.6264843749999,295.8808368115415L740.20474609375,296.52078842866075L741.7830078125,285.68796326766704L743.36126953125,299.1430409738316L744.93953125,306.5094316307084L746.5177929687501,303.2429964233524L748.0960546875,292.8384033351816L749.67431640625,293.64779274250196L751.252578125,280.2955477880011L752.8308398437499,277.7199587749302L754.4091015625,277.7026988116229L755.98736328125,288.5870801725512L757.565625,283.34291509851874L759.14388671875,282.5806412279222L760.7221484375001,285.50031144072165L762.30041015625,281.9839236973585L763.878671875,287.15844273414393L765.4569335937499,295.3707594251796L767.0351953125,297.02055030570506L768.61345703125,293.4334897843859L770.19171875,290.99084982234433L771.76998046875,274.86011696568494L773.3482421875001,289.36426442946953L774.92650390625,277.2252494781058L776.504765625,279.82558748765877L778.0830273437499,277.86055317184474L779.6612890625,282.06447788323067L781.23955078125,287.4351697764646L782.8178125,281.27900235991575L784.39607421875,277.3063882061845L785.9743359375001,287.3869585555741L787.55259765625,294.3072602424386L789.130859375,283.41297424809767L790.70912109375,297.9391273398556L792.2873828124999,295.4488921464863L793.86564453125,289.93499966395154L795.44390625,284.6895682828288L797.02216796875,289.9571671631724L798.6004296875,294.7630731845319L800.1786914062501,280.59834958230454L801.756953125,263.64682859149735L803.33521484375,272.83374372821095L804.9134765624999,283.00361788241486L806.49173828125,281.0629699978033L808.07,286.80688380851046L809.64826171875,294.90560908240894L811.2265234375,304.57374054574655L812.8047851562501,315.43798112727166L814.383046875,303.0357671622999L815.96130859375,314.3680200689265L817.5395703124999,302.1183431335881L819.11783203125,308.3042653371481L820.69609375,309.5821962090548L822.27435546875,305.27351596540655L823.8526171875,290.434071106194L825.4308789062501,283.42458532472494L827.009140625,291.5046105509652L828.58740234375,274.7531340850383L830.1656640625,287.03758894467836L831.7439257812499,277.1008407146807L833.3221875,287.268577563741L834.90044921875,288.88030356212727L836.4787109375,288.90501053247124L838.05697265625,283.6267165119988L839.6352343750001,279.13058493385864L841.21349609375,274.03591147859316L842.7917578125,270.49574536778533L844.3700195312499,285.3939152108121L845.94828125,280.8350261061003L847.52654296875,285.5656215219727L849.1048046875,312.99555440658054L850.68306640625,320.38331308162276L852.2613281250001,310.60933981844795L853.83958984375,303.6140680956662L855.4178515625,302.01468098176184L856.9961132812499,282.27879055288525L858.574375,276.96069512089355L860.15263671875,274.121129938818L861.7308984375,285.41173005292336L863.30916015625,298.21106110818073L864.8874218750001,300.6229435954113L866.46568359375,298.86709313609225L868.0439453125,283.647300002165L869.62220703125,286.1784773952536L871.2004687499999,288.85311485310024L872.77873046875,285.65688929967166L874.3569921875,276.11838894912063L875.93525390625,275.1443446020815L877.513515625,286.5179360257154L879.0917773437501,283.40924304599264L880.6700390625,274.582667999028L882.24830078125,281.41380554090057L883.8265624999999,281.02919459162155L885.40482421875,287.6741207340064L886.9830859375,288.36937997614814L888.56134765625,282.383803279584L890.139609375,295.87911793509284L891.7178710937501,285.26232412825846L893.2961328125,280.9966440332991L894.87439453125,291.05668834611515L896.4526562499999,279.6780954978916L898.03091796875,273.6621783581342L899.6091796875,277.0217537696215L901.18744140625,276.49572752853226L902.765703125,279.10394624150683L904.3439648437501,290.089651053168L905.9222265625,279.58530176296944L907.50048828125,286.806229353274L909.07875,292.3228132009191L910.6570117187499,283.1637454469799L912.2352734375,277.6894194085721L913.81353515625,276.8750994297262L915.391796875,268.6768950238292L916.97005859375,269.2222754891556L918.5483203125001,277.5671086982257L920.12658203125,279.3081141202402L921.70484375,276.9452551231552L923.2831054687499,276.73203921273023L924.8613671875,271.2118545722024L926.43962890625,282.9091675906482L928.017890625,291.3103828994845L929.59615234375,291.78347151045716L931.1744140625001,291.9274156341459L932.75267578125,286.3550676015203L934.3309375,286.25700700071553L935.9091992187499,296.1502994808726L937.4874609375,284.65889447162346L939.06572265625,283.7172419661392L940.643984375,295.01675950414085L942.22224609375,275.35573294801117L943.8005078125001,279.7549839704477L945.37876953125,280.9217772536554L946.95703125,284.9214497033613L948.53529296875,279.4838288974662L950.1135546874999,277.444206788804L951.69181640625,276.62764829708135L953.270078125,271.33713160375805L954.84833984375,277.9074526181163L956.4266015625,276.30940941334427L958.0048632812501,264.62837945292875L959.583125,292.5452339291097L961.16138671875,296.1620412600071L962.7396484374999,278.88354373173985L964.31791015625,296.9048662470052L965.896171875,285.46002278494007L967.47443359375,290.2074255443662L969.0526953125,307.9817511222467L970.6309570312501,301.8886372449975L972.20921875,294.07217967517016L973.78748046875,294.4301894572988L975.3657421874999,289.49980363066237L976.94400390625,271.84743691954213L978.522265625,273.4043414529693L980.10052734375,274.48469313715475L981.6787890625,289.95196673467507L983.2570507812501,286.33109572667973L984.8353125,293.54856568734397L986.41357421875,291.5204035080229L987.9918359375,288.92940944193043L989.5700976562499,301.5617886174676L991.148359375,318.41216497133786L992.72662109375,306.35241862350546L994.3048828125,295.6274740318473L995.88314453125,270.2166051396378L997.4614062500001,271.87963562766294L999.03966796875,271.4810109338077L1000.6179296875,282.4086087179813L1002.1961914062499,274.0121085664958L1003.774453125,276.9752317453058L1005.35271484375,277.4404920600531L1006.9309765625,285.8393985095133L1008.50923828125,286.26756930606155L1010.0875000000001,280.80594243765296L1011.66576171875,284.58365957189795L1013.2440234375,277.7342903374136L1014.8222851562499,270.4741032002118L1016.400546875,266.7828384745743L1017.97880859375,259.6593902258492L1019.5570703125,272.48179500062287L1021.13533203125,289.31865371194726L1022.7135937500001,288.98414517322203L1024.29185546875,291.96887786565406L1025.8701171875,287.0410791875864L1027.44837890625,288.0402966824092L1029.026640625,286.0330694509747L1030.60490234375,285.9202229627167L1032.1831640625,289.91098547796673L1033.76142578125,290.55618286616345L1035.3396874999999,285.85932253201327L1036.91794921875,300.4968154574923L1038.4962109375,288.8875844296105L1040.07447265625,310.9025109261333L1041.652734375,306.14882541193884L1043.23099609375,294.39516032023505L1044.8092578125,302.04059618989737L1046.38751953125,323.046483232633L1047.96578125,322.5997398035613L1049.54404296875,303.65275567973083L1051.1223046875,286.7002918895954L1052.70056640625,300.8753127190178L1054.278828125,299.35062318112267L1055.8570898437501,310.70624810608257L1057.4353515625,307.2236327140368L1059.01361328125,310.63421507879605L1060.591875,285.65749061097625L1062.17013671875,289.7116081846613L1063.7483984375,279.5381037473285L1065.32666015625,279.44303179079577L1066.904921875,278.6187636965296L1068.48318359375,278.7633688262206L1070.0614453125,276.57542064942146L1071.63970703125,290.9872537350486L1073.21796875,286.97298560019806L1074.7962304687499,285.3432424865013L1076.3744921875,275.4496106642608L1077.95275390625,285.78239586035966L1079.531015625,289.7637213235761L1081.10927734375,302.30423819810045L1082.6875390625,294.89921565017545L1084.26580078125,289.36895319026604L1085.8440625,303.2123139302659L1087.42232421875,304.2517672183498L1089.0005859375,301.04685144821826L1090.57884765625,293.09010095107016L1092.157109375,306.7801600525593L1093.73537109375,287.5017003269107L1095.3136328125001,295.4024441628778L1096.89189453125,298.9494437716164L1098.47015625,290.44226411376064L1100.04841796875,291.09801524365446L1101.6266796875,289.6205402296734L1103.20494140625,286.10012884986634L1104.46755078125,298.54761302351756" style="fill: none;" fill="none"></path></g></g></g></g><g opacity="0.2"><g><g><g><path stroke="rgb(238, 51, 119)" stroke-width="2px" d="M157.826171875,74.57674155208701L159.40443359375,125.50830612737023L160.9826953125,125.2456297990554L162.56095703125,133.25965816638137L164.13921875,144.53618365268542L165.71748046875,148.8483487707018L167.2957421875,132.86228671076594L168.87400390625,161.75227305991342L170.45226562500002,170.82292649665257L172.03052734375,152.24882459741107L173.60878906250002,170.2865519976208L175.18705078125,172.5459178850578L176.76531250000002,167.5615072516614L178.34357421874998,175.63985835104538L179.9218359375,210.3420425459115L181.50009765624998,175.242677149583L183.078359375,197.28747096083458L184.65662109374998,207.2604545795707L186.2348828125,237.69358097874607L187.81314453125,209.4914694977501L189.39140625,213.2159376152952L190.96966796875,216.52247602338437L192.5479296875,268.64115017250316L194.12619140625,236.63509733314012L195.704453125,210.27696408612675L197.28271484375,254.61562735806274L198.8609765625,217.09903252849995L200.43923828125,218.2988085197391L202.0175,240.86903971670515L203.59576171875,272.24534784976834L205.1740234375,255.06667443148407L206.75228515625,203.14369526704374L208.330546875,210.9877762541735L209.90880859375002,236.19590020503864L211.4870703125,290.65225809619903L213.06533203125002,246.76042573366493L214.64359375,243.90904738028578L216.22185546875002,284.05374345779876L217.80011718749998,283.2487097377575L219.37837890625,288.3747172369541L220.95664062499998,260.14636847087223L222.53490234375,227.50426036040815L224.11316406249998,208.97306970264844L225.69142578125,230.6440052500555L227.2696875,269.7222995465024L228.84794921875,275.6335312436454L230.4262109375,263.0266092226929L232.00447265625,231.80652759202255L233.582734375,254.27788280271605L235.16099609375,252.40725603421288L236.7392578125,254.08106641630172L238.31751953125,268.1208630795104L239.89578125,250.3770968808096L241.47404296875,229.83786467626962L243.0523046875,291.8802299555808L244.63056640625,221.26453602783934L246.208828125,261.06912496083515L247.78708984375,251.85640165799683L249.36535156250002,289.5917193235192L250.94361328125,281.2315610902272L252.52187500000002,252.7914564932282L254.10013671875,261.9807414266065L255.67839843750002,286.372516131972L257.25666015625,294.6835703722815L258.83492187499996,262.633909131412L260.41318359375,247.18405178448987L261.9914453125,254.70015039228412L263.56970703125,279.7116442042872L265.14796875,281.79506411023294L266.72623046875,260.5352448243951L268.3044921875,239.06761290449202L269.88275390625,264.81598614007197L271.461015625,250.06567241308315L273.03927734375,268.96129359052344L274.6175390625,301.99125361773037L276.19580078125,263.54387444773175L277.7740625,283.5167588428981L279.35232421875,285.98990402908765L280.9305859375,266.6549264598878L282.50884765625,271.4542041714592L284.087109375,279.1837553802903L285.66537109375,239.20675082199494L287.2436328125,301.76232388868755L288.82189453125,272.2830982157771L290.40015625,234.45316786221414L291.97841796875,261.80685311075007L293.55667968750004,230.73373430006953L295.13494140625,255.05256499786697L296.713203125,318.0710223752648L298.29146484374996,302.79834346493726L299.8697265625,262.10398282224133L301.44798828125,291.55436614086904L303.02625,269.19233241015974L304.60451171875,302.50069128467163L306.1827734375,284.2435272659147L307.76103515625,264.3034376724759L309.339296875,295.5504965833384L310.91755859375,261.2714243026695L312.4958203125,259.8443175807871L314.07408203125,246.95848297517202L315.65234375,293.8935496073805L317.23060546874996,320.2580323216094L318.8088671875,247.18405178448987L320.38712890625,270.883107946043L321.965390625,282.1635763595043L323.54365234374995,272.8271054680964L325.1219140625,302.68775787444906L326.70017578125,308.93032570032864L328.2784375,293.35183352395245L329.85669921874995,265.0286157778413L331.4349609375,291.82317316514633L333.01322265625,308.32956019500494L334.591484375,294.7248015680045L336.16974609375,290.5468267600944L337.7480078125,268.64115017250316L339.32626953125,331.60810876029444L340.90453125000005,255.46198921476778L342.48279296875,318.17947170193975L344.0610546875,285.8226872533549L345.63931640625,268.1208630795104L347.21757812500005,277.3832096670628L348.79583984375,328.8971384023653L350.3741015625,253.10625415759515L351.95236328125,285.64761473365985L353.53062500000004,345.533438490279L355.10888671875,275.4882709571583L356.68714843749996,241.53700506056737L358.26541015625,305.6994971672444L359.843671875,265.39565938511316L361.42193359375,330.68540649552284L363.00019531249995,298.0604895584493L364.57845703125,250.28016694583377L366.15671875,288.7448472090481L367.73498046875,318.83116184308807L369.31324218749995,295.31903252509153L370.89150390625,294.38703239368533L372.469765625,280.9815112227052L374.04802734375,274.99958148005555L375.6262890625,269.2296146718861L377.20455078125,309.40147157859985L378.7828125,254.60154291528565L380.36107421875005,270.95817521732744L381.9393359375,331.75110538301874L383.51759765625,278.9589473752286L385.095859375,288.0533096894973L386.67412109375005,264.7060611292027L388.2523828125,272.9784142286463L389.83064453125,314.8119898433132L391.40890625,292.1167556109346L392.98716796875004,303.5397484091742L394.5654296875,255.69522811315244L396.14369140624996,299.9888231983722L397.721953125,284.5205571994125L399.30021484375,266.51470166363987L400.8784765625,250.70971580706032L402.45673828124995,291.57065233474316L404.035,290.80644208135743L405.61326171875,288.97845536281625L407.1915234375,300.75582278742667L408.76978515624995,270.0138781753604L410.348046875,252.85438487367782L411.92630859375,312.24685947430737L413.5045703125,275.15218817029984L415.08283203125,286.7796872267396L416.66109375,269.2147153348934L418.23935546875,266.0282009431663L419.81761718750005,269.8643039035002L421.39587890625,248.23938590660762L422.974140625,296.3622831247969L424.55240234375,270.95817521732744L426.13066406250005,284.7661733292597L427.70892578125,306.7258073727907L429.2871875,251.7032024262572L430.86544921875,249.9204691493447L432.44371093750004,266.59588150347093L434.02197265625,319.3119510063874L435.60023437499996,317.66474323983135L437.17849609375,261.8792892540911L438.7567578125,337.92784662484837L440.33501953125,357.68664878422953L441.91328124999995,249.2232542637209L443.49154296875,236.70726492540769L445.0698046875,311.4092622264059L446.64806640625,302.8919690572732L448.22632812499995,270.6955187282069L449.80458984375,277.3600964850908L451.3828515625,256.609058861384L452.96111328125,308.9913513541816L454.539375,319.602681757983L456.11763671875,263.80653962236545L457.6958984375,275.4959247185602L459.27416015625005,279.93711857596037L460.852421875,291.22891915981376L462.43068359375,272.3359365418489L464.0089453125,269.2967436274106L465.58720703125005,304.65162073763304L467.16546875,243.477337056269L468.74373046875,271.95122006192435L470.3219921875,305.2952965135556L471.90025390625004,299.40037292409977L473.478515625,299.2408935621817L475.05677734374996,293.1305437610724L476.6350390625,281.11433009463144L478.21330078125,286.3805044342168L479.7915625,292.2554988000803L481.36982421874995,291.9047006673058L482.9480859375,295.2859777865265L484.52634765625,255.9003840528907L486.104609375,289.5917193235192L487.68287109374995,271.90599012290915L489.2611328125,274.047785474744L490.83939453125,270.64301995368703L492.41765625,328.82173072008925L493.99591796875,275.5647277920811L495.5741796875,333.08950863999667L497.15244140625,259.6431493574724L498.73070312500005,290.644153881139L500.30896484375,303.5482739895092L501.8872265625,281.7402245496315L503.46548828125,244.6866012134898L505.04375000000005,302.4922007357418L506.62201171875,268.38087362884403L508.2002734375,252.17701061124046L509.77853515625,286.98751158652334L511.35679687500004,328.7274744553723L512.93505859375,318.3060579642845L514.5133203125,335.4294394804949L516.09158203125,269.25945152820236L517.6698437499999,309.375279688907L519.24810546875,276.26908286525054L520.8263671875,317.65570975252933L522.40462890625,297.67656651873926L523.982890625,281.19247808948836L525.56115234375,268.31400357528355L527.1394140625,277.9382441048635L528.71767578125,318.6499824925572L530.2959375,259.06924571562774L531.87419921875,288.3747172369541L533.4524609375,345.684482333872L535.03072265625,289.3091152901597L536.608984375,311.67346994414015L538.18724609375,334.0305978887934L539.7655078125,280.7005125115996L541.34376953125,329.01030309336693L542.92203125,308.3817525107588L544.50029296875,268.52957807585574L546.0785546875,351.7385222796062L547.6568164062501,291.0257187326454L549.235078125,329.5485520034673L550.81333984375,277.0215336072574L552.3916015625,314.7228038724235L553.96986328125,310.44283426786865L555.548125,305.8975361153819L557.1263867187499,291.513664920491L558.7046484375,255.36310291978518L560.28291015625,309.41894127742125L561.861171875,279.6494903847502L563.43943359375,303.4714726827626L565.0176953125,292.74581153033756L566.59595703125,273.69841656079507L568.17421875,283.5562005522093L569.75248046875,278.8117765539907L571.3307421875,314.8298350438114L572.90900390625,299.64399750861804L574.487265625,297.4931471073793L576.06552734375,280.3107290011925L577.6437890625,280.6069151994537L579.22205078125,299.5851729749933L580.8003125,297.5931686312398L582.37857421875,287.259550049786L583.9568359375,332.62982414580745L585.53509765625,251.32758419981516L587.1133593750001,265.2487748929762L588.69162109375,339.16175813023796L590.2698828125,253.51955944520842L591.84814453125,299.2408935621817L593.42640625,314.5266792210301L595.00466796875,326.9060912561548L596.5829296874999,318.17044147199164L598.16119140625,274.3215278339803L599.739453125,262.4668283435639L601.31771484375,297.8267317457027L602.8959765625,263.9745028221283L604.47423828125,278.9589473752286L606.0525,285.2263638165276L607.63076171875,275.22089833751625L609.2090234375,313.0872022159508L610.78728515625,293.01588098924765L612.365546875,338.10376039277054L613.94380859375,310.8113940720133L615.5220703125,319.59360087311126L617.10033203125,274.1694184280865L618.67859375,272.42653949523014L620.25685546875,263.51470036547664L621.8351171875,273.89582148343965L623.41337890625,250.55720528929132L624.991640625,295.29423121944075L626.5699023437501,259.2341093946867L628.1481640625,269.40119771125006L629.72642578125,336.95279016026063L631.3046875,315.01725332835485L632.88294921875,270.64301995368703L634.4612109374999,267.2314178375523L636.03947265625,319.79365045446957L637.617734375,288.95428369042384L639.19599609375,312.14088815190377L640.7742578125,278.6801724342316L642.3525195312501,317.0700139688247L643.93078125,292.68037148047955L645.50904296875,270.77053066336373L647.0873046874999,289.3010345058444L648.66556640625,302.05063716303897L650.243828125,311.0837841560781L651.82208984375,318.16141156254383L653.4003515625,248.06776550027143L654.9786132812501,253.3303437705772L656.556875,241.0759162251609L658.13513671875,307.2881418647332L659.7133984374999,308.1296198553543L661.29166015625,281.6305808770654L662.869921875,288.672386424478L664.44818359375,312.6003530831156L666.0264453125,297.25990973930215L667.6047070312501,273.561834327529L669.18296875,270.7480283378607L670.76123046875,294.25534205767605L672.3394921875,232.97438621477247L673.9177539062499,265.4470863703609L675.496015625,308.28608514097976L677.07427734375,300.49426309037L678.6525390625,242.82444245293087L680.23080078125,266.588490849472L681.8090625000001,283.6982564113632L683.38732421875,289.874637614458L684.9655859375,301.7707901146744L686.5438476562499,278.7807982384231L688.122109375,316.9260683935878L689.70037109375,283.81670318967866L691.2786328125,262.47408291657587L692.85689453125,289.3010345058444L694.4351562500001,297.19331825033123L696.01341796875,292.4188379010798L697.5916796875,296.20469622208003L699.1699414062499,315.2673593291409L700.748203125,285.2819600554348L702.32646484375,326.999652720965L703.9047265625,296.26274423989554L705.48298828125,276.23841258721467L707.0612500000001,332.90745800560643L708.63951171875,302.0845623908574L710.2177734375,298.5453893162982L711.79603515625,314.9279953871174L713.3742968749999,271.0557922123346L714.95255859375,290.35226482293837L716.5308203125,293.0240611065872L718.10908203125,291.09071513847937L719.68734375,279.4397985697664L721.2656054687501,322.56513400198304L722.8438671875,298.3613427028282L724.42212890625,336.14631446797034L726.0003906249999,293.7456873115549L727.57865234375,271.32635044428605L729.1569140625,308.3208728830996L730.73517578125,282.30485655766216L732.3134375,275.21327104842095L733.8916992187501,286.3166810991746L735.4699609375,330.6379388271516L737.04822265625,308.72991286965777L738.6264843749999,286.15723077921285L740.20474609375,299.2408935621817L741.7830078125,265.15334280258344L743.36126953125,330.4671330358233L744.93953125,324.1797083481936L746.5177929687501,298.83005807201755L748.0960546875,276.13111398984233L749.67431640625,299.0228194633237L751.252578125,258.2608306967098L752.8308398437499,270.98069613779154L754.4091015625,275.65648809793845L755.98736328125,309.86475136974235L757.565625,277.0830669953008L759.14388671875,281.07524646926487L760.7221484375001,290.34417015793355L762.30041015625,276.89852978412665L763.878671875,301.78774361934325L765.4569335937499,309.6636014113934L767.0351953125,300.4015356327884L768.61345703125,285.55218000205815L770.19171875,287.86064457037105L771.76998046875,246.9926452402649L773.3482421875001,322.8227748314798L774.92650390625,256.20486406467353L776.504765625,287.684183665448L778.0830273437499,273.2964775121854L779.6612890625,292.29631887850104L781.23955078125,299.8962596813299L782.8178125,270.2458752586254L784.39607421875,270.26085295872963L785.9743359375001,307.3747589306016L787.55259765625,308.7560384016395L789.130859375,261.2063795091389L790.70912109375,330.8848810612951L792.2873828124999,287.7483318921356L793.86564453125,281.3723245442258L795.44390625,278.12351884827433L797.02216796875,299.0982893455724L798.6004296875,302.1609461121838L800.1786914062501,254.03188610019455L801.756953125,234.68744006396852L803.33521484375,291.2614509473339L804.9134765624999,305.8889314487859L806.49173828125,274.0857861284443L808.07,297.61819506669514L809.64826171875,309.44513766255534L811.2265234375,323.7912803128346L812.8047851562501,338.89685763542127L814.383046875,278.40942609641553L815.96130859375,339.55475092098936L817.5395703124999,282.3441108239722L819.11783203125,327.5242694820014L820.69609375,311.9644093733243L822.27435546875,293.9757237646013L823.8526171875,262.1257507244027L825.4308789062501,273.3116358865405L827.009140625,310.6095155053937L828.58740234375,241.27628627033397L830.1656640625,312.72419302531466L831.7439257812499,257.0067793287777L833.3221875,306.16471303912544L834.90044921875,296.29590635738816L836.4787109375,288.54362031750713L838.05697265625,270.77053066336373L839.6352343750001,270.73302193128217L841.21349609375,262.55398347374415L842.7917578125,263.8284362807504L844.3700195312499,322.5375513595817L845.94828125,272.29819633150265L847.52654296875,295.29423121944075L849.1048046875,381.12812703075025L850.68306640625,334.1941963972188L852.2613281250001,292.9012698704204L853.83958984375,287.3075937841334L855.4178515625,300.06456014592317L856.9961132812499,239.9700601188005L858.574375,267.05388721335265L860.15263671875,269.4982368310904L861.7308984375,309.81225397292025L863.30916015625,325.43226193266514L864.8874218750001,302.7813427732938L866.46568359375,295.7904409569845L868.0439453125,252.53991515380025L869.62220703125,290.5062670588805L871.2004687499999,295.5587586018464L872.77873046875,278.9512071977536L874.3569921875,260.1175813634061L875.93525390625,275.1064038293982L877.513515625,308.55576275953814L879.0917773437501,281.6305808770654L880.6700390625,257.5475464788196L882.24830078125,293.35183352395245L883.8265624999999,279.6106496415973L885.40482421875,300.76425558629956L886.9830859375,291.21265482580884L888.56134765625,273.235871106829L890.139609375,325.0511958130591L891.7178710937501,268.2545546626948L893.2961328125,271.6574139617851L894.87439453125,310.3902383683765L896.4526562499999,261.105235587701L898.03091796875,261.23529008222056L899.6091796875,282.5326418828045L901.18744140625,277.3600964850908L902.765703125,284.67900365466943L904.3439648437501,311.32123993719046L905.9222265625,260.05283085335424L907.50048828125,301.2458918434813L909.07875,302.74730422997385L910.6570117187499,264.4863709388977L912.2352734375,270.63551079660596L913.81353515625,273.13739616732516L915.391796875,253.37237211402382L916.97005859375,271.25117447998565L918.5483203125001,293.1960997177354L920.12658203125,283.7614261841878L921.70484375,271.4165945189662L923.2831054687499,275.20562578524226L924.8613671875,258.282255210632L926.43962890625,309.9260015945498L928.017890625,306.0784863311552L929.59615234375,292.7621741731274L931.1744140625001,291.3753255753196L932.75267578125,274.28349195596314L934.3309375,285.9659956248697L935.9091992187499,318.2427569603071L937.4874609375,263.9745028221283L939.06572265625,282.63480327357814L940.643984375,320.62284187553075L942.22224609375,242.12627129050003L943.8005078125001,288.41491934783255L945.37876953125,282.61122680985284L946.95703125,297.3015407543262L948.53529296875,269.8942152892589L950.1135546874999,271.732710074628L951.69181640625,280.1783474346556L953.270078125,260.9391553567649L954.84833984375,293.41742697832836L956.4266015625,274.8851683232546L958.0048632812501,243.8887996158987L959.583125,358.39501366001014L961.16138671875,302.4922007357418L962.7396484374999,248.3492830970959L964.31791015625,338.4950977387074L965.896171875,262.1257507244027L967.47443359375,300.3088218683678L969.0526953125,350.0730956955564L970.6309570312501,292.24734335575386L972.20921875,278.14668307710207L973.78748046875,292.1167556109346L975.3657421874999,280.5523311153211L976.94400390625,236.4907922648L978.522265625,275.5035604861541L980.10052734375,278.77306347874L981.6787890625,322.831993659609L983.2570507812501,277.1215237514182L984.8353125,308.9739109899105L986.41357421875,285.62375743537757L987.9918359375,282.30485655766216L989.5700976562499,329.1423959654387L991.148359375,355.15475100032495L992.72662109375,282.7212940018391L994.3048828125,275.6258915743944L995.88314453125,230.90686386026215L997.4614062500001,275.671787739639L999.03966796875,271.61977426018245L1000.6179296875,304.2918707183464L1002.1961914062499,255.85791918605196L1003.774453125,279.952659273628L1005.35271484375,278.6801724342316L1006.9309765625,303.6165703319545L1008.50923828125,288.14164336884727L1010.0875000000001,268.87191607771706L1011.66576171875,289.0751842461632L1013.2440234375,262.61937375104077L1014.8222851562499,256.05611546612323L1016.400546875,261.06912496083515L1017.97880859375,246.01734868694004L1019.5570703125,304.343220781122L1021.13533203125,328.2379936738781L1022.7135937500001,286.5560631383094L1024.29185546875,300.1908786768171L1025.8701171875,276.9216010706979L1027.44837890625,289.80185438926134L1029.026640625,281.45055183695234L1030.60490234375,285.69535501154047L1032.1831640625,294.93095948356563L1033.76142578125,295.7490564505652L1035.3396874999999,274.60319199381297L1036.91794921875,331.28432268168297L1038.4962109375,266.8912786448472L1040.07447265625,362.654961085935L1041.652734375,296.51996769627283L1043.23099609375,276.5298930186393L1044.8092578125,314.5266792210301L1046.38751953125,371.7295033872108L1047.96578125,321.2899920228245L1049.54404296875,269.20724821498624L1051.1223046875,258.58960085317796L1052.70056640625,331.00845345108985L1054.278828125,296.0306315907116L1055.8570898437501,336.62211158849846L1057.4353515625,301.5590170435002L1059.01361328125,317.6016015766602L1060.591875,241.87165450518606L1062.17013671875,297.08512192366095L1063.7483984375,258.7684701361629L1065.32666015625,277.9768303515313L1066.904921875,275.9779191677167L1068.48318359375,278.03086461147444L1070.0614453125,271.22861168519216L1071.63970703125,319.1848634009243L1073.21796875,277.83793252911937L1074.7962304687499,282.21066727939984L1076.3744921875,256.8717711768858L1077.95275390625,308.7037900201285L1079.531015625,294.35409851237125L1081.10927734375,327.16816797273145L1082.6875390625,279.6261704099053L1084.26580078125,276.85243012831745L1085.8440625,333.52120273225154L1087.42232421875,306.79494154179713L1089.0005859375,296.20469622208003L1090.57884765625,279.91377222374814L1092.157109375,336.1754358697421L1093.73537109375,253.05025423811458L1095.3136328125001,311.3036601107183L1096.89189453125,306.40626225035805L1098.47015625,275.15218817029984L1100.04841796875,296.06376346571176L1101.6266796875,286.39646276993415L1103.20494140625,279.47861323704427L1104.46755078125,321.71126284833053" style="fill: none;" fill="none"></path></g><g><path stroke="rgb(51, 187, 238)" stroke-width="2px" d="M157.826171875,53.85714285714292L159.40443359375,87.76550636060409L160.9826953125,114.69455188977417L162.56095703125,110.54408796607883L164.13921875,126.08548109257362L165.71748046875,144.85615749920646L167.2957421875,128.15873361467388L168.87400390625,151.4073421700076L170.45226562500002,166.35415761184402L172.03052734375,161.29808155181203L173.60878906250002,160.04719994643656L175.18705078125,174.5580939540773L176.76531250000002,177.98917057837778L178.34357421874998,169.06119500483337L179.9218359375,192.0306085902569L181.50009765624998,179.89278079006345L183.078359375,197.8670726737911L184.65662109374998,202.3913425073885L186.2348828125,230.11908610956252L187.81314453125,200.72234756933227L189.39140625,205.1647477624372L190.96966796875,207.46512529816073L192.5479296875,257.24143936509023L194.12619140625,224.7343942763254L195.704453125,199.06984372856087L197.28271484375,238.26079400186643L198.8609765625,202.86777784094951L200.43923828125,210.8632420947883L202.0175,218.61644038501595L203.59576171875,240.1429474347703L205.1740234375,230.2214117007348L206.75228515625,199.17175157677104L208.330546875,194.12033760348467L209.90880859375002,206.68241081991872L211.4870703125,271.62729457563074L213.06533203125002,230.82990114522087L214.64359375,226.22260682828372L216.22185546875002,275.03772457194395L217.80011718749998,270.03631565961854L219.37837890625,284.02212030056836L220.95664062499998,257.8468812994658L222.53490234375,220.72778181711158L224.11316406249998,200.34659443810415L225.69142578125,221.09166258483015L227.2696875,263.4928306908231L228.84794921875,255.38428479385823L230.4262109375,263.6751644399468L232.00447265625,232.02548580810875L233.582734375,249.2025791453422L235.16099609375,254.83401078064165L236.7392578125,264.201055256469L238.31751953125,273.774319228909L239.89578125,253.96163303245118L241.47404296875,227.13109836144295L243.0523046875,284.0853516968423L244.63056640625,217.72559984232478L246.208828125,254.137276953963L247.78708984375,253.715941770182L249.36535156250002,286.12534510294824L250.94361328125,282.5012072142848L252.52187500000002,258.325109651632L254.10013671875,256.6871213826009L255.67839843750002,292.0351601398764L257.25666015625,297.42649455157687L258.83492187499996,257.6686585348507L260.41318359375,250.28016694583377L261.9914453125,246.8355237625746L263.56970703125,279.14498566720295L265.14796875,282.4933397881324L266.72623046875,268.38087362884403L268.3044921875,242.60941396228552L269.88275390625,263.83574719046726L271.461015625,245.90164045918584L273.03927734375,274.07819279252493L274.6175390625,307.9906226366239L276.19580078125,267.6831652459495L277.7740625,285.0675951425447L279.35232421875,275.42714024639446L280.9305859375,267.02432550483456L282.50884765625,273.97939135178484L284.087109375,282.6426750754637L285.66537109375,233.22024856205084L287.2436328125,298.2777400147967L288.82189453125,271.90599012290915L290.40015625,230.63758851281608L291.97841796875,263.73355276842636L293.55667968750004,229.1106916793422L295.13494140625,253.08526108679712L296.713203125,317.22308032126006L298.29146484374996,303.5312027680954L299.8697265625,275.4729823469359L301.44798828125,285.43292269451075L303.02625,274.99958148005555L304.60451171875,297.94358380551864L306.1827734375,278.03857683983307L307.76103515625,267.01692239471873L309.339296875,294.33763317026325L310.91755859375,246.90383614771508L312.4958203125,260.0960017467227L314.07408203125,254.81285786760156L315.65234375,285.55218000205815L317.23060546874996,314.04595512643954L318.8088671875,242.12627129050003L320.38712890625,273.235871106829L321.965390625,283.8009058442697L323.54365234374995,276.6450300649422L325.1219140625,296.53657488419753L326.70017578125,307.1755672344967L328.2784375,295.0960258594202L329.85669921874995,267.7350567440568L331.4349609375,293.237071000261L333.01322265625,301.63524312210285L334.591484375,294.14017135395113L336.16974609375,283.84828199173074L337.7480078125,271.7779092164179L339.32626953125,327.11197637871265L340.90453125000005,257.24143936509023L342.48279296875,321.01561223827605L344.0610546875,292.7621741731274L345.63931640625,264.1864475007425L347.21757812500005,269.5131705812961L348.79583984375,325.21842501689565L350.3741015625,241.87165450518606L351.95236328125,285.3772934610239L353.53062500000004,343.51824086110855L355.10888671875,271.22861168519216L356.68714843749996,242.13968175888922L358.26541015625,300.5870444684285L359.843671875,265.6308265575863L361.42193359375,331.25575574485424L363.00019531249995,294.6423655051925L364.57845703125,251.47359298751272L366.15671875,288.47925210582L367.73498046875,317.06102303065256L369.31324218749995,297.79334961437115L370.89150390625,294.1895322487524L372.469765625,277.8996453128999L374.04802734375,271.95122006192435L375.6262890625,276.0545050483758L377.20455078125,308.4078423141448L378.7828125,253.3093155004251L380.36107421875005,271.4542041714592L381.9393359375,326.22407063379114L383.51759765625,274.93854987799944L385.095859375,293.83603956799107L386.67412109375005,265.19003783199554L388.2523828125,275.3354626055784L389.83064453125,317.4393030791278L391.40890625,296.7608285543009L392.98716796875004,300.6376722438144L394.5654296875,260.9752475401436L396.14369140624996,299.12344428301725L397.721953125,274.34436660351037L399.30021484375,265.89567384167464L400.8784765625,252.23280200101826L402.45673828124995,295.2777049243736L404.035,290.7090528701847L405.61326171875,282.61122680985284L407.1915234375,298.83005807201755L408.76978515624995,270.83806747657974L410.348046875,251.2719909384605L411.92630859375,313.2201564682497L413.5045703125,282.6033559809018L415.08283203125,285.2263638165276L416.66109375,268.7676790229725L418.23935546875,266.7730751065877L419.81761718750005,277.02923363377687L421.39587890625,245.57526057701267L422.974140625,298.92223442546754L424.55240234375,272.06430313134683L426.13066406250005,282.90222479121485L427.70892578125,300.5280015145596L429.2871875,249.3749670118857L430.86544921875,253.28830566843322L432.44371093750004,269.2967436274106L434.02197265625,319.84824857494993L435.60023437499996,316.55752294658936L437.17849609375,259.4206005570638L438.7567578125,339.78096528069267L440.33501953125,339.0832464027895L441.91328124999995,252.60278134128754L443.49154296875,237.93085744809974L445.0698046875,312.33518157665355L446.64806640625,299.0815141043341L448.22632812499995,265.4397290118506L449.80458984375,276.8831745194964L451.3828515625,258.07517038533916L452.96111328125,313.5838956640931L454.539375,322.4272287683861L456.11763671875,267.28321727015935L457.6958984375,274.69462426811424L459.27416015625005,282.4462152522973L460.852421875,286.4922147819269L462.43068359375,271.6423538230018L464.0089453125,270.40315830982655L465.58720703125005,301.28818027595406L467.16546875,242.51539811555568L468.74373046875,271.3865036267708L470.3219921875,307.9385311898218L471.90025390625004,301.9997274652273L473.478515625,299.3668037083312L475.05677734374996,294.0661577649718L476.6350390625,283.67458119899925L478.21330078125,289.17194991900584L479.7915625,288.2380737251979L481.36982421874995,285.3296317638044L482.9480859375,292.58226244411094L484.52634765625,255.55385385134667L486.104609375,294.3211688936708L487.68287109374995,275.030084581969L489.2611328125,276.7218353645677L490.83939453125,270.95817521732744L492.41765625,331.02747165998056L493.99591796875,276.8831745194964L495.5741796875,336.9819808186892L497.15244140625,261.9879994335846L498.73070312500005,288.36666607554366L500.30896484375,301.95732060789487L501.8872265625,279.39321768128525L503.46548828125,246.13309332438L505.04375000000005,300.70517149793227L506.62201171875,269.8119763491314L508.2002734375,257.1205304589877L509.77853515625,288.6965313283771L511.35679687500004,325.59974187846575L512.93505859375,318.6318673335725L514.5133203125,335.05245813835836L516.09158203125,266.9430088653758L517.6698437499999,306.42352748380074L519.24810546875,278.74984215239243L520.8263671875,316.5215906369338L522.40462890625,292.4841912255999L523.982890625,281.4896745049087L525.56115234375,271.0708176693492L527.1394140625,279.64171064800155L528.71767578125,318.03489723004367L530.2959375,258.7684701361629L531.87419921875,292.28816212560844L533.4524609375,345.7952776115699L535.03072265625,288.17378276015035L536.608984375,313.91258993845713L538.18724609375,335.17804885095256L539.7655078125,280.8878104978488L541.34376953125,334.6277935565141L542.92203125,308.95647182107905L544.50029296875,273.1601288825809L546.0785546875,345.14117239731036L547.6568164062501,291.0176026130079L549.235078125,331.22721470157745L550.81333984375,279.99934270988985L552.3916015625,311.49729398571026L553.96986328125,305.30390161485286L555.548125,310.82896085444105L557.1263867187499,289.9959764170638L558.7046484375,257.0067793287777L560.28291015625,303.24122809032554L561.861171875,279.5407438366596L563.43943359375,305.35545636409825L565.0176953125,291.5055138134489L566.59595703125,272.3283772530799L568.17421875,283.52465798027606L569.75248046875,279.0519587568334L571.3307421875,316.33306131878237L572.90900390625,294.7248015680045L574.487265625,294.1072694102936L576.06552734375,278.5718393224043L577.6437890625,280.3496767759487L579.22205078125,297.62652450582914L580.8003125,298.99767447231153L582.37857421875,288.43903982899207L583.9568359375,331.3319111111799L585.53509765625,248.72052671693038L587.1133593750001,265.6749544746592L588.69162109375,339.94832821095565L590.2698828125,256.04195105582744L591.84814453125,299.65239353583434L593.42640625,313.4063923014192L595.00466796875,326.14945095612734L596.5829296874999,313.1138001851289L598.16119140625,273.74396630335883L599.739453125,261.45941536816935L601.31771484375,297.901827707671L602.8959765625,264.12795515478365L604.47423828125,280.9346658552889L606.0525,285.8226872533549L607.63076171875,277.61431003894415L609.2090234375,313.2467472028046L610.78728515625,289.4463354000661L612.365546875,339.44661620390406L613.94380859375,311.84093861551764L615.5220703125,320.0940309262705L617.10033203125,270.83806747657974L618.67859375,272.59272575267454L620.25685546875,270.0512810277388L621.8351171875,274.9309310485952L623.41337890625,249.24394749927941L624.991640625,298.68768388014695L626.5699023437501,255.20779499323802L628.1481640625,271.6950592327175L629.72642578125,339.58424166061945L631.3046875,309.1396115396598L632.88294921875,268.96873573325087L634.4612109374999,265.6161189525606L636.03947265625,314.83874747790856L637.617734375,288.9704042884102L639.19599609375,315.3299242644445L640.7742578125,275.7788927567426L642.3525195312501,317.81814640131967L643.93078125,290.8470496683456L645.50904296875,271.4767869821788L647.0873046874999,290.74151824823696L648.66556640625,301.68605973217365L650.243828125,310.5744134408197L651.82208984375,319.5754184048412L653.4003515625,251.501418426062L654.9786132812501,252.61675556566325L656.556875,240.57568835270965L658.13513671875,307.3834139965456L659.7133984374999,306.91598702373227L661.29166015625,282.32840464675587L662.869921875,287.7322885387458L664.44818359375,313.87702921563255L666.0264453125,294.46936611865823L667.6047070312501,270.93565629019776L669.18296875,270.53805489216995L670.76123046875,296.9270868020917L672.3394921875,234.77210045932614L673.9177539062499,268.6039540369106L675.496015625,308.8344518727903L677.07427734375,299.9972306129026L678.6525390625,245.25607871827725L680.23080078125,268.1951373458929L681.8090625000001,284.6631526787765L683.38732421875,286.3007277667435L684.9655859375,303.23269247005686L686.5438476562499,280.2873669119002L688.122109375,316.85410469455695L689.70037109375,283.4142427650965L691.2786328125,261.596880687757L692.85689453125,288.76899899087L694.4351562500001,294.2471222570779L696.01341796875,291.4241335079657L697.5916796875,300.317239864156L699.1699414062499,316.8900839996846L700.748203125,280.7707377505225L702.32646484375,325.87909073164474L703.9047265625,297.4514847305376L705.48298828125,274.6869945739586L707.0612500000001,331.89415967575866L708.63951171875,299.14022228923517L710.2177734375,297.50149232342545L711.79603515625,313.5217585736126L713.3742968749999,274.20743725471533L714.95255859375,292.0759643296703L716.5308203125,290.7820961214004L718.10908203125,293.72105847365606L719.68734375,277.41399990728195L721.2656054687501,328.29443453922306L722.8438671875,295.98091223940884L724.42212890625,337.3131277581624L726.0003906249999,293.7703381144544L727.57865234375,268.5444550752284L729.1569140625,309.1308965246516L730.73517578125,283.8561914289277L732.3134375,274.54227354913644L733.8916992187501,287.7322885387458L735.4699609375,331.4176018030981L737.04822265625,302.96008942610257L738.6264843749999,284.69483672370643L740.20474609375,297.8016847899143L741.7830078125,265.3736099212697L743.36126953125,328.3038313539483L744.93953125,321.8671479814054L746.5177929687501,296.85225813634435L748.0960546875,273.2813200409093L749.67431640625,295.2694520275464L751.252578125,255.59625114098452L752.8308398437499,272.66074807344256L754.4091015625,277.6682857329309L755.98736328125,311.7880319063946L757.565625,273.1979971761114L759.14388671875,281.06744164080584L760.7221484375001,291.4241335079657L762.30041015625,275.1140279153503L763.878671875,297.8016847899143L765.4569335937499,312.58266357062837L767.0351953125,300.3425357088193L768.61345703125,286.4283634209515L770.19171875,286.18910144632684L771.76998046875,245.45976938043142L773.3482421875001,321.01561223827605L774.92650390625,254.6226782659024L776.504765625,285.0914003435699L778.0830273437499,273.98698173945365L779.6612890625,290.66038191214193L781.23955078125,298.4951761398704L782.8178125,269.431054697655L784.39607421875,269.56543670922383L785.9743359375001,308.76476135469L787.55259765625,308.69506915722144L789.130859375,262.99022487802176L790.70912109375,329.6430904576944L792.2873828124999,290.55492787548764L793.86564453125,279.2845805925127L795.44390625,274.54227354913644L797.02216796875,300.79802983515157L798.6004296875,304.6259132695786L800.1786914062501,254.51003820844716L801.756953125,232.88386358546572L803.33521484375,292.20651167308256L804.9134765624999,304.5830460200387L806.49173828125,277.2369289093779L808.07,298.6625719878338L809.64826171875,311.8673855843046L811.2265234375,325.02334234243466L812.8047851562501,338.59302036158647L814.383046875,279.9760091946507L815.96130859375,338.59302036158647L817.5395703124999,279.3233900848086L819.11783203125,321.1070320249745L820.69609375,312.1497279334978L822.27435546875,296.8938224952404L823.8526171875,263.2013334886299L825.4308789062501,269.9989150070936L827.009140625,308.42524391671606L828.58740234375,244.321193159688L830.1656640625,313.45963665510675L831.7439257812499,258.3751269827336L833.3221875,308.8431775147424L834.90044921875,292.1249068702955L836.4787109375,288.95428369042384L838.05697265625,273.4177517270101L839.6352343750001,270.39567409057076L841.21349609375,264.17182315349305L842.7917578125,263.5803380607135L844.3700195312499,317.98971032221493L845.94828125,271.98135984881225L847.52654296875,295.2694520275464L849.1048046875,378.50209148862166L850.68306640625,335.7876244848858L852.2613281250001,292.17387828584657L853.83958984375,290.2145553689188L855.4178515625,298.8551865017945L856.9961132812499,246.9789765255216L858.574375,266.6770696514635L860.15263671875,268.5518850347161L861.7308984375,309.54124193523853L863.30916015625,325.8325112843477L864.8874218750001,305.50161225064744L866.46568359375,295.40166845830544L868.0439453125,255.7730275737739L869.62220703125,291.3021118363983L871.2004687499999,294.2718020748548L872.77873046875,279.40098982317164L874.3569921875,258.10372731160373L875.93525390625,273.2131496839895L877.513515625,310.8377551701236L879.0917773437501,277.3216036536219L880.6700390625,257.8468812994658L882.24830078125,295.60839551572127L883.8265624999999,280.26400696762033L885.40482421875,301.4658805974594L886.9830859375,289.76143254244505L888.56134765625,270.85308008046735L890.139609375,325.1347966751719L891.7178710937501,265.3295517448765L893.2961328125,272.6985421061042L894.87439453125,312.3881811321685L896.4526562499999,258.40371759866L898.03091796875,262.074990661374L899.6091796875,283.8561914289277L901.18744140625,275.4500602641764L902.765703125,284.38596751946494L904.3439648437501,313.5217585736126L905.9222265625,259.85149775854654L907.50048828125,301.84707967760437L909.07875,303.69341545793236L910.6570117187499,265.82943616925684L912.2352734375,267.11305620259105L913.81353515625,275.2590746263568L915.391796875,253.07825265710852L916.97005859375,270.3132729257983L918.5483203125001,295.0712659631387L920.12658203125,282.8156725440019L921.70484375,272.29819633150265L923.2831054687499,276.30741677195294L924.8613671875,260.54966161914217L926.43962890625,307.97327143913276L928.017890625,308.93903384752343L929.59615234375,292.72944993981315L931.1744140625001,292.21468526989565L932.75267578125,275.5952987299223L934.3309375,286.06158573625015L935.9091992187499,317.1060238221385L937.4874609375,263.1867830182552L939.06572265625,281.84991549383983L940.643984375,319.16671011897324L942.22224609375,240.17620663835615L943.8005078125001,288.7609545418033L945.37876953125,283.2644728327362L946.95703125,293.08958962841143L948.53529296875,268.97619585613364L950.1135546874999,273.42534345280677L951.69181640625,275.0072023655538L953.270078125,261.105235587701L954.84833984375,291.5380809894509L956.4266015625,273.1525450663277L958.0048632812501,242.82444245293087L959.583125,359.4560128593316L961.16138671875,303.5312027680954L962.7396484374999,247.58099777231513L964.31791015625,337.16699472997834L965.896171875,264.0694936764999L967.47443359375,299.94673010724995L969.0526953125,347.62562132354435L970.6309570312501,290.15787086266715L972.20921875,279.1682430884105L973.78748046875,295.1455725686825L975.3657421874999,279.9448888061361L976.94400390625,239.93017241067076L978.522265625,276.5375598815932L980.10052734375,276.6527187048927L981.6787890625,323.9206904449751L983.2570507812501,279.26131253460113L984.8353125,308.58189116830147L986.41357421875,287.5238551654232L987.9918359375,283.8403916315302L989.5700976562499,328.7934389387658L991.148359375,355.76178837741094L992.72662109375,283.8877939675719L994.3048828125,275.5035604861541L995.88314453125,226.05890673250715L997.4614062500001,275.2285440596498L999.03966796875,270.68800802150616L1000.6179296875,305.70811595060877L1002.1961914062499,258.05376330194645L1003.774453125,282.98878772467936L1005.35271484375,278.37077419027446L1006.9309765625,303.46294967558333L1008.50923828125,287.12350399658015L1010.0875000000001,270.25335507253743L1011.66576171875,292.28816212560844L1013.2440234375,264.603516596798L1014.8222851562499,256.58775785882113L1016.400546875,259.5785194630216L1017.97880859375,246.0241490545851L1019.5570703125,300.15718492539355L1021.13533203125,326.63492622210146L1022.7135937500001,288.31844111867423L1024.29185546875,298.02707674413756L1025.8701171875,277.49103773158976L1027.44837890625,290.0445397236336L1029.026640625,282.0772936890214L1030.60490234375,285.69535501154047L1032.1831640625,298.0604895584493L1033.76142578125,291.84761895619687L1035.3396874999999,276.74487231988616L1036.91794921875,332.4672281561505L1038.4962109375,267.20920870908554L1040.07447265625,361.46268004857836L1041.652734375,296.9270868020917L1043.23099609375,272.4642987498829L1044.8092578125,318.00777981475795L1046.38751953125,370.94966093258995L1047.96578125,321.71126284833053L1049.54404296875,269.6251749453587L1051.1223046875,255.9357684194596L1052.70056640625,331.7415576501304L1054.278828125,296.33737991802076L1055.8570898437501,334.98485095566707L1057.4353515625,300.41839813853244L1059.01361328125,317.5745518033383L1060.591875,242.15979079415283L1062.17013671875,297.99366831730856L1063.7483984375,260.39113896323903L1065.32666015625,279.25356315304407L1066.904921875,276.9830919609161L1068.48318359375,279.0519587568334L1070.0614453125,272.2680009959649L1071.63970703125,322.41804650908097L1073.21796875,279.1527317422708L1074.7962304687499,282.12434993553643L1076.3744921875,256.8007296524544L1077.95275390625,307.7302306216197L1079.531015625,297.8934892507239L1081.10927734375,329.3217714120203L1082.6875390625,280.74731478137863L1084.26580078125,278.68790437037217L1085.8440625,333.29087778233094L1087.42232421875,306.33721303052323L1089.0005859375,294.7742563717099L1090.57884765625,277.93051651849004L1092.157109375,336.49580619001694L1093.73537109375,252.93830804083763L1095.3136328125001,311.92911989085326L1096.89189453125,306.1733270380152L1098.47015625,274.28349195596314L1100.04841796875,292.4106577430891L1101.6266796875,286.69980435643146L1103.20494140625,279.2225310021559L1104.46755078125,325.3485632847474" style="fill: none;" fill="none"></path></g></g></g></g></g></g><g transform="translate(20, 377)" clip-path="url(#clip_1)"><clipPath id="clip_1"><rect width="1262" height="23"></rect></clipPath><g><g><line x1="0" y1="0" x2="0" y2="5" style="visibility: inherit;" fill="rgb(0, 0, 0)" stroke="rgb(204, 204, 204)" stroke-width="1px"></line><line x1="157.826171875" y1="0" x2="157.826171875" y2="5" style="visibility: inherit;" fill="rgb(0, 0, 0)" stroke="rgb(204, 204, 204)" stroke-width="1px"></line><line x1="315.65234375" y1="0" x2="315.65234375" y2="5" style="visibility: inherit;" fill="rgb(0, 0, 0)" stroke="rgb(204, 204, 204)" stroke-width="1px"></line><line x1="473.478515625" y1="0" x2="473.478515625" y2="5" style="visibility: inherit;" fill="rgb(0, 0, 0)" stroke="rgb(204, 204, 204)" stroke-width="1px"></line><line x1="631.3046875" y1="0" x2="631.3046875" y2="5" style="visibility: inherit;" fill="rgb(0, 0, 0)" stroke="rgb(204, 204, 204)" stroke-width="1px"></line><line x1="789.130859375" y1="0" x2="789.130859375" y2="5" style="visibility: inherit;" fill="rgb(0, 0, 0)" stroke="rgb(204, 204, 204)" stroke-width="1px"></line><line x1="946.95703125" y1="0" x2="946.95703125" y2="5" style="visibility: inherit;" fill="rgb(0, 0, 0)" stroke="rgb(204, 204, 204)" stroke-width="1px"></line><line x1="1104.783203125" y1="0" x2="1104.783203125" y2="5" style="visibility: inherit;" fill="rgb(0, 0, 0)" stroke="rgb(204, 204, 204)" stroke-width="1px"></line><line x1="1262.609375" y1="0" x2="1262.609375" y2="5" style="visibility: inherit;" fill="rgb(0, 0, 0)" stroke="rgb(204, 204, 204)" stroke-width="1px"></line></g><g transform="translate(0, 8)"><text x="0" y="0" dx="0em" dy="0.95em" style="text-anchor: middle; visibility: hidden; font-family: Roboto, sans-serif; font-size: 12px; font-weight: 200;" fill="rgb(255, 255, 255)" stroke="none" stroke-width="1px">-500</text><text x="157.826171875" y="0" dx="0em" dy="0.95em" style="text-anchor: middle; visibility: inherit; font-family: Roboto, sans-serif; font-size: 12px; font-weight: 200;" fill="rgb(255, 255, 255)" stroke="none" stroke-width="1px">0</text><text x="315.65234375" y="0" dx="0em" dy="0.95em" style="text-anchor: middle; visibility: inherit; font-family: Roboto, sans-serif; font-size: 12px; font-weight: 200;" fill="rgb(255, 255, 255)" stroke="none" stroke-width="1px">500</text><text x="473.478515625" y="0" dx="0em" dy="0.95em" style="text-anchor: middle; visibility: inherit; font-family: Roboto, sans-serif; font-size: 12px; font-weight: 200;" fill="rgb(255, 255, 255)" stroke="none" stroke-width="1px">1k</text><text x="631.3046875" y="0" dx="0em" dy="0.95em" style="text-anchor: middle; visibility: inherit; font-family: Roboto, sans-serif; font-size: 12px; font-weight: 200;" fill="rgb(255, 255, 255)" stroke="none" stroke-width="1px">1.5k</text><text x="789.130859375" y="0" dx="0em" dy="0.95em" style="text-anchor: middle; visibility: inherit; font-family: Roboto, sans-serif; font-size: 12px; font-weight: 200;" fill="rgb(255, 255, 255)" stroke="none" stroke-width="1px">2k</text><text x="946.95703125" y="0" dx="0em" dy="0.95em" style="text-anchor: middle; visibility: inherit; font-family: Roboto, sans-serif; font-size: 12px; font-weight: 200;" fill="rgb(255, 255, 255)" stroke="none" stroke-width="1px">2.5k</text><text x="1104.783203125" y="0" dx="0em" dy="0.95em" style="text-anchor: middle; visibility: inherit; font-family: Roboto, sans-serif; font-size: 12px; font-weight: 200;" fill="rgb(255, 255, 255)" stroke="none" stroke-width="1px">3k</text><text x="1262.609375" y="0" dx="0em" dy="0.95em" style="text-anchor: middle; visibility: hidden; font-family: Roboto, sans-serif; font-size: 12px; font-weight: 200;" fill="rgb(255, 255, 255)" stroke="none" stroke-width="1px">3.5k</text></g><line x1="0" y1="0" x2="1262.609375" y2="0" fill="rgb(0, 0, 0)" stroke="rgb(204, 204, 204)" stroke-width="1px"></line></g></g></g></g></svg>