<svg viewBox="0 0 1283 400" xmlns="http://www.w3.org/2000/svg"><g><g><g><g><g><line x1="30.78125" y1="377" x2="25.78125" y2="377" style="visibility: inherit;" fill="rgb(0, 0, 0)" stroke="rgb(204, 204, 204)" stroke-width="1px"></line><line x1="30.78125" y1="345.5833333333333" x2="25.78125" y2="345.5833333333333" style="visibility: inherit;" fill="rgb(0, 0, 0)" stroke="rgb(204, 204, 204)" stroke-width="1px"></line><line x1="30.78125" y1="314.1666666666667" x2="25.78125" y2="314.1666666666667" style="visibility: inherit;" fill="rgb(0, 0, 0)" stroke="rgb(204, 204, 204)" stroke-width="1px"></line><line x1="30.78125" y1="282.75" x2="25.78125" y2="282.75" style="visibility: inherit;" fill="rgb(0, 0, 0)" stroke="rgb(204, 204, 204)" stroke-width="1px"></line><line x1="30.78125" y1="251.33333333333337" x2="25.78125" y2="251.33333333333337" style="visibility: inherit;" fill="rgb(0, 0, 0)" stroke="rgb(204, 204, 204)" stroke-width="1px"></line><line x1="30.78125" y1="219.91666666666663" x2="25.78125" y2="219.91666666666663" style="visibility: inherit;" fill="rgb(0, 0, 0)" stroke="rgb(204, 204, 204)" stroke-width="1px"></line><line x1="30.78125" y1="188.5" x2="25.78125" y2="188.5" style="visibility: inherit;" fill="rgb(0, 0, 0)" stroke="rgb(204, 204, 204)" stroke-width="1px"></line><line x1="30.78125" y1="157.08333333333331" x2="25.78125" y2="157.08333333333331" style="visibility: inherit;" fill="rgb(0, 0, 0)" stroke="rgb(204, 204, 204)" stroke-width="1px"></line><line x1="30.78125" y1="125.66666666666669" x2="25.78125" y2="125.66666666666669" style="visibility: inherit;" fill="rgb(0, 0, 0)" stroke="rgb(204, 204, 204)" stroke-width="1px"></line><line x1="30.78125" y1="94.25" x2="25.78125" y2="94.25" style="visibility: inherit;" fill="rgb(0, 0, 0)" stroke="rgb(204, 204, 204)" stroke-width="1px"></line><line x1="30.78125" y1="62.83333333333332" x2="25.78125" y2="62.83333333333332" style="visibility: inherit;" fill="rgb(0, 0, 0)" stroke="rgb(204, 204, 204)" stroke-width="1px"></line><line x1="30.78125" y1="31.416666666666682" x2="25.78125" y2="31.416666666666682" style="visibility: inherit;" fill="rgb(0, 0, 0)" stroke="rgb(204, 204, 204)" stroke-width="1px"></line><line x1="30.78125" y1="0" x2="25.78125" y2="0" style="visibility: inherit;" fill="rgb(0, 0, 0)" stroke="rgb(204, 204, 204)" stroke-width="1px"></line></g><g transform="translate(20.78125, 0)"><text x="0" y="377" dx="0em" dy="0.3em" style="text-anchor: end; visibility: hidden; font-family: Roboto, sans-serif; font-size: 12px; font-weight: 200;" fill="rgb(255, 255, 255)" stroke="none" stroke-width="1px">0</text><text x="0" y="345.5833333333333" dx="0em" dy="0.3em" style="text-anchor: end; visibility: inherit; font-family: Roboto, sans-serif; font-size: 12px; font-weight: 200;" fill="rgb(255, 255, 255)" stroke="none" stroke-width="1px">5</text><text x="0" y="314.1666666666667" dx="0em" dy="0.3em" style="text-anchor: end; visibility: inherit; font-family: Roboto, sans-serif; font-size: 12px; font-weight: 200;" fill="rgb(255, 255, 255)" stroke="none" stroke-width="1px">10</text><text x="0" y="282.75" dx="0em" dy="0.3em" style="text-anchor: end; visibility: inherit; font-family: Roboto, sans-serif; font-size: 12px; font-weight: 200;" fill="rgb(255, 255, 255)" stroke="none" stroke-width="1px">15</text><text x="0" y="251.33333333333337" dx="0em" dy="0.3em" style="text-anchor: end; visibility: inherit; font-family: Roboto, sans-serif; font-size: 12px; font-weight: 200;" fill="rgb(255, 255, 255)" stroke="none" stroke-width="1px">20</text><text x="0" y="219.91666666666663" dx="0em" dy="0.3em" style="text-anchor: end; visibility: inherit; font-family: Roboto, sans-serif; font-size: 12px; font-weight: 200;" fill="rgb(255, 255, 255)" stroke="none" stroke-width="1px">25</text><text x="0" y="188.5" dx="0em" dy="0.3em" style="text-anchor: end; visibility: inherit; font-family: Roboto, sans-serif; font-size: 12px; font-weight: 200;" fill="rgb(255, 255, 255)" stroke="none" stroke-width="1px">30</text><text x="0" y="157.08333333333331" dx="0em" dy="0.3em" style="text-anchor: end; visibility: inherit; font-family: Roboto, sans-serif; font-size: 12px; font-weight: 200;" fill="rgb(255, 255, 255)" stroke="none" stroke-width="1px">35</text><text x="0" y="125.66666666666669" dx="0em" dy="0.3em" style="text-anchor: end; visibility: inherit; font-family: Roboto, sans-serif; font-size: 12px; font-weight: 200;" fill="rgb(255, 255, 255)" stroke="none" stroke-width="1px">40</text><text x="0" y="94.25" dx="0em" dy="0.3em" style="text-anchor: end; visibility: inherit; font-family: Roboto, sans-serif; font-size: 12px; font-weight: 200;" fill="rgb(255, 255, 255)" stroke="none" stroke-width="1px">45</text><text x="0" y="62.83333333333332" dx="0em" dy="0.3em" style="text-anchor: end; visibility: inherit; font-family: Roboto, sans-serif; font-size: 12px; font-weight: 200;" fill="rgb(255, 255, 255)" stroke="none" stroke-width="1px">50</text><text x="0" y="31.416666666666682" dx="0em" dy="0.3em" style="text-anchor: end; visibility: inherit; font-family: Roboto, sans-serif; font-size: 12px; font-weight: 200;" fill="rgb(255, 255, 255)" stroke="none" stroke-width="1px">55</text><text x="0" y="0" dx="0em" dy="0.3em" style="text-anchor: end; visibility: hidden; font-family: Roboto, sans-serif; font-size: 12px; font-weight: 200;" fill="rgb(255, 255, 255)" stroke="none" stroke-width="1px">60</text></g><line x1="30.78125" y1="0" x2="30.78125" y2="377" fill="rgb(0, 0, 0)" stroke="rgb(204, 204, 204)" stroke-width="1px"></line></g></g><g transform="translate(30, 0)" clip-path="url(#clip_0)"><clipPath id="clip_0"><rect width="1252" height="377"></rect></clipPath><g><g><g><line x1="0" y1="0" x2="0" y2="377" fill="rgb(0, 0, 0)" stroke="rgb(189, 189, 189)" stroke-width="1px" opacity="0.25"></line><line x1="156.52734375" y1="0" x2="156.52734375" y2="377" fill="rgb(0, 0, 0)" stroke="rgb(189, 189, 189)" stroke-width="1px" opacity="0.25"></line><line x1="313.0546875" y1="0" x2="313.0546875" y2="377" fill="rgb(0, 0, 0)" stroke="rgb(189, 189, 189)" stroke-width="1px" opacity="0.25"></line><line x1="469.58203125" y1="0" x2="469.58203125" y2="377" fill="rgb(0, 0, 0)" stroke="rgb(189, 189, 189)" stroke-width="1px" opacity="0.25"></line><line x1="626.109375" y1="0" x2="626.109375" y2="377" fill="rgb(0, 0, 0)" stroke="rgb(189, 189, 189)" stroke-width="1px" opacity="0.25"></line><line x1="782.63671875" y1="0" x2="782.63671875" y2="377" fill="rgb(0, 0, 0)" stroke="rgb(189, 189, 189)" stroke-width="1px" opacity="0.25"></line><line x1="939.1640625" y1="0" x2="939.1640625" y2="377" fill="rgb(0, 0, 0)" stroke="rgb(189, 189, 189)" stroke-width="1px" opacity="0.25"></line><line x1="1095.69140625" y1="0" x2="1095.69140625" y2="377" fill="rgb(0, 0, 0)" stroke="rgb(189, 189, 189)" stroke-width="1px" opacity="0.25"></line><line x1="1252.21875" y1="0" x2="1252.21875" y2="377" fill="rgb(0, 0, 0)" stroke="rgb(189, 189, 189)" stroke-width="1px" opacity="0.25"></line></g><g><line x1="0" y1="377" x2="1252.21875" y2="377" fill="rgb(0, 0, 0)" stroke="rgb(189, 189, 189)" stroke-width="1px" opacity="0.25"></line><line x1="0" y1="345.5833333333333" x2="1252.21875" y2="345.5833333333333" fill="rgb(0, 0, 0)" stroke="rgb(189, 189, 189)" stroke-width="1px" opacity="0.25"></line><line x1="0" y1="314.1666666666667" x2="1252.21875" y2="314.1666666666667" fill="rgb(0, 0, 0)" stroke="rgb(189, 189, 189)" stroke-width="1px" opacity="0.25"></line><line x1="0" y1="282.75" x2="1252.21875" y2="282.75" fill="rgb(0, 0, 0)" stroke="rgb(189, 189, 189)" stroke-width="1px" opacity="0.25"></line><line x1="0" y1="251.33333333333337" x2="1252.21875" y2="251.33333333333337" fill="rgb(0, 0, 0)" stroke="rgb(189, 189, 189)" stroke-width="1px" opacity="0.25"></line><line x1="0" y1="219.91666666666663" x2="1252.21875" y2="219.91666666666663" fill="rgb(0, 0, 0)" stroke="rgb(189, 189, 189)" stroke-width="1px" opacity="0.25"></line><line x1="0" y1="188.5" x2="1252.21875" y2="188.5" fill="rgb(0, 0, 0)" stroke="rgb(189, 189, 189)" stroke-width="1px" opacity="0.25"></line><line x1="0" y1="157.08333333333331" x2="1252.21875" y2="157.08333333333331" fill="rgb(0, 0, 0)" stroke="rgb(189, 189, 189)" stroke-width="1px" opacity="0.25"></line><line x1="0" y1="125.66666666666669" x2="1252.21875" y2="125.66666666666669" fill="rgb(0, 0, 0)" stroke="rgb(189, 189, 189)" stroke-width="1px" opacity="0.25"></line><line x1="0" y1="94.25" x2="1252.21875" y2="94.25" fill="rgb(0, 0, 0)" stroke="rgb(189, 189, 189)" stroke-width="1px" opacity="0.25"></line><line x1="0" y1="62.83333333333332" x2="1252.21875" y2="62.83333333333332" fill="rgb(0, 0, 0)" stroke="rgb(189, 189, 189)" stroke-width="1px" opacity="0.25"></line><line x1="0" y1="31.416666666666682" x2="1252.21875" y2="31.416666666666682" fill="rgb(0, 0, 0)" stroke="rgb(189, 189, 189)" stroke-width="1px" opacity="0.25"></line><line x1="0" y1="0" x2="1252.21875" y2="0" fill="rgb(0, 0, 0)" stroke="rgb(189, 189, 189)" stroke-width="1px" opacity="0.25"></line></g></g></g><g><g><line x1="0" y1="377" x2="1252.21875" y2="377" fill="rgb(0, 0, 0)" stroke="rgb(153, 153, 153)" stroke-width="1.5px"></line></g></g><g><g><line x1="156.52734375" y1="0" x2="156.52734375" y2="377" fill="rgb(0, 0, 0)" stroke="rgb(153, 153, 153)" stroke-width="1.5px"></line></g></g><g><g><g><g><g><path stroke="rgb(238, 51, 119)" stroke-width="2px" d="M158.0926171875,38.56458632151287L159.657890625,97.1938172420915L161.22316406250002,131.45497925576558M164.3537109375,168.153281485516L165.918984375,173.16361891370255L167.4842578125,186.791475817896L169.04953125,207.4801433365766L170.61480468750003,228.99602075931543L172.18007812500002,240.94002840697772L173.74535156250002,243.40950939470812L175.31062500000002,261.32193889247725L176.87589843749998,256.495689158091L178.44117187499998,265.88180382366465L180.00644531249998,244.65418400866605L181.57171874999997,251.80329907916888L183.1369921875,270.6033309210151L184.702265625,274.0148244971874L186.2675390625,271.5319883838968L187.8328125,264.91744110627957L189.39808593749999,277.0531604489252L190.96335937499998,285.05568435193965L192.5286328125,288.1728729206922L194.09390625,295.9345958964763L195.6591796875,287.72836922404156L197.224453125,290.5506926700433L198.7897265625,297.93788456349864L200.35500000000002,302.6198687156438L201.92027343750001,304.19089583644507L203.485546875,308.819163482679L205.0508203125,309.8083840906346L206.61609375,318.7337460640841L208.1813671875,321.75314829846906L209.74664062500003,321.3256616089886L211.31191406250002,320.1236414246529L212.87718750000002,324.794027963978L214.44246093750002,328.9617954383768L216.00773437499998,329.7289251772901L217.57300781249998,329.94959253268L219.13828124999998,311.4214475909907L220.70355468749997,318.59059957329146L222.268828125,324.21918825072413L223.8341015625,328.43960115072844L225.399375,328.1649851160673L226.9646484375,334.26435031997784L228.52992187499999,336.77857483818883L230.09519531249998,335.4001664326508L231.66046875,332.69620981694135L233.2257421875,330.5621124821439L234.791015625,335.4014457881883L236.3562890625,337.52811591395795L237.9215625,337.86242243911056L239.48683593750002,333.5287274586556L241.05210937500001,335.6368148830095L242.6173828125,333.283197778433L244.18265625,332.32597155916227L245.7479296875,323.306098154907L247.313203125,329.11626685741305L248.87847656250003,327.6099796289163L250.44375000000002,330.274574261511L252.00902343750002,331.7843463421937L253.57429687500002,331.6641479609228L255.13957031249998,334.2361387999733L256.70484375,336.8458306724698L258.2701171875,338.38220610291773L259.835390625,334.9605266755317L261.40066406249997,335.95324842796737L262.9659375,336.7976114352275L264.53121093749996,339.6298394084779L266.096484375,337.8628015330281L267.6617578125,339.1338011358211L269.22703125,340.82393736720763L270.7923046875,341.50675653602826L272.357578125,339.115136969538L273.9228515625,338.8757276505993L275.488125,336.168960001855L277.0533984375,335.98954555907386L278.618671875,334.5951356300686L280.1839453125,328.88912951001885L281.74921875,333.1105355344025L283.31449218750004,335.0890440051798L284.879765625,338.7815449240804L286.44503906250003,336.62354745468275L288.0103125,337.10950863386506L289.5755859375,324.08249312918247L291.140859375,328.2939975224242L292.7061328125,332.31249910338875L294.27140625,331.2173670520783L295.8366796875,335.07856037494406L297.401953125,324.56282738488113L298.9672265625,331.39542849573525L300.53249999999997,331.98791904137215L302.0977734375,330.6819954205539L303.66304687499996,332.7549534143115L305.2283203125,335.32336987279814L306.79359375,339.3292103683163L308.3588671875,338.9381319466918L309.924140625,332.6243759601848L311.4894140625,323.53043755854287L313.0546875,324.4436462395307L314.61996093749997,326.6625451449953L316.185234375,332.32122892814994L317.75050781249996,336.7451058001004L319.31578125,339.13799816920704L320.88105468749995,341.85716092566247L322.44632812500004,341.1050631695828L324.01160156249995,342.2272487269817L325.57687500000003,341.1085191062974L327.1421484375,341.51748376420306L328.707421875,343.46435418253105L330.2726953125,342.951947971821L331.83796875,344.00711611473L333.4032421875,342.79695386260795L334.968515625,343.96852766286185L336.5337890625,345.500316279205L338.0990625,345.1525989650986L339.66433593749997,345.58124926135685L341.22960937500005,341.34627356624674L342.79488281249996,340.9245179174898L344.36015625000005,340.7617820547262L345.9254296875,340.58603341902847L347.49070312500004,341.8297383239351L349.0559765625,339.7602533658764L350.62125000000003,329.565407153825L352.1865234375,329.7932600074339L353.75179687499997,334.4931683536685L355.3170703125,327.88816670298047L356.88234374999996,330.3274223801014L358.4476171875,332.59729717160064L360.01289062499995,337.0620201664634L361.57816406250004,338.2432926222398L363.14343749999995,340.54901126712355L364.70871093750003,335.56143745590646L366.273984375,338.91777504887443L367.8392578125,342.4540381639537L369.40453125,340.1733091338057L370.9698046875,341.1357671278897L372.535078125,339.8684771757712L374.1003515625,341.24754424398003L375.665625,340.1725107926511L377.2308984375,343.0403751873735L378.79617187499997,341.40095349461103L380.36144531250005,336.30805548614103L381.92671874999996,336.7384253642377L383.49199218750005,337.60742277327614L385.057265625,331.8562770499985L386.62253906250004,334.3643059208967L388.1878125,339.6579436709658L389.75308593750003,337.25885446024506L391.318359375,336.08351623851865L392.88363281249997,337.33746461683756L394.44890625,327.8939089631507L396.01417968749996,333.4256819516403L397.579453125,337.53985228686014L399.14472656249995,339.50906163633357L400.71000000000004,342.31772084682194L402.27527343749995,344.6436913303518L403.84054687500003,347.41419180805497L405.4058203125,348.84108789674997L406.97109375,345.36769118907614L408.5363671875,346.8359361961654L410.101640625,344.0490490070009L411.6669140625,343.51365234225807L413.2321875,343.591075503249L414.7974609375,342.0743303278496L416.362734375,342.10573022709366L417.92800781249997,343.0588555683144L419.49328125000005,344.9586929931415L421.05855468749996,343.9356344718853L422.62382812500005,346.698764809427L424.1891015625,343.6223311462885L425.75437500000004,343.1532774743535L427.3196484375,345.6562049379296L428.88492187500003,345.1454024488103L430.4501953125,345.27173429153476L432.01546874999997,343.712851563135L433.5807421875,345.0194387598039L435.14601562499996,345.138524663374L436.7112890625,343.03924410265904L438.27656249999995,338.8772233333528L439.84183593750004,340.46396908220277L441.40710937499995,343.46554550270747L442.97238281250003,345.8303875954507L444.53765625,344.5266764838594L446.1029296875,344.725770290021L447.668203125,346.667388674241L449.2334765625,349.48705203974055L450.79875,348.2172079894977L452.3640234375,349.1316152460326L453.929296875,351.1792239330995L455.4945703125,350.3490197326081L457.05984374999997,348.5434295272345L458.62511718750005,347.4983045508795L460.19039062499996,341.8035159283004L461.75566406250005,328.9914903795023L463.3209375,334.8706261244525L464.88621093750004,336.90239688553163L466.451484375,341.03120942441717L468.01675781250003,345.69851956938226L469.58203125,347.77463045811083L471.14730468749997,348.1367544372634L472.712578125,345.42599136391453L474.27785156249996,345.37864907054114L475.843125,347.78803904160753L477.40839843749995,349.2027667018519L478.97367187500004,349.1221013216266L480.53894531249995,348.91643692972536L482.10421875000003,342.84935664140613L483.6694921875,345.3520098184296L485.234765625,345.14007974435316L486.8000390625,346.41173454881147L488.3653125,345.3245564519808L489.9305859375,346.66995758187676L491.495859375,347.3330473070034L493.0611328125,346.4661664520902L494.62640625,346.7964834799215L496.19167968749997,347.2806921200153L497.75695312500005,347.0613075938013L499.32222656249996,345.1951583990932L500.88750000000005,347.7734942468955L502.4527734375,348.395388813403L504.01804687500004,349.8519618730354L505.5833203125,349.5022094204947L507.14859375000003,349.2629778427183L508.7138671875,351.1682854479086L510.27914062499997,349.2244230401162L511.8444140625,349.9871008275186L513.4096875,347.8862327882155L514.9749609375,350.5426633505368L516.540234375,350.3426981697795L518.1055078125,350.5467724101376L519.67078125,351.75424772279626L521.2360546875,344.19054526039355L522.8013281249999,346.72058196072607L524.3666015625,348.1080003501894L525.931875,346.76549715768493L527.4971484375001,348.69761894265434L529.0624218749999,347.0005748915083L530.6276953125,349.6942636911524L532.19296875,349.5764059373821L533.7582421875001,348.79675875953944L535.323515625,350.2216875462165L536.8887890625,350.85316699247903L538.4540625,350.49891689543625L540.0193359375,350.78533603457856L541.584609375,351.8117670482327L543.1498828125,352.101666705345L544.71515625,351.2382876736524L546.2804296875,351.0836339499328L547.845703125,349.85702646419657L549.4109765625,349.94839399949046L550.97625,350.4018989353646L552.5415234375,351.6980559303257L554.106796875,349.95710230237773L555.6720703125,349.7373955274672L557.23734375,351.63304065243045L558.8026171875,347.4959664830384L560.367890625,349.83552731922L561.9331640624999,346.7559052377282L563.4984375,348.61211237778855L565.0637109375,346.75705982934846L566.6289843750001,348.6523356849043L568.1942578124999,349.11186179445014L569.75953125,347.4703745061139L571.3248046875,350.420581057186L572.8900781250001,347.9614999698272L574.4553515625,350.151658917471L576.020625,350.94965495283293L577.5858984375,353.4842657449912L579.151171875,351.9511238337562L580.7164453125,352.1355066990167L582.28171875,352.1953467473225L583.8469921875,346.3044619711778L585.412265625,348.97398981927955L586.9775390625,349.1605015709509L588.5428125,350.5417997161968L590.1080859375,347.4390838611645L591.673359375,346.37456228998855L593.2386328125,348.9791238012849L594.80390625,348.38406833927604L596.3691796875,347.9044455925985L597.934453125,349.5931993313553L599.4997265625,350.2018550612724L601.0649999999999,350.658637070612L602.6302734375,352.45561156107846L604.195546875,349.85282061751434L605.7608203125001,351.6112781398369L607.3260937499999,352.8785281947268L608.8913671875,352.26984235207783L610.456640625,349.80213087479797L612.0219140625001,350.3789892817262L613.5871875,350.4286548562274L615.1524609375,351.9228004329548L616.717734375,352.51706245241115L618.2830078125,352.0400198712008L619.84828125,352.5506396941028L621.4135546875,352.9939653778414L622.978828125,352.1146146805734L624.5441015625,353.0284410291393L626.109375,353.97576896460225L627.6746484375,354.4276760119336L629.2399218749999,339.87053141319745L630.8051953125,344.71711341729343L632.37046875,348.85637387536093L633.9357421875,351.286993641178L635.5010156249999,349.75615721994876L637.0662890625,351.08666996061135L638.6315625,353.4596729704236L640.1968359374999,354.86170956192194L641.7621093749999,353.41288767424345L643.3273828125001,353.8059973674546L644.8926562500001,337.2430650738592L646.4579296874999,340.66124314666376L648.0232031249999,344.27793672242944L649.5884765625001,347.9813014783742L651.1537500000001,349.7071346432582L652.7190234375,349.4794164802382L654.284296875,352.76552725566523L655.8495703125001,353.791014577264L657.41484375,353.02194419854027L658.9801171875,354.96157696826845L660.545390625,354.77425584933627L662.1106640625001,355.04614145596645L663.6759375,354.5938497035635L665.2412109375,353.59440805684216L666.806484375,353.9493452925133L668.3717578124999,353.8505819226602L669.93703125,352.85720976913467L671.5023046875,354.06361744969L673.067578125,352.6232261232823L674.6328515624999,353.46728090947715L676.198125,354.24495103000896L677.7633984375,354.6235304700273L679.3286718749999,354.48258992304204L680.8939453124999,354.11191413112965L682.4592187500001,353.99746752564363L684.0244921875001,354.1367757193159L685.5897656249999,355.18275429794517L687.1550390624999,354.0046672565152L688.7203125000001,351.8085199417238L690.2855859375001,352.5588948962253L691.850859375,346.2416538007448L693.4161328125,348.16280052091696L694.9814062500001,349.65739407316175L696.5466796875,351.2935061300195L698.111953125,352.80792008170766L699.6772265625,354.06059105275574L701.2425000000001,354.0900438279935L702.8077734375,353.0049391026561L704.373046875,353.824754635426L705.9383203125,353.2672903951994L707.5035937499999,354.7167934159553L709.0688671875,355.5572937884765L710.634140625,355.41171616029203L712.1994140625,355.8515918850008L713.7646874999999,355.5372049199941L715.3299609375,354.83947099487085L716.895234375,357.10741104514113L718.4605078124999,354.7488181320831L720.0257812499999,353.61891848037754L721.5910546875001,352.9751140450737L723.1563281250001,353.3683755298248L724.7216015624999,353.3692174005966L726.2868749999999,353.73368144997306L727.8521484375001,353.77179757673065L729.4174218750001,353.217750421136L730.9826953125,353.3847458479579L732.54796875,354.3366772242902L734.1132421875001,353.18094924002025L735.678515625,353.64145326009475L737.2437890625,355.7531835323101L738.8090625,356.37974342991515L740.3743359375001,355.0079474851099L741.939609375,355.0561352811047L743.5048828125,350.40323942479205L745.07015625,351.6452237742155L746.6354296874999,353.37668615725516L748.200703125,354.01945284435175L749.7659765625,355.11238224417895L751.33125,354.42726334268923L752.8965234374999,354.01168789234123L754.461796875,353.12736029641223L756.0270703125,355.6364003615908L757.5923437499999,356.0033305446449L759.1576171874999,356.9478102194245L760.7228906250001,354.4704365131503L762.2881640625001,354.73068143419476L763.8534374999999,355.245032768489L765.4187109374999,352.87384824517306L766.9839843750001,352.42685153162194L768.5492578125001,354.1505555408003L770.11453125,354.6689525109838L771.6798046875,356.1787363848903L773.2450781250001,356.5918082645189L774.8103515625,356.7009119626893L776.375625,357.4999122152737L777.9408984375,353.8230269210445L779.5061718750001,354.31104929330155L781.0714453125,354.6301960455094L782.63671875,354.98965197571437L784.2019921875,356.3037597160031L785.7672656249999,356.44968070792817L787.3325390625,357.1338514171909L788.8978125,356.07618492031014L790.4630859375,356.239353916491L792.0283593749999,357.008464643735L793.5936328125,356.85143799071903L795.15890625,351.9185326362856L796.7241796874999,353.30141774816394L798.2894531249999,354.229764417319L799.8547265625001,355.7836136771209L801.4200000000001,356.86653620683705L802.9852734374999,357.627426608706L804.5505468749999,357.0932578752943L806.1158203125001,357.3681406393844L807.6810937500001,357.1258192937972L809.2463671875,357.59234449265534L810.811640625,356.30347220300797L812.3769140625001,355.70279516564847L813.9421875,354.9871099663473L815.5074609375,355.56166912352404L817.072734375,355.4427519834156L818.6380078125001,356.9553667595836L820.20328125,356.8129270780353L821.7685546875,356.4878417475568L823.333828125,356.8180293050768L824.8991015624999,354.98589027045796L826.464375,353.5415514668843L828.0296484375,352.4832948306997L829.594921875,353.5060908445822L831.1601953124999,354.64708354995895L832.72546875,355.1396189699896L834.2907421875,354.39209787632615L835.8560156249999,356.3863759112795L837.4212890624999,354.3674545038308L838.9865625000001,354.55128770167676L840.5518359375001,355.23321603475114L842.1171093749999,356.08738014694427L843.6823828124999,357.25457377377336L845.2476562500001,356.935179084537L846.8129296875001,356.6983276859943L848.378203125,352.7118381101084L849.9434765625,353.00373714094917L851.5087500000001,353.66823571412186L853.0740234375,354.2805711036532L854.639296875,352.7526065908646L856.2045703125,354.0774771899232L857.7698437500001,355.82531741077355L859.3351171875,356.9419500198221L860.900390625,356.56138928705917L862.4656640625,357.250432105865L864.0309374999999,355.19181361539756L865.5962109375,356.77816819596325L867.161484375,357.61180552904995L868.7267578125,356.59240354858855L870.2920312499999,356.81547450671763L871.8573046875,357.65344038252647L873.422578125,357.3657766786626L874.9878515624999,355.065066412073L876.5531249999999,356.3426532315033L878.1183984375001,357.1135681144377L879.6836718750001,357.1445218681116L881.2489453124999,355.8035434787922L882.8142187499999,356.4785507237903L884.3794921875001,357.1430057375879L885.9447656250001,357.5689535742443L887.5100390625,356.37204875260426L889.0753125,355.8873967119728L890.6405859375001,354.81330763551966L892.205859375,355.42388121726066L893.7711328125,355.0951616631899L895.33640625,356.43740790413534L896.9016796875001,357.53742986766093L898.466953125,357.46311992266277L900.0322265625,358.0333559370374L901.5975,357.2704270364443L903.1627734374999,355.7912789758787L904.728046875,356.4731109907262L906.2933203125,355.5578525423886L907.85859375,356.086589391176L909.4238671874999,355.992348552678L910.989140625,354.97428635136885L912.5544140625,355.2557521909715L914.1196874999999,355.50385875054405L915.6849609374999,355.72848914102224L917.2502343750001,354.74252243157673L918.8155078125001,355.9654047853386L920.3807812499999,356.57816557667445L921.9460546874999,358.2185821028816L923.5113281250001,358.1891700885068L925.0766015625001,355.1574135293873L926.641875,355.74056851400815L928.2071484375,355.6091183075345L929.7724218750001,355.1022654996016L931.3376953125,356.42430096805845L932.90296875,355.5299623264128L934.4682421875,356.47326055276665L936.0335156250001,357.53612395552506L937.5987890625,357.24881903348023L939.1640625,358.6257829560176L940.7293359375,359.4844987472377L942.2946093749999,359.1970133583626L943.8598828125,358.68487674151527L945.42515625,359.146520864596L946.9904296875,358.381574389356L948.5557031249999,358.09793292827385L950.1209765625,358.4767079157778L951.68625,358.0953948430555L953.2515234374999,359.5369261057512L954.8167968749999,358.7007655534337L956.3820703125001,358.8849101844812L957.9473437500001,357.9032495310758L959.5126171874999,357.0605867160349L961.0778906249999,355.6588705071301L962.6431640625001,356.1914328715458L964.2084375000001,357.8581850358959L965.7737109375,356.8257471841366L967.338984375,356.58578204324965L968.9042578125001,357.07549223205456L970.46953125,358.35211011356586L972.0348046875,359.2155589550117L973.600078125,359.5826415834672L975.1653515625001,359.6919667162146L976.730625,359.83340219396274L978.2958984375,357.32634210940853L979.861171875,358.32841047876605L981.4264453124999,358.9391250168317L982.99171875,360.0207812959246L984.5569921875,360.1426339013575L986.122265625,360.7541125696431L987.6875390624999,358.9773097391823L989.2528125,359.5251215058315L990.8180859375,358.1012991021256L992.3833593749999,356.43614035787783L993.9486328124999,356.7533758483427L995.5139062500001,356.7717900502957L997.0791796875001,357.098009516306L998.6444531249999,356.0481167515157L1000.2097265624999,356.412265761823L1001.7750000000001,357.58889084425664L1003.3402734375001,356.5672784059771L1004.905546875,357.87261165987906L1006.4708203125,357.6804748485648L1008.0360937500001,358.3466347688922L1009.6013671875,357.9239812813212L1011.166640625,358.7589671280283L1012.7319140625,358.6770828763957L1014.2971875000001,357.3449001291722L1015.8624609375,357.44906070131395L1017.427734375,357.5419362332214L1018.9930078125,357.30809411775823L1020.5582812499999,358.88960401664565L1022.1235546875,359.7246315505024L1023.688828125,359.5714216972967L1025.2541015625,358.60831464397074L1026.819375,358.98115527516535L1028.3846484375001,358.2231723361257L1029.949921875,358.9114288367874L1031.5151953125,358.55238968668573L1033.08046875,358.5665749098304L1034.6457421875,357.04422954306455L1036.211015625,357.9445111530454L1037.7762890625,358.6051688120056L1039.3415625,359.94212293490597L1040.9068359375,358.81050111605697L1042.472109375,358.9149722019369L1044.0373828125,357.4907425319205L1045.6026562499999,357.47588761694266L1047.1679296875,357.36169212126856L1048.733203125,357.09046515724566L1050.2984765625,356.7129760500392L1051.86375,357.78874409989277L1053.4290234375,357.98390515793534L1054.9942968750001,357.33130203337817L1056.5595703125,358.2013887974282L1058.1248437499999,358.13910409025664L1059.6901171875,358.15491541585726L1061.255390625,356.66324392023773L1062.8206640625,357.53358727650664L1064.3859375,357.7327533858065L1065.9512109375,357.06602877487256L1067.5164843750001,357.389880203916L1069.0817578125,357.5724068505934L1070.64703125,356.89753793105734L1072.2123046875,358.85080070930337L1073.777578125,359.99028880507404L1075.3428515625,358.5672387345443L1076.908125,359.24194110657544L1078.4733984375,359.34166009587807L1080.038671875,359.7736549911062L1081.6039453125,359.85758625383266L1083.16921875,358.82702208860564L1084.7344921874999,360.0264984808481L1086.299765625,356.6763516620844L1087.8650390625,358.44913611644193L1089.4303125,357.2528988051617L1090.9955859375,357.9804421482507L1092.560859375,356.9877578040683L1094.1261328125001,357.8945192351463L1095.3783515625,358.5160507913899" style="fill: none;" fill="none"></path></g></g></g></g><g opacity="0.2"><g><g><g><path stroke="rgb(238, 51, 119)" stroke-width="2px" d="M158.0926171875,38.56458632151287L159.657890625,136.24088503519692L161.22316406250002,169.46965713500975M164.3537109375,219.71308584213256L165.918984375,181.18870754241942L167.4842578125,210.4049587567647L169.04953125,245.13356796900428L170.61480468750003,269.4054549217224L172.18007812500002,263.8346484820048L173.74535156250002,248.20674317677816L175.31062500000002,296.42630620002745L176.87589843749998,246.9821302731832L178.44117187499998,284.455299504598L180.00644531249998,202.54073708852133L181.57171874999997,266.0105676015218L183.1369921875,308.00648612976073L184.702265625,280.8071915308634L186.2675390625,266.58612356185915L187.8328125,251.73671986262002L189.39808593749999,301.24121980667115L190.96335937499998,301.0081091562907L192.5286328125,294.3873640060425L194.09390625,311.40954089164734L195.6591796875,271.3664798418681L197.224453125,296.1781130472819L198.7897265625,312.6674647331238L200.35500000000002,311.9555610338847L201.92027343750001,307.3234890619914L203.485546875,318.047879298528L205.0508203125,311.7808868408203L206.61609375,336.53093465964L208.1813671875,327.77385222117107L209.74664062500003,320.4732499440511L211.31191406250002,317.72680236498513L212.87718750000002,334.1068253835042L214.44246093750002,337.27236818472545L216.00773437499998,331.25859038829805L217.57300781249998,330.38960575262706L219.13828124999998,274.4761119206746L220.70355468749997,332.8859726190567L222.268828125,335.44266050656637L223.8341015625,336.8551545302073L225.399375,327.6173974752426L226.9646484375,346.42655727068586L228.52992187499999,341.79196855227156L230.09519531249998,332.65160359541574L231.66046875,327.30448798338574L233.2257421875,326.30669685999555L234.791015625,345.0511343240738L236.3562890625,341.7687216043472L237.9215625,338.5290336529414L239.48683593750002,324.8872877756755L241.05210937500001,339.84036645094557L242.6173828125,328.59005708694457L244.18265625,330.41725101470945L245.7479296875,305.3203625679016L247.313203125,340.7018128315608L248.87847656250003,324.6064248561859L250.44375000000002,335.5878078699112L252.00902343750002,334.79484995206195L253.57429687500002,331.424470949173L255.13957031249998,339.36471933523814L256.70484375,342.04958751996355L258.2701171875,341.4457571109136L259.835390625,328.1376569191615L261.40066406249997,337.93274749120076L262.9659375,338.4812813838323L264.53121093749996,345.2773359060287L266.096484375,334.3393068472544L267.6617578125,341.6681895653407L269.22703125,344.19408925374347L270.7923046875,342.8683061361313L272.357578125,334.3462189118068L273.9228515625,338.39834260145824L275.488125,330.7716328938802L277.0533984375,335.6317910114924L278.618671875,331.81466553211214L280.1839453125,317.51128497123716L281.74921875,341.52806970278425L283.31449218750004,339.03421359062196L284.879765625,346.1444359779358L286.44503906250003,332.3204746564229L288.0103125,338.078521045049L289.5755859375,298.1064682006836L291.140859375,336.69178771972656L292.7061328125,340.32543938159944L294.27140625,329.03366062641146L295.8366796875,342.77782610257464L297.401953125,303.5943298657735L298.9672265625,345.01971693833667L300.53249999999997,333.16935228506725L302.0977734375,328.0779680808385L303.66304687499996,336.88845647970834L305.2283203125,340.44482305049894L306.79359375,347.3169042905172L308.3588671875,338.1583168903987L309.924140625,320.0346709092458L311.4894140625,305.3970154762268L313.0546875,326.2645952860514L314.61996093749997,331.0870561361313L316.185234375,343.60471216042833L317.75050781249996,345.5663692633311L319.31578125,343.9094542105993L320.88105468749995,347.279204026858L322.44632812500004,339.60537123680115L324.01160156249995,344.46490016778307L325.57687500000003,338.8777588446935L327.1421484375,342.3329641898473L328.707421875,347.3464371124903L330.2726953125,341.93020385106405L331.83796875,346.1111340284348L333.4032421875,340.3838758389155L334.968515625,346.3046598513921L336.5337890625,348.55472112496693L338.0990625,344.4592464764913L339.66433593749997,346.4359830856323L341.22960937500005,332.90168131192524L342.79488281249996,340.0835321029027L344.36015625000005,340.43728479544325L345.9254296875,340.23558853467307L347.49070312500004,344.30970079898833L349.0559765625,335.63367557525635L350.62125000000003,309.23676171302793L352.1865234375,330.24760132630666L353.75179687499997,343.8648418823878L355.3170703125,314.7177143096924L356.88234374999996,335.19132741292316L358.4476171875,337.12345468997955L360.01289062499995,345.9647312879562L361.57816406250004,340.59876404603324L363.14343749999995,345.1466418584188L364.70871093750003,325.6161555449168L366.273984375,345.6103524049123L367.8392578125,349.5053891658783L369.40453125,335.62550813357035L370.9698046875,343.05491989453634L372.535078125,337.3414858341217L374.1003515625,343.9974204937617L375.665625,338.0288812160492L377.2308984375,348.7589311361313L378.79617187499997,338.13192700544994L380.36144531250005,326.15275586446126L381.92671874999996,337.5965880552928L383.49199218750005,339.34021401405334L385.057265625,320.3884236017863L386.62253906250004,339.3653455257416L388.1878125,350.21352074146273L389.75308593750003,332.47504184246066L391.318359375,333.7398777484894L392.88363281249997,339.83785270055137L394.44890625,309.0633458932241L396.01417968749996,344.4561035394669L397.579453125,345.74355720678966L399.14472656249995,343.435688662529L400.71000000000004,347.91822094917296L402.27527343749995,349.2817043304443L403.84054687500003,352.9386029402415L405.4058203125,351.6863357861837L406.97109375,338.44169655640917L408.5363671875,349.7636343240738L410.101640625,338.49196257591245L411.6669140625,342.44606498082476L413.2321875,343.7454582134883L414.7974609375,339.0499222834905L416.362734375,342.16834200223286L417.92800781249997,344.9593989133835L419.49328125000005,348.7469915707906L421.05855468749996,341.8956435283025L422.62382812500005,352.20847979386645L424.1891015625,337.4878855784734L425.75437500000004,342.2179788351059L427.3196484375,350.6470722754796L428.88492187500003,344.12685616811115L430.4501953125,345.52364149888353L432.01546874999997,340.60442073345183L433.5807421875,347.6247892777125L435.14601562499996,345.37598338127134L436.7112890625,338.8532535235087L438.27656249999995,330.57810407479604L439.84183593750004,343.6279591083527L441.40710937499995,349.4507248322169L442.97238281250003,350.54591104984286L444.53765625,341.9270609140396L446.1029296875,345.12276572386423L447.668203125,350.5389989852905L449.2334765625,355.10949455897014L450.79875,345.6851237456004L452.3640234375,350.95495426654816L453.929296875,355.2621801773707L455.4945703125,348.6935826142629L457.05984374999997,344.9430610338847L458.62511718750005,345.4143128315608L460.19039062499996,330.44803921381634L461.75566406250005,303.44415799776715L463.3209375,346.59369320869445L464.88621093750004,340.9537721157074L466.451484375,349.2641110738118L468.01675781250003,355.00519189437233L469.58203125,351.91442043383915L471.14730468749997,348.85883398850757L472.712578125,340.02069733142855L474.27785156249996,345.2842479705811L475.843125,352.59239149888356L477.40839843749995,352.02375059922537L478.97367187500004,348.9612535874049L480.53894531249995,348.5063396692276L482.10421875000003,330.7515258868535L483.6694921875,350.34233022530873L485.234765625,344.71748863856L486.8000390625,348.9474294583003L488.3653125,343.1567103068034L489.9305859375,349.35270354747774L491.495859375,348.6552561601003L493.0611328125,344.7375956455867L494.62640625,347.4551395893097L496.19167968749997,348.2462099472682L497.75695312500005,346.6238522211711L499.32222656249996,341.47403455575306L500.88750000000005,352.91472680568694L502.4527734375,349.63545402685804L504.01804687500004,352.75638599793115L505.5833203125,348.80479884147644L507.14859375000003,348.78594721158345L508.7138671875,354.96749163071314L510.27914062499997,345.34833811918895L511.8444140625,351.5078894694646L513.4096875,343.6970767577489L514.9749609375,355.8396177053452L516.540234375,349.9439652045568L518.1055078125,350.95369888941445L519.67078125,354.1619679570198L521.2360546875,329.1084319670995L522.8013281249999,351.76550544102986L524.3666015625,350.8745292345683L525.931875,344.08852971394856L527.4971484375001,352.5502929210663L529.0624218749999,343.61664872964224L530.6276953125,355.0655114173889L532.19296875,349.3413961648941L533.7582421875001,347.2421329498291L535.323515625,353.063012611866L536.8887890625,352.11234457095463L538.4540625,349.7925379594167L540.0193359375,351.35645922819776L541.584609375,353.858482782046L543.1498828125,352.6797300934792L544.71515625,349.51669954458873L546.2804296875,350.7752525726954L547.845703125,347.41115644772844L549.4109765625,350.13058195908866L550.97625,351.3061932086945L552.5415234375,354.28260850111644L554.106796875,346.48561991850534L555.6720703125,349.2992975870768L557.23734375,355.4129797339439L558.8026171875,339.2465910434723L560.367890625,354.50063964525856L561.9331640624999,340.61510192553203L563.4984375,352.31341164509456L565.0637109375,343.0580628315608L566.6289843750001,352.431538438797L568.1942578124999,350.02816236019135L569.75953125,344.1972291946411L571.3248046875,356.3033282518387L572.8900781250001,343.0580628315608L574.4553515625,354.5188620885213L576.020625,352.5408686041832L577.5858984375,358.5383100191752L579.151171875,348.89402050177256L580.7164453125,352.50316834052404L582.28171875,352.31466852029166L583.8469921875,334.55796717802684L585.412265625,354.2970603187879L586.9775390625,349.5324082374573L588.5428125,353.29612476030985L590.1080859375,341.25223128795625L591.673359375,344.2518935283025L593.2386328125,354.1726506471634L594.80390625,347.1975206216176L596.3691796875,346.94807209173837L597.934453125,352.9605945110321L599.4997265625,351.41552187601724L601.0649999999999,351.56946586767833L602.6302734375,356.03880021572115L604.195546875,344.66282430489855L605.7608203125001,355.11766349871954L607.3260937499999,355.4054399808248L608.8913671875,351.056115492185L610.456640625,344.881484635671L612.0219140625001,351.529251853625L613.5871875,350.5276886065801L615.1524609375,354.90214460690817L616.717734375,353.70202803611755L618.2830078125,351.08879125118256L619.84828125,353.5688217361768L621.4135546875,353.87796210050584L622.978828125,350.3611788590749L624.5441015625,354.8506217122078L626.109375,355.8647522131602L627.6746484375,355.32878407637276L629.2399218749999,310.8434107462565L630.8051953125,354.38125597635906L632.37046875,357.1101088007291L633.9357421875,356.13367856343586L635.5010156249999,346.7036510626475L637.0662890625,353.7397282997767L638.6315625,358.191469391187L640.1968359374999,357.65738731622696L641.7621093749999,350.5239194790522L643.3273828125001,354.58986280361813L644.8926562500001,304.2163797219594L646.4579296874999,347.47713116010027L648.0232031249999,351.4896670262019L649.5884765625001,355.3658551534017L651.1537500000001,353.14846664269766L652.7190234375,349.02534373601276L654.284296875,359.31807149648665L655.8495703125001,355.8358485778173L657.41484375,351.4884086529414L658.9801171875,358.8292279402415L660.545390625,354.4007352948189L662.1106640625001,355.58828461170197L663.6759375,353.6919745326042L665.2412109375,351.60150944391887L666.806484375,354.65709439118706L668.3717578124999,353.6536465803782L669.93703125,350.87641379833224L671.5023046875,356.46920881271365L673.067578125,349.7510685682297L674.6328515624999,355.1503362615903L676.198125,355.79563456376394L677.7633984375,355.3784224073092L679.3286718749999,354.2015527844429L680.8939453124999,353.3727821628253L682.4592187500001,353.7692596236865L684.0244921875001,354.4145579258601L685.5897656249999,357.2684481104215L687.1550390624999,351.65554758707685L688.7203125000001,347.4293758948644L690.2855859375001,354.0551515420278L691.850859375,333.6449994007746L693.4161328125,351.9935900886853L694.9814062500001,352.6376315156619L696.5466796875,354.55593316555024L698.111953125,355.8276796380679L699.6772265625,356.55843197107316L701.2425000000001,354.14877301454544L702.8077734375,350.84122728506725L704.373046875,355.45947662591936L705.9383203125,352.155700023969L707.5035937499999,357.6071197986603L709.0688671875,357.2332615971565L710.634140625,355.1214326262474L712.1994140625,356.7287093480428L713.7646874999999,354.91031354665756L715.3299609375,353.4481811920802L716.895234375,361.6297106663386L718.4605078124999,350.04575561682384L720.0257812499999,351.3658850431442L721.5910546875001,351.69136029084524L723.1563281250001,354.15254364013674L724.7216015624999,353.3708961009979L726.2868749999999,354.4604271292686L727.8521484375001,353.8478015899658L729.4174218750001,352.1129737575849L730.9826953125,353.7177367289861L732.54796875,356.2348397890727L734.1132421875001,350.87641379833224L735.678515625,354.5597037911415L737.2437890625,359.9639989852905L738.8090625,357.62911136945087L740.3743359375001,352.2725699424744L741.939609375,355.1522223234177L743.5048828125,341.12530936400094L745.07015625,354.12175544102985L746.6354296874999,356.82924288511276L748.200703125,355.30113731622697L749.7659765625,357.2916965564092L751.33125,353.0611280481021L752.8965234374999,353.1830254673958L754.461796875,351.3640004793803L756.0270703125,360.6394562999407L757.5923437499999,356.73499372402824L759.1576171874999,358.83111400206883L760.7228906250001,349.5305236736933L762.2881640625001,355.2496129234632L763.8534374999999,356.2706554889679L765.4187109374999,348.14567790826163L766.9839843750001,351.53553473154705L768.5492578125001,357.58764197826383L770.11453125,355.7026422778765L771.6798046875,359.18926351070405L773.2450781250001,357.41547853946685L774.8103515625,356.9184660434723L776.375625,359.0931282877922L777.9408984375,346.4912736097972L779.5061718750001,355.2841717481613L781.0714453125,355.26657849152883L782.63671875,355.7064114054044L784.2019921875,358.92410628795625L785.7672656249999,356.7406489133835L787.3325390625,358.49809600512185L788.8978125,353.96718525886536L790.4630859375,356.5647148489952L792.0283593749999,358.5420806447665L793.5936328125,356.53832496404647L795.15890625,342.08226028283434L796.7241796874999,356.0589072227478L798.2894531249999,356.08089879353844L799.8547265625001,358.88200771013896L801.4200000000001,359.0258967002233L802.9852734374999,359.14465118249257L804.5505468749999,356.02811902364095L806.1158203125001,357.9162601629893L807.6810937500001,356.64262762864433L809.2463671875,358.52260132630664L810.811640625,353.73344542185464L812.3769140625001,354.5050379594167L813.9421875,353.56002510786055L815.5074609375,356.70734696388246L817.072734375,355.20562978188195L818.6380078125001,359.97153873840966L820.20328125,356.52890064716337L821.7685546875,355.8396177053452L823.333828125,357.4764272491137L824.8991015624999,351.33258309364317L826.464375,350.6615225950877L828.0296484375,350.37311842441557L829.594921875,355.54555834531783L831.1601953124999,356.9222366690636L832.72546875,356.1217404961586L834.2907421875,352.9015318632126L835.8560156249999,360.3629901965459L837.4212890624999,350.3417010386785L838.9865625000001,354.9178532997767L840.5518359375001,356.5929892977079L842.1171093749999,357.7905936161677L843.6823828124999,359.58197184403735L845.2476562500001,356.2983022491137L846.8129296875001,356.22604316075643L848.378203125,344.76273015340166L849.9434765625,353.58578730424244L851.5087500000001,354.99325382709503L853.0740234375,355.50157520373665L854.639296875,349.70582705338796L856.2045703125,356.7192850311597L857.7698437500001,359.3105317433675L859.3351171875,359.1685288151105L860.900390625,355.80254662831624L862.4656640625,358.6243917385737L864.0309374999999,351.0869036912918L865.5962109375,359.9413782278697L867.161484375,359.2740883549055L868.7267578125,354.5597037911415L870.2920312499999,357.2602806687355L871.8573046875,359.3243543744087L873.422578125,356.7921718080839L874.9878515624999,350.47742258707683L876.5531249999999,358.89017664988836L878.1183984375001,358.65078162352245L879.6836718750001,357.206244023641L881.2489453124999,353.12961651086806L882.8142187499999,357.8245232542356L884.3794921875001,358.46793699264526L885.9447656250001,358.41829866170883L887.5100390625,353.9854062040647L889.0753125,354.92099473873776L890.6405859375001,352.6715611537297L892.205859375,356.64137225151063L893.7711328125,354.43969093561174L895.33640625,359.11386298338573L896.9016796875001,359.73088683684665L898.466953125,357.3149450023969L900.0322265625,359.17041337887446L901.5975,355.74913767178856L903.1627734374999,352.8418400287628L904.728046875,357.832692193985L906.2933203125,353.7328162352244L907.85859375,357.14089699983595L909.4238671874999,355.8044311920802L910.989140625,352.94425812959673L912.5544140625,355.8169984459877L914.1196874999999,355.99858620166776L915.6849609374999,356.17640482982L917.2502343750001,352.77649300495784L918.8155078125001,358.4038468440374L920.3807812499999,357.8000179330508L921.9460546874999,361.48959230184556L923.5113281250001,358.1305221796036L925.0766015625001,349.1120546420415L926.641875,356.903386537234L928.2071484375,355.3470050215721L929.7724218750001,354.09159493048986L931.3376953125,359.0604555249214L932.90296875,353.74664036432904L934.4682421875,358.35420851310096L936.0335156250001,359.6554863095283L937.5987890625,356.6759295781454L939.1640625,361.3714655081431L940.7293359375,361.1967883189519L942.2946093749999,358.62376405000686L943.8598828125,357.663670194149L945.42515625,360.0670447746913L946.9904296875,356.85626195669175L948.5557031249999,357.5323484579722L950.1209765625,359.2319897770882L951.68625,357.3350520094236L953.2515234374999,362.411356707414L954.8167968749999,357.0334513982137L956.3820703125001,359.2520967841148L957.9473437500001,355.94580643177034L959.5126171874999,355.38030697107314L961.0778906249999,352.8638315995534L962.6431640625001,357.2533686041832L964.2084375000001,361.1817088127136L965.7737109375,354.76705374320346L967.338984375,356.1072886784871L968.9042578125001,358.0519802133242L970.46953125,360.8977014581362L972.0348046875,360.9372862855593L973.600078125,360.3146087408066L975.1653515625001,359.909962340196L976.730625,360.1154262304306L978.2958984375,352.32723427613575L979.861171875,360.32654680808383L981.4264453124999,360.15689711968105L982.99171875,362.1776168704033L984.5569921875,360.38560945590336L986.122265625,361.97340835730233L987.6875390624999,355.4343436161677L989.2528125,360.61746472915013L990.8180859375,355.2621801773707L992.3833593749999,353.11579387982687L993.9486328124999,357.3859472155571L995.5139062500001,356.8085081895193L997.0791796875001,357.7484950383504L998.6444531249999,353.9546180049578L1000.2097265624999,357.1383832494418L1001.7750000000001,359.93509534994763L1003.3402734375001,354.53017096916835L1004.905546875,360.47546180089313L1006.4708203125,357.2973517457644L1008.0360937500001,359.6749656279882L1009.6013671875,357.0812051653862L1011.166640625,360.4239389061928L1012.7319140625,358.5138046979904L1014.2971875000001,354.68851177692414L1015.8624609375,357.6567581295967L1017.427734375,357.72713115612663L1018.9930078125,356.8418101390203L1020.5582812499999,362.04315369526546L1022.1235546875,361.38968645334245L1023.688828125,359.265919415156L1025.2541015625,356.6878676454226L1026.819375,359.7246039589246L1028.3846484375001,356.71174527804055L1029.949921875,360.28382054169975L1031.5151953125,357.83646132151284L1033.08046875,358.59486041466397L1034.6457421875,354.0086546500524L1036.211015625,359.7396834651629L1037.7762890625,359.9225280960401L1039.3415625,362.6080254673958L1040.9068359375,356.554033656915L1042.472109375,359.1232887983322L1044.0373828125,354.65081151326496L1045.6026562499999,357.4462667385737L1047.1679296875,357.13398493528365L1048.733203125,356.5496353427569L1050.2984765625,355.9602582494418L1051.86375,359.93383847475053L1053.4290234375,358.3730586449305L1054.9942968750001,356.0300035874049L1056.5595703125,359.93635222514473L1058.1248437499999,358.01490763823193L1059.6901171875,358.18644338846207L1061.255390625,353.6888330936432L1062.8206640625,359.26906235218047L1064.3859375,358.12989299297334L1065.9512109375,355.7365719159444L1067.5164843750001,358.0356438318888L1069.0817578125,357.93636717001596L1070.64703125,355.5518412232399L1072.2123046875,362.74563008149465L1073.777578125,362.2624417146047L1075.3428515625,355.7296598513921L1076.908125,360.58730571667354L1078.4733984375,359.5405009547869L1080.038671875,360.6350579857826L1081.6039453125,360.024946196874L1083.16921875,356.7720648010572L1084.7344921874999,362.4182687719663L1086.299765625,349.9961187839508L1087.8650390625,361.98408954938253L1089.4303125,354.8675872802734L1090.9955859375,359.43117228746416L1092.560859375,355.0083333333333L1094.1261328125001,359.702612388134L1095.3783515625,359.75539215803144" style="fill: none;" fill="none"></path></g></g></g></g></g></g><g transform="translate(30, 377)" clip-path="url(#clip_1)"><clipPath id="clip_1"><rect width="1252" height="23"></rect></clipPath><g><g><line x1="0" y1="0" x2="0" y2="5" style="visibility: inherit;" fill="rgb(0, 0, 0)" stroke="rgb(204, 204, 204)" stroke-width="1px"></line><line x1="156.52734375" y1="0" x2="156.52734375" y2="5" style="visibility: inherit;" fill="rgb(0, 0, 0)" stroke="rgb(204, 204, 204)" stroke-width="1px"></line><line x1="313.0546875" y1="0" x2="313.0546875" y2="5" style="visibility: inherit;" fill="rgb(0, 0, 0)" stroke="rgb(204, 204, 204)" stroke-width="1px"></line><line x1="469.58203125" y1="0" x2="469.58203125" y2="5" style="visibility: inherit;" fill="rgb(0, 0, 0)" stroke="rgb(204, 204, 204)" stroke-width="1px"></line><line x1="626.109375" y1="0" x2="626.109375" y2="5" style="visibility: inherit;" fill="rgb(0, 0, 0)" stroke="rgb(204, 204, 204)" stroke-width="1px"></line><line x1="782.63671875" y1="0" x2="782.63671875" y2="5" style="visibility: inherit;" fill="rgb(0, 0, 0)" stroke="rgb(204, 204, 204)" stroke-width="1px"></line><line x1="939.1640625" y1="0" x2="939.1640625" y2="5" style="visibility: inherit;" fill="rgb(0, 0, 0)" stroke="rgb(204, 204, 204)" stroke-width="1px"></line><line x1="1095.69140625" y1="0" x2="1095.69140625" y2="5" style="visibility: inherit;" fill="rgb(0, 0, 0)" stroke="rgb(204, 204, 204)" stroke-width="1px"></line><line x1="1252.21875" y1="0" x2="1252.21875" y2="5" style="visibility: inherit;" fill="rgb(0, 0, 0)" stroke="rgb(204, 204, 204)" stroke-width="1px"></line></g><g transform="translate(0, 8)"><text x="0" y="0" dx="0em" dy="0.95em" style="text-anchor: middle; visibility: hidden; font-family: Roboto, sans-serif; font-size: 12px; font-weight: 200;" fill="rgb(255, 255, 255)" stroke="none" stroke-width="1px">-500</text><text x="156.52734375" y="0" dx="0em" dy="0.95em" style="text-anchor: middle; visibility: inherit; font-family: Roboto, sans-serif; font-size: 12px; font-weight: 200;" fill="rgb(255, 255, 255)" stroke="none" stroke-width="1px">0</text><text x="313.0546875" y="0" dx="0em" dy="0.95em" style="text-anchor: middle; visibility: inherit; font-family: Roboto, sans-serif; font-size: 12px; font-weight: 200;" fill="rgb(255, 255, 255)" stroke="none" stroke-width="1px">500</text><text x="469.58203125" y="0" dx="0em" dy="0.95em" style="text-anchor: middle; visibility: inherit; font-family: Roboto, sans-serif; font-size: 12px; font-weight: 200;" fill="rgb(255, 255, 255)" stroke="none" stroke-width="1px">1k</text><text x="626.109375" y="0" dx="0em" dy="0.95em" style="text-anchor: middle; visibility: inherit; font-family: Roboto, sans-serif; font-size: 12px; font-weight: 200;" fill="rgb(255, 255, 255)" stroke="none" stroke-width="1px">1.5k</text><text x="782.63671875" y="0" dx="0em" dy="0.95em" style="text-anchor: middle; visibility: inherit; font-family: Roboto, sans-serif; font-size: 12px; font-weight: 200;" fill="rgb(255, 255, 255)" stroke="none" stroke-width="1px">2k</text><text x="939.1640625" y="0" dx="0em" dy="0.95em" style="text-anchor: middle; visibility: inherit; font-family: Roboto, sans-serif; font-size: 12px; font-weight: 200;" fill="rgb(255, 255, 255)" stroke="none" stroke-width="1px">2.5k</text><text x="1095.69140625" y="0" dx="0em" dy="0.95em" style="text-anchor: middle; visibility: inherit; font-family: Roboto, sans-serif; font-size: 12px; font-weight: 200;" fill="rgb(255, 255, 255)" stroke="none" stroke-width="1px">3k</text><text x="1252.21875" y="0" dx="0em" dy="0.95em" style="text-anchor: middle; visibility: hidden; font-family: Roboto, sans-serif; font-size: 12px; font-weight: 200;" fill="rgb(255, 255, 255)" stroke="none" stroke-width="1px">3.5k</text></g><line x1="0" y1="0" x2="1252.21875" y2="0" fill="rgb(0, 0, 0)" stroke="rgb(204, 204, 204)" stroke-width="1px"></line></g></g></g></g></svg>