<svg viewBox="0 0 1283 400" xmlns="http://www.w3.org/2000/svg"><g><g><g><g><g><line x1="72.34375" y1="377" x2="67.34375" y2="377" style="visibility: inherit;" fill="rgb(0, 0, 0)" stroke="rgb(204, 204, 204)" stroke-width="1px"></line><line x1="72.34375" y1="348" x2="67.34375" y2="348" style="visibility: inherit;" fill="rgb(0, 0, 0)" stroke="rgb(204, 204, 204)" stroke-width="1px"></line><line x1="72.34375" y1="319" x2="67.34375" y2="319" style="visibility: inherit;" fill="rgb(0, 0, 0)" stroke="rgb(204, 204, 204)" stroke-width="1px"></line><line x1="72.34375" y1="290" x2="67.34375" y2="290" style="visibility: inherit;" fill="rgb(0, 0, 0)" stroke="rgb(204, 204, 204)" stroke-width="1px"></line><line x1="72.34375" y1="261" x2="67.34375" y2="261" style="visibility: inherit;" fill="rgb(0, 0, 0)" stroke="rgb(204, 204, 204)" stroke-width="1px"></line><line x1="72.34375" y1="232" x2="67.34375" y2="232" style="visibility: inherit;" fill="rgb(0, 0, 0)" stroke="rgb(204, 204, 204)" stroke-width="1px"></line><line x1="72.34375" y1="203.00000000000003" x2="67.34375" y2="203.00000000000003" style="visibility: inherit;" fill="rgb(0, 0, 0)" stroke="rgb(204, 204, 204)" stroke-width="1px"></line><line x1="72.34375" y1="174" x2="67.34375" y2="174" style="visibility: inherit;" fill="rgb(0, 0, 0)" stroke="rgb(204, 204, 204)" stroke-width="1px"></line><line x1="72.34375" y1="145.00000000000003" x2="67.34375" y2="145.00000000000003" style="visibility: inherit;" fill="rgb(0, 0, 0)" stroke="rgb(204, 204, 204)" stroke-width="1px"></line><line x1="72.34375" y1="116" x2="67.34375" y2="116" style="visibility: inherit;" fill="rgb(0, 0, 0)" stroke="rgb(204, 204, 204)" stroke-width="1px"></line><line x1="72.34375" y1="86.99999999999999" x2="67.34375" y2="86.99999999999999" style="visibility: inherit;" fill="rgb(0, 0, 0)" stroke="rgb(204, 204, 204)" stroke-width="1px"></line><line x1="72.34375" y1="57.999999999999964" x2="67.34375" y2="57.999999999999964" style="visibility: inherit;" fill="rgb(0, 0, 0)" stroke="rgb(204, 204, 204)" stroke-width="1px"></line><line x1="72.34375" y1="29.00000000000002" x2="67.34375" y2="29.00000000000002" style="visibility: inherit;" fill="rgb(0, 0, 0)" stroke="rgb(204, 204, 204)" stroke-width="1px"></line><line x1="72.34375" y1="0" x2="67.34375" y2="0" style="visibility: inherit;" fill="rgb(0, 0, 0)" stroke="rgb(204, 204, 204)" stroke-width="1px"></line></g><g transform="translate(62.34375, 0)"><text x="0" y="377" dx="0em" dy="0.3em" style="text-anchor: end; visibility: hidden; font-family: Roboto, sans-serif; font-size: 12px; font-weight: 200;" fill="rgb(255, 255, 255)" stroke="none" stroke-width="1px">-2e-6</text><text x="0" y="348" dx="0em" dy="0.3em" style="text-anchor: end; visibility: inherit; font-family: Roboto, sans-serif; font-size: 12px; font-weight: 200;" fill="rgb(255, 255, 255)" stroke="none" stroke-width="1px">0</text><text x="0" y="319" dx="0em" dy="0.3em" style="text-anchor: end; visibility: inherit; font-family: Roboto, sans-serif; font-size: 12px; font-weight: 200;" fill="rgb(255, 255, 255)" stroke="none" stroke-width="1px">2e-6</text><text x="0" y="290" dx="0em" dy="0.3em" style="text-anchor: end; visibility: inherit; font-family: Roboto, sans-serif; font-size: 12px; font-weight: 200;" fill="rgb(255, 255, 255)" stroke="none" stroke-width="1px">4e-6</text><text x="0" y="261" dx="0em" dy="0.3em" style="text-anchor: end; visibility: inherit; font-family: Roboto, sans-serif; font-size: 12px; font-weight: 200;" fill="rgb(255, 255, 255)" stroke="none" stroke-width="1px">6e-6</text><text x="0" y="232" dx="0em" dy="0.3em" style="text-anchor: end; visibility: inherit; font-family: Roboto, sans-serif; font-size: 12px; font-weight: 200;" fill="rgb(255, 255, 255)" stroke="none" stroke-width="1px">8e-6</text><text x="0" y="203.00000000000003" dx="0em" dy="0.3em" style="text-anchor: end; visibility: inherit; font-family: Roboto, sans-serif; font-size: 12px; font-weight: 200;" fill="rgb(255, 255, 255)" stroke="none" stroke-width="1px">1e-5</text><text x="0" y="174" dx="0em" dy="0.3em" style="text-anchor: end; visibility: inherit; font-family: Roboto, sans-serif; font-size: 12px; font-weight: 200;" fill="rgb(255, 255, 255)" stroke="none" stroke-width="1px">1.2e-5</text><text x="0" y="145.00000000000003" dx="0em" dy="0.3em" style="text-anchor: end; visibility: inherit; font-family: Roboto, sans-serif; font-size: 12px; font-weight: 200;" fill="rgb(255, 255, 255)" stroke="none" stroke-width="1px">1.4e-5</text><text x="0" y="116" dx="0em" dy="0.3em" style="text-anchor: end; visibility: inherit; font-family: Roboto, sans-serif; font-size: 12px; font-weight: 200;" fill="rgb(255, 255, 255)" stroke="none" stroke-width="1px">1.6e-5</text><text x="0" y="86.99999999999999" dx="0em" dy="0.3em" style="text-anchor: end; visibility: inherit; font-family: Roboto, sans-serif; font-size: 12px; font-weight: 200;" fill="rgb(255, 255, 255)" stroke="none" stroke-width="1px">1.8e-5</text><text x="0" y="57.999999999999964" dx="0em" dy="0.3em" style="text-anchor: end; visibility: inherit; font-family: Roboto, sans-serif; font-size: 12px; font-weight: 200;" fill="rgb(255, 255, 255)" stroke="none" stroke-width="1px">2e-5</text><text x="0" y="29.00000000000002" dx="0em" dy="0.3em" style="text-anchor: end; visibility: inherit; font-family: Roboto, sans-serif; font-size: 12px; font-weight: 200;" fill="rgb(255, 255, 255)" stroke="none" stroke-width="1px">2.2e-5</text><text x="0" y="0" dx="0em" dy="0.3em" style="text-anchor: end; visibility: hidden; font-family: Roboto, sans-serif; font-size: 12px; font-weight: 200;" fill="rgb(255, 255, 255)" stroke="none" stroke-width="1px">2.4e-5</text></g><line x1="72.34375" y1="0" x2="72.34375" y2="377" fill="rgb(0, 0, 0)" stroke="rgb(204, 204, 204)" stroke-width="1px"></line></g></g><g transform="translate(72, 0)" clip-path="url(#clip_0)"><clipPath id="clip_0"><rect width="1210" height="377"></rect></clipPath><g><g><g><line x1="0" y1="0" x2="0" y2="377" fill="rgb(0, 0, 0)" stroke="rgb(189, 189, 189)" stroke-width="1px" opacity="0.25"></line><line x1="151.33203125" y1="0" x2="151.33203125" y2="377" fill="rgb(0, 0, 0)" stroke="rgb(189, 189, 189)" stroke-width="1px" opacity="0.25"></line><line x1="302.6640625" y1="0" x2="302.6640625" y2="377" fill="rgb(0, 0, 0)" stroke="rgb(189, 189, 189)" stroke-width="1px" opacity="0.25"></line><line x1="453.99609375" y1="0" x2="453.99609375" y2="377" fill="rgb(0, 0, 0)" stroke="rgb(189, 189, 189)" stroke-width="1px" opacity="0.25"></line><line x1="605.328125" y1="0" x2="605.328125" y2="377" fill="rgb(0, 0, 0)" stroke="rgb(189, 189, 189)" stroke-width="1px" opacity="0.25"></line><line x1="756.66015625" y1="0" x2="756.66015625" y2="377" fill="rgb(0, 0, 0)" stroke="rgb(189, 189, 189)" stroke-width="1px" opacity="0.25"></line><line x1="907.9921875" y1="0" x2="907.9921875" y2="377" fill="rgb(0, 0, 0)" stroke="rgb(189, 189, 189)" stroke-width="1px" opacity="0.25"></line><line x1="1059.32421875" y1="0" x2="1059.32421875" y2="377" fill="rgb(0, 0, 0)" stroke="rgb(189, 189, 189)" stroke-width="1px" opacity="0.25"></line><line x1="1210.65625" y1="0" x2="1210.65625" y2="377" fill="rgb(0, 0, 0)" stroke="rgb(189, 189, 189)" stroke-width="1px" opacity="0.25"></line></g><g><line x1="0" y1="377" x2="1210.65625" y2="377" fill="rgb(0, 0, 0)" stroke="rgb(189, 189, 189)" stroke-width="1px" opacity="0.25"></line><line x1="0" y1="348" x2="1210.65625" y2="348" fill="rgb(0, 0, 0)" stroke="rgb(189, 189, 189)" stroke-width="1px" opacity="0.25"></line><line x1="0" y1="319" x2="1210.65625" y2="319" fill="rgb(0, 0, 0)" stroke="rgb(189, 189, 189)" stroke-width="1px" opacity="0.25"></line><line x1="0" y1="290" x2="1210.65625" y2="290" fill="rgb(0, 0, 0)" stroke="rgb(189, 189, 189)" stroke-width="1px" opacity="0.25"></line><line x1="0" y1="261" x2="1210.65625" y2="261" fill="rgb(0, 0, 0)" stroke="rgb(189, 189, 189)" stroke-width="1px" opacity="0.25"></line><line x1="0" y1="232" x2="1210.65625" y2="232" fill="rgb(0, 0, 0)" stroke="rgb(189, 189, 189)" stroke-width="1px" opacity="0.25"></line><line x1="0" y1="203.00000000000003" x2="1210.65625" y2="203.00000000000003" fill="rgb(0, 0, 0)" stroke="rgb(189, 189, 189)" stroke-width="1px" opacity="0.25"></line><line x1="0" y1="174" x2="1210.65625" y2="174" fill="rgb(0, 0, 0)" stroke="rgb(189, 189, 189)" stroke-width="1px" opacity="0.25"></line><line x1="0" y1="145.00000000000003" x2="1210.65625" y2="145.00000000000003" fill="rgb(0, 0, 0)" stroke="rgb(189, 189, 189)" stroke-width="1px" opacity="0.25"></line><line x1="0" y1="116" x2="1210.65625" y2="116" fill="rgb(0, 0, 0)" stroke="rgb(189, 189, 189)" stroke-width="1px" opacity="0.25"></line><line x1="0" y1="86.99999999999999" x2="1210.65625" y2="86.99999999999999" fill="rgb(0, 0, 0)" stroke="rgb(189, 189, 189)" stroke-width="1px" opacity="0.25"></line><line x1="0" y1="57.999999999999964" x2="1210.65625" y2="57.999999999999964" fill="rgb(0, 0, 0)" stroke="rgb(189, 189, 189)" stroke-width="1px" opacity="0.25"></line><line x1="0" y1="29.00000000000002" x2="1210.65625" y2="29.00000000000002" fill="rgb(0, 0, 0)" stroke="rgb(189, 189, 189)" stroke-width="1px" opacity="0.25"></line><line x1="0" y1="0" x2="1210.65625" y2="0" fill="rgb(0, 0, 0)" stroke="rgb(189, 189, 189)" stroke-width="1px" opacity="0.25"></line></g></g></g><g><g><line x1="0" y1="348" x2="1210.65625" y2="348" fill="rgb(0, 0, 0)" stroke="rgb(153, 153, 153)" stroke-width="1.5px"></line></g></g><g><g><line x1="151.33203125" y1="0" x2="151.33203125" y2="377" fill="rgb(0, 0, 0)" stroke="rgb(153, 153, 153)" stroke-width="1.5px"></line></g></g><g><g><g><g><g><path stroke="rgb(238, 51, 119)" stroke-width="2px" d="M151.33203125,333.500000036609L152.8453515625,333.500000036609L154.358671875,333.500000036609L155.8719921875,333.500000036609L157.3853125,333.500000036609L158.8986328125,333.500000036609L160.411953125,333.500000036609L161.9252734375,333.500000036609L163.43859375000002,333.500000036609L164.9519140625,333.500000036609L166.46523437500002,333.500000036609L167.9785546875,333.500000036609L169.49187500000002,333.500000036609L171.00519531249998,333.500000036609L172.518515625,333.500000036609L174.03183593749998,333.500000036609L175.54515625,333.500000036609L177.05847656249998,333.500000036609L178.571796875,333.500000036609L180.0851171875,333.500000036609L181.5984375,333.500000036609L183.1117578125,328.65636675640707L184.625078125,325.43085941425335L186.1383984375,323.28282782185204L187.65171875,321.85230810160783L189.1650390625,320.89961271347147L190.678359375,320.265131221787L192.1916796875,319.84257259685126L193.705,319.5611512354555L195.2183203125,319.3737257987287L196.731640625,319.24890098567954L198.2449609375,319.16576789430115L199.75828125,319.1104013592848L201.27160156250002,319.0735272930234L202.784921875,319.0489691853232L204.29824218750002,319.0326134946567L205.8115625,319.02172060869214L207.32488281250002,319.01446594842264L208.83820312499998,319.0096343454739L210.3515234375,319.0064164982608L211.86484374999998,319.0042734121725L213.3781640625,319.00284611690665L214.89148437499998,319.0018955382902L216.4048046875,319.0012624529453L217.918125,319.00084081811156L219.4314453125,319.000560009315L220.944765625,319.00037299065764L222.4580859375,319.00024843623237L223.97140625,319.0001654829854L225.4847265625,314.1571096905402L226.998046875,310.931634536792L228.5113671875,308.78346808617886L230.0246875,307.3527892308615L231.5380078125,306.3999571135709L233.051328125,305.76537092361104L234.5646484375,305.3427365211668L236.07796875,305.0612620091695L237.5912890625,304.87379998419294L239.10460937500002,304.74895027556454L240.6179296875,304.6658003696207L242.13125000000002,304.61042253226327L243.6445703125,304.5735408925838L245.15789062500002,304.54897772055745L246.67121093749998,304.532618647988L248.18453125,304.52172350565684L249.69785156249998,304.5144673408643L251.211171875,304.50963473511246L252.72449218749998,304.50641621968174L254.2378125,304.50427268840485L255.7511328125,304.5028450965745L257.264453125,304.50189432041543L258.7777734375,304.50126110349356L260.29109375,304.5008393810235L261.8044140625,304.5005585138585L263.317734375,304.5003714563266L264.8310546875,304.5002468760104L266.344375,299.6571644683324L267.8576953125,296.4316715848189L269.371015625,294.283493324399L270.8843359375,292.85280660295933L272.39765625,291.8999692464805L273.9109765625,291.2653795670656L275.424296875,290.8427428405753L276.9376171875,290.56126678073275L278.4509375,290.3738037248776L279.9642578125,290.2489533296781L281.47757812500004,290.1658029664752L282.9908984375,290.1104248245821L284.50421875,290.0735429820813L286.01753906249996,290.0489796749757L287.530859375,290.03262051244343L289.0441796875,290.0217253101969L290.5575,290.0144691055007L292.0708203125,290.0096364731731L293.584140625,290.00641794004287L295.0974609375,290.0042743969782L296.61078125,290.0028467972971L298.1241015625,290.00189601590944L299.637421875,290.0012627955053L301.1507421875,290.0008410707161L302.6640625,290.00056020200657L304.17738281249996,290.0003731434459L305.690703125,290.0002485624446L307.2040234375,290.0001655914977L308.71734375,285.1571108956598L310.23066406249995,281.9316364682318L311.743984375,279.7834704995647L313.2573046875,278.35279196443247L314.770625,277.3999600600344L316.28394531249995,276.76537401170526L317.797265625,276.3427397035181L319.3105859375,276.0612652542654L320.82390625,275.8738032710631L322.3372265625,275.74895359025044L323.850546875,275.6658037028291L325.3638671875,275.61042587780656L326.87718750000005,275.5735442463415L328.3905078125,275.5489810797858L329.903828125,275.5326220108597L331.4171484375,275.5217268709549L332.93046875000005,275.51447070777834L334.4437890625,275.5096381031027L335.957109375,275.5064195883888L337.4704296875,275.50427605758927L338.98375000000004,275.5028484660768L340.4970703125,275.50189769012945L342.01039062499996,275.5012644733486L343.5237109375,275.50084275097254L345.03703125,275.5005618838701L346.5503515625,275.5003748263798L348.06367187499995,275.5002502460913L349.5769921875,275.50016727561916L351.0903125,270.65711037775606L352.6036328125,267.4316344837792L354.11695312499995,265.2834675383907L355.6302734375,263.8527883527619L357.14359375,262.8999560151331L358.6569140625,262.26536967827235L360.170234375,261.8427351779231L361.6835546875,261.56126060069045L363.196875,261.37379853225355L364.71019531250005,261.24894879467456L366.223515625,261.165798869447L367.7368359375,261.11042101924534L369.25015625,261.0735393710111L370.76347656250005,261.04897619328705L372.276796875,261.0326171169229L373.7901171875,261.0217219720643L375.3034375,261.0144658055885L376.81675781250004,261.0096331987156L378.330078125,261.00641468253826L379.84339843749996,261.0042711507642L381.35671875,261.00284355860265L382.8700390625,261.0018927822231L384.383359375,261.00125956515427L385.89667968749995,261.00083784258646L387.41,261.00055697535623L388.9233203125,261.0003699177809L390.436640625,261.00024533743584L391.94996093749995,256.15716292973866L393.46328125,252.9316700462124L394.9766015625,250.78349178578395L396.489921875,249.35280506433855L398.0032421875,248.39996770785592L399.5165625,247.76537802843845L401.0298828125,247.34274130194646L402.54320312500005,247.0612652421028L404.0565234375,246.87380218624688L405.56984375,246.7489517910469L407.0831640625,246.66580142784366L408.59648437500005,246.61042328595028L410.1098046875,246.5735414434494L411.623125,246.54897813634372L413.1364453125,246.53261897381134L414.64976562500004,246.52172377156484L416.1630859375,246.51446756686863L417.67640624999996,246.5096349345409L419.1897265625,246.5064164014107L420.703046875,246.50427285834598L422.2163671875,246.50284525866485L423.72968749999995,246.50189447727723L425.2430078125,246.5012612568731L426.756328125,246.50083953208392L428.2696484375,246.50055866337436L429.78296874999995,246.50037160481372L431.2962890625,246.50024702381236L432.809609375,246.5001640528655L434.3229296875,241.65710935702765L435.83625,238.43163492959962L437.3495703125,236.28346896093254L438.862890625,234.8527904258003L440.37621093750005,233.89995852140217L441.88953125,233.26537247307309L443.4028515625,232.84273816488587L444.916171875,232.56126371563317L446.42949218750005,232.37380173243093L447.9428125,232.2489520516182L449.4561328125,232.16580216419692L450.969453125,232.1104243391744L452.48277343750004,232.07354270770932L453.99609375,232.0489795411536L455.50941406249996,232.0326204722275L457.022734375,232.02172533232275L458.5360546875,232.0144691691461L460.049375,232.00963656447053L461.56269531249995,232.00641804975658L463.076015625,232.0042745189571L464.5893359375,232.0028469274446L466.10265625,232.0018961514973L467.61597656249995,232.00126293471646L469.129296875,232.00084121234033L470.6426171875,232.0005603452379L472.1559375,232.00037328774766L473.6692578125,232.00024870745915L475.182578125,227.15716409745835L476.6958984375,223.93166974719776L478.20921875000005,221.78349050992423L479.7225390625,220.35280313790005L481.235859375,219.39996534813199L482.7491796875,218.76537538014645L484.26250000000005,218.34273846146806L485.7758203125,218.06126227362824L487.289140625,217.87379913252698L488.8024609375,217.7489486805535L490.31578125000004,217.66579827953916L491.8291015625,217.61042011246366L493.34242187499996,217.57353825319132L494.8557421875,217.54897493491592L496.3690625,217.53261576494458L497.8823828125,217.52172055774363L499.39570312499995,217.51446434974778L500.9090234375,217.50963171522258L502.42234375,217.50641318062878L503.9356640625,217.5042696365893L505.44898437499995,217.502842036259L506.9623046875,217.50189125443904L508.475625,217.50125803374695L509.9889453125,217.500836308766L511.502265625,217.5005554399287L513.0155859375,217.50036838128304L514.52890625,217.50024380022506L516.0422265625,217.50016082924043L517.555546875,212.65710833571882L519.0688671875,209.43163537503347L520.5821875,207.283470383217L522.0955078125,205.85279249866724L523.608828125,204.8999610275571L525.1221484375001,204.26537526779774L526.63546875,203.842741151798L528.1487890625,203.56126683054217L529.662109375,203.37380493258578L531.1754296875,203.24895530854687L532.68875,203.16580545893692L534.2020703124999,203.11042765909673L535.715390625,203.0735460444031L537.2287109375,203.04898288901717L538.74203125,203.03262382753016L540.2553515625,203.0217286925798L541.768671875,203.01447253270288L543.2819921875,203.00963993022484L544.7953125,203.00642141697443L546.3086328125,203.0042778871497L547.821953125,203.0028502962864L549.3352734375,203.00189952077145L550.84859375,203.0012663042785L552.3619140625,203.00084458209417L553.875234375,203.00056371511943L555.3885546875,203.00037665771427L556.901875,203.00025207748237L558.4151953125,198.15716746751932L559.928515625,194.93167311728394L561.4418359375,192.78349388002715L562.9551562500001,191.35280650801414L564.4684765625,190.39996871825346L565.981796875,189.76537875027284L567.4951171875,189.34274183159778L569.0084375,189.06126564376018L570.5217578125,188.8738025026603L572.0350781249999,188.74895205068788L573.5483984375,188.66580164967414L575.06171875,188.610423482599L576.5750390625,188.57354162332697L578.088359375,188.54897830505186L579.6016796875,188.53261913508058L581.115,188.52172392787966L582.6283203125,188.51446771988392L584.141640625,188.50963508535875L585.6549609375,188.50641655076498L587.16828125,188.50427300672555L588.6816015625,188.5028454063952L590.194921875,188.50189462457524L591.7082421875,188.50126140388318L593.2215625,188.50083967890222L594.7348828125,188.50055881006492L596.248203125,188.50037175141927L597.7615234375,188.50024717036126L599.27484375,188.5001641993767L600.7881640625001,183.65710730117223L602.301484375,180.4316314069681L603.8148046875,178.28346446142814L605.328125,176.8527852756985L606.8414453125,175.89995293800263L608.3547656249999,175.2653666010971L609.8680859375,174.84273210071805L611.38140625,174.5612575234656L612.8947265625,174.37379545501545L614.408046875,174.2489457174277L615.9213671875001,174.16579579219422L617.4346875,174.11041794198874L618.9480078125,174.07353629375189L620.4613281249999,174.0489731160261L621.9746484375,174.03261403966076L623.48796875,174.02171889480147L625.0012890625,174.01446272832519L626.514609375,174.00963012145195L628.0279296875001,174.00641160527437L629.54125,174.00426807350013L631.0545703125,174.00284048133844L632.5678906249999,174.00188970495878L634.0812109375,174.00125648788992L635.59453125,174.00083476532208L637.1078515625,174.00055389809188L638.621171875,174.00036684051656L640.1344921875001,174.00024226017138L641.6478125,174.0001592896615L643.1611328125,169.15710679645613L644.674453125,165.9316338359814L646.1877734374999,163.78346884430513L647.70109375,162.35279095984876L649.2144140625,161.39995948880087L650.727734375,160.76537372908294L652.2410546875,160.34273961311078L653.7543750000001,160.06126529187333L655.2676953125,159.8738033939292L656.781015625,159.74895376989843L658.2943359374999,159.66580392029388L659.80765625,159.6104261204573L661.3209765625,159.57354450576614L662.834296875,159.5489813503818L664.3476171875,159.53262228889585L665.8609375000001,159.5217271539462L667.3742578125,159.51447099406974L668.887578125,159.509638391592L670.4008984374999,159.50641987834183L671.91421875,159.50427634851718L673.4275390625,159.502848757654L674.940859375,159.50189798213913L676.4541796875,159.50126476564625L677.9675000000001,159.50084304346194L679.4808203125,159.5005621764872L680.994140625,159.50037511908204L682.5074609375,159.50025053885022L684.0207812499999,154.65716592888708L685.5341015625,151.4316715786517L687.047421875,149.2834923413949L688.5607421875,147.85280496938194L690.0740625,146.89996717962123L691.5873828125001,146.2653772116406L693.100703125,145.84274029296554L694.6140234375,145.56126410512795L696.1273437499999,145.37380096402805L697.6406640625,145.2489505120556L699.153984375,145.16580011104193L700.6673046875,145.11042194396677L702.180625,145.0735400846948L703.6939453125001,145.0489767664196L705.207265625,145.03261759644835L706.7205859375,145.0217223892475L708.2339062499999,145.0144661812517L709.7472265625,145.00963354672652L711.260546875,145.00641501213275L712.7738671875,145.00427146809332L714.2871875,145.00284386776303L715.8005078125001,145.001893085943L717.313828125,145.00125986525092L718.8271484375,145.00083814027002L720.34046875,145.00055727143268L721.8537890624999,145.00037021278706L723.367109375,145.00024563172906L724.8804296875,145.00016266074442L726.39375,140.15711016722284L727.9070703125,136.93163720653743L729.4203906250001,134.783472214721L730.9337109375,133.35279433017126L732.44703125,132.39996285906113L733.9603515624999,131.76537709930176L735.473671875,131.34274298330206L736.9869921875,131.06126866204622L738.5003125,130.87380676408978L740.0136328125,130.74895714005086L741.5269531250001,130.66580729044094L743.0402734375,130.6104294906007L744.55359375,130.5735478759071L746.0669140624999,130.5489847205212L747.580234375,130.53262565903418L749.0935546875,130.52173052408378L750.606875,130.51447436420685L752.1201953125,130.50964176172883L753.6335156250001,130.50642324847846L755.1468359375,130.50427971865372L756.66015625,130.50285212779045L758.1734765625,130.50190135227544L759.6867968749999,130.50126813578254L761.2001171875,130.50084641359823L762.7134375,130.50056554662348L764.2267578125,130.50037848921826L765.740078125,130.50025390898648L767.2533984375001,125.65716929902338L768.76671875,122.43167494878794L770.2800390625,120.2834957115312L771.7933593749999,118.85280833951816L773.3066796875,117.89997054975751L774.82,117.2653805817769L776.3333203125,116.84274366310183L777.846640625,116.56126747526423L779.3599609375001,116.37380433416438L780.87328125,116.24895388219187L782.3866015625,116.16580348117816L783.8999218749999,116.11042531410305L785.4132421875,116.07354345483103L786.9265625,116.04898013655587L788.4398828125,116.03262096658459L789.953203125,116.02172575938371L791.4665234375001,116.01446955138795L792.97984375,116.0096369168628L794.4931640625,116.00641838226903L796.006484375,116.00427483822956L797.5198046874999,116.00284723789927L799.033125,116.00189645607934L800.5464453125,116.00126323538724L802.059765625,116.00084151040633L803.5730859375,116.00056064156901L805.0864062500001,116.00037358292337L806.5997265625,116.00024900186534L808.113046875,116.0001660308807L809.6263671874999,111.1571091326763L811.1396875,107.93163323847212L812.6530078125,105.78346629293219L814.166328125,104.35278710720256L815.6796484375,103.39995476950664L817.1929687500001,102.76536843260116L818.7062890625,102.3427339322221L820.219609375,102.06125935496965L821.7329296874999,101.87379728651952L823.24625,101.74894754893172L824.7595703125,101.66579762369827L826.272890625,101.61041977349281L827.7862109375,101.57353812525595L829.2995312500001,101.54897494753021L830.8128515625,101.53261587116485L832.326171875,101.52172072630552L833.8394921875,101.51446455982918L835.3528124999999,101.50963195295594L836.8661328125,101.50641343677843L838.379453125,101.50426990500418L839.8927734375,101.50284231284256L841.40609375,101.50189153646288L842.9194140625001,101.50125831939403L844.432734375,101.50083659682616L845.9460546875,101.50055572959593L847.4593749999999,101.50036867202066L848.9726953125,101.50024409167547L850.486015625,101.5001611211656L851.9993359375,96.65710422327736L853.51265625,93.4316283292838L855.0259765625001,91.28346138388409L856.539296875,89.85278219824788L858.0526171875,88.89994986061414L859.5659374999999,88.26536352375011L861.0792578125,87.8427290233986L862.592578125,87.56125444616455L864.1058984375,87.37379237772664L865.61921875,87.24894264014702L867.1325390625001,87.16579271491896L868.645859375,87.11041486471706L870.1591796875,87.07353321648263L871.6725,87.04897003875847L873.1858203124999,87.03261096239417L874.699140625,87.0217158175356L876.2124609375,87.01445965105975L877.72578125,87.00962704418686L879.2391015625,87.00640852800954L880.7524218750001,87.00426499623538L882.2657421875,87.00283740407384L883.7790625,87.00188662769425L885.2923828124999,87.00125341062544L886.805703125,87.00083168805757L888.3190234375,87.00055082082743L889.83234375,87.00036376325215L891.3456640625,87.00023918290697L892.8589843750001,82.1571633822341L894.3723046875,78.93167489898599L895.885625,76.78349956914273L897.3989453124999,75.35281479946714L898.912265625,74.39997874286317L900.4255859375,73.76538992916493L901.93890625,73.34275377924195L903.4522265625,73.0612781033932L904.9655468750001,72.87381530327795L906.4788671875,72.74896507840117L907.9921875,72.66581482863327L909.5055078125,72.6104367622878L911.0188281249999,72.57355497010175L912.5321484375,72.54899169650587L914.04546875,72.532632556291L915.5587890625,72.52173736890788L917.072109375,72.51448117411071L918.5854296875001,72.5096485483758L920.09875,72.50643001963637L921.6120703125,72.5042864794959L923.1253906249999,72.50285888176236L924.6387109375,72.50190810167182L926.15203125,72.50127488213154L927.6653515625,72.5008531579177L929.178671875,72.50057228959125L930.6919921875001,72.50038523128585L932.2053125,72.50026065045446L933.7186328125,72.50017767962072L935.2319531249999,67.6571207815168L936.7452734375,64.43164488737963L938.25859375,62.28347794188423L939.7719140625,60.85279875618432L941.285234375,59.89996641850819L942.7985546875001,59.26538008161586L944.311875,58.84274558124556L945.8251953125,58.561271003998996L947.338515625,58.37380893555272L948.8518359374999,58.24895919796752L950.36515625,58.165809272735785L951.8784765625,58.11043142253145L953.391796875,58.07354977429539L954.9051171875,58.048986596570145L956.4184375000001,58.032627520205125L957.9317578125,58.02173237534605L959.445078125,58.01447620886992L960.9583984374999,58.009643601996764L962.47171875,58.006425085819245L963.9850390625,58.00428155404504L965.498359375,58.00285396188339L967.0116796875,58.00190318550378L968.5250000000001,58.00126996843489L970.0383203125,58.00084824586707L971.551640625,58.00056737863684L973.0649609374999,58.00038032106156L974.57828125,58.00025574071642L976.0916015625,53.157171130677895L977.604921875,49.9316767803922L979.1182421875,47.78349754310197L980.6315625000001,46.35281017106663L982.1448828125,45.399972381291114L983.658203125,44.76538241330062L985.1715234375,44.34274549461898L986.6848437499999,44.06126930677694L988.1981640625,43.87380616567417L989.711484375,43.748955713699736L991.2248046875,43.66580531268477L992.738125,43.61042714560879L994.2514453125001,43.57354528633621L995.764765625,43.54898196806064L997.2780859375,43.532622798089136L998.7914062499999,43.521727590888105L1000.3047265625,43.514471382892246L1001.818046875,43.50963874836698L1003.3313671875,43.50642021377316L1004.8446875,43.50427666973365L1006.3580078125001,43.50284906940337L1007.871328125,43.501898287583394L1009.3846484375,43.50126506689129L1010.8979687499999,43.50084334191038L1012.4112890625,43.50056247307307L1013.924609375,43.50037541442739L1015.4379296875,43.5002508333694L1016.95125,43.500167862384764L1018.4645703125001,38.65711096418035L1019.977890625,35.431635069976174L1021.4912109375,33.28346812443624L1023.00453125,31.852788938706652L1024.5178515625,30.899956601010725L1026.031171875,30.265370264105254L1027.5444921875,29.842735763726203L1029.0578125,29.561261186473697L1030.5711328124999,29.373799118023612L1032.084453125,29.248949380435825L1033.5977734375,29.165799455202325L1035.11109375,29.110421604996855L1036.6244140625,29.073539956760005L1038.137734375,29.04897677903426L1039.6510546875,29.032617702668908L1041.164375,29.021722557809575L1042.6776953125,29.01446639133324L1044.191015625,29.00963378446L1045.7043359375,29.006415268282478L1047.21765625,29.004271736508233L1048.7309765625,29.00284414434662L1050.2442968750001,29.00189336796693L1051.7576171875,29.00126015089808L1053.2709375,29.00083842833022L1054.7842578125,29.000557561099985L1056.297578125,29.000370503524714L1057.8108984375,29.000245923179527L1059.0215546875,29.000162952669655" style="fill: none;" fill="none"></path></g></g></g></g><g opacity="0.2"><g><g><g><path stroke="rgb(238, 51, 119)" stroke-width="2px" d="M151.33203125,333.500000036609L152.8453515625,333.500000036609L154.358671875,333.500000036609L155.8719921875,333.500000036609L157.3853125,333.500000036609L158.8986328125,333.500000036609L160.411953125,333.500000036609L161.9252734375,333.500000036609L163.43859375000002,333.500000036609L164.9519140625,333.500000036609L166.46523437500002,333.500000036609L167.9785546875,333.500000036609L169.49187500000002,333.500000036609L171.00519531249998,333.500000036609L172.518515625,333.500000036609L174.03183593749998,333.500000036609L175.54515625,333.500000036609L177.05847656249998,333.500000036609L178.571796875,333.500000036609L180.0851171875,333.500000036609L181.5984375,333.500000036609L183.1117578125,319.00000007321796L184.625078125,319.00000007321796L186.1383984375,319.00000007321796L187.65171875,319.00000007321796L189.1650390625,319.00000007321796L190.678359375,319.00000007321796L192.1916796875,319.00000007321796L193.705,319.00000007321796L195.2183203125,319.00000007321796L196.731640625,319.00000007321796L198.2449609375,319.00000007321796L199.75828125,319.00000007321796L201.27160156250002,319.00000007321796L202.784921875,319.00000007321796L204.29824218750002,319.00000007321796L205.8115625,319.00000007321796L207.32488281250002,319.00000007321796L208.83820312499998,319.00000007321796L210.3515234375,319.00000007321796L211.86484374999998,319.00000007321796L213.3781640625,319.00000007321796L214.89148437499998,319.00000007321796L216.4048046875,319.00000007321796L217.918125,319.00000007321796L219.4314453125,319.00000007321796L220.944765625,319.00000007321796L222.4580859375,319.00000007321796L223.97140625,319.00000007321796L225.4847265625,304.4999984613678L226.998046875,304.4999984613678L228.5113671875,304.4999984613678L230.0246875,304.4999984613678L231.5380078125,304.4999984613678L233.051328125,304.4999984613678L234.5646484375,304.4999984613678L236.07796875,304.4999984613678L237.5912890625,304.4999984613678L239.10460937500002,304.4999984613678L240.6179296875,304.4999984613678L242.13125000000002,304.4999984613678L243.6445703125,304.4999984613678L245.15789062500002,304.4999984613678L246.67121093749998,304.4999984613678L248.18453125,304.4999984613678L249.69785156249998,304.4999984613678L251.211171875,304.4999984613678L252.72449218749998,304.4999984613678L254.2378125,304.4999984613678L255.7511328125,304.4999984613678L257.264453125,304.4999984613678L258.7777734375,304.4999984613678L260.29109375,304.4999984613678L261.8044140625,304.4999984613678L263.317734375,304.4999984613678L264.8310546875,304.4999984613678L266.344375,290.0000001464359L267.8576953125,290.0000001464359L269.371015625,290.0000001464359L270.8843359375,290.0000001464359L272.39765625,290.0000001464359L273.9109765625,290.0000001464359L275.424296875,290.0000001464359L276.9376171875,290.0000001464359L278.4509375,290.0000001464359L279.9642578125,290.0000001464359L281.47757812500004,290.0000001464359L282.9908984375,290.0000001464359L284.50421875,290.0000001464359L286.01753906249996,290.0000001464359L287.530859375,290.0000001464359L289.0441796875,290.0000001464359L290.5575,290.0000001464359L292.0708203125,290.0000001464359L293.584140625,290.0000001464359L295.0974609375,290.0000001464359L296.61078125,290.0000001464359L298.1241015625,290.0000001464359L299.637421875,290.0000001464359L301.1507421875,290.0000001464359L302.6640625,290.0000001464359L304.17738281249996,290.0000001464359L305.690703125,290.0000001464359L307.2040234375,290.0000001464359L308.71734375,275.50000183150405L310.23066406249995,275.50000183150405L311.743984375,275.50000183150405L313.2573046875,275.50000183150405L314.770625,275.50000183150405L316.28394531249995,275.50000183150405L317.797265625,275.50000183150405L319.3105859375,275.50000183150405L320.82390625,275.50000183150405L322.3372265625,275.50000183150405L323.850546875,275.50000183150405L325.3638671875,275.50000183150405L326.87718750000005,275.50000183150405L328.3905078125,275.50000183150405L329.903828125,275.50000183150405L331.4171484375,275.50000183150405L332.93046875000005,275.50000183150405L334.4437890625,275.50000183150405L335.957109375,275.50000183150405L337.4704296875,275.50000183150405L338.98375000000004,275.50000183150405L340.4970703125,275.50000183150405L342.01039062499996,275.50000183150405L343.5237109375,275.50000183150405L345.03703125,275.50000183150405L346.5503515625,275.50000183150405L348.06367187499995,275.50000183150405L349.5769921875,275.50000183150405L351.0903125,260.9999969227356L352.6036328125,260.9999969227356L354.11695312499995,260.9999969227356L355.6302734375,260.9999969227356L357.14359375,260.9999969227356L358.6569140625,260.9999969227356L360.170234375,260.9999969227356L361.6835546875,260.9999969227356L363.196875,260.9999969227356L364.71019531250005,260.9999969227356L366.223515625,260.9999969227356L367.7368359375,260.9999969227356L369.25015625,260.9999969227356L370.76347656250005,260.9999969227356L372.276796875,260.9999969227356L373.7901171875,260.9999969227356L375.3034375,260.9999969227356L376.81675781250004,260.9999969227356L378.330078125,260.9999969227356L379.84339843749996,260.9999969227356L381.35671875,260.9999969227356L382.8700390625,260.9999969227356L384.383359375,260.9999969227356L385.89667968749995,260.9999969227356L387.41,260.9999969227356L388.9233203125,260.9999969227356L390.436640625,260.9999969227356L391.94996093749995,246.49999860780372L393.46328125,246.49999860780372L394.9766015625,246.49999860780372L396.489921875,246.49999860780372L398.0032421875,246.49999860780372L399.5165625,246.49999860780372L401.0298828125,246.49999860780372L402.54320312500005,246.49999860780372L404.0565234375,246.49999860780372L405.56984375,246.49999860780372L407.0831640625,246.49999860780372L408.59648437500005,246.49999860780372L410.1098046875,246.49999860780372L411.623125,246.49999860780372L413.1364453125,246.49999860780372L414.64976562500004,246.49999860780372L416.1630859375,246.49999860780372L417.67640624999996,246.49999860780372L419.1897265625,246.49999860780372L420.703046875,246.49999860780372L422.2163671875,246.49999860780372L423.72968749999995,246.49999860780372L425.2430078125,246.49999860780372L426.756328125,246.49999860780372L428.2696484375,246.49999860780372L429.78296874999995,246.49999860780372L431.2962890625,246.49999860780372L432.809609375,246.49999860780372L434.3229296875,232.00000029287185L435.83625,232.00000029287185L437.3495703125,232.00000029287185L438.862890625,232.00000029287185L440.37621093750005,232.00000029287185L441.88953125,232.00000029287185L443.4028515625,232.00000029287185L444.916171875,232.00000029287185L446.42949218750005,232.00000029287185L447.9428125,232.00000029287185L449.4561328125,232.00000029287185L450.969453125,232.00000029287185L452.48277343750004,232.00000029287185L453.99609375,232.00000029287185L455.50941406249996,232.00000029287185L457.022734375,232.00000029287185L458.5360546875,232.00000029287185L460.049375,232.00000029287185L461.56269531249995,232.00000029287185L463.076015625,232.00000029287185L464.5893359375,232.00000029287185L466.10265625,232.00000029287185L467.61597656249995,232.00000029287185L469.129296875,232.00000029287185L470.6426171875,232.00000029287185L472.1559375,232.00000029287185L473.6692578125,232.00000029287185L475.182578125,217.49999538410339L476.6958984375,217.49999538410339L478.20921875000005,217.49999538410339L479.7225390625,217.49999538410339L481.235859375,217.49999538410339L482.7491796875,217.49999538410339L484.26250000000005,217.49999538410339L485.7758203125,217.49999538410339L487.289140625,217.49999538410339L488.8024609375,217.49999538410339L490.31578125000004,217.49999538410339L491.8291015625,217.49999538410339L493.34242187499996,217.49999538410339L494.8557421875,217.49999538410339L496.3690625,217.49999538410339L497.8823828125,217.49999538410339L499.39570312499995,217.49999538410339L500.9090234375,217.49999538410339L502.42234375,217.49999538410339L503.9356640625,217.49999538410339L505.44898437499995,217.49999538410339L506.9623046875,217.49999538410339L508.475625,217.49999538410339L509.9889453125,217.49999538410339L511.502265625,217.49999538410339L513.0155859375,217.49999538410339L514.52890625,217.49999538410339L516.0422265625,217.49999538410339L517.555546875,203.00000366300813L519.0688671875,203.00000366300813L520.5821875,203.00000366300813L522.0955078125,203.00000366300813L523.608828125,203.00000366300813L525.1221484375001,203.00000366300813L526.63546875,203.00000366300813L528.1487890625,203.00000366300813L529.662109375,203.00000366300813L531.1754296875,203.00000366300813L532.68875,203.00000366300813L534.2020703124999,203.00000366300813L535.715390625,203.00000366300813L537.2287109375,203.00000366300813L538.74203125,203.00000366300813L540.2553515625,203.00000366300813L541.768671875,203.00000366300813L543.2819921875,203.00000366300813L544.7953125,203.00000366300813L546.3086328125,203.00000366300813L547.821953125,203.00000366300813L549.3352734375,203.00000366300813L550.84859375,203.00000366300813L552.3619140625,203.00000366300813L553.875234375,203.00000366300813L555.3885546875,203.00000366300813L556.901875,203.00000366300813L558.4151953125,188.49999875423967L559.928515625,188.49999875423967L561.4418359375,188.49999875423967L562.9551562500001,188.49999875423967L564.4684765625,188.49999875423967L565.981796875,188.49999875423967L567.4951171875,188.49999875423967L569.0084375,188.49999875423967L570.5217578125,188.49999875423967L572.0350781249999,188.49999875423967L573.5483984375,188.49999875423967L575.06171875,188.49999875423967L576.5750390625,188.49999875423967L578.088359375,188.49999875423967L579.6016796875,188.49999875423967L581.115,188.49999875423967L582.6283203125,188.49999875423967L584.141640625,188.49999875423967L585.6549609375,188.49999875423967L587.16828125,188.49999875423967L588.6816015625,188.49999875423967L590.194921875,188.49999875423967L591.7082421875,188.49999875423967L593.2215625,188.49999875423967L594.7348828125,188.49999875423967L596.248203125,188.49999875423967L597.7615234375,188.49999875423967L599.27484375,188.49999875423967L600.7881640625001,173.99999384547118L602.301484375,173.99999384547118L603.8148046875,173.99999384547118L605.328125,173.99999384547118L606.8414453125,173.99999384547118L608.3547656249999,173.99999384547118L609.8680859375,173.99999384547118L611.38140625,173.99999384547118L612.8947265625,173.99999384547118L614.408046875,173.99999384547118L615.9213671875001,173.99999384547118L617.4346875,173.99999384547118L618.9480078125,173.99999384547118L620.4613281249999,173.99999384547118L621.9746484375,173.99999384547118L623.48796875,173.99999384547118L625.0012890625,173.99999384547118L626.514609375,173.99999384547118L628.0279296875001,173.99999384547118L629.54125,173.99999384547118L631.0545703125,173.99999384547118L632.5678906249999,173.99999384547118L634.0812109375,173.99999384547118L635.59453125,173.99999384547118L637.1078515625,173.99999384547118L638.621171875,173.99999384547118L640.1344921875001,173.99999384547118L641.6478125,173.99999384547118L643.1611328125,159.5000021243759L644.674453125,159.5000021243759L646.1877734374999,159.5000021243759L647.70109375,159.5000021243759L649.2144140625,159.5000021243759L650.727734375,159.5000021243759L652.2410546875,159.5000021243759L653.7543750000001,159.5000021243759L655.2676953125,159.5000021243759L656.781015625,159.5000021243759L658.2943359374999,159.5000021243759L659.80765625,159.5000021243759L661.3209765625,159.5000021243759L662.834296875,159.5000021243759L664.3476171875,159.5000021243759L665.8609375000001,159.5000021243759L667.3742578125,159.5000021243759L668.887578125,159.5000021243759L670.4008984374999,159.5000021243759L671.91421875,159.5000021243759L673.4275390625,159.5000021243759L674.940859375,159.5000021243759L676.4541796875,159.5000021243759L677.9675000000001,159.5000021243759L679.4808203125,159.5000021243759L680.994140625,159.5000021243759L682.5074609375,159.5000021243759L684.0207812499999,144.99999721560744L685.5341015625,144.99999721560744L687.047421875,144.99999721560744L688.5607421875,144.99999721560744L690.0740625,144.99999721560744L691.5873828125001,144.99999721560744L693.100703125,144.99999721560744L694.6140234375,144.99999721560744L696.1273437499999,144.99999721560744L697.6406640625,144.99999721560744L699.153984375,144.99999721560744L700.6673046875,144.99999721560744L702.180625,144.99999721560744L703.6939453125001,144.99999721560744L705.207265625,144.99999721560744L706.7205859375,144.99999721560744L708.2339062499999,144.99999721560744L709.7472265625,144.99999721560744L711.260546875,144.99999721560744L712.7738671875,144.99999721560744L714.2871875,144.99999721560744L715.8005078125001,144.99999721560744L717.313828125,144.99999721560744L718.8271484375,144.99999721560744L720.34046875,144.99999721560744L721.8537890624999,144.99999721560744L723.367109375,144.99999721560744L724.8804296875,144.99999721560744L726.39375,130.50000549451215L727.9070703125,130.50000549451215L729.4203906250001,130.50000549451215L730.9337109375,130.50000549451215L732.44703125,130.50000549451215L733.9603515624999,130.50000549451215L735.473671875,130.50000549451215L736.9869921875,130.50000549451215L738.5003125,130.50000549451215L740.0136328125,130.50000549451215L741.5269531250001,130.50000549451215L743.0402734375,130.50000549451215L744.55359375,130.50000549451215L746.0669140624999,130.50000549451215L747.580234375,130.50000549451215L749.0935546875,130.50000549451215L750.606875,130.50000549451215L752.1201953125,130.50000549451215L753.6335156250001,130.50000549451215L755.1468359375,130.50000549451215L756.66015625,130.50000549451215L758.1734765625,130.50000549451215L759.6867968749999,130.50000549451215L761.2001171875,130.50000549451215L762.7134375,130.50000549451215L764.2267578125,130.50000549451215L765.740078125,130.50000549451215L767.2533984375001,116.00000058574368L768.76671875,116.00000058574368L770.2800390625,116.00000058574368L771.7933593749999,116.00000058574368L773.3066796875,116.00000058574368L774.82,116.00000058574368L776.3333203125,116.00000058574368L777.846640625,116.00000058574368L779.3599609375001,116.00000058574368L780.87328125,116.00000058574368L782.3866015625,116.00000058574368L783.8999218749999,116.00000058574368L785.4132421875,116.00000058574368L786.9265625,116.00000058574368L788.4398828125,116.00000058574368L789.953203125,116.00000058574368L791.4665234375001,116.00000058574368L792.97984375,116.00000058574368L794.4931640625,116.00000058574368L796.006484375,116.00000058574368L797.5198046874999,116.00000058574368L799.033125,116.00000058574368L800.5464453125,116.00000058574368L802.059765625,116.00000058574368L803.5730859375,116.00000058574368L805.0864062500001,116.00000058574368L806.5997265625,116.00000058574368L808.113046875,116.00000058574368L809.6263671874999,101.49999567697525L811.1396875,101.49999567697525L812.6530078125,101.49999567697525L814.166328125,101.49999567697525L815.6796484375,101.49999567697525L817.1929687500001,101.49999567697525L818.7062890625,101.49999567697525L820.219609375,101.49999567697525L821.7329296874999,101.49999567697525L823.24625,101.49999567697525L824.7595703125,101.49999567697525L826.272890625,101.49999567697525L827.7862109375,101.49999567697525L829.2995312500001,101.49999567697525L830.8128515625,101.49999567697525L832.326171875,101.49999567697525L833.8394921875,101.49999567697525L835.3528124999999,101.49999567697525L836.8661328125,101.49999567697525L838.379453125,101.49999567697525L839.8927734375,101.49999567697525L841.40609375,101.49999567697525L842.9194140625001,101.49999567697525L844.432734375,101.49999567697525L845.9460546875,101.49999567697525L847.4593749999999,101.49999567697525L848.9726953125,101.49999567697525L850.486015625,101.49999567697525L851.9993359375,86.99999076820679L853.51265625,86.99999076820679L855.0259765625001,86.99999076820679L856.539296875,86.99999076820679L858.0526171875,86.99999076820679L859.5659374999999,86.99999076820679L861.0792578125,86.99999076820679L862.592578125,86.99999076820679L864.1058984375,86.99999076820679L865.61921875,86.99999076820679L867.1325390625001,86.99999076820679L868.645859375,86.99999076820679L870.1591796875,86.99999076820679L871.6725,86.99999076820679L873.1858203124999,86.99999076820679L874.699140625,86.99999076820679L876.2124609375,86.99999076820679L877.72578125,86.99999076820679L879.2391015625,86.99999076820679L880.7524218750001,86.99999076820679L882.2657421875,86.99999076820679L883.7790625,86.99999076820679L885.2923828124999,86.99999076820679L886.805703125,86.99999076820679L888.3190234375,86.99999076820679L889.83234375,86.99999076820679L891.3456640625,86.99999076820679L892.8589843750001,72.50001223478466L894.3723046875,72.50001223478466L895.885625,72.50001223478466L897.3989453124999,72.50001223478466L898.912265625,72.50001223478466L900.4255859375,72.50001223478466L901.93890625,72.50001223478466L903.4522265625,72.50001223478466L904.9655468750001,72.50001223478466L906.4788671875,72.50001223478466L907.9921875,72.50001223478466L909.5055078125,72.50001223478466L911.0188281249999,72.50001223478466L912.5321484375,72.50001223478466L914.04546875,72.50001223478466L915.5587890625,72.50001223478466L917.072109375,72.50001223478466L918.5854296875001,72.50001223478466L920.09875,72.50001223478466L921.6120703125,72.50001223478466L923.1253906249999,72.50001223478466L924.6387109375,72.50001223478466L926.15203125,72.50001223478466L927.6653515625,72.50001223478466L929.178671875,72.50001223478466L930.6919921875001,72.50001223478466L932.2053125,72.50001223478466L933.7186328125,72.50001223478466L935.2319531249999,58.000007326016195L936.7452734375,58.000007326016195L938.25859375,58.000007326016195L939.7719140625,58.000007326016195L941.285234375,58.000007326016195L942.7985546875001,58.000007326016195L944.311875,58.000007326016195L945.8251953125,58.000007326016195L947.338515625,58.000007326016195L948.8518359374999,58.000007326016195L950.36515625,58.000007326016195L951.8784765625,58.000007326016195L953.391796875,58.000007326016195L954.9051171875,58.000007326016195L956.4184375000001,58.000007326016195L957.9317578125,58.000007326016195L959.445078125,58.000007326016195L960.9583984374999,58.000007326016195L962.47171875,58.000007326016195L963.9850390625,58.000007326016195L965.498359375,58.000007326016195L967.0116796875,58.000007326016195L968.5250000000001,58.000007326016195L970.0383203125,58.000007326016195L971.551640625,58.000007326016195L973.0649609374999,58.000007326016195L974.57828125,58.000007326016195L976.0916015625,43.50000241724777L977.604921875,43.50000241724777L979.1182421875,43.50000241724777L980.6315625000001,43.50000241724777L982.1448828125,43.50000241724777L983.658203125,43.50000241724777L985.1715234375,43.50000241724777L986.6848437499999,43.50000241724777L988.1981640625,43.50000241724777L989.711484375,43.50000241724777L991.2248046875,43.50000241724777L992.738125,43.50000241724777L994.2514453125001,43.50000241724777L995.764765625,43.50000241724777L997.2780859375,43.50000241724777L998.7914062499999,43.50000241724777L1000.3047265625,43.50000241724777L1001.818046875,43.50000241724777L1003.3313671875,43.50000241724777L1004.8446875,43.50000241724777L1006.3580078125001,43.50000241724777L1007.871328125,43.50000241724777L1009.3846484375,43.50000241724777L1010.8979687499999,43.50000241724777L1012.4112890625,43.50000241724777L1013.924609375,43.50000241724777L1015.4379296875,43.50000241724777L1016.95125,43.50000241724777L1018.4645703125001,28.9999975084793L1019.977890625,28.9999975084793L1021.4912109375,28.9999975084793L1023.00453125,28.9999975084793L1024.5178515625,28.9999975084793L1026.031171875,28.9999975084793L1027.5444921875,28.9999975084793L1029.0578125,28.9999975084793L1030.5711328124999,28.9999975084793L1032.084453125,28.9999975084793L1033.5977734375,28.9999975084793L1035.11109375,28.9999975084793L1036.6244140625,28.9999975084793L1038.137734375,28.9999975084793L1039.6510546875,28.9999975084793L1041.164375,28.9999975084793L1042.6776953125,28.9999975084793L1044.191015625,28.9999975084793L1045.7043359375,28.9999975084793L1047.21765625,28.9999975084793L1048.7309765625,28.9999975084793L1050.2442968750001,28.9999975084793L1051.7576171875,28.9999975084793L1053.2709375,28.9999975084793L1054.7842578125,28.9999975084793L1056.297578125,28.9999975084793L1057.8108984375,28.9999975084793L1059.0215546875,28.9999975084793" style="fill: none;" fill="none"></path></g></g></g></g></g></g><g transform="translate(72, 377)" clip-path="url(#clip_1)"><clipPath id="clip_1"><rect width="1210" height="23"></rect></clipPath><g><g><line x1="0" y1="0" x2="0" y2="5" style="visibility: inherit;" fill="rgb(0, 0, 0)" stroke="rgb(204, 204, 204)" stroke-width="1px"></line><line x1="151.33203125" y1="0" x2="151.33203125" y2="5" style="visibility: inherit;" fill="rgb(0, 0, 0)" stroke="rgb(204, 204, 204)" stroke-width="1px"></line><line x1="302.6640625" y1="0" x2="302.6640625" y2="5" style="visibility: inherit;" fill="rgb(0, 0, 0)" stroke="rgb(204, 204, 204)" stroke-width="1px"></line><line x1="453.99609375" y1="0" x2="453.99609375" y2="5" style="visibility: inherit;" fill="rgb(0, 0, 0)" stroke="rgb(204, 204, 204)" stroke-width="1px"></line><line x1="605.328125" y1="0" x2="605.328125" y2="5" style="visibility: inherit;" fill="rgb(0, 0, 0)" stroke="rgb(204, 204, 204)" stroke-width="1px"></line><line x1="756.66015625" y1="0" x2="756.66015625" y2="5" style="visibility: inherit;" fill="rgb(0, 0, 0)" stroke="rgb(204, 204, 204)" stroke-width="1px"></line><line x1="907.9921875" y1="0" x2="907.9921875" y2="5" style="visibility: inherit;" fill="rgb(0, 0, 0)" stroke="rgb(204, 204, 204)" stroke-width="1px"></line><line x1="1059.32421875" y1="0" x2="1059.32421875" y2="5" style="visibility: inherit;" fill="rgb(0, 0, 0)" stroke="rgb(204, 204, 204)" stroke-width="1px"></line><line x1="1210.65625" y1="0" x2="1210.65625" y2="5" style="visibility: inherit;" fill="rgb(0, 0, 0)" stroke="rgb(204, 204, 204)" stroke-width="1px"></line></g><g transform="translate(0, 8)"><text x="0" y="0" dx="0em" dy="0.95em" style="text-anchor: middle; visibility: hidden; font-family: Roboto, sans-serif; font-size: 12px; font-weight: 200;" fill="rgb(255, 255, 255)" stroke="none" stroke-width="1px">-500</text><text x="151.33203125" y="0" dx="0em" dy="0.95em" style="text-anchor: middle; visibility: inherit; font-family: Roboto, sans-serif; font-size: 12px; font-weight: 200;" fill="rgb(255, 255, 255)" stroke="none" stroke-width="1px">0</text><text x="302.6640625" y="0" dx="0em" dy="0.95em" style="text-anchor: middle; visibility: inherit; font-family: Roboto, sans-serif; font-size: 12px; font-weight: 200;" fill="rgb(255, 255, 255)" stroke="none" stroke-width="1px">500</text><text x="453.99609375" y="0" dx="0em" dy="0.95em" style="text-anchor: middle; visibility: inherit; font-family: Roboto, sans-serif; font-size: 12px; font-weight: 200;" fill="rgb(255, 255, 255)" stroke="none" stroke-width="1px">1k</text><text x="605.328125" y="0" dx="0em" dy="0.95em" style="text-anchor: middle; visibility: inherit; font-family: Roboto, sans-serif; font-size: 12px; font-weight: 200;" fill="rgb(255, 255, 255)" stroke="none" stroke-width="1px">1.5k</text><text x="756.66015625" y="0" dx="0em" dy="0.95em" style="text-anchor: middle; visibility: inherit; font-family: Roboto, sans-serif; font-size: 12px; font-weight: 200;" fill="rgb(255, 255, 255)" stroke="none" stroke-width="1px">2k</text><text x="907.9921875" y="0" dx="0em" dy="0.95em" style="text-anchor: middle; visibility: inherit; font-family: Roboto, sans-serif; font-size: 12px; font-weight: 200;" fill="rgb(255, 255, 255)" stroke="none" stroke-width="1px">2.5k</text><text x="1059.32421875" y="0" dx="0em" dy="0.95em" style="text-anchor: middle; visibility: inherit; font-family: Roboto, sans-serif; font-size: 12px; font-weight: 200;" fill="rgb(255, 255, 255)" stroke="none" stroke-width="1px">3k</text><text x="1210.65625" y="0" dx="0em" dy="0.95em" style="text-anchor: middle; visibility: hidden; font-family: Roboto, sans-serif; font-size: 12px; font-weight: 200;" fill="rgb(255, 255, 255)" stroke="none" stroke-width="1px">3.5k</text></g><line x1="0" y1="0" x2="1210.65625" y2="0" fill="rgb(0, 0, 0)" stroke="rgb(204, 204, 204)" stroke-width="1px"></line></g></g></g></g></svg>