<svg viewBox="0 0 1283 400" xmlns="http://www.w3.org/2000/svg"><g><g><g><g><g><line x1="20.390625" y1="300.1729897287516" x2="15.390625" y2="300.1729897287516" style="visibility: inherit;" fill="rgb(0, 0, 0)" stroke="rgb(204, 204, 204)" stroke-width="1px"></line><line x1="20.390625" y1="220.87944124888432" x2="15.390625" y2="220.87944124888432" style="visibility: inherit;" fill="rgb(0, 0, 0)" stroke="rgb(204, 204, 204)" stroke-width="1px"></line><line x1="20.390625" y1="159.37458676383912" x2="15.390625" y2="159.37458676383912" style="visibility: inherit;" fill="rgb(0, 0, 0)" stroke="rgb(204, 204, 204)" stroke-width="1px"></line><line x1="20.390625" y1="109.12146157130746" x2="15.390625" y2="109.12146157130746" style="visibility: inherit;" fill="rgb(0, 0, 0)" stroke="rgb(204, 204, 204)" stroke-width="1px"></line><line x1="20.390625" y1="66.63304962434492" x2="15.390625" y2="66.63304962434492" style="visibility: inherit;" fill="rgb(0, 0, 0)" stroke="rgb(204, 204, 204)" stroke-width="1px"></line><line x1="20.390625" y1="29.827913091440248" x2="15.390625" y2="29.827913091440248" style="visibility: inherit;" fill="rgb(0, 0, 0)" stroke="rgb(204, 204, 204)" stroke-width="1px"></line></g><g transform="translate(10.390625, 0)"><text x="0" y="300.1729897287516" dx="0em" dy="0.3em" style="text-anchor: end; visibility: inherit; font-family: Roboto, sans-serif; font-size: 12px; font-weight: 200;" fill="rgb(255, 255, 255)" stroke="none" stroke-width="1px">3</text><text x="0" y="220.87944124888432" dx="0em" dy="0.3em" style="text-anchor: end; visibility: inherit; font-family: Roboto, sans-serif; font-size: 12px; font-weight: 200;" fill="rgb(255, 255, 255)" stroke="none" stroke-width="1px">4</text><text x="0" y="159.37458676383912" dx="0em" dy="0.3em" style="text-anchor: end; visibility: inherit; font-family: Roboto, sans-serif; font-size: 12px; font-weight: 200;" fill="rgb(255, 255, 255)" stroke="none" stroke-width="1px">5</text><text x="0" y="109.12146157130746" dx="0em" dy="0.3em" style="text-anchor: end; visibility: inherit; font-family: Roboto, sans-serif; font-size: 12px; font-weight: 200;" fill="rgb(255, 255, 255)" stroke="none" stroke-width="1px">6</text><text x="0" y="66.63304962434492" dx="0em" dy="0.3em" style="text-anchor: end; visibility: inherit; font-family: Roboto, sans-serif; font-size: 12px; font-weight: 200;" fill="rgb(255, 255, 255)" stroke="none" stroke-width="1px">7</text><text x="0" y="29.827913091440248" dx="0em" dy="0.3em" style="text-anchor: end; visibility: inherit; font-family: Roboto, sans-serif; font-size: 12px; font-weight: 200;" fill="rgb(255, 255, 255)" stroke="none" stroke-width="1px">8</text></g><line x1="20.390625" y1="0" x2="20.390625" y2="377" fill="rgb(0, 0, 0)" stroke="rgb(204, 204, 204)" stroke-width="1px"></line></g></g><g transform="translate(20, 0)" clip-path="url(#clip_0)"><clipPath id="clip_0"><rect width="1262" height="377"></rect></clipPath><g><g><g><line x1="0" y1="0" x2="0" y2="377" fill="rgb(0, 0, 0)" stroke="rgb(189, 189, 189)" stroke-width="1px" opacity="0.25"></line><line x1="157.826171875" y1="0" x2="157.826171875" y2="377" fill="rgb(0, 0, 0)" stroke="rgb(189, 189, 189)" stroke-width="1px" opacity="0.25"></line><line x1="315.65234375" y1="0" x2="315.65234375" y2="377" fill="rgb(0, 0, 0)" stroke="rgb(189, 189, 189)" stroke-width="1px" opacity="0.25"></line><line x1="473.478515625" y1="0" x2="473.478515625" y2="377" fill="rgb(0, 0, 0)" stroke="rgb(189, 189, 189)" stroke-width="1px" opacity="0.25"></line><line x1="631.3046875" y1="0" x2="631.3046875" y2="377" fill="rgb(0, 0, 0)" stroke="rgb(189, 189, 189)" stroke-width="1px" opacity="0.25"></line><line x1="789.130859375" y1="0" x2="789.130859375" y2="377" fill="rgb(0, 0, 0)" stroke="rgb(189, 189, 189)" stroke-width="1px" opacity="0.25"></line><line x1="946.95703125" y1="0" x2="946.95703125" y2="377" fill="rgb(0, 0, 0)" stroke="rgb(189, 189, 189)" stroke-width="1px" opacity="0.25"></line><line x1="1104.783203125" y1="0" x2="1104.783203125" y2="377" fill="rgb(0, 0, 0)" stroke="rgb(189, 189, 189)" stroke-width="1px" opacity="0.25"></line><line x1="1262.609375" y1="0" x2="1262.609375" y2="377" fill="rgb(0, 0, 0)" stroke="rgb(189, 189, 189)" stroke-width="1px" opacity="0.25"></line></g><g><line x1="0" y1="300.1729897287516" x2="1262.609375" y2="300.1729897287516" fill="rgb(0, 0, 0)" stroke="rgb(189, 189, 189)" stroke-width="1px" opacity="0.25"></line><line x1="0" y1="220.87944124888432" x2="1262.609375" y2="220.87944124888432" fill="rgb(0, 0, 0)" stroke="rgb(189, 189, 189)" stroke-width="1px" opacity="0.25"></line><line x1="0" y1="159.37458676383912" x2="1262.609375" y2="159.37458676383912" fill="rgb(0, 0, 0)" stroke="rgb(189, 189, 189)" stroke-width="1px" opacity="0.25"></line><line x1="0" y1="109.12146157130746" x2="1262.609375" y2="109.12146157130746" fill="rgb(0, 0, 0)" stroke="rgb(189, 189, 189)" stroke-width="1px" opacity="0.25"></line><line x1="0" y1="66.63304962434492" x2="1262.609375" y2="66.63304962434492" fill="rgb(0, 0, 0)" stroke="rgb(189, 189, 189)" stroke-width="1px" opacity="0.25"></line><line x1="0" y1="29.827913091440248" x2="1262.609375" y2="29.827913091440248" fill="rgb(0, 0, 0)" stroke="rgb(189, 189, 189)" stroke-width="1px" opacity="0.25"></line></g></g></g><g><g><line x1="157.826171875" y1="0" x2="157.826171875" y2="377" fill="rgb(0, 0, 0)" stroke="rgb(153, 153, 153)" stroke-width="1.5px"></line></g></g><g><g><g><g><g><path stroke="rgb(238, 51, 119)" stroke-width="2px" d="M157.826171875,53.85714285714283L159.40443359375,85.63568119380255L160.9826953125,96.35124206600375L162.56095703125,104.92168561039048L164.13921875,114.1650747290099L165.71748046875,121.37052577460159L167.2957421875,119.8131707805639L168.87400390625,129.3805147018064L170.45226562500002,138.90166721894778L172.03052734375,138.59617796206444L173.60878906250002,144.85367426540634L175.18705078125,149.85663572575584L176.76531250000002,151.43751871622146L178.34357421874998,155.37090709922518L179.9218359375,169.8021288876734L181.50009765624998,167.47891009983175L183.078359375,173.7879940905874L184.65662109374998,181.52013309565854L186.2348828125,196.95916178193784L187.81314453125,197.97730668321302L189.39140625,199.99206548691123L190.96966796875,202.52163120666327L192.5479296875,221.59966948935514L194.12619140625,224.18855872092556L195.704453125,216.17802682026624L197.28271484375,226.68227964015605L198.8609765625,220.39104667619776L200.43923828125,216.72568046348928L202.0175,222.3793001025715L203.59576171875,236.79365978924247L205.1740234375,240.93782792537405L206.75228515625,224.03491372491195L208.330546875,216.35046159236322L209.90880859375002,220.4944327486119L211.4870703125,241.2393254829131L213.06533203125002,240.95651560885196L214.64359375,239.73131701128008L216.22185546875002,252.77790585760232L217.80011718749998,261.55043582331217L219.37837890625,269.3130313323681L220.95664062499998,264.41311576254174L222.53490234375,248.59605157138125L224.11316406249998,231.19066766548295L225.69142578125,228.40521357150652L227.2696875,240.1778428383217L228.84794921875,250.3022561645696L230.4262109375,252.8545571706889L232.00447265625,242.94641826884052L233.582734375,244.80126718751436L235.16099609375,245.3711340953456L236.7392578125,246.35398248713986L238.31751953125,251.9739776430989L239.89578125,249.39097914476915L241.47404296875,239.95788970535102L243.0523046875,255.46841759243213L244.63056640625,240.4602263060599L246.208828125,245.51987341275398L247.78708984375,245.65152009965072L249.36535156250002,258.72206000100726L250.94361328125,264.9285959653771L252.52187500000002,258.7844433148249L254.10013671875,258.1477274708663L255.67839843750002,266.29828563206513L257.25666015625,274.7164982568674L258.83492187499996,268.8771208371339L260.41318359375,259.1964708355015L261.9914453125,255.74701708621484L263.56970703125,262.3764059895419L265.14796875,267.60880003019673L266.72623046875,263.44190007726496L268.3044921875,252.55787330016798L269.88275390625,255.00619260085946L271.461015625,251.27218645178343L273.03927734375,255.60223126090813L274.6175390625,269.71863628428366L276.19580078125,265.94664347908537L277.7740625,270.6301698925828L279.35232421875,274.6655654310841L280.9305859375,270.3517167538661L282.50884765625,269.27672714772694L284.087109375,271.34611992269487L285.66537109375,257.647309602018L287.2436328125,271.0760741194606L288.82189453125,270.05951497228443L290.40015625,254.9393489247492L291.97841796875,255.52419388105122L293.55667968750004,244.2399805679348L295.13494140625,245.94505177062638L296.713203125,267.88258107810714L298.29146484374996,278.53883517878353L299.8697265625,271.16170051187265L301.44798828125,276.96704428923323L303.02625,272.80718492290833L304.60451171875,281.8380031380493L306.1827734375,281.5581665535156L307.76103515625,273.95706471719114L309.339296875,280.2520487475019L310.91755859375,271.95261799368666L312.4958203125,266.0233549758651L314.07408203125,257.271387604255L315.65234375,268.2239900781802L317.23060546874996,284.4640790948611L318.8088671875,269.11741264575124L320.38712890625,268.24947698077114L321.965390625,271.7115955155072L323.54365234374995,270.6795023309078L325.1219140625,280.43485042309686L326.70017578125,289.25905002563644L328.2784375,289.795581168815L329.85669921874995,279.5475482815272L331.4349609375,282.73808793434904L333.01322265625,290.6362254760947L334.591484375,291.2094282933715L336.16974609375,290.0759957286871L337.7480078125,281.12428412745066L339.32626953125,297.18687960541706L340.90453125000005,280.444694531407L342.48279296875,292.3565727674151L344.0610546875,289.0975415096642L345.63931640625,280.2931288192409L347.21757812500005,278.0289238646944L348.79583984375,294.13808882587693L350.3741015625,277.58118852239323L351.95236328125,279.2216357792073L353.53062500000004,300.1717631546521L355.10888671875,290.26566001820936L356.68714843749996,270.44771781442364L358.26541015625,281.2816736756061L359.843671875,274.19369405540203L361.42193359375,291.986996512721L363.00019531249995,293.3108329269397L364.57845703125,275.9187641839285L366.15671875,279.20513994064214L367.73498046875,291.70815850738387L369.31324218749995,292.1388726617413L370.89150390625,292.089156220732L372.469765625,287.11861166210696L374.04802734375,281.62481157794514L375.6262890625,275.86794291087773L377.20455078125,286.2679392083833L378.7828125,273.21112201228556L380.36107421875005,270.9881214916071L381.9393359375,290.03697953384625L383.51759765625,285.0183531591991L385.095859375,285.0550933028078L386.67412109375005,276.37237555664814L388.2523828125,273.81893362082127L389.83064453125,286.6343397700751L391.40890625,287.598286130779L392.98716796875004,292.2948421439442L394.5654296875,277.46170821272915L396.14369140624996,284.1713839377587L397.721953125,283.20939360414576L399.30021484375,275.87016330407306L400.8784765625,265.0524254112827L402.45673828124995,272.80252998822385L404.035,277.8215808990214L405.61326171875,280.5690380169262L407.1915234375,286.55371721126096L408.76978515624995,279.37136032817375L410.348046875,268.12948342336443L411.92630859375,281.8215060207078L413.5045703125,278.21171019497115L415.08283203125,280.0486819959399L416.66109375,274.83332347110326L418.23935546875,270.22761771405146L419.81761718750005,268.6136069543463L421.39587890625,259.43434614407334L422.974140625,270.5438978158246L424.55240234375,269.2231291017009L426.13066406250005,273.28487901104L427.70892578125,283.58749815107814L429.2871875,270.36296225306404L430.86544921875,261.2092671087575L432.44371093750004,261.43388541189285L434.02197265625,279.35404319697824L435.60023437499996,291.4281620175175L437.17849609375,279.3620423516946L438.7567578125,297.9281304082091L440.33501953125,317.3079161184543L441.91328124999995,290.2238052761374L443.49154296875,268.42088492014614L445.0698046875,281.7526176520404L446.64806640625,288.0978943708791L448.22632812499995,280.6323571324857L449.80458984375,278.2444479038291L451.3828515625,268.8645530531508L452.96111328125,281.2707136812007L454.539375,293.400425591718L456.11763671875,281.3762212736837L457.6958984375,278.0463409611929L459.27416015625005,277.4737850954111L460.852421875,281.1300331716822L462.43068359375,276.7094304924902L464.0089453125,272.6770365192592L465.58720703125005,282.472687960003L467.16546875,266.3751568686094L468.74373046875,266.8116411957507L470.3219921875,278.6244573205667L471.90025390625004,284.76111896035434L473.478515625,288.869303580736L475.05677734374996,289.45573458460035L476.6350390625,285.4427069391519L478.21330078125,284.7306017463459L479.7915625,286.3741118781718L481.36982421874995,287.34817263694873L482.9480859375,289.2111374413349L484.52634765625,275.59294146804024L486.104609375,279.28402747826743L487.68287109374995,275.338263532192L489.2611328125,273.52866739167666L490.83939453125,271.08186857890684L492.41765625,289.19118757703814L493.99591796875,283.18956978607076L495.5741796875,299.11671132056654L497.15244140625,283.3420557831847L498.73070312500005,284.867660753044L500.30896484375,290.4449993887398L501.8872265625,286.3249962736894L503.46548828125,269.2795634287321L505.04375000000005,279.40267645358796L506.62201171875,274.09812590909837L508.2002734375,264.4846276840907L509.77853515625,270.8419404620686L511.35679687500004,288.9910496502759L512.93505859375,298.3143157697532L514.5133203125,310.47516265641804L516.09158203125,294.35113855780963L517.6698437499999,298.90863487945524L519.24810546875,289.75467968548816L520.8263671875,298.62037279853627L522.40462890625,297.59233344072015L523.982890625,290.7858410054967L525.56115234375,281.4555450830935L527.1394140625,279.00074197777093L528.71767578125,291.5062204669356L530.2959375,278.30408013972857L531.87419921875,280.67899203503856L533.4524609375,301.2644453546349L535.03072265625,296.24078634029064L536.608984375,300.99191361354207L538.18724609375,311.8714908201723L539.7655078125,299.7860710762384L541.34376953125,309.35842124027556L542.92203125,308.6192815677287L544.50029296875,292.8908517715368L546.0785546875,311.8683203961443L547.6568164062501,303.7874353041344L549.235078125,312.29399732037706L550.81333984375,298.60215111138865L552.3916015625,303.6566954100846L553.96986328125,305.5564769601737L555.548125,305.18977724686374L557.1263867187499,299.6332953457237L558.7046484375,281.93523073300804L560.28291015625,290.45577619573186L561.861171875,285.5510512453296L563.43943359375,290.8825516028423L565.0176953125,290.65841274814767L566.59595703125,283.43636336923873L568.17421875,282.3701685437991L569.75248046875,279.9261480403127L571.3307421875,290.88694728167764L572.90900390625,293.1389706568869L574.487265625,293.8771703123793L576.06552734375,288.03418290948184L577.6437890625,284.32043176074774L579.22205078125,288.6919799954527L580.8003125,290.9351945401564L582.37857421875,288.69051729958176L583.9568359375,302.83807665237305L585.53509765625,282.27110179733L587.1133593750001,274.77953893435847L588.69162109375,295.03498801557L590.2698828125,278.3105491527618L591.84814453125,284.4922258719018L593.42640625,293.94123487132316L595.00466796875,304.615531233711L596.5829296874999,308.9351296245629L598.16119140625,295.4020939799964L599.739453125,282.1213979872851L601.31771484375,286.5879825253656L602.8959765625,277.0782979778167L604.47423828125,276.4749958759433L606.0525,278.32973280081035L607.63076171875,275.93676472604864L609.2090234375,287.5409808646611L610.78728515625,288.5272904216027L612.365546875,304.48224812001337L613.94380859375,306.24154583776783L615.5220703125,310.53389607296367L617.10033203125,296.3542482431105L618.67859375,286.62699937988276L620.25685546875,276.9256555315231L621.8351171875,274.5220005595606L623.41337890625,264.1291017914955L624.991640625,273.43119229745804L626.5699023437501,266.7550738530598L628.1481640625,266.1412964046872L629.72642578125,288.1511400665807L631.3046875,296.62441826601815L632.88294921875,286.1086993184758L634.4612109374999,278.0214242200633L636.03947265625,291.19736282211136L637.617734375,289.48584027129203L639.19599609375,296.55733694792207L640.7742578125,289.1589017946057L642.3525195312501,298.01249872175475L643.93078125,295.3583801342926L645.50904296875,285.3458406879422L647.0873046874999,285.7241640505632L648.66556640625,290.5048423208076L650.243828125,296.8891063221453L651.82208984375,303.6813264022708L653.4003515625,281.43546879826897L654.9786132812501,269.6341817168672L656.556875,257.2982959867848L658.13513671875,272.61717239544697L659.7133984374999,283.5933977423787L661.29166015625,281.77017742275495L662.869921875,283.10928129939373L664.44818359375,292.33932828655225L666.0264453125,293.2591163365839L667.6047070312501,285.0685419132233L669.18296875,278.6847979918966L670.76123046875,283.0115629295992L672.3394921875,262.4229938972773L673.9177539062499,261.8254419928045L675.496015625,276.12001751265456L677.07427734375,283.4282991743148L678.6525390625,266.7113483829247L680.23080078125,265.0863206751104L681.8090625000001,270.11036208824504L683.38732421875,275.66971811149295L684.9655859375,283.5561768499213L686.5438476562499,280.6970444277528L688.122109375,292.1174706629569L689.70037109375,288.19578344031925L691.2786328125,277.5287959506253L692.85689453125,280.4863158918158L694.4351562500001,285.2591415991029L696.01341796875,286.78657301372226L697.5916796875,289.16153928758877L699.1699414062499,297.4030037742784L700.748203125,292.20574166467827L702.32646484375,303.4439386001621L703.9047265625,300.2610934787181L705.48298828125,290.61337456087483L707.0612500000001,304.2750558215841L708.63951171875,302.95085302437616L710.2177734375,300.77774727010666L711.79603515625,305.2024539149126L713.3742968749999,291.74065224057426L714.95255859375,290.3571392928044L716.5308203125,290.4093418893985L718.10908203125,289.74295484200115L719.68734375,285.00604500164104L721.2656054687501,296.9757458532176L722.8438671875,296.74840469306093L724.42212890625,309.61918233005963L726.0003906249999,303.36251787152435L727.57865234375,290.67895646343504L729.1569140625,296.050806974402L730.73517578125,290.2031965000566L732.3134375,283.71561801483847L733.8916992187501,283.55900439932236L735.4699609375,298.59208146206305L737.04822265625,301.54473697610445L738.6264843749999,295.2369225039496L740.20474609375,295.90716114167225L741.7830078125,283.5027910857956L743.36126953125,298.4976421981924L744.93953125,306.8392109993082L746.5177929687501,303.4464560546614L748.0960546875,292.6158226171498L749.67431640625,294.07644628883446L751.252578125,279.6109956501672L752.8308398437499,275.2079074081093L754.4091015625,274.0306845682192L755.98736328125,285.1499394275323L757.565625,281.1157772523521L759.14388671875,279.925948407135L760.7221484375001,282.46873115588556L762.30041015625,279.28481328042045L763.878671875,286.03442495780473L765.4569335937499,293.34879298655284L767.0351953125,295.0605567644528L768.61345703125,290.7733821482066L770.19171875,288.80437387837907L771.76998046875,271.76600464857404L773.3482421875001,287.78173050090896L774.92650390625,274.8063103740861L776.504765625,278.08074609733484L778.0830273437499,275.06266352251413L779.6612890625,279.8736700835829L781.23955078125,285.78300278941725L782.8178125,278.9590872473814L784.39607421875,274.51191054156635L785.9743359375001,284.6527031876982L787.55259765625,292.09297309275036L789.130859375,279.5207450274252L790.70912109375,295.824203570951L792.2873828124999,292.09216693454425L793.86564453125,287.26696021015107L795.44390625,282.8922118360389L797.02216796875,287.5546987022163L798.6004296875,291.7826691527727L800.1786914062501,276.4730259335549L801.756953125,259.06046783583173L803.33521484375,268.5800711500189L804.9134765624999,280.0493643437763L806.49173828125,276.6507856127809L808.07,282.80114391850736L809.64826171875,291.05919205419696L811.2265234375,301.5818798945778L812.8047851562501,313.89123583373737L814.383046875,300.16508199459935L815.96130859375,313.11918955061964L817.5395703124999,301.22686633141205L819.11783203125,309.84846462108567L820.69609375,310.2434047007785L822.27435546875,303.8558231184485L823.8526171875,287.3189036486358L825.4308789062501,281.1190775686202L827.009140625,290.297253135717L828.58740234375,270.3598675006689L830.1656640625,283.5366542528214L831.7439257812499,272.41489919858043L833.3221875,282.7983894358954L834.90044921875,286.508187733728L836.4787109375,286.2244518249422L838.05697265625,279.44499488242855L839.6352343750001,275.00664797424986L841.21349609375,269.03612202144376L842.7917578125,265.6036227915167L844.3700195312499,283.32828335390195L845.94828125,278.1340268397391L847.52654296875,283.00188438459406L849.1048046875,313.30420042822357L850.68306640625,320.3988877693315L852.2613281250001,310.0048520672757L853.83958984375,301.1574001313345L855.4178515625,300.14619081687243L856.9961132812499,275.868708844428L858.574375,271.28915396421013L860.15263671875,269.1815987328586L861.7308984375,281.761229616407L863.30916015625,295.64896606625666L864.8874218750001,297.45239955770614L866.46568359375,296.1295047104952L868.0439453125,278.5985195843528L869.62220703125,281.63313684881183L871.2004687499999,285.46203676069393L872.77873046875,282.0149700151604L874.3569921875,272.64592663460803L875.93525390625,272.1293777311818L877.513515625,283.39668534020365L879.0917773437501,281.64001499148776L880.6700390625,271.41021931000273L882.24830078125,277.75773518780545L883.8265624999999,277.16335213289494L885.40482421875,284.23406956233646L886.9830859375,285.66843902204545L888.56134765625,280.0146733790795L890.139609375,294.3012953037751L891.7178710937501,283.6906328887817L893.2961328125,278.12989522567005L894.87439453125,288.1621219074889L896.4526562499999,276.9735534950316L898.03091796875,269.8157117014707L899.6091796875,272.89752780177224L901.18744140625,273.11321632219676L902.765703125,275.87721089425145L904.3439648437501,286.91408043926464L905.9222265625,275.7644087178849L907.50048828125,283.4419620726755L909.07875,289.19794141322546L910.6570117187499,278.95356153212504L912.2352734375,274.6481131084919L913.81353515625,272.7382847829482L915.391796875,264.0691790627957L916.97005859375,265.0199569534834L918.5483203125001,273.3337407999044L920.12658203125,275.6996260605478L921.70484375,272.79906915791116L923.2831054687499,272.2672154640366L924.8613671875,265.6375542648065L926.43962890625,279.32285868138933L928.017890625,287.5278734102117L929.59615234375,288.42735667896324L931.1744140625001,288.5275000068483L932.75267578125,282.2733433066176L934.3309375,282.47150346738425L935.9091992187499,293.78545098599125L937.4874609375,281.6876339805465L939.06572265625,280.8738171005624L940.643984375,293.4593550440561L942.22224609375,272.6670782427817L943.8005078125001,276.8936804377653L945.37876953125,277.67269157778946L946.95703125,283.386932827671L948.53529296875,277.26720257066154L950.1135546874999,273.94830532750103L951.69181640625,274.83013371847306L953.270078125,268.3107853466981L954.84833984375,275.66410267584433L956.4266015625,274.051072157076L958.0048632812501,261.217052677808L959.583125,290.78698040225936L961.16138671875,294.08152850899273L962.7396484374999,275.6133094277792L964.31791015625,295.42718527073976L965.896171875,282.0022648995785L967.47443359375,287.37308344954965L969.0526953125,307.40948010240464L970.6309570312501,301.35731830766855L972.20921875,292.05580506059744L973.78748046875,291.20978690036014L975.3657421874999,286.3825188519801L976.94400390625,265.96137110263595L978.522265625,267.8096373155752L980.10052734375,270.214884360072L981.6787890625,286.68890052931937L983.2570507812501,282.1392337812892L984.8353125,290.44477499049964L986.41357421875,287.764408839978L987.9918359375,284.77213054433133L989.5700976562499,298.9616089824437L991.148359375,317.25798537938033L992.72662109375,304.0090389434954L994.3048828125,292.7786944842368L995.88314453125,267.5422857736002L997.4614062500001,268.92888087584527L999.03966796875,268.39214293671927L1000.6179296875,279.38904805864513L1002.1961914062499,269.3098284798886L1003.774453125,271.64211554351493L1005.35271484375,272.7504645088639L1006.9309765625,282.1753005407665L1008.50923828125,283.18984179008237L1010.0875000000001,276.75237442078156L1011.66576171875,279.8835640000794L1013.2440234375,272.2296922239424L1014.8222851562499,264.7671486151617L1016.400546875,261.77193352076387L1017.97880859375,254.1623383714663L1019.5570703125,269.46510231984246L1021.13533203125,287.85832037830335L1022.7135937500001,286.3970951091781L1024.29185546875,290.30852958042L1025.8701171875,284.4296993604707L1027.44837890625,285.29303980872925L1029.026640625,282.82721880928636L1030.60490234375,282.74257196771896L1032.1831640625,285.98915437927553L1033.76142578125,288.46380147173835L1035.3396874999999,282.35265821280575L1036.91794921875,297.9499887633814L1038.4962109375,285.48747010553336L1040.07447265625,309.83907795799956L1041.652734375,304.5512609455084L1043.23099609375,293.47846283498586L1044.8092578125,300.10329088661456L1046.38751953125,323.1428571428571L1047.96578125,322.47078723393764L1049.54404296875,301.80347619892484L1051.1223046875,284.6021959746625L1052.70056640625,299.44471860724815L1054.278828125,297.53655944608886L1055.8570898437501,310.32490975872264L1057.4353515625,306.7509542133745L1059.01361328125,310.17742893200665L1060.591875,282.7625097754141L1062.17013671875,286.7615069689971L1063.7483984375,275.16470875159143L1065.32666015625,274.8461205360371L1066.904921875,273.90785258370437L1068.48318359375,274.02891952198746L1070.0614453125,271.6277099336414L1071.63970703125,286.5193484407617L1073.21796875,282.2954825949469L1074.7962304687499,281.12261748743384L1076.3744921875,270.81588017902834L1077.95275390625,282.5336642190176L1079.531015625,285.6445038019075L1081.10927734375,298.9307456601239L1082.6875390625,291.05735327061194L1084.26580078125,284.89153006379144L1085.8440625,300.45474718117305L1087.42232421875,302.1072513649426L1089.0005859375,299.3589339530659L1090.57884765625,291.4444000818777L1092.157109375,305.91652270920747L1093.73537109375,284.88600261079375L1095.3136328125001,293.1216422902516L1096.89189453125,297.03597400699437L1098.47015625,288.1175831752001L1100.04841796875,290.0046668500792L1101.6266796875,287.7584611002462L1103.20494140625,283.71973100876033L1104.46755078125,295.7993660937453" style="fill: none;" fill="none"></path></g></g></g></g><g opacity="0.2"><g><g><g><path stroke="rgb(238, 51, 119)" stroke-width="2px" d="M157.826171875,53.85714285714283L159.40443359375,109.0341838377575L160.9826953125,108.74961173295516L162.56095703125,117.43166136820918L164.13921875,129.64815842784787L165.71748046875,134.31977049034933L167.2957421875,117.00116642320098L168.87400390625,148.2993206034065L170.45226562500002,158.1260718641128L172.03052734375,138.0036980431067L173.60878906250002,157.54498707002037L175.18705078125,159.99268576533623L176.76531250000002,154.59279216150622L178.34357421874998,163.34452624592936L179.9218359375,200.93936267799512L181.50009765624998,162.9142374139924L183.078359375,186.79660783940295L184.65662109374998,197.60090435805043L186.2348828125,230.57082932498213L187.81314453125,200.01788884684987L189.39140625,204.05281555028967L190.96966796875,207.63497539101937L192.5479296875,264.09807923167415L194.12619140625,229.42411419895092L195.704453125,200.86885950628925L197.28271484375,248.90343807819013L198.8609765625,208.25959162214613L200.43923828125,209.5593767276735L202.0175,234.01098315449258L203.59576171875,268.00271017319454L205.1740234375,249.3920828520527L206.75228515625,193.14098644292588L208.330546875,201.63892248104554L209.90880859375002,228.9483071402457L211.4870703125,287.94395583221143L213.06533203125002,240.3934544255236L214.64359375,237.30439518362496L216.22185546875002,280.79541218054266L217.80011718749998,279.9232736760238L219.37837890625,285.47656716324894L220.95664062499998,254.89520235206362L222.53490234375,219.53216271399222L224.11316406249998,199.45627706489907L225.69142578125,222.93362571418487L227.2696875,265.2693494216395L228.84794921875,271.6733206390768L230.4262109375,258.0155298606037L232.00447265625,224.19305183703213L233.582734375,248.53754032251064L235.16099609375,246.51098467424325L236.7392578125,248.3243180131353L238.31751953125,263.5344228333062L239.89578125,244.3115985815791L241.47404296875,222.06028809247928L243.0523046875,289.2742871144558L244.63056640625,212.7723168683579L246.208828125,255.89487658328716L247.78708984375,245.91421301124248L249.36535156250002,286.7950142709289L250.94361328125,277.7379825993231L252.52187500000002,246.92721073461738L254.10013671875,256.88248219701467L255.67839843750002,283.30746960376337L257.25666015625,292.3113041459328L258.83492187499996,257.59009566846004L260.41318359375,240.85239245661975L261.9914453125,248.9950066557889L263.56970703125,276.09137077810806L265.14796875,278.34845725265126L266.72623046875,255.31649407309462L268.3044921875,232.0593957279147L269.88275390625,259.9540629554206L271.461015625,243.97421486361554L273.03927734375,264.4449086810163L274.6175390625,300.22813020988536L276.19580078125,258.57591249871473L277.7740625,280.21366641346464L279.35232421875,282.89296429931073L280.9305859375,261.9462908838873L282.50884765625,267.1456195355195L284.087109375,275.5194789951287L285.66537109375,232.2101316937158L287.2436328125,299.980117702388L288.82189453125,268.04360727717454L290.40015625,227.06030674795193L291.97841796875,256.6940991616598L293.55667968750004,223.03083426277476L295.13494140625,249.37679730558665L296.713203125,317.6482520359456L298.29146484374996,301.1024962331114L299.8697265625,257.01599656269633L301.44798828125,288.92126043623796L303.02625,264.6952060854941L304.60451171875,300.78003281213773L306.1827734375,281.00101570058354L307.76103515625,259.3987902470927L309.339296875,293.2504942822175L310.91755859375,256.114038887996L312.4958203125,254.56797356026348L314.07408203125,240.6080210233157L315.65234375,291.45543002378514L317.23060546874996,320.01756345295684L318.8088671875,240.85239245661975L320.38712890625,266.5269187338372L321.965390625,278.74768738919755L323.54365234374995,268.63296106407034L325.1219140625,300.9826926160595L326.70017578125,307.74561897862367L328.2784375,290.8685583895751L329.85669921874995,260.1844166532646L331.4349609375,289.2124742702937L333.01322265625,307.09477577002787L334.591484375,292.35597222937105L336.16974609375,287.8297361100922L337.7480078125,264.09807923167415L339.32626953125,332.31374241413397L340.90453125000005,249.82034968774448L342.48279296875,317.765741317733L344.0610546875,282.71180892024097L345.63931640625,263.5344228333062L347.21757812500005,273.5688461128544L348.79583984375,329.37679508522194L350.3741015625,247.2682488270503L351.95236328125,282.5221429699733L353.53062500000004,347.3998387394138L355.10888671875,271.51595196510834L356.68714843749996,234.73462774423294L358.26541015625,304.24547992226644L359.843671875,260.5820557269705L361.42193359375,331.31412692812324L363.00019531249995,295.96971145929916L364.57845703125,244.2065889075389L366.15671875,285.87754987031263L367.73498046875,318.4717540610025L369.31324218749995,292.99973619273163L370.89150390625,291.99004780256786L372.469765625,277.4670894527545L374.04802734375,270.9865270489537L375.6262890625,264.73559606566215L377.20455078125,308.25603792314274L378.7828125,248.88817960571276L380.36107421875005,266.6082433492992L381.9393359375,332.4686587332761L383.51759765625,275.27593178405255L385.095859375,285.1283682110788L386.67412109375005,259.8349749815854L388.2523828125,268.7968823916637L389.83064453125,314.11755799439794L391.40890625,289.5305287180125L392.98716796875004,301.90570209047166L394.5654296875,250.0730305618107L396.14369140624996,298.05878422118246L397.721953125,281.3011378767023L399.30021484375,261.79437744094497L400.8784765625,244.671943453717L402.45673828124995,288.93890419005356L404.035,288.11099205304185L405.61326171875,286.13063077959464L407.1915234375,298.889718203091L408.76978515624995,265.58523302128395L410.348046875,246.9953846039235L411.92630859375,311.33860736385043L413.5045703125,271.15185449710384L415.08283203125,283.74858105143755L416.66109375,264.7194547722484L418.23935546875,261.2673237284875L419.81761718750005,265.4231907632677L421.39587890625,241.99569552594252L422.974140625,294.1299484996382L424.55240234375,266.6082433492992L426.13066406250005,281.5672277047901L427.70892578125,305.3573397432337L429.2871875,245.7482436294183L430.86544921875,243.81690796561185L432.44371093750004,261.8823241472068L434.02197265625,318.9926201209326L435.60023437499996,317.20810689820405L437.17849609375,256.7725733275908L438.7567578125,339.1602714388571L440.33501953125,360.5660979742766L441.91328124999995,243.06157569500203L443.49154296875,229.5022974283339L445.0698046875,310.4311909501175L446.64806640625,301.2039261261106L448.22632812499995,266.32369273741665L449.80458984375,273.5438062971823L451.3828515625,251.06303503281006L452.96111328125,307.8117315167245L454.539375,319.307585167243L456.11763671875,258.8604725201042L457.6958984375,271.5242437171888L459.27416015625005,276.3356399017769L460.852421875,288.56868533746666L462.43068359375,268.10085002059554L464.0089453125,264.8083206552334L465.58720703125005,303.110256192514L467.16546875,236.83669900270718L468.74373046875,267.6840649256209L470.3219921875,303.8075865212104L471.90025390625004,297.4212827980602L473.478515625,297.24850979645515L475.05677734374996,290.6288226889965L476.6350390625,277.61097963952545L478.21330078125,283.31612378283677L479.7915625,289.68083705228634L481.36982421874995,289.30079761879495L482.9480859375,292.963926127213L484.52634765625,250.29528758039535L486.104609375,286.7950142709289L487.68287109374995,267.635064777689L489.2611328125,269.955392670338L490.83939453125,266.2668178493729L492.41765625,329.29510168330324L493.99591796875,271.59878197335496L495.5741796875,333.91862658670226L497.15244140625,254.35003666014282L498.73070312500005,287.93517607823736L500.30896484375,301.91493833325063L501.8872265625,278.28904645881653L503.46548828125,238.14676317442004L505.04375000000005,300.770834520859L506.62201171875,263.8161069491509L508.2002734375,246.26154680118972L509.77853515625,283.97372892019405L511.35679687500004,329.1929885472876L512.93505859375,317.9028793664701L514.5133203125,336.4536058467077L516.09158203125,264.7679200175655L517.6698437499999,308.22766276948323L519.24810546875,272.3618496124754L520.8263671875,317.19832041111647L522.40462890625,295.5537859429296L523.982890625,277.6956417768608L525.56115234375,263.74366284270235L527.1394140625,274.1701462726976L528.71767578125,318.27547223592126L530.2959375,253.72829442565518L531.87419921875,285.47656716324894L533.4524609375,347.5634730675028L535.03072265625,286.4888533575544L536.608984375,310.71742209558465L538.18724609375,334.93816173117085L539.7655078125,277.16266767566077L541.34376953125,329.4993927875511L542.92203125,307.1513186539789L544.50029296875,263.9772068767731L546.0785546875,354.12215652774273L547.6568164062501,288.34854683611405L549.235078125,330.0825082370378L550.81333984375,273.17702200652656L552.3916015625,314.0209377941014L553.96986328125,309.3842049500272L555.548125,304.46002670181787L557.1263867187499,288.87716650502875L558.7046484375,249.71322057839595L560.28291015625,308.2749638347228L561.861171875,276.0240360343928L563.43943359375,301.83173513921844L565.0176953125,290.2120205302794L566.59595703125,269.5769015903355L568.17421875,280.25639584518655L569.75248046875,275.1164933198641L571.3307421875,314.1368907081562L572.90900390625,297.6852150725926L574.487265625,295.3550773334132L576.06552734375,276.74039318033266L577.6437890625,277.0612684201889L579.22205078125,297.6214871323744L580.8003125,295.46343630033317L582.37857421875,284.26844355464357L583.9568359375,333.42062440700204L585.53509765625,245.34131518639313L587.1133593750001,260.4229274592716L588.69162109375,340.4970374751467L590.2698828125,247.71600579234888L591.84814453125,297.24850979645515L593.42640625,313.8084648803498L595.00466796875,327.2197812393503L596.5829296874999,317.755958359521L598.16119140625,270.25195323154725L599.739453125,257.40908761274756L601.31771484375,295.71646841599164L602.8959765625,259.0424365424905L604.47423828125,275.27593178405255L606.0525,282.0657780553755L607.63076171875,271.2262921026221L609.2090234375,312.2489981260444L610.78728515625,290.5046020310865L612.365546875,339.35084876085057L613.94380859375,309.7834866054539L615.5220703125,319.2977473316908L617.10033203125,270.08716451962505L618.67859375,268.19900531806906L620.25685546875,258.54430656739123L621.8351171875,269.7907614942549L623.41337890625,244.50672019464207L624.991640625,292.9728675373177L626.5699023437501,253.90690056217403L628.1481640625,264.9214816647697L629.72642578125,338.10393769074597L631.3046875,314.3399315228849L632.88294921875,266.2668178493729L634.4612109374999,262.5708365587673L636.03947265625,319.5144723437891L637.617734375,286.1044442414569L639.19599609375,311.2238026440702L640.7742578125,274.9739191427361L642.3525195312501,316.56380308322497L643.93078125,290.1411256276212L645.50904296875,266.40495740412587L647.0873046874999,286.4800989874297L648.66556640625,300.2924637590388L650.243828125,310.07858217058117L651.82208984375,317.7461757485251L653.4003515625,241.80976944508305L654.9786132812501,247.51101776340528L656.556875,234.2351041623622L658.13513671875,305.96654846410183L659.7133984374999,306.8781691056424L661.29166015625,278.1702632746577L662.869921875,285.7990490091463L664.44818359375,311.721566958794L666.0264453125,295.10239811721556L667.6047070312501,269.4289343416365L669.18296875,266.3805793637732L670.76123046875,291.84738022250576L672.3394921875,225.45825905429302L673.9177539062499,260.63776948515147L675.496015625,307.0476767881374L677.07427734375,298.60635580800806L678.6525390625,236.12938139750847L680.23080078125,261.8743174342387L681.8090625000001,280.41029298200993L683.38732421875,287.1015156372912L684.9655859375,299.98928964324875L686.5438476562499,275.0829327606737L688.122109375,316.4078587102206L689.70037109375,280.53861306790617L691.2786328125,257.4169469014954L692.85689453125,286.4800989874297L694.4351562500001,295.03025579552275L696.01341796875,289.85779152727144L697.5916796875,293.95922570598907L699.1699414062499,314.61088548178924L700.748203125,282.126008601563L702.32646484375,327.32114165937844L703.9047265625,294.02211240276654L705.48298828125,272.3286227677439L707.0612500000001,333.721400850598L708.63951171875,300.32921687473873L710.2177734375,296.4950307585084L711.79603515625,314.2432333530452L713.3742968749999,266.71399735428275L714.95255859375,287.6189561729501L716.5308203125,290.5134640142876L718.10908203125,288.4189611141399L719.68734375,275.79686504592735L721.2656054687501,322.516977029311L722.8438671875,296.29564266551614L724.42212890625,337.23023701623407L726.0003906249999,291.2952424461152L727.57865234375,267.00710837053595L729.1569140625,307.08536431430264L730.73517578125,278.9007442086475L732.3134375,271.2180290294868L733.8916992187501,283.2469803586655L735.4699609375,331.26270252157275L737.04822265625,307.52850043802556L738.6264843749999,283.07423881985216L740.20474609375,297.24850979645515L741.7830078125,260.31954048488006L743.36126953125,331.07765895916816L744.93953125,324.2661366243481L746.5177929687501,296.8034285022496L748.0960546875,272.21238013601356L749.67431640625,297.01225780636133L751.252578125,252.85249276905682L752.8308398437499,266.6326415346236L754.4091015625,271.6981910961436L755.98736328125,308.75793509112737L757.565625,273.24368460175725L759.14388671875,277.56863814036865L760.7221484375001,287.6101867650903L762.30041015625,273.0437650165587L763.878671875,300.00765633254406L765.4569335937499,308.5400179784758L767.0351953125,298.505898915123L768.61345703125,282.4187531342108L770.19171875,284.91964320405776L771.76998046875,240.645030934885L773.3482421875001,322.7960938937931L774.92650390625,250.62514797694936L776.504765625,284.728473137644L778.0830273437499,269.1414583138176L779.6612890625,289.72505974912747L781.23955078125,297.95850493434443L782.8178125,265.83656856688214L784.39607421875,265.8527947554812L785.9743359375001,306.0603856244737L787.55259765625,307.55680370262803L789.130859375,256.0435721888451L790.70912109375,331.53022899335514L792.2873828124999,284.79796853528774L793.86564453125,277.890479600635L795.44390625,274.3708648682307L797.02216796875,297.09401859302415L798.6004296875,300.41196767489623L800.1786914062501,248.2710381985465L801.756953125,227.31410705792894L803.33521484375,288.60392886057735L804.9134765624999,304.4507047804249L806.49173828125,269.9965609251127L808.07,295.4905488515817L809.64826171875,308.3033438585477L811.2265234375,323.84533059170906L812.8047851562501,340.2100558051319L814.383046875,274.6806043407738L815.96130859375,340.9227887651611L817.5395703124999,278.9432705727778L819.11783203125,327.88948863171686L820.69609375,311.0326132141148L822.27435546875,291.5444539302433L823.8526171875,257.03957896075605L825.4308789062501,269.1578802370388L827.009140625,309.5647801503044L828.58740234375,234.4521763510137L830.1656640625,311.8557297637803L831.7439257812499,251.49390808199303L833.3221875,304.74947455588256L834.90044921875,294.0580387979432L836.4787109375,285.65954941158833L838.05697265625,266.40495740412587L839.6352343750001,266.36432207582885L841.21349609375,257.5035076885832L842.7917578125,258.8841944070543L844.3700195312499,322.4870951946801L845.94828125,268.0599639188184L847.52654296875,292.9728675373177L849.1048046875,385.96157554580515L850.68306640625,335.11539723687395L852.2613281250001,290.3804373317866L853.83958984375,284.32049204600753L855.4178515625,298.1408343347734L856.9961132812499,233.03706777356996L858.574375,262.37850760503375L860.15263671875,265.0266096249414L861.7308984375,308.7010616956214L863.30916015625,325.6230986779808L864.8874218750001,301.084078423501L866.46568359375,293.51043957642054L868.0439453125,246.6547017922812L869.62220703125,287.7857954945877L871.2004687499999,293.2594449935809L872.77873046875,275.2675464125585L874.3569921875,254.86401565238887L875.93525390625,271.1022537342906L877.513515625,307.33983378615693L879.0917773437501,278.1702632746577L880.6700390625,252.0797516830614L882.24830078125,290.8685583895751L883.8265624999999,275.98195766325824L885.40482421875,298.89885393047086L886.9830859375,288.5510652656822L888.56134765625,269.0757999712961L890.139609375,325.2102682245446L891.7178710937501,263.6792584774817L893.2961328125,267.36576818050963L894.87439453125,309.32722484101436L896.4526562499999,255.93399726522634L898.03091796875,256.07489264579544L899.6091796875,279.1475169187532L901.18744140625,273.5438062971823L902.765703125,281.47279187217345L904.3439648437501,310.335831431914L905.9222265625,254.79386776715427L907.50048828125,299.4206376950553L909.07875,301.04720254671713L910.6570117187499,259.5969721883357L912.2352734375,266.2586827553218L913.81353515625,268.96911650657484L915.391796875,247.55654944200262L916.97005859375,266.9256660017898L918.5483203125001,290.69984316004394L920.12658203125,280.4787283653119L921.70484375,267.10487487443993L923.2831054687499,271.2097464840116L924.8613671875,252.87570315523945L926.43962890625,308.8242909196289L928.017890625,304.65606029227274L929.59615234375,290.22974710552387L931.1744140625001,288.72729567774496L932.75267578125,270.2107468162803L934.3309375,282.8670629744581L935.9091992187499,317.83430181304715L937.4874609375,259.0424365424905L939.06572265625,279.2581941243792L940.643984375,320.41278225046864L942.22224609375,235.37301313821447L943.8005078125001,285.520120380943L945.37876953125,279.2326524094133L946.95703125,295.14749934748795L948.53529296875,265.45559545712626L950.1135546874999,267.447340712959L951.69181640625,276.5969767511929L953.270078125,255.75407316933715L954.84833984375,290.93961948401324L956.4266015625,270.8625768130995L958.0048632812501,237.28245963668724L959.583125,361.3335096590758L961.16138671875,300.770834520859L962.7396484374999,242.11475336038745L964.31791015625,339.7748066139828L965.896171875,257.03957896075605L967.47443359375,298.40545685681275L969.0526953125,352.3179058308593L970.6309570312501,289.67200179875414L972.20921875,274.3959599858453L973.78748046875,289.5305287180125L975.3657421874999,277.00213439844447L976.94400390625,229.26778036676046L978.522265625,271.53251597556056L980.10052734375,275.0745532585798L981.6787890625,322.8060811710684L983.2570507812501,273.2853469780452L984.8353125,307.7928373849198L986.41357421875,282.49629701106767L987.9918359375,278.9007442086475L989.5700976562499,329.64249645766864L991.148359375,357.8231500804468L992.72662109375,279.3518944160842L994.3048828125,271.66504415381945L995.88314453125,223.21839529525752L997.4614062500001,271.7147660622602L999.03966796875,267.3249909655321L1000.6179296875,302.72051867468025L1002.1961914062499,250.24928299134857L1003.774453125,276.35247601743964L1005.35271484375,274.9739191427361L1006.9309765625,301.9889276190179L1008.50923828125,285.2240650758051L1010.0875000000001,264.3480809725415L1011.66576171875,286.23542264304814L1013.2440234375,257.57434866981396L1014.8222851562499,250.46400021747135L1016.400546875,255.89487658328716L1017.97880859375,239.5884370850826L1019.5570703125,302.7761490984019L1021.13533203125,328.6627063663857L1022.7135937500001,283.5063164441266L1024.29185546875,298.2776823349058L1025.8701171875,273.0687594445766L1027.44837890625,287.0226654579797L1029.026640625,277.9752276458319L1030.60490234375,282.57386270980476L1032.1831640625,292.5793147449653L1033.76142578125,293.46560540284463L1035.3396874999999,270.5570959268375L1036.91794921875,331.96296666480293L1038.4962109375,262.2023445571666L1040.07447265625,365.9485513460062L1041.652734375,294.3007771033714L1043.23099609375,272.64439998456186L1044.8092578125,313.8084648803498L1046.38751953125,375.77951563334335L1047.96578125,321.13554369171675L1049.54404296875,264.7113652194424L1051.1223046875,253.2086680514759L1052.70056640625,331.66410194370786L1054.278828125,293.7706516580803L1055.8570898437501,337.7456949142343L1057.4353515625,299.759863912384L1059.01361328125,317.13970196767747L1060.591875,235.09717239162094L1062.17013671875,294.913040602932L1063.7483984375,253.4024472498912L1065.32666015625,274.2119489334136L1066.904921875,272.04641553137344L1068.48318359375,274.2704872995546L1070.0614453125,266.90122245163894L1071.63970703125,318.854938938875L1073.21796875,274.0614730761873L1074.7962304687499,278.79870364284216L1076.3744921875,251.34764612456485L1077.95275390625,307.5002000794753L1079.531015625,291.9543686685364L1081.10927734375,327.50370375088517L1082.6875390625,275.9987721883199L1084.26580078125,272.99382265529437L1085.8440625,334.3863051828354L1087.42232421875,305.4322366938426L1089.0005859375,293.95922570598907L1090.57884765625,276.31034747961195L1092.157109375,337.26178587581404L1093.73537109375,247.2075809508941L1095.3136328125001,310.31678621282884L1096.89189453125,305.0111584612988L1098.47015625,271.15185449710384L1100.04841796875,293.80654528985633L1101.6266796875,283.3334123493909L1103.20494140625,275.8389151675935L1104.46755078125,321.59193017418033" style="fill: none;" fill="none"></path></g></g></g></g></g></g><g transform="translate(20, 377)" clip-path="url(#clip_1)"><clipPath id="clip_1"><rect width="1262" height="23"></rect></clipPath><g><g><line x1="0" y1="0" x2="0" y2="5" style="visibility: inherit;" fill="rgb(0, 0, 0)" stroke="rgb(204, 204, 204)" stroke-width="1px"></line><line x1="157.826171875" y1="0" x2="157.826171875" y2="5" style="visibility: inherit;" fill="rgb(0, 0, 0)" stroke="rgb(204, 204, 204)" stroke-width="1px"></line><line x1="315.65234375" y1="0" x2="315.65234375" y2="5" style="visibility: inherit;" fill="rgb(0, 0, 0)" stroke="rgb(204, 204, 204)" stroke-width="1px"></line><line x1="473.478515625" y1="0" x2="473.478515625" y2="5" style="visibility: inherit;" fill="rgb(0, 0, 0)" stroke="rgb(204, 204, 204)" stroke-width="1px"></line><line x1="631.3046875" y1="0" x2="631.3046875" y2="5" style="visibility: inherit;" fill="rgb(0, 0, 0)" stroke="rgb(204, 204, 204)" stroke-width="1px"></line><line x1="789.130859375" y1="0" x2="789.130859375" y2="5" style="visibility: inherit;" fill="rgb(0, 0, 0)" stroke="rgb(204, 204, 204)" stroke-width="1px"></line><line x1="946.95703125" y1="0" x2="946.95703125" y2="5" style="visibility: inherit;" fill="rgb(0, 0, 0)" stroke="rgb(204, 204, 204)" stroke-width="1px"></line><line x1="1104.783203125" y1="0" x2="1104.783203125" y2="5" style="visibility: inherit;" fill="rgb(0, 0, 0)" stroke="rgb(204, 204, 204)" stroke-width="1px"></line><line x1="1262.609375" y1="0" x2="1262.609375" y2="5" style="visibility: inherit;" fill="rgb(0, 0, 0)" stroke="rgb(204, 204, 204)" stroke-width="1px"></line></g><g transform="translate(0, 8)"><text x="0" y="0" dx="0em" dy="0.95em" style="text-anchor: middle; visibility: hidden; font-family: Roboto, sans-serif; font-size: 12px; font-weight: 200;" fill="rgb(255, 255, 255)" stroke="none" stroke-width="1px">-500</text><text x="157.826171875" y="0" dx="0em" dy="0.95em" style="text-anchor: middle; visibility: inherit; font-family: Roboto, sans-serif; font-size: 12px; font-weight: 200;" fill="rgb(255, 255, 255)" stroke="none" stroke-width="1px">0</text><text x="315.65234375" y="0" dx="0em" dy="0.95em" style="text-anchor: middle; visibility: inherit; font-family: Roboto, sans-serif; font-size: 12px; font-weight: 200;" fill="rgb(255, 255, 255)" stroke="none" stroke-width="1px">500</text><text x="473.478515625" y="0" dx="0em" dy="0.95em" style="text-anchor: middle; visibility: inherit; font-family: Roboto, sans-serif; font-size: 12px; font-weight: 200;" fill="rgb(255, 255, 255)" stroke="none" stroke-width="1px">1k</text><text x="631.3046875" y="0" dx="0em" dy="0.95em" style="text-anchor: middle; visibility: inherit; font-family: Roboto, sans-serif; font-size: 12px; font-weight: 200;" fill="rgb(255, 255, 255)" stroke="none" stroke-width="1px">1.5k</text><text x="789.130859375" y="0" dx="0em" dy="0.95em" style="text-anchor: middle; visibility: inherit; font-family: Roboto, sans-serif; font-size: 12px; font-weight: 200;" fill="rgb(255, 255, 255)" stroke="none" stroke-width="1px">2k</text><text x="946.95703125" y="0" dx="0em" dy="0.95em" style="text-anchor: middle; visibility: inherit; font-family: Roboto, sans-serif; font-size: 12px; font-weight: 200;" fill="rgb(255, 255, 255)" stroke="none" stroke-width="1px">2.5k</text><text x="1104.783203125" y="0" dx="0em" dy="0.95em" style="text-anchor: middle; visibility: inherit; font-family: Roboto, sans-serif; font-size: 12px; font-weight: 200;" fill="rgb(255, 255, 255)" stroke="none" stroke-width="1px">3k</text><text x="1262.609375" y="0" dx="0em" dy="0.95em" style="text-anchor: middle; visibility: hidden; font-family: Roboto, sans-serif; font-size: 12px; font-weight: 200;" fill="rgb(255, 255, 255)" stroke="none" stroke-width="1px">3.5k</text></g><line x1="0" y1="0" x2="1262.609375" y2="0" fill="rgb(0, 0, 0)" stroke="rgb(204, 204, 204)" stroke-width="1px"></line></g></g></g></g></svg>