<svg viewBox="0 0 1283 400" xmlns="http://www.w3.org/2000/svg"><g><g><g><g><g><line x1="20.390625" y1="288.7934596684789" x2="15.390625" y2="288.7934596684789" style="visibility: inherit;" fill="rgb(0, 0, 0)" stroke="rgb(204, 204, 204)" stroke-width="1px"></line><line x1="20.390625" y1="212.41769889065523" x2="15.390625" y2="212.41769889065523" style="visibility: inherit;" fill="rgb(0, 0, 0)" stroke="rgb(204, 204, 204)" stroke-width="1px"></line><line x1="20.390625" y1="153.17605637521942" x2="15.390625" y2="153.17605637521942" style="visibility: inherit;" fill="rgb(0, 0, 0)" stroke="rgb(204, 204, 204)" stroke-width="1px"></line><line x1="20.390625" y1="104.7721100060223" x2="15.390625" y2="104.7721100060223" style="visibility: inherit;" fill="rgb(0, 0, 0)" stroke="rgb(204, 204, 204)" stroke-width="1px"></line><line x1="20.390625" y1="63.847156476987514" x2="15.390625" y2="63.847156476987514" style="visibility: inherit;" fill="rgb(0, 0, 0)" stroke="rgb(204, 204, 204)" stroke-width="1px"></line><line x1="20.390625" y1="28.396349228198677" x2="15.390625" y2="28.396349228198677" style="visibility: inherit;" fill="rgb(0, 0, 0)" stroke="rgb(204, 204, 204)" stroke-width="1px"></line></g><g transform="translate(10.390625, 0)"><text x="0" y="288.7934596684789" dx="0em" dy="0.3em" style="text-anchor: end; visibility: inherit; font-family: Roboto, sans-serif; font-size: 12px; font-weight: 200;" fill="rgb(255, 255, 255)" stroke="none" stroke-width="1px">3</text><text x="0" y="212.41769889065523" dx="0em" dy="0.3em" style="text-anchor: end; visibility: inherit; font-family: Roboto, sans-serif; font-size: 12px; font-weight: 200;" fill="rgb(255, 255, 255)" stroke="none" stroke-width="1px">4</text><text x="0" y="153.17605637521942" dx="0em" dy="0.3em" style="text-anchor: end; visibility: inherit; font-family: Roboto, sans-serif; font-size: 12px; font-weight: 200;" fill="rgb(255, 255, 255)" stroke="none" stroke-width="1px">5</text><text x="0" y="104.7721100060223" dx="0em" dy="0.3em" style="text-anchor: end; visibility: inherit; font-family: Roboto, sans-serif; font-size: 12px; font-weight: 200;" fill="rgb(255, 255, 255)" stroke="none" stroke-width="1px">6</text><text x="0" y="63.847156476987514" dx="0em" dy="0.3em" style="text-anchor: end; visibility: inherit; font-family: Roboto, sans-serif; font-size: 12px; font-weight: 200;" fill="rgb(255, 255, 255)" stroke="none" stroke-width="1px">7</text><text x="0" y="28.396349228198677" dx="0em" dy="0.3em" style="text-anchor: end; visibility: inherit; font-family: Roboto, sans-serif; font-size: 12px; font-weight: 200;" fill="rgb(255, 255, 255)" stroke="none" stroke-width="1px">8</text></g><line x1="20.390625" y1="0" x2="20.390625" y2="377" fill="rgb(0, 0, 0)" stroke="rgb(204, 204, 204)" stroke-width="1px"></line></g></g><g transform="translate(20, 0)" clip-path="url(#clip_0)"><clipPath id="clip_0"><rect width="1262" height="377"></rect></clipPath><g><g><g><line x1="77.88154233047378" y1="0" x2="77.88154233047378" y2="377" fill="rgb(0, 0, 0)" stroke="rgb(189, 189, 189)" stroke-width="1px" opacity="0.25"></line><line x1="263.94391789512025" y1="0" x2="263.94391789512025" y2="377" fill="rgb(0, 0, 0)" stroke="rgb(189, 189, 189)" stroke-width="1px" opacity="0.25"></line><line x1="450.00629345976665" y1="0" x2="450.00629345976665" y2="377" fill="rgb(0, 0, 0)" stroke="rgb(189, 189, 189)" stroke-width="1px" opacity="0.25"></line><line x1="636.0686690244132" y1="0" x2="636.0686690244132" y2="377" fill="rgb(0, 0, 0)" stroke="rgb(189, 189, 189)" stroke-width="1px" opacity="0.25"></line><line x1="822.1310445890597" y1="0" x2="822.1310445890597" y2="377" fill="rgb(0, 0, 0)" stroke="rgb(189, 189, 189)" stroke-width="1px" opacity="0.25"></line><line x1="1008.193420153706" y1="0" x2="1008.193420153706" y2="377" fill="rgb(0, 0, 0)" stroke="rgb(189, 189, 189)" stroke-width="1px" opacity="0.25"></line><line x1="1194.2557957183526" y1="0" x2="1194.2557957183526" y2="377" fill="rgb(0, 0, 0)" stroke="rgb(189, 189, 189)" stroke-width="1px" opacity="0.25"></line></g><g><line x1="0" y1="288.7934596684789" x2="1262.609375" y2="288.7934596684789" fill="rgb(0, 0, 0)" stroke="rgb(189, 189, 189)" stroke-width="1px" opacity="0.25"></line><line x1="0" y1="212.41769889065523" x2="1262.609375" y2="212.41769889065523" fill="rgb(0, 0, 0)" stroke="rgb(189, 189, 189)" stroke-width="1px" opacity="0.25"></line><line x1="0" y1="153.17605637521942" x2="1262.609375" y2="153.17605637521942" fill="rgb(0, 0, 0)" stroke="rgb(189, 189, 189)" stroke-width="1px" opacity="0.25"></line><line x1="0" y1="104.7721100060223" x2="1262.609375" y2="104.7721100060223" fill="rgb(0, 0, 0)" stroke="rgb(189, 189, 189)" stroke-width="1px" opacity="0.25"></line><line x1="0" y1="63.847156476987514" x2="1262.609375" y2="63.847156476987514" fill="rgb(0, 0, 0)" stroke="rgb(189, 189, 189)" stroke-width="1px" opacity="0.25"></line><line x1="0" y1="28.396349228198677" x2="1262.609375" y2="28.396349228198677" fill="rgb(0, 0, 0)" stroke="rgb(189, 189, 189)" stroke-width="1px" opacity="0.25"></line></g></g></g><g><g><line x1="77.88154233047378" y1="0" x2="77.88154233047378" y2="377" fill="rgb(0, 0, 0)" stroke="rgb(153, 153, 153)" stroke-width="1.5px"></line></g></g><g><g><g><g><g><path stroke="rgb(0, 119, 187)" stroke-width="2px" d="M77.88154233047378,29.9206349206349L79.74216608612024,50.36126382544637L81.6027898417667,69.45730977824842L83.46341359741317,76.25092687730506L85.32403735305962,85.28960563026071L87.18466110870611,97.23245965168684L89.04528486435257,97.83310635685707L90.90590861999904,105.31208450214231L92.7665323756455,115.36860481182237L94.62715613129195,120.6337917229646L96.48777988693843,121.88132543387636L98.34840364258488,127.65094305858794L100.20902739823136,133.258241228914L102.06965115387781,131.69043436901563L103.93027490952427,135.50059434210206L105.79089866517074,138.34096905028494L107.6515224208172,142.29429071438244L109.51214617646367,148.94503789450965L111.37276993211013,163.8106257172273L113.23339368775662,163.16282316289454L115.09401744340308,161.49040401914118L116.95464119904953,167.5628096820556L118.815264954696,181.10563224448964L120.67588871034246,180.98972689507096L122.53651246598893,176.27922593250878L124.39713622163539,181.3476672660916L126.25775997728185,177.87049693463692L128.11838373292832,172.54639952011567L129.97900748857478,171.02806990536544L131.83963124422124,174.18680021167998L133.7002549998677,174.01507167270682L135.56087875551418,166.5167884476362L137.42150251116064,160.61459071057723L139.28212626680713,158.07976446234557L141.14275002245358,176.50981898692126L143.00337377810004,172.6632440222242L144.8639975337465,174.08962880861114L146.72462128939296,186.10318919953727L148.58524504503944,191.01659247185046L150.4458688006859,197.3851453686573L152.30649255633236,198.66658436897296L154.16711631197882,183.01047385157804L156.02774006762527,172.35175047958597L157.88836382327176,167.59257334735796L159.74898757891822,181.6538509928315L161.6096113345647,181.96660073354693L163.47023509021113,180.02566348744062L165.33085884585762,182.22379387039987L167.19148260150408,177.05902559451755L169.05210635715054,182.4799810260371L170.912730112797,187.86707240191168L172.77335386844348,196.3695389638229L174.6339776240899,197.82067186543142L176.4946013797364,187.90295679336782L178.35522513538288,197.04824487571332L180.21584889102934,190.65287927758033L182.0764726466758,192.02149381710973L183.93709640232225,193.09352172528315L185.79772015796874,207.7742065655291L187.65834391361517,218.4073768400544L189.51896766926166,207.87537255031927L191.3795914249081,209.1779516524473L193.2402151805546,214.38622815502455L195.10083893620103,220.02792520798502L196.96146269184752,209.61693266348453L198.82208644749397,203.5175542876213L200.68271020314043,203.07992483075859L202.5433339587869,208.9921361384142L204.40395771443337,217.73143357807487L206.26458147007986,221.25654513093596L208.1252052257263,214.34386732361398L209.98582898137278,219.0450722336507L211.84645273701923,210.87798737725433L213.7070764926657,205.72179309205833L215.56770024831215,221.50467503991328L217.42832400395864,216.45134987666736L219.28894775960507,218.4096355833015L221.14957151525155,219.5966157062332L223.010195270898,215.52577419482614L224.8708190265445,217.63676301808317L226.73144278219092,225.27025354777047L228.5920665378374,214.9800999789886L230.4526902934839,226.84189167424972L232.31331404913033,223.91766392468085L234.1739378047768,213.05066583301945L236.03456156042327,215.59321630627633L237.89518531606976,210.0504049517707L239.7558090717162,210.042202729736L241.61643282736267,230.63012136194115L243.47705658300913,244.54782892799153L245.3376803386556,236.86511862850494L247.19830409430205,237.20585737635173L249.05892784994853,236.83691576116962L250.91955160559496,241.1713852825065L252.78017536124145,240.62385664783804L254.64079911688793,236.13871528668426L256.50142287253436,243.01181748108274L258.36204662818085,229.31443611405817L260.22267038382734,228.3841739429999L262.08329413947376,229.29042914571713L263.94391789512025,233.57439381402344L265.80454165076674,244.2411180332149L267.66516540641317,232.86134820271783L269.52578916205965,234.53645249021173L271.3864129177061,238.12286678025094L273.24703667335257,238.43974432637117L275.107660428999,244.27472596539675L276.9682841846455,255.47523915928474L278.82890794029197,259.5166973131576L280.6895316959384,248.8071631831967L282.5501554515849,254.18643944179254L284.41077920723137,257.3679296459286L286.27140296287786,258.2405976253253L288.1320267185243,256.10210635991484L289.9926504741708,251.13189121162094L291.8532742298172,267.73857768344186L293.7138979854637,251.2486174679105L295.5745217411101,263.8525987759246L297.4351454967566,265.4636869713168L299.29576925240303,257.23193680107596L301.1563930080495,248.10557596571232L303.017016763696,264.84833544250165L304.8776405193425,242.33975989614098L306.7382642749889,247.63901715741716L308.5988880306354,269.63759765273727L310.4595117862819,261.5041776745002L312.3201355419283,247.1120956385179L314.1807592975748,254.2190210768206L316.04138305322124,250.26227299854978L317.9020068088677,266.81953987049656L319.7626305645142,267.99406982048515L321.62325432016064,255.4052289174826L323.4838780758071,258.1809143904527L325.34450183145356,264.72853174951973L327.20512558710004,264.98888231269956L329.06574934274647,266.8006955073071L330.92637309839296,261.03857345817306L332.78699685403944,257.1511429651192L334.64762060968593,252.23402209947884L336.5082443653324,261.84563312141734L338.3688681209788,246.01847830116043L340.2294918766253,245.32184827793537L342.09011563227176,263.63312610259186L343.95073938791825,257.70236119507433L345.8113631435647,261.9220047611927L347.67198689921116,252.92578060857164L349.53261065485765,252.9660475668265L351.3932344105041,268.6757399458835L353.2538581661505,268.13828025466836L355.114481921797,271.65405955391583L356.9751056774435,258.759386292345L358.83572943308997,262.76271575365286L360.69635318873645,254.03918523341315L362.5569769443828,250.00375340690584L364.4176007000293,242.07487127427058L366.2782244556758,250.46084780238638L368.1388482113223,254.908264039227L369.9994719669687,254.31608072367365L371.8600957226152,260.2861191409237L373.7207194782617,259.21213741714126L375.58134323390817,249.87033876923374L377.44196698955454,260.9313677915308L379.30259074520103,259.9234887367613L381.1632145008475,259.6222016727573L383.023838256494,253.4145687702448L384.8844620121405,251.02317268051362L386.74508576778686,249.92704104970397L388.60570952343335,238.8717966505293L390.46633327907983,248.7502098894386L392.3269570347263,246.81765663758506L394.18758079037275,250.46331196030178L396.04820454601924,257.8319383108627L397.9088283016657,246.69712404666745L399.7694520573122,240.32646836180555L401.6300758129586,241.35175589876548L403.49069956860507,255.56088235841716L405.35132332425155,264.524016991051L407.21194707989804,254.76181360215978L409.0725708355445,274.95431486415254L410.93319459119095,286.08218498748107L412.7938183468374,264.6586005776665L414.65444210248387,247.4787919042609L416.51506585813036,260.3869473740785L418.3756896137768,266.5530062792765L420.23631336942327,257.18849429656063L422.09693712506976,255.5499562839018L423.95756088071624,247.9606049797508L425.8181846363626,261.62406658294816L427.6788083920091,275.6852657528981L429.5394321476556,267.3640359423491L431.4000559033021,261.50689994246295L433.2606796589485,259.7535305559896L435.121303414595,258.50778249210106L436.9819271702415,255.79264120013158L438.84255092588796,253.8467183593629L440.7031746815344,262.7598680985322L442.5637984371808,247.0384055673436L444.4244221928273,245.59920636455442L446.2850459484738,256.67735461389213L448.1456697041203,263.7146809111955L450.00629345976665,269.87990562581706L451.86691721541314,271.03351423556387L453.7275409710596,268.9668897302555L455.5881647267061,266.39591380705883L457.44878848235254,267.5468520043904L459.309412237999,265.0148499740997L461.1700359936455,265.9651041860498L463.030659749292,255.35486852566342L464.8912835049385,256.2916223089319L466.75190726058486,250.7865819459537L468.61253101623134,251.8553577480637L470.47315477187783,252.09034017910992L472.3337785275243,267.29506748144075L474.19440228317075,262.33003068530115L476.0550260388172,278.8436177837671L477.91564979446366,264.6061703182381L479.77627355011015,263.6379730168433L481.6368973057566,268.7702157875994L483.49752106140306,263.0491151629583L485.35814481704955,249.54001304310574L487.21876857269604,258.08254537791083L489.0793923283425,253.6051951067945L490.9400160839889,246.12327062407647L492.8006398396354,254.01367227659946L494.66126359528187,270.0840888418217L496.52188735092835,278.3469504128344L498.3825111065748,288.826664661698L500.24313486222127,272.2321861299304L502.1037586178677,274.5164239527985L503.9643823735142,269.44074816503536L505.8250061291606,278.3107740076033L507.6856298848071,271.32087866948973L509.5462536404536,266.65142907755165L511.40687739610007,259.3809924439002L513.2675011517465,260.77821392879366L515.1281249073929,271.25630972406225L516.9887486630395,259.4289146785254L518.8493724186859,262.5744444231308L520.7099961743324,276.46230995226955L522.5706199299788,272.3946512563365L524.4312436856253,272.6629140084047L526.2918674412717,283.17452933097104L528.1524911969183,273.97336947747556L530.0131149525647,277.6189893139011L531.8737387082111,278.00373384590057L533.7343624638576,269.4153714344679L535.5949862195041,285.08740679606075L537.4556099751505,278.94392123681615L539.316233730797,291.1328260424356L541.1768574864435,278.55320488491236L543.0374812420899,282.93106134387637L544.8981049977365,283.4427751609652L546.7587287533828,285.24709820099014L548.6193525090293,279.88396734653224L550.4799762646758,263.5797811849869L552.3406000203223,266.5771171006653L554.2012237759687,265.77767050190147L556.0618475316152,272.2268803897952L557.9224712872617,270.6395171634535L559.7830950429081,263.5689702719979L561.6437187985546,263.1477724113757L563.504342554201,263.0526571086884L565.3649663098475,271.8382207216881L567.225590065494,272.51412739998375L569.0862138211405,271.1198547138893L570.9468375767868,267.73209148893125L572.8074613324334,267.2871035265885L574.6680850880798,269.2277330490629L576.5287088437263,273.48307415457793L578.3893325993728,271.89726379438923L580.2499563550192,285.02845137629225L582.1105801106658,264.296267295606L583.9712038663122,256.69226505558737L585.8318276219586,272.1430655959783L587.692451377605,262.1287987118716L589.5530751332516,267.3162199217179L591.413698888898,275.4340356401055L593.2743226445446,284.49759319241326L595.134946400191,289.3739119618699L596.9955701558374,278.1123336497824L598.8561939114838,264.03660737853255L600.7168176671304,268.2599880727964L602.5774414227768,258.8993180259307L604.4380651784232,258.6236575023241L606.2986889340698,257.821389907759L608.1593126897162,254.21662393720092L610.0199364453626,266.39960156667246L611.8805602010091,266.0583286858912L613.7411839566556,282.295605123333L615.601807712302,285.1207911863617L617.4624314679486,289.11201899546444L619.323055223595,275.1003150251117L621.1836789792414,265.4741253456932L623.0443027348879,261.08241581475374L624.9049264905344,257.1484323923487L626.7655502461809,248.39685944733284L628.6261740018273,255.65754159445783L630.4867977574738,248.40060836917064L632.3474215131203,247.93878969482375L634.2080452687668,271.1871334290081L636.0686690244132,276.1118268370935L637.9292927800595,267.12665334930017L639.7899165357061,259.0010350453595L641.6505402913525,271.8698672506235L643.511164046999,269.8823734469398L645.3717878026455,277.657915714537L647.232411558292,269.2856917602208L649.0930353139385,277.730101200312L650.9536590695849,276.1262366423058L652.8142828252314,267.07872894970404L654.6749065808777,268.83282155097913L656.5355303365243,272.15868230097385L658.3961540921707,279.65917027176954L660.2567778478171,284.4313789863671L662.1174016034637,265.68358844675225L663.9780253591101,253.68925686812028L665.8386491147567,242.15032671191506L667.6992728704031,256.864991444853L669.5598966260496,267.3313274838044L671.420520381696,266.4792431783581L673.2811441373424,264.6013454076318L675.1417678929889,273.4858824581226L677.0023916486354,276.43914951401405L678.8630154042819,266.60499850002026L680.7236391599283,259.970671191805L682.5842629155749,267.32754652313577L684.4448866712213,246.9614712660788L686.3055104268676,246.8801401689515L688.1661341825142,255.8322511015178L690.0267579381606,263.41834546239545L691.8873816938071,250.12348096213236L693.7480054494536,249.5287497195931L695.6086292051001,255.06161187228273L697.4692529607465,260.05263196456815L699.3298767163931,267.43002013588745L701.1905004720395,264.19044456965656L703.0511242276858,274.9337297458627L704.9117479833324,271.40770915974315L706.7723717389788,261.3875617268648L708.6329954946253,260.48897508150253L710.4936192502718,266.8510375025024L712.3542430059182,269.40452076459684L714.2148667615647,273.5524626128196L716.0754905172112,281.44857381060564L717.9361142728577,277.27119698239517L719.796738028504,285.7710368566172L721.6573617841506,281.8592445710578L723.517985539797,271.3519336756184L725.3786092954434,284.12054986582166L727.23923305109,280.23633851323154L729.0998568067364,278.12602542336396L730.9604805623829,279.0047385354952L732.8211043180294,269.93371436856745L734.6817280736757,270.98933323374223L736.5423518293222,268.9815809727915L738.4029755849687,269.7216147222181L740.2635993406152,265.89919458544324L742.1242230962616,278.3190467960652L743.9848468519082,278.1578965204005L745.8454706075546,285.9064024597043L747.7060943632011,281.90774769936326L749.5667181188476,270.9155840762232L751.4273418744939,276.5731865099251L753.2879656301404,271.93424320294275L755.1485893857869,265.9275692939456L757.0092131414334,266.41446930394267L758.8698368970798,277.8887419374403L760.7304606527264,278.9743061727596L762.5910844083728,277.0312264422049L764.4517081640192,278.42329037194304L766.3123319196657,268.23478416674925L768.1729556753121,282.11415753881323L770.0335794309586,288.1820448684928L771.8942031866051,285.74320402500393L773.7548269422516,274.22314399305475L775.615450697898,272.96000051375484L777.4760744535445,260.52349884587517L779.336698209191,256.7186593922111L781.1973219648374,258.8079246930011L783.0579457204839,269.2271642853206L784.9185694761303,264.113369261631L786.7791932317767,261.1286954021992L788.6398169874233,264.69683803869094L790.5004407430697,260.10828595103783L792.3610644987162,265.8338768941035L794.2216882543627,274.98986478882784L796.0823120100092,278.1515267604434L797.9429357656556,274.633835823848L799.803559521302,271.6313972213121L801.6641832769485,255.18201170352296L803.5248070325949,269.675184257108L805.3854307882415,258.2862658130818L807.2460545438879,258.6216049332286L809.1066782995345,256.83026421081263L810.9673020551809,261.97200946275973L812.8279258108274,269.28881758555445L814.6885495664737,262.5985153563578L816.5491733221202,258.2345126031864L818.4097970777667,268.3997624582606L820.2704208334131,275.7467115423889L822.1310445890597,265.731897613853L823.9916683447061,279.25807695334316L825.8522921003527,277.38580520044496L827.7129158559991,272.00757834089484L829.5735396116455,265.52003823823117L831.434163367292,269.49090884953984L833.2947871229384,275.8507002664248L835.1554108785849,260.63676823735074L837.0160346342313,242.2906046855226L838.8766583898778,252.81971486956576L840.7372821455243,264.46295738901523L842.5979059011707,261.90053239555726L844.4585296568173,268.4885743670466L846.3191534124637,275.60212932336236L848.1797771681101,283.6636869141431L850.0404009237566,296.786419995399L851.901024679403,284.65869034728047L853.7616484350496,295.78657667874074L855.622272190696,282.94432301463274L857.4828959463425,287.5591334016616L859.343519701989,289.3948341789773L861.2041434576355,284.22599484796024L863.0647672132818,271.5096456017462L864.9253909689282,265.11519488888786L866.7860147245748,271.23184575536L868.6466384802212,254.54703629459186L870.5072622358678,266.7332866653021L872.3678859915142,257.635361399755L874.2285097471607,267.73642954898384L876.0891335028072,269.3394892453563L877.9497572584537,270.42079467002344L879.8103810141,265.19256628044093L881.6710047697464,262.48058481831544L883.531628525393,255.92283456523737L885.3922522810394,253.21834512032294L887.252876036686,264.41921161245244L889.1134997923324,260.63534454706314L890.9741235479788,265.59590649558135L892.8347473036254,290.07606961082536L894.6953710592717,296.9003763114168L896.5559948149182,289.55142031328216L898.4166185705647,283.76500219005044L900.2772423262112,284.61507774343875L902.1378660818576,263.43372758777673L903.998489837504,258.07750196533624L905.8591135931506,253.0510519481733L907.719737348797,263.53055560138745L909.5803611044436,275.4579368014388L911.4409848600899,278.9335697561238L913.3016086157363,277.4570592031282L915.1622323713829,263.26522161151155L917.0228561270293,266.2267049945538L918.8834798826758,268.830958801026L920.7441036383223,266.25465624587287L922.6047273939688,255.87412393808248L924.4653511496152,253.5949380473205L926.3259749052618,267.3173726630988L928.1865986609081,264.31570649907314L930.0472224165545,255.33850363221472L931.9078461722011,262.1318291133439L933.7684699278475,263.99158373275264L935.629093683494,271.172701345287L937.4897174391405,270.1725147844675L939.350341194787,265.45506726527157L941.2109649504334,279.5631511806128L943.0715887060798,267.7114403133365L944.9322124617263,264.14649762688424L946.7928362173727,274.2001078742912L948.6534599730193,263.2904627106712L950.5140837286657,256.48279417437215L952.3747074843122,258.05920316673036L954.2353312399587,259.09845399325286L956.0959549956051,260.8070482105248L957.9565787512516,271.58913966216386L959.817202506898,261.00563618099966L961.6778262625445,270.0442308577368L963.5384500181909,274.60075276570836L965.3990737738374,263.32349931574475L967.2596975294839,257.27745764714774L969.1203212851303,257.13655992996314L970.9809450407769,250.0903457261379L972.8415687964233,250.25725310110096L974.7021925520698,257.5016036070411L976.5628163077162,259.7594645263374L978.4234400633626,257.2331485861238L980.2840638190091,258.1004987609629L982.1446875746556,252.9214393433069L984.0053113303021,264.1563404616151L985.8659350859485,272.79224145690495L987.7265588415951,273.8762586629272L989.5871825972415,272.585380933271L991.4478063528878,266.3839390952054L993.3084301085344,267.2388962982712L995.1690538641808,272.57167053089665L997.0296776198273,261.26603806425015L998.8903013754738,260.48268675340535L1000.7509251311203,274.22211906898565L1002.6115488867667,255.69477562610598L1004.4721726424133,260.27766464259895L1006.3327963980597,261.2742679979424L1008.193420153706,263.7413683721286L1010.0540439093526,258.5471458091629L1011.914667664999,257.23464935871436L1013.7752914206455,258.34912803215235L1015.635915176292,252.52886972309867L1017.4965389319384,260.1054118295371L1019.357162687585,257.0151508852014L1021.2177864432314,245.93363909183512L1023.0784101988778,274.1551771958982L1024.9390339545243,278.6107384115161L1026.7996577101708,262.0723837413078L1028.6602814658172,278.0897464594089L1030.5209052214636,267.89799155833407L1032.38152897711,272.64082918430137L1034.2421527327567,291.88069967318654L1036.1027764884032,285.30971049096513L1037.9634002440496,274.08919856184394L1039.824023999696,274.8073504753273L1041.6846477553424,270.63642419451367L1043.5452715109889,253.92294480706994L1045.4058952666353,256.2943913800055L1047.266519022282,258.80538985151867L1049.1271427779284,274.02970971865363L1050.9877665335748,269.6171375366255L1052.8483902892212,277.05712351348967L1054.709014044868,273.9364110227818L1056.569637800514,271.26045588255016L1058.4302615561605,283.80123610812154L1060.2908853118072,302.82364018471475L1062.1515090674536,289.83072239998603L1064.0121328231,278.4322658889394L1065.8727565787465,252.4382321843515L1067.7333803343931,252.42460632094372L1069.5940040900396,250.19294655603792L1071.4546278456858,259.45082154133087L1073.3152516013324,253.0600884219364L1075.1758753569788,256.7208188091662L1077.0364991126253,257.15392796027305L1078.8971228682717,266.55382171918245L1080.7577466239181,266.92196480584624L1082.6183703795648,262.2919792917136L1084.4789941352112,266.51227010406456L1086.3396178908577,259.14538345581326L1088.200241646504,251.45050357302225L1090.0608654021505,247.89967648131417L1091.921489157797,241.46117790273692L1093.7821129134434,255.5699357562594L1095.64273666909,273.0746959958003L1097.5033604247365,271.7182802099168L1099.3639841803829,273.975353411902L1101.2246079360293,268.9032888028116L1103.085231691676,269.8619157187447L1104.9458554473222,269.68138045456044L1106.8064792029686,268.9378795669717L1108.6671029586153,269.2197452930003L1110.5277267142617,272.0918433494585L1112.3883504699081,268.58165156639086L1114.2489742255545,282.9640534682035L1116.1095979812012,271.6260783097683L1117.9702217368476,293.0811669381201L1119.8308454924938,286.9682501405425L1121.6914692481405,275.40530432202706L1123.552093003787,284.4021949436431L1125.4127167594334,304.1225812744539L1127.2733405150798,305.308497471629L1129.1339642707264,283.9544675542583L1130.9945880263729,265.59057044175495L1132.8552117820193,278.3109605589211L1134.7158355376657,278.5304517375043L1136.5764592933122,290.59734018268466L1138.4370830489586,287.84069851958424L1140.297706804605,291.89116264659935L1142.1583305602514,266.7176548407633L1144.018954315898,269.5483930455227L1145.8795780715445,259.40393766280295L1147.740201827191,260.37629767808016L1149.6008255828374,261.3375379638076L1151.4614493384838,260.87316764495586L1153.3220730941302,258.3834647881844L1155.1826968497767,273.2465603114118L1157.0433206054233,267.6751309440217L1158.9039443610698,266.32964697309507L1160.7645681167162,257.72499226592555L1162.6251918723626,268.7642372698153L1164.4858156280093,271.74350404171076L1166.3464393836557,283.9119670034395L1168.207063139302,276.7029148363771L1170.0676868949486,270.81760774245146L1171.928310650595,285.1456672821546L1173.7889344062414,283.761678081971L1175.6495581618879,281.0924435427515L1177.5101819175345,272.3679815573086L1179.370805673181,287.1758880197408L1181.2314294288274,269.27985405338114L1183.0920531844738,280.49044909354194L1184.9526769401202,285.02390527437683L1186.8133006957667,274.2002851559063L1188.673924451413,275.13127677063335L1190.5345482070597,273.4109323388393L1192.3951719627062,269.64581930612985L1193.8836709672232,282.1274968638298" style="fill: none;" fill="none"></path></g><g><path stroke="rgb(255, 112, 67)" stroke-width="2px" d="M83.46341359741317,87.799820170422L85.32403735305962,96.71527765382923L96.48777988693843,112.41463565955392L103.93027490952427,129.30388790553084L105.79089866517074,136.90532389222926L111.37276993211013,158.973214795559L113.23339368775662,162.95191850863552L115.09401744340308,165.24017739955153L118.815264954696,184.26389889274967L120.67588871034246,187.38987370487175L126.25775997728185,183.45673939677613L128.11838373292832,180.55898077031773L148.58524504503944,195.5190243815256L152.30649255633236,204.60547048141444L165.33085884585762,202.20553574413992L167.19148260150408,204.23772980606196L169.05210635715054,210.34430264790632L172.77335386844348,220.4970002952886L178.35522513538288,232.03169683386713L183.93709640232225,228.03270548264535L189.51896766926166,228.83389453188136L191.3795914249081,229.17738560555912L193.2402151805546,242.32250380348233L195.10083893620103,254.26611356679504L198.82208644749397,244.2089469411614L200.68271020314043,238.73277097347926L202.5433339587869,246.46027141174596L204.40395771443337,251.42094336123122L208.1252052257263,241.43251783580078L209.98582898137278,241.48654637259347L221.14957151525155,246.48882534935922L224.8708190265445,249.15959876760078L230.4526902934839,260.32349132630804L236.03456156042327,254.51666799553146L243.47705658300913,264.6908179864947L262.08329413947376,255.61907940354624L269.52578916205965,255.63469667518498L275.107660428999,262.33149303009986L276.9682841846455,272.0843367912503L280.6895316959384,264.1115129431312L293.7138979854637,255.41806375623491L303.017016763696,272.82188498648054L310.4595117862819,267.0247712963022L312.3201355419283,252.5492826193603L316.04138305322124,252.0915335982358L319.7626305645142,260.7161536915515L330.92637309839296,260.7070613539895L332.78699685403944,259.59717351966214L345.8113631435647,265.84084245881644L349.53261065485765,263.93395285842917L351.3932344105041,277.56575829697556L356.9751056774435,265.561360439767L369.9994719669687,265.6548500854261L375.58134323390817,255.18233216934482L379.30259074520103,258.8719360425598L383.023838256494,256.78614708786085L394.18758079037275,260.23517187829094L396.04820454601924,268.18604220818884L397.9088283016657,256.01783751881374L407.21194707989804,251.66981941512253L414.65444210248387,241.04346474882715L420.23631336942327,243.46300038708839L422.09693712506976,250.05433878379287L423.95756088071624,247.13795289185896L431.4000559033021,251.13312558831655L433.2606796589485,256.1620297010426L435.121303414595,260.93195452176025L448.1456697041203,269.5065032042031L453.7275409710596,269.6729674448951L455.5881647267061,270.1776515072871L457.44878848235254,271.14135326775494L459.309412237999,271.4498851257811L463.030659749292,260.6452117474965L470.47315477187783,259.1196691470366L474.19440228317075,259.82292194157577L477.91564979446366,255.05319322854882L485.35814481704955,246.5149246823007L487.21876857269604,259.2812118362116L489.0793923283425,257.24542376970544L494.66126359528187,274.5259134257914L503.9643823735142,270.93504656348995L522.5706199299788,271.8247725856661L531.8737387082111,279.27063125696435L533.7343624638576,272.05689663802156L535.5949862195041,291.0239188062582L550.4799762646758,273.43175136529294L557.9224712872617,274.82202216151313L559.7830950429081,268.7947270183263L561.6437187985546,268.8198156888821L582.1105801106658,256.5255294296563L587.692451377605,251.46507263725286L591.413698888898,266.76958926524696L595.134946400191,278.1356475292487L598.8561939114838,267.2397481700068L602.5774414227768,261.17275126468815L608.1593126897162,261.2214448342752L613.7411839566556,281.46280780041576L617.4624314679486,289.4125752812484L626.7655502461809,269.2247359944181L630.4867977574738,259.1356135178686L632.3474215131203,258.07694874596245L647.232411558292,259.33507236368155L650.9536590695849,264.8965229703365L658.3961540921707,275.60032281830047L665.8386491147567,257.5859622423707L669.5598966260496,269.0268802955379L671.420520381696,269.03203363260167L677.0023916486354,273.36177364323765L704.9117479833324,271.9778159837875L706.7723717389788,263.35155204976314L716.0754905172112,276.5667050851961L719.796738028504,287.76861879628314L721.6573617841506,286.15422541785716L732.8211043180294,277.11680971668244L736.5423518293222,276.61636348663393L743.9848468519082,278.3755715441261L751.4273418744939,284.68133326797044L753.2879656301404,279.7772818355256L755.1485893857869,273.00552349079544L757.0092131414334,273.2037567669995L758.8698368970798,287.6199373657006L760.7304606527264,287.92291955449883L781.1973219648374,279.4326498292982L796.0823120100092,281.882505324374L803.5248070325949,290.2408539551278L807.2460545438879,283.6162681960195L810.9673020551809,281.39582066557904L816.5491733221202,272.1605994926549L825.8522921003527,273.6295129488763L829.5735396116455,269.2642886347599L838.8766583898778,272.28287937628915L846.3191534124637,280.6255709132049L848.1797771681101,289.9249071347304L850.0404009237566,301.8715139873253L861.2041434576355,295.3630987361895L863.0647672132818,278.5512965653708L868.6466384802212,260.4764353197533L870.5072622358678,273.0396637709521L877.9497572584537,274.2766570889321L887.252876036686,284.6813443256787L889.1134997923324,275.8128753960277L890.9741235479788,277.5588164742819L894.6953710592717,291.6290696684058L902.1378660818576,269.5686950281171L903.998489837504,263.7144810979869L907.719737348797,274.0493572516199L915.1622323713829,261.58852825908076L918.8834798826758,267.9282817483674L926.3259749052618,277.6223355862422L933.7684699278475,274.0229826312099L935.629093683494,278.64349790411666L943.0715887060798,268.9677419584543L944.9322124617263,265.4987947282023L948.6534599730193,257.87211925149495L952.3747074843122,261.8685571551314L959.817202506898,255.65542515638955L961.6778262625445,266.2103012703897L970.9809450407769,256.4050108477996L972.8415687964233,256.0403038762214L978.4234400633626,256.6369202279136L984.0053113303021,268.69525457039913L985.8659350859485,276.9053934604152L987.7265588415951,278.16860146367577L991.4478063528878,272.49874468476327L997.0296776198273,263.87827559949875L1004.4721726424133,267.72930189851246L1011.914667664999,265.0622004576899L1013.7752914206455,263.55049512742187L1024.9390339545243,272.0975548536204L1026.7996577101708,258.2280508130177L1028.6602814658172,278.43089511467707L1030.5209052214636,268.31079088547455L1032.38152897711,274.0143021390734L1034.2421527327567,293.54566056926194L1039.824023999696,289.2231479733357L1041.6846477553424,281.0876515324467L1043.5452715109889,260.6256547791048L1069.5940040900396,259.0221531625321L1071.4546278456858,269.2546794955924L1075.1758753569788,269.2276582525655L1077.0364991126253,267.35193395193573L1078.8971228682717,274.6894716355137L1082.6183703795648,268.20193172067746L1086.3396178908577,261.76131415083637L1090.0608654021505,255.9379920581937L1093.7821129134434,265.6356553340991L1095.64273666909,280.8807854107561L1101.2246079360293,275.07930993870565L1104.9458554473222,272.5133561888519L1110.5277267142617,274.5763674904618L1112.3883504699081,270.58153945517796L1123.552093003787,282.2174700143953L1125.4127167594334,306.17045472047954L1127.2733405150798,307.12925019718153L1134.7158355376657,298.66069224671975L1140.297706804605,300.6976581422483L1144.018954315898,295.23181661740233L1149.6008255828374,284.11536136413304L1157.0433206054233,277.4712378519689L1164.4858156280093,279.6699614479049L1166.3464393836557,291.7285207009401L1171.928310650595,300.95802885027905L1175.6495581618879,293.96618488480914L1177.5101819175345,283.58731378561185L1183.0920531844738,288.54338839080066L1186.8133006957667,278.75186319204397L1190.5345482070597,276.89261530880987L1192.3951719627062,272.67679847715556L1196.116419473999,273.3803714268688L1197.9770432296455,270.89371663973316L1207.2801620078778,274.8112218333942L1216.58328078611,275.0506281129063L1218.4439045417566,272.8170846375096L1222.1651520530495,267.4822368233937L1229.6076470756354,277.1047538514665L1233.3288945869283,274.06561135075054L1235.1895183425747,272.19946654265965L1240.7713896095142,268.56472133616467L1244.492637120807,287.9873161614684L1246.3532608764535,285.5299978868922L1253.7957558990395,278.3437701682604L1261.2382509216254,265.88275740961814L1266.8201221885647,285.1866037563931" style="fill: none;" fill="none"></path></g></g></g></g><g opacity="0.2"><g><g><g><path stroke="rgb(0, 119, 187)" stroke-width="2px" d="M77.88154233047378,29.9206349206349L79.74216608612024,64.9036202842176L81.6027898417667,92.3884823070902L83.46341359741317,86.09931495453199L85.32403735305962,100.44038350072545L87.18466110870611,119.29025897095123L89.04528486435257,98.92978433550084L90.90590861999904,119.95471227805402L92.7665323756455,135.77989147654228L94.62715613129195,131.17043454889273L96.48777988693843,124.34334734815134L98.34840364258488,139.40495921871909L100.20902739823136,144.7158385934441L102.06965115387781,128.6072034260415L103.93027490952427,143.23871417660118L105.79089866517074,144.08397713171013L107.6515224208172,150.3451942730205L109.51214617646367,162.7116515378413L111.37276993211013,196.17279412478265L113.23339368775662,161.87636470364887L115.09401744340308,158.18767083233843L116.95464119904953,180.09980349845162L118.815264954696,210.3615363688355L120.67588871034246,180.7587812821046L122.53651246598893,167.12930918275947L124.39713622163539,191.75213428190594L126.25775997728185,171.07020385190086L128.11838373292832,162.23872365143893L129.97900748857478,168.02621296525575L131.83963124422124,180.5997508205824L133.7002549998677,173.6729758673266L135.56087875551418,152.16911610542323L137.42150251116064,149.22333792461242L139.28212626680713,153.09641542851517L141.14275002245358,217.58491800987056L143.00337377810004,165.15559195124098L144.8639975337465,176.95693838163336L146.72462128939296,211.81440529087294L148.58524504503944,201.09406377908127L150.4458688006859,210.55917444568004L152.30649255633236,201.24040145381707L154.16711631197882,154.3041227097085L156.02774006762527,152.2960935039404L157.88836382327176,158.35003624892735L159.74898757891822,212.13244620230316L161.6096113345647,182.5913293852153L163.47023509021113,176.19726098796517L165.33085884585762,186.66197862122442L167.19148260150408,167.0509734081422L169.05210635715054,193.63150445855413L170.912730112797,198.94673534450592L172.77335386844348,214.18239935961813L174.6339776240899,200.73814241438765L176.4946013797364,169.16857468215727L178.35522513538288,216.28197229242335L180.21584889102934,178.34268085808085L182.0764726466758,194.77177045571733L183.93709640232225,195.24416735076963L185.79772015796874,239.71926110131844L187.65834391361517,240.97275628213796L189.51896766926166,188.04493834735297L191.3795914249081,211.7945443253525L193.2402151805546,225.08691471547135L195.10083893620103,231.64857106662006L196.96146269184752,190.00185706414334L198.82208644749397,191.75828281563003L200.68271020314043,202.20943395348658L202.5433339587869,221.1893481916873L204.40395771443337,236.06649125879053L206.26458147007986,228.42854056394606L208.1252052257263,201.07498879399387L209.98582898137278,228.67539561743538L211.84645273701923,195.30638433709154L213.7070764926657,195.7298885714993L215.56770024831215,256.0879879914068L217.42832400395864,206.65329971769728L219.28894775960507,222.35813505474354L221.14957151525155,221.97942849712652L223.010195270898,207.59017509850088L224.8708190265445,221.89687722900035L226.73144278219092,241.17977985505587L228.5920665378374,195.580348071433L230.4526902934839,252.20460785391577L232.31331404913033,218.18113895479465L234.1739378047768,192.6254797303639L236.03456156042327,220.73695613286725L237.89518531606976,199.33186222970187L239.7558090717162,210.02584815716486L241.61643282736267,277.16684901055913L243.47705658300913,274.68815911211146L245.3376803386556,222.17903206386754L247.19830409430205,237.88660273660597L249.05892784994853,236.10276870134183L250.91955160559496,250.0315243322748L252.78017536124145,239.53543719507218L254.64079911688793,227.41531152793712L256.50142287253436,257.2720258514035L258.36204662818085,203.94589958398828L260.22267038382734,226.53889385343578L262.08329413947376,231.1068000359272L263.94391789512025,242.32872515123762L265.80454165076674,266.88233225500176L267.66516540641317,211.529799729634L269.52578916205965,237.90851486380973L271.3864129177061,245.42217167460313L273.24703667335257,239.07273318733996L275.107660428999,256.30714525303296L276.9682841846455,279.3270805169436L278.82890794029197,267.7638434943245L280.6895316959384,228.66128102615997L282.5501554515849,265.2495225614629L284.41077920723137,263.82798536476065L286.27140296287786,259.9893177295271L288.1320267185243,251.88866958426618L289.9926504741708,241.49061821953904L291.8532742298172,304.3182971246418L293.7138979854637,221.14133189396827L295.5745217411101,290.925888038792L297.4351454967566,268.7056980870059L299.29576925240303,241.54246001482616L301.1563930080495,230.79364948681905L303.017016763696,301.7598629980051L304.8776405193425,202.4586090469009L306.7382642749889,258.53242688283444L308.5988880306354,319.83109741223L310.4595117862819,245.99397200896763L312.3201355419283,220.55210638571774L314.1807592975748,268.98481067496687L316.04138305322124,242.54425393393626L317.9020068088677,303.2788963922196L319.7626305645142,270.3517225321627L321.62325432016064,231.95557841333306L323.4838780758071,263.8038261462951L325.34450183145356,278.28730217815234L327.20512558710004,265.50878782247287L329.06574934274647,270.4508061325776L330.92637309839296,249.90919225898207L332.78699685403944,249.5654477197618L334.64762060968593,242.69297936074156L336.5082443653324,282.11705165022755L338.3688681209788,217.0237950653748L340.2294918766253,243.93819246229154L342.09011563227176,304.41215409146L343.95073938791825,246.25772058392977L345.8113631435647,270.5416734703602L347.67198689921116,235.84891335734324L349.53261065485765,253.04635859924417L351.3932344105041,303.0827075441109L353.2538581661505,267.06981618491676L355.114481921797,278.8066823115259L356.9751056774435,234.7781505648492L358.83572943308997,270.93024864038335L360.69635318873645,237.45592122952056L362.5569769443828,242.1356526898891L364.4176007000293,226.93817106823644L366.2782244556758,268.0174018820124L368.1388482113223,264.00525220491335L369.9994719669687,253.13918848369892L371.8600957226152,272.60682117330373L373.7207194782617,257.08348729015694L375.58134323390817,232.1699875599954L377.44196698955454,284.4660922791993L379.30259074520103,257.9251157976635L381.1632145008475,259.0224503699114L383.023838256494,241.45359708452497L384.8844620121405,246.31805305427946L386.74508576778686,247.75475874767798L388.60570952343335,218.11330807968415L390.46633327907983,269.61798643060024L392.3269570347263,243.00561327830576L394.18758079037275,257.88573068881885L396.04820454601924,273.1652614134344L397.9088283016657,225.79794847799744L399.7694520573122,228.06219581033963L401.6300758129586,243.40808748765983L403.49069956860507,286.3884674805773L405.35132332425155,283.35399722019116L407.21194707989804,236.30602788968022L409.0725708355445,320.4784446540004L410.93319459119095,309.76880447407666L412.7938183468374,226.49689167940608L414.65444210248387,216.22136685600768L416.51506585813036,288.1658742160747L418.3756896137768,279.2929391252125L420.23631336942327,239.44724340555962L422.09693712506976,252.31257269079762L423.95756088071624,233.4457202763195L425.8181846363626,291.1668703743495L427.6788083920091,306.16367645046046L429.5394321476556,251.51158672842016L431.4000559033021,250.19982986722874L433.2606796589485,256.29148249501606L435.121303414595,256.04105990618166L436.9819271702415,250.46012190728865L438.84255092588796,250.00858847166657L440.7031746815344,281.47921134557197L442.5637984371808,218.2218296260762L444.4244221928273,242.75250705949435L446.2850459484738,280.2509702653565L448.1456697041203,278.3298334516315L450.00629345976665,282.61805232092763L451.86691721541314,273.34889583516616L453.7275409710596,264.89342404189233L455.5881647267061,261.3425011684592L457.44878848235254,269.85683881793193L459.309412237999,260.0369679300713L461.1700359936455,267.8701361428934L463.030659749292,235.38535493147236L464.8912835049385,258.1694452505735L466.75190726058486,240.1388947906844L468.61253101623134,253.99943956039945L470.47315477187783,252.559519715412L472.3337785275243,300.48985461641325L474.19440228317075,252.69853072869876L476.0550260388172,315.1966549560844L477.91564979446366,238.3106568975245L479.77627355011015,261.7178524153617L481.6368973057566,279.3099990929527L483.49752106140306,251.9965059896242L485.35814481704955,224.4958488476967L487.21876857269604,275.98364344856054L489.0793923283425,244.8965734892215L490.9400160839889,231.80559667577774L492.8006398396354,270.48384878305325L494.66126359528187,305.3618056478958L496.52188735092835,295.63301242878964L498.3825111065748,311.0456181460234L500.24313486222127,241.9501309293208L502.1037586178677,279.13074098036134L503.9643823735142,259.60056037044825L505.8250061291606,296.9347202208249L507.6856298848071,257.9093572965976L509.5462536404536,257.57870093845963L511.40687739610007,245.4522234839838L513.2675011517465,263.5864344912082L515.1281249073929,293.47161303424656L516.9887486630395,237.3101000536842L518.8493724186859,268.96015804131895L520.7099961743324,306.5324062997432L522.5706199299788,264.46511821215046L524.4312436856253,273.1986436612065L526.2918674412717,305.465445588898L528.1524911969183,256.52648357680346L530.0131149525647,285.04133427001767L531.8737387082111,278.7725874553392L533.7343624638576,253.07730443538918L535.5949862195041,319.40370688254296L537.4556099751505,267.1024406775552L539.316233730797,317.247514178031L541.1768574864435,255.11960582292997L543.0374812420899,291.8821458353632L544.8981049977365,284.4660922791993L546.7587287533828,288.8819635676458L548.6193525090293,269.50275118759777L550.4799762646758,233.7835909017608L552.3406000203223,272.65679088937475L554.2012237759687,264.1907146343616L556.0618475316152,285.57411047683553L557.9224712872617,267.50234825908944L559.7830950429081,250.00858847166657L561.6437187985546,262.3098883016422L563.504342554201,262.8630977161709L565.3649663098475,290.27546693279874L567.225590065494,273.86705193180245L569.0862138211405,268.36132692646447L570.9468375767868,261.1032191346897L572.8074613324334,266.4020124245965L574.6680850880798,273.140237427383L576.5287088437263,282.1774667507623L578.3893325993728,268.7631367341306L580.2499563550192,313.3264886868152L582.1105801106658,227.23979303708796L583.9712038663122,242.15050215673875L585.8318276219586,305.9275779308668L587.692451377605,243.22167472987147L589.5530751332516,277.9727580337292L591.413698888898,292.4019357266685L593.2743226445446,303.5500528555511L595.134946400191,299.37315973119473L596.9955701558374,256.98926819562035L598.8561939114838,238.01813748830293L600.7168176671304,276.88747807040374L602.5774414227768,241.1649845829645L604.4380651784232,258.07484003777506L606.2986889340698,256.228859365187L608.1593126897162,247.17156371365417L610.0199364453626,292.50063701200713L611.8805602010091,265.379133202205L613.7411839566556,317.97747338724764L615.601807712302,290.8456091779344L617.4624314679486,297.2542908270381L619.323055223595,249.19164793430267L621.1836789792414,247.26237967880547L623.0443027348879,252.53636442330492L624.9049264905344,249.4738588400317L626.7655502461809,231.76277003460763L628.6261740018273,270.756558398585L630.4867977574738,234.49670071736142L632.3474215131203,247.02030882692853L634.2080452687668,324.6795278871675L636.0686690244132,286.21312216421575L637.9292927800595,250.06976124890875L639.7899165357061,243.5050610655637L641.6505402913525,299.5574189444112L643.511164046999,265.9631557216136L645.3717878026455,293.87722427412876L647.232411558292,253.34043439801493L649.0930353139385,295.41517687417775L650.9536590695849,272.95674722598727L652.8142828252314,249.90919225898207L654.6749065808777,272.36548296084834L656.5355303365243,278.91751067926276L658.3961540921707,295.2791257668671L660.2567778478171,294.21119984517867L662.1174016034637,231.84131352202783L663.9780253591101,231.27777605139582L665.8386491147567,220.5384334333279L667.6992728704031,288.8908282445385L669.5598966260496,289.52011064036225L671.420520381696,264.7882970107572L673.2811441373424,260.8959852860349L675.1417678929889,292.1419242539392L677.0023916486354,282.4279162169449L678.8630154042819,248.02026327322784L680.7236391599283,247.21696781301273L682.5842629155749,282.6353479237253L684.4448866712213,210.49327873770557L686.3055104268676,246.71803932350807L688.1661341825142,274.6378256267305L690.0267579381606,279.224628806467L691.8873816938071,225.44917401541272L693.7480054494536,248.34681069698863L695.6086292051001,266.45080831546744L697.4692529607465,270.2939391980793L699.3298767163931,282.7823751179851L701.1905004720395,257.846351421912L703.0511242276858,297.7480953269339L704.9117479833324,264.5135593690672L706.7723717389788,242.46992245231834L708.6329954946253,258.7062105745704L710.4936192502718,280.01113817890985L712.3542430059182,274.5707024891063L714.2148667615647,282.0221355270327L716.0754905172112,297.931229732295L717.9361142728577,269.13267660469893L719.796738028504,303.57811395289235L721.6573617841506,274.2270324220363L723.517985539797,251.5654229278135L725.3786092954434,311.57543365667544L727.23923305109,272.65679088937475L729.0998568067364,273.9674564798968L730.9604805623829,280.76563273463466L732.8211043180294,252.72170016960982L734.6817280736757,273.1068625223307L736.5423518293222,265.02286090946563L738.4029755849687,271.20343716895906L740.2635993406152,258.43769225748247L742.1242230962616,304.96648570750443L743.9848468519082,277.8368526382204L745.8454706075546,302.06671035453485L747.7060943632011,274.1097795886273L749.5667181188476,250.26871123701483L751.4273418744939,288.2276817710891L753.2879656301404,262.9192859788339L755.1485893857869,254.34121244794088L757.0092131414334,267.3880274686616L758.8698368970798,302.36456406663604L760.7304606527264,281.1522751400031L762.5910844083728,273.1986436612065L764.4517081640192,281.2210628102871L766.3123319196657,249.01636963111068L768.1729556753121,312.16427226121033L770.0335794309586,300.71189582373427L771.8942031866051,280.94599851750974L773.7548269422516,252.64446428665644L775.615450697898,270.45907625519396L777.4760744535445,237.33926483471186L779.336698209191,249.290757634437L781.1973219648374,263.0236753756882L783.0579457204839,291.30977564172787L784.9185694761303,254.2013388737709L786.7791932317767,255.27554758035362L788.6398169874233,271.95818811181044L790.5004407430697,251.18879858924197L792.3610644987162,277.63313501754817L794.2216882543627,294.24733631095074L796.0823120100092,284.57058717921433L797.9429357656556,267.75565690433825L799.803559521302,265.74398943921193L801.6641832769485,225.14262241387604L803.5248070325949,301.17508266666596L805.3854307882415,236.9385904064312L807.2460545438879,259.29154219459167L809.1066782995345,253.29398943046175L810.9673020551809,272.531894152352L812.8279258108274,284.509625092568L814.6885495664737,249.7410890277572L816.5491733221202,249.7410890277572L818.4097970777667,289.9108470485623L820.2704208334131,291.032957202471L822.1310445890597,246.82379540795992L823.9916683447061,308.47903683121854L825.8522921003527,273.6914303080066L827.7129158559991,261.5979961249785L829.5735396116455,253.0386319240308L831.434163367292,277.5906949735425L833.2947871229384,289.00592706062304L835.1554108785849,232.6781174364239L837.0160346342313,209.10657601260894L838.8766583898778,275.15010817397933L840.7372821455243,289.32496844889897L842.5979059011707,256.8636884917017L844.4585296568173,282.1343146441615L846.3191534124637,290.3822740539601L848.1797771681101,300.50833258338497L850.0404009237566,325.06475285259427L851.901024679403,262.0137053283737L853.7616484350496,319.4732330131559L855.622272190696,259.0540818734094L857.4828959463425,297.0077216976664L859.343519701989,293.0935736685546L861.2041434576355,274.2102759933809L863.0647672132818,247.8381615030198L864.9253909689282,252.80669665593945L866.7860147245748,283.8660175671444L868.6466384802212,224.1140828139335L870.5072622358678,292.8418604363807L872.3678859915142,240.37476903375025L874.2285097471607,289.10337360566314L876.0891335028072,272.5651968505729L877.9497572584537,272.5901666911203L879.8103810141,255.06504412410973L881.6710047697464,257.15417824311953L883.531628525393,243.31113154104068L885.3922522810394,247.90643276925715L887.252876036686,288.27185688546973L889.1134997923324,253.24753413169654L890.9741235479788,275.772904785653L892.8347473036254,346.8761258637215L894.6953710592717,311.05525465646326L896.5559948149182,275.4781594335618L898.4166185705647,272.5901666911203L900.2772423262112,286.31830709495875L902.1378660818576,225.6583903586082L903.998489837504,247.70926258883773L905.8591135931506,243.30368306227555L907.719737348797,285.74903411538867L909.5803611044436,300.97118619131L911.4409848600899,286.0028772419796L913.3016086157363,274.53716727914343L915.1622323713829,237.04779582341294L917.0228561270293,272.2324171756154L918.8834798826758,274.1013949599982L920.7441036383223,261.1909232352306L922.6047273939688,236.31329991937145L924.4653511496152,249.10780079275395L926.3259749052618,296.9986035756928L928.1865986609081,258.4297882534362L930.0472224165545,238.2960206531381L931.9078461722011,276.2198630776422L933.7684699278475,267.739303972035L935.629093683494,286.0992066473038L937.4897174391405,268.18930871197915L939.350341194787,256.29148249501606L941.2109649504334,310.1521600452207L943.0715887060798,245.54996466512813L944.9322124617263,257.1777398341651L946.7928362173727,295.4605427411708L948.6534599730193,242.78970977922802L950.5140837286657,243.40808748765983L952.3747074843122,261.23080177330706L954.2353312399587,261.1829558523588L956.0959549956051,264.2471846108488L957.9565787512516,294.4913323020744L959.817202506898,241.0836341357982L961.6778262625445,289.0413618694083L963.5384500181909,283.9268320282114L965.3990737738374,242.17276906396464L967.2596975294839,245.61764996359446L969.1203212851303,256.8558312091759L970.9809450407769,236.57486177246756L972.8415687964233,250.59038196076114L974.7021925520698,272.5651968505729L976.5628163077162,264.3198092688668L978.4234400633626,252.26628878998815L980.2840638190091,259.83851020332327L982.1446875746556,242.8864754544137L984.0053113303021,288.08644653401274L985.8659350859485,290.8991328101892L987.7265588415951,276.0511047083787L989.5871825972415,270.0299412378587L991.4478063528878,254.43449627571758L993.3084301085344,268.95195405852684L995.1690538641808,283.5361306869844L997.0296776198273,240.06523363158936L998.8903013754738,258.9275407574231L1000.7509251311203,303.94326773048454L1002.6115488867667,222.21347693130917L1004.4721726424133,269.6591511947423L1006.3327963980597,263.27274464151054L1008.193420153706,268.7303075388983L1010.0540439093526,248.48363274573185L1011.914667664999,254.63672684167554L1013.7752914206455,260.58547544738053L1015.635915176292,241.29074422183376L1017.4965389319384,275.89089461155595L1019.357162687585,250.95847306260862L1021.2177864432314,225.12869439336674L1023.0784101988778,341.3608442628279L1024.9390339545243,287.72481865564805L1026.7996577101708,231.88415283623573L1028.6602814658172,313.23914343886423L1030.5209052214636,248.67377840707292L1032.38152897711,282.35879458585106L1034.2421527327567,334.98716215148215L1036.1027764884032,272.67344955167573L1037.9634002440496,253.0386319240308L1039.824023999696,276.2451790440943L1041.6846477553424,262.5101836588893L1043.5452715109889,223.4421267199212L1045.4058952666353,261.087270862925L1047.266519022282,263.8843782319172L1049.1271427779284,307.27138331151514L1050.9877665335748,261.03146895717083L1052.8483902892212,292.54550752978224L1054.709014044868,267.82107870817407L1056.569637800514,266.0037576295989L1058.4302615561605,310.7282447782986L1060.2908853118072,345.3824781230419L1062.1515090674536,265.6790774168469L1064.0121328231,257.0677786650822L1065.8727565787465,207.15385412556455L1067.7333803343931,252.39743827349542L1069.5940040900396,245.79821653915678L1071.4546278456858,278.9345465385396L1073.3152516013324,240.7584989992525L1075.1758753569788,264.1745798140849L1077.0364991126253,258.0196676623179L1078.8971228682717,286.35338497010014L1080.7577466239181,267.6575739006283L1082.6183703795648,253.29398943046175L1084.4789941352112,275.133293385023L1086.3396178908577,245.03914347762205L1088.200241646504,236.74211297334497L1090.0608654021505,240.95797254241728L1091.921489157797,229.07084174981935L1093.7821129134434,286.1605348770483L1095.64273666909,311.85520216941825L1097.5033604247365,269.03408363959204L1099.3639841803829,278.5340865824723L1101.2246079360293,259.0699084706535L1103.085231691676,271.7838242753318L1104.9458554473222,269.3217570269716L1106.8064792029686,267.4615165354468L1108.6671029586153,269.7826837975894L1110.5277267142617,277.9132921282069L1112.3883504699081,261.7178524153617L1114.2489742255545,314.20147889423475L1116.1095979812012,250.36822391139165L1117.9702217368476,341.85753038852323L1119.8308454924938,275.18374094715927L1121.6914692481405,253.75115015856855L1123.552093003787,303.30692884230524L1125.4127167594334,348.44470140325564L1127.2733405150798,307.68916007629235L1129.1339642707264,245.90360677546676L1130.9945880263729,232.37742185456074L1132.8552117820193,305.6539835184228L1134.7158355376657,278.96866220183836L1136.5764592933122,316.43117797761806L1138.4370830489586,282.4279162169449L1140.297706804605,300.157118593449L1142.1583305602514,222.68906907630387L1144.018954315898,275.2846447862963L1145.8795780715445,240.26416919985252L1147.740201827191,262.32589109288557L1149.6008255828374,263.26471453753135L1151.4614493384838,259.94962522450425L1153.3220730941302,253.4875945415043L1155.1826968497767,305.6256796799575L1157.0433206054233,256.90292226026577L1158.9039443610698,263.6669206344008L1160.7645681167162,241.35735216947842L1162.6251918723626,292.24948506207807L1164.4858156280093,277.785898455146L1166.3464393836557,309.9795735343792L1168.207063139302,262.88719061361576L1170.0676868949486,259.45788899432296L1171.928310650595,316.25446235010077L1173.7889344062414,281.02333859290815L1175.6495581618879,275.8487522387942L1177.5101819175345,255.7830290796475L1179.370805673181,319.42357301618546L1181.2314294288274,236.83669892352282L1183.0920531844738,304.3652326471843L1184.9526769401202,294.3015286925068L1186.8133006957667,253.8519955047085L1188.673924451413,276.997487800866L1190.5345482070597,270.01346727929445L1192.3951719627062,262.2938673802615L1193.8836709672232,308.9178152021868" style="fill: none;" fill="none"></path></g><g><path stroke="rgb(255, 112, 67)" stroke-width="2px" d="M83.46341359741317,87.799820170422L85.32403735305962,102.82352904922416L96.48777988693843,130.99454170250624L103.93027490952427,155.00891635400015L105.79089866517074,149.55311091072997L111.37276993211013,202.1774889387177L113.23339368775662,170.34982343742948L115.09401744340308,169.59185077912423L118.815264954696,225.04515820649635L120.67588871034246,193.569678700402L126.25775997728185,175.91366895395012L128.11838373292832,174.9378756105909L148.58524504503944,227.86514888818832L152.30649255633236,223.60823566144964L165.33085884585762,197.499648438609L167.19148260150408,208.32768960106685L169.05210635715054,222.93755705103297L172.77335386844348,241.95755921566354L178.35522513538288,256.6283888686272L183.93709640232225,220.23749685175125L189.51896766926166,230.4382543806341L191.3795914249081,229.86350548111733L193.2402151805546,270.64910404607724L195.10083893620103,279.81429228586904L198.82208644749397,225.22618927861097L200.68271020314043,228.1396519295271L202.5433339587869,262.57432539312595L204.40395771443337,261.5979961249785L208.1252052257263,222.57181746352668L209.98582898137278,241.5943119352788L221.14957151525155,256.753857294851L224.8708190265445,254.5667029526434L230.4526902934839,284.091967146144L236.03456156042327,243.30368306227555L243.47705658300913,286.2218772770732L262.08329413947376,238.40578598173872L269.52578916205965,255.66584043070333L275.107660428999,276.2114115436652L276.9682841846455,292.67119390345226L280.6895316959384,248.894504324761L293.7138979854637,238.8893387568342L303.017016763696,311.35374663835455L310.4595117862819,255.82993020822332L312.3201355419283,225.84681448562648L316.04138305322124,251.1811257866406L319.7626305645142,278.79816834667645L330.92637309839296,260.68893205360706L332.78699685403944,257.3977989002254L345.8113631435647,278.7470293440886L349.53261065485765,260.17199488027296L351.3932344105041,307.03429808587754L356.9751056774435,243.13224805138273L369.9994719669687,265.84136788926827L375.58134323390817,235.45772882710665L379.30259074520103,266.38574265669985L383.023838256494,252.67534489437648L394.18758079037275,267.24928107269244L396.04820454601924,284.7884291987904L397.9088283016657,233.3020674801241L407.21194707989804,243.2067652297808L414.65444210248387,221.04530899663308L420.23631336942327,248.35442013786428L422.09693712506976,263.70717285805034L423.95756088071624,241.41656346061146L431.4000559033021,259.28363160879195L433.2606796589485,266.4833568249011L435.121303414595,270.7069647421587L448.1456697041203,287.4781421841685L453.7275409710596,270.0052110258955L455.5881647267061,271.1868704886937L457.44878848235254,273.0734918123825L459.309412237999,272.0661737257547L463.030659749292,240.33052005531033L470.47315477187783,256.1036387482273L474.19440228317075,261.23080177330706L477.91564979446366,245.79069795601382L485.35814481704955,230.2678179981338L487.21876857269604,286.7306918550794L489.0793923283425,253.23205083833807L494.66126359528187,312.75441978933594L503.9643823735142,263.91661359546464L522.5706199299788,273.6078474714506L531.8737387082111,294.77178223687895L533.7343624638576,258.2325466631777L535.5949862195041,333.44354568373245L550.4799762646758,241.49061821953904L557.9224712872617,277.6161622316407L559.7830950429081,257.1698919813682L561.6437187985546,268.86984987678443L582.1105801106658,233.58945084401665L587.692451377605,241.65357610485933L591.413698888898,300.2033021053945L595.134946400191,302.36456406663604L598.8561939114838,246.76334791003478L602.5774414227768,249.4738588400317L608.1593126897162,261.3185670628072L613.7411839566556,327.1117737833324L617.4624314679486,306.0125501126465L626.7655502461809,233.04370868593634L630.4867977574738,240.09468510495117L632.3474215131203,255.9784771655301L647.232411558292,261.86172473673616L650.9536590695849,276.34648718993077L658.3961540921707,298.325367476706L665.8386491147567,224.94772976658143L669.5598966260496,293.42656426279416L671.420520381696,269.04230974703023L677.0023916486354,282.21200171972936L704.9117479833324,269.2395384183173L706.7723717389788,246.94469566450786L716.0754905172112,305.06054971552777L719.796738028504,311.62364699278527L721.6573617841506,282.96411671910914L732.8211043180294,259.9655052999867L736.5423518293222,275.6212748554914L743.9848468519082,281.91863869776705L751.4273418744939,297.7206436957826L753.2879656301404,270.2609201739563L755.1485893857869,259.9972683008339L757.0092131414334,273.59947867966935L758.8698368970798,318.93736290088253L760.7304606527264,288.52810377996224L781.1973219648374,263.27274464151054L796.0823120100092,286.8360820859477L803.5248070325949,307.73667272892504L807.2460545438879,270.88062253055114L810.9673020551809,277.02289821537266L816.5491733221202,254.6522922758301L825.8522921003527,276.58303002780616L829.5735396116455,260.76854442198834L838.8766583898778,278.40641503405664L846.3191534124637,298.08697916045605L848.1797771681101,309.50078227845916L850.0404009237566,327.42891103531554L861.2041434576355,282.8429418290721L863.0647672132818,247.90643276925715L868.6466384802212,227.73854826243556L870.5072622358678,300.0186162419811L877.9497572584537,276.7605755666251L887.252876036686,306.73116199467484L889.1134997923324,258.96708073458814L890.9741235479788,281.0748974998936L894.6953710592717,322.1288331290516L902.1378660818576,230.3956307929065L903.998489837504,252.41287296692136L907.719737348797,295.9419371445327L915.1622323713829,238.36188138374453L918.8834798826758,281.040510121539L926.3259749052618,298.07782389665516L933.7684699278475,266.9882919240608L935.629093683494,288.1040810470347L943.0715887060798,250.66702248611207L944.9322124617263,258.7141039736601L948.6534599730193,243.28876895608673L952.3747074843122,270.0217041307965L959.817202506898,243.6842138179373L961.6778262625445,288.5988506656866L970.9809450407769,237.8719898509633L972.8415687964233,255.31456593522054L978.4234400633626,257.8305975952332L984.0053113303021,294.5094189951682L985.8659350859485,294.0757426501375L987.7265588415951,280.7055380270742L991.4478063528878,261.5420867793004L997.0296776198273,247.48193478765614L1004.4721726424133,275.57917525605365L1011.914667664999,259.8226377220039L1013.7752914206455,260.56159051819793L1024.9390339545243,290.0086263713042L1026.7996577101708,232.5635241377686L1028.6602814658172,323.9814434009542L1030.5209052214636,249.21451332342687L1032.38152897711,285.76653490583885L1034.2421527327567,337.38863170584915L1039.824023999696,280.80856293071116L1041.6846477553424,265.5736582169588L1043.5452715109889,224.00312630555342L1069.5940040900396,255.8533745614593L1071.4546278456858,290.916976419136L1075.1758753569788,269.1737857785201L1077.0364991126253,263.6508176150949L1078.8971228682717,289.9552819514677L1082.6183703795648,255.72052575518083L1086.3396178908577,249.36704203532128L1090.0608654021505,244.69413762288656L1093.7821129134434,286.0992066473038L1095.64273666909,314.1722722360427L1101.2246079360293,263.87631039813965L1104.9458554473222,267.46967458956055L1110.5277267142617,278.7385172920209L1112.3883504699081,262.7908704005511L1123.552093003787,307.06275250592904L1125.4127167594334,361.5480121805815L1127.2733405150798,309.0514985329652L1134.7158355376657,282.54024635279325L1140.297706804605,304.80664885885994L1144.018954315898,284.65769422934886L1149.6008255828374,263.24863589471306L1157.0433206054233,264.6993773538834L1164.4858156280093,284.10935903993544L1166.3464393836557,317.54320236516986L1171.928310650595,320.378733520836L1175.6495581618879,280.55106536816135L1177.5101819175345,264.02944898080585L1183.0920531844738,298.7109141002184L1186.8133006957667,260.2435131214962L1190.5345482070597,273.22367315332104L1192.3951719627062,264.46511821215046L1196.116419473999,274.78889474971743L1197.9770432296455,266.0037576295989L1207.2801620078778,282.79968142954647L1216.58328078611,275.5286525049826L1218.4439045417566,268.4186911083639L1222.1651520530495,257.15417824311953L1229.6076470756354,297.40051157838934L1233.3288945869283,268.1074400105237L1235.1895183425747,268.51705575943544L1240.7713896095142,261.46224214288804L1244.492637120807,331.55513840592425L1246.3532608764535,280.69694248475344L1253.7957558990395,264.5700980648815L1261.2382509216254,242.6557901924488L1266.8201221885647,328.4544712470137" style="fill: none;" fill="none"></path></g></g></g></g></g></g><g transform="translate(20, 377)" clip-path="url(#clip_1)"><clipPath id="clip_1"><rect width="1262" height="23"></rect></clipPath><g><g><line x1="77.88154233047378" y1="0" x2="77.88154233047378" y2="5" style="visibility: inherit;" fill="rgb(0, 0, 0)" stroke="rgb(204, 204, 204)" stroke-width="1px"></line><line x1="263.94391789512025" y1="0" x2="263.94391789512025" y2="5" style="visibility: inherit;" fill="rgb(0, 0, 0)" stroke="rgb(204, 204, 204)" stroke-width="1px"></line><line x1="450.00629345976665" y1="0" x2="450.00629345976665" y2="5" style="visibility: inherit;" fill="rgb(0, 0, 0)" stroke="rgb(204, 204, 204)" stroke-width="1px"></line><line x1="636.0686690244132" y1="0" x2="636.0686690244132" y2="5" style="visibility: inherit;" fill="rgb(0, 0, 0)" stroke="rgb(204, 204, 204)" stroke-width="1px"></line><line x1="822.1310445890597" y1="0" x2="822.1310445890597" y2="5" style="visibility: inherit;" fill="rgb(0, 0, 0)" stroke="rgb(204, 204, 204)" stroke-width="1px"></line><line x1="1008.193420153706" y1="0" x2="1008.193420153706" y2="5" style="visibility: inherit;" fill="rgb(0, 0, 0)" stroke="rgb(204, 204, 204)" stroke-width="1px"></line><line x1="1194.2557957183526" y1="0" x2="1194.2557957183526" y2="5" style="visibility: inherit;" fill="rgb(0, 0, 0)" stroke="rgb(204, 204, 204)" stroke-width="1px"></line></g><g transform="translate(0, 8)"><text x="77.88154233047378" y="0" dx="0em" dy="0.95em" style="text-anchor: middle; visibility: inherit; font-family: Roboto, sans-serif; font-size: 12px; font-weight: 200;" fill="rgb(255, 255, 255)" stroke="none" stroke-width="1px">0</text><text x="263.94391789512025" y="0" dx="0em" dy="0.95em" style="text-anchor: middle; visibility: inherit; font-family: Roboto, sans-serif; font-size: 12px; font-weight: 200;" fill="rgb(255, 255, 255)" stroke="none" stroke-width="1px">500</text><text x="450.00629345976665" y="0" dx="0em" dy="0.95em" style="text-anchor: middle; visibility: inherit; font-family: Roboto, sans-serif; font-size: 12px; font-weight: 200;" fill="rgb(255, 255, 255)" stroke="none" stroke-width="1px">1k</text><text x="636.0686690244132" y="0" dx="0em" dy="0.95em" style="text-anchor: middle; visibility: inherit; font-family: Roboto, sans-serif; font-size: 12px; font-weight: 200;" fill="rgb(255, 255, 255)" stroke="none" stroke-width="1px">1.5k</text><text x="822.1310445890597" y="0" dx="0em" dy="0.95em" style="text-anchor: middle; visibility: inherit; font-family: Roboto, sans-serif; font-size: 12px; font-weight: 200;" fill="rgb(255, 255, 255)" stroke="none" stroke-width="1px">2k</text><text x="1008.193420153706" y="0" dx="0em" dy="0.95em" style="text-anchor: middle; visibility: inherit; font-family: Roboto, sans-serif; font-size: 12px; font-weight: 200;" fill="rgb(255, 255, 255)" stroke="none" stroke-width="1px">2.5k</text><text x="1194.2557957183526" y="0" dx="0em" dy="0.95em" style="text-anchor: middle; visibility: inherit; font-family: Roboto, sans-serif; font-size: 12px; font-weight: 200;" fill="rgb(255, 255, 255)" stroke="none" stroke-width="1px">3k</text></g><line x1="0" y1="0" x2="1262.609375" y2="0" fill="rgb(0, 0, 0)" stroke="rgb(204, 204, 204)" stroke-width="1px"></line></g></g></g></g></svg>