<svg viewBox="0 0 1283 400" xmlns="http://www.w3.org/2000/svg"><g><g><g><g><g><line x1="20.390625" y1="306.993765784652" x2="15.390625" y2="306.993765784652" style="visibility: inherit;" fill="rgb(0, 0, 0)" stroke="rgb(204, 204, 204)" stroke-width="1px"></line><line x1="20.390625" y1="232.3103679592933" x2="15.390625" y2="232.3103679592933" style="visibility: inherit;" fill="rgb(0, 0, 0)" stroke="rgb(204, 204, 204)" stroke-width="1px"></line><line x1="20.390625" y1="174.38142413275114" x2="15.390625" y2="174.38142413275114" style="visibility: inherit;" fill="rgb(0, 0, 0)" stroke="rgb(204, 204, 204)" stroke-width="1px"></line><line x1="20.390625" y1="127.05003068812165" x2="15.390625" y2="127.05003068812165" style="visibility: inherit;" fill="rgb(0, 0, 0)" stroke="rgb(204, 204, 204)" stroke-width="1px"></line><line x1="20.390625" y1="87.03190773567994" x2="15.390625" y2="87.03190773567994" style="visibility: inherit;" fill="rgb(0, 0, 0)" stroke="rgb(204, 204, 204)" stroke-width="1px"></line><line x1="20.390625" y1="52.36663286276299" x2="15.390625" y2="52.36663286276299" style="visibility: inherit;" fill="rgb(0, 0, 0)" stroke="rgb(204, 204, 204)" stroke-width="1px"></line><line x1="20.390625" y1="21.78969341694991" x2="15.390625" y2="21.78969341694991" style="visibility: inherit;" fill="rgb(0, 0, 0)" stroke="rgb(204, 204, 204)" stroke-width="1px"></line></g><g transform="translate(10.390625, 0)"><text x="0" y="306.993765784652" dx="0em" dy="0.3em" style="text-anchor: end; visibility: inherit; font-family: Roboto, sans-serif; font-size: 12px; font-weight: 200;" fill="rgb(255, 255, 255)" stroke="none" stroke-width="1px">3</text><text x="0" y="232.3103679592933" dx="0em" dy="0.3em" style="text-anchor: end; visibility: inherit; font-family: Roboto, sans-serif; font-size: 12px; font-weight: 200;" fill="rgb(255, 255, 255)" stroke="none" stroke-width="1px">4</text><text x="0" y="174.38142413275114" dx="0em" dy="0.3em" style="text-anchor: end; visibility: inherit; font-family: Roboto, sans-serif; font-size: 12px; font-weight: 200;" fill="rgb(255, 255, 255)" stroke="none" stroke-width="1px">5</text><text x="0" y="127.05003068812165" dx="0em" dy="0.3em" style="text-anchor: end; visibility: inherit; font-family: Roboto, sans-serif; font-size: 12px; font-weight: 200;" fill="rgb(255, 255, 255)" stroke="none" stroke-width="1px">6</text><text x="0" y="87.03190773567994" dx="0em" dy="0.3em" style="text-anchor: end; visibility: inherit; font-family: Roboto, sans-serif; font-size: 12px; font-weight: 200;" fill="rgb(255, 255, 255)" stroke="none" stroke-width="1px">7</text><text x="0" y="52.36663286276299" dx="0em" dy="0.3em" style="text-anchor: end; visibility: inherit; font-family: Roboto, sans-serif; font-size: 12px; font-weight: 200;" fill="rgb(255, 255, 255)" stroke="none" stroke-width="1px">8</text><text x="0" y="21.78969341694991" dx="0em" dy="0.3em" style="text-anchor: end; visibility: inherit; font-family: Roboto, sans-serif; font-size: 12px; font-weight: 200;" fill="rgb(255, 255, 255)" stroke="none" stroke-width="1px">9</text></g><line x1="20.390625" y1="0" x2="20.390625" y2="377" fill="rgb(0, 0, 0)" stroke="rgb(204, 204, 204)" stroke-width="1px"></line></g></g><g transform="translate(20, 0)" clip-path="url(#clip_0)"><clipPath id="clip_0"><rect width="1262" height="377"></rect></clipPath><g><g><g><line x1="0" y1="0" x2="0" y2="377" fill="rgb(0, 0, 0)" stroke="rgb(189, 189, 189)" stroke-width="1px" opacity="0.25"></line><line x1="157.826171875" y1="0" x2="157.826171875" y2="377" fill="rgb(0, 0, 0)" stroke="rgb(189, 189, 189)" stroke-width="1px" opacity="0.25"></line><line x1="315.65234375" y1="0" x2="315.65234375" y2="377" fill="rgb(0, 0, 0)" stroke="rgb(189, 189, 189)" stroke-width="1px" opacity="0.25"></line><line x1="473.478515625" y1="0" x2="473.478515625" y2="377" fill="rgb(0, 0, 0)" stroke="rgb(189, 189, 189)" stroke-width="1px" opacity="0.25"></line><line x1="631.3046875" y1="0" x2="631.3046875" y2="377" fill="rgb(0, 0, 0)" stroke="rgb(189, 189, 189)" stroke-width="1px" opacity="0.25"></line><line x1="789.130859375" y1="0" x2="789.130859375" y2="377" fill="rgb(0, 0, 0)" stroke="rgb(189, 189, 189)" stroke-width="1px" opacity="0.25"></line><line x1="946.95703125" y1="0" x2="946.95703125" y2="377" fill="rgb(0, 0, 0)" stroke="rgb(189, 189, 189)" stroke-width="1px" opacity="0.25"></line><line x1="1104.783203125" y1="0" x2="1104.783203125" y2="377" fill="rgb(0, 0, 0)" stroke="rgb(189, 189, 189)" stroke-width="1px" opacity="0.25"></line><line x1="1262.609375" y1="0" x2="1262.609375" y2="377" fill="rgb(0, 0, 0)" stroke="rgb(189, 189, 189)" stroke-width="1px" opacity="0.25"></line></g><g><line x1="0" y1="306.993765784652" x2="1262.609375" y2="306.993765784652" fill="rgb(0, 0, 0)" stroke="rgb(189, 189, 189)" stroke-width="1px" opacity="0.25"></line><line x1="0" y1="232.3103679592933" x2="1262.609375" y2="232.3103679592933" fill="rgb(0, 0, 0)" stroke="rgb(189, 189, 189)" stroke-width="1px" opacity="0.25"></line><line x1="0" y1="174.38142413275114" x2="1262.609375" y2="174.38142413275114" fill="rgb(0, 0, 0)" stroke="rgb(189, 189, 189)" stroke-width="1px" opacity="0.25"></line><line x1="0" y1="127.05003068812165" x2="1262.609375" y2="127.05003068812165" fill="rgb(0, 0, 0)" stroke="rgb(189, 189, 189)" stroke-width="1px" opacity="0.25"></line><line x1="0" y1="87.03190773567994" x2="1262.609375" y2="87.03190773567994" fill="rgb(0, 0, 0)" stroke="rgb(189, 189, 189)" stroke-width="1px" opacity="0.25"></line><line x1="0" y1="52.36663286276299" x2="1262.609375" y2="52.36663286276299" fill="rgb(0, 0, 0)" stroke="rgb(189, 189, 189)" stroke-width="1px" opacity="0.25"></line><line x1="0" y1="21.78969341694991" x2="1262.609375" y2="21.78969341694991" fill="rgb(0, 0, 0)" stroke="rgb(189, 189, 189)" stroke-width="1px" opacity="0.25"></line></g></g></g><g><g><line x1="157.826171875" y1="0" x2="157.826171875" y2="377" fill="rgb(0, 0, 0)" stroke="rgb(153, 153, 153)" stroke-width="1.5px"></line></g></g><g><g><g><g><g><path stroke="rgb(0, 119, 187)" stroke-width="2px" d="M157.826171875,53.85714285714292L159.40443359375,73.8448405867846L160.9826953125,92.51774914128168L162.56095703125,99.16083070688389L164.13921875,107.9992270023563L165.71748046875,119.67744675386854L167.2957421875,120.26478410249688L168.87400390625,127.57804022542214L170.45226562500002,137.4117243599927L172.03052734375,142.56024327103287L173.60878906250002,143.78013365881702L175.18705078125,149.42190591716485L176.76531250000002,154.90495545690126L178.34357421874998,153.3718886535247L179.9218359375,157.09762166292853L181.50009765624998,159.8750582755914L183.078359375,163.7407807451885L184.65662109374998,170.2441581574832L186.2348828125,184.78034867087698L187.81314453125,184.14690037020137L189.39140625,182.51153932146477L190.96966796875,188.4493903263097L192.5479296875,201.6921259116314L194.12619140625,201.57878883671964L195.704453125,196.9726649335203L197.28271484375,201.92879782981436L198.8609765625,198.52867595180135L200.43923828125,193.322551898565L202.0175,191.8378660048523L203.59576171875,194.9266039720687L205.1740234375,194.75868065891956L206.75228515625,187.42654722545774L208.330546875,181.65513261496397L209.90880859375002,179.176474004079L211.4870703125,197.19814841994406L213.06533203125002,193.4368073160667L214.64359375,194.8315857296482L216.22185546875002,206.57894511222108L217.80011718749998,211.38347533916098L219.37837890625,217.6109114356426L220.95664062499998,218.86395582662288L222.53490234375,203.55475931898053L224.11316406249998,193.1322159649893L225.69142578125,188.4784944770753L227.2696875,202.22819702189946L228.84794921875,202.53401673574263L230.4262109375,200.6360875101774L232.00447265625,202.785510889934L233.582734375,197.73518550010812L235.16099609375,203.03602135382138L236.7392578125,208.3037435244242L238.31751953125,216.61780922109486L239.89578125,218.03678737181417L241.47404296875,208.33883277598184L243.0523046875,217.2814761110599L244.63056640625,211.02782143921456L246.208828125,212.36610970088668L247.78708984375,213.4143832097936L249.36535156250002,227.7697678908344L250.94361328125,238.16732436254327L252.52187500000002,227.86869220152576L254.10013671875,229.1424082639584L255.67839843750002,234.2352778087602L257.25666015625,239.75196400769804L258.83492187499996,229.57166216796128L260.41318359375,223.60743612172794L261.9914453125,223.17950382365177L263.56970703125,228.96071012026292L265.14796875,237.50635890664896L266.72623046875,240.95335970637825L268.3044921875,234.19385562465058L269.88275390625,238.79088946076723L271.461015625,230.8047739551156L273.03927734375,225.76283257025224L274.6175390625,241.19599145912022L276.19580078125,236.25463978335176L277.7740625,238.16953305570442L279.35232421875,239.33021162478047L280.9305859375,235.34957335703476L282.50884765625,237.41378609268017L284.087109375,244.87813085623864L285.66537109375,234.8159903965588L287.2436328125,246.4149440315443L288.82189453125,243.55551242485564L290.40015625,232.92930938109345L291.97841796875,235.4155210607083L293.55667968750004,229.99552941357229L295.13494140625,229.98750893947127L296.713203125,250.1192326950995L298.29146484374996,263.728546440543L299.8697265625,256.2160725374335L301.44798828125,256.5492610674173L303.02625,256.1884945998841L304.60451171875,260.42691930855017L306.1827734375,259.8915230201561L307.76103515625,255.50576511520464L309.339296875,262.22657051538664L310.91755859375,248.8327008978394L312.4958203125,247.92305182730337L314.07408203125,248.80922588496963L315.65234375,252.99826484621295L317.23060546874996,263.4286317616096L318.8088671875,252.30101916886156L320.38712890625,253.9390058629096L321.965390625,257.44595103061414L323.54365234374995,257.755807084391L325.1219140625,263.46149499653734L326.70017578125,274.413822988931L328.2784375,278.365728986676L329.85669921874995,267.89350075868094L331.4349609375,273.1535809823253L333.01322265625,276.2645745249515L334.591484375,277.1179055976766L336.16974609375,275.026799829378L337.7480078125,270.1667165854617L339.32626953125,286.4054258265239L340.90453125000005,270.2808563772799L342.48279296875,282.6055539072732L344.0610546875,284.1809430019656L345.63931640625,276.1315950609161L347.21757812500005,267.2074595757329L348.79583984375,283.57922666472825L350.3741015625,261.56940463623084L351.95236328125,266.7512389537192L353.53062500000004,288.262366594129L355.10888671875,280.3091700075521L356.68714843749996,266.23599316084034L358.26541015625,273.18544066117914L359.843671875,269.3163677011881L361.42193359375,285.5067524005347L363.00019531249995,286.65525667230185L364.57845703125,274.34536406050773L366.15671875,277.0595448464631L367.73498046875,283.4620776272222L369.31324218749995,283.7166592442954L370.89150390625,285.4883255978619L372.469765625,279.85388282529703L374.04802734375,276.05259148529024L375.6262890625,271.2444260408601L377.20455078125,280.6430593557175L378.7828125,265.166608609475L380.36107421875005,264.4854147774037L381.9393359375,282.3909443923253L383.51759765625,276.5915956135251L385.095859375,280.7177387238552L386.67412109375005,271.92085630364915L388.2523828125,271.9602310114352L389.83064453125,287.3218220936124L391.40890625,286.7962716372199L392.98716796875004,290.2341469709357L394.5654296875,277.62519874947947L396.14369140624996,281.5398209246296L397.721953125,273.00958968830923L399.30021484375,269.063576484292L400.8784765625,261.3103855164854L402.45673828124995,269.5105424095247L404.035,273.8594111177153L405.61326171875,273.2803496237203L407.1915234375,279.11810167499175L408.76978515624995,278.0679176438601L410.348046875,268.9331180985486L411.92630859375,279.749052662305L413.5045703125,278.76350657228096L415.08283203125,278.4688955408294L416.66109375,272.3988137126333L418.23935546875,270.0604070806269L419.81761718750005,268.98856394847326L421.39587890625,258.17828582997544L422.974140625,267.83780945751573L424.55240234375,265.9480784504922L426.13066406250005,269.51295196569833L427.70892578125,276.7183015106439L429.2871875,265.83021666624614L430.86544921875,259.60072437608136L432.44371093750004,260.6032932045727L434.02197265625,274.4975684737118L435.60023437499996,283.2620945840115L437.17849609375,273.7162057847432L438.7567578125,293.4612739775871L440.33501953125,304.3425685520141L441.91328124999995,283.39369601668614L443.49154296875,266.5945640322353L445.0698046875,279.21669571807615L446.64806640625,285.2461247612917L448.22632812499995,276.0891151718229L449.80458984375,274.48688450328206L451.3828515625,267.06570091163013L452.96111328125,280.4264023722877L454.539375,294.1760281804785L456.11763671875,286.039183322785L457.6958984375,280.3118319544732L459.27416015625005,278.5973143890676L460.852421875,277.3791700812655L462.43068359375,274.7241919154822L464.0089453125,272.82138756794404L465.58720703125005,281.5370363689266L467.16546875,266.163935942094L468.74373046875,264.75662705878847L470.3219921875,275.5893015152873L471.90025390625004,282.4706920786788L473.478515625,288.4993054156278L475.05677734374996,289.6273519301117L476.6350390625,287.60652047110256L478.21330078125,285.09251320340326L479.7915625,286.2179484774787L481.36982421874995,283.742051504447L482.9480859375,284.67124962468216L484.52634765625,274.29611957327035L486.104609375,275.21211641242144L487.68287109374995,269.82905881291754L489.2611328125,270.8741522771553L490.83939453125,271.10392787874764L492.41765625,285.9717430910812L493.99591796875,281.1167234554364L495.5741796875,297.2643962542197L497.15244140625,283.34242752674766L498.73070312500005,282.3956839068202L500.30896484375,287.41420450394645L501.8872265625,281.819874187658L503.46548828125,268.6101118546157L505.04375000000005,276.9633555316526L506.62201171875,272.5852160788231L508.2002734375,265.2690789045226L509.77853515625,272.98464205722826L511.35679687500004,288.69896426281747L512.93505859375,296.77873422647053L514.5133203125,307.02623500909067L516.09158203125,290.79946319993553L517.6698437499999,293.0330860184269L519.24810546875,288.0698789717205L520.8263671875,296.74335943168944L522.40462890625,289.9083488343805L523.982890625,285.34236667003097L525.56115234375,278.2330311171639L527.1394140625,279.59929244070065L528.71767578125,289.8452106320318L530.2959375,278.2798914728153L531.87419921875,281.3557213813545L533.4524609375,294.93585434101084L535.03072265625,290.9583283627117L536.608984375,291.22064684740377L538.18724609375,301.4993418276874L539.7655078125,292.5020647492658L541.34376953125,296.06690356449946L542.92203125,296.44312278185083L544.50029296875,288.0450645483331L546.0785546875,303.36983303146127L547.6568164062501,297.36247714547403L549.235078125,309.2812955949764L550.81333984375,296.98041843405923L552.3916015625,301.2612686962023L553.96986328125,301.76164376527106L555.548125,303.5259859339289L557.1263867187499,298.2816933584599L558.7046484375,282.33878151155164L560.28291015625,285.26970132599416L561.861171875,284.48796916689605L563.43943359375,290.794275026394L565.0176953125,289.24208519392766L566.59595703125,282.3282101508557L568.17421875,281.9163453515047L569.75248046875,281.8233376496169L571.3307421875,290.41422742599957L572.90900390625,291.075157108845L574.487265625,289.71177924350985L576.06552734375,286.39908335556095L577.6437890625,285.96395560454835L579.22205078125,287.86158392513806L580.8003125,292.0226335753048L582.37857421875,290.47196219999677L583.9568359375,303.3121839681499L585.53509765625,283.03939145233335L587.1133593750001,275.60388156578415L588.69162109375,290.7123174324332L590.2698828125,280.91995045607416L591.84814453125,285.99242682759785L593.42640625,293.9303649194083L595.00466796875,302.7930887404008L596.5829296874999,307.5613561969042L598.16119140625,296.54931619026286L599.739453125,282.78548517776926L601.31771484375,286.9152826075479L602.8959765625,277.7620298228637L604.47423828125,277.49247748924904L606.0525,276.7079868430401L607.63076171875,273.1830966382845L609.2090234375,285.09611924824657L610.78728515625,284.7624084208476L612.365546875,300.6398931545891L613.94380859375,303.40247767783353L615.5220703125,307.3052663537586L617.10033203125,293.60403901183923L618.67859375,284.19115007890025L620.25685546875,279.8967537063824L621.8351171875,276.0499409744148L623.41337890625,267.49228868795745L624.991640625,274.5920858978946L626.5699023437501,267.4959545397693L628.1481640625,267.0443690180256L629.72642578125,289.77756717144956L631.3046875,294.5931373630692L632.88294921875,285.80706074288616L634.4612109374999,277.8614929581601L636.03947265625,290.4451727191947L637.617734375,288.50171855383803L639.19599609375,296.1049674192486L640.7742578125,287.91825836528466L642.3525195312501,296.1755533917672L643.93078125,294.6072278703755L645.50904296875,285.76019827023606L647.0873046874999,287.47542302517667L648.66556640625,290.7275880965814L650.243828125,298.06187742217986L651.82208984375,302.72834173373957L653.4003515625,284.3959718174572L654.9786132812501,272.66741516789347L656.556875,261.384168984045L658.13513671875,275.7727806184821L659.7133984374999,286.00719963061795L661.29166015625,285.1739961310219L662.869921875,283.33770952833277L664.44818359375,292.0253796513989L666.0264453125,294.91320710049325L667.6047070312501,285.2969649187722L669.18296875,278.8096435406663L670.76123046875,286.00350244990375L672.3394921875,266.0887063801327L673.9177539062499,266.0091774481721L675.496015625,274.7629241257139L677.07427734375,282.18092294267143L678.6525390625,269.1806510711318L680.23080078125,268.5990981080793L681.8090625000001,274.00936101157066L683.38732421875,278.889788195672L684.9655859375,286.1037054136425L686.5438476562499,282.93591358631204L688.122109375,293.44114499212276L689.70037109375,289.9932553018373L691.2786328125,280.19513808012726L692.85689453125,279.31646265702585L694.4351562500001,285.5375520961147L696.01341796875,288.03445431170303L697.5916796875,292.0904844978825L699.1699414062499,299.811630681591L700.748203125,295.7268177468272L702.32646484375,304.03831495894644L703.9047265625,300.21320164423327L705.48298828125,289.93871571195467L707.0612500000001,302.42440008223923L708.63951171875,298.626256551766L710.2177734375,296.56270457635446L711.79603515625,297.4219468314799L713.3742968749999,288.55192184393417L714.95255859375,289.58414990761446L716.5308203125,287.620886179538L718.10908203125,288.34452198165314L719.68734375,284.6068004738982L721.2656054687501,296.7514489085802L722.8438671875,296.59386946158594L724.42212890625,304.1706810798762L726.0003906249999,300.2606300219034L727.57865234375,289.5120349117809L729.1569140625,295.0442740540267L730.73517578125,290.50812220484937L732.3134375,284.63454644489315L733.8916992187501,285.11065754057915L735.4699609375,296.33067890752767L737.04822265625,297.39218880053124L738.6264843749999,295.49216456449716L740.20474609375,296.8533826159336L741.7830078125,286.89063717916986L743.36126953125,300.46246615417516L744.93953125,306.3958989447196L746.5177929687501,304.0110988577279L748.0960546875,292.7463046667955L749.67431640625,291.5111503977664L751.252578125,279.35022143078874L752.8308398437499,275.62969104672845L754.4091015625,277.67266161792213L755.98736328125,287.8610277642776L757.565625,282.8605461420711L759.14388671875,279.94200781325065L760.7221484375001,283.4310861976078L762.30041015625,278.94420898009037L763.878671875,284.54293011663196L765.4569335937499,293.49603617360515L767.0351953125,296.5876408451757L768.61345703125,293.14789623289425L770.19171875,290.2119867988568L771.76998046875,274.12709297787836L773.3482421875001,288.2991203403246L774.92650390625,277.16256185248113L776.504765625,277.4904704017547L778.0830273437499,275.73882288360915L779.6612890625,280.7666354023594L781.23955078125,287.92131492740003L782.8178125,281.379258941752L784.39607421875,277.1119554097564L785.9743359375001,287.05195981938994L787.55259765625,294.23611243095934L789.130859375,284.44321053178817L790.70912109375,297.66967168098574L792.2873828124999,295.8388864326969L793.86564453125,290.5798323551179L795.44390625,284.23604561622517L797.02216796875,288.1189281768333L798.6004296875,294.3377969335741L800.1786914062501,279.4609809563091L801.756953125,261.5213386253339L803.33521484375,271.8171408093464L804.9134765624999,283.2023879636983L806.49173828125,280.696742151007L808.07,287.138803800359L809.64826171875,294.09473391934694L811.2265234375,301.97766047238935L812.8047851562501,314.80961507791375L814.383046875,302.9506162436682L815.96130859375,313.831926667081L817.5395703124999,301.27423650984946L819.11783203125,305.78679018542795L820.69609375,307.58181481162325L822.27435546875,302.52750857463974L823.8526171875,290.0929329976596L825.4308789062501,283.84017293871557L827.009140625,289.8212887451875L828.58740234375,273.50618759387214L830.1656640625,285.42241042643656L831.7439257812499,276.5260804249746L833.3221875,286.4033252912405L834.90044921875,287.97086378542656L836.4787109375,289.02820923611284L838.05697265625,283.91582990575336L839.6352343750001,281.26394155311095L841.21349609375,274.8515004068333L842.7917578125,272.206938060455L844.3700195312499,283.1596115225742L845.94828125,279.45958881268854L847.52654296875,284.31023275607555L849.1048046875,308.2479551714873L850.68306640625,314.92104630684287L852.2613281250001,307.7349312512256L853.83958984375,302.07673076614896L855.4178515625,302.90797002437375L856.9961132812499,282.19596422510915L858.574375,276.9584238729186L860.15263671875,272.04335183359615L861.7308984375,282.29064668702483L863.30916015625,293.953736469782L864.8874218750001,297.35235503680036L866.46568359375,295.9085615622779L868.0439453125,282.0311920679064L869.62220703125,284.9270537836715L871.2004687499999,287.4736015507405L872.77873046875,284.9543856806074L874.3569921875,274.80386912815163L875.93525390625,272.57518629914676L877.513515625,285.9935540260999L879.0917773437501,283.05839991458845L880.6700390625,274.28011729931126L882.24830078125,280.9229137087662L883.8265624999999,282.7414591829368L885.40482421875,289.76345487929024L886.9830859375,288.78543083002995L888.56134765625,284.1725142946223L890.139609375,297.9679859583089L891.7178710937501,286.3788897765144L893.2961328125,282.8929404364953L894.87439453125,292.7237789910515L896.4526562499999,282.055873865258L898.03091796875,275.39905221946657L899.6091796875,276.9405305460032L901.18744140625,277.9567532602135L902.765703125,279.6274878015272L904.3439648437501,290.17066559866373L905.9222265625,279.8216753847508L907.50048828125,288.6599894669973L909.07875,293.11554624165154L910.6570117187499,282.08817843275926L912.2352734375,276.1761072388885L913.81353515625,276.03833158653475L915.391796875,269.14825005821086L916.97005859375,269.3114590365228L918.5483203125001,276.39528648794845L920.12658203125,278.6031168722593L921.70484375,276.13277999477316L923.2831054687499,276.9809110968624L924.8613671875,271.91661123377975L926.43962890625,282.9025651699768L928.017890625,291.34710860945654L929.59615234375,292.4071057528224L931.1744140625001,291.1448317794311L932.75267578125,285.0808038317376L934.3309375,285.9168165702026L935.9091992187499,291.1314251773307L937.4874609375,280.0763071847251L939.06572265625,279.3103136680776L940.643984375,292.7453024533809L942.22224609375,274.62849488380715L943.8005078125001,279.1098345146339L945.37876953125,280.0843547564384L946.95703125,282.49678818877334L948.53529296875,277.4176611710814L950.1135546874999,276.1342475126779L951.69181640625,277.22403114676007L953.270078125,271.53274031947944L954.84833984375,278.94139854445933L956.4266015625,275.91961276923996L958.0048632812501,265.0836492993915L959.583125,292.67984390359953L961.16138671875,297.0366771110516L962.7396484374999,280.8647855497346L964.31791015625,296.5272294953843L965.896171875,286.5613073485698L967.47443359375,291.19905138717377L969.0526953125,310.0125975593647L970.6309570312501,303.58721083713556L972.20921875,292.61532724903714L973.78748046875,293.3175660811941L975.3657421874999,289.23906076016175L976.94400390625,272.89592496123396L978.522265625,275.2148241253724L980.10052734375,277.6701829444146L981.6787890625,292.5571565821016L983.2570507812501,288.24235984099715L984.8353125,295.51748779869575L986.41357421875,292.4659252339694L987.9918359375,289.8492649183741L989.5700976562499,302.1121617993788L991.148359375,320.7130602621727L992.72662109375,308.0080444568071L994.3048828125,296.86215925003455L995.88314453125,271.4441111615473L997.4614062500001,271.4307872251671L999.03966796875,269.24857742017224L1000.6179296875,278.301312915081L1002.1961914062499,272.05218807376076L1003.774453125,275.6318026145071L1005.35271484375,276.0553147694696L1006.9309765625,285.2469221323723L1008.50923828125,285.60690776548364L1010.0875000000001,281.07951521899895L1011.66576171875,285.2062912336351L1013.2440234375,278.00264284201836L1014.8222851562499,270.4782690138274L1016.400546875,267.006122489873L1017.97880859375,260.71029059445425L1019.5570703125,274.50642126294537L1021.13533203125,291.62330441400326L1022.7135937500001,290.29694460138654L1024.29185546875,292.5040047229239L1025.8701171875,287.54432883702935L1027.44837890625,288.48171413571066L1029.026640625,288.30517924009365L1030.60490234375,287.5781531259732L1032.1831640625,287.85377316479105L1033.76142578125,290.6622301877971L1035.3396874999999,287.2298185599674L1036.91794921875,301.2935297685783L1038.4962109375,290.2067857457637L1040.07447265625,311.1864644172563L1041.652734375,305.2089999387701L1043.23099609375,293.902270240727L1044.8092578125,302.6998043620563L1046.38751953125,321.98321892466896L1047.96578125,323.14285714285717L1049.54404296875,302.26199788526054L1051.1223046875,284.3050149405451L1052.70056640625,296.74354184933264L1054.278828125,296.9581694594847L1055.8570898437501,308.757675233145L1057.4353515625,306.0621162771278L1059.01361328125,310.022828690261L1060.591875,285.4071249777696L1062.17013671875,288.17513861629124L1063.7483984375,278.25546790724036L1065.32666015625,279.20628200206386L1066.904921875,280.1462227625045L1068.48318359375,279.69214213655863L1070.0614453125,277.2576070559839L1071.63970703125,291.79136049520076L1073.21796875,286.343384963918L1074.7962304687499,285.0277147349737L1076.3744921875,276.61372521656125L1077.95275390625,287.4083584604174L1079.531015625,290.32160951398913L1081.10927734375,302.2204390776981L1082.6875390625,295.1711278112261L1084.26580078125,289.4162295746159L1085.8440625,303.4268025597007L1087.42232421875,302.07348031491176L1089.0005859375,299.46339168271317L1090.57884765625,290.9322496209474L1092.157109375,305.41203689942165L1093.73537109375,287.91255001255786L1095.3136328125001,298.87473645386694L1096.89189453125,303.3077386004777L1098.47015625,292.72395234439364L1100.04841796875,293.6343146953102L1101.6266796875,291.9520903051654L1103.20494140625,288.27040606902057L1104.46755078125,300.4755099013901" style="fill: none;" fill="none"></path></g></g></g></g><g opacity="0.2"><g><g><g><path stroke="rgb(0, 119, 187)" stroke-width="2px" d="M157.826171875,53.85714285714292L159.40443359375,88.06496201887038L160.9826953125,114.94080408871842L162.56095703125,108.7909944816141L164.13921875,122.81428821471025L165.71748046875,141.2464810251562L167.2957421875,121.33716147630294L168.87400390625,141.89621112493333L170.45226562500002,157.37073002598052L172.03052734375,152.8634111858065L173.60878906250002,146.18760116167348L175.18705078125,160.91547214803185L176.76531250000002,166.10867105178988L178.34357421874998,150.35697710624157L179.9218359375,164.66427731564707L181.50009765624998,165.49081061496275L183.078359375,171.61328934215612L184.65662109374998,183.7057259764119L186.2348828125,216.42542392850348L187.81314453125,182.88894774335776L189.39140625,179.28198934397207L190.96966796875,200.7085846988236L192.5479296875,230.29976666319152L194.12619140625,201.35296060386756L195.704453125,188.0254954947989L197.28271484375,212.10271873599413L198.8609765625,191.87906633148742L200.43923828125,183.2432774047291L202.0175,188.90252534454527L203.59576171875,201.1974539993734L205.1740234375,194.4241651415957L206.75228515625,173.3967960257484L208.330546875,170.51629151041223L209.90880859375002,174.3035479002223L211.4870703125,237.36308988574004L213.06533203125002,186.09551263511835L214.64359375,197.63536037424268L216.22185546875002,231.7204423669434L217.80011718749998,221.23764623116583L219.37837890625,230.4930254008866L220.95664062499998,221.3807413004369L222.53490234375,175.48449434735912L224.11316406249998,173.52095981111313L225.69142578125,179.44075700633903L227.2696875,232.0314360077423L228.84794921875,203.14490241400347L230.4262109375,196.8925161991739L232.00447265625,207.12535266686214L233.582734375,187.948895513861L235.16099609375,213.9404451184786L236.7392578125,219.13789911103424L238.31751953125,234.03596552878327L239.89578125,220.8896115064934L241.47404296875,190.0195741790832L243.0523046875,236.08901533158897L244.63056640625,198.99039704553797L246.208828125,215.0554446710277L247.78708984375,215.51737401726731L249.36535156250002,259.0069718433986L250.94361328125,260.23269160458875L252.52187500000002,208.47766824907103L254.10013671875,231.70102148819794L255.67839843750002,244.69885451502793L257.25666015625,251.11511520657996L258.83492187499996,210.39122482185718L260.41318359375,212.1087310281858L261.9914453125,222.32830161200016L263.56970703125,240.88765174228797L265.14796875,255.43514145459815L266.72623046875,247.9664353559065L268.3044921875,221.21899391680216L269.88275390625,248.20782050188984L271.461015625,215.57821237610858L273.03927734375,215.99233244374372L274.6175390625,275.0129943010114L276.19580078125,226.6736985202743L277.7740625,242.0305401846121L279.35232421875,241.66022514992642L280.9305859375,227.5898142625565L282.50884765625,241.57950308397685L284.087109375,260.4351278709905L285.66537109375,215.8461055185555L287.2436328125,271.2156635672592L288.82189453125,237.94609954178924L290.40015625,212.9567122661651L291.97841796875,240.44528395756404L293.55667968750004,219.51449220925554L295.13494140625,229.9715167576958L296.713203125,295.62478195676067L298.29146484374996,293.2010158052199L299.8697265625,241.8554058254505L301.44798828125,257.2149222148791L303.02625,255.47061504787632L304.60451171875,269.0907320510083L306.1827734375,258.8272211766925L307.76103515625,246.97565783154784L309.339296875,276.1707958029259L310.91755859375,224.02628998124308L312.4958203125,246.1186601508784L314.07408203125,250.58534894299808L315.65234375,261.55861440337253L317.23060546874996,285.568153407669L318.8088671875,231.44214320321856L320.38712890625,257.2363488048926L321.965390625,264.58351517035857L323.54365234374995,258.3747699391149L325.1219140625,275.22729539326446L326.70017578125,297.73714623756314L328.2784375,286.4301317880268L329.85669921874995,248.19401866705857L331.4349609375,283.9715241279896L333.01322265625,282.5814858893697L334.591484375,278.8278769013631L336.16974609375,270.9067259771102L337.7480078125,260.73907856159786L339.32626953125,322.1745980291316L340.90453125000005,240.84069940782837L342.48279296875,309.07894300177264L344.0610546875,287.3511164109294L345.63931640625,260.7897716268057L347.21757812500005,250.27913730202596L348.79583984375,319.6728546521273L350.3741015625,222.57195538958763L351.95236328125,277.40326839228146L353.53062500000004,337.34365982916387L355.10888671875,265.14264533696L356.68714843749996,240.26453018092488L358.26541015625,287.62404431675276L359.843671875,261.7693674179045L361.42193359375,321.1582287306932L363.00019531249995,288.9606676247696L364.57845703125,251.41531976855578L366.15671875,282.5578619999912L367.73498046875,296.72040769990014L369.31324218749995,284.22504449142826L370.89150390625,289.05755569334525L372.469765625,268.9711106579972L374.04802734375,268.63498294010043L375.6262890625,261.9147973305329L377.20455078125,300.4652961367758L378.7828125,236.81440051537007L380.36107421875005,263.132418529894L381.9393359375,322.26637527783174L383.51759765625,265.4005496713871L385.095859375,289.1464095583389L386.67412109375005,255.22238472646464L388.2523828125,272.0387624816651L389.83064453125,320.96638710917637L391.40890625,285.7514829978571L392.98716796875004,297.228279212122L394.5654296875,254.17534830032608L396.14369140624996,289.52637453298996L397.721953125,256.79378391128495L399.30021484375,261.3698201145411L400.8784765625,246.50909003035682L402.45673828124995,286.6780717331979L404.035,282.7548247839291L405.61326171875,272.1295354064807L407.1915234375,291.16579693852776L408.76978515624995,275.9864349503256L410.348046875,251.6249779563696L411.92630859375,302.7622858363189L413.5045703125,276.8094143355015L415.08283203125,277.8824337538626L416.66109375,260.7028777548754L418.23935546875,265.4595452720728L419.81761718750005,266.8644158981104L421.39587890625,237.87977168882742L422.974140625,288.2431899248587L424.55240234375,262.22050378767796L426.13066406250005,276.7709019367733L427.70892578125,291.71186304890915L429.2871875,245.394132922905L430.86544921875,247.60820820770942L432.44371093750004,262.61405982149705L434.02197265625,304.6420643219533L435.60023437499996,301.6748329996378L437.17849609375,255.6693703423538L438.7567578125,337.9766629062648L440.33501953125,327.50433097820195L441.91328124999995,246.077588676884L443.49154296875,236.0297528133225L445.0698046875,306.380086607725L446.64806640625,297.7037613636843L448.22632812499995,258.7409816184764L449.80458984375,271.32123607850997L451.3828515625,252.87244250535414L452.96111328125,309.3145855597261L454.539375,323.97908674289664L456.11763671875,270.53799866559854L457.6958984375,269.25530820835405L459.27416015625005,275.2119796965551L460.852421875,274.96710606602227L462.43068359375,269.50983259908475L464.0089453125,269.0683044118617L465.58720703125005,299.8415893384866L467.16546875,237.98588857380875L468.74373046875,261.9730059920547L470.3219921875,298.6405640880013L471.90025390625004,296.7619965493585L473.478515625,300.95519544539945L475.05677734374996,291.8914284297702L476.6350390625,283.6233161739048L478.21330078125,280.15107599059303L479.7915625,288.4767497307835L481.36982421874995,278.87447125076744L482.9480859375,286.53406916394465L484.52634765625,254.76909800326825L486.104609375,277.048329844117L487.68287109374995,259.41730713099076L489.2611328125,272.9707247149291L490.83939453125,271.5627111576874L492.41765625,318.43098759590407L493.99591796875,271.6986419124409L495.5741796875,332.8119090992706L497.15244140625,257.6295800235457L498.73070312500005,280.51811006280616L500.30896484375,297.72044331021624L501.8872265625,271.01217290267135L503.46548828125,244.12088570798178L505.04375000000005,294.467794310471L506.62201171875,264.0695633880735L508.2002734375,251.26866138298544L509.77853515625,289.0898661722922L511.35679687500004,323.19498409642114L512.93505859375,313.6817651517776L514.5133203125,328.7528525305862L516.09158203125,261.1884092152102L517.6698437499999,297.5451572665848L519.24810546875,278.4477337746704L520.8263671875,314.95462921093554L522.40462890625,276.79400501725377L523.982890625,276.4706754675797L525.56115234375,264.6129010803972L527.1394140625,282.34528739130093L528.71767578125,311.56825886132344L530.2959375,256.6511938961357L531.87419921875,287.5999379454719L533.4524609375,324.33964613691927L535.03072265625,283.2045009064984L536.608984375,291.7445056002275L538.18724609375,323.2963275444684L539.7655078125,275.44177353561844L541.34376953125,303.32478139785064L542.92203125,297.1949398426354L544.50029296875,272.0690226082854L546.0785546875,336.925739580248L547.6568164062501,285.7833845846663L549.235078125,334.8173246080208L550.81333984375,274.06606991035665L552.3916015625,310.0140116769336L553.96986328125,302.7622858363189L555.548125,307.08030858099556L557.1263867187499,288.13050810789207L558.7046484375,253.20282646587185L560.28291015625,291.2146594067578L561.861171875,282.9361776668214L563.43943359375,303.845752148262L565.0176953125,286.174430862974L566.59595703125,269.0683044118617L568.17421875,281.09702739432174L569.75248046875,281.6379785857105L571.3307421875,308.4429341722933L572.90900390625,292.3981030279231L574.487265625,287.01437595662344L576.06552734375,279.9170960584984L577.6437890625,285.0984766854702L579.22205078125,291.6873935537916L580.8003125,300.5243725366956L582.37857421875,287.40728231081806L583.9568359375,330.9831826805093L585.53509765625,246.80402854570775L587.1133593750001,261.384340541296L588.69162109375,323.74821978346847L590.2698828125,262.43177766799903L591.84814453125,296.4128333434243L593.42640625,310.5222838675162L595.00466796875,321.4233768067014L596.5829296874999,317.33903685769906L598.16119140625,275.8943035980698L599.739453125,257.34354236987065L601.31771484375,295.3516014234084L602.8959765625,260.42066043812594L604.47423828125,276.9558209293537L606.0525,275.15074419368807L607.63076171875,266.2941435199081L609.2090234375,310.61879809249734L610.78728515625,284.0982628072035L612.365546875,335.5311091053929L613.94380859375,309.0004429902333L615.5220703125,315.2671186509627L617.10033203125,268.269465951462L618.67859375,266.3829471506048L620.25685546875,271.54006894928796L621.8351171875,268.54542352135815L623.41337890625,251.22678371070486L624.991640625,289.35653298516763L626.5699023437501,253.9001349248553L628.1481640625,266.14624019608766L629.72642578125,342.0846569505109L631.3046875,304.4706043733351L632.88294921875,269.1281216996023L634.4612109374999,262.7088846222373L636.03947265625,317.5192131856791L637.617734375,284.66934433505685L639.19599609375,311.96488241416347L640.7742578125,272.32632203782197L642.3525195312501,313.46875647965567L643.93078125,291.5079691975779L645.50904296875,268.9711106579972L647.0873046874999,290.9298063893312L648.66556640625,297.3366518030295L650.243828125,313.33572004416374L651.82208984375,312.2914576283761L653.4003515625,251.30358680186703L654.9786132812501,250.75253640734277L656.556875,240.251160198978L658.13513671875,307.08897683102975L659.7133984374999,307.70431534986307L661.29166015625,283.5205185872294L662.869921875,279.7144541757289L664.44818359375,310.26803382719913L666.0264453125,300.7692724490183L667.6047070312501,267.12403727410896L669.18296875,266.3385415380852L670.76123046875,300.9721078056983L672.3394921875,230.42858983489646L673.9177539062499,265.85066849448333L675.496015625,293.15179762821765L677.07427734375,297.6369646907806L678.6525390625,245.05308673658527L680.23080078125,267.44334893672556L681.8090625000001,285.1461913385623L683.38732421875,288.904164675626L684.9655859375,301.1158771158593L686.5438476562499,276.7323952505351L688.122109375,315.7499812442526L689.70037109375,283.25186868596523L691.2786328125,261.69668300132935L692.85689453125,277.57320131934233L694.4351562500001,298.4060462915046L696.01341796875,293.0861618304276L697.5916796875,300.372483200886L699.1699414062499,315.92905768829456L700.748203125,287.7686337773687L702.32646484375,321.45081611564984L703.9047265625,292.750106934499L705.48298828125,270.5906419421532L707.0612500000001,329.2709281890556L708.63951171875,291.2146594067578L710.2177734375,292.4962827741205L711.79603515625,299.1438224719106L713.3742968749999,271.7212979561297L714.95255859375,291.6547581824903L716.5308203125,283.74988493048147L718.10908203125,289.7935096469732L719.68734375,277.31063293253686L721.2656054687501,322.8084238045711L722.8438671875,296.27993939099724L724.42212890625,319.9729027690427L726.0003906249999,292.6354522336561L727.57865234375,269.32266327873367L729.1569140625,306.4405246075923L730.73517578125,281.6929218076286L732.3134375,273.30492446974966L733.8916992187501,286.06264323579654L735.4699609375,320.26415652609955L737.04822265625,299.521897508836L738.6264843749999,291.7445056002275L740.20474609375,299.5891609559425L741.7830078125,268.0980715311102L743.36126953125,329.8467190854021L744.93953125,318.64810873029415L746.5177929687501,299.3201916416492L748.0960546875,271.6457734950408L749.67431640625,289.06564256346115L751.252578125,256.67971243293056L752.8308398437499,268.3663795414296L754.4091015625,281.7949981048022L755.98736328125,309.4543242782183L757.565625,273.16815026706274L759.14388671875,274.2185562514241L760.7221484375001,290.531536533383L762.30041015625,270.22236298791694L763.878671875,296.08073582230264L765.4569335937499,312.32679336869177L767.0351953125,302.8644652988743L768.61345703125,286.4221265995933L770.19171875,284.45503442191404L771.76998046875,244.75332782121203L773.3482421875001,319.10103210422636L774.92650390625,256.28791629995607L776.504765625,278.14556294026255L778.0830273437499,272.2809062154009L779.6612890625,291.0925301788043L781.23955078125,302.8048540331677L782.8178125,268.80673232165805L784.39607421875,268.80673232165805L785.9743359375001,308.0863936731592L787.55259765625,309.1836396864856L789.130859375,265.9540811956746L790.70912109375,326.2431424938862L792.2873828124999,292.22637289439507L793.86564453125,280.4009095933719L795.44390625,272.0312070170393L797.02216796875,296.0392361808206L798.6004296875,307.20152524407763L800.1786914062501,252.12184849908866L801.756953125,229.0726141925043L803.33521484375,293.6527288253086L804.9134765624999,307.5134971927784L806.49173828125,275.77150653665876L808.07,300.48217661077035L809.64826171875,308.5473746209256L811.2265234375,318.44905612110506L812.8047851562501,342.4613459556642L814.383046875,280.8074073552356L815.96130859375,336.99372512460053L817.5395703124999,277.9133643545597L819.11783203125,315.02601309348245L820.69609375,311.1985962346722L822.27435546875,292.73372180111824L823.8526171875,266.9459705837003L825.4308789062501,271.80441105821427L827.009140625,302.17550780636634L828.58740234375,243.74757899017783L830.1656640625,310.9524605593624L831.7439257812499,259.64795478349515L833.3221875,307.29681253176966L834.90044921875,291.1250949432604L836.4787109375,291.14951149265056L838.05697265625,274.0127172102654L839.6352343750001,276.05555950645424L841.21349609375,262.51925226136086L842.7917578125,267.0127290694361L844.3700195312499,306.4837208731047L845.94828125,272.23548029069065L847.52654296875,294.26172527444675L849.1048046875,363.78941432601925L850.68306640625,328.7622755115883L852.2613281250001,293.9735110011848L853.83958984375,291.14951149265056L855.4178515625,304.57345857665706L856.9961132812499,245.2576671850326L858.574375,266.81992786034044L860.15263671875,262.5119688288013L861.7308984375,304.01679976276796L863.30916015625,318.90165364397785L864.8874218750001,304.2650181374899L866.46568359375,293.0533697063125L868.0439453125,256.39470190206424L869.62220703125,290.79968912602294L871.2004687499999,292.62725339479476L872.77873046875,280.0028567784559L874.3569921875,255.67648123566465L875.93525390625,268.18747672654257L877.513515625,315.01709701429917L879.0917773437501,277.30290406839737L880.6700390625,257.61526809459014L882.24830078125,294.6987796957974L883.8265624999999,286.4061360217401L885.40482421875,304.3592130394698L886.9830859375,286.84616938670143L888.56134765625,275.2119796965551L890.139609375,327.8791920118171L891.7178710937501,264.7084764755354L893.2961328125,276.0785990108668L894.87439453125,313.51311711263435L896.4526562499999,262.00938435987393L898.03091796875,262.61405982149705L899.6091796875,280.0418516728246L901.18744140625,279.99506593986285L902.765703125,282.99139636024233L904.3439648437501,312.5653828044932L905.9222265625,260.3411125848919L907.50048828125,307.23617487498694L909.07875,302.234974717637L910.6570117187499,261.4061140499819L912.2352734375,264.7746619775954L913.81353515625,275.76382335876673L915.391796875,255.93224730243472L916.97005859375,269.63720630109646L918.5483203125001,291.1250949432604L920.12658203125,283.06241177365945L921.70484375,271.2759777538548L923.2831054687499,278.680411025281L924.8613671875,262.104005864683L926.43962890625,306.3024189142399L928.017890625,309.05278062563L929.59615234375,294.53376073821573L931.1744140625001,288.64601648191325L932.75267578125,273.39614127923954L934.3309375,287.59191574962887L935.9091992187499,301.8529306842867L937.4874609375,259.34527818367894L939.06572265625,277.7896271844128L940.643984375,321.80787867792895L942.22224609375,241.8890874505104L943.8005078125001,288.2834425446101L945.37876953125,282.0385483997654L946.95703125,287.3751805572925L948.53529296875,267.57713923083855L950.1135546874999,273.5938907439397L951.69181640625,279.410824731351L953.270078125,260.543633447421L954.84833984375,294.37710063722557L956.4266015625,269.9971411012907L958.0048632812501,244.7397084230414L959.583125,358.39634241781755L961.16138671875,305.9488041229816L962.7396484374999,251.34547686637134L964.31791015625,330.8977728615505L965.896171875,267.7630715728025L967.47443359375,300.70168244113165L969.0526953125,352.16389076186994L970.6309570312501,291.230948940128L972.20921875,272.0312070170393L973.78748046875,294.72353470150364L975.3657421874999,281.2928845313966L976.94400390625,243.09051235307714L978.522265625,279.90150117456267L980.10052734375,282.63662918207757L981.6787890625,325.0622486169719L983.2570507812501,279.8469357485111L984.8353125,310.6626743523932L986.41357421875,286.4860987623916L987.9918359375,284.7090465706307L989.5700976562499,328.4425116418072L991.148359375,362.3288633960898L992.72662109375,284.3915607446562L994.3048828125,275.97107440289795L995.88314453125,227.16316145452564L997.4614062500001,271.40422117757475L999.03966796875,264.951227490781L1000.6179296875,297.35331017530257L1002.1961914062499,260.02318191549693L1003.774453125,282.920400367986L1005.35271484375,276.9018710842291L1006.9309765625,304.6077591829931L1008.50923828125,286.32621695612295L1010.0875000000001,272.2809062154009L1011.66576171875,293.6362866247966L1013.2440234375,264.208974256826L1014.8222851562499,256.09579248803664L1016.400546875,260.21823544855624L1017.97880859375,248.59450418952267L1019.5570703125,304.4191823351375L1021.13533203125,329.5444974854317L1022.7135937500001,287.6722254724187L1024.29185546875,296.9617237621851L1025.8701171875,277.9288402600847L1027.44837890625,290.36103631664577L1029.026640625,287.95352448423387L1030.60490234375,286.13450390408497L1032.1831640625,288.40423786538815L1033.76142578125,296.35468510589527L1035.3396874999999,280.51811006280616L1036.91794921875,331.83878452445174L1038.4962109375,269.4199709136883L1040.07447265625,358.8820227847542L1041.652734375,293.6856163507982L1043.23099609375,272.72793700343647L1044.8092578125,321.18564002716266L1046.38751953125,365.323232776338L1047.96578125,325.4707681264117L1049.54404296875,265.0542824504317L1051.1223046875,251.8278158434934L1052.70056640625,323.480687779345L1054.278828125,297.38666989084925L1055.8570898437501,334.01907709344573L1057.4353515625,300.7692724490183L1059.01361328125,318.10562446340253L1060.591875,242.35414124513744L1062.17013671875,293.7842843245589L1063.7483984375,259.53980566248765L1065.32666015625,281.11267558967296L1066.904921875,282.03069622986294L1068.48318359375,278.7890639178574L1070.0614453125,272.47022135127327L1071.63970703125,323.453011108022L1073.21796875,275.8098709485614L1074.7962304687499,282.4239900921351L1076.3744921875,260.60876547100565L1077.95275390625,310.3732112623284L1079.531015625,296.2301142699554L1081.10927734375,327.71042973806436L1082.6875390625,281.6615376236345L1084.26580078125,278.30822376478056L1085.8440625,333.8462771975438L1087.42232421875,299.3958179864476L1089.0005859375,294.33589207107553L1090.57884765625,274.714792783994L1092.157109375,336.9451655125983L1093.73537109375,256.1882825670077L1095.3136328125001,322.2204935366393L1096.89189453125,312.37978493499025L1098.47015625,272.82654778030997L1100.04841796875,295.4591735167153L1101.6266796875,288.6299075595447L1103.20494140625,281.0813614705677L1104.46755078125,326.67219824799525" style="fill: none;" fill="none"></path></g></g></g></g></g></g><g transform="translate(20, 377)" clip-path="url(#clip_1)"><clipPath id="clip_1"><rect width="1262" height="23"></rect></clipPath><g><g><line x1="0" y1="0" x2="0" y2="5" style="visibility: inherit;" fill="rgb(0, 0, 0)" stroke="rgb(204, 204, 204)" stroke-width="1px"></line><line x1="157.826171875" y1="0" x2="157.826171875" y2="5" style="visibility: inherit;" fill="rgb(0, 0, 0)" stroke="rgb(204, 204, 204)" stroke-width="1px"></line><line x1="315.65234375" y1="0" x2="315.65234375" y2="5" style="visibility: inherit;" fill="rgb(0, 0, 0)" stroke="rgb(204, 204, 204)" stroke-width="1px"></line><line x1="473.478515625" y1="0" x2="473.478515625" y2="5" style="visibility: inherit;" fill="rgb(0, 0, 0)" stroke="rgb(204, 204, 204)" stroke-width="1px"></line><line x1="631.3046875" y1="0" x2="631.3046875" y2="5" style="visibility: inherit;" fill="rgb(0, 0, 0)" stroke="rgb(204, 204, 204)" stroke-width="1px"></line><line x1="789.130859375" y1="0" x2="789.130859375" y2="5" style="visibility: inherit;" fill="rgb(0, 0, 0)" stroke="rgb(204, 204, 204)" stroke-width="1px"></line><line x1="946.95703125" y1="0" x2="946.95703125" y2="5" style="visibility: inherit;" fill="rgb(0, 0, 0)" stroke="rgb(204, 204, 204)" stroke-width="1px"></line><line x1="1104.783203125" y1="0" x2="1104.783203125" y2="5" style="visibility: inherit;" fill="rgb(0, 0, 0)" stroke="rgb(204, 204, 204)" stroke-width="1px"></line><line x1="1262.609375" y1="0" x2="1262.609375" y2="5" style="visibility: inherit;" fill="rgb(0, 0, 0)" stroke="rgb(204, 204, 204)" stroke-width="1px"></line></g><g transform="translate(0, 8)"><text x="0" y="0" dx="0em" dy="0.95em" style="text-anchor: middle; visibility: hidden; font-family: Roboto, sans-serif; font-size: 12px; font-weight: 200;" fill="rgb(255, 255, 255)" stroke="none" stroke-width="1px">-500</text><text x="157.826171875" y="0" dx="0em" dy="0.95em" style="text-anchor: middle; visibility: inherit; font-family: Roboto, sans-serif; font-size: 12px; font-weight: 200;" fill="rgb(255, 255, 255)" stroke="none" stroke-width="1px">0</text><text x="315.65234375" y="0" dx="0em" dy="0.95em" style="text-anchor: middle; visibility: inherit; font-family: Roboto, sans-serif; font-size: 12px; font-weight: 200;" fill="rgb(255, 255, 255)" stroke="none" stroke-width="1px">500</text><text x="473.478515625" y="0" dx="0em" dy="0.95em" style="text-anchor: middle; visibility: inherit; font-family: Roboto, sans-serif; font-size: 12px; font-weight: 200;" fill="rgb(255, 255, 255)" stroke="none" stroke-width="1px">1k</text><text x="631.3046875" y="0" dx="0em" dy="0.95em" style="text-anchor: middle; visibility: inherit; font-family: Roboto, sans-serif; font-size: 12px; font-weight: 200;" fill="rgb(255, 255, 255)" stroke="none" stroke-width="1px">1.5k</text><text x="789.130859375" y="0" dx="0em" dy="0.95em" style="text-anchor: middle; visibility: inherit; font-family: Roboto, sans-serif; font-size: 12px; font-weight: 200;" fill="rgb(255, 255, 255)" stroke="none" stroke-width="1px">2k</text><text x="946.95703125" y="0" dx="0em" dy="0.95em" style="text-anchor: middle; visibility: inherit; font-family: Roboto, sans-serif; font-size: 12px; font-weight: 200;" fill="rgb(255, 255, 255)" stroke="none" stroke-width="1px">2.5k</text><text x="1104.783203125" y="0" dx="0em" dy="0.95em" style="text-anchor: middle; visibility: inherit; font-family: Roboto, sans-serif; font-size: 12px; font-weight: 200;" fill="rgb(255, 255, 255)" stroke="none" stroke-width="1px">3k</text><text x="1262.609375" y="0" dx="0em" dy="0.95em" style="text-anchor: middle; visibility: hidden; font-family: Roboto, sans-serif; font-size: 12px; font-weight: 200;" fill="rgb(255, 255, 255)" stroke="none" stroke-width="1px">3.5k</text></g><line x1="0" y1="0" x2="1262.609375" y2="0" fill="rgb(0, 0, 0)" stroke="rgb(204, 204, 204)" stroke-width="1px"></line></g></g></g></g></svg>