<svg viewBox="0 0 1283 400" xmlns="http://www.w3.org/2000/svg"><g><g><g><g><g><line x1="72.34375" y1="377" x2="67.34375" y2="377" style="visibility: inherit;" fill="rgb(0, 0, 0)" stroke="rgb(204, 204, 204)" stroke-width="1px"></line><line x1="72.34375" y1="350.07142857142856" x2="67.34375" y2="350.07142857142856" style="visibility: inherit;" fill="rgb(0, 0, 0)" stroke="rgb(204, 204, 204)" stroke-width="1px"></line><line x1="72.34375" y1="323.1428571428571" x2="67.34375" y2="323.1428571428571" style="visibility: inherit;" fill="rgb(0, 0, 0)" stroke="rgb(204, 204, 204)" stroke-width="1px"></line><line x1="72.34375" y1="296.2142857142857" x2="67.34375" y2="296.2142857142857" style="visibility: inherit;" fill="rgb(0, 0, 0)" stroke="rgb(204, 204, 204)" stroke-width="1px"></line><line x1="72.34375" y1="269.2857142857143" x2="67.34375" y2="269.2857142857143" style="visibility: inherit;" fill="rgb(0, 0, 0)" stroke="rgb(204, 204, 204)" stroke-width="1px"></line><line x1="72.34375" y1="242.35714285714283" x2="67.34375" y2="242.35714285714283" style="visibility: inherit;" fill="rgb(0, 0, 0)" stroke="rgb(204, 204, 204)" stroke-width="1px"></line><line x1="72.34375" y1="215.42857142857142" x2="67.34375" y2="215.42857142857142" style="visibility: inherit;" fill="rgb(0, 0, 0)" stroke="rgb(204, 204, 204)" stroke-width="1px"></line><line x1="72.34375" y1="188.49999999999997" x2="67.34375" y2="188.49999999999997" style="visibility: inherit;" fill="rgb(0, 0, 0)" stroke="rgb(204, 204, 204)" stroke-width="1px"></line><line x1="72.34375" y1="161.57142857142858" x2="67.34375" y2="161.57142857142858" style="visibility: inherit;" fill="rgb(0, 0, 0)" stroke="rgb(204, 204, 204)" stroke-width="1px"></line><line x1="72.34375" y1="134.64285714285714" x2="67.34375" y2="134.64285714285714" style="visibility: inherit;" fill="rgb(0, 0, 0)" stroke="rgb(204, 204, 204)" stroke-width="1px"></line><line x1="72.34375" y1="107.71428571428567" x2="67.34375" y2="107.71428571428567" style="visibility: inherit;" fill="rgb(0, 0, 0)" stroke="rgb(204, 204, 204)" stroke-width="1px"></line><line x1="72.34375" y1="80.78571428571425" x2="67.34375" y2="80.78571428571425" style="visibility: inherit;" fill="rgb(0, 0, 0)" stroke="rgb(204, 204, 204)" stroke-width="1px"></line><line x1="72.34375" y1="53.85714285714283" x2="67.34375" y2="53.85714285714283" style="visibility: inherit;" fill="rgb(0, 0, 0)" stroke="rgb(204, 204, 204)" stroke-width="1px"></line><line x1="72.34375" y1="26.928571428571374" x2="67.34375" y2="26.928571428571374" style="visibility: inherit;" fill="rgb(0, 0, 0)" stroke="rgb(204, 204, 204)" stroke-width="1px"></line></g><g transform="translate(62.34375, 0)"><text x="0" y="377" dx="0em" dy="0.3em" style="text-anchor: end; visibility: hidden; font-family: Roboto, sans-serif; font-size: 12px; font-weight: 200;" fill="rgb(255, 255, 255)" stroke="none" stroke-width="1px">-5e-6</text><text x="0" y="350.07142857142856" dx="0em" dy="0.3em" style="text-anchor: end; visibility: inherit; font-family: Roboto, sans-serif; font-size: 12px; font-weight: 200;" fill="rgb(255, 255, 255)" stroke="none" stroke-width="1px">0</text><text x="0" y="323.1428571428571" dx="0em" dy="0.3em" style="text-anchor: end; visibility: inherit; font-family: Roboto, sans-serif; font-size: 12px; font-weight: 200;" fill="rgb(255, 255, 255)" stroke="none" stroke-width="1px">5e-6</text><text x="0" y="296.2142857142857" dx="0em" dy="0.3em" style="text-anchor: end; visibility: inherit; font-family: Roboto, sans-serif; font-size: 12px; font-weight: 200;" fill="rgb(255, 255, 255)" stroke="none" stroke-width="1px">1e-5</text><text x="0" y="269.2857142857143" dx="0em" dy="0.3em" style="text-anchor: end; visibility: inherit; font-family: Roboto, sans-serif; font-size: 12px; font-weight: 200;" fill="rgb(255, 255, 255)" stroke="none" stroke-width="1px">1.5e-5</text><text x="0" y="242.35714285714283" dx="0em" dy="0.3em" style="text-anchor: end; visibility: inherit; font-family: Roboto, sans-serif; font-size: 12px; font-weight: 200;" fill="rgb(255, 255, 255)" stroke="none" stroke-width="1px">2e-5</text><text x="0" y="215.42857142857142" dx="0em" dy="0.3em" style="text-anchor: end; visibility: inherit; font-family: Roboto, sans-serif; font-size: 12px; font-weight: 200;" fill="rgb(255, 255, 255)" stroke="none" stroke-width="1px">2.5e-5</text><text x="0" y="188.49999999999997" dx="0em" dy="0.3em" style="text-anchor: end; visibility: inherit; font-family: Roboto, sans-serif; font-size: 12px; font-weight: 200;" fill="rgb(255, 255, 255)" stroke="none" stroke-width="1px">3e-5</text><text x="0" y="161.57142857142858" dx="0em" dy="0.3em" style="text-anchor: end; visibility: inherit; font-family: Roboto, sans-serif; font-size: 12px; font-weight: 200;" fill="rgb(255, 255, 255)" stroke="none" stroke-width="1px">3.5e-5</text><text x="0" y="134.64285714285714" dx="0em" dy="0.3em" style="text-anchor: end; visibility: inherit; font-family: Roboto, sans-serif; font-size: 12px; font-weight: 200;" fill="rgb(255, 255, 255)" stroke="none" stroke-width="1px">4e-5</text><text x="0" y="107.71428571428567" dx="0em" dy="0.3em" style="text-anchor: end; visibility: inherit; font-family: Roboto, sans-serif; font-size: 12px; font-weight: 200;" fill="rgb(255, 255, 255)" stroke="none" stroke-width="1px">4.5e-5</text><text x="0" y="80.78571428571425" dx="0em" dy="0.3em" style="text-anchor: end; visibility: inherit; font-family: Roboto, sans-serif; font-size: 12px; font-weight: 200;" fill="rgb(255, 255, 255)" stroke="none" stroke-width="1px">5e-5</text><text x="0" y="53.85714285714283" dx="0em" dy="0.3em" style="text-anchor: end; visibility: inherit; font-family: Roboto, sans-serif; font-size: 12px; font-weight: 200;" fill="rgb(255, 255, 255)" stroke="none" stroke-width="1px">5.5e-5</text><text x="0" y="26.928571428571374" dx="0em" dy="0.3em" style="text-anchor: end; visibility: inherit; font-family: Roboto, sans-serif; font-size: 12px; font-weight: 200;" fill="rgb(255, 255, 255)" stroke="none" stroke-width="1px">6e-5</text></g><line x1="72.34375" y1="0" x2="72.34375" y2="377" fill="rgb(0, 0, 0)" stroke="rgb(204, 204, 204)" stroke-width="1px"></line></g></g><g transform="translate(72, 0)" clip-path="url(#clip_0)"><clipPath id="clip_0"><rect width="1210" height="377"></rect></clipPath><g><g><g><line x1="0" y1="0" x2="0" y2="377" fill="rgb(0, 0, 0)" stroke="rgb(189, 189, 189)" stroke-width="1px" opacity="0.25"></line><line x1="86.47544642857143" y1="0" x2="86.47544642857143" y2="377" fill="rgb(0, 0, 0)" stroke="rgb(189, 189, 189)" stroke-width="1px" opacity="0.25"></line><line x1="172.95089285714286" y1="0" x2="172.95089285714286" y2="377" fill="rgb(0, 0, 0)" stroke="rgb(189, 189, 189)" stroke-width="1px" opacity="0.25"></line><line x1="259.4263392857143" y1="0" x2="259.4263392857143" y2="377" fill="rgb(0, 0, 0)" stroke="rgb(189, 189, 189)" stroke-width="1px" opacity="0.25"></line><line x1="345.9017857142857" y1="0" x2="345.9017857142857" y2="377" fill="rgb(0, 0, 0)" stroke="rgb(189, 189, 189)" stroke-width="1px" opacity="0.25"></line><line x1="432.37723214285717" y1="0" x2="432.37723214285717" y2="377" fill="rgb(0, 0, 0)" stroke="rgb(189, 189, 189)" stroke-width="1px" opacity="0.25"></line><line x1="518.8526785714286" y1="0" x2="518.8526785714286" y2="377" fill="rgb(0, 0, 0)" stroke="rgb(189, 189, 189)" stroke-width="1px" opacity="0.25"></line><line x1="605.328125" y1="0" x2="605.328125" y2="377" fill="rgb(0, 0, 0)" stroke="rgb(189, 189, 189)" stroke-width="1px" opacity="0.25"></line><line x1="691.8035714285714" y1="0" x2="691.8035714285714" y2="377" fill="rgb(0, 0, 0)" stroke="rgb(189, 189, 189)" stroke-width="1px" opacity="0.25"></line><line x1="778.2790178571429" y1="0" x2="778.2790178571429" y2="377" fill="rgb(0, 0, 0)" stroke="rgb(189, 189, 189)" stroke-width="1px" opacity="0.25"></line><line x1="864.7544642857143" y1="0" x2="864.7544642857143" y2="377" fill="rgb(0, 0, 0)" stroke="rgb(189, 189, 189)" stroke-width="1px" opacity="0.25"></line><line x1="951.2299107142857" y1="0" x2="951.2299107142857" y2="377" fill="rgb(0, 0, 0)" stroke="rgb(189, 189, 189)" stroke-width="1px" opacity="0.25"></line><line x1="1037.705357142857" y1="0" x2="1037.705357142857" y2="377" fill="rgb(0, 0, 0)" stroke="rgb(189, 189, 189)" stroke-width="1px" opacity="0.25"></line><line x1="1124.1808035714287" y1="0" x2="1124.1808035714287" y2="377" fill="rgb(0, 0, 0)" stroke="rgb(189, 189, 189)" stroke-width="1px" opacity="0.25"></line><line x1="1210.65625" y1="0" x2="1210.65625" y2="377" fill="rgb(0, 0, 0)" stroke="rgb(189, 189, 189)" stroke-width="1px" opacity="0.25"></line></g><g><line x1="0" y1="377" x2="1210.65625" y2="377" fill="rgb(0, 0, 0)" stroke="rgb(189, 189, 189)" stroke-width="1px" opacity="0.25"></line><line x1="0" y1="350.07142857142856" x2="1210.65625" y2="350.07142857142856" fill="rgb(0, 0, 0)" stroke="rgb(189, 189, 189)" stroke-width="1px" opacity="0.25"></line><line x1="0" y1="323.1428571428571" x2="1210.65625" y2="323.1428571428571" fill="rgb(0, 0, 0)" stroke="rgb(189, 189, 189)" stroke-width="1px" opacity="0.25"></line><line x1="0" y1="296.2142857142857" x2="1210.65625" y2="296.2142857142857" fill="rgb(0, 0, 0)" stroke="rgb(189, 189, 189)" stroke-width="1px" opacity="0.25"></line><line x1="0" y1="269.2857142857143" x2="1210.65625" y2="269.2857142857143" fill="rgb(0, 0, 0)" stroke="rgb(189, 189, 189)" stroke-width="1px" opacity="0.25"></line><line x1="0" y1="242.35714285714283" x2="1210.65625" y2="242.35714285714283" fill="rgb(0, 0, 0)" stroke="rgb(189, 189, 189)" stroke-width="1px" opacity="0.25"></line><line x1="0" y1="215.42857142857142" x2="1210.65625" y2="215.42857142857142" fill="rgb(0, 0, 0)" stroke="rgb(189, 189, 189)" stroke-width="1px" opacity="0.25"></line><line x1="0" y1="188.49999999999997" x2="1210.65625" y2="188.49999999999997" fill="rgb(0, 0, 0)" stroke="rgb(189, 189, 189)" stroke-width="1px" opacity="0.25"></line><line x1="0" y1="161.57142857142858" x2="1210.65625" y2="161.57142857142858" fill="rgb(0, 0, 0)" stroke="rgb(189, 189, 189)" stroke-width="1px" opacity="0.25"></line><line x1="0" y1="134.64285714285714" x2="1210.65625" y2="134.64285714285714" fill="rgb(0, 0, 0)" stroke="rgb(189, 189, 189)" stroke-width="1px" opacity="0.25"></line><line x1="0" y1="107.71428571428567" x2="1210.65625" y2="107.71428571428567" fill="rgb(0, 0, 0)" stroke="rgb(189, 189, 189)" stroke-width="1px" opacity="0.25"></line><line x1="0" y1="80.78571428571425" x2="1210.65625" y2="80.78571428571425" fill="rgb(0, 0, 0)" stroke="rgb(189, 189, 189)" stroke-width="1px" opacity="0.25"></line><line x1="0" y1="53.85714285714283" x2="1210.65625" y2="53.85714285714283" fill="rgb(0, 0, 0)" stroke="rgb(189, 189, 189)" stroke-width="1px" opacity="0.25"></line><line x1="0" y1="26.928571428571374" x2="1210.65625" y2="26.928571428571374" fill="rgb(0, 0, 0)" stroke="rgb(189, 189, 189)" stroke-width="1px" opacity="0.25"></line></g></g></g><g><g><line x1="0" y1="350.07142857142856" x2="1210.65625" y2="350.07142857142856" fill="rgb(0, 0, 0)" stroke="rgb(153, 153, 153)" stroke-width="1.5px"></line></g></g><g><g><line x1="86.47544642857143" y1="0" x2="86.47544642857143" y2="377" fill="rgb(0, 0, 0)" stroke="rgb(153, 153, 153)" stroke-width="1.5px"></line></g></g><g><g><g><g><g><path stroke="rgb(0, 119, 187)" stroke-width="2px" d="M87.34020089285715,339.3000000271952L89.50208705357143,333.91428514279374L89.71827566964286,333.91428514279374L90.36684151785715,328.5285714829619L90.58303013392856,328.5285714829619L92.09635044642857,323.14285782313004L92.3125390625,323.14285782313004L95.12299107142857,317.75714171415893L96.63631138392857,312.3714280543271L96.8525,312.3714280543271L97.06868861607143,312.3714280543271L98.14963169642857,312.3714280543271L99.879140625,306.98571439449523L100.09532924107144,306.98571439449523L100.74389508928572,306.98571439449523L100.96008370535715,306.98571439449523L101.60864955357142,301.5999982855241L101.82483816964285,301.5999982855241L103.12196986607142,301.5999982855241L104.20291294642858,296.2142870748316L105.71623325892858,290.8285709658604L107.87811941964286,285.4428548568893L108.74287388392857,285.4428548568893L109.60762834821429,285.4428548568893L112.63426897321429,274.6714275372256L113.4990234375,274.6714275372256L113.71521205357143,274.6714275372256L114.14758928571429,274.6714275372256L114.57996651785714,269.2857163265331L115.87709821428571,269.2857163265331L117.60660714285714,263.9000002175619L118.038984375,263.9000002175619L118.25517299107143,263.9000002175619L118.90373883928571,263.9000002175619L120.41705915178571,258.5142841085908L121.06562500000001,258.5142841085908L121.49800223214285,253.12856799961963L121.93037946428572,253.12856799961963L123.44369977678572,247.74286168720573L123.65988839285714,247.74286168720573L124.74083147321429,247.74286168720573L126.25415178571428,242.35714557823457L126.47034040178572,242.35714557823457L126.68652901785715,242.35714557823457L127.76747209821428,242.35714557823457L127.98366071428572,236.97142946926346L130.36173549107144,231.58571336029232L130.79411272321428,231.58571336029232L132.09124441964286,231.58571336029232L132.5236216517857,226.19999725132115L132.95599888392857,226.19999725132115L134.90169642857143,220.81428114234998L135.98263950892857,220.81428114234998L139.22546875,210.04285872096492L139.4416573660714,210.04285872096492L142.252109375,204.6571426119938L142.4682979910714,204.6571426119938L142.68448660714284,204.6571426119938L145.06256138392857,199.27142650302267L145.71112723214284,199.27142650302267L146.57588169642855,193.8857103940515L147.4406361607143,193.8857103940515L148.08920200892857,188.5000040816376L148.73776785714287,188.5000040816376L149.1701450892857,188.5000040816376L150.25108816964286,183.11428797266643L150.6834654017857,183.11428797266643L150.89965401785713,183.11428797266643L153.06154017857142,177.72857186369532L153.92629464285713,177.72857186369532L154.79104910714287,172.34285575472416L155.22342633928574,172.34285575472416L155.43961495535714,172.34285575472416L156.08818080357142,172.34285575472416L159.33101004464288,161.57142353678185L161.06051897321427,161.57142353678185L161.2767075892857,161.57142353678185L163.87097098214286,150.7999913188396L165.16810267857142,150.7999913188396L165.38429129464285,150.7999913188396L165.60047991071428,150.7999913188396L168.19474330357144,140.0285786940117L169.92425223214283,140.0285786940117L170.78900669642857,134.6428625850406L171.22138392857144,134.6428625850406L172.30232700892856,134.6428625850406L173.3832700892857,129.25714647606947L173.81564732142857,129.25714647606947L176.1937220982143,123.8714303670983L177.49085379464285,118.48571425812717L177.7070424107143,118.48571425812717L180.7336830357143,113.09999814915601L180.9498716517857,113.09999814915601L181.38224888392858,113.09999814915601L182.24700334821426,107.71428204018488L182.46319196428573,107.71428204018488L182.89556919642857,107.71428204018488L184.19270089285715,102.32856593121372L185.05745535714286,102.32856593121372L186.1383984375,96.9428498222426L187.0031529017857,96.9428498222426L187.65171875,96.9428498222426L188.08409598214286,96.9428498222426L188.9488504464286,91.55713371327143L189.1650390625,91.55713371327143L190.24598214285714,91.55713371327143L190.46217075892858,91.55713371327143L191.75930245535713,86.17143719741475L192.1916796875,86.17143719741475L193.27262276785714,80.78572108844358L196.731640625,75.40000497947246L197.16401785714288,75.40000497947246L197.3802064732143,70.01428887050129L197.5963950892857,70.01428887050129L198.2449609375,70.01428887050129L198.67733816964287,70.01428887050129L201.70397879464286,59.24285665255904L201.9201674107143,59.24285665255904L202.35254464285714,59.24285665255904L202.784921875,59.24285665255904L203.21729910714285,59.24285665255904L204.08205357142856,53.857140543587875L204.51443080357143,53.857140543587875L205.37918526785714,53.857140543587875L205.8115625,53.857140543587875L206.67631696428572,48.47142443461675L207.9734486607143,48.47142443461675L208.40582589285717,43.085708325645584L209.27058035714285,43.085708325645584L212.72959821428572,37.69999221667446L212.94578683035715,32.31427610770329L213.59435267857143,32.31427610770329L214.0267299107143,32.31427610770329L214.2429185267857,32.31427610770329L214.89148437499998,32.31427610770329L215.32386160714285,26.928579591846614L217.70193638392857,26.928579591846614L218.7828794642857,26.928579591846614L218.99906808035712,26.928579591846614L220.72857700892857,26.928579591846614L220.944765625,26.928579591846614L222.02570870535715,26.928579591846614L222.24189732142858,26.928579591846614L223.10665178571426,26.928579591846614L223.97140625,26.928579591846614L225.26853794642858,26.928579591846614L225.4847265625,26.928579591846614L226.56566964285713,26.928579591846614L226.998046875,26.928579591846614L228.5113671875,26.928579591846614L228.94374441964285,26.928579591846614L230.45706473214287,26.928579591846614L232.1865736607143,26.928579591846614L232.40276227678572,26.928579591846614L233.26751674107143,26.928579591846614L234.13227120535714,26.928579591846614L235.86178013392856,26.928579591846614L236.29415736607143,26.928579591846614L239.7531752232143,26.928579591846614L242.13125000000002,26.928579591846614L242.56362723214284,26.928579591846614L242.9960044642857,26.928579591846614L243.21219308035714,26.928579591846614L243.6445703125,26.928579591846614L243.86075892857144,26.928579591846614L244.29313616071428,26.928579591846614L244.50932477678572,26.928579591846614L244.72551339285715,26.928579591846614L245.8064564732143,26.928579591846614L247.10358816964285,26.928579591846614L251.42736049107143,26.928579591846614L251.64354910714286,26.928579591846614L253.15686941964285,26.928579591846614L253.80543526785712,26.928579591846614L254.02162388392858,26.928579591846614L254.45400111607142,26.928579591846614L254.8863783482143,26.928579591846614L255.31875558035713,26.928579591846614L256.6158872767857,26.928579591846614L260.0749051339286,26.928579591846614L260.29109375,26.928579591846614L260.7234709821429,26.928579591846614L261.37203683035716,26.928579591846614L263.1015457589286,26.928579591846614L263.317734375,26.928579591846614L265.26343191964287,26.928579591846614L266.1281863839286,26.928579591846614L266.7767522321429,26.928579591846614L267.8576953125,26.928579591846614L268.5062611607143,26.928579591846614L268.9386383928571,26.928579591846614L271.5329017857143,26.928579591846614L272.18146763392855,26.928579591846614L272.6138448660714,26.928579591846614L273.47859933035716,26.928579591846614L274.5595424107143,26.928579591846614L277.36999441964286,26.928579591846614L277.8023716517857,26.928579591846614L279.0995033482143,26.928579591846614L279.74806919642856,26.928579591846614L280.18044642857143,26.928579591846614L281.04520089285717,26.928579591846614L281.2613895089286,26.928579591846614L282.5585212053572,26.928579591846614L286.8822935267857,26.928579591846614L287.31467075892857,26.928579591846614L287.74704799107144,26.928579591846614L289.90893415178573,26.928579591846614L291.4222544642857,26.928579591846614L292.7193861607143,26.928579591846614L294.4488950892857,26.928579591846614L297.9079129464286,26.928579591846614L298.5564787946429,26.928579591846614L299.42123325892857,26.928579591846614L300.7183649553571,26.928579591846614L301.1507421875,26.928579591846614L302.23168526785713,26.928579591846614L302.8802511160714,26.928579591846614L303.0964397321428,26.928579591846614L303.31262834821433,26.928579591846614L305.690703125,26.928579591846614L307.2040234375,26.928579591846614L308.0687779017857,26.928579591846614L308.5011551339286,26.928579591846614L310.23066406249995,26.928579591846614L310.4468526785715,26.928579591846614L314.5544363839286,26.928579591846614L315.41919084821427,26.928579591846614L317.5810770089286,26.928579591846614L317.797265625,26.928579591846614L318.22964285714284,26.928579591846614L319.0943973214286,26.928579591846614L321.04009486607146,26.928579591846614L323.6343582589286,26.928579591846614L324.49911272321424,26.928579591846614L324.93148995535716,26.928579591846614L325.5800558035714,26.928579591846614L326.0124330357143,26.928579591846614L326.4448102678571,26.928579591846614L328.6066964285714,26.928579591846614L328.8228850446429,26.928579591846614L329.47145089285715,26.928579591846614L329.68763950892856,26.928579591846614L330.33620535714283,26.928579591846614L330.98477120535716,26.928579591846614L331.4171484375,26.928579591846614L332.4980915178571,26.928579591846614L334.0114118303572,26.928579591846614L335.0923549107143,26.928579591846614L335.30854352678574,26.928579591846614L337.4704296875,26.928579591846614L337.90280691964284,26.928579591846614L340.0646930803572,26.928579591846614L340.4970703125,26.928579591846614L340.7132589285714,26.928579591846614L342.2265792410715,26.928579591846614L343.30752232142856,26.928579591846614L344.1722767857143,26.928579591846614L344.3884654017857,26.928579591846614L346.7665401785714,26.928579591846614L348.4960491071429,26.928579591846614L349.3608035714286,26.928579591846614L350.4417466517857,26.928579591846614L350.8741238839286,26.928579591846614L351.7388783482143,26.928579591846614L354.9817075892857,26.928579591846614L355.4140848214286,26.928579591846614L356.27883928571424,26.928579591846614L356.49502790178576,26.928579591846614L356.71121651785717,26.928579591846614L357.14359375,26.928579591846614L357.7921595982143,26.928579591846614L358.6569140625,26.928579591846614L359.95404575892854,26.928579591846614L360.8188002232143,26.928579591846614L361.8997433035714,26.928579591846614L363.196875,26.928579591846614L363.8454408482143,26.928579591846614L364.92638392857145,26.928579591846614L365.57494977678573,26.928579591846614L366.6558928571429,26.928579591846614L366.8720814732143,26.928579591846614L367.52064732142856,26.928579591846614L368.3854017857143,26.928579591846614L370.3310993303571,26.928579591846614L371.8444196428572,26.928579591846614L372.4929854910714,26.928579591846614L372.70917410714287,26.928579591846614L374.6548716517857,26.928579591846614L376.81675781250004,26.928579591846614L377.46532366071426,26.928579591846614L378.7624553571428,26.928579591846614L380.0595870535715,26.928579591846614L380.92434151785716,26.928579591846614L383.30241629464285,26.928579591846614L383.51860491071426,26.928579591846614L384.383359375,26.928579591846614L385.68049107142855,26.928579591846614L386.5452455357143,26.928579591846614L387.1938113839286,26.928579591846614L392.3823381696429,26.928579591846614L395.40897879464285,26.928579591846614L396.489921875,26.928579591846614L396.92229910714286,26.928579591846614L397.13848772321427,26.928579591846614L397.35467633928573,26.928579591846614L397.57086495535714,26.928579591846614L399.3003738839286,26.928579591846614L401.0298828125,26.928579591846614L401.2460714285714,26.928579591846614L401.6784486607143,26.928579591846614L401.8946372767857,26.928579591846614L404.7050892857143,26.928579591846614L405.13746651785715,26.928579591846614L407.5155412946429,26.928579591846614L408.1641071428571,26.928579591846614L409.02886160714286,26.928579591846614L409.8936160714286,26.928579591846614L410.7583705357143,26.928579591846614L412.2716908482143,26.928579591846614L412.4878794642857,26.928579591846614L412.70406808035716,26.928579591846614L413.1364453125,26.928579591846614L413.7850111607143,26.928579591846614L416.3792745535714,26.928579591846614L417.67640624999996,26.928579591846614L418.3249720982143,26.928579591846614L418.5411607142857,26.928579591846614L420.703046875,26.928579591846614L421.35161272321426,26.928579591846614L423.72968749999995,26.928579591846614L424.3782533482143,26.928579591846614L425.0268191964286,26.928579591846614L426.1077622767857,26.928579591846614L426.756328125,26.928579591846614L428.70202566964286,26.928579591846614L431.0801004464286,26.928579591846614L432.16104352678576,26.928579591846614L432.5934207589286,26.928579591846614L437.78194754464283,26.928579591846614L439.5114564732143,26.928579591846614L439.9438337053571,26.928579591846614L440.59239955357145,26.928579591846614L441.88953125,26.928579591846614L442.1057198660714,26.928579591846614L443.6190401785714,26.928579591846614L445.3485491071429,26.928579591846614L446.2133035714285,26.928579591846614L447.07805803571426,26.928579591846614L447.9428125,26.928579591846614L448.5913783482143,26.928579591846614L449.02375558035715,26.928579591846614L450.3208872767857,26.928579591846614L450.75326450892857,26.928579591846614L452.2665848214285,26.928579591846614L453.99609375,26.928579591846614L454.4284709821428,26.928579591846614L455.07703683035714,26.928579591846614L455.50941406249996,26.928579591846614L455.7256026785715,26.928579591846614L455.9417912946429,26.928579591846614L457.45511160714284,26.928579591846614L458.3198660714286,26.928579591846614L458.5360546875,26.928579591846614L460.049375,26.928579591846614L461.7788839285715,26.928579591846614L461.9950725446429,26.928579591846614L462.8598270089286,26.928579591846614L463.29220424107143,26.928579591846614L465.2379017857143,26.928579591846614L467.61597656249995,26.928579591846614L469.77786272321424,26.928579591846614L470.21023995535717,26.928579591846614L471.7235602678571,26.928579591846614L471.9397488839286,26.928579591846614L472.80450334821427,26.928579591846614L473.45306919642854,26.928579591846614L474.3178236607143,26.928579591846614L475.182578125,26.928579591846614L479.07397321428573,26.928579591846614L479.9387276785714,26.928579591846614L480.80348214285715,26.928579591846614L481.4520479910714,26.928579591846614L482.7491796875,26.928579591846614L483.1815569196429,26.928579591846614L485.12725446428567,26.928579591846614L485.9920089285714,26.928579591846614L487.9377064732143,26.928579591846614L489.01864955357144,26.928579591846614L489.23483816964284,26.928579591846614L489.4510267857143,26.928579591846614L492.91004464285714,26.928579591846614L493.9909877232143,26.928579591846614L495.5043080357143,26.928579591846614L496.3690625,26.928579591846614L497.01762834821426,26.928579591846614L498.3147600446428,26.928579591846614L498.53094866071433,26.928579591846614L498.74713727678574,26.928579591846614L499.39570312499995,26.928579591846614L500.4766462053571,26.928579591846614L501.7737779017857,26.928579591846614L501.98996651785717,26.928579591846614L504.1518526785714,26.928579591846614L504.36804129464286,26.928579591846614L505.23279575892855,26.928579591846614L505.44898437499995,26.928579591846614L506.3137388392857,26.928579591846614L506.7461160714286,26.928579591846614L508.04324776785717,26.928579591846614L508.6918136160714,26.928579591846614L509.5565680803571,26.928579591846614L509.7727566964286,26.928579591846614L510.20513392857146,26.928579591846614L510.42132254464286,26.928579591846614L510.85369977678573,26.928579591846614L513.2317745535714,26.928579591846614L513.6641517857142,26.928579591846614L515.3936607142857,26.928579591846614L515.6098493303572,26.928579591846614L516.2584151785715,26.928579591846614L523.8250167410714,26.928579591846614L525.7707142857142,26.928579591846614L525.9869029017857,26.928579591846614L527.5002232142857,26.928579591846614L528.3649776785714,26.928579591846614L529.8782979910715,26.928579591846614L530.0944866071428,26.928579591846614L532.68875,26.928579591846614L533.3373158482143,26.928579591846614L535.2830133928571,26.928579591846614L537.4448995535714,26.928579591846614L539.1744084821428,26.928579591846614L539.3905970982144,26.928579591846614L539.8229743303572,26.928579591846614L540.4715401785714,26.928579591846614L541.768671875,26.928579591846614L542.8496149553572,26.928579591846614L543.0658035714285,26.928579591846614L543.9305580357143,26.928579591846614L544.1467466517857,26.928579591846614L545.6600669642858,26.928579591846614L547.6057645089286,26.928579591846614L548.2543303571429,26.928579591846614L550.4162165178572,26.928579591846614L552.5781026785714,26.928579591846614L554.7399888392857,26.928579591846614L558.6313839285714,26.928579591846614L560.1447042410714,26.928579591846614L561.6580245535714,26.928579591846614L562.0904017857143,26.928579591846614L563.3875334821429,26.928579591846614L563.8199107142857,26.928579591846614L564.4684765625,26.928579591846614L564.6846651785714,26.928579591846614L565.981796875,26.928579591846614L566.8465513392857,26.928579591846614L569.2246261160715,26.928579591846614L569.8731919642856,26.928579591846614L570.9541350446428,26.928579591846614L573.7645870535714,26.928579591846614L578.9531138392857,26.928579591846614L583.0606975446428,26.928579591846614L584.141640625,26.928579591846614L584.3578292410714,26.928579591846614L586.5197154017858,26.928579591846614L587.16828125,26.928579591846614L588.2492243303572,26.928579591846614L589.9787332589286,26.928579591846614L590.6272991071429,26.928579591846614L592.1406194196428,26.928579591846614L592.3568080357143,26.928579591846614L592.5729966517857,26.928579591846614L593.0053738839285,26.928579591846614L594.3025055803571,26.928579591846614L595.8158258928572,26.928579591846614L598.8424665178571,26.928579591846614L601.2205412946429,26.928579591846614L602.301484375,26.928579591846614L603.1662388392857,26.928579591846614L603.3824274553572,26.928579591846614L604.0309933035714,26.928579591846614L604.2471819196429,26.928579591846614L610.5166517857143,26.928579591846614L611.1652176339285,26.928579591846614L612.0299720982143,26.928579591846614L612.2461607142857,26.928579591846614L613.3271037946428,26.928579591846614L613.5432924107142,26.928579591846614L616.1375558035714,26.928579591846614L617.8670647321428,26.928579591846614L618.2994419642856,26.928579591846614L618.5156305803572,26.928579591846614L621.1098939732143,26.928579591846614L622.8394029017857,26.928579591846614L624.5689118303571,26.928579591846614L625.6498549107143,26.928579591846614L626.0822321428572,26.928579591846614L626.7307979910714,26.928579591846614L627.1631752232142,26.928579591846614L627.3793638392857,26.928579591846614L628.8926841517857,26.928579591846614L629.7574386160713,26.928579591846614L629.9736272321428,26.928579591846614L630.1898158482144,26.928579591846614L630.6221930803572,26.928579591846614L631.0545703125,26.928579591846614L632.1355133928571,26.928579591846614L632.5678906249999,26.928579591846614L634.2973995535714,26.928579591846614L640.1344921875001,26.928579591846614L640.3506808035714,26.928579591846614L640.7830580357142,26.928579591846614L642.7287555803572,26.928579591846614L642.9449441964285,26.928579591846614L644.4582645089287,26.928579591846614L645.1068303571428,26.928579591846614L645.3230189732143,26.928579591846614L645.9715848214286,26.928579591846614L647.4849051339286,26.928579591846614L647.9172823660714,26.928579591846614L648.9982254464285,26.928579591846614L651.5924888392858,26.928579591846614L651.8086774553572,26.928579591846614L653.5381863839285,26.928579591846614L653.7543750000001,26.928579591846614L655.2676953125,26.928579591846614L655.9162611607143,26.928579591846614L656.1324497767856,26.928579591846614L656.3486383928572,26.928579591846614L656.9972042410715,26.928579591846614L661.1047879464286,26.928579591846614L662.834296875,26.928579591846614L663.0504854910714,26.928579591846614L663.6990513392858,26.928579591846614L665.2123716517857,26.928579591846614L665.8609375000001,26.928579591846614L666.2933147321429,26.928579591846614L666.9418805803572,26.928579591846614L667.8066350446428,26.928579591846614L669.7523325892857,26.928579591846614L671.0494642857143,26.928579591846614L671.91421875,26.928579591846614L672.1304073660714,26.928579591846614L672.9951618303572,26.928579591846614L673.2113504464286,26.928579591846614L673.4275390625,26.928579591846614L674.5084821428571,26.928579591846614L675.5894252232143,26.928579591846614L675.8056138392857,26.928579591846614L676.6703683035714,26.928579591846614L677.7513113839286,26.928579591846614L677.9675000000001,26.928579591846614L678.1836886160714,26.928579591846614L678.8322544642857,26.928579591846614L680.7779520089285,26.928579591846614L680.994140625,26.928579591846614L681.2103292410715,26.928579591846614L682.2912723214287,26.928579591846614L682.5074609375,26.928579591846614L683.3722154017858,26.928579591846614L684.0207812499999,26.928579591846614L684.6693470982143,26.928579591846614L685.1017243303572,26.928579591846614L685.5341015625,26.928579591846614L686.1826674107143,26.928579591846614L687.6959877232143,26.928579591846614L690.2902511160714,26.928579591846614L690.7226283482142,26.928579591846614L693.5330803571428,26.928579591846614L693.7492689732143,26.928579591846614L696.1273437499999,26.928579591846614L698.2892299107142,26.928579591846614L698.7216071428572,26.928579591846614L699.153984375,26.928579591846614L700.4511160714286,26.928579591846614L701.9644363839286,26.928579591846614L702.180625,26.928579591846614L703.261568080357,26.928579591846614L704.1263225446429,26.928579591846614L704.3425111607143,26.928579591846614L705.207265625,26.928579591846614L708.0177176339286,26.928579591846614L708.4500948660715,26.928579591846614L708.666283482143,26.928579591846614L710.6119810267858,26.928579591846614L711.0443582589286,26.928579591846614L711.4767354910714,26.928579591846614L713.2062444196429,26.928579591846614L714.9357533482142,26.928579591846614L715.5843191964286,26.928579591846614L715.8005078125001,26.928579591846614L716.4490736607142,26.928579591846614L716.8814508928572,26.928579591846614L717.0976395089285,26.928579591846614L717.7462053571429,26.928579591846614L719.0433370535715,26.928579591846614L719.9080915178571,26.928579591846614L720.1242801339287,26.928579591846614L723.1509207589286,26.928579591846614L723.7994866071429,26.928579591846614L724.4480524553571,26.928579591846614L725.9613727678571,26.928579591846614L726.6099386160714,26.928579591846614L727.0423158482142,26.928579591846614L728.3394475446429,26.928579591846614L729.4203906250001,26.928579591846614L730.7175223214285,26.928579591846614L731.1498995535715,26.928579591846614L732.6632198660715,26.928579591846614L733.3117857142857,26.928579591846614L733.7441629464286,26.928579591846614L733.9603515624999,26.928579591846614L734.6089174107143,26.928579591846614L736.1222377232142,26.928579591846614L738.0679352678571,26.928579591846614L739.1488783482143,26.928579591846614L740.2298214285714,26.928579591846614L741.3107645089286,26.928579591846614L744.1212165178572,26.928579591846614L744.55359375,26.928579591846614L746.7154799107143,26.928579591846614L748.2288002232142,26.928579591846614L748.8773660714286,26.928579591846614L749.9583091517857,26.928579591846614L751.9040066964286,26.928579591846614L752.1201953125,26.928579591846614L753.4173270089286,26.928579591846614L754.7144587053572,26.928579591846614L755.3630245535713,26.928579591846614L756.2277790178572,26.928579591846614L756.4439676339285,26.928579591846614L756.66015625,26.928579591846614L757.0925334821428,26.928579591846614L757.9572879464287,26.928579591846614L758.6058537946428,26.928579591846614L758.8220424107143,26.928579591846614L759.6867968749999,26.928579591846614L759.9029854910714,26.928579591846614L760.119174107143,26.928579591846614L761.2001171875,26.928579591846614L761.6324944196429,26.928579591846614L763.7943805803571,26.928579591846614L765.3077008928572,26.928579591846614L766.821021205357,26.928579591846614L767.4695870535714,26.928579591846614L771.3609821428571,26.928579591846614L772.4419252232143,26.928579591846614L774.3876227678572,26.928579591846614L775.0361886160714,26.928579591846614L775.4685658482143,26.928579591846614L776.9818861607143,26.928579591846614L777.846640625,26.928579591846614L778.0628292410714,26.928579591846614L779.7923381696429,26.928579591846614L780.6570926339285,26.928579591846614L780.87328125,26.928579591846614L781.5218470982144,26.928579591846614L781.9542243303572,26.928579591846614L783.4675446428571,26.928579591846614L784.332299107143,26.928579591846614L785.1970535714286,26.928579591846614L786.0618080357142,26.928579591846614L786.4941852678572,26.928579591846614L787.7913169642857,26.928579591846614L791.2503348214286,26.928579591846614L791.8989006696429,26.928579591846614L792.5474665178572,26.928579591846614L793.1960323660713,26.928579591846614L793.4122209821429,26.928579591846614L794.4931640625,26.928579591846614L796.2226729910715,26.928579591846614L797.5198046874999,26.928579591846614L798.1683705357143,26.928579591846614L798.3845591517858,26.928579591846614L800.1140680803571,26.928579591846614L801.8435770089286,26.928579591846614L804.654029017857,26.928579591846614L806.1673493303572,26.928579591846614L807.4644810267856,26.928579591846614L808.5454241071428,26.928579591846614L810.9234988839286,26.928579591846614L812.6530078125,26.928579591846614L812.8691964285714,26.928579591846614L813.9501395089286,26.928579591846614L814.3825167410714,26.928579591846614L814.8148939732143,26.928579591846614L815.4634598214286,26.928579591846614L815.8958370535714,26.928579591846614L816.9767801339286,26.928579591846614L817.1929687500001,26.928579591846614L818.9224776785713,26.928579591846614L819.1386662946428,26.928579591846614L819.7872321428572,26.928579591846614L821.3005524553571,26.928579591846614L821.9491183035715,26.928579591846614L822.165306919643,26.928579591846614L822.3814955357143,26.928579591846614L824.3271930803572,26.928579591846614L825.1919475446429,26.928579591846614L826.0567020089285,26.928579591846614L827.5700223214286,26.928579591846614L827.7862109375,26.928579591846614L828.867154017857,26.928579591846614L832.1099832589285,26.928579591846614L832.326171875,26.928579591846614L833.1909263392856,26.928579591846614L833.6233035714287,26.928579591846614L835.1366238839286,26.928579591846614L836.0013783482143,26.928579591846614L837.9470758928571,26.928579591846614L838.1632645089285,26.928579591846614L838.379453125,26.928579591846614L838.5956417410715,26.928579591846614L838.8118303571429,26.928579591846614L839.6765848214286,26.928579591846614L840.1089620535714,26.928579591846614L840.5413392857142,26.928579591846614L841.1899051339286,26.928579591846614L841.8384709821429,26.928579591846614L842.0546595982142,26.928579591846614L842.7032254464285,26.928579591846614L845.0813002232143,26.928579591846614L846.3784319196428,26.928579591846614L847.6755636160714,26.928579591846614L849.6212611607142,26.928579591846614L849.8374497767857,26.928579591846614L850.9183928571429,26.928579591846614L851.5669587053571,26.928579591846614L852.8640904017858,26.928579591846614L853.7288448660714,26.928579591846614L854.593599330357,26.928579591846614L856.3231082589285,26.928579591846614L856.9716741071428,26.928579591846614L858.2688058035715,26.928579591846614L858.4849944196428,26.928579591846614L859.3497488839286,26.928579591846614L860.2145033482143,26.928579591846614L860.8630691964286,26.928579591846614L861.0792578125,26.928579591846614L861.7278236607142,26.928579591846614L863.6735212053571,26.928579591846614L866.2677845982142,26.928579591846614L866.4839732142857,26.928579591846614L866.700161830357,26.928579591846614L866.9163504464286,26.928579591846614L867.5649162946429,26.928579591846614L869.9429910714285,26.928579591846614L875.1315178571429,26.928579591846614L875.7800837053571,26.928579591846614L876.2124609375,26.928579591846614L876.6448381696429,26.928579591846614L877.2934040178571,26.928579591846614L877.72578125,26.928579591846614L878.1581584821428,26.928579591846614L878.8067243303572,26.928579591846614L879.0229129464286,26.928579591846614L882.9143080357143,26.928579591846614L885.0761941964286,26.928579591846614L886.5895145089286,26.928579591846614L887.4542689732142,26.928579591846614L887.6704575892857,26.928579591846614L888.7514006696429,26.928579591846614L888.9675892857143,26.928579591846614L889.6161551339286,26.928579591846614L891.9942299107142,26.928579591846614L892.2104185267857,26.928579591846614L894.8046819196428,26.928579591846614L895.0208705357144,26.928579591846614L895.4532477678572,26.928579591846614L895.6694363839285,26.928579591846614L896.3180022321428,26.928579591846614L896.5341908482143,26.928579591846614L896.7503794642857,26.928579591846614L898.2636997767858,26.928579591846614L898.6960770089286,26.928579591846614L899.1284542410714,26.928579591846614L901.7227176339285,26.928579591846614L902.3712834821429,26.928579591846614L902.5874720982143,26.928579591846614L902.8036607142857,26.928579591846614L903.0198493303571,26.928579591846614L903.8846037946428,26.928579591846614L904.533169642857,26.928579591846614L907.7759988839285,26.928579591846614L908.2083761160715,26.928579591846614L909.5055078125,26.928579591846614L909.9378850446428,26.928579591846614L910.8026395089286,26.928579591846614L911.6673939732143,26.928579591846614L911.8835825892858,26.928579591846614L915.1264118303571,26.928579591846614L917.072109375,26.928579591846614L917.5044866071429,26.928579591846614L917.9368638392857,26.928579591846614L918.5854296875001,26.928579591846614L919.0178069196429,26.928579591846614L919.6663727678572,26.928579591846614L921.6120703125,26.928579591846614L922.2606361607143,26.928579591846614L922.9092020089286,26.928579591846614L927.6653515625,26.928579591846614L928.7462946428572,26.928579591846614L930.0434263392857,26.928579591846614L930.6919921875001,26.928579591846614L931.5567466517857,26.928579591846614L932.8538783482144,26.928579591846614L933.5024441964285,26.928579591846614L933.9348214285715,26.928579591846614L934.3671986607143,26.928579591846614L935.0157645089286,26.928579591846614L935.4481417410715,26.928579591846614L936.0967075892858,26.928579591846614L939.7719140625,26.928579591846614L939.9881026785715,26.928579591846614L940.6366685267857,26.928579591846614L942.366177455357,26.928579591846614L942.5823660714286,26.928579591846614L944.5280636160713,26.928579591846614L944.7442522321429,26.928579591846614L945.8251953125,26.928579591846614L946.0413839285715,26.928579591846614L946.2575725446428,26.928579591846614L946.9061383928571,26.928579591846614L948.2032700892858,26.928579591846614L949.284213169643,26.928579591846614L949.9327790178572,26.928579591846614L951.6622879464285,26.928579591846614L952.5270424107143,26.928579591846614L952.9594196428571,26.928579591846614L954.9051171875,26.928579591846614L955.986060267857,26.928579591846614L957.2831919642857,26.928579591846614L957.4993805803572,26.928579591846614L958.3641350446428,26.928579591846614L958.5803236607143,26.928579591846614L960.0936439732143,26.928579591846614L961.6069642857143,26.928579591846614L962.9040959821428,26.928579591846614L963.5526618303572,26.928579591846614L963.9850390625,26.928579591846614L964.2012276785714,26.928579591846614L965.7145479910714,26.928579591846614L967.0116796875,26.928579591846614L967.4440569196429,26.928579591846614L967.6602455357142,26.928579591846614L968.092622767857,26.928579591846614L968.9573772321429,26.928579591846614L969.8221316964285,26.928579591846614L970.9030747767857,26.928579591846614L971.551640625,26.928579591846614L973.497338169643,26.928579591846614L973.9297154017858,26.928579591846614L974.7944698660714,26.928579591846614L976.0916015625,26.928579591846614L976.7401674107143,26.928579591846614L978.0372991071429,26.928579591846614L980.6315625000001,26.928579591846614L981.4963169642857,26.928579591846614L983.0096372767857,26.928579591846614L983.658203125,26.928579591846614L985.3877120535715,26.928579591846614L986.0362779017858,26.928579591846614L986.4686551339286,26.928579591846614L988.1981640625,26.928579591846614L988.4143526785714,26.928579591846614L989.0629185267857,26.928579591846614L990.3600502232143,26.928579591846614L991.4409933035714,26.928579591846614L994.4676339285714,26.928579591846614L994.6838225446429,26.928579591846614L996.4133314732143,26.928579591846614L997.4942745535715,26.928579591846614L998.7914062499999,26.928579591846614L999.223783482143,26.928579591846614L999.4399720982143,26.928579591846614L1000.7371037946428,26.928579591846614L1002.8989899553571,26.928579591846614L1003.5475558035714,26.928579591846614L1003.9799330357143,26.928579591846614L1004.1961216517858,26.928579591846614L1004.4123102678572,26.928579591846614L1005.2770647321429,26.928579591846614L1007.4389508928572,26.928579591846614L1007.6551395089285,26.928579591846614L1008.0875167410713,26.928579591846614L1010.2494029017857,26.928579591846614L1010.4655915178571,26.928579591846614L1014.1407979910714,26.928579591846614L1015.6541183035715,26.928579591846614L1016.5188727678571,26.928579591846614L1018.4645703125001,26.928579591846614L1019.5455133928572,26.928579591846614L1020.6264564732144,26.928579591846614L1021.9235881696428,26.928579591846614L1023.8692857142858,26.928579591846614L1024.7340401785714,26.928579591846614L1025.5987946428572,26.928579591846614L1026.2473604910713,26.928579591846614L1027.5444921875,26.928579591846614L1028.6254352678573,26.928579591846614L1029.9225669642858,26.928579591846614L1031.003510044643,26.928579591846614L1031.652075892857,26.928579591846614L1031.8682645089286,26.928579591846614L1033.3815848214285,26.928579591846614L1034.678716517857,26.928579591846614L1035.11109375,26.928579591846614L1036.8406026785715,26.928579591846614L1037.705357142857,26.928579591846614L1038.3539229910714,26.928579591846614L1039.0024888392857,26.928579591846614L1039.2186774553572,26.928579591846614L1040.9481863839287,26.928579591846614L1041.3805636160714,26.928579591846614L1043.7586383928572,26.928579591846614L1045.4881473214286,26.928579591846614L1046.7852790178572,26.928579591846614L1047.8662220982144,26.928579591846614L1048.7309765625,26.928579591846614L1050.4604854910715,26.928579591846614L1051.9738058035714,26.928579591846614L1055.4328236607143,26.928579591846614L1056.729955357143,26.928579591846614L1057.5947098214285,26.928579591846614L1060.8375390625,26.928579591846614L1062.1346707589287,26.928579591846614L1062.783236607143,26.928579591846614L1063.2156138392857,26.928579591846614L1064.5127455357144,26.928579591846614L1064.7289341517858,26.928579591846614L1065.3775,26.928579591846614L1066.2422544642857,26.928579591846614L1067.1070089285715,26.928579591846614L1067.3231975446429,26.928579591846614L1067.5393861607142,26.928579591846614L1067.9717633928572,26.928579591846614L1069.2688950892857,26.928579591846614L1070.7822154017856,26.928579591846614L1071.2145926339285,26.928579591846614L1071.6469698660715,26.928579591846614L1072.511724330357,26.928579591846614L1073.1602901785714,26.928579591846614L1073.3764787946427,26.928579591846614L1073.8088560267859,26.928579591846614L1075.538364955357,26.928579591846614L1077.2678738839286,26.928579591846614L1077.7002511160713,26.928579591846614L1080.7268917410715,26.928579591846614L1081.3754575892858,26.928579591846614L1082.0240234375,26.928579591846614L1082.4564006696428,26.928579591846614L1084.1859095982143,26.928579591846614L1085.0506640625,26.928579591846614L1085.6992299107144,26.928579591846614L1086.996361607143,26.928579591846614L1088.9420591517858,26.928579591846614L1090.0230022321427,26.928579591846614L1090.2391908482143,26.928579591846614L1091.1039453125,26.928579591846614L1091.9686997767856,26.928579591846614L1092.1848883928571,26.928579591846614L1092.4010770089287,26.928579591846614L1092.8334542410714,26.928579591846614L1093.9143973214286,26.928579591846614L1094.1305859375,26.928579591846614L1094.3467745535713,26.928579591846614L1096.2924720982144,26.928579591846614L1098.0219810267856,26.928579591846614L1098.8867354910715,26.928579591846614L1099.3191127232142,26.928579591846614L1100.616244419643,26.928579591846614L1102.3457533482144,26.928579591846614L1102.5619419642858,26.928579591846614L1103.8590736607143,26.928579591846614L1104.5076395089286,26.928579591846614L1106.2371484374999,26.928579591846614L1106.4533370535714,26.928579591846614L1107.5342801339286,26.928579591846614L1108.182845982143,26.928579591846614L1108.3990345982143,26.928579591846614L1109.0476004464285,26.928579591846614L1109.6961662946428,26.928579591846614L1110.344732142857,26.928579591846614L1112.9389955357142,26.928579591846614L1113.80375,26.928579591846614L1115.3170703125,26.928579591846614L1116.6142020089287,26.928579591846614L1117.2627678571428,26.928579591846614L1117.4789564732143,26.928579591846614L1117.6951450892857,26.928579591846614L1118.3437109375,26.928579591846614L1118.5598995535715,26.928579591846614L1120.0732198660714,26.928579591846614L1120.5055970982141,26.928579591846614L1120.9379743303573,26.928579591846614L1122.2351060267856,26.928579591846614L1123.3160491071428,26.928579591846614L1123.5322377232144,26.928579591846614L1124.1375658482143,26.928579591846614" style="fill: none;" fill="none"></path></g></g></g></g></g></g><g transform="translate(72, 377)" clip-path="url(#clip_1)"><clipPath id="clip_1"><rect width="1210" height="23"></rect></clipPath><g><g><line x1="0" y1="0" x2="0" y2="5" style="visibility: inherit;" fill="rgb(0, 0, 0)" stroke="rgb(204, 204, 204)" stroke-width="1px"></line><line x1="86.47544642857143" y1="0" x2="86.47544642857143" y2="5" style="visibility: inherit;" fill="rgb(0, 0, 0)" stroke="rgb(204, 204, 204)" stroke-width="1px"></line><line x1="172.95089285714286" y1="0" x2="172.95089285714286" y2="5" style="visibility: inherit;" fill="rgb(0, 0, 0)" stroke="rgb(204, 204, 204)" stroke-width="1px"></line><line x1="259.4263392857143" y1="0" x2="259.4263392857143" y2="5" style="visibility: inherit;" fill="rgb(0, 0, 0)" stroke="rgb(204, 204, 204)" stroke-width="1px"></line><line x1="345.9017857142857" y1="0" x2="345.9017857142857" y2="5" style="visibility: inherit;" fill="rgb(0, 0, 0)" stroke="rgb(204, 204, 204)" stroke-width="1px"></line><line x1="432.37723214285717" y1="0" x2="432.37723214285717" y2="5" style="visibility: inherit;" fill="rgb(0, 0, 0)" stroke="rgb(204, 204, 204)" stroke-width="1px"></line><line x1="518.8526785714286" y1="0" x2="518.8526785714286" y2="5" style="visibility: inherit;" fill="rgb(0, 0, 0)" stroke="rgb(204, 204, 204)" stroke-width="1px"></line><line x1="605.328125" y1="0" x2="605.328125" y2="5" style="visibility: inherit;" fill="rgb(0, 0, 0)" stroke="rgb(204, 204, 204)" stroke-width="1px"></line><line x1="691.8035714285714" y1="0" x2="691.8035714285714" y2="5" style="visibility: inherit;" fill="rgb(0, 0, 0)" stroke="rgb(204, 204, 204)" stroke-width="1px"></line><line x1="778.2790178571429" y1="0" x2="778.2790178571429" y2="5" style="visibility: inherit;" fill="rgb(0, 0, 0)" stroke="rgb(204, 204, 204)" stroke-width="1px"></line><line x1="864.7544642857143" y1="0" x2="864.7544642857143" y2="5" style="visibility: inherit;" fill="rgb(0, 0, 0)" stroke="rgb(204, 204, 204)" stroke-width="1px"></line><line x1="951.2299107142857" y1="0" x2="951.2299107142857" y2="5" style="visibility: inherit;" fill="rgb(0, 0, 0)" stroke="rgb(204, 204, 204)" stroke-width="1px"></line><line x1="1037.705357142857" y1="0" x2="1037.705357142857" y2="5" style="visibility: inherit;" fill="rgb(0, 0, 0)" stroke="rgb(204, 204, 204)" stroke-width="1px"></line><line x1="1124.1808035714287" y1="0" x2="1124.1808035714287" y2="5" style="visibility: inherit;" fill="rgb(0, 0, 0)" stroke="rgb(204, 204, 204)" stroke-width="1px"></line><line x1="1210.65625" y1="0" x2="1210.65625" y2="5" style="visibility: inherit;" fill="rgb(0, 0, 0)" stroke="rgb(204, 204, 204)" stroke-width="1px"></line></g><g transform="translate(0, 8)"><text x="0" y="0" dx="0em" dy="0.95em" style="text-anchor: middle; visibility: hidden; font-family: Roboto, sans-serif; font-size: 12px; font-weight: 200;" fill="rgb(255, 255, 255)" stroke="none" stroke-width="1px">-2k</text><text x="86.47544642857143" y="0" dx="0em" dy="0.95em" style="text-anchor: middle; visibility: inherit; font-family: Roboto, sans-serif; font-size: 12px; font-weight: 200;" fill="rgb(255, 255, 255)" stroke="none" stroke-width="1px">0</text><text x="172.95089285714286" y="0" dx="0em" dy="0.95em" style="text-anchor: middle; visibility: inherit; font-family: Roboto, sans-serif; font-size: 12px; font-weight: 200;" fill="rgb(255, 255, 255)" stroke="none" stroke-width="1px">2k</text><text x="259.4263392857143" y="0" dx="0em" dy="0.95em" style="text-anchor: middle; visibility: inherit; font-family: Roboto, sans-serif; font-size: 12px; font-weight: 200;" fill="rgb(255, 255, 255)" stroke="none" stroke-width="1px">4k</text><text x="345.9017857142857" y="0" dx="0em" dy="0.95em" style="text-anchor: middle; visibility: inherit; font-family: Roboto, sans-serif; font-size: 12px; font-weight: 200;" fill="rgb(255, 255, 255)" stroke="none" stroke-width="1px">6k</text><text x="432.37723214285717" y="0" dx="0em" dy="0.95em" style="text-anchor: middle; visibility: inherit; font-family: Roboto, sans-serif; font-size: 12px; font-weight: 200;" fill="rgb(255, 255, 255)" stroke="none" stroke-width="1px">8k</text><text x="518.8526785714286" y="0" dx="0em" dy="0.95em" style="text-anchor: middle; visibility: inherit; font-family: Roboto, sans-serif; font-size: 12px; font-weight: 200;" fill="rgb(255, 255, 255)" stroke="none" stroke-width="1px">10k</text><text x="605.328125" y="0" dx="0em" dy="0.95em" style="text-anchor: middle; visibility: inherit; font-family: Roboto, sans-serif; font-size: 12px; font-weight: 200;" fill="rgb(255, 255, 255)" stroke="none" stroke-width="1px">12k</text><text x="691.8035714285714" y="0" dx="0em" dy="0.95em" style="text-anchor: middle; visibility: inherit; font-family: Roboto, sans-serif; font-size: 12px; font-weight: 200;" fill="rgb(255, 255, 255)" stroke="none" stroke-width="1px">14k</text><text x="778.2790178571429" y="0" dx="0em" dy="0.95em" style="text-anchor: middle; visibility: inherit; font-family: Roboto, sans-serif; font-size: 12px; font-weight: 200;" fill="rgb(255, 255, 255)" stroke="none" stroke-width="1px">16k</text><text x="864.7544642857143" y="0" dx="0em" dy="0.95em" style="text-anchor: middle; visibility: inherit; font-family: Roboto, sans-serif; font-size: 12px; font-weight: 200;" fill="rgb(255, 255, 255)" stroke="none" stroke-width="1px">18k</text><text x="951.2299107142857" y="0" dx="0em" dy="0.95em" style="text-anchor: middle; visibility: inherit; font-family: Roboto, sans-serif; font-size: 12px; font-weight: 200;" fill="rgb(255, 255, 255)" stroke="none" stroke-width="1px">20k</text><text x="1037.705357142857" y="0" dx="0em" dy="0.95em" style="text-anchor: middle; visibility: inherit; font-family: Roboto, sans-serif; font-size: 12px; font-weight: 200;" fill="rgb(255, 255, 255)" stroke="none" stroke-width="1px">22k</text><text x="1124.1808035714287" y="0" dx="0em" dy="0.95em" style="text-anchor: middle; visibility: inherit; font-family: Roboto, sans-serif; font-size: 12px; font-weight: 200;" fill="rgb(255, 255, 255)" stroke="none" stroke-width="1px">24k</text><text x="1210.65625" y="0" dx="0em" dy="0.95em" style="text-anchor: middle; visibility: hidden; font-family: Roboto, sans-serif; font-size: 12px; font-weight: 200;" fill="rgb(255, 255, 255)" stroke="none" stroke-width="1px">26k</text></g><line x1="0" y1="0" x2="1210.65625" y2="0" fill="rgb(0, 0, 0)" stroke="rgb(204, 204, 204)" stroke-width="1px"></line></g></g></g></g></svg>