<svg viewBox="0 0 1283 400" xmlns="http://www.w3.org/2000/svg"><g><g><g><g><g><line x1="20.390625" y1="357.79825903954895" x2="15.390625" y2="357.79825903954895" style="visibility: inherit;" fill="rgb(0, 0, 0)" stroke="rgb(204, 204, 204)" stroke-width="1px"></line><line x1="20.390625" y1="237.0051393395498" x2="15.390625" y2="237.0051393395498" style="visibility: inherit;" fill="rgb(0, 0, 0)" stroke="rgb(204, 204, 204)" stroke-width="1px"></line><line x1="20.390625" y1="151.30105699483246" x2="15.390625" y2="151.30105699483246" style="visibility: inherit;" fill="rgb(0, 0, 0)" stroke="rgb(204, 204, 204)" stroke-width="1px"></line><line x1="20.390625" y1="84.82380614100616" x2="15.390625" y2="84.82380614100616" style="visibility: inherit;" fill="rgb(0, 0, 0)" stroke="rgb(204, 204, 204)" stroke-width="1px"></line><line x1="20.390625" y1="30.50793729483326" x2="15.390625" y2="30.50793729483326" style="visibility: inherit;" fill="rgb(0, 0, 0)" stroke="rgb(204, 204, 204)" stroke-width="1px"></line></g><g transform="translate(10.390625, 0)"><text x="0" y="357.79825903954895" dx="0em" dy="0.3em" style="text-anchor: end; visibility: inherit; font-family: Roboto, sans-serif; font-size: 12px; font-weight: 200;" fill="rgb(255, 255, 255)" stroke="none" stroke-width="1px">2</text><text x="0" y="237.0051393395498" dx="0em" dy="0.3em" style="text-anchor: end; visibility: inherit; font-family: Roboto, sans-serif; font-size: 12px; font-weight: 200;" fill="rgb(255, 255, 255)" stroke="none" stroke-width="1px">3</text><text x="0" y="151.30105699483246" dx="0em" dy="0.3em" style="text-anchor: end; visibility: inherit; font-family: Roboto, sans-serif; font-size: 12px; font-weight: 200;" fill="rgb(255, 255, 255)" stroke="none" stroke-width="1px">4</text><text x="0" y="84.82380614100616" dx="0em" dy="0.3em" style="text-anchor: end; visibility: inherit; font-family: Roboto, sans-serif; font-size: 12px; font-weight: 200;" fill="rgb(255, 255, 255)" stroke="none" stroke-width="1px">5</text><text x="0" y="30.50793729483326" dx="0em" dy="0.3em" style="text-anchor: end; visibility: inherit; font-family: Roboto, sans-serif; font-size: 12px; font-weight: 200;" fill="rgb(255, 255, 255)" stroke="none" stroke-width="1px">6</text></g><line x1="20.390625" y1="0" x2="20.390625" y2="377" fill="rgb(0, 0, 0)" stroke="rgb(204, 204, 204)" stroke-width="1px"></line></g></g><g transform="translate(20, 0)" clip-path="url(#clip_0)"><clipPath id="clip_0"><rect width="1262" height="377"></rect></clipPath><g><g><g><line x1="0" y1="0" x2="0" y2="377" fill="rgb(0, 0, 0)" stroke="rgb(189, 189, 189)" stroke-width="1px" opacity="0.25"></line><line x1="90.18638392857143" y1="0" x2="90.18638392857143" y2="377" fill="rgb(0, 0, 0)" stroke="rgb(189, 189, 189)" stroke-width="1px" opacity="0.25"></line><line x1="180.37276785714286" y1="0" x2="180.37276785714286" y2="377" fill="rgb(0, 0, 0)" stroke="rgb(189, 189, 189)" stroke-width="1px" opacity="0.25"></line><line x1="270.5591517857143" y1="0" x2="270.5591517857143" y2="377" fill="rgb(0, 0, 0)" stroke="rgb(189, 189, 189)" stroke-width="1px" opacity="0.25"></line><line x1="360.7455357142857" y1="0" x2="360.7455357142857" y2="377" fill="rgb(0, 0, 0)" stroke="rgb(189, 189, 189)" stroke-width="1px" opacity="0.25"></line><line x1="450.93191964285717" y1="0" x2="450.93191964285717" y2="377" fill="rgb(0, 0, 0)" stroke="rgb(189, 189, 189)" stroke-width="1px" opacity="0.25"></line><line x1="541.1183035714286" y1="0" x2="541.1183035714286" y2="377" fill="rgb(0, 0, 0)" stroke="rgb(189, 189, 189)" stroke-width="1px" opacity="0.25"></line><line x1="631.3046875" y1="0" x2="631.3046875" y2="377" fill="rgb(0, 0, 0)" stroke="rgb(189, 189, 189)" stroke-width="1px" opacity="0.25"></line><line x1="721.4910714285714" y1="0" x2="721.4910714285714" y2="377" fill="rgb(0, 0, 0)" stroke="rgb(189, 189, 189)" stroke-width="1px" opacity="0.25"></line><line x1="811.6774553571429" y1="0" x2="811.6774553571429" y2="377" fill="rgb(0, 0, 0)" stroke="rgb(189, 189, 189)" stroke-width="1px" opacity="0.25"></line><line x1="901.8638392857143" y1="0" x2="901.8638392857143" y2="377" fill="rgb(0, 0, 0)" stroke="rgb(189, 189, 189)" stroke-width="1px" opacity="0.25"></line><line x1="992.0502232142857" y1="0" x2="992.0502232142857" y2="377" fill="rgb(0, 0, 0)" stroke="rgb(189, 189, 189)" stroke-width="1px" opacity="0.25"></line><line x1="1082.236607142857" y1="0" x2="1082.236607142857" y2="377" fill="rgb(0, 0, 0)" stroke="rgb(189, 189, 189)" stroke-width="1px" opacity="0.25"></line><line x1="1172.4229910714287" y1="0" x2="1172.4229910714287" y2="377" fill="rgb(0, 0, 0)" stroke="rgb(189, 189, 189)" stroke-width="1px" opacity="0.25"></line><line x1="1262.609375" y1="0" x2="1262.609375" y2="377" fill="rgb(0, 0, 0)" stroke="rgb(189, 189, 189)" stroke-width="1px" opacity="0.25"></line></g><g><line x1="0" y1="357.79825903954895" x2="1262.609375" y2="357.79825903954895" fill="rgb(0, 0, 0)" stroke="rgb(189, 189, 189)" stroke-width="1px" opacity="0.25"></line><line x1="0" y1="237.0051393395498" x2="1262.609375" y2="237.0051393395498" fill="rgb(0, 0, 0)" stroke="rgb(189, 189, 189)" stroke-width="1px" opacity="0.25"></line><line x1="0" y1="151.30105699483246" x2="1262.609375" y2="151.30105699483246" fill="rgb(0, 0, 0)" stroke="rgb(189, 189, 189)" stroke-width="1px" opacity="0.25"></line><line x1="0" y1="84.82380614100616" x2="1262.609375" y2="84.82380614100616" fill="rgb(0, 0, 0)" stroke="rgb(189, 189, 189)" stroke-width="1px" opacity="0.25"></line><line x1="0" y1="30.50793729483326" x2="1262.609375" y2="30.50793729483326" fill="rgb(0, 0, 0)" stroke="rgb(189, 189, 189)" stroke-width="1px" opacity="0.25"></line></g></g></g><g><g><line x1="90.18638392857143" y1="0" x2="90.18638392857143" y2="377" fill="rgb(0, 0, 0)" stroke="rgb(153, 153, 153)" stroke-width="1.5px"></line></g></g><g><g><g><g><g><path stroke="rgb(0, 119, 187)" stroke-width="2px" d="M91.08824776785715,53.857142857142875L93.34290736607143,104.41734509041711L93.56837332589286,124.71301188394601L94.24477120535715,129.50435174402153L94.47023716517856,117.79449562816501L96.04849888392857,142.6610427908188L96.27396484375,138.82735794531928L99.20502232142857,156.28170733096127L100.78328404017857,185.19612185896264L101.00875,147.7171047431867L101.23421595982143,164.65641885824573L102.36154575892857,161.0744237826496L104.1652734375,180.8593528196675L104.39073939732144,172.44243724686277L105.06713727678572,192.50179569681248L105.29260323660715,221.00815182469802L105.96900111607142,217.8904333390078L106.19446707589285,204.80063386146062L107.54726283482142,185.30156894234196L108.67459263392858,191.02569982715096L110.25285435267858,204.29374711991028L112.50751395089286,201.73588409795323L113.40937779017857,243.58096491907745L114.31124162946429,250.75052508997214L117.46776506696429,205.9300802929955L118.36962890625,212.00194349031202L118.59509486607143,187.98939732783776L119.04602678571429,214.85386445598084L119.49695870535714,216.66579654314683L120.84975446428571,223.1697277143535L122.65348214285714,231.511670108207L123.1044140625,229.83727320729466L123.32988002232143,255.04380218047996L124.00627790178571,272.7464596968561L125.58453962053571,261.37859873652945L126.26093750000001,227.00660454720435L126.71186941964285,222.64769634827678L127.16280133928572,246.67775157189732L128.7410630580357,225.34269922873403L128.96652901785714,208.7431268180869L130.09385881696429,206.79888779000896L131.6721205357143,210.4333297305149L131.8975864955357,214.12621635765413L132.12305245535714,212.5904056523531L133.25038225446428,242.1271233704909L133.47584821428572,237.11692292257146L135.95597377232144,250.80044911020514L136.40690569196428,246.58001737902094L137.75970145089286,254.30399895695362L138.2106333705357,241.66379917358748L138.66156529017857,241.98240573150463L140.69075892857143,223.1883062226311L141.81808872767857,204.46779562435017L145.200078125,199.60179704368758L145.4255440848214,225.64766706617877L148.3566015625,219.68562197913602L148.5820675223214,239.06929098507803L148.80753348214284,213.44757976266618L151.28765904017857,234.4477276798765L151.96405691964284,228.082903600174L152.86592075892855,213.38103957512712L153.7677845982143,245.38106044063562L154.44418247767857,227.2413280942309L155.12058035714287,213.0859182740875L155.5715122767857,234.81413710191333L156.69884207589286,237.31517806438077L157.1497739955357,232.86233591604818L157.37523995535713,207.50757729573297L159.62989955357142,208.71302291987686L160.53176339285713,235.93734810394417L161.43362723214287,226.99028794491218L161.88455915178574,221.46041896295796L162.11002511160714,225.50132800462822L162.78642299107142,215.39019698103257L166.16841238839288,197.6336706780971L167.97214006696427,201.7676089445027L168.1976060267857,212.28792656651504L170.90319754464286,196.32209421281505L172.25599330357142,182.38514369282768L172.48145926339285,201.4216610933731L172.70692522321428,170.7741127768009L175.41251674107144,164.8529833132464L177.21624441964283,176.85114353098854L178.11810825892857,199.20681313378537L178.56904017857144,211.2753574669047L179.69636997767856,197.70460952773894L180.8236997767857,183.8451970983359L181.27463169642857,195.42303447484036L183.7547572544643,203.34981066177153L185.10755301339285,246.39727521523324L185.3330189732143,226.49457113527617L188.4895424107143,213.9284250078041L188.7150083705357,211.31307759461964L189.16594029017858,236.55468132353627L190.06780412946426,216.11474977155277L190.29327008928573,226.77056955944363L190.74420200892857,237.84947332084207L192.09699776785715,223.4929975462773L192.99886160714286,235.82443239578953L194.12619140625,228.43454887532647L195.0280552455357,246.8271536167823L195.704453125,242.8298417407756L196.15538504464286,233.19945821152456L197.0572488839286,243.02552196734666L197.28271484375,230.51172807434506L198.41004464285714,239.58617929515572L198.63551060267858,224.79454813908444L199.98830636160713,230.8671000906302L200.43923828125,212.52552802472022L201.56656808035714,209.8800496274377L205.1740234375,195.00719982095936L205.62495535714288,200.70992873427832L205.8504213169643,237.13262779421066L206.0758872767857,215.219722706644L206.75228515625,196.43058498845565L207.20321707589287,194.2998144361838L210.35974051339286,206.3725367770857L210.5852064732143,249.19709744249758L211.03613839285714,235.726646835105L211.4870703125,210.9533145886508L211.93800223214285,193.065154659964L212.83986607142856,191.23842259061814L213.29079799107143,200.65159220371442L214.19266183035714,254.7054912932799L214.64359375,269.2741127185913L215.54545758928572,255.07449962987988L216.8982533482143,239.71547050702594L217.34918526785717,229.3457618867847L218.25104910714285,206.4961592641952L221.85850446428572,193.31675778313647L222.08397042410715,195.07319281701288L222.76036830357143,230.02213953662164L223.2113002232143,246.3928710662912L223.4367661830357,215.64254871104913L224.11316406249998,237.00475745579882L224.56409598214285,235.92558239057368L227.04422154017857,237.588906852389L228.1715513392857,229.1788264089162L228.39701729910712,237.81108998013676L230.20074497767857,266.9433363498852L230.4262109375,258.42850913033567L231.55354073660715,246.08320443661492L231.77900669642858,218.61091384871978L232.68087053571426,237.07167351257633L233.582734375,231.14070058078374L234.93553013392858,232.61887653869604L235.16099609375,234.76064314741018L236.28832589285713,214.52077038802662L236.7392578125,184.08975738597508L238.31751953125,184.04299955452228L238.76845145089285,196.45019545172616L240.34671316964287,212.17627132902126L242.1504408482143,213.79624849289175L242.37590680803572,227.49791599040836L243.27777064732143,258.21055356403986L244.17963448660714,237.1278968332672L245.98336216517856,251.78939386135812L246.43429408482143,258.8416737747039L250.0417494419643,269.3969358743928L252.52187500000002,248.26366721292143L252.97280691964284,241.62624747487433L253.4237388392857,258.4227990659165L253.64920479910714,268.8752022661511L254.10013671875,237.58628510297035L254.32560267857144,239.2543459816507L254.77653459821428,231.43541521830204L255.00200055803572,224.7565333433827L255.22746651785715,242.01297252904686L256.35479631696427,260.0538965997039L257.7075920758928,254.1339012926562L262.21691127232145,255.79235090970383L262.44237723214286,240.39065734904176L264.0206389508929,196.00064037820093L264.69703683035715,247.18649124611576L264.92250279017856,230.35310813014735L265.3734347098214,246.07811333858288L265.8243666294643,243.3352015600857L266.2752985491071,212.80964179460167L267.6280943080357,197.76277645747993L271.2355496651786,221.84727200034862L271.461015625,240.22166203351483L271.9119475446429,223.81679575643815L272.58834542410716,216.10803499564062L274.3920731026786,237.2215505694798L274.6175390625,237.3417793266755L276.64673270089287,234.28642959368148L277.5485965401786,233.52172011757386L278.2249944196429,230.22524399996757L279.35232421875,249.19134137695576L280.0287220982143,242.02430852875327L280.4796540178571,216.99706085956262L283.1852455357143,215.2376990562957L283.86164341517855,158.05519571941707L284.3125753348214,188.93705029558132L285.21443917410716,208.77011563835563L286.3417689732143,228.40762396043644L289.27282645089286,216.1302104035875L289.7237583705357,233.55257531399565L291.0765541294643,241.74480287045836L291.75295200892856,233.950154605274L292.20388392857143,241.74045806605233L293.10574776785717,256.5808544992569L293.3312137276786,267.43809542375453L294.6840094866072,253.75991822395116L299.1933286830357,226.7987952393079L299.64426060267857,208.24373869744025L300.09519252232144,219.01160806487164L302.34985212053573,210.892096303776L303.9281138392857,224.50449322151817L305.2809095982143,205.01014396739163L307.0846372767857,217.95186967307615L310.6920926339286,247.15331125261034L311.3684905133929,187.2724284920927L312.27035435267857,166.34881429362338L313.6231501116071,188.61756744091326L314.07408203125,196.49622281971241L315.20141183035713,221.5897002984274L315.8778097098214,220.67840705665762L316.1032756696428,207.29076109688924L316.32874162946433,230.2617650088498L318.8088671875,194.67564285224333L320.38712890625,179.92129298351222L321.2889927455357,208.28825915674364L321.7399246651786,215.2938298881034L323.54365234374995,183.11434792820745L323.7691183035715,192.05942567777814L328.0529715401786,217.25522479952522L328.95483537946427,249.49156083414684L331.2094949776786,235.59037900806757L331.4349609375,193.9506601100824L331.88589285714284,212.31510110360637L332.7877566964286,207.01148505429913L334.81695033482146,218.14149397148728L337.5225418526786,248.6897856324165L338.42440569196424,231.36675172642308L338.87533761160716,235.23606719148682L339.5517354910714,248.06264446153753L340.0026674107143,278.9851829580604L340.4535993303571,262.5924832937088L342.7082589285714,229.87208721344214L342.9337248883929,220.7829459134278L343.61012276785715,222.27512710209118L343.83558872767856,199.79633394208614L344.51198660714283,217.49833656088688L345.18838448660716,200.5117144158064L345.63931640625,210.27252410345383L346.7666462053571,247.22465844245426L348.3449079241072,226.82055132703687L349.4722377232143,258.8609281266943L349.69770368303574,277.1876858113124L351.95236328125,274.5222134604284L352.40329520089284,261.45894473223905L354.6579547991072,260.2367136894405L355.10888671875,251.2112602867729L355.3343526785714,236.1196282049164L356.9126143973215,241.3481841429917L358.03994419642856,243.63476599835784L358.9418080357143,241.22567034772044L359.1672739955357,247.76602114388342L361.6473995535714,234.66348214936613L363.4511272321429,226.72018077262175L364.3529910714286,243.27205056105907L365.4803208705357,247.28753523302717L365.9312527901786,216.86083855167277L366.8331166294643,202.31942957435515L370.2151060267857,221.7490946046798L370.6660379464286,235.67747075046114L371.56790178571424,233.14896776230242L371.79336774553576,250.40888120665863L372.01883370535717,226.54993988726872L372.469765625,212.0908991569331L373.1461635044643,207.3027566319136L374.04802734375,214.94166365346422L375.40082310267854,214.8158759744015L376.3026869419643,204.31036755315512L377.4300167410714,192.4643433391333L378.7828125,249.22620905383866L379.4592103794643,259.3707871400186L380.58654017857145,242.75023875447522L381.26293805803573,231.07629996091626L382.3902678571429,278.3593646992769L382.6157338169643,266.91279882272534L383.29213169642856,232.95584679405954L384.1939955357143,237.70698466893873L386.2231891741071,250.8884291532339L387.8014508928572,276.98768158061694L388.4778487723214,259.16950108327467L388.70331473214287,237.3470943172375L390.7325083705357,236.57302641272634L392.98716796875004,212.5422195652206L393.66356584821426,223.1422279299646L395.0163616071428,209.24976398456317L396.3691573660715,233.7391578527667L397.27102120535716,234.38185114625472L399.75114676339285,235.235676090847L399.97661272321426,240.92010567224168L400.8784765625,227.7859815281784L402.23127232142855,223.55184984925697L403.1331361607143,271.0944944553104L403.8095340401786,215.71147689642734L409.2207170758929,224.49456744037246L412.3772405133929,235.36588529780084L413.5045703125,243.3913055741832L413.95550223214286,241.7885787138962L414.18096819196427,249.15623514464403L414.40643415178573,258.5050736407319L414.63190011160714,235.56930847477363L416.4356277901786,249.48515643511112L418.23935546875,191.54623740957163L418.4648214285714,224.32262392974727L418.9157533482143,200.40435131317864L419.1412193080357,214.07967480105745L422.0722767857143,226.3548037235493L422.52320870535715,213.8023571489287L425.0033342633929,198.70872379468943L425.6797321428571,216.44430746537074L426.58159598214286,255.76830075612492L427.4834598214286,237.66064903949174L428.3853236607143,238.01674010344485L429.9635853794643,224.75238578832406L430.1890513392857,232.31706828223682L430.41451729910716,232.82954446836854L430.86544921875,212.0064162296917L431.5418470982143,244.72171926958325L434.2474386160714,227.05564769837218L435.60023437499996,205.80941379458207L436.2766322544643,257.445998798623L436.5020982142857,206.07366082769792L438.7567578125,199.52779685654136L439.43315569196426,212.63268120954982L441.91328124999995,219.91065182054734L442.5896791294643,230.1105940938417L443.2660770089286,234.76627585021157L444.3934068080357,221.9736772610404L445.0698046875,236.0556186542258L447.09899832589286,210.3682771300326L449.5791238839286,210.6107904463811L450.70645368303576,209.44508218859025L451.1573856026786,229.4562194363223L456.56856863839283,203.01890755381433L458.3722963169643,215.59459898556418L458.8232282366071,215.25655553029915L459.49962611607145,209.1893168858765L460.852421875,225.29650366613336L461.0778878348214,201.00841912917764L462.6561495535714,214.36239266844692L464.4598772321429,191.67132920838242L465.3617410714285,219.0776296795451L466.26360491071426,181.64283456445665L467.16546875,202.686238155549L467.8418666294643,215.74306731302644L468.29279854910715,229.3354331639067L469.6455943080357,242.09629776917672L470.09652622767857,212.13443989749592L471.6747879464285,231.2911869551817L473.478515625,236.9771925265586L473.9294475446428,264.71739134094025L474.60584542410714,242.79101826029054L475.05677734374996,238.01376361078297L475.2822433035715,222.77398799844542L475.5077092633929,229.3887356609421L477.08597098214284,231.3051778857122L477.9878348214286,231.20275088196846L478.21330078125,237.6209302756356L479.7915625,236.58262601023034L481.5952901785715,253.00292371609817L481.8207561383929,237.1066585899294L482.7226199776786,238.83957865286231L483.17355189732143,239.63101474724485L485.2027455357143,220.69044722122143L487.68287109374995,214.63787511814783L489.93753069196424,251.3858354068025L490.38846261160717,248.09127821554378L491.9667243303571,270.598415891931L492.1921902901786,260.07145919222216L493.09405412946427,270.0151513970699L493.77045200892854,271.6552756492868L494.6723158482143,222.95467053137054L495.5741796875,205.51586112121043L499.63256696428573,195.46868425172747L500.5344308035714,237.99557400966796L501.43629464285715,242.83478652458427L502.1126925223214,201.0351484402015L503.46548828125,207.6332728110107L503.9164202008929,227.2836722869592L505.94561383928567,218.04823618586516L506.8474776785714,215.11853463228329L508.8766713169643,226.98880366220314L510.00400111607144,236.33108394909289L510.22946707589284,242.7433082563895L510.4549330357143,253.88648247278897L514.0623883928571,246.5956867847046L515.1897181919643,262.5149676729349L516.7679799107143,265.4454436859396L517.6698437499999,267.4132561391367L518.3462416294643,266.6427900999324L519.6990373883929,233.65667372951125L519.9245033482143,220.72463345556116L520.1499693080357,205.4974434903469L520.8263671875,220.90302308700427L521.9536969866072,217.83667849479582L523.3064927455357,230.38106103406085L523.5319587053572,239.6269274705362L525.7866183035715,238.93223315131277L526.0120842633928,255.6273857329069L526.9139481026785,251.48352651489245L527.1394140625,217.2524894728852L528.0412779017857,209.03737500768528L528.4922098214286,208.21661172185554L529.8450055803571,258.8330611341209L530.5214034598214,246.76288318835313L531.4232672991071,239.62893398561684L531.6487332589286,276.73651917628837L532.0996651785714,248.5179378406572L532.3251311383929,251.81033592779053L532.7760630580358,211.28618824659438L535.2561886160714,212.03556779813866L535.7071205357142,227.59650866176125L537.5108482142857,202.8112211331306L537.7363141741072,231.2903318763206L538.4127120535715,243.36577195891317L546.3040206473214,235.45912685145635L548.3332142857142,203.29107875874453L548.5586802455357,203.29875045811124L550.1369419642857,226.48996052810125L551.0388058035714,201.67565173313994L552.6170675223215,232.7344485986588L552.8425334821428,222.21511250457328L555.548125,239.45376161139419L556.2245228794643,244.5685678543228L558.2537165178571,273.5588544622721L560.5083761160714,231.0403315902778L562.3121037946428,215.49919829085934L562.5375697544644,226.1887805763723L562.9885016741072,215.07667704004785L563.6648995535714,213.18000902554635L565.0176953125,225.4715729901533L566.1450251116072,212.75767599026244L566.3704910714285,213.6390990504704L567.2723549107143,184.3336703915336L567.4978208705357,177.7392851766057L569.0760825892858,208.690236526369L571.1052762276786,199.67797413379512L571.7816741071429,231.41270862605649L574.0363337053572,209.72114449998404L576.2909933035714,230.82653306296748L578.5456529017857,227.01653869843773L582.6040401785714,222.82494644429883L584.1823018973214,216.1744494225901L585.7605636160714,237.48820709335754L586.2114955357143,252.75041707041945L587.5642912946429,269.4621381558021L588.0152232142857,251.62281182108092L588.69162109375,249.27552319118197L588.9170870535714,221.01048525681196L590.2698828125,225.1433189133576L591.1717466517857,211.32242575287606L593.6518722098215,190.06906363296198L594.3282700892856,184.03664229196772L595.4555998883928,204.77303314959823L598.3866573660714,240.6920333273671L603.7978404017857,260.834698593122L608.0816936383928,259.15367266626924L609.2090234375,237.70942712108226L609.4344893973214,235.64259398580342L611.6891489955358,248.06285380292275L612.365546875,249.19366565178504L613.4928766741072,267.63886873036165L615.2966043526786,276.8766812412217L615.9730022321429,257.7811106987748L617.5512639508928,241.49869895168715L617.7767299107143,239.70901958047708L618.0021958705357,273.89978259805144L618.4531277901785,254.859744057997L619.8059235491071,237.74189757159954L621.3841852678572,254.0499801388465L624.5407087053571,184.85740147656773L627.0208342633929,206.3446850474885L628.1481640625,234.3288471077376L629.0500279017857,259.54554489518716L629.2754938616072,243.88359813351963L629.9518917410714,260.99498740020164L630.1773577008929,243.1485768234535L636.7158705357143,231.31831847446998L637.3922684151785,238.17202201111786L638.2941322544643,230.8887353793179L638.5195982142857,231.42306021103622L639.6469280133928,229.3192532242587L639.8723939732142,234.25043189599145L642.5779854910714,243.95217646421847L644.3817131696428,236.57697303700002L644.8326450892856,227.66055056311131L645.0581110491072,212.91126303922536L647.7637025669643,220.15402446366835L649.5674302455357,217.41726690869334L651.3711579241071,202.29118841105463L652.4984877232143,223.04271428507437L652.9494196428572,233.93191516407032L653.6258175223214,219.5958252852408L654.0767494419642,220.32053976426806L654.3022154017857,240.8815634899979L655.8804771205357,251.03292823023475L656.7823409598213,274.5724891992204L657.0078069196428,254.45576756840626L657.2332728794644,239.9898910952949L657.6842047991072,251.46436346885753L658.13513671875,201.8648184034539L659.2624665178571,200.34417486717498L659.7133984374999,188.98105667543754L661.5171261160714,192.0816959398565L667.6047070312501,216.07555826672223L667.8301729910714,222.631862153832L668.2811049107142,218.1583278728109L670.3102985491072,229.34432549296392L670.5357645089285,262.19237766662974L672.1140262276787,209.93374115850253L672.7904241071428,215.84273355787528L673.0158900669643,241.86398363326308L673.6922879464286,226.84449465636726L675.2705496651786,239.99713123037228L675.7214815848214,246.32619621897072L676.8488113839285,221.7181225793534L679.5544029017858,243.15194919478458L679.7798688616072,247.50521325154108L681.5835965401785,277.8153240650674L681.8090625000001,259.23423912880503L683.38732421875,236.3064768957542L684.0637220982143,238.3999290095461L684.2891880580356,228.07373114682352L684.5146540178572,233.99036188388715L685.1910518973215,240.43296571124142L689.4749051339286,222.05445276082227L691.2786328125,200.26632230105125L691.5040987723214,176.89959089663824L692.1804966517858,182.15984618017006L693.7587583705357,187.7551035419727L694.4351562500001,196.99743810989372L694.8860881696429,193.1218898351237L695.5624860491072,201.37350167330965L696.4643498883928,224.60277619842807L698.4935435267857,228.35274737739465L699.8463392857143,202.13341300874953L700.748203125,205.92624061142482L700.9736690848214,223.17293331316068L701.8755329241072,244.03955165493855L702.1009988839286,200.96974880599936L702.32646484375,216.96585868289384L703.4537946428571,235.7696404024607L704.5811244419643,226.1454315666395L704.8065904017857,218.48867170739317L705.7084542410714,240.54833825033822L706.8357840401786,232.11759144060213L707.0612500000001,237.9968157349231L707.2867159598214,230.48591468343295L707.9631138392857,205.49922115684296L709.9923074776785,211.8185643336719L710.2177734375,222.32041581562405L710.4432393973215,241.3768680527405L711.5705691964287,241.22537490729195L711.79603515625,210.5970926812132L712.6978989955358,188.005231238084L713.3742968749999,200.68639202168896L714.0506947544642,223.54939650706325L714.5016266741072,229.2694827846597L714.95255859375,178.64121477653012L715.6289564732143,177.01649379247422L717.2072181919643,173.35391399745612L719.9128097098214,217.11333409579427L720.3637416294642,242.37799126702524L723.2947991071428,268.4528936643558L723.5202650669643,220.75902591316418L726.0003906249999,249.2612129631796L728.2550502232142,253.03780057210187L728.7059821428572,244.50249575067622L729.1569140625,251.7267569138277L730.5097098214286,250.55315068152444L732.0879715401786,248.68209451831237L732.3134375,243.36563430194337L733.440767299107,234.8195998228966L734.3426311383929,214.91756499940314L734.5680970982143,205.05725877199959L735.4699609375,229.41219236151534L738.4010184151786,260.41459092634994L738.8519503348215,268.41402091665714L739.077416294643,236.23257451666996L741.1066099330358,242.50391384923344L741.5575418526786,223.55550396960524L742.0084737723214,228.95385076995314L743.8122014508929,213.45746384598294L745.6159291294642,222.15987114308513L746.2923270089286,215.75347459318482L746.5177929687501,212.90186218803169L747.1941908482142,237.05462705136404L747.6451227678572,219.4682985891185L747.8705887276785,195.59906386002038L748.5469866071429,190.01545984735174L749.8997823660715,213.6795292985471L750.8016462053571,214.16852771378865L751.0271121651787,225.81849418644094L754.1836356026786,227.85691812390937L754.8600334821429,218.4182378588829L755.5364313616071,209.2990995893925L757.1146930803571,197.4196912952322L757.7910909598214,225.05249743914274L758.2420228794642,243.66658251586387L759.5948186383929,230.80073722169433L760.7221484375001,219.92259650692773L762.0749441964285,234.61870518152443L762.5258761160715,232.6029350604197L764.1041378348215,248.9339810515929L764.7805357142857,243.62534001170016L765.2314676339286,249.59126295933484L765.4569335937499,263.71530207325014L766.1333314732143,277.9419281038951L767.7115931919642,294.9901690910137L769.7407868303571,275.03108878995977L770.8681166294643,293.76794204580585L771.9954464285714,207.70144490132807L773.1227762276786,258.5689403939894L776.0538337053572,234.29767684670566L776.504765625,185.61944860540788L778.7594252232143,199.429540292122L780.3376869419642,228.83749710458832L781.0140848214286,215.82663844947592L782.1414146205357,223.75393381367502L784.1706082589286,226.95792816817197L784.39607421875,216.3456655589693L785.7488699776786,218.2899726366002L787.1016657366072,217.73010236361404L787.7780636160713,225.17242969867354L788.6799274553572,196.20370580282025L788.9053934151785,198.57431089323586L789.130859375,214.2492930107808L789.5817912946428,197.81157314702835L790.4836551339287,162.61252710083292L791.1600530133928,156.02908693652938L791.3855189732143,176.21993540786937L792.2873828124999,177.0820772448011L792.5128487723214,200.12185305939772L792.738314732143,219.9564603041607L793.86564453125,216.660460298915L794.3165764508929,212.52979004711162L796.5712360491071,184.09094124067167L798.1494977678572,194.47537328666124L799.727759486607,181.2981387254134L800.4041573660714,211.1971795282491L804.4625446428571,201.07779590304384L805.5898744419643,201.36930086651458L807.6190680803572,202.3597437813841L808.2954659598214,200.60157301864186L808.7463978794643,196.52102801146327L810.3246595982143,201.27455382708666L811.2265234375,203.99274571795837L811.4519893973214,211.79999029704362L813.2557170758929,216.61329448348417L814.1575809151785,243.15089476720237L814.383046875,274.504569482276L815.0594447544644,260.6638497079537L815.5103766741072,262.14949782072284L817.0886383928571,247.22404370442612L817.990502232143,213.70236220611613L818.8923660714286,232.7078130137544L819.7942299107142,201.26936368792062L820.2451618303572,241.4601850527231L821.5979575892857,247.63335222671537L825.2054129464286,193.2547286221926L825.8818108258929,210.54459128543692L826.5582087053572,193.39550936993382L827.2346065848213,197.94612054128825L827.4600725446429,198.23066591487265L828.58740234375,200.78405868791427L830.3911300223215,221.33574973337127L831.7439257812499,226.3597643877629L832.4203236607142,234.20498658101434L832.6457896205358,216.05477766288507L834.4495172991071,231.45759919191454L836.2532449776786,244.64329201422112L839.184302455357,288.8405085947248L840.7625641741072,285.22342109115294L842.1153599330356,250.59132900682044L843.2426897321428,287.8340376129498L845.7228152901786,276.31843956285786L847.52654296875,284.16893666091045L847.7520089285714,270.6304875698353L848.8793387276786,237.6719319560509L849.3302706473214,263.2082254591987L849.7812025669643,261.12236026113686L850.4576004464286,248.34210420194532L850.9085323660714,255.6519753260394L852.0358621651786,244.22794455255502L852.2613281250001,206.5944299000061L854.0650558035713,207.71404619085135L854.2905217633928,208.01936485299944L854.9669196428572,207.9188899181883L856.5451813616071,206.75025630103426L857.2215792410715,235.4723367327891L857.447045200893,225.94409458756112L857.6725111607143,231.75224558467397L859.7017047991072,261.55816517306255L860.6035686383929,271.5367515888306L861.5054324776785,252.74762180228623L863.0836941964286,283.9616457206678L863.30916015625,249.65217039677688L864.436489955357,257.2724409213284L867.8184793526785,258.3178504308036L868.0439453125,250.98330927497705L868.9458091517856,261.66656607858084L869.3967410714287,238.38662078238633L870.9750027901786,227.7820572372182L871.8768666294642,237.98870016245817L873.9060602678571,262.3490650698902L874.1315262276785,264.04900925959026L874.3569921875,277.8933353837954L874.5824581473215,247.2481649384569L874.8079241071429,248.09400146442886L875.7097879464286,272.5484639073672L876.1607198660714,206.66883870131934L876.6116517857142,211.4029524870451L877.2880496651786,211.5222336481899L877.9644475446429,213.20804433403907L878.1899135044642,184.192840106137L878.8663113839285,185.57882719829516L881.3464369419643,202.59901193556982L882.6992327008928,179.5401819997824L884.0520284598214,208.87994785559295L886.0812220982142,222.29104738471634L886.3066880580357,236.6877367770506L887.4340178571429,238.75565784750248L888.1104157366071,249.4591494446699L889.4632114955358,247.65839195051709L890.3650753348214,218.65143061211563L891.266939174107,227.18761429351997L893.0706668526785,184.40199568638272L893.7470647321428,208.13343854630958L895.0998604910715,233.09519500684175L895.3253264508928,225.53624094435787L896.2271902901786,215.6935267143321L897.1290541294643,191.4456821161977L897.8054520089286,191.27570833202282L898.03091796875,179.77772012390264L898.7073158482142,199.45120456152944L900.7365094866071,197.8456237427951L903.4421010044642,206.6745399450899L903.6675669642858,208.67399145004873L903.893032924107,196.88900925783506L904.1184988839286,200.374495161849L904.7948967633929,213.67524904669563L907.2750223214285,241.76969594101223L912.6862053571429,226.04856589147894L913.3626032366071,245.6193216828016L913.81353515625,247.90513567661583L914.2644670758929,240.58257949757171L914.9408649553571,259.1089350166364L915.391796875,224.30379557696327L915.8427287946428,225.76524387971116L916.5191266741072,220.60874301555455L916.7445926339286,229.80053999206189L920.8029799107143,233.6925802628587L923.0576395089286,243.24291582405493L924.6359012276786,197.45090337597057L925.5377650669642,205.28939530264873L925.7632310267857,219.19086559549547L926.8905608258929,197.4953311828856L927.1160267857143,216.78924121962694L927.7924246651786,259.0294005554189L930.2725502232142,258.9406264116876L930.4980161830357,231.72992505663163L933.2036077008928,212.94010916418824L933.4290736607144,237.9028284016696L933.8800055803572,231.0842013746459L934.1054715401785,220.14846026019123L934.7818694196428,213.47383393032072L935.0073353794643,238.48252783081006L935.2328013392857,267.70825765609044L936.8110630580358,244.51897575605363L937.2619949776786,245.09033874043232L937.7129268973214,237.64816581418899L940.4185184151785,244.82830747762276L941.0949162946429,227.36327925805375L941.3203822544643,221.8239581586902L941.5458482142857,221.34013787421588L941.7713141741071,207.0123216136329L942.6731780133928,243.95420379722682L943.349575892857,237.75305216308416L946.7315652901785,245.55792058058603L947.1824972098215,197.39704952466158L948.53529296875,200.0128385885667L948.9862248883928,211.0274959444531L949.8880887276786,253.6631647490216L950.7899525669642,260.4409781799289L951.0154185267858,284.6051452855998L954.3974079241071,257.6531478026108L956.4266015625,203.1990288286521L956.8775334821429,197.12906956218382L957.3284654017857,221.8210547870721L958.0048632812501,229.16886728758203L958.4557952008929,210.26692524678353L959.1321930803572,201.68399266753678L961.16138671875,189.25100247551694L961.8377845982143,190.16148691678836L962.5141824776786,209.86822130667503L967.47443359375,220.8038455239219L968.6017633928572,217.89259133018032L969.9545591517857,223.8994647232807L970.6309570312501,231.3271027058614L971.5328208705357,237.49950013162564L972.8856166294644,213.07741953599947L973.5620145089285,202.771361417386L974.0129464285715,218.68267758579665L974.4638783482143,253.96790856117082L975.1402762276786,263.35748777693584L975.5912081473215,241.02292009019462L976.2676060267858,249.05782782520333L980.10052734375,228.44554399971386L980.3259933035715,226.48755246800647L981.0023911830357,216.60025009402418L982.806118861607,201.38500489603305L983.0315848214286,213.79815518093667L985.0607784598213,221.5073814712887L985.2862444196429,232.92608277839275L986.41357421875,206.55074505624248L986.6390401785715,197.9357423253531L986.8645061383928,191.4439266684215L987.5409040178571,182.9791059683313L988.8936997767858,214.3397472159737L990.021029575893,228.02160832679414L990.6974274553572,252.2673050440081L992.5011551339285,256.91438907393245L993.4030189732143,221.2220033815152L993.8539508928571,224.9132779468375L995.88314453125,248.4494766368648L997.010474330357,280.20505556371637L998.3632700892857,284.9295757176544L998.5887360491072,260.7062943866742L999.4905998883928,250.82935838735642L999.7160658482143,262.0180559161387L1001.2943275669643,246.02760392288684L1002.8725892857143,292.0441843313375L1004.2253850446428,277.9037715345239L1004.9017829241072,253.56867121988117L1005.35271484375,256.12723273456606L1005.5781808035714,237.76582137119712L1007.1564425223214,214.11488562672332L1008.50923828125,214.4588806872083L1008.9601702008929,217.44904895631305L1009.1856361607142,196.4850281650055L1009.636568080357,197.88635959787752L1010.5384319196429,216.56183373463116L1011.4402957589285,230.7102152297294L1012.5676255580357,218.23127663231492L1013.2440234375,208.41197578572488L1015.273217075893,247.99815275927853L1015.7241489955358,285.67958078450096L1016.6260128348214,323.14285714285717L1017.97880859375,285.9265006040516L1018.6552064732143,275.27198475787645L1020.0080022321429,276.59764820478597L1022.7135937500001,287.2510746814784L1023.6154575892857,263.2213267373106L1025.1937193080357,236.31007647960715L1025.8701171875,275.80084429316565L1027.6738448660715,234.49566808002444L1028.3502427455358,226.29761545370428L1028.8011746651787,195.15753253512412L1030.60490234375,194.2465035556643L1030.8303683035713,255.40751276720525L1031.5067661830358,251.1338268279315L1032.8595619419643,306.86690731310654L1033.9868917410715,292.87178418772004L1037.1434151785713,317.0096915784844L1037.368881138393,286.89797309498846L1039.1726088169644,282.1477111805003L1040.2999386160714,266.6375609910045L1041.652734375,240.01128826809034L1042.1036662946428,213.70680221553883L1042.3291322544642,213.88886479769747L1043.681928013393,225.9122437716705L1045.9365876116071,232.34059236339934L1046.6129854910714,224.21877281060705L1047.0639174107143,229.34208106100257L1047.2893833705357,220.57853758071286L1047.514849330357,238.60790005599472L1048.416713169643,189.55056529565962L1050.6713727678573,191.10270675211208L1050.8968387276786,196.81071976916138L1051.3477706473213,207.53430922566616L1053.6024302455357,210.98059426927966L1053.827896205357,232.83959269747376L1057.6608175223214,252.6307474810036L1059.2390792410715,264.7332108617464L1060.1409430803571,265.28984429617293L1062.17013671875,275.3665829490286L1063.2974665178572,239.87328729459207L1064.4247963169644,216.00862900825118L1065.777592075893,231.12915653438492L1067.8067857142858,222.47757527685548L1068.7086495535714,210.88604347357335L1069.6105133928572,238.82010691715456L1070.2869112723213,231.07883840993202L1071.63970703125,210.77516866520236L1072.7670368303573,210.35070431468301L1074.1198325892858,208.29200063463279L1075.247162388393,220.70458256989502L1075.923560267857,215.5376655786196L1076.1490262276786,239.8554060211178L1077.7272879464285,254.04591649595727L1079.080083705357,238.89082980971335L1079.531015625,246.3421625462028L1081.3347433035715,246.87768620684352L1082.236607142857,234.34672580942984L1082.9130050223214,264.56242843722777L1083.5894029017857,207.5103499222679L1083.8148688616072,207.73619946260303L1085.6185965401787,194.04024711474977L1086.0695284598214,204.55799352114585L1088.5496540178572,252.8612711560535L1090.3533816964286,231.2879916889672L1091.7061774553572,239.68689529034876L1092.8335072544644,248.07765307191235L1093.73537109375,235.78882242250097L1095.5390987723215,245.59640216155728L1097.1173604910714,268.13711022458426L1100.7248158482143,261.22280889061943L1102.077611607143,228.01917079619466L1102.9794754464285,204.09895705467682L1106.36146484375,222.7441674286769L1107.7142606026787,220.10013791155347L1108.390658482143,241.24191521450237L1108.8415904017857,286.5579122405404L1110.1943861607144,273.9942470999599L1110.4198521205358,262.712561020274L1111.09625,237.86063062251046L1111.9981138392857,223.2624435958563L1112.8999776785715,215.91497264954904L1113.1254436383929,223.35143326071756L1113.3509095982142,228.9251741707109L1113.8018415178572,222.24376378589199L1115.1546372767857,240.15030806695543L1116.7328989955356,234.68326764357906L1117.1838309151785,265.2294948823656L1117.6347628348215,256.9065188073685L1118.536626674107,242.8654403630807L1119.2130245535714,229.76460241621552L1119.4384905133927,257.75547028062556L1119.8894224330359,275.6670090294921L1121.693150111607,262.0185723689002L1123.4968777901786,271.4885988292063L1123.9478097098213,300.81376234145887L1127.1043331473215,255.234861432569L1127.7807310267858,255.78293030220283L1128.45712890625,247.21522191589705L1128.9080608258928,216.10533023064187L1130.7117885044643,226.19738013314011L1131.61365234375,241.3719051506085L1132.2900502232144,198.122366847044L1133.642845982143,195.74935341940827L1135.6720396205358,253.01965026661108L1136.7993694196427,222.41878663206626L1137.0248353794643,234.87741388067678L1137.92669921875,235.83076081168983L1138.8285630580356,210.13690855830228L1139.0540290178571,192.95882503315252L1139.2794949776787,201.5178880310885L1139.7304268973214,206.9377032036935L1140.8577566964286,228.80497877638834L1141.08322265625,212.22274724118762L1141.3086886160713,211.77853393613935L1143.3378822544644,219.1774590223815L1145.1416099330356,228.80379473063036L1146.0434737723215,210.69685472398263L1146.4944056919642,224.17768853612085L1147.847201450893,211.69357712028673L1149.6509291294644,228.13135498323825L1149.8763950892858,219.89833953323085L1151.2291908482143,223.88357878465754L1151.9055887276786,227.5203204192516L1153.7093164062499,233.39793841291143L1153.9347823660714,216.5937859932573L1155.0621121651786,247.77380325433145L1155.738510044643,235.48238934595017L1155.9639760044643,221.7961973506365L1156.6403738839285,242.70028003005052L1157.3167717633928,256.00542492454724L1157.993169642857,251.2373335453504L1160.6987611607142,203.27584856838394L1161.600625,231.1750425761897L1163.17888671875,237.0077772092144L1164.5316824776787,254.26349744184083L1165.2080803571428,227.26230816473773L1165.4335463169643,225.61156627099302L1165.6590122767857,239.5830257263491L1166.33541015625,267.85713103332904L1166.5608761160715,244.68555275607363L1168.1391378348214,271.108732292023L1168.5900697544641,260.055202154701L1169.0410016741073,290.84708360106714L1170.3937974330356,241.7077214479598L1171.5211272321428,259.05824595002696L1171.7465931919644,268.4053760374333L1172.3778978794642,251.65894071890463" style="fill: none;" fill="none"></path></g></g></g></g><g opacity="0.2"><g><g><g><path stroke="rgb(0, 119, 187)" stroke-width="2px" d="M91.08824776785715,53.857142857142875L93.34290736607143,143.58173136076036L93.56837332589286,148.97896012965703L94.24477120535715,136.36892089546208L94.47023716517856,99.94796077255985L96.04849888392857,191.37127538155065L96.27396484375,131.97417735094666L99.20502232142857,192.11343543023526L100.78328404017857,249.95371371728197L101.00875,86.13153944494725L101.23421595982143,200.93790388029726L102.36154575892857,154.13723336682398L104.1652734375,224.36746737821147L104.39073939732144,156.4166867173278L105.06713727678572,236.8860020706941L105.29260323660715,287.4025432502634L105.96900111607142,211.77847513077612L106.19446707589285,180.32366154838004L107.54726283482142,149.8818963557456L108.67459263392858,202.77356263423937L110.25285435267858,232.64792082827967L112.50751395089286,196.70109033105086L113.40937779017857,350.1224703566403L114.31124162946429,265.5820075236371L117.46776506696429,132.73596971294157L118.36962890625,224.49123588784238L118.59509486607143,145.21181275382395L119.04602678571429,276.95608094223957L119.49695870535714,220.31200166221765L120.84975446428571,236.57842551756178L122.65348214285714,248.87701434443593L123.1044140625,226.52634879879923L123.32988002232143,312.73576983207L124.00627790178571,311.53457364664587L125.58453962053571,239.92905055772115L126.26093750000001,168.43004496563566L126.71186941964285,214.1418535974891L127.16280133928572,301.2933413530407L128.7410630580357,186.8811215989631L128.96652901785714,178.17224985711667L130.09385881696429,202.9595219210815L131.6721205357143,217.81555097786293L131.8975864955357,221.62940381481178L132.12305245535714,209.5514141598995L133.25038225446428,311.53457364664587L133.47584821428572,227.37122169292877L135.95597377232144,280.1183091074462L136.40690569196428,238.33880360963352L137.75970145089286,270.3305645941436L138.2106333705357,217.95523753663107L138.66156529017857,242.61872995444793L140.69075892857143,188.91908494630806L141.81808872767857,170.3214110021075L145.200078125,190.1299328203363L145.4255440848214,285.5617862830611L148.3566015625,208.14196901545264L148.5820675223214,281.9487060509877L148.80753348214284,168.12254479063475L151.28765904017857,281.33731416005514L151.96405691964284,215.7834098749447L152.86592075892855,186.06814365796183L153.7677845982143,321.7442389464733L154.44418247767857,194.06724521514423L155.12058035714287,186.72170821588546L155.5715122767857,283.5349221024935L156.69884207589286,242.36584877081427L157.1497739955357,224.17718254716104L157.37523995535713,162.60253043406155L159.62989955357142,211.13135450408782L160.53176339285713,299.0101953066143L161.43362723214287,209.91387759551213L161.88455915178574,210.73105259952882L162.11002511160714,233.7263479663302L162.78642299107142,196.198450495692L166.16841238839288,165.10391155446678L167.97214006696427,210.18602028237632L168.1976060267857,234.44421151335595L170.90319754464286,166.8329573700129L172.25599330357142,156.40153097359922L172.48145926339285,243.44966405616248L172.70692522321428,117.71861472241443L175.41251674107144,153.3862758382426L177.21624441964283,202.32242688491814L178.11810825892857,249.51842855215975L178.56904017857144,236.90585891854363L179.69636997767856,172.36071166003134L180.8236997767857,157.99685456728898L181.27463169642857,219.94603977813355L183.7547572544643,219.81478071526396L185.10755301339285,356.93556182265183L185.3330189732143,190.38458244509573L188.4895424107143,190.35061118432952L188.7150083705357,206.1655954853831L189.16594029017858,294.33919024269096L190.06780412946426,179.11925003508853L190.29327008928573,249.2285913759055L190.74420200892857,261.2524791655378L192.09699776785715,196.77916793746928L192.99886160714286,262.05071378868337L194.12619140625,214.22463922209857L195.0280552455357,287.28493907761435L195.704453125,235.01577107440886L196.15538504464286,214.87849947201232L197.0572488839286,263.6427540758509L197.28271484375,207.0264007149597L198.41004464285714,258.55012379972186L198.63551060267858,197.32626416813218L199.98830636160713,243.3583468276698L200.43923828125,179.01296307631475L201.56656808035714,204.67404003304136L205.1740234375,167.39843544160834L205.62495535714288,212.41784817563L205.8504213169643,326.5605170175019L206.0758872767857,175.81783638310148L206.75228515625,162.16964349361552L207.20321707589287,190.0959905834626L210.35974051339286,232.0124932893149L210.5852064732143,358.99230109609346L211.03613839285714,210.55833451375275L211.4870703125,166.96637028305813L211.93800223214285,160.31381572271687L212.83986607142856,187.628995739855L213.29079799107143,220.3589483628318L214.19266183035714,405.25239799120425L214.64359375,300.64097694881394L215.54545758928572,228.63337215683907L216.8982533482143,211.26796285059416L217.34918526785717,209.68727817311722L218.25104910714285,165.58016704699716L221.85850446428572,168.65889280724912L222.08397042410715,198.6067636460171L222.76036830357143,315.01084851928306L223.2113002232143,281.9949070706623L223.4367661830357,162.43238215020696L224.11316406249998,284.80301042191394L224.56409598214285,233.7852939114187L227.04422154017857,240.93357726120277L228.1715513392857,213.0861034450199L228.39701729910712,255.8085795258246L230.20074497767857,335.22943285730435L230.4262109375,242.14350713438148L231.55354073660715,222.89583886757046L231.77900669642858,170.40080411512798L232.68087053571426,277.69510729477383L233.582734375,219.65547880201612L234.93553013392858,235.5884528720339L235.16099609375,239.07787106251067L236.28832589285713,177.85453316754646L236.7392578125,131.36056943514913L238.31751953125,183.94978577933134L238.76845145089285,222.8484907145934L240.34671316964287,246.25341463794177L242.1504408482143,217.05303794912018L242.37590680803572,256.85757149500677L243.27777064732143,330.9110755924871L244.17963448660714,199.0785262953028L245.98336216517856,283.37243985749205L246.43429408482143,273.42285269333627L250.0417494419643,291.6309929823946L252.52187500000002,210.1315631997162L252.97280691964284,228.81687416811167L253.4237388392857,295.03820548240657L253.64920479910714,290.8804215203193L254.10013671875,183.5677468211349L254.32560267857144,242.60862119984046L254.77653459821428,216.431445673011L255.00200055803572,211.8697239501375L255.22746651785715,279.7283462023287L256.35479631696427,299.6589945245704L257.7075920758928,242.6693271340959L262.21691127232145,259.1271362789919L262.44237723214286,211.8697239501375L264.0206389508929,123.38128462721158L264.69703683035715,386.6320938361144L264.92250279017856,199.3846998231541L265.3734347098214,280.1527332651889L265.8243666294643,237.94005308600376L266.2752985491071,159.9379024984567L267.6280943080357,169.8533764645837L271.2355496651786,276.6042764126246L271.461015625,280.63519924538974L271.9119475446429,193.57760040062297L272.58834542410716,201.30765185241947L274.3920731026786,284.3952400091641L274.6175390625,237.58166184257627L276.64673270089287,228.28599743238993L277.5485965401786,232.00271480656616L278.2249944196429,223.75895154396838L279.35232421875,291.04705183360346L280.0287220982143,228.22812951006193L280.4796540178571,172.60860236871682L283.1852455357143,211.7602243698355L283.86164341517855,69.03717088975941L284.3125753348214,262.11553979370683L285.21443917410716,252.7568130476403L286.3417689732143,271.91177082223936L289.27282645089286,193.06303769976768L289.7237583705357,271.66623053251584L291.0765541294643,258.7850586323903L291.75295200892856,218.9910389873544L292.20388392857143,257.9102955658344L293.10574776785717,288.5809484007743L293.3312137276786,290.34546254751103L294.6840094866072,228.22812951006193L299.1933286830357,179.38102613041437L299.64426060267857,174.37383063426475L300.09519252232144,241.7194772997122L302.34985212053573,195.33376274621034L303.9281138392857,253.6585617267388L305.2809095982143,169.57608393966547L307.0846372767857,245.56788368791968L310.6920926339286,315.630837517067L311.3684905133929,94.99336222259238L312.27035435267857,128.5596660084403L313.6231501116071,238.70810814940685L314.07408203125,212.85707919127637L315.20141183035713,278.98426509325935L315.8778097098214,218.86955639988554L316.1032756696428,182.26753336860293L316.32874162946433,282.14506856276955L318.8088671875,134.3357653022608L320.38712890625,152.51752787361647L321.2889927455357,274.4682980920649L321.7399246651786,229.77487976069344L323.54365234374995,127.76714626973899L323.7691183035715,210.74013553100488L328.0529715401786,274.9190773075198L328.95483537946427,326.53372008007926L331.2094949776786,209.66915507093643L331.4349609375,125.07468583578942L331.88589285714284,252.70447343587966L332.7877566964286,196.7097760994937L334.81695033482146,241.6589405407681L337.5225418526786,320.92709108283975L338.42440569196424,199.5685550923364L338.87533761160716,243.10486147792025L339.5517354910714,275.4157316076941L340.0026674107143,352.2787425413248L340.4535993303571,232.3740334466691L342.7082589285714,173.7226880436607L342.9337248883929,203.4470968923176L343.61012276785715,225.27305211276274L343.83558872767856,159.47824045516447L344.51198660714283,256.28493391973564L345.18838448660716,169.28322380617297L345.63931640625,230.7456897882139L346.7666462053571,338.26902010622797L348.3449079241072,189.88396949183954L349.4722377232143,335.33990968654L349.69770368303574,317.4855555350838L351.95236328125,269.27737651786686L352.40329520089284,237.0051393395498L354.6579547991072,257.8144372031682L355.10888671875,233.99166145920896L355.3343526785714,208.1329649527939L356.9126143973215,252.0561702682319L358.03994419642856,248.2473042947608L358.9418080357143,236.47928717505383L359.1672739955357,261.2524791655378L361.6473995535714,210.1406495060982L363.4511272321429,211.48664050527995L364.3529910714286,279.3045628342302L365.4803208705357,255.459734744415L365.9312527901786,164.13816117174227L366.8331166294643,175.28460228048039L370.2151060267857,264.7415753123262L370.6660379464286,265.56014437489677L371.56790178571424,228.17027282608828L371.79336774553576,288.13258662545786L372.01883370535717,184.0162678988134L372.469765625,185.19897516780352L373.1461635044643,197.97889971399525L374.04802734375,230.78459456147576L375.40082310267854,214.56521226467737L376.3026869419643,184.40721722950434L377.4300167410714,170.16266930466853L378.7828125,410.75281168407105L379.4592103794643,280.6926838355148L380.58654017857145,212.14366000232283L381.26293805803573,209.08085062742614L382.3902678571429,403.4933573500474L382.6157338169643,245.32271304702243L383.29213169642856,174.9860791682355L384.1939955357143,247.41317219249294L386.2231891741071,279.0528830244618L387.8014508928572,337.04389626724173L388.4778487723214,226.53592630973924L388.70331473214287,198.09215377957383L390.7325083705357,235.03550365155962L392.98716796875004,169.73451330147637L393.66356584821426,245.47591496179243L395.0163616071428,183.34374914106056L396.3691573660715,289.55072364359347L397.27102120535716,235.66754293404946L399.75114676339285,236.94555291403313L399.97661272321426,252.58934367923766L400.8784765625,203.20764833932188L402.23127232142855,215.28443906638375L403.1331361607143,397.1536333279039L403.8095340401786,128.90486269026184L409.2207170758929,242.8211943964653L412.3772405133929,258.3046930168987L413.5045703125,260.06986739366954L413.95550223214286,238.61823259755383L414.18096819196427,264.41477122636337L414.40643415178573,278.0710294227107L414.63190011160714,194.5146644864573L416.4356277901786,279.3388930854744L418.23935546875,101.60747517937118L418.4648214285714,302.9243263512078L418.9157533482143,157.77603104156287L419.1412193080357,243.37863981383225L422.0722767857143,252.453336309998L422.52320870535715,190.24874087552476L425.0033342633929,170.71860727055363L425.6797321428571,255.31186178197345L426.58159598214286,354.2004205972021L427.4834598214286,204.5404214551188L428.3853236607143,238.72806300959257L429.9635853794643,199.94538699426417L430.1890513392857,247.9999195661477L430.41451729910716,233.85406721154146L430.86544921875,174.38187004107078L431.5418470982143,323.14647431302757L434.2474386160714,194.67830407129L435.60023437499996,167.49278310400456L436.2766322544643,398.6021050479334L436.5020982142857,124.30502664648219L438.7567578125,186.88952572522925L439.43315569196426,240.6218194814423L441.91328124999995,234.97633335597394L442.5896791294643,251.55522286541094L443.2660770089286,244.2727568926944L444.3934068080357,197.99632540739617L445.0698046875,266.29331716582874L447.09899832589286,164.94013624355387L449.5791238839286,211.09495499871255L450.70645368303576,207.13417378771527L451.1573856026786,273.88327886617583L456.56856863839283,156.4166867173278L458.3722963169643,242.37597339755627L458.8232282366071,214.5836356820791L459.49962611607145,197.44797767049667L460.852421875,260.2737985553194L461.0778878348214,157.79125687377424L462.6561495535714,242.9224661642566L464.4598772321429,151.01073002388955L465.3617410714285,282.642364416018L466.26360491071426,118.65160800972366L467.16546875,249.684180016717L467.8418666294643,243.6222393209258L468.29279854910715,258.44339876807794L469.6455943080357,269.299487798663L470.09652622767857,160.11429510750193L471.6747879464285,273.61367345188904L473.478515625,248.64976159644038L473.9294475446428,329.187571116535L474.60584542410714,203.36727342057253L475.05677734374996,228.71061390233572L475.2822433035715,194.53186818522832L475.5077092633929,243.0339193813958L477.08597098214284,235.16378550622304L477.9878348214286,230.99861527127223L478.21330078125,250.84700483792537L479.7915625,234.52297486422194L481.5952901785715,288.72266626006177L481.8207561383929,207.73664762045988L482.7226199776786,242.32542601208692L483.17355189732143,241.21545182078185L485.2027455357143,186.17697821754294L487.68287109374995,202.9240861208017L489.93753069196424,341.80543262017795L490.38846261160717,241.6286887967788L491.9667243303571,321.29584199877576L492.1921902901786,240.12969467948164L493.09405412946427,290.8923368068052L493.77045200892854,274.95290586584724L494.6723158482143,144.6286213590736L495.5741796875,173.5220014057824L499.63256696428573,176.39255162655112L500.5344308035714,346.80219198093107L501.43629464285715,252.7254131689131L502.1126925223214,131.93926538719904L503.46548828125,221.24297996500337L503.9164202008929,270.8195951702097L505.94561383928567,200.44561935545397L506.8474776785714,209.36129562947744L508.8766713169643,252.17109412192806L510.00400111607144,255.882630211392L510.22946707589284,255.95669930796126L510.4549330357143,277.43342064489224L514.0623883928571,232.56962826426707L515.1897181919643,297.04796097032573L516.7679799107143,271.3763289662735L517.6698437499999,271.3763289662735L518.3462416294643,265.11239411678616L519.6990373883929,177.11452218718844L519.9245033482143,196.50167684599052L520.1499693080357,177.277012737168L520.8263671875,254.22616837229063L521.9536969866072,211.81498000724267L523.3064927455357,257.09120016477397L523.5319587053572,258.9667528105721L525.7866183035715,237.55182128791165L526.0120842633928,292.00103747860345L526.9139481026785,243.38879891968026L527.1394140625,158.8817527138236L528.0412779017857,193.30305363624228L528.4922098214286,206.58671905408883L529.8450055803571,396.1354313090514L530.5214034598214,224.06306542658416L531.4232672991071,225.89425141802445L531.6487332589286,368.2577222751801L532.0996651785714,199.15722956120572L532.3251311383929,258.4860689251297L532.7760630580358,143.95210235407066L535.2561886160714,213.53549010384336L535.7071205357142,261.28481651594916L537.5108482142857,158.8053522194131L537.7363141741072,297.7777267777367L538.4127120535715,269.01187910181136L546.3040206473214,220.2932205763743L548.3332142857142,147.9608730687745L548.5586802455357,203.31404850827013L550.1369419642857,278.9385285846128L551.0388058035714,157.62385177910858L552.6170675223215,306.41383896830234L552.8425334821428,202.28706677972488L555.548125,277.12647742604184L556.2245228794643,255.03741358573956L558.2537165178571,341.45274036163886L560.5083761160714,160.9593440109791L562.3121037946428,186.73848771344686L562.5375697544644,248.72205384506285L562.9885016741072,194.0844435944781L563.6648995535714,209.43369818090184L565.0176953125,251.60738580444772L566.1450251116072,188.91908494630806L566.3704910714285,215.40449020537756L567.2723549107143,133.31032521630195L567.4978208705357,165.01031729436397L569.0760825892858,282.0641944953467L571.1052762276786,182.48246177619194L571.7816741071429,307.01614452936315L574.0363337053572,170.6788656997183L576.2909933035714,277.97984333819346L578.5456529017857,219.56179186770035L582.6040401785714,214.6388908077502L584.1823018973214,203.3406492026937L585.7605636160714,285.1646372438954L586.2114955357143,285.7371503262128L587.5642912946429,305.87527336069644L588.0152232142857,218.95364416824705L588.69162109375,244.6494958526753L588.9170870535714,171.5783939764553L590.2698828125,233.55943287081556L591.1717466517857,185.54131850356126L593.6518722098215,151.7407953091075L594.3282700892856,172.36071166003134L595.4555998883928,251.00309969687257L598.3866573660714,328.5927713289824L603.7978404017857,305.5876074011389L608.0816936383928,255.8297385893153L609.2090234375,199.06979203582586L609.4344893973214,231.56361938120276L611.6891489955358,274.4908248882385L612.365546875,251.4614122328921L613.4928766741072,308.2244812866668L615.2966043526786,296.198830392996L615.9730022321429,223.00950966480238L617.5512639508928,211.4684076134565L617.7767299107143,236.172153637451L618.0021958705357,356.6386449129131L618.4531277901785,220.1805812944961L619.8059235491071,206.2909752180095L621.3841852678572,289.5033359572027L624.5407087053571,81.80639075729533L627.0208342633929,254.4577417336071L628.1481640625,299.4629800219858L629.0500279017857,317.2644393544583L629.2754938616072,214.9153862186347L629.9518917410714,298.36280598540964L630.1773577008929,210.4674864212864L636.7158705357143,209.0446792261256L637.3922684151785,252.32785955498844L638.2941322544643,216.87661655202052L638.5195982142857,232.49137959037895L639.6469280133928,225.1680709113134L639.8723939732142,244.3338271789228L642.5779854910714,264.2950267738319L644.3817131696428,222.39429034129495L644.8326450892856,210.64013015893812L645.0581110491072,185.5162605053132L647.7637025669643,235.14404443062764L649.5674302455357,212.0340597073498L651.3711579241071,174.2450953716973L652.4984877232143,269.31057044224605L652.9494196428572,256.9106712427534L653.6258175223214,192.9174138586812L654.0767494419642,221.77091304888194L654.3022154017857,286.6742565241595L655.8804771205357,272.3698657266701L656.7823409598213,327.91831983258857L657.0078069196428,217.99250723485045L657.2332728794644,213.0861034450199L657.6842047991072,275.7548361094734L658.13513671875,122.37256503992938L659.2624665178571,197.33496818319566L659.7133984374999,167.5399587665137L661.5171261160714,198.36243823171074L667.6047070312501,270.5972138431711L667.8301729910714,236.15234563167803L668.2811049107142,209.43369818090184L670.3102985491072,252.98722164004903L670.5357645089285,341.0018624170647L672.1140262276787,127.03856162251451L672.7904241071428,227.987168540871L673.0158900669643,301.7125999010435L673.6922879464286,198.98235932682525L675.2705496651786,268.0956002645286L675.7214815848214,259.3625522878L676.8488113839285,177.99297543351605L679.5544029017858,291.13040195355643L679.7798688616072,256.3803013215625L681.5835965401785,349.38303347336563L681.8090625000001,225.32080997744225L683.38732421875,195.26470672767445L684.0637220982143,242.61872995444793L684.2891880580356,208.49370565229074L684.5146540178572,246.1509799820436L685.1910518973215,253.71106924373652L689.4749051339286,188.48000493962303L691.2786328125,161.06706818023252L691.5040987723214,135.15300799381578L692.1804966517858,192.93452556441667L693.7587583705357,199.23595362462854L694.4351562500001,216.32951176582137L694.8860881696429,185.54131850356126L695.5624860491072,218.5426774175849L696.4643498883928,277.14920612882685L698.4935435267857,235.97415641489752L699.8463392857143,155.87165525930183L700.748203125,213.63645042498624L700.9736690848214,260.86493535281846L701.8755329241072,290.5949943078815L702.1009988839286,130.13713216691585L702.32646484375,251.68039942098187L703.4537946428571,277.2287566977156L704.5811244419643,207.83568290391017L704.8065904017857,203.78445709503245L705.7084542410714,290.10799528358217L706.8357840401786,215.98691695764023L707.0612500000001,250.07819427962207L707.2867159598214,216.05170138487836L707.9631138392857,161.17483131627932L709.9923074776785,224.83423406697904L710.2177734375,244.43561454373824L710.4432393973215,283.45366990271316L711.5705691964287,240.92352552474944L711.79603515625,157.5706037701427L712.6978989955358,147.50461866050495L713.3742968749999,227.70791520582188L714.0506947544642,275.15601174405697L714.5016266741072,241.01409935145284L714.95255859375,97.82424893060441L715.6289564732143,173.80299290757887L717.2072181919643,166.1824109672788L719.9128097098214,330.0412824628449L720.3637416294642,300.2232520272214L723.2947991071428,328.4442808883015L723.5202650669643,143.748680653275L726.0003906249999,315.8119070978731L728.2550502232142,260.7143556418207L728.7059821428572,228.17992631893392L729.1569140625,266.67703266392067L730.5097098214286,248.22667695527542L732.0879715401786,244.98590212500966L732.3134375,233.03962249124328L733.440767299107,218.47734908820001L734.3426311383929,178.80868208422476L734.5680970982143,186.31934345378997L735.4699609375,284.8729819128493L738.4010184151786,333.9342011882356L738.8519503348215,285.03628484684026L739.077416294643,180.88245296289074L741.1066099330358,255.4174706405427L741.5575418526786,189.02896621542033L742.0084737723214,240.0193224942384L743.8122014508929,184.7736647932035L745.6159291294642,240.31036366708432L746.2923270089286,203.37613458951793L746.5177929687501,207.2959172491692L747.1941908482142,291.98907776688094L747.6451227678572,187.22542457833376L747.8705887276785,153.04896779661166L748.5469866071429,179.1846627478103L749.8997823660715,267.34697380853896L750.8016462053571,215.14599891737885L751.0271121651787,250.5039184528219L754.1836356026786,231.9636739208782L754.8600334821429,200.44561935545397L755.5364313616071,191.90852109815634L757.1146930803571,175.05866745021243L757.7910909598214,289.23104526202593L758.2420228794642,284.6631445071634L759.5948186383929,206.6943331558447L760.7221484375001,199.3496866714209L762.0749441964285,266.2823723194173L762.5258761160715,228.62372697882623L764.1041378348215,284.44182203547643L764.7805357142857,233.31412275195402L765.2314676339286,261.8563461034859L765.4569335937499,294.05043151924826L766.1333314732143,308.514675875033L767.7115931919642,332.2068570594261L769.7407868303571,238.8279764710944L770.8681166294643,335.06374503516514L771.9954464285714,86.84453985070485L773.1227762276786,396.8138458416153L776.0538337053572,191.1072571182627L776.504765625,107.32253250753111L778.7594252232143,229.03916679564318L780.3376869419642,297.8873489004293L781.0140848214286,191.46499588843608L782.1414146205357,240.2200274438663L784.1706082589286,233.45146778858762L784.39607421875,196.25039844191056L785.7488699776786,222.20523874070818L787.1016657366072,216.61684533342282L787.7780636160713,240.5916728642546L788.6799274553572,145.69380572154984L788.9053934151785,203.35839136775743L789.130859375,248.20605104391979L789.5817912946428,167.5163700014517L790.4836551339287,102.83288995320903L791.1600530133928,143.32057403113524L791.3855189732143,221.09233926905796L792.2873828124999,178.80868208422476L792.5128487723214,252.18153261944323L792.738314732143,263.9469668310283L793.86564453125,210.19508661152489L794.3165764508929,204.4603045363052L796.5712360491071,134.3920306510054L798.1494977678572,216.32951176582137L799.727759486607,156.64407928773292L800.4041573660714,281.6140315150489L804.4625446428571,181.87113575719408L805.5898744419643,201.95141808335822L807.6190680803572,204.34458275957385L808.2954659598214,197.12643191194982L808.7463978794643,188.5475058634865L810.3246595982143,210.9857397674363L811.2265234375,209.4880278346073L811.4519893973214,228.00644100440817L813.2557170758929,226.44964838674332L814.1575809151785,304.37745941374135L814.383046875,349.02126070436066L815.0594447544644,234.84813217592134L815.5103766741072,265.13419840919266L817.0886383928571,219.52434766859443L817.990502232143,156.3712398607671L818.8923660714286,274.6597898777671L819.7942299107142,147.02704104906024L820.2451618303572,342.653669040247L821.5979575892857,260.3382390112488L825.2054129464286,107.69546951258712L825.8818108258929,248.3401327037843L826.5582087053572,161.8916803084166L827.2346065848213,207.23300895950175L827.4600725446429,198.79886535859046L828.58740234375,205.94182817236572L830.3911300223215,267.10519183768474L831.7439257812499,236.63793855065518L832.4203236607142,250.49353857068454L832.6457896205358,182.86311062356887L834.4495172991071,264.7742676502522L836.2532449776786,272.81747852728495L839.184302455357,403.2503487342442L840.7625641741072,278.13941012561116L842.1153599330356,191.63550750122616L843.2426897321428,379.770551860703L845.7228152901786,254.60519124419056L847.52654296875,300.46889473477955L847.7520089285714,245.34311593921322L848.8793387276786,181.17047672501104L849.3302706473214,321.7706085003654L849.7812025669643,257.00621387749464L850.4576004464286,224.3865070865429L850.9085323660714,270.78623269056834L852.0358621651786,222.678081593948L852.2613281250001,143.32057403113524L854.0650558035713,209.95921384592899L854.2905217633928,208.6291095646831L854.9669196428572,207.71864279102942L856.5451813616071,204.4335824600185L857.2215792410715,302.6271294304149L857.447045200893,207.80865635596325L857.6725111607143,243.6831521741163L859.7017047991072,331.71514556881544L860.6035686383929,292.49111495324394L861.5054324776785,218.48669354339222L863.0836941964286,358.0814041093688L863.30916015625,191.16685042269177L864.436489955357,273.07516676190147L867.8184793526785,260.4134243589619L868.0439453125,236.8760623102179L868.9458091517856,284.185738717523L869.3967410714287,196.77916793746928L870.9750027901786,207.7006390496845L871.8768666294642,259.4481880079574L873.9060602678571,317.8240126241679L874.1315262276785,267.4679515315017L874.3569921875,307.58195157736355L874.5824581473215,194.1962470140635L874.8079241071429,249.78781226445489L875.7097879464286,328.2688466199504L876.1607198660714,107.36751526830324L876.6116517857142,221.07350892601602L877.2880496651786,211.7602243698355L877.9644475446429,216.59831786121012L878.1899135044642,133.61197439440718L878.8663113839285,188.36190003042697L881.3464369419643,239.7485887045045L882.6992327008928,138.28768490625686L884.0520284598214,277.7406532925388L886.0812220982142,250.9822806686753L886.3066880580357,267.65499470254684L887.4340178571429,242.9224661642566L888.1104157366071,272.02343245578913L889.4632114955358,244.09982873930022L890.3650753348214,168.08314800757358L891.266939174107,244.97571272902647L893.0706668526785,113.95643250597054L893.7470647321428,261.9751141468045L895.0998604910715,290.1435934037457L895.3253264508928,211.01303439741648L896.2271902901786,196.98748188347375L897.1290541294643,148.29250106688923L897.8054520089286,190.93706778170989L898.03091796875,158.09588254763415L898.7073158482142,243.04404257775525L900.7365094866071,194.66967732896285L903.4421010044642,225.1012736082826L903.6675669642858,212.70143185955575L903.893032924107,174.69590277713834L904.1184988839286,207.4487437258177L904.7948967633929,242.11320614718437L907.2750223214285,307.2046374925992L912.6862053571429,196.9787880147411L913.3626032366071,288.9590032120946L913.81353515625,252.51610698214958L914.2644670758929,226.49757240237412L914.9408649553571,299.8919202423316L915.391796875,165.09611865901235L915.8427287946428,228.7009662232699L916.5191266741072,210.58561167804035L916.7445926339286,249.02172676237342L920.8029799107143,241.60851465906805L923.0576395089286,263.25209037764137L924.6359012276786,122.9543563436456L925.5377650669642,221.56339516312087L925.7632310267857,249.01139839368668L926.8905608258929,158.4465957705266L927.1160267857143,259.4481880079574L927.7924246651786,366.8877878354866L930.2725502232142,258.7636886319915L930.4980161830357,183.92486128546625L933.2036077008928,178.67803596820545L933.4290736607144,294.95375498880514L933.8800055803572,217.93662664383808L934.1054715401785,199.472229836644L934.7818694196428,200.5949709135707L935.0073353794643,295.6542154162679L935.2328013392857,336.2530175026271L936.8110630580358,203.05698154793478L937.2619949776786,246.2329248888661L937.7129268973214,223.34130686055025L940.4185184151785,259.68383240633835L941.0949162946429,195.32513758775295L941.3203822544643,211.0767460624094L941.5458482142857,220.37773359289315L941.7713141741071,180.34828655347638L942.6731780133928,334.9671527905645L943.349575892857,225.7603458530516L946.7315652901785,261.75923552188897L947.1824972098215,119.7751025795941L948.53529296875,205.29833027048016L948.9862248883928,234.2867237945623L949.8880887276786,362.8305507410271L950.7899525669642,274.43449766855093L951.0154185267858,339.56924709181226L954.3974079241071,210.24955530828288L956.4266015625,117.54568390963432L956.8775334821429,185.38262025075878L957.3284654017857,278.16221624278444L958.0048632812501,244.38471651413627L958.4557952008929,175.81783638310148L959.1321930803572,185.2740754498066L961.16138671875,165.90851279627384L961.8377845982143,191.98535254523316L962.5141824776786,253.5430627384861L967.47443359375,243.8863415496492L968.6017633928572,212.1710827141906L969.9545591517857,236.25137521725313L970.6309570312501,246.71472134187985L971.5328208705357,250.20275162538863L972.8856166294644,169.647365782179L973.5620145089285,183.2276626114928L974.0129464285715,253.19685919912894L974.4638783482143,339.96182590736356L975.1402762276786,283.0129806902592L975.5912081473215,200.93790388029726L976.2676060267858,265.75694442434684L980.10052734375,191.16685042269177L980.3259933035715,222.6212926881512L981.0023911830357,197.81343757940598L982.806118861607,173.18516107180918L983.0315848214286,240.2099758217437L985.0607784598213,237.50208576622418L985.2862444196429,257.09120016477397L986.41357421875,160.0452578838647L986.6390401785715,181.46703176318135L986.8645061383928,178.9067335053124L987.5409040178571,166.7858748181518L988.8936997767858,288.8762583145882L990.021029575893,257.3356328534404L990.6974274553572,307.44354058847193L992.5011551339285,266.40289227670524L993.4030189732143,160.72863497092436L993.8539508928571,232.41312814980634L995.88314453125,301.78662895048575L997.010474330357,355.8680924273232L998.3632700892857,294.5800556476844L998.5887360491072,217.59217975501437L999.4905998883928,232.06132065916626L999.7160658482143,285.66700347206233L1001.2943275669643,216.4963268507187L1002.8725892857143,412.71651303918406L1004.2253850446428,251.56566466731434L1004.9017829241072,210.27678256951137L1005.35271484375,261.2955792879757L1005.5781808035714,204.22001934670166L1007.1564425223214,171.91342146034194L1008.50923828125,215.14599891737885L1008.9601702008929,223.50259246594595L1009.1856361607142,158.62973270139966L1009.636568080357,200.70046283334077L1010.5384319196429,257.70797535383724L1011.4402957589285,261.1017034928523L1012.5676255580357,194.8075502503175L1013.2440234375,189.74835594722168L1015.273217075893,347.261941338531L1015.7241489955358,378.9698412660153L1016.6260128348214,415.7589540142355L1017.97880859375,223.2464764072671L1018.6552064732143,255.10073115371048L1020.0080022321429,279.2587771297543L1022.7135937500001,309.703763217743L1023.6154575892857,220.41530760696523L1025.1937193080357,188.96979899226451L1025.8701171875,374.761633446206L1027.6738448660715,166.08063996531092L1028.3502427455358,210.59469017624264L1028.8011746651787,141.36201287596253L1030.60490234375,192.43817505234975L1030.8303683035713,435.91368031653354L1031.5067661830358,242.79080026580021L1032.8595619419643,464.16259315871565L1033.9868917410715,266.78674902602825L1037.1434151785713,371.9055121406149L1037.368881138393,234.65103616505561L1039.1726088169644,272.8959073343074L1040.2999386160714,237.93010184531485L1041.652734375,193.1144417341857L1042.1036662946428,167.31196851763815L1042.3291322544642,214.25223223161845L1043.681928013393,251.44056115289766L1045.9365876116071,245.5883277464094L1046.6129854910714,208.65618912306024L1047.0639174107143,239.82879110000826L1047.2893833705357,203.83774494275136L1047.514849330357,278.1850241059697L1048.416713169643,110.76075916732889L1050.6713727678573,194.22204587494065L1050.8968387276786,208.52981021424884L1051.3477706473213,230.14340713134536L1053.6024302455357,217.97387180292262L1053.827896205357,281.89097861326906L1057.6608175223214,296.51393516212994L1059.2390792410715,290.4404854821782L1060.1409430803571,266.40289227670524L1062.17013671875,296.53819224918715L1063.2974665178572,179.6676012582572L1064.4247963169644,173.46583489522223L1065.777592075893,263.7839681816273L1067.8067857142858,205.94182817236572L1068.7086495535714,189.03741099740265L1069.6105133928572,303.8177297918823L1070.2869112723213,216.21836093980698L1071.63970703125,174.00386898654895L1072.7670368303573,209.50611833280948L1074.1198325892858,204.22890591660808L1075.247162388393,247.11511216762162L1075.923560267857,205.49479714268324L1076.1490262276786,295.2192679276121L1077.7272879464285,284.53498017339604L1079.080083705357,210.794703981891L1079.531015625,261.7807957629055L1081.3347433035715,247.94840897437246L1082.236607142857,210.83106681827766L1082.9130050223214,335.865292571569L1083.5894029017857,118.65160800972366L1083.8148688616072,208.18705789021487L1085.6185965401787,168.4773881037674L1086.0695284598214,226.7085571523345L1088.5496540178572,381.65267497915534L1090.3533816964286,192.43817505234975L1091.7061774553572,257.1761853687108L1092.8335072544644,265.5492264305147L1093.73537109375,212.70143185955575L1095.5390987723215,266.1728154085726L1097.1173604910714,318.9201391384541L1100.7248158482143,247.89690728750216L1102.077611607143,171.15615277059186L1102.9794754464285,161.46754102877182L1106.36146484375,263.8165555965812L1107.7142606026787,214.89694227442098L1108.390658482143,288.48648850577234L1108.8415904017857,404.7985902189743L1110.1943861607144,250.4208152207978L1110.4198521205358,241.41696450102947L1111.09625,193.74930534356696L1111.9981138392857,196.12917313454702L1112.8999776785715,201.783735440579L1113.1254436383929,238.75804543761106L1113.3509095982142,240.3605942221558L1113.8018415178572,209.35223306189846L1115.1546372767857,279.4304961670246L1116.7328989955356,224.07256407130808L1117.1838309151785,337.4609878649367L1117.6347628348215,240.9738355858112L1118.536626674107,216.7003216844718L1119.2130245535714,205.244759266978L1119.4384905133927,322.90788183812737L1119.8894224330359,314.95926403152566L1121.693150111607,236.53878040491261L1123.4968777901786,291.32100818572263L1123.9478097098213,369.63398539747124L1127.1043331473215,181.02232945380112L1127.7807310267858,256.87880519653334L1128.45712890625,230.83322107851757L1128.9080608258928,162.35508418611076L1130.7117885044643,247.4028994397603L1131.61365234375,274.1531553096831L1132.2900502232144,127.04540358058865L1133.642845982143,191.07322364795775L1135.6720396205358,416.66506886012667L1136.7993694196427,169.43359027261207L1137.0248353794643,261.3925645200822L1137.92669921875,237.7409015254201L1138.8285630580356,164.69854242959605L1139.0540290178571,161.40588629221332L1139.2794949776787,219.3558288895874L1139.7304268973214,218.04842052590996L1140.8577566964286,277.87730592266206L1141.08322265625,181.68138321806336L1141.3086886160713,210.89473957534784L1143.3378822544644,234.50327620469966L1145.1416099330356,248.9803907888535L1146.0434737723215,177.57782209752975L1146.4944056919642,253.029142348825L1147.847201450893,188.26070737578027L1149.6509291294644,263.8926240381334L1149.8763950892858,204.13108341466852L1151.2291908482143,231.99295992572584L1151.9055887276786,234.9073005214263L1153.7093164062499,245.47591496179243L1153.9347823660714,185.67502998334805L1155.0621121651786,321.79701185997845L1155.738510044643,212.39042453913706L1155.9639760044643,196.25039844191056L1156.6403738839285,289.3494203490086L1157.3167717633928,284.4534547983611L1157.993169642857,241.95161279159072L1160.6987611607142,125.91475283149501L1161.600625,296.07770273486324L1163.17888671875,248.99071808257077L1164.5316824776787,291.9771470090532L1165.2080803571428,179.7823085413522L1165.4335463169643,222.3470218275954L1165.6590122767857,269.56524176764765L1166.33541015625,333.7829922915703L1166.5608761160715,203.2519753632989L1168.1391378348214,332.02919370447165L1168.5900697544641,239.167861559652L1169.0410016741073,363.7713072608001L1170.3937974330356,162.81145819595085L1171.5211272321428,296.999365695902L1171.7465931919644,287.9675780524283L1172.3778978794642,220.83826364599534" style="fill: none;" fill="none"></path></g></g></g></g></g></g><g transform="translate(20, 377)" clip-path="url(#clip_1)"><clipPath id="clip_1"><rect width="1262" height="23"></rect></clipPath><g><g><line x1="0" y1="0" x2="0" y2="5" style="visibility: inherit;" fill="rgb(0, 0, 0)" stroke="rgb(204, 204, 204)" stroke-width="1px"></line><line x1="90.18638392857143" y1="0" x2="90.18638392857143" y2="5" style="visibility: inherit;" fill="rgb(0, 0, 0)" stroke="rgb(204, 204, 204)" stroke-width="1px"></line><line x1="180.37276785714286" y1="0" x2="180.37276785714286" y2="5" style="visibility: inherit;" fill="rgb(0, 0, 0)" stroke="rgb(204, 204, 204)" stroke-width="1px"></line><line x1="270.5591517857143" y1="0" x2="270.5591517857143" y2="5" style="visibility: inherit;" fill="rgb(0, 0, 0)" stroke="rgb(204, 204, 204)" stroke-width="1px"></line><line x1="360.7455357142857" y1="0" x2="360.7455357142857" y2="5" style="visibility: inherit;" fill="rgb(0, 0, 0)" stroke="rgb(204, 204, 204)" stroke-width="1px"></line><line x1="450.93191964285717" y1="0" x2="450.93191964285717" y2="5" style="visibility: inherit;" fill="rgb(0, 0, 0)" stroke="rgb(204, 204, 204)" stroke-width="1px"></line><line x1="541.1183035714286" y1="0" x2="541.1183035714286" y2="5" style="visibility: inherit;" fill="rgb(0, 0, 0)" stroke="rgb(204, 204, 204)" stroke-width="1px"></line><line x1="631.3046875" y1="0" x2="631.3046875" y2="5" style="visibility: inherit;" fill="rgb(0, 0, 0)" stroke="rgb(204, 204, 204)" stroke-width="1px"></line><line x1="721.4910714285714" y1="0" x2="721.4910714285714" y2="5" style="visibility: inherit;" fill="rgb(0, 0, 0)" stroke="rgb(204, 204, 204)" stroke-width="1px"></line><line x1="811.6774553571429" y1="0" x2="811.6774553571429" y2="5" style="visibility: inherit;" fill="rgb(0, 0, 0)" stroke="rgb(204, 204, 204)" stroke-width="1px"></line><line x1="901.8638392857143" y1="0" x2="901.8638392857143" y2="5" style="visibility: inherit;" fill="rgb(0, 0, 0)" stroke="rgb(204, 204, 204)" stroke-width="1px"></line><line x1="992.0502232142857" y1="0" x2="992.0502232142857" y2="5" style="visibility: inherit;" fill="rgb(0, 0, 0)" stroke="rgb(204, 204, 204)" stroke-width="1px"></line><line x1="1082.236607142857" y1="0" x2="1082.236607142857" y2="5" style="visibility: inherit;" fill="rgb(0, 0, 0)" stroke="rgb(204, 204, 204)" stroke-width="1px"></line><line x1="1172.4229910714287" y1="0" x2="1172.4229910714287" y2="5" style="visibility: inherit;" fill="rgb(0, 0, 0)" stroke="rgb(204, 204, 204)" stroke-width="1px"></line><line x1="1262.609375" y1="0" x2="1262.609375" y2="5" style="visibility: inherit;" fill="rgb(0, 0, 0)" stroke="rgb(204, 204, 204)" stroke-width="1px"></line></g><g transform="translate(0, 8)"><text x="0" y="0" dx="0em" dy="0.95em" style="text-anchor: middle; visibility: hidden; font-family: Roboto, sans-serif; font-size: 12px; font-weight: 200;" fill="rgb(255, 255, 255)" stroke="none" stroke-width="1px">-2k</text><text x="90.18638392857143" y="0" dx="0em" dy="0.95em" style="text-anchor: middle; visibility: inherit; font-family: Roboto, sans-serif; font-size: 12px; font-weight: 200;" fill="rgb(255, 255, 255)" stroke="none" stroke-width="1px">0</text><text x="180.37276785714286" y="0" dx="0em" dy="0.95em" style="text-anchor: middle; visibility: inherit; font-family: Roboto, sans-serif; font-size: 12px; font-weight: 200;" fill="rgb(255, 255, 255)" stroke="none" stroke-width="1px">2k</text><text x="270.5591517857143" y="0" dx="0em" dy="0.95em" style="text-anchor: middle; visibility: inherit; font-family: Roboto, sans-serif; font-size: 12px; font-weight: 200;" fill="rgb(255, 255, 255)" stroke="none" stroke-width="1px">4k</text><text x="360.7455357142857" y="0" dx="0em" dy="0.95em" style="text-anchor: middle; visibility: inherit; font-family: Roboto, sans-serif; font-size: 12px; font-weight: 200;" fill="rgb(255, 255, 255)" stroke="none" stroke-width="1px">6k</text><text x="450.93191964285717" y="0" dx="0em" dy="0.95em" style="text-anchor: middle; visibility: inherit; font-family: Roboto, sans-serif; font-size: 12px; font-weight: 200;" fill="rgb(255, 255, 255)" stroke="none" stroke-width="1px">8k</text><text x="541.1183035714286" y="0" dx="0em" dy="0.95em" style="text-anchor: middle; visibility: inherit; font-family: Roboto, sans-serif; font-size: 12px; font-weight: 200;" fill="rgb(255, 255, 255)" stroke="none" stroke-width="1px">10k</text><text x="631.3046875" y="0" dx="0em" dy="0.95em" style="text-anchor: middle; visibility: inherit; font-family: Roboto, sans-serif; font-size: 12px; font-weight: 200;" fill="rgb(255, 255, 255)" stroke="none" stroke-width="1px">12k</text><text x="721.4910714285714" y="0" dx="0em" dy="0.95em" style="text-anchor: middle; visibility: inherit; font-family: Roboto, sans-serif; font-size: 12px; font-weight: 200;" fill="rgb(255, 255, 255)" stroke="none" stroke-width="1px">14k</text><text x="811.6774553571429" y="0" dx="0em" dy="0.95em" style="text-anchor: middle; visibility: inherit; font-family: Roboto, sans-serif; font-size: 12px; font-weight: 200;" fill="rgb(255, 255, 255)" stroke="none" stroke-width="1px">16k</text><text x="901.8638392857143" y="0" dx="0em" dy="0.95em" style="text-anchor: middle; visibility: inherit; font-family: Roboto, sans-serif; font-size: 12px; font-weight: 200;" fill="rgb(255, 255, 255)" stroke="none" stroke-width="1px">18k</text><text x="992.0502232142857" y="0" dx="0em" dy="0.95em" style="text-anchor: middle; visibility: inherit; font-family: Roboto, sans-serif; font-size: 12px; font-weight: 200;" fill="rgb(255, 255, 255)" stroke="none" stroke-width="1px">20k</text><text x="1082.236607142857" y="0" dx="0em" dy="0.95em" style="text-anchor: middle; visibility: inherit; font-family: Roboto, sans-serif; font-size: 12px; font-weight: 200;" fill="rgb(255, 255, 255)" stroke="none" stroke-width="1px">22k</text><text x="1172.4229910714287" y="0" dx="0em" dy="0.95em" style="text-anchor: middle; visibility: inherit; font-family: Roboto, sans-serif; font-size: 12px; font-weight: 200;" fill="rgb(255, 255, 255)" stroke="none" stroke-width="1px">24k</text><text x="1262.609375" y="0" dx="0em" dy="0.95em" style="text-anchor: middle; visibility: hidden; font-family: Roboto, sans-serif; font-size: 12px; font-weight: 200;" fill="rgb(255, 255, 255)" stroke="none" stroke-width="1px">26k</text></g><line x1="0" y1="0" x2="1262.609375" y2="0" fill="rgb(0, 0, 0)" stroke="rgb(204, 204, 204)" stroke-width="1px"></line></g></g></g></g></svg>