<svg viewBox="0 0 1283 400" xmlns="http://www.w3.org/2000/svg"><g><g><g><g><g><line x1="20.390625" y1="302.02917339305475" x2="15.390625" y2="302.02917339305475" style="visibility: inherit;" fill="rgb(0, 0, 0)" stroke="rgb(204, 204, 204)" stroke-width="1px"></line><line x1="20.390625" y1="228.81048906641638" x2="15.390625" y2="228.81048906641638" style="visibility: inherit;" fill="rgb(0, 0, 0)" stroke="rgb(204, 204, 204)" stroke-width="1px"></line><line x1="20.390625" y1="172.01766529412993" x2="15.390625" y2="172.01766529412993" style="visibility: inherit;" fill="rgb(0, 0, 0)" stroke="rgb(204, 204, 204)" stroke-width="1px"></line><line x1="20.390625" y1="125.61454952446253" x2="15.390625" y2="125.61454952446253" style="visibility: inherit;" fill="rgb(0, 0, 0)" stroke="rgb(204, 204, 204)" stroke-width="1px"></line><line x1="20.390625" y1="86.38127416316762" x2="15.390625" y2="86.38127416316762" style="visibility: inherit;" fill="rgb(0, 0, 0)" stroke="rgb(204, 204, 204)" stroke-width="1px"></line><line x1="20.390625" y1="52.39586519782424" x2="15.390625" y2="52.39586519782424" style="visibility: inherit;" fill="rgb(0, 0, 0)" stroke="rgb(204, 204, 204)" stroke-width="1px"></line><line x1="20.390625" y1="22.41860998250864" x2="15.390625" y2="22.41860998250864" style="visibility: inherit;" fill="rgb(0, 0, 0)" stroke="rgb(204, 204, 204)" stroke-width="1px"></line></g><g transform="translate(10.390625, 0)"><text x="0" y="302.02917339305475" dx="0em" dy="0.3em" style="text-anchor: end; visibility: inherit; font-family: Roboto, sans-serif; font-size: 12px; font-weight: 200;" fill="rgb(255, 255, 255)" stroke="none" stroke-width="1px">3</text><text x="0" y="228.81048906641638" dx="0em" dy="0.3em" style="text-anchor: end; visibility: inherit; font-family: Roboto, sans-serif; font-size: 12px; font-weight: 200;" fill="rgb(255, 255, 255)" stroke="none" stroke-width="1px">4</text><text x="0" y="172.01766529412993" dx="0em" dy="0.3em" style="text-anchor: end; visibility: inherit; font-family: Roboto, sans-serif; font-size: 12px; font-weight: 200;" fill="rgb(255, 255, 255)" stroke="none" stroke-width="1px">5</text><text x="0" y="125.61454952446253" dx="0em" dy="0.3em" style="text-anchor: end; visibility: inherit; font-family: Roboto, sans-serif; font-size: 12px; font-weight: 200;" fill="rgb(255, 255, 255)" stroke="none" stroke-width="1px">6</text><text x="0" y="86.38127416316762" dx="0em" dy="0.3em" style="text-anchor: end; visibility: inherit; font-family: Roboto, sans-serif; font-size: 12px; font-weight: 200;" fill="rgb(255, 255, 255)" stroke="none" stroke-width="1px">7</text><text x="0" y="52.39586519782424" dx="0em" dy="0.3em" style="text-anchor: end; visibility: inherit; font-family: Roboto, sans-serif; font-size: 12px; font-weight: 200;" fill="rgb(255, 255, 255)" stroke="none" stroke-width="1px">8</text><text x="0" y="22.41860998250864" dx="0em" dy="0.3em" style="text-anchor: end; visibility: inherit; font-family: Roboto, sans-serif; font-size: 12px; font-weight: 200;" fill="rgb(255, 255, 255)" stroke="none" stroke-width="1px">9</text></g><line x1="20.390625" y1="0" x2="20.390625" y2="377" fill="rgb(0, 0, 0)" stroke="rgb(204, 204, 204)" stroke-width="1px"></line></g></g><g transform="translate(20, 0)" clip-path="url(#clip_0)"><clipPath id="clip_0"><rect width="1262" height="377"></rect></clipPath><g><g><g><line x1="0" y1="0" x2="0" y2="377" fill="rgb(0, 0, 0)" stroke="rgb(189, 189, 189)" stroke-width="1px" opacity="0.25"></line><line x1="157.826171875" y1="0" x2="157.826171875" y2="377" fill="rgb(0, 0, 0)" stroke="rgb(189, 189, 189)" stroke-width="1px" opacity="0.25"></line><line x1="315.65234375" y1="0" x2="315.65234375" y2="377" fill="rgb(0, 0, 0)" stroke="rgb(189, 189, 189)" stroke-width="1px" opacity="0.25"></line><line x1="473.478515625" y1="0" x2="473.478515625" y2="377" fill="rgb(0, 0, 0)" stroke="rgb(189, 189, 189)" stroke-width="1px" opacity="0.25"></line><line x1="631.3046875" y1="0" x2="631.3046875" y2="377" fill="rgb(0, 0, 0)" stroke="rgb(189, 189, 189)" stroke-width="1px" opacity="0.25"></line><line x1="789.130859375" y1="0" x2="789.130859375" y2="377" fill="rgb(0, 0, 0)" stroke="rgb(189, 189, 189)" stroke-width="1px" opacity="0.25"></line><line x1="946.95703125" y1="0" x2="946.95703125" y2="377" fill="rgb(0, 0, 0)" stroke="rgb(189, 189, 189)" stroke-width="1px" opacity="0.25"></line><line x1="1104.783203125" y1="0" x2="1104.783203125" y2="377" fill="rgb(0, 0, 0)" stroke="rgb(189, 189, 189)" stroke-width="1px" opacity="0.25"></line><line x1="1262.609375" y1="0" x2="1262.609375" y2="377" fill="rgb(0, 0, 0)" stroke="rgb(189, 189, 189)" stroke-width="1px" opacity="0.25"></line></g><g><line x1="0" y1="302.02917339305475" x2="1262.609375" y2="302.02917339305475" fill="rgb(0, 0, 0)" stroke="rgb(189, 189, 189)" stroke-width="1px" opacity="0.25"></line><line x1="0" y1="228.81048906641638" x2="1262.609375" y2="228.81048906641638" fill="rgb(0, 0, 0)" stroke="rgb(189, 189, 189)" stroke-width="1px" opacity="0.25"></line><line x1="0" y1="172.01766529412993" x2="1262.609375" y2="172.01766529412993" fill="rgb(0, 0, 0)" stroke="rgb(189, 189, 189)" stroke-width="1px" opacity="0.25"></line><line x1="0" y1="125.61454952446253" x2="1262.609375" y2="125.61454952446253" fill="rgb(0, 0, 0)" stroke="rgb(189, 189, 189)" stroke-width="1px" opacity="0.25"></line><line x1="0" y1="86.38127416316762" x2="1262.609375" y2="86.38127416316762" fill="rgb(0, 0, 0)" stroke="rgb(189, 189, 189)" stroke-width="1px" opacity="0.25"></line><line x1="0" y1="52.39586519782424" x2="1262.609375" y2="52.39586519782424" fill="rgb(0, 0, 0)" stroke="rgb(189, 189, 189)" stroke-width="1px" opacity="0.25"></line><line x1="0" y1="22.41860998250864" x2="1262.609375" y2="22.41860998250864" fill="rgb(0, 0, 0)" stroke="rgb(189, 189, 189)" stroke-width="1px" opacity="0.25"></line></g></g></g><g><g><line x1="157.826171875" y1="0" x2="157.826171875" y2="377" fill="rgb(0, 0, 0)" stroke="rgb(153, 153, 153)" stroke-width="1.5px"></line></g></g><g><g><g><g><g><path stroke="rgb(51, 187, 238)" stroke-width="2px" d="M157.826171875,53.857142857142875L159.40443359375,73.67073144515898L160.9826953125,92.3056967813397L162.56095703125,99.7393583613323L164.13921875,109.5551724150345L165.71748046875,121.92323804731122L167.2957421875,124.1262493309354L168.87400390625,133.28855267393504L170.45226562500002,144.160249415283L172.03052734375,149.86827404950122L173.60878906250002,153.27452874807548L175.18705078125,160.25467850799646L176.76531250000002,166.08571047816434L178.34357421874998,167.0927346060853L179.9218359375,175.1871953753674L181.50009765624998,176.76646309701414L183.078359375,183.64455855081704L184.65662109374998,189.77470178526798L186.2348828125,202.5761065535142L187.81314453125,201.97291633431453L189.39140625,203.05269544390222L190.96966796875,204.53630498152765L192.5479296875,220.97764292011604L194.12619140625,222.2465453043342L195.704453125,214.2866072270671L197.28271484375,222.06638398963756L198.8609765625,215.51027095133534L200.43923828125,213.9676917567316L202.0175,215.53042193680113L203.59576171875,223.51008471787756L205.1740234375,225.75276869306163L206.75228515625,216.5810584903526L208.330546875,208.87437389935306L209.90880859375002,208.15853392900186L211.4870703125,227.6700368476093L213.06533203125002,228.7420602054225L214.64359375,227.9185309857L216.22185546875002,242.730147709609L217.80011718749998,251.5525740715555L219.37837890625,261.96862414607284L220.95664062499998,260.6091785680761L222.53490234375,246.6042644951826L224.11316406249998,230.2209217333646L225.69142578125,227.1556611749489L227.2696875,238.7474352709587L228.84794921875,244.2071354982509L230.4262109375,250.56908621838687L232.00447265625,244.24641473110165L233.582734375,245.9141173759953L235.16099609375,248.88220047057698L236.7392578125,253.9209934651802L238.31751953125,260.406220470917L239.89578125,258.25985879285855L241.47404296875,247.45629033436455L243.0523046875,259.13869394976894L244.63056640625,244.56610357444134L246.208828125,247.74636189803275L247.78708984375,249.748193814122L249.36535156250002,261.35453478681166L250.94361328125,268.2497846005401L252.52187500000002,264.9168014569448L254.10013671875,262.16316286697236L255.67839843750002,271.78196419174503L257.25666015625,280.0903323345874L258.83492187499996,272.40552561101197L260.41318359375,264.8245831630551L261.9914453125,258.6979077027243L263.56970703125,265.3717006217675L265.14796875,270.98931668598794L266.72623046875,270.1409449369732L268.3044921875,260.63454308281536L269.88275390625,261.7241695465295L271.461015625,256.3532225543538L273.03927734375,262.1622683586555L274.6175390625,276.59705920031007L276.19580078125,273.61112823723323L277.7740625,277.4073425264538L279.35232421875,276.77086933748114L280.9305859375,273.4999781322227L282.50884765625,273.6862875915152L284.087109375,276.66952117358795L285.66537109375,261.3415490823702L287.2436328125,273.1184238837659L288.82189453125,272.7389820550598L290.40015625,257.91249092333754L291.97841796875,259.86666878135674L293.55667968750004,249.19812122893345L295.13494140625,250.51341334286866L296.713203125,270.93576993911677L298.29146484374996,281.3924939715144L299.8697265625,279.4269346247241L301.44798828125,281.4444673282425L303.02625,279.3005620728341L304.60451171875,285.4044777235498L306.1827734375,282.94780463862077L307.76103515625,277.54178630629116L309.339296875,283.0567392662737L310.91755859375,270.42716832112626L312.4958203125,266.95503916323776L314.07408203125,262.85958341347975L315.65234375,270.2422269731564L317.23060546874996,284.0784444613201L318.8088671875,269.3089349236637L320.38712890625,270.63976538107994L321.965390625,274.9868841929591L323.54365234374995,275.5660263660761L325.1219140625,282.40724606134944L326.70017578125,290.4430917665624L328.2784375,292.0162232756626L329.85669921874995,283.673238666111L331.4349609375,286.8556647524672L333.01322265625,291.7257002407761L334.591484375,292.5581365881446L336.16974609375,289.6438981912501L337.7480078125,283.5633939763003L339.32626953125,297.32524896340544L340.90453125000005,283.2503278964359L342.48279296875,295.28014084112135L344.0610546875,294.4651192052149L345.63931640625,283.973470040233L347.21757812500005,279.07855669415267L348.79583984375,293.6070655973176L350.3741015625,275.15852812610194L351.95236328125,278.55311385858477L353.53062500000004,298.49129696809035L355.10888671875,289.0848912305875L356.68714843749996,272.44877391209263L358.26541015625,281.5326718609054L359.843671875,276.13658524562203L361.42193359375,293.28072377667195L363.00019531249995,293.7633890292264L364.57845703125,278.86962838598436L366.15671875,282.06640957497996L367.73498046875,293.2565184363273L369.31324218749995,294.79166378522484L370.89150390625,294.6191736868793L372.469765625,288.93979004936426L374.04802734375,283.1658169925992L375.6262890625,280.7955351543751L377.20455078125,289.7172419338242L378.7828125,276.9950814837736L380.36107421875005,275.1573754099876L381.9393359375,291.12890433016577L383.51759765625,285.6335480002047L385.095859375,288.3719643357475L386.67412109375005,280.4188684077162L388.2523828125,278.73652793201205L389.83064453125,291.0484937546167L391.40890625,292.9707994462794L392.98716796875004,295.5348508497442L394.5654296875,283.4894941158803L396.14369140624996,288.6332964214483L397.721953125,283.7983809219223L399.30021484375,277.7042983867863L400.8784765625,268.935561141374L402.45673828124995,277.4610704239399L404.035,281.83699236798515L405.61326171875,282.1226202409868L407.1915234375,287.60984487842364L408.76978515624995,281.9113592615468L410.348046875,271.28780700674673L411.92630859375,284.56708948421436L413.5045703125,283.93700648727724L415.08283203125,284.3944959607274L416.66109375,279.09446822383023L418.23935546875,274.93871261975926L419.81761718750005,275.6615762745229L421.39587890625,265.23692732347445L422.974140625,276.02622735398353L424.55240234375,274.722434481995L426.13066406250005,277.4521526096198L427.70892578125,284.95691182403834L429.2871875,272.53662476364696L430.86544921875,265.9695109422704L432.44371093750004,267.1015111322489L434.02197265625,283.5599053854344L435.60023437499996,294.14108334561786L437.17849609375,282.03682518682L438.7567578125,299.933986730263L440.33501953125,312.3825872146773L441.91328124999995,290.8440626772189L443.49154296875,271.9461140119294L445.0698046875,284.76391601244933L446.64806640625,289.4852087438409L448.22632812499995,281.22568859227493L449.80458984375,279.79400260944004L451.3828515625,272.3576970006292L452.96111328125,285.42614820263725L454.539375,297.22526220894076L456.11763671875,286.85544875206824L457.6958984375,282.75602099726876L459.27416015625005,282.67985718859234L460.852421875,283.9743817992258L462.43068359375,279.81556046381957L464.0089453125,276.6594788250419L465.58720703125005,284.651006850074L467.16546875,269.81337847899385L468.74373046875,270.3636234881346L470.3219921875,282.3345588794293L471.90025390625004,288.7633634428598L473.478515625,292.2845533062808L475.05677734374996,292.9068097070629L476.6350390625,289.81399571870895L478.21330078125,289.62755468719007L479.7915625,289.19074934895093L481.36982421874995,287.9225664367126L482.9480859375,289.4976316162038L484.52634765625,277.6760396633638L486.104609375,283.142840143525L487.68287109374995,280.4313260442484L489.2611328125,279.21323926064593L490.83939453125,276.4526834304179L492.41765625,293.44011895521754L493.99591796875,287.81728921973985L495.5741796875,303.23524682006484L497.15244140625,288.7300607927252L498.73070312500005,288.63669480330196L500.30896484375,293.0373366156011L501.8872265625,288.42630942460625L503.46548828125,273.5305660223952L505.04375000000005,282.3155431324419L506.62201171875,278.09733709990394L508.2002734375,270.922730759694L509.77853515625,276.7490013947378L511.35679687500004,292.07392458282317L512.93505859375,300.6691966321802L514.5133203125,311.6752212455276L516.09158203125,295.8725679096029L517.6698437499999,299.3775354540266L519.24810546875,292.3286684259931L520.8263671875,300.18553126558373L522.40462890625,297.61638782397523L523.982890625,292.14400777585297L525.56115234375,284.93718194266506L527.1394140625,283.1835832951268L528.71767578125,294.3302173316041L530.2959375,281.91854663048576L531.87419921875,285.362961487594L533.4524609375,304.0252659046673L535.03072265625,298.649510755201L536.608984375,303.67612418276923L538.18724609375,313.8011399679931L539.7655078125,302.35767714988134L541.34376953125,312.71819873282436L542.92203125,311.4863894398444L544.50029296875,298.0621494406823L546.0785546875,312.86933038477406L547.6568164062501,305.390247808733L549.235078125,313.76239366258847L550.81333984375,302.0097986134564L552.3916015625,305.1694944741589L553.96986328125,305.2444317295308L555.548125,307.1263459103153L557.1263867187499,301.3051395446032L558.7046484375,285.66337188303874L560.28291015625,291.42886231484107L561.861171875,287.42398484888116L563.43943359375,293.3023746337087L565.0176953125,292.7293589836319L566.59595703125,285.7595057393722L568.17421875,285.0385027109488L569.75248046875,283.0506437443352L571.3307421875,293.71883464604383L572.90900390625,294.0831088076913L574.487265625,294.1199015629631L576.06552734375,288.8484763600476L577.6437890625,286.00588334185653L579.22205078125,289.8567332544614L580.8003125,292.9020526548072L582.37857421875,291.4310612437246L583.9568359375,304.1045353534961L585.53509765625,284.2622299634373L587.1133593750001,277.9284774416276L588.69162109375,297.0389832958539L590.2698828125,282.6257831370564L591.84814453125,288.2150291942296L593.42640625,296.38375435356085L595.00466796875,305.9735403447047L596.5829296874999,308.3665979939224L598.16119140625,296.29991543552256L599.739453125,284.15211894954757L601.31771484375,288.690543875342L602.8959765625,280.24702490998027L604.47423828125,280.50359196505786L606.0525,282.29518464046237L607.63076171875,280.7492603380324L609.2090234375,291.1770671876293L610.78728515625,290.62598847246426L612.365546875,305.94354927684594L613.94380859375,307.92848904109695L615.5220703125,311.9582766387774L617.10033203125,297.50137589282787L618.67859375,288.93577678717475L620.25685546875,282.4983972346427L621.8351171875,279.97271495927765L623.41337890625,269.3166033487561L624.991640625,278.78157815624576L626.5699023437501,270.6882359409634L628.1481640625,271.05004932407877L629.72642578125,291.9811796937582L631.3046875,297.6135812221323L632.88294921875,287.7109799925514L634.4612109374999,280.1427603880589L636.03947265625,291.2417882804569L637.617734375,290.50916765061834L639.19599609375,298.56231800546146L640.7742578125,290.751757746828L642.3525195312501,299.50502021983925L643.93078125,296.60935908345175L645.50904296875,287.9638696197184L647.0873046874999,288.91635405191494L648.66556640625,293.1392261594437L650.243828125,298.86007062637333L651.82208984375,305.62326316664075L653.4003515625,286.2652070865492L654.9786132812501,274.55075852027505L656.556875,262.7158152852182L658.13513671875,276.8074102193657L659.7133984374999,286.5007786361831L661.29166015625,285.1272004585634L662.869921875,286.02211029661373L664.44818359375,295.01966726189784L666.0264453125,294.8645442291385L667.6047070312501,286.6471379196332L669.18296875,281.17953096494875L670.76123046875,286.3594754730493L672.3394921875,267.96629859813584L673.9177539062499,268.20473127239524L675.496015625,281.0942337656133L677.07427734375,287.2809831867818L678.6525390625,272.484864429571L680.23080078125,271.06995491147535L681.8090625000001,275.5564431595949L683.38732421875,279.1218412670903L684.9655859375,286.9515131565919L686.5438476562499,284.73377207732005L688.122109375,295.04645102774305L689.70037109375,291.13015671897824L691.2786328125,280.9069322416238L692.85689453125,283.53345581110193L694.4351562500001,287.08983827013947L696.01341796875,288.55738203769204L697.5916796875,292.45362030806996L699.1699414062499,300.3867570279385L700.748203125,293.69398925828085L702.32646484375,304.027505534993L703.9047265625,301.84179157647134L705.48298828125,292.47446573835026L707.0612500000001,305.0035594943546L708.63951171875,303.0599218528123L710.2177734375,301.2194285490538L711.79603515625,305.29268082050146L713.3742968749999,294.5109455935512L714.95255859375,293.7237322052429L716.5308203125,292.7659856137885L718.10908203125,293.11318887843976L719.68734375,287.78906978898925L721.2656054687501,300.64342008098714L722.8438671875,299.1059268221038L724.42212890625,311.2707724730522L726.0003906249999,305.3208023003736L727.57865234375,292.4655645281699L729.1569140625,297.9405145562364L730.73517578125,293.1776627382642L732.3134375,286.82816403917155L733.8916992187501,287.1576814715078L735.4699609375,301.13105116274744L737.04822265625,301.77013032602287L738.6264843749999,295.9674850039281L740.20474609375,296.607665733536L741.7830078125,285.77096225507967L743.36126953125,299.23085708531426L744.93953125,306.59988502296466L746.5177929687501,303.33228038173365L748.0960546875,292.9239622897466L749.67431640625,293.7336414708818L751.252578125,280.3766162080123L752.8308398437499,277.8001050945939L754.4091015625,277.78283895195517L755.98736328125,288.671117088256L757.565625,283.4250745227399L759.14388671875,282.6625277464128L760.7221484375001,285.58324324590376L762.30041015625,282.0655965818261L763.878671875,287.2419681757464L765.4569335937499,295.45722500204295L767.0351953125,297.1076065329931L768.61345703125,293.5192617890217L770.19171875,291.0757473244308L771.76998046875,274.93923941814273L773.3482421875001,289.4485795890516L774.92650390625,277.3052186842579L776.504765625,279.9064876546785L778.0830273437499,277.9407498264576L779.6612890625,282.1461796073317L781.23955078125,287.51879429059005L782.8178125,281.360422871739L784.39607421875,277.386386461245L785.9743359375001,287.4705658093435L787.55259765625,294.3933450702923L789.130859375,283.49515875456825L790.70912109375,298.02651243180264L792.2873828124999,295.5353856960616L793.86564453125,290.01951915549637L795.44390625,284.7722098295326L797.02216796875,290.0416945910217L798.6004296875,294.849321200406L800.1786914062501,280.6795264099997L801.756953125,263.7219365148301L803.33521484375,272.9121407079877L804.9134765624999,283.0856558330315L806.49173828125,281.1443131667294L808.07,286.8902833866285L809.64826171875,294.9919081283194L811.2265234375,304.66350093092245L812.8047851562501,315.5316310771123L814.383046875,303.1249769294291L815.96130859375,314.46128695630694L817.5395703124999,302.20722444885195L819.11783203125,308.39536130738406L820.69609375,309.67374969813216L822.27435546875,305.36352688090943L823.8526171875,290.5187692729653L825.4308789062501,283.506773988139L827.009140625,291.5896919872678L828.58740234375,274.83221823598495L830.1656640625,287.1210711187716L831.7439257812499,277.1807653805884L833.3221875,287.35214243530066L834.90044921875,288.9644454563003L836.4787109375,288.9891612721184L838.05697265625,283.70897754147626L839.6352343750001,279.2112362793105L841.21349609375,274.11473885285244L842.7917578125,270.5733053083102L844.3700195312499,285.47680892451297L845.94828125,280.91628766761903L847.52654296875,285.6485767091649L849.1048046875,313.08832993021554L850.68306640625,320.4787335361095L852.2613281250001,310.70126104068237L853.83958984375,303.70348490339427L855.4178515625,302.10352518438634L856.9961132812499,282.36056900420726L858.574375,277.0405696125305L860.15263671875,274.19998782259233L861.7308984375,285.49463014461077L863.30916015625,298.29854355658523L864.8874218750001,300.7112895347177L866.46568359375,298.954810454019L868.0439453125,283.72956840084754L869.62220703125,286.261651994243L871.2004687499999,288.93724701329865L872.77873046875,285.7398771621274L874.3569921875,276.19796188223637L875.93525390625,275.22356881239006L877.513515625,286.601232156098L879.0917773437501,283.49142621663566L880.6700390625,274.6616911205027L882.24830078125,281.495274314329L883.8265624999999,281.11052566843443L885.40482421875,287.7578307962375L886.9830859375,288.4533389518455L888.56134765625,282.46561932707186L890.139609375,295.96576551209535L891.7178710937501,285.34517073033464L893.2961328125,281.07796345651315L894.87439453125,291.14160941940236L896.4526562499999,279.7589428605182L898.03091796875,273.7408719302075L899.6091796875,277.1016501211906L901.18744140625,276.57543555464366L902.765703125,279.1845880498985L904.3439648437501,290.1742259122807L905.9222265625,279.66611590401646L907.50048828125,286.889628697087L909.07875,292.40818756631256L910.6570117187499,283.2458407257193L912.2352734375,277.7695547946745L913.81353515625,276.9549432767936L915.391796875,268.75380378805L916.97005859375,269.29937950794306L918.5483203125001,277.64720029521885L920.12658203125,279.3888290238621L921.70484375,277.02512408703626L923.2831054687499,276.81183184204696L924.8613671875,271.28967089079964L926.43962890625,282.99117172661266L928.017890625,291.3953947993107L929.59615234375,291.868652783258L931.1744140625001,292.01264844114957L932.75267578125,286.43830542251044L934.3309375,286.3402097145074L935.9091992187499,296.23704414502544L937.4874609375,284.74152503663265L939.06572265625,283.79953540511696L940.643984375,295.1030983436061L942.22224609375,275.4350328385879L943.8005078125001,279.835858860326L945.37876953125,281.0030698734148L946.95703125,285.0041742671681L948.53529296875,279.56460670967186L950.1135546874999,277.52425438502974L951.69181640625,276.70740355285L953.270078125,271.4149927734528L954.84833984375,277.98766606344986L956.4266015625,276.3890507347144L958.0048632812501,264.7038387865159L959.583125,292.6306879245334L961.16138671875,296.24879012789677L962.7396484374999,278.96410663265453L964.31791015625,296.9918810576269L965.896171875,285.5429401661658L967.47443359375,290.2920425685521L969.0526953125,308.0727316274499L970.6309570312501,301.977436322032L972.20921875,294.15818034057725L973.78748046875,294.51631829569584L975.3657421874999,289.5841673153561L976.94400390625,271.9254807863624L978.522265625,273.48294271547815L980.10052734375,274.5636811821271L981.6787890625,290.03649230069124L983.2570507812501,286.41432496537124L984.8353125,293.63437889091705L986.41357421875,291.6054905984463L987.9918359375,289.0135689167612L989.5700976562499,301.65047067768336L991.148359375,318.5068797245856L992.72662109375,306.4428158026983L994.3048828125,295.7140315164751L995.88314453125,270.29406514368213L997.4614062500001,271.95769102211426L999.03966796875,271.55892361450816L1000.6179296875,282.4904336461963L1002.1961914062499,274.0909274189477L1003.774453125,277.05511144127706L1005.35271484375,277.5205383263489L1006.9309765625,285.92245171306377L1008.50923828125,286.35077580132065L1010.0875000000001,280.8871935867725L1011.66576171875,284.6662632016598L1013.2440234375,277.8144417879963L1014.8222851562499,270.5516553925089L1016.400546875,266.8590691375167L1017.97880859375,259.7330705851241L1019.5570703125,272.5600659773601L1021.13533203125,289.40295254219336L1022.7135937500001,289.06832424428364L1024.29185546875,292.0541255167721L1025.8701171875,287.1245626112401L1027.44837890625,288.1241378412429L1029.026640625,286.116191991691L1030.60490234375,286.0033051026604L1032.1831640625,289.99549637206485L1033.76142578125,290.6409247508167L1035.3396874999999,285.94238286866926L1036.91794921875,300.5851162409919L1038.4962109375,288.9717289304457L1040.07447265625,310.99453710811827L1041.652734375,306.2391497016411L1043.23099609375,294.48127661766404L1044.8092578125,302.12944967056364L1046.38751953125,323.14285714285717L1047.96578125,322.6959537727898L1049.54404296875,303.74218633820703L1051.1223046875,286.7836533061725L1052.70056640625,300.963749010339L1054.278828125,299.43851361021757L1055.8570898437501,310.7982040229695L1057.4353515625,307.3143418012288L1059.01361328125,310.726145206755L1060.591875,285.74047868871065L1062.17013671875,289.79604769863215L1063.7483984375,279.6189009907624L1065.32666015625,279.5237949970119L1066.904921875,278.69923180213283L1068.48318359375,278.84388870267696L1070.0614453125,276.6551572068918L1071.63970703125,291.07214994968075L1073.21796875,287.05644464530366L1074.7962304687499,285.42611805859L1076.3744921875,275.52894416449897L1077.95275390625,285.865428656088L1079.531015625,289.8481794948495L1081.10927734375,302.39318606664693L1082.6875390625,294.9855124071391L1084.26580078125,289.4532700284964L1085.8440625,303.3015869038443L1087.42232421875,304.341412332139L1089.0005859375,301.135349153034L1090.57884765625,293.1757500172398L1092.157109375,306.87071036974055L1093.73537109375,287.58534865999303L1095.3136328125001,295.488921083363L1096.89189453125,299.03719057233303L1098.47015625,290.52696521375424L1100.04841796875,291.1829511126045L1101.6266796875,289.7049471399204L1103.20494140625,286.1832753988754L1104.46755078125,298.63521596266673" style="fill: none;" fill="none"></path></g></g></g></g><g opacity="0.2"><g><g><g><path stroke="rgb(51, 187, 238)" stroke-width="2px" d="M157.826171875,53.857142857142875L159.40443359375,87.77764607451536L160.9826953125,114.7163326147769L162.56095703125,110.56438276137497L164.13921875,126.11133994484108L165.71748046875,144.88873654136086L167.2957421875,128.1853347231249L168.87400390625,151.44226663669642L170.45226562500002,166.39443326757885L172.03052734375,161.33654705481342L173.60878906250002,160.08521761464863L175.18705078125,174.60130674477983L176.76531250000002,178.03361174710633L178.34357421874998,169.10243982145076L179.9218359375,192.08007680903313L181.50009765624998,179.937903480428L183.078359375,197.91863043617565L184.65662109374998,202.44452002772547L186.2348828125,230.18219058714422L187.81314453125,200.77492756389756L189.39140625,205.21891820436866L190.96966796875,207.52011931051217L192.5479296875,257.31425406089255L194.12619140625,224.79557095168943L195.704453125,199.12183210142015L197.28271484375,238.32681333567677L198.8609765625,202.92112593243914L200.43923828125,210.9194526850422L202.0175,218.6754267391056L203.59576171875,240.2096406083609L205.1740234375,230.28455281244663L206.75228515625,199.22377643420214L208.330546875,194.17055397728086L209.90880859375002,206.7371246084888L211.4870703125,271.70525962811735L213.06533203125002,230.89326010548132L214.64359375,226.28431630655402L216.22185546875002,275.11691061064727L217.80011718749998,270.1137111172653L219.37837890625,284.1045228906633L220.95664062499998,257.9199127527614L222.53490234375,220.78752406379837L224.11316406249998,200.39903990728862L225.69142578125,221.15153510640974L227.2696875,263.56788348054675L228.84794921875,255.45643459985592L230.4262109375,263.7502825079476L232.00447265625,232.08927280600545L233.582734375,249.27251580595916L235.16099609375,254.9059635801075L236.7392578125,264.2763616014435L238.31751953125,273.853052949133L239.89578125,254.03327350731067L241.47404296875,227.19313309360828L243.0523046875,284.16777692474636L244.63056640625,217.78426726184455L246.208828125,254.2089803120388L247.78708984375,253.7874942838034L249.36535156250002,286.2085006797625L250.94361328125,282.5830652941809L252.52187500000002,258.3983123180083L254.10013671875,256.75973762406835L255.67839843750002,292.1204315210646L257.25666015625,297.5136961131276L258.83492187499996,257.7416261816645L260.41318359375,250.35048939940154L261.9914453125,246.90461298108022L263.56970703125,279.2256421683381L265.14796875,282.57519505136935L266.72623046875,268.4576764128677L268.3044921875,242.67699016870114L269.88275390625,263.91092274955435L271.461015625,245.97039533315345L273.03927734375,274.15703530414277L274.6175390625,308.0816063179653L276.19580078125,267.75971823967706L277.7740625,285.150372028659L279.35232421875,275.5064657018786L280.9305859375,267.1006426238356L282.50884765625,274.05819849097236L284.087109375,282.72458380302265L285.66537109375,233.2844633033278L287.2436328125,298.3652463352719L288.82189453125,271.98405495267383L290.40015625,230.70087862220615L291.97841796875,263.8086917403439L293.55667968750004,229.17343513626028L295.13494140625,253.15658780706627L296.713203125,317.31736936397573L298.29146484374996,303.620589908766L299.8697265625,275.55232421459476L301.44798828125,285.5158303734887L303.02625,275.0787538629474L304.60451171875,298.0309704929487L306.1827734375,278.118837229648L307.76103515625,267.0932368632928L309.339296875,294.42372887209075L310.91755859375,246.97294982310177L312.4958203125,260.16983841961485L314.07408203125,254.88480309400035L315.65234375,285.6351303769803L317.23060546874996,314.13910670963367L318.8088671875,242.1936745244331L320.38712890625,273.3144120543714L321.965390625,283.8832292361983L323.54365234374995,276.7247915436502L325.1219140625,296.6234578408659L326.70017578125,307.2662591135102L328.2784375,295.1823930774557L329.85669921874995,267.8116283157361L331.4349609375,293.3227726839612L333.01322265625,301.72395148015727L334.591484375,294.2261963614215L336.16974609375,283.93062234504634L337.7480078125,271.85592819125475L339.32626953125,327.2098057978026L340.90453125000005,257.31425406089255L342.48279296875,321.11125906555327L344.0610546875,292.84770583648384L345.63931640625,264.26174861591653L347.21757812500005,269.5903787449856L348.79583984375,325.315576515572L350.3741015625,241.93896658240703L351.95236328125,285.4601812238835L353.53062500000004,343.62194397437275L355.10888671875,271.3064340030927L356.68714843749996,242.20708979397554L358.26541015625,300.67537755529713L359.843671875,265.7066447826034L361.42193359375,331.3550687004767L363.00019531249995,294.72857030586704L364.57845703125,251.5443427058973L366.15671875,288.563250417424L367.73498046875,317.1552540543741L369.31324218749995,297.88068251565784L370.89150390625,294.2755749281797L372.469765625,277.9798559630985L374.04802734375,272.0293010847005L375.6262890625,276.13405511007585L377.20455078125,308.4989753665262L378.7828125,253.3807224356088L380.36107421875005,271.53210725492784L381.9393359375,326.3215821690138L383.51759765625,275.01770041064214L385.095859375,293.9219556916201L386.67412109375005,265.26569824789203L388.2523828125,275.4147552390618L389.83064453125,317.53366953290526L391.40890625,296.8477917972207L392.98716796875004,300.7260234562027L394.5654296875,261.0493989965076L396.14369140624996,299.21125337858416L397.721953125,274.42330440943266L399.30021484375,265.97158688607925L400.8784765625,252.30382352786742L402.45673828124995,295.3641371862993L404.035,290.79384948464264L405.61326171875,282.6931242784506L407.1915234375,298.91776213082363L408.76978515624995,270.91574997366695L410.348046875,251.34266848022114L411.92630859375,313.31301240286564L413.5045703125,282.6852506316222L415.08283203125,285.30919754426094L416.66109375,268.84462028925657L418.23935546875,266.84930227409467L419.81761718750005,277.109132663252L421.39587890625,245.64389860197943L422.974140625,299.00997148482116L424.55240234375,272.1424246395952L426.13066406250005,282.9842264415507L427.70892578125,300.6163134631457L429.2871875,249.44496539000136L430.86544921875,253.35970508177502L432.44371093750004,269.37387430693303L434.02197265625,319.9434774681413L435.60023437499996,316.6515737095626L437.17849609375,259.49419542597684L438.7567578125,339.8833303920108L440.33501953125,339.1853617200541L441.91328124999995,252.67393532641185L443.49154296875,237.9967586595663L445.0698046875,312.4277206766927L446.64806640625,299.16930818825426L448.22632812499995,265.515478821017L449.80458984375,276.9630212575697L451.3828515625,258.14828356962687L452.96111328125,313.6768818229169L454.539375,322.5233809760196L456.11763671875,267.35962707638083L457.6958984375,274.7736874716495L459.27416015625005,282.52805364422807L460.852421875,286.5755017037099L462.43068359375,271.7203242669299L464.0089453125,270.4806851027654L465.58720703125005,301.3767643801894L467.16546875,242.582940662857L468.74373046875,271.46438247240667L470.3219921875,308.02949622162674L471.90025390625004,302.08856631426363L473.478515625,299.4546999303028L475.05677734374996,294.15215627444275L476.6350390625,283.7568593647684L478.21330078125,289.2561962270453L479.7915625,288.3219856912447L481.36982421874995,285.4125024630459L482.9480859375,292.66772969631063L484.52634765625,255.62606436566625L486.104609375,294.40725870103483L487.68287109374995,275.10926788543884L489.2611328125,276.80162434075044L490.83939453125,271.03590071482694L492.41765625,331.12670288640123L493.99591796875,276.9630212575697L495.5741796875,337.0833438506647L497.15244140625,262.06251347065086L498.73070312500005,288.450624079623L500.30896484375,302.0461442746263L501.8872265625,279.4739630532866L503.46548828125,246.20193106202126L505.04375000000005,300.7935468760882L506.62201171875,269.88929148986614L508.2002734375,257.19330186754814L509.77853515625,288.78060742927335L511.35679687500004,325.69702989442374L512.93505859375,318.72666074363366L514.5133203125,335.15313037163685L516.09158203125,267.0192968717734L517.6698437499999,306.51395012105564L519.24810546875,278.83035718609216L520.8263671875,316.61562853558945L522.40462890625,292.5696233668L523.982890625,281.57117044058924L525.56115234375,271.1485834945732L527.1394140625,279.7225449842941L528.71767578125,318.1294769156569L530.2959375,258.8418315323889L531.87419921875,292.3735240853858L533.4524609375,345.89979593889507L535.03072265625,288.2576717090461L536.608984375,314.0056937748697L538.18724609375,335.27876604763134L539.7655078125,280.9690909569889L541.34376953125,334.72831375336267L542.92203125,309.04780129123384L544.50029296875,273.23864271324607L546.0785546875,345.2454565449423L547.6568164062501,291.1025096930035L549.235078125,331.32651743906894L550.81333984375,280.08030508394256L552.3916015625,311.5895331091479L553.96986328125,305.393923408884L555.548125,310.920960704373L557.1263867187499,290.0805177392209L558.7046484375,257.07951001269L560.28291015625,303.33051141561646L561.861171875,279.621542025286L563.43943359375,305.4454966155199L565.0176953125,291.59059557313344L566.59595703125,272.4065933039119L568.17421875,283.60688247123477L569.75248046875,279.13258195290865L571.3307421875,316.4270317210522L572.90900390625,294.8110358820532L574.487265625,294.19328263836377L576.06552734375,278.6522906283623L577.6437890625,280.4307645749673L579.22205078125,297.71379768116975L580.8003125,299.0854385403583L582.37857421875,288.52302374398454L583.9568359375,331.4312513315909L585.53509765625,248.7902907953886L587.1133593750001,265.750788498147L588.69162109375,340.0507532407683L590.2698828125,256.1143363164282L591.84814453125,299.740392003342L593.42640625,313.49931491131827L595.00466796875,326.24693577636157L596.5829296874999,313.2066180425652L598.16119140625,273.8226891567702L599.739453125,261.5337401640376L601.31771484375,297.98919944577796L602.8959765625,264.20323532880116L604.47423828125,281.0159630893652L606.0525,285.90573447401954L607.63076171875,277.6944185347409L609.2090234375,313.33961265731114L610.78728515625,289.5306799423138L612.365546875,339.5488616131275L613.94380859375,311.9333007690005L615.5220703125,320.18934781331114L617.10033203125,270.91574997366695L618.67859375,272.6710364443215L620.25685546875,270.1286818432168L621.8351171875,275.0100788535802L623.41337890625,249.31389897040117L624.991640625,298.7753369668099L626.5699023437501,255.27988161318174L628.1481640625,271.77304854599015L629.72642578125,339.68653634186603L631.3046875,309.2310065766413L632.88294921875,269.0457489809192L634.4612109374999,265.6919319120296L636.03947265625,314.9321828929172L637.617734375,289.05457844002433L639.19599609375,315.4235355282719L640.7742578125,275.85834414501744L642.3525195312501,317.91264848681374L643.93078125,290.93189568777274L645.50904296875,271.55469815063987L647.0873046874999,290.82632648579795L648.66556640625,301.7747862833534L650.243828125,310.66632215887563L651.82208984375,319.67054962064947L653.4003515625,251.57217810638002L654.9786132812501,252.68791455377414L656.556875,240.64253645418225L658.13513671875,307.474180287886L659.7133984374999,307.0065859690513L661.29166015625,282.410200860684L662.869921875,287.81601942594267L664.44818359375,313.9701203207612L666.0264453125,294.5555089829005L667.6047070312501,271.0133737255762L669.18296875,270.61562998015313L670.76123046875,297.01410956801277L672.3394921875,234.83687078737046L673.9177539062499,268.68083668713996L675.496015625,308.9257376579331L677.07427734375,300.08535253736983L678.6525390625,245.3246024712459L680.23080078125,268.27187363348014L681.8090625000001,284.7457847682891L683.38732421875,286.3839461332397L684.9655859375,303.32197273946497L686.5438476562499,280.3684324030324L688.122109375,316.9482616383423L689.70037109375,283.4964277257156L691.2786328125,261.6712546983168L692.85689453125,288.8531010363003L694.4351562500001,294.3331855546109L696.01341796875,291.5091861322533L697.5916796875,300.40547635684055L699.1699414062499,316.98425382461267L700.748203125,280.85197629582444L702.32646484375,325.9764787587742L703.9047265625,297.5386952389555L705.48298828125,274.76605504594636L707.0612500000001,331.99370118977436L708.63951171875,299.22803739158553L710.2177734375,297.5887207353281L711.79603515625,313.6147224864055L713.3742968749999,274.28632603783177L714.95255859375,292.161250319384L716.5308203125,290.866918886462L718.10908203125,293.8069334322907L719.68734375,277.49403668898105L721.2656054687501,328.39268729646017L722.8438671875,296.06759626033266L724.42212890625,337.41460934581835L726.0003906249999,293.85623071595586L727.57865234375,268.62131642391745L729.1569140625,309.222288441524L730.73517578125,283.93853461394303L732.3134375,274.62128220877895L733.8916992187501,287.81601942594267L735.4699609375,331.5169727020903L737.04822265625,303.0492720994422L738.6264843749999,284.77748015659273L740.20474609375,297.88902067532166L741.7830078125,265.4493360587881L743.36126953125,328.4020874753891L744.93953125,321.9630996715317L746.5177929687501,296.939254112456L748.0960546875,273.3598772598669L749.67431640625,295.35588133480843L751.252578125,255.66847683418368L752.8308398437499,272.7390831181231L754.4091015625,277.74841355285344L755.98736328125,311.8803751184646L757.565625,273.2765245642061L759.14388671875,281.1487864106487L760.7221484375001,291.5091861322533L762.30041015625,275.1932412718202L763.878671875,297.88902067532166L765.4569335937499,312.675291273015L767.0351953125,300.430781257804L768.61345703125,286.5116274829685L770.19171875,286.2722798488893L771.76998046875,245.52836605777946L773.3482421875001,321.11125906555327L774.92650390625,254.69455540508855L776.504765625,285.1741857523111L778.0830273437499,274.06579159611624L779.6612890625,290.74516110165087L781.23955078125,298.5827603058114L782.8178125,269.50823346259943L784.39607421875,269.6426635849883L785.9743359375001,308.8560221895591L787.55259765625,308.7863050412156L789.130859375,263.0650977271601L790.70912109375,329.74182605442377L792.2873828124999,290.6396693108349L793.86564453125,279.365287070771L795.44390625,274.62128220877895L797.02216796875,300.8864384580157L798.6004296875,304.7156923333893L800.1786914062501,254.58187502076606L801.756953125,232.9479578957647L803.33521484375,292.2918444007463L804.9134765624999,304.672809736717L806.49173828125,277.31690229694544L808.07,298.75021608405444L809.64826171875,311.95975720620766L811.2265234375,325.1204239985231L812.8047851562501,338.6949601704137L814.383046875,280.05696321494736L815.96130859375,338.6949601704137L817.5395703124999,279.40411045746L819.11783203125,321.2027115819367L820.69609375,312.2422006382899L822.27435546875,296.9808333520297L823.8526171875,263.27628191788693L825.4308789062501,270.0762970747335L827.009140625,308.516383199138L828.58740234375,244.38938220929595L830.1656640625,313.5525783273006L831.7439257812499,258.44834755608116L833.3221875,308.9344664237989L834.90044921875,292.2102103821889L836.4787109375,289.0384520706168L838.05697265625,273.49635779060264L839.6352343750001,270.4731982040444L841.21349609375,264.24711903292655L842.7917578125,263.65542217941703L844.3700195312499,318.08427383022257L845.94828125,272.0594516620941L847.52654296875,295.35588133480843L849.1048046875,378.6183193566735L850.68306640625,335.8885599189856L852.2613281250001,292.25919933025745L853.83958984375,290.2991749456912L855.4178515625,298.9428995569636L856.9961132812499,247.0481171023153L858.574375,266.7532624475459L860.15263671875,268.62874904344454L861.7308984375,309.6327807620581L863.30916015625,325.929882635321L864.8874218750001,305.5917048281169L866.46568359375,295.48814510107644L868.0439453125,255.8453165556458L869.62220703125,291.38712077505704L871.2004687499999,294.35787420814097L872.77873046875,279.4817379777189L874.3569921875,258.17685071970874L875.93525390625,273.29168249691435L877.513515625,310.92975816855534L879.0917773437501,277.4016073560458L880.6700390625,257.9199127527614L882.24830078125,295.69494616994774L883.8265624999999,280.34506409553444L885.40482421875,301.5545283211338L886.9830859375,289.8458898942997L888.56134765625,270.9307679522969L890.139609375,325.23191823362L891.7178710937501,265.4052621088924L893.2961328125,272.7768906816277L894.87439453125,312.4807392068609L896.4526562499999,258.47694840788637L898.03091796875,262.1495358426332L899.6091796875,283.93853461394303L901.18744140625,275.5293939253782L902.765703125,284.4685003724416L904.3439648437501,313.6147224864055L905.9222265625,259.925246895263L907.50048828125,301.93586387639283L909.07875,303.78286067323245L910.6570117187499,265.90532549955935L912.2352734375,267.1894050885419L913.81353515625,275.3383399117727L915.391796875,253.14957686825238L916.97005859375,270.3907675383918L918.5483203125001,295.1576243167518L920.12658203125,282.8976432073065L921.70484375,272.37640157710206L923.2831054687499,276.3870573799269L924.8613671875,260.6236607092227L926.43962890625,308.06424890847944L928.017890625,309.0303570746164L929.59615234375,292.8149698873925L931.1744140625001,292.3000209238324L932.75267578125,275.67468438872123L934.3309375,286.14471848623367L935.9091992187499,317.20027095683315L937.4874609375,263.2617262382208L939.06572265625,281.93154040131645L940.643984375,319.2616950109502L942.22224609375,240.24291171925148L943.8005078125001,288.84505370719756L945.37876953125,283.3466041734237L946.95703125,293.17523851151975L948.53529296875,269.0532117746404L950.1135546874999,273.5039522343535L951.69181640625,275.08637747683935L953.270078125,261.17943358177865L954.84833984375,291.62317440868367L956.4266015625,273.2310561818703L958.0048632812501,242.89209564284226L959.583125,359.56542193927925L961.16138671875,303.620589908766L962.7396484374999,247.6503538819435L964.31791015625,337.26842399977005L965.896171875,264.1447529204121L967.47443359375,300.034833951762L969.0526953125,347.7307949419756L970.6309570312501,290.2424701455174L972.20921875,279.24890791605895L973.78748046875,295.2319575251994L975.3657421874999,280.0258316848566L976.94400390625,239.9967894075411L978.522265625,276.61728288432823L980.10052734375,276.73248293625176L981.6787890625,324.0173773347819L983.2570507812501,279.342010682538L984.8353125,308.67308653284067L986.41357421875,287.6075114302774L987.9918359375,283.9227291599759L989.5700976562499,328.8918703472271L991.148359375,355.86987486836574L992.72662109375,283.97014846678053L994.3048828125,275.5829133012555L995.88314453125,226.12055760363384L997.4614062500001,275.30779841465477L999.03966796875,270.7656367950083L1000.6179296875,305.7982824595683L1002.1961914062499,258.12686882217014L1003.774453125,283.07082036587224L1005.35271484375,278.45115351183307L1006.9309765625,303.55231238060054L1008.50923828125,287.20701692957897L1010.0875000000001,270.330828233621L1011.66576171875,292.3735240853858L1013.2440234375,264.6789670291016L1014.8222851562499,256.66033852662395L1016.400546875,259.6521708693238L1017.97880859375,246.09294778850781L1019.5570703125,300.24536411595653L1021.13533203125,326.73258484992266L1022.7135937500001,288.4023818574797L1024.29185546875,298.11449332331944L1025.8701171875,277.5711020940109L1027.44837890625,290.1290984321988L1029.026640625,282.15900000137736L1030.60490234375,285.77835664531074L1032.1831640625,298.14791809993096L1033.76142578125,291.9328231947666L1035.3396874999999,276.82466954365196L1036.91794921875,332.5669748374667L1038.4962109375,267.28559201910764L1040.07447265625,361.5728075461397L1041.652734375,297.01410956801277L1043.23099609375,272.54256346269426L1044.8092578125,318.1023497919209L1046.38751953125,371.0631849147325L1047.96578125,321.80715872918967L1049.54404296875,269.7024232083275L1051.1223046875,256.00811566504893L1052.70056640625,331.8410445302818L1054.278828125,296.42419155983777L1055.8570898437501,335.0854989845378L1057.4353515625,300.5066708474298L1059.01361328125,317.6689666782322L1060.591875,242.22720602858203L1062.17013671875,298.08107293576154L1063.7483984375,260.46508129977883L1065.32666015625,279.33425852658354L1066.904921875,277.06297447096506L1068.48318359375,279.13258195290865L1070.0614453125,272.34619543117134L1071.63970703125,322.5141954293249L1073.21796875,279.23339101661963L1074.7962304687499,282.20607309474997L1076.3744921875,256.87338656742395L1077.95275390625,307.82112107862815L1079.531015625,297.98085800353545L1081.10927734375,329.4203919716058L1082.6875390625,280.8285449408986L1084.26580078125,278.7683972293965L1085.8440625,333.3909193428389L1087.42232421875,306.4276047658807L1089.0005859375,294.8605083913364L1090.57884765625,278.01073822105354L1092.157109375,336.5969951640228L1093.73537109375,253.00958214966366L1095.3136328125001,312.0215136145844L1096.89189453125,306.2636600996752L1098.47015625,274.3624079678285L1100.04841796875,292.4960635581752L1101.6266796875,286.7831655984642L1103.20494140625,279.3032152657096L1104.46755078125,325.4457613749185" style="fill: none;" fill="none"></path></g></g></g></g></g></g><g transform="translate(20, 377)" clip-path="url(#clip_1)"><clipPath id="clip_1"><rect width="1262" height="23"></rect></clipPath><g><g><line x1="0" y1="0" x2="0" y2="5" style="visibility: inherit;" fill="rgb(0, 0, 0)" stroke="rgb(204, 204, 204)" stroke-width="1px"></line><line x1="157.826171875" y1="0" x2="157.826171875" y2="5" style="visibility: inherit;" fill="rgb(0, 0, 0)" stroke="rgb(204, 204, 204)" stroke-width="1px"></line><line x1="315.65234375" y1="0" x2="315.65234375" y2="5" style="visibility: inherit;" fill="rgb(0, 0, 0)" stroke="rgb(204, 204, 204)" stroke-width="1px"></line><line x1="473.478515625" y1="0" x2="473.478515625" y2="5" style="visibility: inherit;" fill="rgb(0, 0, 0)" stroke="rgb(204, 204, 204)" stroke-width="1px"></line><line x1="631.3046875" y1="0" x2="631.3046875" y2="5" style="visibility: inherit;" fill="rgb(0, 0, 0)" stroke="rgb(204, 204, 204)" stroke-width="1px"></line><line x1="789.130859375" y1="0" x2="789.130859375" y2="5" style="visibility: inherit;" fill="rgb(0, 0, 0)" stroke="rgb(204, 204, 204)" stroke-width="1px"></line><line x1="946.95703125" y1="0" x2="946.95703125" y2="5" style="visibility: inherit;" fill="rgb(0, 0, 0)" stroke="rgb(204, 204, 204)" stroke-width="1px"></line><line x1="1104.783203125" y1="0" x2="1104.783203125" y2="5" style="visibility: inherit;" fill="rgb(0, 0, 0)" stroke="rgb(204, 204, 204)" stroke-width="1px"></line><line x1="1262.609375" y1="0" x2="1262.609375" y2="5" style="visibility: inherit;" fill="rgb(0, 0, 0)" stroke="rgb(204, 204, 204)" stroke-width="1px"></line></g><g transform="translate(0, 8)"><text x="0" y="0" dx="0em" dy="0.95em" style="text-anchor: middle; visibility: hidden; font-family: Roboto, sans-serif; font-size: 12px; font-weight: 200;" fill="rgb(255, 255, 255)" stroke="none" stroke-width="1px">-500</text><text x="157.826171875" y="0" dx="0em" dy="0.95em" style="text-anchor: middle; visibility: inherit; font-family: Roboto, sans-serif; font-size: 12px; font-weight: 200;" fill="rgb(255, 255, 255)" stroke="none" stroke-width="1px">0</text><text x="315.65234375" y="0" dx="0em" dy="0.95em" style="text-anchor: middle; visibility: inherit; font-family: Roboto, sans-serif; font-size: 12px; font-weight: 200;" fill="rgb(255, 255, 255)" stroke="none" stroke-width="1px">500</text><text x="473.478515625" y="0" dx="0em" dy="0.95em" style="text-anchor: middle; visibility: inherit; font-family: Roboto, sans-serif; font-size: 12px; font-weight: 200;" fill="rgb(255, 255, 255)" stroke="none" stroke-width="1px">1k</text><text x="631.3046875" y="0" dx="0em" dy="0.95em" style="text-anchor: middle; visibility: inherit; font-family: Roboto, sans-serif; font-size: 12px; font-weight: 200;" fill="rgb(255, 255, 255)" stroke="none" stroke-width="1px">1.5k</text><text x="789.130859375" y="0" dx="0em" dy="0.95em" style="text-anchor: middle; visibility: inherit; font-family: Roboto, sans-serif; font-size: 12px; font-weight: 200;" fill="rgb(255, 255, 255)" stroke="none" stroke-width="1px">2k</text><text x="946.95703125" y="0" dx="0em" dy="0.95em" style="text-anchor: middle; visibility: inherit; font-family: Roboto, sans-serif; font-size: 12px; font-weight: 200;" fill="rgb(255, 255, 255)" stroke="none" stroke-width="1px">2.5k</text><text x="1104.783203125" y="0" dx="0em" dy="0.95em" style="text-anchor: middle; visibility: inherit; font-family: Roboto, sans-serif; font-size: 12px; font-weight: 200;" fill="rgb(255, 255, 255)" stroke="none" stroke-width="1px">3k</text><text x="1262.609375" y="0" dx="0em" dy="0.95em" style="text-anchor: middle; visibility: hidden; font-family: Roboto, sans-serif; font-size: 12px; font-weight: 200;" fill="rgb(255, 255, 255)" stroke="none" stroke-width="1px">3.5k</text></g><line x1="0" y1="0" x2="1262.609375" y2="0" fill="rgb(0, 0, 0)" stroke="rgb(204, 204, 204)" stroke-width="1px"></line></g></g></g></g></svg>