<svg viewBox="0 0 1283 400" xmlns="http://www.w3.org/2000/svg"><g><g><g><g><g><line x1="28.25" y1="376" x2="23.25" y2="376" style="visibility: inherit;" fill="rgb(0, 0, 0)" stroke="rgb(204, 204, 204)" stroke-width="1px"></line><line x1="28.25" y1="347.0769230769231" x2="23.25" y2="347.0769230769231" style="visibility: inherit;" fill="rgb(0, 0, 0)" stroke="rgb(204, 204, 204)" stroke-width="1px"></line><line x1="28.25" y1="318.15384615384613" x2="23.25" y2="318.15384615384613" style="visibility: inherit;" fill="rgb(0, 0, 0)" stroke="rgb(204, 204, 204)" stroke-width="1px"></line><line x1="28.25" y1="289.2307692307692" x2="23.25" y2="289.2307692307692" style="visibility: inherit;" fill="rgb(0, 0, 0)" stroke="rgb(204, 204, 204)" stroke-width="1px"></line><line x1="28.25" y1="260.3076923076923" x2="23.25" y2="260.3076923076923" style="visibility: inherit;" fill="rgb(0, 0, 0)" stroke="rgb(204, 204, 204)" stroke-width="1px"></line><line x1="28.25" y1="231.3846153846154" x2="23.25" y2="231.3846153846154" style="visibility: inherit;" fill="rgb(0, 0, 0)" stroke="rgb(204, 204, 204)" stroke-width="1px"></line><line x1="28.25" y1="202.46153846153845" x2="23.25" y2="202.46153846153845" style="visibility: inherit;" fill="rgb(0, 0, 0)" stroke="rgb(204, 204, 204)" stroke-width="1px"></line><line x1="28.25" y1="173.53846153846155" x2="23.25" y2="173.53846153846155" style="visibility: inherit;" fill="rgb(0, 0, 0)" stroke="rgb(204, 204, 204)" stroke-width="1px"></line><line x1="28.25" y1="144.6153846153846" x2="23.25" y2="144.6153846153846" style="visibility: inherit;" fill="rgb(0, 0, 0)" stroke="rgb(204, 204, 204)" stroke-width="1px"></line><line x1="28.25" y1="115.6923076923077" x2="23.25" y2="115.6923076923077" style="visibility: inherit;" fill="rgb(0, 0, 0)" stroke="rgb(204, 204, 204)" stroke-width="1px"></line><line x1="28.25" y1="86.76923076923076" x2="23.25" y2="86.76923076923076" style="visibility: inherit;" fill="rgb(0, 0, 0)" stroke="rgb(204, 204, 204)" stroke-width="1px"></line><line x1="28.25" y1="57.84615384615385" x2="23.25" y2="57.84615384615385" style="visibility: inherit;" fill="rgb(0, 0, 0)" stroke="rgb(204, 204, 204)" stroke-width="1px"></line><line x1="28.25" y1="28.923076923076906" x2="23.25" y2="28.923076923076906" style="visibility: inherit;" fill="rgb(0, 0, 0)" stroke="rgb(204, 204, 204)" stroke-width="1px"></line><line x1="28.25" y1="0" x2="23.25" y2="0" style="visibility: inherit;" fill="rgb(0, 0, 0)" stroke="rgb(204, 204, 204)" stroke-width="1px"></line></g><g transform="translate(18.25, 0)"><text x="0" y="376" dx="0em" dy="0.3em" style="text-anchor: end; visibility: hidden; font-family: Roboto, sans-serif; font-size: 12px; font-weight: 200;" fill="rgb(255, 255, 255)" stroke="none" stroke-width="1px">-5</text><text x="0" y="347.0769230769231" dx="0em" dy="0.3em" style="text-anchor: end; visibility: inherit; font-family: Roboto, sans-serif; font-size: 12px; font-weight: 200;" fill="rgb(255, 255, 255)" stroke="none" stroke-width="1px">0</text><text x="0" y="318.15384615384613" dx="0em" dy="0.3em" style="text-anchor: end; visibility: inherit; font-family: Roboto, sans-serif; font-size: 12px; font-weight: 200;" fill="rgb(255, 255, 255)" stroke="none" stroke-width="1px">5</text><text x="0" y="289.2307692307692" dx="0em" dy="0.3em" style="text-anchor: end; visibility: inherit; font-family: Roboto, sans-serif; font-size: 12px; font-weight: 200;" fill="rgb(255, 255, 255)" stroke="none" stroke-width="1px">10</text><text x="0" y="260.3076923076923" dx="0em" dy="0.3em" style="text-anchor: end; visibility: inherit; font-family: Roboto, sans-serif; font-size: 12px; font-weight: 200;" fill="rgb(255, 255, 255)" stroke="none" stroke-width="1px">15</text><text x="0" y="231.3846153846154" dx="0em" dy="0.3em" style="text-anchor: end; visibility: inherit; font-family: Roboto, sans-serif; font-size: 12px; font-weight: 200;" fill="rgb(255, 255, 255)" stroke="none" stroke-width="1px">20</text><text x="0" y="202.46153846153845" dx="0em" dy="0.3em" style="text-anchor: end; visibility: inherit; font-family: Roboto, sans-serif; font-size: 12px; font-weight: 200;" fill="rgb(255, 255, 255)" stroke="none" stroke-width="1px">25</text><text x="0" y="173.53846153846155" dx="0em" dy="0.3em" style="text-anchor: end; visibility: inherit; font-family: Roboto, sans-serif; font-size: 12px; font-weight: 200;" fill="rgb(255, 255, 255)" stroke="none" stroke-width="1px">30</text><text x="0" y="144.6153846153846" dx="0em" dy="0.3em" style="text-anchor: end; visibility: inherit; font-family: Roboto, sans-serif; font-size: 12px; font-weight: 200;" fill="rgb(255, 255, 255)" stroke="none" stroke-width="1px">35</text><text x="0" y="115.6923076923077" dx="0em" dy="0.3em" style="text-anchor: end; visibility: inherit; font-family: Roboto, sans-serif; font-size: 12px; font-weight: 200;" fill="rgb(255, 255, 255)" stroke="none" stroke-width="1px">40</text><text x="0" y="86.76923076923076" dx="0em" dy="0.3em" style="text-anchor: end; visibility: inherit; font-family: Roboto, sans-serif; font-size: 12px; font-weight: 200;" fill="rgb(255, 255, 255)" stroke="none" stroke-width="1px">45</text><text x="0" y="57.84615384615385" dx="0em" dy="0.3em" style="text-anchor: end; visibility: inherit; font-family: Roboto, sans-serif; font-size: 12px; font-weight: 200;" fill="rgb(255, 255, 255)" stroke="none" stroke-width="1px">50</text><text x="0" y="28.923076923076906" dx="0em" dy="0.3em" style="text-anchor: end; visibility: inherit; font-family: Roboto, sans-serif; font-size: 12px; font-weight: 200;" fill="rgb(255, 255, 255)" stroke="none" stroke-width="1px">55</text><text x="0" y="0" dx="0em" dy="0.3em" style="text-anchor: end; visibility: hidden; font-family: Roboto, sans-serif; font-size: 12px; font-weight: 200;" fill="rgb(255, 255, 255)" stroke="none" stroke-width="1px">60</text></g><line x1="28.25" y1="0" x2="28.25" y2="376" fill="rgb(0, 0, 0)" stroke="rgb(204, 204, 204)" stroke-width="1px"></line></g></g><g transform="translate(28, 0)" clip-path="url(#clip_0)"><clipPath id="clip_0"><rect width="1254" height="376"></rect></clipPath><g><g><g><line x1="0" y1="0" x2="0" y2="376" fill="rgb(0, 0, 0)" stroke="rgb(189, 189, 189)" stroke-width="1px" opacity="0.25"></line><line x1="156.84375" y1="0" x2="156.84375" y2="376" fill="rgb(0, 0, 0)" stroke="rgb(189, 189, 189)" stroke-width="1px" opacity="0.25"></line><line x1="313.6875" y1="0" x2="313.6875" y2="376" fill="rgb(0, 0, 0)" stroke="rgb(189, 189, 189)" stroke-width="1px" opacity="0.25"></line><line x1="470.53125" y1="0" x2="470.53125" y2="376" fill="rgb(0, 0, 0)" stroke="rgb(189, 189, 189)" stroke-width="1px" opacity="0.25"></line><line x1="627.375" y1="0" x2="627.375" y2="376" fill="rgb(0, 0, 0)" stroke="rgb(189, 189, 189)" stroke-width="1px" opacity="0.25"></line><line x1="784.21875" y1="0" x2="784.21875" y2="376" fill="rgb(0, 0, 0)" stroke="rgb(189, 189, 189)" stroke-width="1px" opacity="0.25"></line><line x1="941.0625" y1="0" x2="941.0625" y2="376" fill="rgb(0, 0, 0)" stroke="rgb(189, 189, 189)" stroke-width="1px" opacity="0.25"></line><line x1="1097.90625" y1="0" x2="1097.90625" y2="376" fill="rgb(0, 0, 0)" stroke="rgb(189, 189, 189)" stroke-width="1px" opacity="0.25"></line><line x1="1254.75" y1="0" x2="1254.75" y2="376" fill="rgb(0, 0, 0)" stroke="rgb(189, 189, 189)" stroke-width="1px" opacity="0.25"></line></g><g><line x1="0" y1="376" x2="1254.75" y2="376" fill="rgb(0, 0, 0)" stroke="rgb(189, 189, 189)" stroke-width="1px" opacity="0.25"></line><line x1="0" y1="347.0769230769231" x2="1254.75" y2="347.0769230769231" fill="rgb(0, 0, 0)" stroke="rgb(189, 189, 189)" stroke-width="1px" opacity="0.25"></line><line x1="0" y1="318.15384615384613" x2="1254.75" y2="318.15384615384613" fill="rgb(0, 0, 0)" stroke="rgb(189, 189, 189)" stroke-width="1px" opacity="0.25"></line><line x1="0" y1="289.2307692307692" x2="1254.75" y2="289.2307692307692" fill="rgb(0, 0, 0)" stroke="rgb(189, 189, 189)" stroke-width="1px" opacity="0.25"></line><line x1="0" y1="260.3076923076923" x2="1254.75" y2="260.3076923076923" fill="rgb(0, 0, 0)" stroke="rgb(189, 189, 189)" stroke-width="1px" opacity="0.25"></line><line x1="0" y1="231.3846153846154" x2="1254.75" y2="231.3846153846154" fill="rgb(0, 0, 0)" stroke="rgb(189, 189, 189)" stroke-width="1px" opacity="0.25"></line><line x1="0" y1="202.46153846153845" x2="1254.75" y2="202.46153846153845" fill="rgb(0, 0, 0)" stroke="rgb(189, 189, 189)" stroke-width="1px" opacity="0.25"></line><line x1="0" y1="173.53846153846155" x2="1254.75" y2="173.53846153846155" fill="rgb(0, 0, 0)" stroke="rgb(189, 189, 189)" stroke-width="1px" opacity="0.25"></line><line x1="0" y1="144.6153846153846" x2="1254.75" y2="144.6153846153846" fill="rgb(0, 0, 0)" stroke="rgb(189, 189, 189)" stroke-width="1px" opacity="0.25"></line><line x1="0" y1="115.6923076923077" x2="1254.75" y2="115.6923076923077" fill="rgb(0, 0, 0)" stroke="rgb(189, 189, 189)" stroke-width="1px" opacity="0.25"></line><line x1="0" y1="86.76923076923076" x2="1254.75" y2="86.76923076923076" fill="rgb(0, 0, 0)" stroke="rgb(189, 189, 189)" stroke-width="1px" opacity="0.25"></line><line x1="0" y1="57.84615384615385" x2="1254.75" y2="57.84615384615385" fill="rgb(0, 0, 0)" stroke="rgb(189, 189, 189)" stroke-width="1px" opacity="0.25"></line><line x1="0" y1="28.923076923076906" x2="1254.75" y2="28.923076923076906" fill="rgb(0, 0, 0)" stroke="rgb(189, 189, 189)" stroke-width="1px" opacity="0.25"></line><line x1="0" y1="0" x2="1254.75" y2="0" fill="rgb(0, 0, 0)" stroke="rgb(189, 189, 189)" stroke-width="1px" opacity="0.25"></line></g></g></g><g><g><line x1="0" y1="347.0769230769231" x2="1254.75" y2="347.0769230769231" fill="rgb(0, 0, 0)" stroke="rgb(153, 153, 153)" stroke-width="1.5px"></line></g></g><g><g><line x1="156.84375" y1="0" x2="156.84375" y2="376" fill="rgb(0, 0, 0)" stroke="rgb(153, 153, 153)" stroke-width="1.5px"></line></g></g><g><g><g><g><g><path stroke="rgb(51, 187, 238)" stroke-width="2px" d="M159.980625,27.79161423903243L161.5490625,67.67732569759423L163.1175,83.5841488642109L164.6859375,94.17607687390829L166.254375,101.71551211698363L167.8228125,129.56669134651403L169.39125,156.80359765213035L170.9596875,182.05443687256593L172.52812500000002,196.1404602313252L174.0965625,216.0353462988692L175.66500000000002,231.67797608363952L177.23343749999998,236.10945587375124L178.801875,234.39514843660783L180.37031249999998,229.00651668488L181.93875,238.99728433017395L183.5071875,248.92707610316936L185.075625,255.0531752108102L186.6440625,260.45583523982685L188.2125,257.4172705363351L189.7809375,258.22564004172807L191.349375,263.6373045883108L192.9178125,263.1037976618811L194.48625,261.7876227049046L196.0546875,270.59671232170604L197.623125,268.07259399086587L199.1915625,270.33251370847773L200.76,272.0723374201734L202.3284375,269.264861901926L203.896875,267.47895277373686L205.4653125,270.4033110575377L207.03375,273.3888323458946L208.6021875,278.78515638463324L210.170625,276.1704123736446L211.73906250000002,278.29891681092926L213.3075,278.73056854319896L214.87593750000002,283.9158263058781L216.44437499999998,284.54878288917143L218.0128125,281.486823364118L219.58124999999998,280.19410776047977L221.1496875,258.7524520463798L222.718125,265.6795842266922L224.2865625,273.20100045282135L225.855,273.6390054417561L227.4234375,283.4926827154945L228.991875,289.1628119987648L230.5603125,291.25803126686577L232.12875,295.09538042234885L233.6971875,290.65216211305477L235.265625,291.49257176520683L236.8340625,295.5564640734751L238.4025,298.1020754014618L239.9709375,293.4794178778608L241.539375,297.2160753435803L243.1078125,299.5586250779918L244.67625,302.4474424457473L246.2446875,298.25313575734856L247.813125,303.0552404241582L249.3815625,299.53527768965955L250.95000000000002,299.8767421790161L252.5184375,300.76994540148644L254.08687500000002,299.79849565355244L255.65531249999998,306.10248906966956L257.22375,305.6384970489862L258.7921875,309.3585996974853L260.36062499999997,297.77116567175483L261.9290625,301.0261128172403L263.4975,305.1997737152114L265.0659375,306.22415451095964L266.634375,306.7440987379599L268.2028125,308.6617274988573L269.77125,309.06383771256105L271.3396875,309.9375368144165L272.908125,310.72769666336467L274.4765625,311.38319852907046L276.045,310.575515037678L277.6134375,308.6907574199772L279.181875,308.9606784196242M282.31875,307.07970926622323L283.8871875,297.2706564006953L285.455625,301.00943833281315L287.0240625,303.24617440973736L288.59250000000003,303.0632544899539L290.1609375,295.94833369664565L291.729375,295.4213042546989L293.2978125,302.3707898714694L294.86625,302.43445899185633L296.4346875,304.77195865581456L298.003125,307.71749939704694L299.57156249999997,311.30969573530695L301.14,309.82155270496213L302.7084375,306.2890163815435L304.276875,306.4375940770015L305.8453125,301.84047680417126L307.41375,306.10807296471563L308.9821875,305.97375834346303L310.550625,307.42435026645376L312.1190625,302.37458464289915L313.6875,302.2974908901997L315.25593749999996,305.79399177478723L316.824375,310.64091044980376L318.3928125,313.74936340985755L319.96125,315.45385371557296L321.52968749999997,310.97002983575044L323.098125,307.0645281795604L324.6665625,307.39942462529075L326.235,310.22553227062565L327.8034375,311.433430529717L329.371875,311.6153808875062L330.9403125,311.980191986861L332.50875,312.3317380905584L334.0771875,310.3094138810373L335.645625,314.7770842878091L337.2140625,311.7366929344526L338.7825,312.8237640651791L340.3509375,315.2379212686074L341.919375,309.0444722044847L343.4878125,309.77954167063024L345.05625000000003,310.1253526568568L346.6246875,312.0900750152233L348.193125,314.388181791522L349.7615625,315.1770021600537L351.33000000000004,308.1991962705331L352.8984375,305.708158564066L354.46687499999996,310.63668405004626L356.0353125,308.7301435450338L357.60375,303.35282487796064L359.1721875,306.9580271318256L360.74062499999997,309.3813103121148L362.3090625,310.31551772876276L363.8775,312.2366245737557L365.4459375,312.68490866557477L367.014375,313.89269427836604L368.5828125,316.4094658060647L370.15125,313.8942209262926L371.7196875,313.8547512424313L373.288125,312.6315529216318L374.8565625,313.64907657432144L376.425,314.74851610142684L377.9934375,318.24532986906746L379.561875,309.44688537174466L381.1303125,306.12681594876653L382.69875,305.96324973876835L384.26718750000003,305.16649991712177L385.835625,310.54352940571243L387.4040625,310.3515081963683L388.9725,314.40054599496574L390.54093750000004,313.44870000924817L392.109375,314.48175351251825L393.67781249999996,311.4387633180875L395.24625,309.7506290021282L396.8146875,314.0660503891347L398.383125,316.38871083637133L399.95156249999997,313.1721052070013L401.52,315.60709210863905L403.0884375,316.3396589879459L404.656875,318.5024526138725L406.2253125,319.9565910090811L407.79375,318.75031898087406L409.3621875,319.73081382171307L410.930625,316.87635862999326L412.4990625,317.1401665956693L414.0675,314.9666691837996L415.6359375,313.36590756900273L417.204375,316.70006986092466L418.7728125,317.67289730745205L420.34125,319.39174177184435L421.9096875,320.60797880845354L423.47812500000003,321.01940787974905L425.0465625,317.61322894216806L426.615,317.0860807444377L428.1834375,319.7857252066098L429.75187500000004,316.09991863434004L431.3203125,318.17856023389953L432.88874999999996,317.0489372334012L434.4571875,319.5558027319371L436.025625,320.1401359836528L437.5940625,299.5480797850365L439.16249999999997,306.956226373416L440.7309375,312.3879441948802L442.299375,314.12460679112667L443.8678125,318.12966222802106L445.43625,316.4840885540408L447.0046875,318.4583752538842L448.573125,319.68746624799127L450.1415625,320.55241065127973L451.71,320.1655237447899L453.2784375,322.2727008045626L454.846875,323.50934355543285L456.4153125,321.9441464951929L457.98375,319.2511659592968L459.5521875,319.68240929749334L461.120625,318.5456880289967L462.68906250000003,319.20232098279087L464.2575,321.3327042426385L465.8259375,320.12007123978367L467.394375,321.5080528226115L468.96281250000004,323.50165148880984L470.53125,323.916102481316L472.09968749999996,324.5085985245361L473.668125,320.38352949233166L475.2365625,315.90645899248824L476.805,317.921041111722L478.37343749999997,319.02665485954685L479.941875,320.06632740243066L481.5103125,319.5324692811778L483.07875,320.2505669530685L484.6471875,322.2570804657343L486.215625,321.5637879811609L487.7840625,320.6487934197958L489.3525,321.0641720942526L490.9209375,320.9746889099711L492.489375,320.5288737173141L494.0578125,318.8126682631347L495.62625,318.8093985646187L497.1946875,321.57431985446226L498.763125,321.24470006919563L500.3315625,319.95539087584973L501.90000000000003,322.64146400489784L503.4684375,322.8028203865008L505.036875,324.08980703318065L506.6053125,324.85767882530126L508.17375000000004,324.85901731062347L509.7421875,324.8340189668799L511.31062499999996,322.8391326594454L512.8790625,323.2217647983483L514.4475,321.0713748771139L516.0159375,323.24038458719L517.584375,323.8116529660176L519.1528125,323.1200168920256L520.7212499999999,322.9891903128708L522.2896875,309.3944386936938L523.858125,313.958082128745L525.4265625,316.99341134494694L526.995,317.5297655822793L528.5634375,319.22299749805137L530.131875,318.6989707702538L531.7003125,320.1220559836069L533.26875,321.4732448739071L534.8371875,321.9958048588634L536.405625,323.34483139751893L537.9740625000001,322.9826126236082L539.5425,322.84725195734933L541.1109375,323.09733828140133L542.679375,324.4959711119064L544.2478125,324.0367622298431L545.81625,323.9030764946895L547.3846875,323.9189524108516L548.953125,323.09506834538456L550.5215625,323.26798629181104L552.09,323.7695620439513L553.6584375,325.2978190531417L555.226875,326.0741305289549L556.7953125,325.0613471423059L558.36375,326.47481261875174L559.9321874999999,323.03909553865515L561.500625,320.13535281370434L563.0690625,316.3611718014605L564.6375,319.35027161255226L566.2059375,315.2820672605839L567.774375,317.55678229967583L569.3428125,317.01158546086856L570.91125,316.6121611095983L572.4796875,320.1621593143921L574.048125,318.9111844043964L575.6165625,321.5841474328771L577.1850000000001,323.39158302199405L578.7534375,325.7794956773832L580.321875,323.2825689122092L581.8903125,322.7293917340604L583.45875,323.3072998898958L585.0271875,322.29839748435165L586.595625,324.3670976713837L588.1640625,324.0152709400858L589.7325,324.3308186278364L591.3009375,322.1417396951809L592.869375,318.2961709623595L594.4378125,321.8625557535237L596.00625,321.1134308492164L597.5746875,321.25808397756055L599.1431249999999,322.76714585825925L600.7115625,323.73392635331516L602.28,324.37103997711876L603.8484375,325.6613076077886L605.416875,324.454286093392L606.9853125,324.5414765441312L608.55375,326.27812030374537L610.1221875,325.75363826175976L611.690625,324.12047879381413L613.2590625,324.5094689699466L614.8275,325.2442101416392L616.3959375000001,325.74881104740325L617.964375,326.27363743226164L619.5328125,326.03447285133024L621.10125,325.9364353899919L622.6696875,325.8549131945717L624.238125,324.71750563215073L625.8065625,325.68551640053676L627.375,326.2975596114101L628.9434375,325.3011511393987L630.5118749999999,325.16596232211566L632.0803125,325.59719667190984L633.64875,326.1709233445736L635.2171875,326.27500181237997L636.785625,325.4986546724335L638.3540625,325.766410742962L639.9225,326.1416135512774L641.4909375,326.7647726654175L643.0593749999999,325.4751393937896L644.6278125,324.7524537743508L646.19625,326.14080065077866L647.7646875,324.16773383921594L649.333125,323.6249502366408L650.9015625000001,324.82784660860284L652.47,325.2920243445127L654.0384375,324.1615876230477L655.606875,325.70613119426525L657.1753125,326.63800075936695L658.74375,325.8714058304031L660.3121875,327.2364988003731L661.880625,327.61703894604125L663.4490625000001,327.96746814428013L665.0175,326.94926458612775L666.5859375,324.7459709827233L668.154375,326.0083875951738L669.7228124999999,325.6986144276525L671.29125,323.9056963069517L672.8596875,325.6228435022753L674.428125,323.85059607478496L675.9965625,325.79674139269764L677.565,326.5063001505792L679.1334375,327.4164782881219L680.701875,326.582498349821L682.2703124999999,326.4965587237206L683.83875,327.1025993994595L685.4071875,327.03209468082804L686.975625,327.35512822333675L688.5440625,326.61235241650127L690.1125000000001,324.31775547924974L691.6809375,325.2933122117226L693.249375,323.3366820243862L694.8178125,324.6994249873754L696.38625,325.07337629546066L697.9546875,325.64566173476027L699.523125,327.0324422218741L701.0915625,326.96257157637825L702.6600000000001,326.80243254265656L704.2284375,326.3292680882995L705.796875,327.0300184987212L707.3653125,326.3268550436896L708.9337499999999,326.776470697686L710.5021875,327.4169232826067L712.070625,327.48622689863595L713.6390625,328.0115341878793L715.2075,327.7046810931633L716.7759375,327.9528057458641L718.344375,328.7241443932649L719.9128125,322.72004612238226L721.4812499999999,323.52075094139997L723.0496875,323.21009632560896L724.618125,323.92904402109L726.1865625,324.9289398198512L727.755,325.83773055131456L729.3234375000001,327.00849969174897L730.891875,327.3707134843012L732.4603125,326.7960385492509L734.02875,326.71316100212096L735.5971875,324.629879516799L737.165625,325.4720126870775L738.7340625,327.40985388532124L740.3025,328.2504791760366L741.8709375000001,326.96676244290234L743.439375,326.491456851912L745.0078125,325.94576103916546L746.57625,326.27690361828905L748.1446874999999,326.8548758500473L749.713125,326.27957081231915L751.2815625,327.6574917052785L752.85,326.7909285319359L754.4184375,326.5005150620852L755.986875,324.68783946043993L757.5553125,326.789059149442L759.12375,326.91505005535134L760.6921874999999,326.0423962897214L762.260625,323.83750394183755L763.8290625,325.26056922846954L765.3975,326.3180715895404L766.9659375,327.08303528789156L768.5343750000001,325.8959580317932L770.1028125,326.62183912358086L771.67125,326.3486808378793L773.2396875,327.7508547442668L774.808125,328.2919144566257L776.3765625,328.0935078976806L777.945,329.3410545106229L779.5134375,324.5223790999404L781.0818750000001,326.2435694031278L782.6503125,325.87224771077615L784.21875,326.1359775526521L785.7871875,327.17679909234016L787.3556249999999,328.1188356003072L788.9240625,328.5014398636207L790.4925,327.20693386859324L792.0609375,328.21290339044305L793.629375,328.6979807533837L795.1978125,328.14292038525883L796.76625,313.6075679548163L798.3346875,318.80254473724256L799.9031249999999,321.99017200330246L801.4715625,324.2630597423051L803.04,326.3000050000897L804.6084375,327.49586306452164L806.176875,327.0752990136296L807.7453125000001,327.88913663345255L809.31375,328.1562198822177L810.8821875,328.29622908483475L812.450625,326.9247792980859L814.0190625,325.7443832099035L815.5875,326.3392767729152L817.1559375,327.3541219256383L818.724375,327.1198144289601L820.2928125000001,328.949925122503L821.86125,327.7419164631276L823.4296875,327.9341330439427L824.998125,328.31022615708224L826.5665624999999,326.33033211743356L828.135,325.6438930985923L829.7034375,325.0271362034381L831.271875,325.2732773291514L832.8403125,327.360767757825L834.40875,327.4287337693149L835.9771875,326.6057307778177L837.545625,328.35946854052537L839.1140624999999,325.7286382746698L840.6825,324.9730626576744L842.2509375,326.8887905234799L843.819375,327.48515956921574L845.3878125,326.5724036821905L846.9562500000001,326.67589298233673L848.5246875,327.4291532941637L850.093125,328.6047276181135L851.6615625,326.96176323670176L853.23,326.8666186258522L854.7984375,327.302110469382L856.366875,325.7199802110925L857.9353125,326.4464830962223L859.5037500000001,327.93191463007753L861.0721875,328.6028084279099L862.640625,327.7930110207925L864.2090625,328.73886142894975L865.7774999999999,326.4975607681709L867.3459375,328.2026097875034L868.914375,328.64185753035656L870.4828125,328.4154448229248L872.05125,328.6777286267815L873.6196875,328.75600012388895L875.188125,328.4578458685935L876.7565625,327.0451679556587L878.3249999999999,328.40946704001306L879.8934375,329.3754725367468L881.461875,328.5174270094659L883.0303125,327.14319726278546L884.59875,326.47951448839257L886.1671875000001,328.01535315535887L887.735625,328.9510857830284L889.3040625,329.06943586501507L890.8725,328.62833935469416L892.4409375,326.9691814829248L894.009375,328.1608238151823L895.5778125,327.90824610850336L897.14625,328.95123865250713L898.7146875000001,329.7223815824318L900.283125,330.1403257497185L901.8515625,330.68974440688135L903.42,330.2548177285446L904.9884374999999,328.8370258771082L906.556875,328.76336371777313L908.1253125,328.0850321903474L909.69375,328.55292482173877L911.2621875,328.55309290432865L912.830625,327.8775629774511L914.3990625,327.98158210912715L915.9675,327.7392169723726L917.5359374999999,327.0086164429007L919.104375,326.2090426352802L920.6728125,327.32302938291775L922.24125,327.73263010489313L923.8096875,329.5081813503757L925.3781250000001,330.07340487729056L926.9465625,328.532079532419L928.515,328.65977031926155L930.0834375,327.7896011115138L931.651875,326.973004514817L933.2203125,328.1057941793347L934.78875,326.62406381775213L936.3571875,327.5254354612928L937.9256250000001,327.7447463247936L939.4940625,328.15453399204733L941.0625,329.4539570050131L942.6309375,330.3632302057552L944.1993749999999,330.52655735679036L945.7678125,330.10285716340036L947.33625,330.2557729729294L948.9046875,329.2111295822046L950.473125,328.98759297115134L952.0415625,329.6190775265913L953.61,330.0819582695459L955.1784375,331.2457537805532L956.7468749999999,330.4999223372853L958.3153125,330.6438705677861L959.88375,329.6724690787688L961.4521875,329.5033147915097L963.020625,328.22659057233494L964.5890625000001,328.4798860488808L966.1575,329.6032121630825L967.7259375,328.59800191434965L969.294375,329.7529774763799L970.8628125,330.112980376694L972.43125,330.80793599644636L973.9996875,331.15620529462797L975.568125,331.6652101826525L977.1365625000001,331.39560794290804L978.705,331.5937711436506L980.2734375,330.0776994867569L981.841875,330.68281266665883L983.4103124999999,330.81861404573175L984.97875,331.44443172242984L986.5471875,331.65043864217074L988.115625,332.04885401641366L989.6840625,331.54504469113255L991.2525,332.08337925290186L992.8209375,330.2917187487722L994.389375,328.8507824591339L995.9578124999999,328.90429195289664L997.52625,329.6078429989694L999.0946875,329.45776195589644L1000.663125,327.70319045461264L1002.2315625,327.54260215659133L1003.8000000000001,329.06437856237767L1005.3684375,329.18565544001785L1006.936875,330.25757343186774L1008.5053125,329.80759681911366L1010.07375,329.9690957768483L1011.6421875,329.3316509795314L1013.210625,329.59280161962863L1014.7790625,329.8229508232011L1016.3475000000001,328.1496592150558L1017.9159375,328.813902735467L1019.484375,329.32565015334666L1021.0528125,328.9384730295125L1022.6212499999999,330.1375803734356L1024.1896875,331.3386345025827L1025.758125,330.94432945496897L1027.3265625,330.71302135630987L1028.895,330.88490890507916L1030.4634375,330.26153203236305L1032.031875,330.753079576307L1033.6003125,330.5626575050485L1035.16875,330.2671673131478L1036.7371875000001,328.822452276276L1038.305625,329.67080726180905L1039.8740625,330.25764368496056L1041.4424999999999,331.19872797064244L1043.0109375,330.4657052656286L1044.579375,330.0111300657132L1046.1478125,329.16296201910615L1047.71625,329.34714251477624L1049.2846875,329.54399776193856L1050.853125,330.1405370578144L1052.4215625,329.8958078199697L1053.99,330.54563657830437L1055.5584375,330.30509905940556L1057.126875,328.9984157519478L1058.6953125,329.55576483602994L1060.26375,329.71887654745007L1061.8321875,329.731485446784L1063.400625,328.205053332545L1064.9690625,329.08747264562294L1066.5375,329.6129517978188L1068.1059375,330.0562395392916L1069.674375,330.0871630586269L1071.2428125,330.0327941326008L1072.81125,329.4952144070451L1074.3796875,330.6621624143266L1075.9481250000001,331.55005708874137L1077.5165625,330.4463973077768L1079.085,330.9107837321085L1080.6534374999999,331.1758206795383L1082.221875,331.50149031347587L1083.7903125,330.64358060102575L1085.35875,329.9831448864998L1086.9271875,330.9647121658942L1088.495625,330.40664719299554L1090.0640625,331.4681788445116L1091.6325,331.45044283960357L1093.2009375,331.3186497670384L1094.769375,330.1786748477012L1096.3378125,330.9253000668598L1097.5925625,330.78748370835916" style="fill: none;" fill="none"></path></g></g></g></g><g opacity="0.2"><g><g><g><path stroke="rgb(51, 187, 238)" stroke-width="2px" d="M159.980625,27.79161423903247L161.5490625,94.24120952899641L163.1175,101.23365994966946L164.6859375,109.05735755333532L166.254375,113.79147244966948L167.8228125,177.825441800631L169.39125,206.37483262282151L170.9596875,229.4785834679237L172.52812500000002,223.14095811110275L174.0965625,254.68331322303186L175.66500000000002,262.33404212364786L177.23343749999998,244.84483971228966L178.801875,231.00283085749703L180.37031249999998,218.31601726825423L181.93875,258.8517022939829L183.5071875,268.682656625601L185.075625,267.2503881601187L186.6440625,271.218054316594L188.2125,251.36236267089845L189.7809375,259.83682509202225L191.349375,274.425047654372L192.9178125,262.0401873075045L194.48625,259.1634972205529L196.0546875,288.1606129572942L197.623125,263.0397637000451L199.1915625,274.83864663931035L200.76,275.5414774968074L202.3284375,263.6668180025541L203.896875,263.91786921574516L205.4653125,276.2344721867488L207.03375,279.3419674213116L208.6021875,289.5454548762395L210.170625,270.9565932053786L211.73906250000002,282.54317380464994L213.3075,279.59128640981817L214.87593750000002,294.25528552715593L216.44437499999998,285.8109053391677L218.0128125,275.3812411968525L219.58124999999998,277.61641787015475L221.1496875,215.99753934420076L222.718125,279.49236755371095L224.2865625,288.19879361666165L225.855,274.5123926016001L227.4234375,303.14103270310625L228.991875,300.46911750206584L230.5603125,295.43592353233925L232.12875,302.7471005366399L233.6971875,281.792331636869L235.265625,293.16835867074815L236.8340625,303.6599139873798L238.4025,303.17805486825796L239.9709375,284.2617834237906L241.539375,304.6670150756836L243.1078125,304.2296973008376L244.67625,308.2077788719764L246.2446875,289.88963799109825L247.813125,312.63069463876576L249.3815625,292.5164298424354L250.95000000000002,300.55762646014875L252.5184375,302.55100332406846L254.08687500000002,297.86141322209284L255.65531249999998,318.67272743811975L257.22375,304.71329140296353L258.7921875,316.776528930664L260.36062499999997,274.66568345289966L261.9290625,307.5165164067195L263.4975,313.52210352971L265.0659375,308.2667820857121L266.634375,307.78087375347434L268.2028125,312.48550221369817L269.77125,309.86565029437725L271.3396875,311.67970328697794L272.908125,312.30328486515924L274.4765625,312.6902770996094L276.045,308.9649844829853L277.6134375,304.93252815833455L279.181875,309.49890412550707M282.31875,303.32903424776515L283.8871875,277.71128751314603L285.455625,308.46461428128754L287.0240625,307.7062529343825L288.59250000000003,302.69850997924806L290.1609375,281.7610964261568L291.729375,294.3704012357272L293.2978125,316.2281474186824L294.86625,302.5614159804124L296.4346875,309.4329609797551L298.003125,313.5909429110014L299.57156249999997,318.4725782541128L301.14,306.85417768038235L302.7084375,299.24509664682245L304.276875,306.7338597811185L305.8453125,292.67376990685096L307.41375,314.6177108177772L308.9821875,305.70593338012696L310.550625,310.31684793325576L312.1190625,292.3052915132963L313.6875,302.1437650240385L315.25593749999996,312.7660564129169L316.824375,320.3057243347168L318.3928125,319.94765583918644L319.96125,318.85262779822716L321.52968749999997,302.02923132089467L323.098125,299.2769111046424L324.6665625,308.0672121488131L326.235,315.8608247610239L327.8034375,313.84199412419247L329.371875,311.97819207998424L330.9403125,312.70762968796953L332.50875,313.0327252314641L334.0771875,306.2768751878005L335.645625,323.6856725839468L337.2140625,305.6741161639874L338.7825,314.9913969186636L340.3509375,320.0517796443059L341.919375,296.6946605975811L343.4878125,311.24527898935173L345.05625000000003,310.8149039048415L346.6246875,316.00775492741514L348.193125,318.9706342256986L349.7615625,316.74991942185625L351.33000000000004,294.2853677602915L352.8984375,300.7409995445838L354.46687499999996,320.4642228933481L356.0353125,304.9284789452186L357.60375,292.6303870567909L359.1721875,314.14684360210714L360.74062499999997,314.213365994967L362.3090625,312.1783385056716L363.8775,316.0673346299392L365.4459375,313.57879251333384L367.014375,316.3010332547702L368.5828125,321.42793837327224L370.15125,308.87879251333385L371.7196875,313.7760482201209L373.288125,310.1924808208759L374.8565625,315.67803092369667L376.425,316.94081168541544L377.9934375,325.21801839975205L379.561875,291.90268167349006L381.1303125,299.50655775803784L382.69875,305.6370967571552L384.26718750000003,303.57777123084435L385.835625,321.2653906015249L387.4040625,309.96861560528095L388.9725,322.47437585683974L390.54093750000004,311.55070771437425L392.109375,316.5416745699369L393.67781249999996,305.3710044273963L395.24625,306.38446895892804L396.8146875,322.67105231651897L398.383125,321.02012358445387L399.95156249999997,306.75815505981444L401.52,320.4624851520245L403.0884375,317.8004061185396L404.656875,322.81508900569037L406.2253125,322.85616038395807L407.79375,316.3449981102577L409.3621875,321.6859322767991L410.930625,311.1845407926119L412.4990625,317.66620283860425L414.0675,310.63268931462216L415.6359375,310.1739697383L417.204375,323.3484294011043L418.7728125,319.61272688645585L420.34125,322.81913821880636L421.9096875,323.03317002516525L423.47812500000003,321.8398023752066L425.0465625,310.8212673480694L426.615,316.03494092501126L428.1834375,325.1688485952524L429.75187500000004,308.75037618783807L431.3203125,322.3233964773325L432.88874999999996,314.7964554419884L434.4571875,324.554522558359L436.025625,321.3053034855769L437.5940625,258.4872731135442L439.16249999999997,321.72815939096307L440.7309375,323.21885458139275L442.299375,317.5875328063965L443.8678125,326.11579073392426L445.43625,313.20279494065505L447.0046875,322.3951265775241L448.573125,322.13828840989333L450.1415625,322.27712015005255L451.71,319.39406661987306L453.2784375,326.47443709740276L454.846875,325.97522401076094L456.4153125,318.8231248121995L457.98375,313.8813305194561L459.5521875,320.542313678448L461.120625,316.2790522061861L462.68906250000003,320.5116549565242L464.2575,325.58071397634654L465.8259375,317.70206650954026L467.394375,324.2757047213041L468.96281250000004,327.4769111046424L470.53125,324.7425227238582L472.09968749999996,325.6900427304782L473.668125,312.15809244009165L475.2365625,306.97912679818955L476.805,321.93814198420597L478.37343749999997,321.231261913593L479.941875,322.1394469041091L481.5103125,318.467949793889L483.07875,321.682462310791L484.6471875,326.2580924400916L486.215625,320.18135446401743L487.7840625,318.8242833064153L489.3525,321.89244214571437L490.9209375,320.7962583688589L492.489375,319.63991288405197L494.0578125,315.39053403414215L495.62625,318.80287874661957L497.1946875,327.0876060192402L498.763125,320.58743426983176L500.3315625,317.38449290348933L501.90000000000003,327.9975259927603L503.4684375,323.1245669438289L505.036875,326.65607381967396L506.6053125,326.38882437485915L508.17375000000004,324.86168626638556L509.7421875,324.784171970074L511.31062499999996,318.86130547156705L512.8790625,323.9847378657414L514.4475,316.7834716209998L516.0159375,327.56541592524604L517.584375,324.9507689549373L519.1528125,321.7408862774189L520.7212499999999,322.7283205472506L522.2896875,282.2863411536584L523.858125,323.0580417926495L525.4265625,323.04589415330156L526.995,318.5992623549241L528.5634375,322.5993222163274L530.131875,317.65405519925633L531.7003125,322.9597049419697L533.26875,324.1675317030687L534.8371875,323.0377957270696L536.405625,326.03480647160455L537.9740625000001,322.26034405048074L539.5425,322.5773411677434L541.1109375,323.59601340660686L542.679375,327.28486172602726L544.2478125,323.1210942195012L545.81625,323.63650553776665L547.3846875,323.9506091778095L548.953125,321.4522336519682L550.5215625,323.6127867478591L552.09,324.7697101006141L553.6584375,328.3451818319467L555.226875,327.6221049088698L556.7953125,323.0418449401855L558.36375,329.2932797065148L559.9321874999999,316.1882345346304L561.500625,314.3452550447904L563.0690625,308.8354096632737L564.6375,325.3105724334717L566.2059375,307.1700190617488L567.774375,322.0925913297213L569.3428125,315.9244564349835L570.91125,315.8157041696402L572.4796875,327.2408982496995L574.048125,316.41672545212964L575.6165625,326.9140677232009L577.1850000000001,326.99563123262845L578.7534375,330.54102210998536L580.321875,318.3036670391376L581.8903125,321.6263498159555L583.45875,324.4596556736873L585.0271875,320.286634005033L586.595625,328.49211061917816L588.1640625,323.31372422438403L589.7325,324.9600244962252L591.3009375,317.77669008695165L592.869375,310.62806085439826L594.4378125,328.9739697383L596.00625,319.619666818472L597.5746875,321.54652404785156L599.1431249999999,325.7762333209698L600.7115625,325.66169823866625L602.28,325.64145217308635L603.8484375,328.2341167156513L605.416875,322.0474707383376L606.9853125,324.71533534710227L608.55375,329.7410087585449L610.1221875,324.7078147888183L611.690625,320.8639392559345L613.2590625,325.2851200397198L614.8275,326.70929283728964L616.3959375000001,326.7549912966214L617.964375,327.3201475290152L619.5328125,325.5575758127066L621.10125,325.7409475179819L622.6696875,325.6923569605901L624.238125,322.4495013310359L625.8065625,327.6157414656419L627.375,327.5179811037504L628.9434375,323.3143007131723L630.5118749999999,324.8963942014254L632.0803125,326.45708312988285L633.64875,327.31494120084324L635.2171875,326.4825355236347L636.785625,323.9506091778095L638.3540625,326.30031955425557L639.9225,326.88977244450496L641.4909375,328.0073594019963L643.0593749999999,322.90359520545377L644.6278125,323.3114099942721L646.19625,328.90918094928446L647.7646875,320.2334149874174L649.333125,322.54263323270357L650.9015625000001,327.2264363802396L652.47,326.2176003089318L654.0384375,321.90748326228214L655.606875,328.78596957280087L657.1753125,328.49615983229415L658.74375,324.34280636127176L660.3121875,329.958510530912L661.880625,328.37584055387055L663.4490625000001,328.6662281623253L665.0175,324.9189544971173L666.5859375,320.352577150785L668.154375,328.52566143916204L669.7228124999999,325.0809230217567L671.29125,320.33059610220107L672.8596875,329.0468555743878L674.428125,320.316713479849L675.9965625,329.67737846374513L677.565,327.9211688115047L679.1334375,329.23138439471904L680.701875,324.9195323650654L682.2703124999999,326.32519408005936L683.83875,328.311051764855L685.4071875,326.891507427509L686.975625,327.99926097576434L688.5440625,325.13124856215256L690.1125000000001,319.7423017061673L691.6809375,327.2385840195876L693.249375,319.43513799814076L694.8178125,327.4167507758507L696.38625,325.8190396822416L697.9546875,326.7868057544415L699.523125,329.7976991213285L701.0915625,326.82324867248536L702.6600000000001,326.4831133915828L704.2284375,325.38577249967136L705.796875,328.42732320932237L707.3653125,324.9247386932373L708.9337499999999,327.6730096963736L710.5021875,328.6939934070294L712.070625,327.62441913898175L713.6390625,329.05900321373576L715.2075,327.0928123474121L716.7759375,328.4475692749024L718.344375,330.2622028937707L719.9128125,310.7478022648738L721.4812499999999,325.11736593980055L723.0496875,322.5906473013071L724.618125,325.3626343360314L726.1865625,326.9227440173809L727.755,327.6498701535739L729.3234375000001,329.3430273789626L730.891875,328.09297212453987L732.4603125,325.6501298464262L734.02875,326.5479021805983L735.5971875,320.4757912855882L737.165625,327.15123631404L738.7340625,331.2739324422983L740.3025,329.92669607309193L741.8709375000001,324.40701590317946L743.439375,325.5436918111948L745.0078125,324.8576370532696L746.57625,326.9372058868408L748.1446874999999,328.0073594019963L749.713125,325.1324056772085L751.2815625,330.4050824678861L752.85,325.0629911862887L754.4184375,325.92142712519717L755.986875,321.07334260206954L757.5553125,330.97891637361965L759.12375,327.1662774306077L760.6921874999999,324.3023142301119L762.260625,319.4409221942608L763.8290625,328.09817845271186L765.3975,328.4267439622146L766.9659375,328.6083820636456L768.5343750000001,323.5289117666391L770.1028125,328.0692547137921L771.67125,325.8039999448336L773.2396875,330.5468063061054L774.808125,329.3707940028264L776.3765625,327.69788284301757L777.945,331.8286773975079L779.5134375,314.913882622352L781.0818750000001,329.67564348074103L782.6503125,325.13182780926047L784.21875,326.661858015794L785.7871875,329.25220970740685L787.3556249999999,329.99726767906776L788.9240625,329.2643573467548L790.4925,324.6256734114427L792.0609375,330.2188186645508L793.629375,329.66523082439716L795.1978125,327.0361233637883L796.76625,284.62390113243686L798.3346875,329.1613906566913L799.9031249999999,328.3463389470027L801.4715625,328.7952251140888L803.04,330.36169823866624L804.6084375,329.8804183666523L806.176875,326.2366892594558L807.7453125000001,329.5119385939378L809.31375,328.6887870788574L810.8821875,328.5754091116098L812.450625,324.1900919987605L814.0190625,323.39065927358774L815.5875,327.52550166203423L817.1559375,329.3777353140024L818.724375,326.65260247450607L820.2928125000001,332.5991877629207L821.86125,325.33313272916354L823.4296875,328.31741520808293L824.998125,329.0601603287917L826.5665624999999,322.38239969106826L828.135,324.2751254741962L829.7034375,323.79731556819036L831.271875,325.76408568162185L832.8403125,331.52324867248535L834.40875,327.5642588101901L835.9771875,324.9646529564491L837.545625,331.8564426422119L839.1140624999999,320.4827312176044L840.6825,323.4664358285757L842.2509375,330.7087748307448L843.819375,328.67432658855734L845.3878125,324.752357512254L846.9562500000001,326.88225188622107L848.5246875,328.93116337702827L850.093125,330.9488368988037L851.6615625,323.6856725839468L853.23,326.67689913236177L854.7984375,328.1704864208515L856.366875,322.5651935283954L857.9353125,327.8951385498047L859.5037500000001,330.89388289818396L861.0721875,329.940578695444L862.640625,326.1782652928279L864.2090625,330.62489847036505L865.7774999999999,322.02838040865385L867.3459375,331.602497951801L868.914375,329.51772279005786L870.4828125,327.96397517277643L872.05125,329.2007256727952L873.6196875,328.9120744265043L875.188125,327.8633227128249L876.7565625,324.22827127896824L878.3249999999999,331.1298957531269L879.8934375,331.30169906616214L881.461875,326.8064739520733L883.0303125,324.40296669006347L884.59875,325.15612308795636L886.1671875000001,331.0778338505672L887.735625,330.81694784898025L889.3040625,329.30542734586277L890.8725,327.74878763052135L892.4409375,323.6608008164626L894.009375,330.5369728968694L895.5778125,327.4046031365028L897.14625,331.0309782761794L898.7146875000001,331.2600498199463L900.283125,330.9737114246075L901.8515625,331.7852917891282L903.42,329.3875687232384L904.9884374999999,326.0099319458008L906.556875,328.6164804898775L908.1253125,326.73243100092964L909.69375,329.48590833223784L911.2621875,328.5534280630258L912.830625,326.5305482130784L914.3990625,328.1889975034274L915.9675,327.2559379871075L917.5359374999999,325.55179023742676L919.104375,324.6146828871507L920.6728125,329.5443322988657L922.24125,328.5493788499099L923.8096875,333.04865179795485L925.3781250000001,331.2004673591027L926.9465625,325.4586583357591L928.515,328.91438727745646L930.0834375,326.0544732900766L931.651875,325.3447011214036L933.2203125,330.3645903367263L934.78875,323.66947573148286L936.3571875,329.3227813133827L937.9256250000001,328.18205481309155L939.4940625,328.97165550818806L941.0625,332.04502205481896L942.6309375,332.1763318575346L944.1993749999999,330.8522336519681L945.7678125,329.2579939035269L947.33625,330.5606889284574L948.9046875,327.1280981504L950.473125,328.54185829162594L952.0415625,330.8782652928279L953.61,331.0049480144794L955.1784375,333.5663759671725L956.7468749999999,329.01272550729607L958.3153125,330.93090506333573L959.88375,327.73548287611743L961.4521875,329.1660191169152L963.020625,325.6807871891902L964.5890625000001,328.98496026259204L966.1575,331.843137887808L967.7259375,326.5936006399301L969.294375,332.0560125791109L970.8628125,330.83083047133226L972.43125,332.19368582505444L973.9996875,331.85065844609187L975.568125,332.6801720252404L977.1365625000001,330.8580178480882L978.705,331.98891093914324L980.2734375,327.05463444636416L981.841875,331.8894155942477L983.4103124999999,331.089403621967L984.97875,332.69231966458835L986.5471875,332.0612189072829L988.115625,332.8432990440956L989.6840625,330.54044286287746L991.2525,333.1568248161903L992.8209375,326.71912624652566L994.389375,325.97753824087295L995.9578124999999,329.010990524292L997.52625,331.01073221059943L999.0946875,329.1584985586313L1000.663125,324.2045538682204L1002.2315625,327.22238716712366L1003.8000000000001,332.0988189403827L1005.3684375,329.42748298645023L1006.936875,332.39499074495757L1008.5053125,328.9103380643404L1010.07375,330.29112663269046L1011.6421875,328.060578419612L1013.210625,330.1135391235352L1014.7790625,330.2818710914025L1016.3475000000001,324.8130957089937L1017.9159375,330.1384122701792L1019.484375,330.3460806333102L1021.0528125,328.1664372077355L1022.6212499999999,332.5286147777851L1024.1896875,333.73355081998386L1025.758125,330.158080467811L1027.3265625,330.25179023742675L1028.895,331.2276547358586L1030.4634375,329.01851108257586L1032.031875,331.7332312657283L1033.6003125,330.182953614455L1035.16875,329.6779563316932L1036.7371875000001,325.9416731907771L1038.305625,331.3624372629019L1039.8740625,331.4278025407057L1041.4424999999999,333.0752613067627L1043.0109375,329.004049213116L1044.579375,329.10470167306755L1046.1478125,327.47170477647046L1047.71625,329.7144006288969L1049.2846875,329.93652948232796L1050.853125,331.33004355797397L1052.4215625,329.40781478881837L1053.99,331.84140290480394L1055.5584375,329.8254643660325L1057.126875,326.39287358797515L1058.6953125,330.667125584529L1060.26375,330.04412325345555L1061.8321875,329.7566277430608L1063.400625,325.1613294161283L1064.9690625,330.8470273237962L1066.5375,330.6607635204609L1068.1059375,330.94016060462366L1069.674375,330.1488249265231L1071.2428125,329.92438184298004L1072.81125,328.42327399620643L1074.3796875,332.98907071627104L1075.9481250000001,333.3205297029935L1077.5165625,328.24568648705116L1079.085,331.83677582373986L1080.6534374999999,331.7043075268085L1082.221875,332.1508794637827L1083.7903125,328.9328983600323L1085.35875,328.6662281623253L1086.9271875,332.9219690763033L1088.495625,329.29385895362265L1090.0640625,333.58488567058856L1091.6325,331.4150770334097L1093.2009375,331.0558528019832L1094.769375,327.9055512061486L1096.3378125,332.4140796954815L1097.5925625,330.5126762390137" style="fill: none;" fill="none"></path></g></g></g></g></g></g><g transform="translate(28, 376)" clip-path="url(#clip_1)"><clipPath id="clip_1"><rect width="1254" height="24"></rect></clipPath><g><g><line x1="0" y1="0" x2="0" y2="5" style="visibility: inherit;" fill="rgb(0, 0, 0)" stroke="rgb(204, 204, 204)" stroke-width="1px"></line><line x1="156.84375" y1="0" x2="156.84375" y2="5" style="visibility: inherit;" fill="rgb(0, 0, 0)" stroke="rgb(204, 204, 204)" stroke-width="1px"></line><line x1="313.6875" y1="0" x2="313.6875" y2="5" style="visibility: inherit;" fill="rgb(0, 0, 0)" stroke="rgb(204, 204, 204)" stroke-width="1px"></line><line x1="470.53125" y1="0" x2="470.53125" y2="5" style="visibility: inherit;" fill="rgb(0, 0, 0)" stroke="rgb(204, 204, 204)" stroke-width="1px"></line><line x1="627.375" y1="0" x2="627.375" y2="5" style="visibility: inherit;" fill="rgb(0, 0, 0)" stroke="rgb(204, 204, 204)" stroke-width="1px"></line><line x1="784.21875" y1="0" x2="784.21875" y2="5" style="visibility: inherit;" fill="rgb(0, 0, 0)" stroke="rgb(204, 204, 204)" stroke-width="1px"></line><line x1="941.0625" y1="0" x2="941.0625" y2="5" style="visibility: inherit;" fill="rgb(0, 0, 0)" stroke="rgb(204, 204, 204)" stroke-width="1px"></line><line x1="1097.90625" y1="0" x2="1097.90625" y2="5" style="visibility: inherit;" fill="rgb(0, 0, 0)" stroke="rgb(204, 204, 204)" stroke-width="1px"></line><line x1="1254.75" y1="0" x2="1254.75" y2="5" style="visibility: inherit;" fill="rgb(0, 0, 0)" stroke="rgb(204, 204, 204)" stroke-width="1px"></line></g><g transform="translate(0, 8)"><text x="0" y="0" dx="0em" dy="0.95em" style="text-anchor: middle; visibility: hidden; font-family: Roboto, sans-serif; font-size: 12px; font-weight: 200;" fill="rgb(255, 255, 255)" stroke="none" stroke-width="1px">-500</text><text x="156.84375" y="0" dx="0em" dy="0.95em" style="text-anchor: middle; visibility: inherit; font-family: Roboto, sans-serif; font-size: 12px; font-weight: 200;" fill="rgb(255, 255, 255)" stroke="none" stroke-width="1px">0</text><text x="313.6875" y="0" dx="0em" dy="0.95em" style="text-anchor: middle; visibility: inherit; font-family: Roboto, sans-serif; font-size: 12px; font-weight: 200;" fill="rgb(255, 255, 255)" stroke="none" stroke-width="1px">500</text><text x="470.53125" y="0" dx="0em" dy="0.95em" style="text-anchor: middle; visibility: inherit; font-family: Roboto, sans-serif; font-size: 12px; font-weight: 200;" fill="rgb(255, 255, 255)" stroke="none" stroke-width="1px">1k</text><text x="627.375" y="0" dx="0em" dy="0.95em" style="text-anchor: middle; visibility: inherit; font-family: Roboto, sans-serif; font-size: 12px; font-weight: 200;" fill="rgb(255, 255, 255)" stroke="none" stroke-width="1px">1.5k</text><text x="784.21875" y="0" dx="0em" dy="0.95em" style="text-anchor: middle; visibility: inherit; font-family: Roboto, sans-serif; font-size: 12px; font-weight: 200;" fill="rgb(255, 255, 255)" stroke="none" stroke-width="1px">2k</text><text x="941.0625" y="0" dx="0em" dy="0.95em" style="text-anchor: middle; visibility: inherit; font-family: Roboto, sans-serif; font-size: 12px; font-weight: 200;" fill="rgb(255, 255, 255)" stroke="none" stroke-width="1px">2.5k</text><text x="1097.90625" y="0" dx="0em" dy="0.95em" style="text-anchor: middle; visibility: inherit; font-family: Roboto, sans-serif; font-size: 12px; font-weight: 200;" fill="rgb(255, 255, 255)" stroke="none" stroke-width="1px">3k</text><text x="1254.75" y="0" dx="0em" dy="0.95em" style="text-anchor: middle; visibility: hidden; font-family: Roboto, sans-serif; font-size: 12px; font-weight: 200;" fill="rgb(255, 255, 255)" stroke="none" stroke-width="1px">3.5k</text></g><line x1="0" y1="0" x2="1254.75" y2="0" fill="rgb(0, 0, 0)" stroke="rgb(204, 204, 204)" stroke-width="1px"></line></g></g></g></g></svg>